<?xml version="1.0" encoding="UTF-8" standalone="no"?>
<!DOCTYPE svg PUBLIC "-//W3C//DTD SVG 1.1//EN"
 "http://www.w3.org/Graphics/SVG/1.1/DTD/svg11.dtd">
<!-- Generated by graphviz version 2.40.1 (20161225.0304)
 -->
<!-- Title: load_boats Pages: 1 -->
<svg width="285pt" height="28pt"
 viewBox="0.00 0.00 285.00 28.00" xmlns="http://www.w3.org/2000/svg" xmlns:xlink="http://www.w3.org/1999/xlink">
<g id="graph0" class="graph" transform="scale(1 1) rotate(0) translate(4 24)">
<title>load_boats</title>
<polygon fill="#ffffff" stroke="transparent" points="-4,4 -4,-24 281,-24 281,4 -4,4"/>
<!-- Node91 -->
<g id="node1" class="node">
<title>Node91</title>
<polygon fill="#bfbfbf" stroke="#000000" points="0,-.5 0,-19.5 64,-19.5 64,-.5 0,-.5"/>
<text text-anchor="middle" x="32" y="-7.5" font-family="Helvetica,sans-Serif" font-size="10.00" fill="#000000">load_boats</text>
</g>
<!-- Node92 -->
<g id="node2" class="node">
<title>Node92</title>
<g id="a_node2"><a xlink:href="boat_8c.html#a5841281c2167da2f3adcd0f7a1a48a1a" target="_top" xlink:title="Creates a boat object. ">
<polygon fill="#ffffff" stroke="#000000" points="100,-.5 100,-19.5 168,-19.5 168,-.5 100,-.5"/>
<text text-anchor="middle" x="134" y="-7.5" font-family="Helvetica,sans-Serif" font-size="10.00" fill="#000000">create_boat</text>
</a>
</g>
</g>
<!-- Node91&#45;&gt;Node92 -->
<g id="edge1" class="edge">
<title>Node91&#45;&gt;Node92</title>
<path fill="none" stroke="#191970" d="M64.2734,-10C72.3232,-10 81.0958,-10 89.6177,-10"/>
<polygon fill="#191970" stroke="#191970" points="89.8227,-13.5001 99.8227,-10 89.8227,-6.5001 89.8227,-13.5001"/>
</g>
<!-- Node93 -->
<g id="node3" class="node">
<title>Node93</title>
<g id="a_node3"><a xlink:href="sprite_8c.html#ab67f095900ba6092fed7f581886f28c6" target="_top" xlink:title="create_sprite">
<polygon fill="#ffffff" stroke="#000000" points="204,-.5 204,-19.5 277,-19.5 277,-.5 204,-.5"/>
<text text-anchor="middle" x="240.5" y="-7.5" font-family="Helvetica,sans-Serif" font-size="10.00" fill="#000000">create_sprite</text>
</a>
</g>
</g>
<!-- Node92&#45;&gt;Node93 -->
<g id="edge2" class="edge">
<title>Node92&#45;&gt;Node93</title>
<path fill="none" stroke="#191970" d="M168.2835,-10C176.3243,-10 185.0288,-10 193.5178,-10"/>
<polygon fill="#191970" stroke="#191970" points="193.7066,-13.5001 203.7066,-10 193.7066,-6.5001 193.7066,-13.5001"/>
</g>
</g>
</svg>
