<?xml version="1.0" encoding="UTF-8" standalone="no"?>
<!DOCTYPE svg PUBLIC "-//W3C//DTD SVG 1.1//EN"
 "http://www.w3.org/Graphics/SVG/1.1/DTD/svg11.dtd">
<!-- Generated by graphviz version 2.40.1 (20161225.0304)
 -->
<!-- Title: draw_destroyed_boats Pages: 1 -->
<svg width="713pt" height="66pt"
 viewBox="0.00 0.00 713.00 66.00" xmlns="http://www.w3.org/2000/svg" xmlns:xlink="http://www.w3.org/1999/xlink">
<g id="graph0" class="graph" transform="scale(1 1) rotate(0) translate(4 62)">
<title>draw_destroyed_boats</title>
<polygon fill="#ffffff" stroke="transparent" points="-4,4 -4,-62 709,-62 709,4 -4,4"/>
<!-- Node71 -->
<g id="node1" class="node">
<title>Node71</title>
<polygon fill="#bfbfbf" stroke="#000000" points="0,-19.5 0,-38.5 115,-38.5 115,-19.5 0,-19.5"/>
<text text-anchor="middle" x="57.5" y="-26.5" font-family="Helvetica,sans-Serif" font-size="10.00" fill="#000000">draw_destroyed_boats</text>
</g>
<!-- Node72 -->
<g id="node2" class="node">
<title>Node72</title>
<g id="a_node2"><a xlink:href="game_8h.html#aaeeee1282b90aa12468a1862c7871ee4" target="_top" xlink:title="Lets the player fire against the enemy&#39;s boats using a graphical interface Shows previously hit cells...">
<polygon fill="#ffffff" stroke="#000000" points="151,-19.5 151,-38.5 237,-38.5 237,-19.5 151,-19.5"/>
<text text-anchor="middle" x="194" y="-26.5" font-family="Helvetica,sans-Serif" font-size="10.00" fill="#000000">game_round_sp</text>
</a>
</g>
</g>
<!-- Node71&#45;&gt;Node72 -->
<g id="edge1" class="edge">
<title>Node71&#45;&gt;Node72</title>
<path fill="none" stroke="#191970" d="M125.512,-29C134.1663,-29 142.8256,-29 150.9335,-29"/>
<polygon fill="#191970" stroke="#191970" points="125.3883,-25.5001 115.3883,-29 125.3883,-32.5001 125.3883,-25.5001"/>
</g>
<!-- Node73 -->
<g id="node3" class="node">
<title>Node73</title>
<g id="a_node3"><a xlink:href="game_8h.html#aff1f849979a9ca10d6ff2bce0dfb7fd5" target="_top" xlink:title="Single Player Iniciates the boards from the respective players Starts the game loop (1 turn per playe...">
<polygon fill="#ffffff" stroke="#000000" points="274.5,-38.5 274.5,-57.5 330.5,-57.5 330.5,-38.5 274.5,-38.5"/>
<text text-anchor="middle" x="302.5" y="-45.5" font-family="Helvetica,sans-Serif" font-size="10.00" fill="#000000">game_sp</text>
</a>
</g>
</g>
<!-- Node72&#45;&gt;Node73 -->
<g id="edge2" class="edge">
<title>Node72&#45;&gt;Node73</title>
<path fill="none" stroke="#191970" d="M247.2983,-38.3333C256.6727,-39.9749 266.0851,-41.6232 274.4152,-43.0819"/>
<polygon fill="#191970" stroke="#191970" points="247.6477,-34.8413 237.1938,-36.5639 246.4402,-41.7364 247.6477,-34.8413"/>
</g>
<!-- Node77 -->
<g id="node7" class="node">
<title>Node77</title>
<g id="a_node7"><a xlink:href="game_8h.html#a03f40ddf75045683b3f488d4839937ab" target="_top" xlink:title="Multiplayer. ">
<polygon fill="#ffffff" stroke="#000000" points="273,-.5 273,-19.5 332,-19.5 332,-.5 273,-.5"/>
<text text-anchor="middle" x="302.5" y="-7.5" font-family="Helvetica,sans-Serif" font-size="10.00" fill="#000000">game_mp</text>
</a>
</g>
</g>
<!-- Node72&#45;&gt;Node77 -->
<g id="edge6" class="edge">
<title>Node72&#45;&gt;Node77</title>
<path fill="none" stroke="#191970" d="M247.1035,-19.7008C255.9402,-18.1533 264.8175,-16.5988 272.797,-15.2014"/>
<polygon fill="#191970" stroke="#191970" points="246.4402,-16.2636 237.1938,-21.4361 247.6477,-23.1587 246.4402,-16.2636"/>
</g>
<!-- Node74 -->
<g id="node4" class="node">
<title>Node74</title>
<g id="a_node4"><a xlink:href="menu_8h.html#a95c8dcba38d720d3e4bd6fcf9a8ee279" target="_top" xlink:title="selects a menu option ">
<polygon fill="#ffffff" stroke="#000000" points="368,-19.5 368,-38.5 459,-38.5 459,-19.5 368,-19.5"/>
<text text-anchor="middle" x="413.5" y="-26.5" font-family="Helvetica,sans-Serif" font-size="10.00" fill="#000000">select_menu_opt</text>
</a>
</g>
</g>
<!-- Node73&#45;&gt;Node74 -->
<g id="edge3" class="edge">
<title>Node73&#45;&gt;Node74</title>
<path fill="none" stroke="#191970" d="M340.4694,-41.5007C349.2612,-39.9958 358.707,-38.379 367.7914,-36.824"/>
<polygon fill="#191970" stroke="#191970" points="339.7761,-38.0684 330.51,-43.2055 340.9572,-44.9681 339.7761,-38.0684"/>
</g>
<!-- Node75 -->
<g id="node5" class="node">
<title>Node75</title>
<g id="a_node5"><a xlink:href="menu_8h.html#a6ed6ac9188a15c74b9d07d12b34397c0" target="_top" xlink:title="Subscribes interruptions of the necessary modules Calls main menu and game functions. ">
<polygon fill="#ffffff" stroke="#000000" points="495,-19.5 495,-38.5 587,-38.5 587,-19.5 495,-19.5"/>
<text text-anchor="middle" x="541" y="-26.5" font-family="Helvetica,sans-Serif" font-size="10.00" fill="#000000">game_main_cicle</text>
</a>
</g>
</g>
<!-- Node74&#45;&gt;Node75 -->
<g id="edge4" class="edge">
<title>Node74&#45;&gt;Node75</title>
<path fill="none" stroke="#191970" d="M469.3846,-29C477.8691,-29 486.5423,-29 494.7907,-29"/>
<polygon fill="#191970" stroke="#191970" points="469.1703,-25.5001 459.1703,-29 469.1703,-32.5001 469.1703,-25.5001"/>
</g>
<!-- Node76 -->
<g id="node6" class="node">
<title>Node76</title>
<g id="a_node6"><a xlink:href="proj_8c.html#a2a16f651eccbd248e1ad3b3b924b143b" target="_top" xlink:title="proj_main_loop">
<polygon fill="#ffffff" stroke="#000000" points="623,-19.5 623,-38.5 705,-38.5 705,-19.5 623,-19.5"/>
<text text-anchor="middle" x="664" y="-26.5" font-family="Helvetica,sans-Serif" font-size="10.00" fill="#000000">proj_main_loop</text>
</a>
</g>
</g>
<!-- Node75&#45;&gt;Node76 -->
<g id="edge5" class="edge">
<title>Node75&#45;&gt;Node76</title>
<path fill="none" stroke="#191970" d="M597.1908,-29C605.8339,-29 614.6179,-29 622.8531,-29"/>
<polygon fill="#191970" stroke="#191970" points="597.1506,-25.5001 587.1506,-29 597.1506,-32.5001 597.1506,-25.5001"/>
</g>
<!-- Node77&#45;&gt;Node74 -->
<g id="edge7" class="edge">
<title>Node77&#45;&gt;Node74</title>
<path fill="none" stroke="#191970" d="M342.3594,-16.8228C350.6038,-18.234 359.3495,-19.731 367.7839,-21.1747"/>
<polygon fill="#191970" stroke="#191970" points="342.6931,-13.3291 332.246,-15.0917 341.5121,-20.2287 342.6931,-13.3291"/>
</g>
</g>
</svg>
