<?xml version="1.0" encoding="UTF-8" standalone="no"?>
<!DOCTYPE svg PUBLIC "-//W3C//DTD SVG 1.1//EN"
 "http://www.w3.org/Graphics/SVG/1.1/DTD/svg11.dtd">
<!-- Generated by graphviz version 2.40.1 (20161225.0304)
 -->
<!-- Title: draw_objects Pages: 1 -->
<svg width="672pt" height="66pt"
 viewBox="0.00 0.00 672.00 66.00" xmlns="http://www.w3.org/2000/svg" xmlns:xlink="http://www.w3.org/1999/xlink">
<g id="graph0" class="graph" transform="scale(1 1) rotate(0) translate(4 62)">
<title>draw_objects</title>
<polygon fill="#ffffff" stroke="transparent" points="-4,4 -4,-62 668,-62 668,4 -4,4"/>
<!-- Node83 -->
<g id="node1" class="node">
<title>Node83</title>
<polygon fill="#bfbfbf" stroke="#000000" points="0,-19.5 0,-38.5 74,-38.5 74,-19.5 0,-19.5"/>
<text text-anchor="middle" x="37" y="-26.5" font-family="Helvetica,sans-Serif" font-size="10.00" fill="#000000">draw_objects</text>
</g>
<!-- Node84 -->
<g id="node2" class="node">
<title>Node84</title>
<g id="a_node2"><a xlink:href="game_8h.html#aaeeee1282b90aa12468a1862c7871ee4" target="_top" xlink:title="Lets the player fire against the enemy&#39;s boats using a graphical interface Shows previously hit cells...">
<polygon fill="#ffffff" stroke="#000000" points="110,-.5 110,-19.5 196,-19.5 196,-.5 110,-.5"/>
<text text-anchor="middle" x="153" y="-7.5" font-family="Helvetica,sans-Serif" font-size="10.00" fill="#000000">game_round_sp</text>
</a>
</g>
</g>
<!-- Node83&#45;&gt;Node84 -->
<g id="edge1" class="edge">
<title>Node83&#45;&gt;Node84</title>
<path fill="none" stroke="#191970" d="M83.894,-21.3191C92.4757,-19.9135 101.3943,-18.4527 109.86,-17.066"/>
<polygon fill="#191970" stroke="#191970" points="83.3248,-17.8656 74.0221,-22.936 84.4563,-24.7735 83.3248,-17.8656"/>
</g>
<!-- Node90 -->
<g id="node8" class="node">
<title>Node90</title>
<g id="a_node8"><a xlink:href="game_8h.html#afb1a61b5802eed643536ce45225d2000" target="_top" xlink:title="Randomly fires upon player&#39;s boats using a state machine to simulate a strategy In case of a hit the ...">
<polygon fill="#ffffff" stroke="#000000" points="111.5,-38.5 111.5,-57.5 194.5,-57.5 194.5,-38.5 111.5,-38.5"/>
<text text-anchor="middle" x="153" y="-45.5" font-family="Helvetica,sans-Serif" font-size="10.00" fill="#000000">game_round_ai</text>
</a>
</g>
</g>
<!-- Node83&#45;&gt;Node90 -->
<g id="edge8" class="edge">
<title>Node83&#45;&gt;Node90</title>
<path fill="none" stroke="#191970" d="M84.0698,-36.7097C93.153,-38.1975 102.6073,-39.746 111.4976,-41.2022"/>
<polygon fill="#191970" stroke="#191970" points="84.4563,-33.2265 74.0221,-35.064 83.3248,-40.1344 84.4563,-33.2265"/>
</g>
<!-- Node85 -->
<g id="node3" class="node">
<title>Node85</title>
<g id="a_node3"><a xlink:href="game_8h.html#aff1f849979a9ca10d6ff2bce0dfb7fd5" target="_top" xlink:title="Single Player Iniciates the boards from the respective players Starts the game loop (1 turn per playe...">
<polygon fill="#ffffff" stroke="#000000" points="233.5,-38.5 233.5,-57.5 289.5,-57.5 289.5,-38.5 233.5,-38.5"/>
<text text-anchor="middle" x="261.5" y="-45.5" font-family="Helvetica,sans-Serif" font-size="10.00" fill="#000000">game_sp</text>
</a>
</g>
</g>
<!-- Node84&#45;&gt;Node85 -->
<g id="edge2" class="edge">
<title>Node84&#45;&gt;Node85</title>
<path fill="none" stroke="#191970" d="M190.0379,-22.9718C204.4931,-28.0344 220.7671,-33.7341 234.1296,-38.4141"/>
<polygon fill="#191970" stroke="#191970" points="190.974,-19.5912 180.3791,-19.589 188.6601,-26.1978 190.974,-19.5912"/>
</g>
<!-- Node89 -->
<g id="node7" class="node">
<title>Node89</title>
<g id="a_node7"><a xlink:href="game_8h.html#a03f40ddf75045683b3f488d4839937ab" target="_top" xlink:title="Multiplayer. ">
<polygon fill="#ffffff" stroke="#000000" points="232,-.5 232,-19.5 291,-19.5 291,-.5 232,-.5"/>
<text text-anchor="middle" x="261.5" y="-7.5" font-family="Helvetica,sans-Serif" font-size="10.00" fill="#000000">game_mp</text>
</a>
</g>
</g>
<!-- Node84&#45;&gt;Node89 -->
<g id="edge6" class="edge">
<title>Node84&#45;&gt;Node89</title>
<path fill="none" stroke="#191970" d="M206.3886,-10C215.131,-10 223.9033,-10 231.797,-10"/>
<polygon fill="#191970" stroke="#191970" points="206.1939,-6.5001 196.1938,-10 206.1938,-13.5001 206.1939,-6.5001"/>
</g>
<!-- Node86 -->
<g id="node4" class="node">
<title>Node86</title>
<g id="a_node4"><a xlink:href="menu_8h.html#a95c8dcba38d720d3e4bd6fcf9a8ee279" target="_top" xlink:title="selects a menu option ">
<polygon fill="#ffffff" stroke="#000000" points="327,-19.5 327,-38.5 418,-38.5 418,-19.5 327,-19.5"/>
<text text-anchor="middle" x="372.5" y="-26.5" font-family="Helvetica,sans-Serif" font-size="10.00" fill="#000000">select_menu_opt</text>
</a>
</g>
</g>
<!-- Node85&#45;&gt;Node86 -->
<g id="edge3" class="edge">
<title>Node85&#45;&gt;Node86</title>
<path fill="none" stroke="#191970" d="M299.4694,-41.5007C308.2612,-39.9958 317.707,-38.379 326.7914,-36.824"/>
<polygon fill="#191970" stroke="#191970" points="298.7761,-38.0684 289.51,-43.2055 299.9572,-44.9681 298.7761,-38.0684"/>
</g>
<!-- Node87 -->
<g id="node5" class="node">
<title>Node87</title>
<g id="a_node5"><a xlink:href="menu_8h.html#a6ed6ac9188a15c74b9d07d12b34397c0" target="_top" xlink:title="Subscribes interruptions of the necessary modules Calls main menu and game functions. ">
<polygon fill="#ffffff" stroke="#000000" points="454,-19.5 454,-38.5 546,-38.5 546,-19.5 454,-19.5"/>
<text text-anchor="middle" x="500" y="-26.5" font-family="Helvetica,sans-Serif" font-size="10.00" fill="#000000">game_main_cicle</text>
</a>
</g>
</g>
<!-- Node86&#45;&gt;Node87 -->
<g id="edge4" class="edge">
<title>Node86&#45;&gt;Node87</title>
<path fill="none" stroke="#191970" d="M428.3846,-29C436.8691,-29 445.5423,-29 453.7907,-29"/>
<polygon fill="#191970" stroke="#191970" points="428.1703,-25.5001 418.1703,-29 428.1703,-32.5001 428.1703,-25.5001"/>
</g>
<!-- Node88 -->
<g id="node6" class="node">
<title>Node88</title>
<g id="a_node6"><a xlink:href="proj_8c.html#a2a16f651eccbd248e1ad3b3b924b143b" target="_top" xlink:title="proj_main_loop">
<polygon fill="#ffffff" stroke="#000000" points="582,-19.5 582,-38.5 664,-38.5 664,-19.5 582,-19.5"/>
<text text-anchor="middle" x="623" y="-26.5" font-family="Helvetica,sans-Serif" font-size="10.00" fill="#000000">proj_main_loop</text>
</a>
</g>
</g>
<!-- Node87&#45;&gt;Node88 -->
<g id="edge5" class="edge">
<title>Node87&#45;&gt;Node88</title>
<path fill="none" stroke="#191970" d="M556.1908,-29C564.8339,-29 573.6179,-29 581.8531,-29"/>
<polygon fill="#191970" stroke="#191970" points="556.1506,-25.5001 546.1506,-29 556.1506,-32.5001 556.1506,-25.5001"/>
</g>
<!-- Node89&#45;&gt;Node86 -->
<g id="edge7" class="edge">
<title>Node89&#45;&gt;Node86</title>
<path fill="none" stroke="#191970" d="M301.3594,-16.8228C309.6038,-18.234 318.3495,-19.731 326.7839,-21.1747"/>
<polygon fill="#191970" stroke="#191970" points="301.6931,-13.3291 291.246,-15.0917 300.5121,-20.2287 301.6931,-13.3291"/>
</g>
<!-- Node90&#45;&gt;Node85 -->
<g id="edge9" class="edge">
<title>Node90&#45;&gt;Node85</title>
<path fill="none" stroke="#191970" d="M204.7696,-48C214.5806,-48 224.5001,-48 233.2408,-48"/>
<polygon fill="#191970" stroke="#191970" points="204.6387,-44.5001 194.6386,-48 204.6386,-51.5001 204.6387,-44.5001"/>
</g>
</g>
</svg>
