<?xml version="1.0" encoding="UTF-8" standalone="no"?>
<!DOCTYPE svg PUBLIC "-//W3C//DTD SVG 1.1//EN"
 "http://www.w3.org/Graphics/SVG/1.1/DTD/svg11.dtd">
<!-- Generated by graphviz version 2.40.1 (20161225.0304)
 -->
<!-- Title: place_boat Pages: 1 -->
<svg width="238pt" height="142pt"
 viewBox="0.00 0.00 238.00 142.00" xmlns="http://www.w3.org/2000/svg" xmlns:xlink="http://www.w3.org/1999/xlink">
<g id="graph0" class="graph" transform="scale(1 1) rotate(0) translate(4 138)">
<title>place_boat</title>
<polygon fill="#ffffff" stroke="transparent" points="-4,4 -4,-138 234,-138 234,4 -4,4"/>
<!-- Node110 -->
<g id="node1" class="node">
<title>Node110</title>
<polygon fill="#bfbfbf" stroke="#000000" points="0,-57.5 0,-76.5 64,-76.5 64,-57.5 0,-57.5"/>
<text text-anchor="middle" x="32" y="-64.5" font-family="Helvetica,sans-Serif" font-size="10.00" fill="#000000">place_boat</text>
</g>
<!-- Node111 -->
<g id="node2" class="node">
<title>Node111</title>
<g id="a_node2"><a xlink:href="board_8c.html#a94c2c1ad303e2a5b6d5927acad3af174" target="_top" xlink:title="Checks if a sprite has been placed inside the board matrix. ">
<polygon fill="#ffffff" stroke="#000000" points="107,-114.5 107,-133.5 223,-133.5 223,-114.5 107,-114.5"/>
<text text-anchor="middle" x="165" y="-121.5" font-family="Helvetica,sans-Serif" font-size="10.00" fill="#000000">check_matrix_collision</text>
</a>
</g>
</g>
<!-- Node110&#45;&gt;Node111 -->
<g id="edge1" class="edge">
<title>Node110&#45;&gt;Node111</title>
<path fill="none" stroke="#191970" d="M46.8986,-76.6191C60.3556,-84.989 80.9177,-96.9998 100,-105 105.4874,-107.3006 111.3455,-109.4341 117.2133,-111.3767"/>
<polygon fill="#191970" stroke="#191970" points="116.4444,-114.8038 127.0338,-114.4615 118.5423,-108.1255 116.4444,-114.8038"/>
</g>
<!-- Node112 -->
<g id="node3" class="node">
<title>Node112</title>
<g id="a_node3"><a xlink:href="board_8c.html#a3477a1d0ce52ed1ee03810f53bea8b68" target="_top" xlink:title="Checks if the boat can be placed in the given postion of the matrix. ">
<polygon fill="#ffffff" stroke="#000000" points="107.5,-76.5 107.5,-95.5 222.5,-95.5 222.5,-76.5 107.5,-76.5"/>
<text text-anchor="middle" x="165" y="-83.5" font-family="Helvetica,sans-Serif" font-size="10.00" fill="#000000">verify_boat_placement</text>
</a>
</g>
</g>
<!-- Node110&#45;&gt;Node112 -->
<g id="edge2" class="edge">
<title>Node110&#45;&gt;Node112</title>
<path fill="none" stroke="#191970" d="M64.1956,-71.5994C74.2444,-73.0349 85.7324,-74.6761 97.2698,-76.3243"/>
<polygon fill="#191970" stroke="#191970" points="96.992,-79.82 107.3865,-77.7695 97.982,-72.8904 96.992,-79.82"/>
</g>
<!-- Node113 -->
<g id="node4" class="node">
<title>Node113</title>
<g id="a_node4"><a xlink:href="board_8c.html#a5cc3d6d9b6f9475ba1cdc66468431694" target="_top" xlink:title="Removes a boat from the board matrix. ">
<polygon fill="#ffffff" stroke="#000000" points="100,-38.5 100,-57.5 230,-57.5 230,-38.5 100,-38.5"/>
<text text-anchor="middle" x="165" y="-45.5" font-family="Helvetica,sans-Serif" font-size="10.00" fill="#000000">remove_boat_from_matrix</text>
</a>
</g>
</g>
<!-- Node110&#45;&gt;Node113 -->
<g id="edge3" class="edge">
<title>Node110&#45;&gt;Node113</title>
<path fill="none" stroke="#191970" d="M64.1956,-62.4006C72.0714,-61.2755 80.8313,-60.0241 89.8061,-58.742"/>
<polygon fill="#191970" stroke="#191970" points="90.5901,-62.1656 99.9946,-57.2865 89.6001,-55.236 90.5901,-62.1656"/>
</g>
<!-- Node114 -->
<g id="node5" class="node">
<title>Node114</title>
<g id="a_node5"><a xlink:href="board_8c.html#a961d159f91ae9361f28e245e283df6ba" target="_top" xlink:title="Increments (with &#45;1) the surrounding cells of a boat Blocked cells range from &#45;1 to &#45;4...">
<polygon fill="#ffffff" stroke="#000000" points="111.5,-.5 111.5,-19.5 218.5,-19.5 218.5,-.5 111.5,-.5"/>
<text text-anchor="middle" x="165" y="-7.5" font-family="Helvetica,sans-Serif" font-size="10.00" fill="#000000">block_adjacent_cells</text>
</a>
</g>
</g>
<!-- Node110&#45;&gt;Node114 -->
<g id="edge4" class="edge">
<title>Node110&#45;&gt;Node114</title>
<path fill="none" stroke="#191970" d="M46.8986,-57.3809C60.3556,-49.011 80.9177,-37.0002 100,-29 105.4874,-26.6994 111.3455,-24.5659 117.2133,-22.6233"/>
<polygon fill="#191970" stroke="#191970" points="118.5423,-25.8745 127.0338,-19.5385 116.4444,-19.1962 118.5423,-25.8745"/>
</g>
</g>
</svg>
