<?xml version="1.0" encoding="UTF-8" standalone="no"?>
<!DOCTYPE svg PUBLIC "-//W3C//DTD SVG 1.1//EN"
 "http://www.w3.org/Graphics/SVG/1.1/DTD/svg11.dtd">
<!-- Generated by graphviz version 2.40.1 (20161225.0304)
 -->
<!-- Title: verify_boat_placement Pages: 1 -->
<svg width="975pt" height="66pt"
 viewBox="0.00 0.00 975.00 66.00" xmlns="http://www.w3.org/2000/svg" xmlns:xlink="http://www.w3.org/1999/xlink">
<g id="graph0" class="graph" transform="scale(1 1) rotate(0) translate(4 62)">
<title>verify_boat_placement</title>
<polygon fill="#ffffff" stroke="transparent" points="-4,4 -4,-62 971,-62 971,4 -4,4"/>
<!-- Node160 -->
<g id="node1" class="node">
<title>Node160</title>
<polygon fill="#bfbfbf" stroke="#000000" points="0,-19.5 0,-38.5 115,-38.5 115,-19.5 0,-19.5"/>
<text text-anchor="middle" x="57.5" y="-26.5" font-family="Helvetica,sans-Serif" font-size="10.00" fill="#000000">verify_boat_placement</text>
</g>
<!-- Node161 -->
<g id="node2" class="node">
<title>Node161</title>
<g id="a_node2"><a xlink:href="board_8h.html#ad6e9584e2541e9dac82e24ae2e1f1272" target="_top" xlink:title="Places a boat on the matrix using the sprite If the boat was previously placed on the matrix...">
<polygon fill="#ffffff" stroke="#000000" points="151,-38.5 151,-57.5 215,-57.5 215,-38.5 151,-38.5"/>
<text text-anchor="middle" x="183" y="-45.5" font-family="Helvetica,sans-Serif" font-size="10.00" fill="#000000">place_boat</text>
</a>
</g>
</g>
<!-- Node160&#45;&gt;Node161 -->
<g id="edge1" class="edge">
<title>Node160&#45;&gt;Node161</title>
<path fill="none" stroke="#191970" d="M125.1713,-39.2451C134.0689,-40.5921 142.8337,-41.9191 150.7443,-43.1167"/>
<polygon fill="#191970" stroke="#191970" points="125.5189,-35.7579 115.1077,-37.7215 124.4711,-42.679 125.5189,-35.7579"/>
</g>
<!-- Node169 -->
<g id="node10" class="node">
<title>Node169</title>
<g id="a_node10"><a xlink:href="player_8h.html#ae1c4e7c7e4d00bca98a8edb0d179819f" target="_top" xlink:title="Generates a random board with placed boats for the AI. ">
<polygon fill="#ffffff" stroke="#000000" points="251,-.5 251,-19.5 375,-19.5 375,-.5 251,-.5"/>
<text text-anchor="middle" x="313" y="-7.5" font-family="Helvetica,sans-Serif" font-size="10.00" fill="#000000">generate_random_matrix</text>
</a>
</g>
</g>
<!-- Node160&#45;&gt;Node169 -->
<g id="edge10" class="edge">
<title>Node160&#45;&gt;Node169</title>
<path fill="none" stroke="#191970" d="M125.3403,-23.9551C164.2321,-21.063 212.7006,-17.4587 250.6368,-14.6376"/>
<polygon fill="#191970" stroke="#191970" points="124.8706,-20.4803 115.1578,-24.7123 125.3898,-27.461 124.8706,-20.4803"/>
</g>
<!-- Node162 -->
<g id="node3" class="node">
<title>Node162</title>
<g id="a_node3"><a xlink:href="state__machine_8h.html#aa5f2f1b1392cbe33e1401ee41fb7d3ba" target="_top" xlink:title="State Machine used for dragging and droping boats Places boats on the board and updates the atributes...">
<polygon fill="#ffffff" stroke="#000000" points="270,-38.5 270,-57.5 356,-57.5 356,-38.5 270,-38.5"/>
<text text-anchor="middle" x="313" y="-45.5" font-family="Helvetica,sans-Serif" font-size="10.00" fill="#000000">select_boat_sm</text>
</a>
</g>
</g>
<!-- Node161&#45;&gt;Node162 -->
<g id="edge2" class="edge">
<title>Node161&#45;&gt;Node162</title>
<path fill="none" stroke="#191970" d="M225.2207,-48C239.5474,-48 255.5643,-48 269.9545,-48"/>
<polygon fill="#191970" stroke="#191970" points="225.1349,-44.5001 215.1348,-48 225.1348,-51.5001 225.1349,-44.5001"/>
</g>
<!-- Node163 -->
<g id="node4" class="node">
<title>Node163</title>
<g id="a_node4"><a xlink:href="game_8h.html#a382ed7c0cb3201c13d4396ad9afc5a3e" target="_top" xlink:title="Lets the player initialize the board unsign a graphical interface 10 boats must be positioned before ...">
<polygon fill="#ffffff" stroke="#000000" points="411,-38.5 411,-57.5 499,-57.5 499,-38.5 411,-38.5"/>
<text text-anchor="middle" x="455" y="-45.5" font-family="Helvetica,sans-Serif" font-size="10.00" fill="#000000">game_init_board</text>
</a>
</g>
</g>
<!-- Node162&#45;&gt;Node163 -->
<g id="edge3" class="edge">
<title>Node162&#45;&gt;Node163</title>
<path fill="none" stroke="#191970" d="M366.7661,-48C381.3371,-48 396.939,-48 410.9094,-48"/>
<polygon fill="#191970" stroke="#191970" points="366.3763,-44.5001 356.3763,-48 366.3762,-51.5001 366.3763,-44.5001"/>
</g>
<!-- Node164 -->
<g id="node5" class="node">
<title>Node164</title>
<g id="a_node5"><a xlink:href="game_8h.html#aff1f849979a9ca10d6ff2bce0dfb7fd5" target="_top" xlink:title="Single Player Iniciates the boards from the respective players Starts the game loop (1 turn per playe...">
<polygon fill="#ffffff" stroke="#000000" points="536.5,-.5 536.5,-19.5 592.5,-19.5 592.5,-.5 536.5,-.5"/>
<text text-anchor="middle" x="564.5" y="-7.5" font-family="Helvetica,sans-Serif" font-size="10.00" fill="#000000">game_sp</text>
</a>
</g>
</g>
<!-- Node163&#45;&gt;Node164 -->
<g id="edge4" class="edge">
<title>Node163&#45;&gt;Node164</title>
<path fill="none" stroke="#191970" d="M492.3792,-35.0282C506.9676,-29.9656 523.3917,-24.2659 536.8774,-19.5859"/>
<polygon fill="#191970" stroke="#191970" points="490.9313,-31.8259 482.6315,-38.411 493.2263,-38.439 490.9313,-31.8259"/>
</g>
<!-- Node168 -->
<g id="node9" class="node">
<title>Node168</title>
<g id="a_node9"><a xlink:href="game_8h.html#a03f40ddf75045683b3f488d4839937ab" target="_top" xlink:title="Multiplayer. ">
<polygon fill="#ffffff" stroke="#000000" points="535,-38.5 535,-57.5 594,-57.5 594,-38.5 535,-38.5"/>
<text text-anchor="middle" x="564.5" y="-45.5" font-family="Helvetica,sans-Serif" font-size="10.00" fill="#000000">game_mp</text>
</a>
</g>
</g>
<!-- Node163&#45;&gt;Node168 -->
<g id="edge8" class="edge">
<title>Node163&#45;&gt;Node168</title>
<path fill="none" stroke="#191970" d="M509.451,-48C518.2143,-48 526.9877,-48 534.8734,-48"/>
<polygon fill="#191970" stroke="#191970" points="509.2222,-44.5001 499.2222,-48 509.2222,-51.5001 509.2222,-44.5001"/>
</g>
<!-- Node165 -->
<g id="node6" class="node">
<title>Node165</title>
<g id="a_node6"><a xlink:href="menu_8h.html#a95c8dcba38d720d3e4bd6fcf9a8ee279" target="_top" xlink:title="selects a menu option ">
<polygon fill="#ffffff" stroke="#000000" points="630,-19.5 630,-38.5 721,-38.5 721,-19.5 630,-19.5"/>
<text text-anchor="middle" x="675.5" y="-26.5" font-family="Helvetica,sans-Serif" font-size="10.00" fill="#000000">select_menu_opt</text>
</a>
</g>
</g>
<!-- Node164&#45;&gt;Node165 -->
<g id="edge5" class="edge">
<title>Node164&#45;&gt;Node165</title>
<path fill="none" stroke="#191970" d="M602.4694,-16.4993C611.2612,-18.0042 620.707,-19.621 629.7914,-21.176"/>
<polygon fill="#191970" stroke="#191970" points="602.9572,-13.0319 592.51,-14.7945 601.7761,-19.9316 602.9572,-13.0319"/>
</g>
<!-- Node166 -->
<g id="node7" class="node">
<title>Node166</title>
<g id="a_node7"><a xlink:href="menu_8h.html#a6ed6ac9188a15c74b9d07d12b34397c0" target="_top" xlink:title="Subscribes interruptions of the necessary modules Calls main menu and game functions. ">
<polygon fill="#ffffff" stroke="#000000" points="757,-19.5 757,-38.5 849,-38.5 849,-19.5 757,-19.5"/>
<text text-anchor="middle" x="803" y="-26.5" font-family="Helvetica,sans-Serif" font-size="10.00" fill="#000000">game_main_cicle</text>
</a>
</g>
</g>
<!-- Node165&#45;&gt;Node166 -->
<g id="edge6" class="edge">
<title>Node165&#45;&gt;Node166</title>
<path fill="none" stroke="#191970" d="M731.3846,-29C739.8691,-29 748.5423,-29 756.7907,-29"/>
<polygon fill="#191970" stroke="#191970" points="731.1703,-25.5001 721.1703,-29 731.1703,-32.5001 731.1703,-25.5001"/>
</g>
<!-- Node167 -->
<g id="node8" class="node">
<title>Node167</title>
<g id="a_node8"><a xlink:href="proj_8c.html#a2a16f651eccbd248e1ad3b3b924b143b" target="_top" xlink:title="proj_main_loop">
<polygon fill="#ffffff" stroke="#000000" points="885,-19.5 885,-38.5 967,-38.5 967,-19.5 885,-19.5"/>
<text text-anchor="middle" x="926" y="-26.5" font-family="Helvetica,sans-Serif" font-size="10.00" fill="#000000">proj_main_loop</text>
</a>
</g>
</g>
<!-- Node166&#45;&gt;Node167 -->
<g id="edge7" class="edge">
<title>Node166&#45;&gt;Node167</title>
<path fill="none" stroke="#191970" d="M859.1908,-29C867.8339,-29 876.6179,-29 884.8531,-29"/>
<polygon fill="#191970" stroke="#191970" points="859.1506,-25.5001 849.1506,-29 859.1506,-32.5001 859.1506,-25.5001"/>
</g>
<!-- Node168&#45;&gt;Node165 -->
<g id="edge9" class="edge">
<title>Node168&#45;&gt;Node165</title>
<path fill="none" stroke="#191970" d="M604.3594,-41.1772C612.6038,-39.766 621.3495,-38.269 629.7839,-36.8253"/>
<polygon fill="#191970" stroke="#191970" points="603.5121,-37.7713 594.246,-42.9083 604.6931,-44.6709 603.5121,-37.7713"/>
</g>
<!-- Node169&#45;&gt;Node164 -->
<g id="edge11" class="edge">
<title>Node169&#45;&gt;Node164</title>
<path fill="none" stroke="#191970" d="M385.3521,-10C435.6551,-10 499.9583,-10 536.2489,-10"/>
<polygon fill="#191970" stroke="#191970" points="385.1686,-6.5001 375.1686,-10 385.1685,-13.5001 385.1686,-6.5001"/>
</g>
</g>
</svg>
