<?xml version="1.0" encoding="UTF-8" standalone="no"?>
<!DOCTYPE svg PUBLIC "-//W3C//DTD SVG 1.1//EN"
 "http://www.w3.org/Graphics/SVG/1.1/DTD/svg11.dtd">
<!-- Generated by graphviz version 2.40.1 (20161225.0304)
 -->
<!-- Title: check_matrix_collision_cord Pages: 1 -->
<svg width="869pt" height="28pt"
 viewBox="0.00 0.00 869.00 28.00" xmlns="http://www.w3.org/2000/svg" xmlns:xlink="http://www.w3.org/1999/xlink">
<g id="graph0" class="graph" transform="scale(1 1) rotate(0) translate(4 24)">
<title>check_matrix_collision_cord</title>
<polygon fill="#ffffff" stroke="transparent" points="-4,4 -4,-24 865,-24 865,4 -4,4"/>
<!-- Node35 -->
<g id="node1" class="node">
<title>Node35</title>
<polygon fill="#bfbfbf" stroke="#000000" points="0,-.5 0,-19.5 140,-19.5 140,-.5 0,-.5"/>
<text text-anchor="middle" x="70" y="-7.5" font-family="Helvetica,sans-Serif" font-size="10.00" fill="#000000">check_matrix_collision_cord</text>
</g>
<!-- Node36 -->
<g id="node2" class="node">
<title>Node36</title>
<g id="a_node2"><a xlink:href="state__machine_8h.html#a003e7e4a061ada07023f893070d4bb2b" target="_top" xlink:title="State Machine used for simulating a game strategy Generates a random position and then fires on that ...">
<polygon fill="#ffffff" stroke="#000000" points="176,-.5 176,-19.5 277,-19.5 277,-.5 176,-.5"/>
<text text-anchor="middle" x="226.5" y="-7.5" font-family="Helvetica,sans-Serif" font-size="10.00" fill="#000000">game_round_ai_sm</text>
</a>
</g>
</g>
<!-- Node35&#45;&gt;Node36 -->
<g id="edge1" class="edge">
<title>Node35&#45;&gt;Node36</title>
<path fill="none" stroke="#191970" d="M150.2103,-10C158.9082,-10 167.5737,-10 175.7768,-10"/>
<polygon fill="#191970" stroke="#191970" points="150.0107,-6.5001 140.0107,-10 150.0106,-13.5001 150.0107,-6.5001"/>
</g>
<!-- Node37 -->
<g id="node3" class="node">
<title>Node37</title>
<g id="a_node3"><a xlink:href="game_8h.html#afb1a61b5802eed643536ce45225d2000" target="_top" xlink:title="Randomly fires upon player&#39;s boats using a state machine to simulate a strategy In case of a hit the ...">
<polygon fill="#ffffff" stroke="#000000" points="313,-.5 313,-19.5 396,-19.5 396,-.5 313,-.5"/>
<text text-anchor="middle" x="354.5" y="-7.5" font-family="Helvetica,sans-Serif" font-size="10.00" fill="#000000">game_round_ai</text>
</a>
</g>
</g>
<!-- Node36&#45;&gt;Node37 -->
<g id="edge2" class="edge">
<title>Node36&#45;&gt;Node37</title>
<path fill="none" stroke="#191970" d="M287.2268,-10C295.9273,-10 304.7087,-10 312.9255,-10"/>
<polygon fill="#191970" stroke="#191970" points="287.089,-6.5001 277.089,-10 287.089,-13.5001 287.089,-6.5001"/>
</g>
<!-- Node38 -->
<g id="node4" class="node">
<title>Node38</title>
<g id="a_node4"><a xlink:href="game_8h.html#aff1f849979a9ca10d6ff2bce0dfb7fd5" target="_top" xlink:title="Single Player Iniciates the boards from the respective players Starts the game loop (1 turn per playe...">
<polygon fill="#ffffff" stroke="#000000" points="432,-.5 432,-19.5 488,-19.5 488,-.5 432,-.5"/>
<text text-anchor="middle" x="460" y="-7.5" font-family="Helvetica,sans-Serif" font-size="10.00" fill="#000000">game_sp</text>
</a>
</g>
</g>
<!-- Node37&#45;&gt;Node38 -->
<g id="edge3" class="edge">
<title>Node37&#45;&gt;Node38</title>
<path fill="none" stroke="#191970" d="M406.4351,-10C415.2184,-10 424.0319,-10 431.9011,-10"/>
<polygon fill="#191970" stroke="#191970" points="406.1964,-6.5001 396.1964,-10 406.1964,-13.5001 406.1964,-6.5001"/>
</g>
<!-- Node39 -->
<g id="node5" class="node">
<title>Node39</title>
<g id="a_node5"><a xlink:href="menu_8h.html#a95c8dcba38d720d3e4bd6fcf9a8ee279" target="_top" xlink:title="selects a menu option ">
<polygon fill="#ffffff" stroke="#000000" points="524,-.5 524,-19.5 615,-19.5 615,-.5 524,-.5"/>
<text text-anchor="middle" x="569.5" y="-7.5" font-family="Helvetica,sans-Serif" font-size="10.00" fill="#000000">select_menu_opt</text>
</a>
</g>
</g>
<!-- Node38&#45;&gt;Node39 -->
<g id="edge4" class="edge">
<title>Node38&#45;&gt;Node39</title>
<path fill="none" stroke="#191970" d="M498.3311,-10C506.6145,-10 515.4504,-10 523.9788,-10"/>
<polygon fill="#191970" stroke="#191970" points="498.199,-6.5001 488.199,-10 498.1989,-13.5001 498.199,-6.5001"/>
</g>
<!-- Node40 -->
<g id="node6" class="node">
<title>Node40</title>
<g id="a_node6"><a xlink:href="menu_8h.html#a6ed6ac9188a15c74b9d07d12b34397c0" target="_top" xlink:title="Subscribes interruptions of the necessary modules Calls main menu and game functions. ">
<polygon fill="#ffffff" stroke="#000000" points="651,-.5 651,-19.5 743,-19.5 743,-.5 651,-.5"/>
<text text-anchor="middle" x="697" y="-7.5" font-family="Helvetica,sans-Serif" font-size="10.00" fill="#000000">game_main_cicle</text>
</a>
</g>
</g>
<!-- Node39&#45;&gt;Node40 -->
<g id="edge5" class="edge">
<title>Node39&#45;&gt;Node40</title>
<path fill="none" stroke="#191970" d="M625.3846,-10C633.8691,-10 642.5423,-10 650.7907,-10"/>
<polygon fill="#191970" stroke="#191970" points="625.1703,-6.5001 615.1703,-10 625.1703,-13.5001 625.1703,-6.5001"/>
</g>
<!-- Node41 -->
<g id="node7" class="node">
<title>Node41</title>
<g id="a_node7"><a xlink:href="proj_8c.html#a2a16f651eccbd248e1ad3b3b924b143b" target="_top" xlink:title="proj_main_loop">
<polygon fill="#ffffff" stroke="#000000" points="779,-.5 779,-19.5 861,-19.5 861,-.5 779,-.5"/>
<text text-anchor="middle" x="820" y="-7.5" font-family="Helvetica,sans-Serif" font-size="10.00" fill="#000000">proj_main_loop</text>
</a>
</g>
</g>
<!-- Node40&#45;&gt;Node41 -->
<g id="edge6" class="edge">
<title>Node40&#45;&gt;Node41</title>
<path fill="none" stroke="#191970" d="M753.1908,-10C761.8339,-10 770.6179,-10 778.8531,-10"/>
<polygon fill="#191970" stroke="#191970" points="753.1506,-6.5001 743.1506,-10 753.1506,-13.5001 753.1506,-6.5001"/>
</g>
</g>
</svg>
