<?xml version="1.0" encoding="UTF-8" standalone="no"?>
<!DOCTYPE svg PUBLIC "-//W3C//DTD SVG 1.1//EN"
 "http://www.w3.org/Graphics/SVG/1.1/DTD/svg11.dtd">
<!-- Generated by graphviz version 2.40.1 (20161225.0304)
 -->
<!-- Title: print_mat Pages: 1 -->
<svg width="533pt" height="66pt"
 viewBox="0.00 0.00 533.00 66.00" xmlns="http://www.w3.org/2000/svg" xmlns:xlink="http://www.w3.org/1999/xlink">
<g id="graph0" class="graph" transform="scale(1 1) rotate(0) translate(4 62)">
<title>print_mat</title>
<polygon fill="#ffffff" stroke="transparent" points="-4,4 -4,-62 529,-62 529,4 -4,4"/>
<!-- Node132 -->
<g id="node1" class="node">
<title>Node132</title>
<polygon fill="#bfbfbf" stroke="#000000" points="0,-19.5 0,-38.5 57,-38.5 57,-19.5 0,-19.5"/>
<text text-anchor="middle" x="28.5" y="-26.5" font-family="Helvetica,sans-Serif" font-size="10.00" fill="#000000">print_mat</text>
</g>
<!-- Node133 -->
<g id="node2" class="node">
<title>Node133</title>
<g id="a_node2"><a xlink:href="game_8h.html#aff1f849979a9ca10d6ff2bce0dfb7fd5" target="_top" xlink:title="Single Player Iniciates the boards from the respective players Starts the game loop (1 turn per playe...">
<polygon fill="#ffffff" stroke="#000000" points="94.5,-38.5 94.5,-57.5 150.5,-57.5 150.5,-38.5 94.5,-38.5"/>
<text text-anchor="middle" x="122.5" y="-45.5" font-family="Helvetica,sans-Serif" font-size="10.00" fill="#000000">game_sp</text>
</a>
</g>
</g>
<!-- Node132&#45;&gt;Node133 -->
<g id="edge1" class="edge">
<title>Node132&#45;&gt;Node133</title>
<path fill="none" stroke="#191970" d="M67.2005,-36.8224C76.2727,-38.6562 85.771,-40.5761 94.285,-42.297"/>
<polygon fill="#191970" stroke="#191970" points="67.7091,-33.3545 57.2139,-34.8039 66.3222,-40.2158 67.7091,-33.3545"/>
</g>
<!-- Node137 -->
<g id="node6" class="node">
<title>Node137</title>
<g id="a_node6"><a xlink:href="game_8h.html#a03f40ddf75045683b3f488d4839937ab" target="_top" xlink:title="Multiplayer. ">
<polygon fill="#ffffff" stroke="#000000" points="93,-.5 93,-19.5 152,-19.5 152,-.5 93,-.5"/>
<text text-anchor="middle" x="122.5" y="-7.5" font-family="Helvetica,sans-Serif" font-size="10.00" fill="#000000">game_mp</text>
</a>
</g>
</g>
<!-- Node132&#45;&gt;Node137 -->
<g id="edge5" class="edge">
<title>Node132&#45;&gt;Node137</title>
<path fill="none" stroke="#191970" d="M67.1065,-21.1966C75.749,-19.4497 84.7829,-17.6237 92.9875,-15.9653"/>
<polygon fill="#191970" stroke="#191970" points="66.3222,-17.7842 57.2139,-23.1961 67.7091,-24.6455 66.3222,-17.7842"/>
</g>
<!-- Node134 -->
<g id="node3" class="node">
<title>Node134</title>
<g id="a_node3"><a xlink:href="menu_8h.html#a95c8dcba38d720d3e4bd6fcf9a8ee279" target="_top" xlink:title="selects a menu option ">
<polygon fill="#ffffff" stroke="#000000" points="188,-19.5 188,-38.5 279,-38.5 279,-19.5 188,-19.5"/>
<text text-anchor="middle" x="233.5" y="-26.5" font-family="Helvetica,sans-Serif" font-size="10.00" fill="#000000">select_menu_opt</text>
</a>
</g>
</g>
<!-- Node133&#45;&gt;Node134 -->
<g id="edge2" class="edge">
<title>Node133&#45;&gt;Node134</title>
<path fill="none" stroke="#191970" d="M160.4694,-41.5007C169.2612,-39.9958 178.707,-38.379 187.7914,-36.824"/>
<polygon fill="#191970" stroke="#191970" points="159.7761,-38.0684 150.51,-43.2055 160.9572,-44.9681 159.7761,-38.0684"/>
</g>
<!-- Node135 -->
<g id="node4" class="node">
<title>Node135</title>
<g id="a_node4"><a xlink:href="menu_8h.html#a6ed6ac9188a15c74b9d07d12b34397c0" target="_top" xlink:title="Subscribes interruptions of the necessary modules Calls main menu and game functions. ">
<polygon fill="#ffffff" stroke="#000000" points="315,-19.5 315,-38.5 407,-38.5 407,-19.5 315,-19.5"/>
<text text-anchor="middle" x="361" y="-26.5" font-family="Helvetica,sans-Serif" font-size="10.00" fill="#000000">game_main_cicle</text>
</a>
</g>
</g>
<!-- Node134&#45;&gt;Node135 -->
<g id="edge3" class="edge">
<title>Node134&#45;&gt;Node135</title>
<path fill="none" stroke="#191970" d="M289.3846,-29C297.8691,-29 306.5423,-29 314.7907,-29"/>
<polygon fill="#191970" stroke="#191970" points="289.1703,-25.5001 279.1703,-29 289.1703,-32.5001 289.1703,-25.5001"/>
</g>
<!-- Node136 -->
<g id="node5" class="node">
<title>Node136</title>
<g id="a_node5"><a xlink:href="proj_8c.html#a2a16f651eccbd248e1ad3b3b924b143b" target="_top" xlink:title="proj_main_loop">
<polygon fill="#ffffff" stroke="#000000" points="443,-19.5 443,-38.5 525,-38.5 525,-19.5 443,-19.5"/>
<text text-anchor="middle" x="484" y="-26.5" font-family="Helvetica,sans-Serif" font-size="10.00" fill="#000000">proj_main_loop</text>
</a>
</g>
</g>
<!-- Node135&#45;&gt;Node136 -->
<g id="edge4" class="edge">
<title>Node135&#45;&gt;Node136</title>
<path fill="none" stroke="#191970" d="M417.1908,-29C425.8339,-29 434.6179,-29 442.8531,-29"/>
<polygon fill="#191970" stroke="#191970" points="417.1506,-25.5001 407.1506,-29 417.1506,-32.5001 417.1506,-25.5001"/>
</g>
<!-- Node137&#45;&gt;Node134 -->
<g id="edge6" class="edge">
<title>Node137&#45;&gt;Node134</title>
<path fill="none" stroke="#191970" d="M162.3594,-16.8228C170.6038,-18.234 179.3495,-19.731 187.7839,-21.1747"/>
<polygon fill="#191970" stroke="#191970" points="162.6931,-13.3291 152.246,-15.0917 161.5121,-20.2287 162.6931,-13.3291"/>
</g>
</g>
</svg>
