<?xml version="1.0" encoding="UTF-8" standalone="no"?>
<!DOCTYPE svg PUBLIC "-//W3C//DTD SVG 1.1//EN"
 "http://www.w3.org/Graphics/SVG/1.1/DTD/svg11.dtd">
<!-- Generated by graphviz version 2.40.1 (20161225.0304)
 -->
<!-- Title: create_board Pages: 1 -->
<svg width="656pt" height="66pt"
 viewBox="0.00 0.00 656.00 66.00" xmlns="http://www.w3.org/2000/svg" xmlns:xlink="http://www.w3.org/1999/xlink">
<g id="graph0" class="graph" transform="scale(1 1) rotate(0) translate(4 62)">
<title>create_board</title>
<polygon fill="#ffffff" stroke="transparent" points="-4,4 -4,-62 652,-62 652,4 -4,4"/>
<!-- Node43 -->
<g id="node1" class="node">
<title>Node43</title>
<polygon fill="#bfbfbf" stroke="#000000" points="0,-19.5 0,-38.5 73,-38.5 73,-19.5 0,-19.5"/>
<text text-anchor="middle" x="36.5" y="-26.5" font-family="Helvetica,sans-Serif" font-size="10.00" fill="#000000">create_board</text>
</g>
<!-- Node44 -->
<g id="node2" class="node">
<title>Node44</title>
<g id="a_node2"><a xlink:href="player_8h.html#ae5667617b46fe0f16724a0deb73f98e3" target="_top" xlink:title="Create a Player object. ">
<polygon fill="#ffffff" stroke="#000000" points="109,-19.5 109,-38.5 180,-38.5 180,-19.5 109,-19.5"/>
<text text-anchor="middle" x="144.5" y="-26.5" font-family="Helvetica,sans-Serif" font-size="10.00" fill="#000000">createPlayer</text>
</a>
</g>
</g>
<!-- Node43&#45;&gt;Node44 -->
<g id="edge1" class="edge">
<title>Node43&#45;&gt;Node44</title>
<path fill="none" stroke="#191970" d="M83.2786,-29C91.8,-29 100.5658,-29 108.7063,-29"/>
<polygon fill="#191970" stroke="#191970" points="83.0639,-25.5001 73.0639,-29 83.0638,-32.5001 83.0639,-25.5001"/>
</g>
<!-- Node45 -->
<g id="node3" class="node">
<title>Node45</title>
<g id="a_node3"><a xlink:href="game_8h.html#aff1f849979a9ca10d6ff2bce0dfb7fd5" target="_top" xlink:title="Single Player Iniciates the boards from the respective players Starts the game loop (1 turn per playe...">
<polygon fill="#ffffff" stroke="#000000" points="217.5,-38.5 217.5,-57.5 273.5,-57.5 273.5,-38.5 217.5,-38.5"/>
<text text-anchor="middle" x="245.5" y="-45.5" font-family="Helvetica,sans-Serif" font-size="10.00" fill="#000000">game_sp</text>
</a>
</g>
</g>
<!-- Node44&#45;&gt;Node45 -->
<g id="edge2" class="edge">
<title>Node44&#45;&gt;Node45</title>
<path fill="none" stroke="#191970" d="M190.0019,-37.5598C199.2557,-39.3006 208.7356,-41.0839 217.1822,-42.6729"/>
<polygon fill="#191970" stroke="#191970" points="190.5835,-34.1079 180.1088,-35.6987 189.2893,-40.9872 190.5835,-34.1079"/>
</g>
<!-- Node49 -->
<g id="node7" class="node">
<title>Node49</title>
<g id="a_node7"><a xlink:href="game_8h.html#a03f40ddf75045683b3f488d4839937ab" target="_top" xlink:title="Multiplayer. ">
<polygon fill="#ffffff" stroke="#000000" points="216,-.5 216,-19.5 275,-19.5 275,-.5 216,-.5"/>
<text text-anchor="middle" x="245.5" y="-7.5" font-family="Helvetica,sans-Serif" font-size="10.00" fill="#000000">game_mp</text>
</a>
</g>
</g>
<!-- Node44&#45;&gt;Node49 -->
<g id="edge6" class="edge">
<title>Node44&#45;&gt;Node49</title>
<path fill="none" stroke="#191970" d="M190.1951,-20.4039C198.9164,-18.7633 207.8305,-17.0863 215.8844,-15.5712"/>
<polygon fill="#191970" stroke="#191970" points="189.2893,-17.0128 180.1088,-22.3013 190.5835,-23.8921 189.2893,-17.0128"/>
</g>
<!-- Node46 -->
<g id="node4" class="node">
<title>Node46</title>
<g id="a_node4"><a xlink:href="menu_8h.html#a95c8dcba38d720d3e4bd6fcf9a8ee279" target="_top" xlink:title="selects a menu option ">
<polygon fill="#ffffff" stroke="#000000" points="311,-19.5 311,-38.5 402,-38.5 402,-19.5 311,-19.5"/>
<text text-anchor="middle" x="356.5" y="-26.5" font-family="Helvetica,sans-Serif" font-size="10.00" fill="#000000">select_menu_opt</text>
</a>
</g>
</g>
<!-- Node45&#45;&gt;Node46 -->
<g id="edge3" class="edge">
<title>Node45&#45;&gt;Node46</title>
<path fill="none" stroke="#191970" d="M283.4694,-41.5007C292.2612,-39.9958 301.707,-38.379 310.7914,-36.824"/>
<polygon fill="#191970" stroke="#191970" points="282.7761,-38.0684 273.51,-43.2055 283.9572,-44.9681 282.7761,-38.0684"/>
</g>
<!-- Node47 -->
<g id="node5" class="node">
<title>Node47</title>
<g id="a_node5"><a xlink:href="menu_8h.html#a6ed6ac9188a15c74b9d07d12b34397c0" target="_top" xlink:title="Subscribes interruptions of the necessary modules Calls main menu and game functions. ">
<polygon fill="#ffffff" stroke="#000000" points="438,-19.5 438,-38.5 530,-38.5 530,-19.5 438,-19.5"/>
<text text-anchor="middle" x="484" y="-26.5" font-family="Helvetica,sans-Serif" font-size="10.00" fill="#000000">game_main_cicle</text>
</a>
</g>
</g>
<!-- Node46&#45;&gt;Node47 -->
<g id="edge4" class="edge">
<title>Node46&#45;&gt;Node47</title>
<path fill="none" stroke="#191970" d="M412.3846,-29C420.8691,-29 429.5423,-29 437.7907,-29"/>
<polygon fill="#191970" stroke="#191970" points="412.1703,-25.5001 402.1703,-29 412.1703,-32.5001 412.1703,-25.5001"/>
</g>
<!-- Node48 -->
<g id="node6" class="node">
<title>Node48</title>
<g id="a_node6"><a xlink:href="proj_8c.html#a2a16f651eccbd248e1ad3b3b924b143b" target="_top" xlink:title="proj_main_loop">
<polygon fill="#ffffff" stroke="#000000" points="566,-19.5 566,-38.5 648,-38.5 648,-19.5 566,-19.5"/>
<text text-anchor="middle" x="607" y="-26.5" font-family="Helvetica,sans-Serif" font-size="10.00" fill="#000000">proj_main_loop</text>
</a>
</g>
</g>
<!-- Node47&#45;&gt;Node48 -->
<g id="edge5" class="edge">
<title>Node47&#45;&gt;Node48</title>
<path fill="none" stroke="#191970" d="M540.1908,-29C548.8339,-29 557.6179,-29 565.8531,-29"/>
<polygon fill="#191970" stroke="#191970" points="540.1506,-25.5001 530.1506,-29 540.1506,-32.5001 540.1506,-25.5001"/>
</g>
<!-- Node49&#45;&gt;Node46 -->
<g id="edge7" class="edge">
<title>Node49&#45;&gt;Node46</title>
<path fill="none" stroke="#191970" d="M285.3594,-16.8228C293.6038,-18.234 302.3495,-19.731 310.7839,-21.1747"/>
<polygon fill="#191970" stroke="#191970" points="285.6931,-13.3291 275.246,-15.0917 284.5121,-20.2287 285.6931,-13.3291"/>
</g>
</g>
</svg>
