<?xml version="1.0" encoding="UTF-8" standalone="no"?>
<!DOCTYPE svg PUBLIC "-//W3C//DTD SVG 1.1//EN"
 "http://www.w3.org/Graphics/SVG/1.1/DTD/svg11.dtd">
<!-- Generated by graphviz version 2.40.1 (20161225.0304)
 -->
<!-- Title: check_board_selection Pages: 1 -->
<svg width="838pt" height="66pt"
 viewBox="0.00 0.00 838.00 66.00" xmlns="http://www.w3.org/2000/svg" xmlns:xlink="http://www.w3.org/1999/xlink">
<g id="graph0" class="graph" transform="scale(1 1) rotate(0) translate(4 62)">
<title>check_board_selection</title>
<polygon fill="#ffffff" stroke="transparent" points="-4,4 -4,-62 834,-62 834,4 -4,4"/>
<!-- Node14 -->
<g id="node1" class="node">
<title>Node14</title>
<polygon fill="#bfbfbf" stroke="#000000" points="0,-19.5 0,-38.5 116,-38.5 116,-19.5 0,-19.5"/>
<text text-anchor="middle" x="58" y="-26.5" font-family="Helvetica,sans-Serif" font-size="10.00" fill="#000000">check_board_selection</text>
</g>
<!-- Node15 -->
<g id="node2" class="node">
<title>Node15</title>
<g id="a_node2"><a xlink:href="state__machine_8h.html#aa5f2f1b1392cbe33e1401ee41fb7d3ba" target="_top" xlink:title="State Machine used for dragging and droping boats Places boats on the board and updates the atributes...">
<polygon fill="#ffffff" stroke="#000000" points="152,-19.5 152,-38.5 238,-38.5 238,-19.5 152,-19.5"/>
<text text-anchor="middle" x="195" y="-26.5" font-family="Helvetica,sans-Serif" font-size="10.00" fill="#000000">select_boat_sm</text>
</a>
</g>
</g>
<!-- Node14&#45;&gt;Node15 -->
<g id="edge1" class="edge">
<title>Node14&#45;&gt;Node15</title>
<path fill="none" stroke="#191970" d="M126.2611,-29C134.9471,-29 143.6382,-29 151.7758,-29"/>
<polygon fill="#191970" stroke="#191970" points="126.1004,-25.5001 116.1003,-29 126.1003,-32.5001 126.1004,-25.5001"/>
</g>
<!-- Node16 -->
<g id="node3" class="node">
<title>Node16</title>
<g id="a_node3"><a xlink:href="game_8h.html#a382ed7c0cb3201c13d4396ad9afc5a3e" target="_top" xlink:title="Lets the player initialize the board unsign a graphical interface 10 boats must be positioned before ...">
<polygon fill="#ffffff" stroke="#000000" points="274,-19.5 274,-38.5 362,-38.5 362,-19.5 274,-19.5"/>
<text text-anchor="middle" x="318" y="-26.5" font-family="Helvetica,sans-Serif" font-size="10.00" fill="#000000">game_init_board</text>
</a>
</g>
</g>
<!-- Node15&#45;&gt;Node16 -->
<g id="edge2" class="edge">
<title>Node15&#45;&gt;Node16</title>
<path fill="none" stroke="#191970" d="M248.0283,-29C256.6795,-29 265.5586,-29 273.9633,-29"/>
<polygon fill="#191970" stroke="#191970" points="248.0195,-25.5001 238.0194,-29 248.0194,-32.5001 248.0195,-25.5001"/>
</g>
<!-- Node17 -->
<g id="node4" class="node">
<title>Node17</title>
<g id="a_node4"><a xlink:href="game_8h.html#aff1f849979a9ca10d6ff2bce0dfb7fd5" target="_top" xlink:title="Single Player Iniciates the boards from the respective players Starts the game loop (1 turn per playe...">
<polygon fill="#ffffff" stroke="#000000" points="399.5,-38.5 399.5,-57.5 455.5,-57.5 455.5,-38.5 399.5,-38.5"/>
<text text-anchor="middle" x="427.5" y="-45.5" font-family="Helvetica,sans-Serif" font-size="10.00" fill="#000000">game_sp</text>
</a>
</g>
</g>
<!-- Node16&#45;&gt;Node17 -->
<g id="edge3" class="edge">
<title>Node16&#45;&gt;Node17</title>
<path fill="none" stroke="#191970" d="M372.3605,-38.4324C381.7574,-40.0629 391.1696,-41.6961 399.4898,-43.1398"/>
<polygon fill="#191970" stroke="#191970" points="372.6734,-34.9345 362.2222,-36.6733 371.4766,-41.8314 372.6734,-34.9345"/>
</g>
<!-- Node21 -->
<g id="node8" class="node">
<title>Node21</title>
<g id="a_node8"><a xlink:href="game_8h.html#a03f40ddf75045683b3f488d4839937ab" target="_top" xlink:title="Multiplayer. ">
<polygon fill="#ffffff" stroke="#000000" points="398,-.5 398,-19.5 457,-19.5 457,-.5 398,-.5"/>
<text text-anchor="middle" x="427.5" y="-7.5" font-family="Helvetica,sans-Serif" font-size="10.00" fill="#000000">game_mp</text>
</a>
</g>
</g>
<!-- Node16&#45;&gt;Node21 -->
<g id="edge7" class="edge">
<title>Node16&#45;&gt;Node21</title>
<path fill="none" stroke="#191970" d="M372.1653,-19.6015C381.0234,-18.0644 389.902,-16.5238 397.8734,-15.1407"/>
<polygon fill="#191970" stroke="#191970" points="371.4766,-16.1686 362.2222,-21.3267 372.6734,-23.0655 371.4766,-16.1686"/>
</g>
<!-- Node18 -->
<g id="node5" class="node">
<title>Node18</title>
<g id="a_node5"><a xlink:href="menu_8h.html#a95c8dcba38d720d3e4bd6fcf9a8ee279" target="_top" xlink:title="selects a menu option ">
<polygon fill="#ffffff" stroke="#000000" points="493,-19.5 493,-38.5 584,-38.5 584,-19.5 493,-19.5"/>
<text text-anchor="middle" x="538.5" y="-26.5" font-family="Helvetica,sans-Serif" font-size="10.00" fill="#000000">select_menu_opt</text>
</a>
</g>
</g>
<!-- Node17&#45;&gt;Node18 -->
<g id="edge4" class="edge">
<title>Node17&#45;&gt;Node18</title>
<path fill="none" stroke="#191970" d="M465.4694,-41.5007C474.2612,-39.9958 483.707,-38.379 492.7914,-36.824"/>
<polygon fill="#191970" stroke="#191970" points="464.7761,-38.0684 455.51,-43.2055 465.9572,-44.9681 464.7761,-38.0684"/>
</g>
<!-- Node19 -->
<g id="node6" class="node">
<title>Node19</title>
<g id="a_node6"><a xlink:href="menu_8h.html#a6ed6ac9188a15c74b9d07d12b34397c0" target="_top" xlink:title="Subscribes interruptions of the necessary modules Calls main menu and game functions. ">
<polygon fill="#ffffff" stroke="#000000" points="620,-19.5 620,-38.5 712,-38.5 712,-19.5 620,-19.5"/>
<text text-anchor="middle" x="666" y="-26.5" font-family="Helvetica,sans-Serif" font-size="10.00" fill="#000000">game_main_cicle</text>
</a>
</g>
</g>
<!-- Node18&#45;&gt;Node19 -->
<g id="edge5" class="edge">
<title>Node18&#45;&gt;Node19</title>
<path fill="none" stroke="#191970" d="M594.3846,-29C602.8691,-29 611.5423,-29 619.7907,-29"/>
<polygon fill="#191970" stroke="#191970" points="594.1703,-25.5001 584.1703,-29 594.1703,-32.5001 594.1703,-25.5001"/>
</g>
<!-- Node20 -->
<g id="node7" class="node">
<title>Node20</title>
<g id="a_node7"><a xlink:href="proj_8c.html#a2a16f651eccbd248e1ad3b3b924b143b" target="_top" xlink:title="proj_main_loop">
<polygon fill="#ffffff" stroke="#000000" points="748,-19.5 748,-38.5 830,-38.5 830,-19.5 748,-19.5"/>
<text text-anchor="middle" x="789" y="-26.5" font-family="Helvetica,sans-Serif" font-size="10.00" fill="#000000">proj_main_loop</text>
</a>
</g>
</g>
<!-- Node19&#45;&gt;Node20 -->
<g id="edge6" class="edge">
<title>Node19&#45;&gt;Node20</title>
<path fill="none" stroke="#191970" d="M722.1908,-29C730.8339,-29 739.6179,-29 747.8531,-29"/>
<polygon fill="#191970" stroke="#191970" points="722.1506,-25.5001 712.1506,-29 722.1506,-32.5001 722.1506,-25.5001"/>
</g>
<!-- Node21&#45;&gt;Node18 -->
<g id="edge8" class="edge">
<title>Node21&#45;&gt;Node18</title>
<path fill="none" stroke="#191970" d="M467.3594,-16.8228C475.6038,-18.234 484.3495,-19.731 492.7839,-21.1747"/>
<polygon fill="#191970" stroke="#191970" points="467.6931,-13.3291 457.246,-15.0917 466.5121,-20.2287 467.6931,-13.3291"/>
</g>
</g>
</svg>
