<?xml version="1.0" encoding="UTF-8" standalone="no"?>
<!DOCTYPE svg PUBLIC "-//W3C//DTD SVG 1.1//EN"
 "http://www.w3.org/Graphics/SVG/1.1/DTD/svg11.dtd">
<!-- Generated by graphviz version 2.40.1 (20161225.0304)
 -->
<!-- Title: set_protected_cells Pages: 1 -->
<svg width="836pt" height="66pt"
 viewBox="0.00 0.00 836.00 66.00" xmlns="http://www.w3.org/2000/svg" xmlns:xlink="http://www.w3.org/1999/xlink">
<g id="graph0" class="graph" transform="scale(1 1) rotate(0) translate(4 62)">
<title>set_protected_cells</title>
<polygon fill="#ffffff" stroke="transparent" points="-4,4 -4,-62 832,-62 832,4 -4,4"/>
<!-- Node149 -->
<g id="node1" class="node">
<title>Node149</title>
<polygon fill="#bfbfbf" stroke="#000000" points="0,-19.5 0,-38.5 101,-38.5 101,-19.5 0,-19.5"/>
<text text-anchor="middle" x="50.5" y="-26.5" font-family="Helvetica,sans-Serif" font-size="10.00" fill="#000000">set_protected_cells</text>
</g>
<!-- Node150 -->
<g id="node2" class="node">
<title>Node150</title>
<g id="a_node2"><a xlink:href="player_8h.html#a76c6479b507c3c9c25f6ee0ff216f07c" target="_top" xlink:title="Recieves a player (plr_1) and determines if the shot against the enemy (plr_2) is valid...">
<polygon fill="#ffffff" stroke="#000000" points="154,-38.5 154,-57.5 221,-57.5 221,-38.5 154,-38.5"/>
<text text-anchor="middle" x="187.5" y="-45.5" font-family="Helvetica,sans-Serif" font-size="10.00" fill="#000000">player_shot</text>
</a>
</g>
</g>
<!-- Node149&#45;&gt;Node150 -->
<g id="edge1" class="edge">
<title>Node149&#45;&gt;Node150</title>
<path fill="none" stroke="#191970" d="M111.1297,-37.4085C125.7415,-39.435 140.8374,-41.5285 153.7104,-43.3138"/>
<polygon fill="#191970" stroke="#191970" points="111.5105,-33.9279 101.1245,-36.0209 110.5489,-40.8615 111.5105,-33.9279"/>
</g>
<!-- Node157 -->
<g id="node9" class="node">
<title>Node157</title>
<g id="a_node9"><a xlink:href="state__machine_8h.html#a003e7e4a061ada07023f893070d4bb2b" target="_top" xlink:title="State Machine used for simulating a game strategy Generates a random position and then fires on that ...">
<polygon fill="#ffffff" stroke="#000000" points="137,-.5 137,-19.5 238,-19.5 238,-.5 137,-.5"/>
<text text-anchor="middle" x="187.5" y="-7.5" font-family="Helvetica,sans-Serif" font-size="10.00" fill="#000000">game_round_ai_sm</text>
</a>
</g>
</g>
<!-- Node149&#45;&gt;Node157 -->
<g id="edge9" class="edge">
<title>Node149&#45;&gt;Node157</title>
<path fill="none" stroke="#191970" d="M111.0418,-20.6037C119.5829,-19.4192 128.2913,-18.2114 136.6262,-17.0555"/>
<polygon fill="#191970" stroke="#191970" points="110.5489,-17.1385 101.1245,-21.9791 111.5105,-24.0721 110.5489,-17.1385"/>
</g>
<!-- Node151 -->
<g id="node3" class="node">
<title>Node151</title>
<g id="a_node3"><a xlink:href="game_8h.html#aaeeee1282b90aa12468a1862c7871ee4" target="_top" xlink:title="Lets the player fire against the enemy&#39;s boats using a graphical interface Shows previously hit cells...">
<polygon fill="#ffffff" stroke="#000000" points="274,-38.5 274,-57.5 360,-57.5 360,-38.5 274,-38.5"/>
<text text-anchor="middle" x="317" y="-45.5" font-family="Helvetica,sans-Serif" font-size="10.00" fill="#000000">game_round_sp</text>
</a>
</g>
</g>
<!-- Node150&#45;&gt;Node151 -->
<g id="edge2" class="edge">
<title>Node150&#45;&gt;Node151</title>
<path fill="none" stroke="#191970" d="M231.325,-48C245,-48 260.0701,-48 273.7082,-48"/>
<polygon fill="#191970" stroke="#191970" points="231.1866,-44.5001 221.1865,-48 231.1865,-51.5001 231.1866,-44.5001"/>
</g>
<!-- Node152 -->
<g id="node4" class="node">
<title>Node152</title>
<g id="a_node4"><a xlink:href="game_8h.html#aff1f849979a9ca10d6ff2bce0dfb7fd5" target="_top" xlink:title="Single Player Iniciates the boards from the respective players Starts the game loop (1 turn per playe...">
<polygon fill="#ffffff" stroke="#000000" points="397.5,-.5 397.5,-19.5 453.5,-19.5 453.5,-.5 397.5,-.5"/>
<text text-anchor="middle" x="425.5" y="-7.5" font-family="Helvetica,sans-Serif" font-size="10.00" fill="#000000">game_sp</text>
</a>
</g>
</g>
<!-- Node151&#45;&gt;Node152 -->
<g id="edge3" class="edge">
<title>Node151&#45;&gt;Node152</title>
<path fill="none" stroke="#191970" d="M354.0379,-35.0282C368.4931,-29.9656 384.7671,-24.2659 398.1296,-19.5859"/>
<polygon fill="#191970" stroke="#191970" points="352.6601,-31.8022 344.3791,-38.411 354.974,-38.4088 352.6601,-31.8022"/>
</g>
<!-- Node156 -->
<g id="node8" class="node">
<title>Node156</title>
<g id="a_node8"><a xlink:href="game_8h.html#a03f40ddf75045683b3f488d4839937ab" target="_top" xlink:title="Multiplayer. ">
<polygon fill="#ffffff" stroke="#000000" points="396,-38.5 396,-57.5 455,-57.5 455,-38.5 396,-38.5"/>
<text text-anchor="middle" x="425.5" y="-45.5" font-family="Helvetica,sans-Serif" font-size="10.00" fill="#000000">game_mp</text>
</a>
</g>
</g>
<!-- Node151&#45;&gt;Node156 -->
<g id="edge7" class="edge">
<title>Node151&#45;&gt;Node156</title>
<path fill="none" stroke="#191970" d="M370.3886,-48C379.131,-48 387.9033,-48 395.797,-48"/>
<polygon fill="#191970" stroke="#191970" points="370.1939,-44.5001 360.1938,-48 370.1938,-51.5001 370.1939,-44.5001"/>
</g>
<!-- Node153 -->
<g id="node5" class="node">
<title>Node153</title>
<g id="a_node5"><a xlink:href="menu_8h.html#a95c8dcba38d720d3e4bd6fcf9a8ee279" target="_top" xlink:title="selects a menu option ">
<polygon fill="#ffffff" stroke="#000000" points="491,-19.5 491,-38.5 582,-38.5 582,-19.5 491,-19.5"/>
<text text-anchor="middle" x="536.5" y="-26.5" font-family="Helvetica,sans-Serif" font-size="10.00" fill="#000000">select_menu_opt</text>
</a>
</g>
</g>
<!-- Node152&#45;&gt;Node153 -->
<g id="edge4" class="edge">
<title>Node152&#45;&gt;Node153</title>
<path fill="none" stroke="#191970" d="M463.4694,-16.4993C472.2612,-18.0042 481.707,-19.621 490.7914,-21.176"/>
<polygon fill="#191970" stroke="#191970" points="463.9572,-13.0319 453.51,-14.7945 462.7761,-19.9316 463.9572,-13.0319"/>
</g>
<!-- Node154 -->
<g id="node6" class="node">
<title>Node154</title>
<g id="a_node6"><a xlink:href="menu_8h.html#a6ed6ac9188a15c74b9d07d12b34397c0" target="_top" xlink:title="Subscribes interruptions of the necessary modules Calls main menu and game functions. ">
<polygon fill="#ffffff" stroke="#000000" points="618,-19.5 618,-38.5 710,-38.5 710,-19.5 618,-19.5"/>
<text text-anchor="middle" x="664" y="-26.5" font-family="Helvetica,sans-Serif" font-size="10.00" fill="#000000">game_main_cicle</text>
</a>
</g>
</g>
<!-- Node153&#45;&gt;Node154 -->
<g id="edge5" class="edge">
<title>Node153&#45;&gt;Node154</title>
<path fill="none" stroke="#191970" d="M592.3846,-29C600.8691,-29 609.5423,-29 617.7907,-29"/>
<polygon fill="#191970" stroke="#191970" points="592.1703,-25.5001 582.1703,-29 592.1703,-32.5001 592.1703,-25.5001"/>
</g>
<!-- Node155 -->
<g id="node7" class="node">
<title>Node155</title>
<g id="a_node7"><a xlink:href="proj_8c.html#a2a16f651eccbd248e1ad3b3b924b143b" target="_top" xlink:title="proj_main_loop">
<polygon fill="#ffffff" stroke="#000000" points="746,-19.5 746,-38.5 828,-38.5 828,-19.5 746,-19.5"/>
<text text-anchor="middle" x="787" y="-26.5" font-family="Helvetica,sans-Serif" font-size="10.00" fill="#000000">proj_main_loop</text>
</a>
</g>
</g>
<!-- Node154&#45;&gt;Node155 -->
<g id="edge6" class="edge">
<title>Node154&#45;&gt;Node155</title>
<path fill="none" stroke="#191970" d="M720.1908,-29C728.8339,-29 737.6179,-29 745.8531,-29"/>
<polygon fill="#191970" stroke="#191970" points="720.1506,-25.5001 710.1506,-29 720.1506,-32.5001 720.1506,-25.5001"/>
</g>
<!-- Node156&#45;&gt;Node153 -->
<g id="edge8" class="edge">
<title>Node156&#45;&gt;Node153</title>
<path fill="none" stroke="#191970" d="M465.3594,-41.1772C473.6038,-39.766 482.3495,-38.269 490.7839,-36.8253"/>
<polygon fill="#191970" stroke="#191970" points="464.5121,-37.7713 455.246,-42.9083 465.6931,-44.6709 464.5121,-37.7713"/>
</g>
<!-- Node158 -->
<g id="node10" class="node">
<title>Node158</title>
<g id="a_node10"><a xlink:href="game_8h.html#afb1a61b5802eed643536ce45225d2000" target="_top" xlink:title="Randomly fires upon player&#39;s boats using a state machine to simulate a strategy In case of a hit the ...">
<polygon fill="#ffffff" stroke="#000000" points="275.5,-.5 275.5,-19.5 358.5,-19.5 358.5,-.5 275.5,-.5"/>
<text text-anchor="middle" x="317" y="-7.5" font-family="Helvetica,sans-Serif" font-size="10.00" fill="#000000">game_round_ai</text>
</a>
</g>
</g>
<!-- Node157&#45;&gt;Node158 -->
<g id="edge10" class="edge">
<title>Node157&#45;&gt;Node158</title>
<path fill="none" stroke="#191970" d="M248.4255,-10C257.4557,-10 266.5854,-10 275.1088,-10"/>
<polygon fill="#191970" stroke="#191970" points="248.3102,-6.5001 238.3101,-10 248.3101,-13.5001 248.3102,-6.5001"/>
</g>
<!-- Node158&#45;&gt;Node152 -->
<g id="edge11" class="edge">
<title>Node158&#45;&gt;Node152</title>
<path fill="none" stroke="#191970" d="M368.7696,-10C378.5806,-10 388.5001,-10 397.2408,-10"/>
<polygon fill="#191970" stroke="#191970" points="368.6387,-6.5001 358.6386,-10 368.6386,-13.5001 368.6387,-6.5001"/>
</g>
</g>
</svg>
