<?xml version="1.0" encoding="UTF-8" standalone="no"?>
<!DOCTYPE svg PUBLIC "-//W3C//DTD SVG 1.1//EN"
 "http://www.w3.org/Graphics/SVG/1.1/DTD/svg11.dtd">
<!-- Generated by graphviz version 2.40.1 (20161225.0304)
 -->
<!-- Title: check_matrix_collision Pages: 1 -->
<svg width="941pt" height="66pt"
 viewBox="0.00 0.00 941.00 66.00" xmlns="http://www.w3.org/2000/svg" xmlns:xlink="http://www.w3.org/1999/xlink">
<g id="graph0" class="graph" transform="scale(1 1) rotate(0) translate(4 62)">
<title>check_matrix_collision</title>
<polygon fill="#ffffff" stroke="transparent" points="-4,4 -4,-62 937,-62 937,4 -4,4"/>
<!-- Node23 -->
<g id="node1" class="node">
<title>Node23</title>
<polygon fill="#bfbfbf" stroke="#000000" points="0,-19.5 0,-38.5 116,-38.5 116,-19.5 0,-19.5"/>
<text text-anchor="middle" x="58" y="-26.5" font-family="Helvetica,sans-Serif" font-size="10.00" fill="#000000">check_matrix_collision</text>
</g>
<!-- Node24 -->
<g id="node2" class="node">
<title>Node24</title>
<g id="a_node2"><a xlink:href="board_8h.html#ad6e9584e2541e9dac82e24ae2e1f1272" target="_top" xlink:title="Places a boat on the matrix using the sprite If the boat was previously placed on the matrix...">
<polygon fill="#ffffff" stroke="#000000" points="153.5,-38.5 153.5,-57.5 217.5,-57.5 217.5,-38.5 153.5,-38.5"/>
<text text-anchor="middle" x="185.5" y="-45.5" font-family="Helvetica,sans-Serif" font-size="10.00" fill="#000000">place_boat</text>
</a>
</g>
</g>
<!-- Node23&#45;&gt;Node24 -->
<g id="edge1" class="edge">
<title>Node23&#45;&gt;Node24</title>
<path fill="none" stroke="#191970" d="M126.3318,-39.1828C135.6994,-40.5787 144.9344,-41.9549 153.2221,-43.19"/>
<polygon fill="#191970" stroke="#191970" points="126.5601,-35.6782 116.1534,-37.666 125.5283,-42.6018 126.5601,-35.6782"/>
</g>
<!-- Node32 -->
<g id="node10" class="node">
<title>Node32</title>
<g id="a_node10"><a xlink:href="player_8h.html#a76c6479b507c3c9c25f6ee0ff216f07c" target="_top" xlink:title="Recieves a player (plr_1) and determines if the shot against the enemy (plr_2) is valid...">
<polygon fill="#ffffff" stroke="#000000" points="152,-.5 152,-19.5 219,-19.5 219,-.5 152,-.5"/>
<text text-anchor="middle" x="185.5" y="-7.5" font-family="Helvetica,sans-Serif" font-size="10.00" fill="#000000">player_shot</text>
</a>
</g>
</g>
<!-- Node23&#45;&gt;Node32 -->
<g id="edge10" class="edge">
<title>Node23&#45;&gt;Node32</title>
<path fill="none" stroke="#191970" d="M126.1992,-18.837C135.0862,-17.5126 143.8573,-16.2056 151.8171,-15.0194"/>
<polygon fill="#191970" stroke="#191970" points="125.5283,-15.3982 116.1534,-20.334 126.5601,-22.3218 125.5283,-15.3982"/>
</g>
<!-- Node25 -->
<g id="node3" class="node">
<title>Node25</title>
<g id="a_node3"><a xlink:href="state__machine_8h.html#aa5f2f1b1392cbe33e1401ee41fb7d3ba" target="_top" xlink:title="State Machine used for dragging and droping boats Places boats on the board and updates the atributes...">
<polygon fill="#ffffff" stroke="#000000" points="255,-38.5 255,-57.5 341,-57.5 341,-38.5 255,-38.5"/>
<text text-anchor="middle" x="298" y="-45.5" font-family="Helvetica,sans-Serif" font-size="10.00" fill="#000000">select_boat_sm</text>
</a>
</g>
</g>
<!-- Node24&#45;&gt;Node25 -->
<g id="edge2" class="edge">
<title>Node24&#45;&gt;Node25</title>
<path fill="none" stroke="#191970" d="M227.8277,-48C236.6624,-48 245.9861,-48 254.8502,-48"/>
<polygon fill="#191970" stroke="#191970" points="227.738,-44.5001 217.738,-48 227.738,-51.5001 227.738,-44.5001"/>
</g>
<!-- Node26 -->
<g id="node4" class="node">
<title>Node26</title>
<g id="a_node4"><a xlink:href="game_8h.html#a382ed7c0cb3201c13d4396ad9afc5a3e" target="_top" xlink:title="Lets the player initialize the board unsign a graphical interface 10 boats must be positioned before ...">
<polygon fill="#ffffff" stroke="#000000" points="377,-38.5 377,-57.5 465,-57.5 465,-38.5 377,-38.5"/>
<text text-anchor="middle" x="421" y="-45.5" font-family="Helvetica,sans-Serif" font-size="10.00" fill="#000000">game_init_board</text>
</a>
</g>
</g>
<!-- Node25&#45;&gt;Node26 -->
<g id="edge3" class="edge">
<title>Node25&#45;&gt;Node26</title>
<path fill="none" stroke="#191970" d="M351.0283,-48C359.6795,-48 368.5586,-48 376.9633,-48"/>
<polygon fill="#191970" stroke="#191970" points="351.0195,-44.5001 341.0194,-48 351.0194,-51.5001 351.0195,-44.5001"/>
</g>
<!-- Node27 -->
<g id="node5" class="node">
<title>Node27</title>
<g id="a_node5"><a xlink:href="game_8h.html#aff1f849979a9ca10d6ff2bce0dfb7fd5" target="_top" xlink:title="Single Player Iniciates the boards from the respective players Starts the game loop (1 turn per playe...">
<polygon fill="#ffffff" stroke="#000000" points="502.5,-38.5 502.5,-57.5 558.5,-57.5 558.5,-38.5 502.5,-38.5"/>
<text text-anchor="middle" x="530.5" y="-45.5" font-family="Helvetica,sans-Serif" font-size="10.00" fill="#000000">game_sp</text>
</a>
</g>
</g>
<!-- Node26&#45;&gt;Node27 -->
<g id="edge4" class="edge">
<title>Node26&#45;&gt;Node27</title>
<path fill="none" stroke="#191970" d="M475.3605,-48C484.7574,-48 494.1696,-48 502.4898,-48"/>
<polygon fill="#191970" stroke="#191970" points="475.2222,-44.5001 465.2222,-48 475.2222,-51.5001 475.2222,-44.5001"/>
</g>
<!-- Node31 -->
<g id="node9" class="node">
<title>Node31</title>
<g id="a_node9"><a xlink:href="game_8h.html#a03f40ddf75045683b3f488d4839937ab" target="_top" xlink:title="Multiplayer. ">
<polygon fill="#ffffff" stroke="#000000" points="501,-.5 501,-19.5 560,-19.5 560,-.5 501,-.5"/>
<text text-anchor="middle" x="530.5" y="-7.5" font-family="Helvetica,sans-Serif" font-size="10.00" fill="#000000">game_mp</text>
</a>
</g>
</g>
<!-- Node26&#45;&gt;Node31 -->
<g id="edge8" class="edge">
<title>Node26&#45;&gt;Node31</title>
<path fill="none" stroke="#191970" d="M458.3792,-35.0282C472.9676,-29.9656 489.3917,-24.2659 502.8774,-19.5859"/>
<polygon fill="#191970" stroke="#191970" points="456.9313,-31.8259 448.6315,-38.411 459.2263,-38.439 456.9313,-31.8259"/>
</g>
<!-- Node28 -->
<g id="node6" class="node">
<title>Node28</title>
<g id="a_node6"><a xlink:href="menu_8h.html#a95c8dcba38d720d3e4bd6fcf9a8ee279" target="_top" xlink:title="selects a menu option ">
<polygon fill="#ffffff" stroke="#000000" points="596,-19.5 596,-38.5 687,-38.5 687,-19.5 596,-19.5"/>
<text text-anchor="middle" x="641.5" y="-26.5" font-family="Helvetica,sans-Serif" font-size="10.00" fill="#000000">select_menu_opt</text>
</a>
</g>
</g>
<!-- Node27&#45;&gt;Node28 -->
<g id="edge5" class="edge">
<title>Node27&#45;&gt;Node28</title>
<path fill="none" stroke="#191970" d="M568.4694,-41.5007C577.2612,-39.9958 586.707,-38.379 595.7914,-36.824"/>
<polygon fill="#191970" stroke="#191970" points="567.7761,-38.0684 558.51,-43.2055 568.9572,-44.9681 567.7761,-38.0684"/>
</g>
<!-- Node29 -->
<g id="node7" class="node">
<title>Node29</title>
<g id="a_node7"><a xlink:href="menu_8h.html#a6ed6ac9188a15c74b9d07d12b34397c0" target="_top" xlink:title="Subscribes interruptions of the necessary modules Calls main menu and game functions. ">
<polygon fill="#ffffff" stroke="#000000" points="723,-19.5 723,-38.5 815,-38.5 815,-19.5 723,-19.5"/>
<text text-anchor="middle" x="769" y="-26.5" font-family="Helvetica,sans-Serif" font-size="10.00" fill="#000000">game_main_cicle</text>
</a>
</g>
</g>
<!-- Node28&#45;&gt;Node29 -->
<g id="edge6" class="edge">
<title>Node28&#45;&gt;Node29</title>
<path fill="none" stroke="#191970" d="M697.3846,-29C705.8691,-29 714.5423,-29 722.7907,-29"/>
<polygon fill="#191970" stroke="#191970" points="697.1703,-25.5001 687.1703,-29 697.1703,-32.5001 697.1703,-25.5001"/>
</g>
<!-- Node30 -->
<g id="node8" class="node">
<title>Node30</title>
<g id="a_node8"><a xlink:href="proj_8c.html#a2a16f651eccbd248e1ad3b3b924b143b" target="_top" xlink:title="proj_main_loop">
<polygon fill="#ffffff" stroke="#000000" points="851,-19.5 851,-38.5 933,-38.5 933,-19.5 851,-19.5"/>
<text text-anchor="middle" x="892" y="-26.5" font-family="Helvetica,sans-Serif" font-size="10.00" fill="#000000">proj_main_loop</text>
</a>
</g>
</g>
<!-- Node29&#45;&gt;Node30 -->
<g id="edge7" class="edge">
<title>Node29&#45;&gt;Node30</title>
<path fill="none" stroke="#191970" d="M825.1908,-29C833.8339,-29 842.6179,-29 850.8531,-29"/>
<polygon fill="#191970" stroke="#191970" points="825.1506,-25.5001 815.1506,-29 825.1506,-32.5001 825.1506,-25.5001"/>
</g>
<!-- Node31&#45;&gt;Node28 -->
<g id="edge9" class="edge">
<title>Node31&#45;&gt;Node28</title>
<path fill="none" stroke="#191970" d="M570.3594,-16.8228C578.6038,-18.234 587.3495,-19.731 595.7839,-21.1747"/>
<polygon fill="#191970" stroke="#191970" points="570.6931,-13.3291 560.246,-15.0917 569.5121,-20.2287 570.6931,-13.3291"/>
</g>
<!-- Node33 -->
<g id="node11" class="node">
<title>Node33</title>
<g id="a_node11"><a xlink:href="game_8h.html#aaeeee1282b90aa12468a1862c7871ee4" target="_top" xlink:title="Lets the player fire against the enemy&#39;s boats using a graphical interface Shows previously hit cells...">
<polygon fill="#ffffff" stroke="#000000" points="378,-.5 378,-19.5 464,-19.5 464,-.5 378,-.5"/>
<text text-anchor="middle" x="421" y="-7.5" font-family="Helvetica,sans-Serif" font-size="10.00" fill="#000000">game_round_sp</text>
</a>
</g>
</g>
<!-- Node32&#45;&gt;Node33 -->
<g id="edge11" class="edge">
<title>Node32&#45;&gt;Node33</title>
<path fill="none" stroke="#191970" d="M229.2609,-10C271.6372,-10 335.5072,-10 377.72,-10"/>
<polygon fill="#191970" stroke="#191970" points="229.2414,-6.5001 219.2414,-10 229.2414,-13.5001 229.2414,-6.5001"/>
</g>
<!-- Node33&#45;&gt;Node27 -->
<g id="edge12" class="edge">
<title>Node33&#45;&gt;Node27</title>
<path fill="none" stroke="#191970" d="M458.3792,-22.9718C472.9676,-28.0344 489.3917,-33.7341 502.8774,-38.4141"/>
<polygon fill="#191970" stroke="#191970" points="459.2263,-19.561 448.6315,-19.589 456.9313,-26.1741 459.2263,-19.561"/>
</g>
<!-- Node33&#45;&gt;Node31 -->
<g id="edge13" class="edge">
<title>Node33&#45;&gt;Node31</title>
<path fill="none" stroke="#191970" d="M474.4068,-10C483.4436,-10 492.5292,-10 500.6781,-10"/>
<polygon fill="#191970" stroke="#191970" points="474.2773,-6.5001 464.2773,-10 474.2773,-13.5001 474.2773,-6.5001"/>
</g>
</g>
</svg>
