<?xml version="1.0" encoding="UTF-8" standalone="no"?>
<!DOCTYPE svg PUBLIC "-//W3C//DTD SVG 1.1//EN"
 "http://www.w3.org/Graphics/SVG/1.1/DTD/svg11.dtd">
<!-- Generated by graphviz version 2.40.1 (20161225.0304)
 -->
<!-- Title: remove_boat_from_matrix Pages: 1 -->
<svg width="952pt" height="66pt"
 viewBox="0.00 0.00 952.00 66.00" xmlns="http://www.w3.org/2000/svg" xmlns:xlink="http://www.w3.org/1999/xlink">
<g id="graph0" class="graph" transform="scale(1 1) rotate(0) translate(4 62)">
<title>remove_boat_from_matrix</title>
<polygon fill="#ffffff" stroke="transparent" points="-4,4 -4,-62 948,-62 948,4 -4,4"/>
<!-- Node139 -->
<g id="node1" class="node">
<title>Node139</title>
<polygon fill="#bfbfbf" stroke="#000000" points="0,-19.5 0,-38.5 130,-38.5 130,-19.5 0,-19.5"/>
<text text-anchor="middle" x="65" y="-26.5" font-family="Helvetica,sans-Serif" font-size="10.00" fill="#000000">remove_boat_from_matrix</text>
</g>
<!-- Node140 -->
<g id="node2" class="node">
<title>Node140</title>
<g id="a_node2"><a xlink:href="board_8h.html#ad6e9584e2541e9dac82e24ae2e1f1272" target="_top" xlink:title="Places a boat on the matrix using the sprite If the boat was previously placed on the matrix...">
<polygon fill="#ffffff" stroke="#000000" points="166,-38.5 166,-57.5 230,-57.5 230,-38.5 166,-38.5"/>
<text text-anchor="middle" x="198" y="-45.5" font-family="Helvetica,sans-Serif" font-size="10.00" fill="#000000">place_boat</text>
</a>
</g>
</g>
<!-- Node139&#45;&gt;Node140 -->
<g id="edge1" class="edge">
<title>Node139&#45;&gt;Node140</title>
<path fill="none" stroke="#191970" d="M140.4395,-39.7771C149.3415,-41.0488 158.026,-42.2894 165.8389,-43.4056"/>
<polygon fill="#191970" stroke="#191970" points="140.7256,-36.2825 130.3311,-38.333 139.7356,-43.2121 140.7256,-36.2825"/>
</g>
<!-- Node141 -->
<g id="node3" class="node">
<title>Node141</title>
<g id="a_node3"><a xlink:href="state__machine_8h.html#aa5f2f1b1392cbe33e1401ee41fb7d3ba" target="_top" xlink:title="State Machine used for dragging and droping boats Places boats on the board and updates the atributes...">
<polygon fill="#ffffff" stroke="#000000" points="266,-19.5 266,-38.5 352,-38.5 352,-19.5 266,-19.5"/>
<text text-anchor="middle" x="309" y="-26.5" font-family="Helvetica,sans-Serif" font-size="10.00" fill="#000000">select_boat_sm</text>
</a>
</g>
</g>
<!-- Node139&#45;&gt;Node141 -->
<g id="edge10" class="edge">
<title>Node139&#45;&gt;Node141</title>
<path fill="none" stroke="#191970" d="M140.0721,-29C181.2672,-29 230.8845,-29 265.6501,-29"/>
<polygon fill="#191970" stroke="#191970" points="140.067,-25.5001 130.067,-29 140.067,-32.5001 140.067,-25.5001"/>
</g>
<!-- Node140&#45;&gt;Node141 -->
<g id="edge2" class="edge">
<title>Node140&#45;&gt;Node141</title>
<path fill="none" stroke="#191970" d="M240.0966,-40.7943C248.5113,-39.3539 257.3631,-37.8387 265.8139,-36.3922"/>
<polygon fill="#191970" stroke="#191970" points="239.3719,-37.3673 230.1058,-42.5044 240.553,-44.267 239.3719,-37.3673"/>
</g>
<!-- Node142 -->
<g id="node4" class="node">
<title>Node142</title>
<g id="a_node4"><a xlink:href="game_8h.html#a382ed7c0cb3201c13d4396ad9afc5a3e" target="_top" xlink:title="Lets the player initialize the board unsign a graphical interface 10 boats must be positioned before ...">
<polygon fill="#ffffff" stroke="#000000" points="388,-19.5 388,-38.5 476,-38.5 476,-19.5 388,-19.5"/>
<text text-anchor="middle" x="432" y="-26.5" font-family="Helvetica,sans-Serif" font-size="10.00" fill="#000000">game_init_board</text>
</a>
</g>
</g>
<!-- Node141&#45;&gt;Node142 -->
<g id="edge3" class="edge">
<title>Node141&#45;&gt;Node142</title>
<path fill="none" stroke="#191970" d="M362.0283,-29C370.6795,-29 379.5586,-29 387.9633,-29"/>
<polygon fill="#191970" stroke="#191970" points="362.0195,-25.5001 352.0194,-29 362.0194,-32.5001 362.0195,-25.5001"/>
</g>
<!-- Node143 -->
<g id="node5" class="node">
<title>Node143</title>
<g id="a_node5"><a xlink:href="game_8h.html#aff1f849979a9ca10d6ff2bce0dfb7fd5" target="_top" xlink:title="Single Player Iniciates the boards from the respective players Starts the game loop (1 turn per playe...">
<polygon fill="#ffffff" stroke="#000000" points="513.5,-38.5 513.5,-57.5 569.5,-57.5 569.5,-38.5 513.5,-38.5"/>
<text text-anchor="middle" x="541.5" y="-45.5" font-family="Helvetica,sans-Serif" font-size="10.00" fill="#000000">game_sp</text>
</a>
</g>
</g>
<!-- Node142&#45;&gt;Node143 -->
<g id="edge4" class="edge">
<title>Node142&#45;&gt;Node143</title>
<path fill="none" stroke="#191970" d="M486.3605,-38.4324C495.7574,-40.0629 505.1696,-41.6961 513.4898,-43.1398"/>
<polygon fill="#191970" stroke="#191970" points="486.6734,-34.9345 476.2222,-36.6733 485.4766,-41.8314 486.6734,-34.9345"/>
</g>
<!-- Node147 -->
<g id="node9" class="node">
<title>Node147</title>
<g id="a_node9"><a xlink:href="game_8h.html#a03f40ddf75045683b3f488d4839937ab" target="_top" xlink:title="Multiplayer. ">
<polygon fill="#ffffff" stroke="#000000" points="512,-.5 512,-19.5 571,-19.5 571,-.5 512,-.5"/>
<text text-anchor="middle" x="541.5" y="-7.5" font-family="Helvetica,sans-Serif" font-size="10.00" fill="#000000">game_mp</text>
</a>
</g>
</g>
<!-- Node142&#45;&gt;Node147 -->
<g id="edge8" class="edge">
<title>Node142&#45;&gt;Node147</title>
<path fill="none" stroke="#191970" d="M486.1653,-19.6015C495.0234,-18.0644 503.902,-16.5238 511.8734,-15.1407"/>
<polygon fill="#191970" stroke="#191970" points="485.4766,-16.1686 476.2222,-21.3267 486.6734,-23.0655 485.4766,-16.1686"/>
</g>
<!-- Node144 -->
<g id="node6" class="node">
<title>Node144</title>
<g id="a_node6"><a xlink:href="menu_8h.html#a95c8dcba38d720d3e4bd6fcf9a8ee279" target="_top" xlink:title="selects a menu option ">
<polygon fill="#ffffff" stroke="#000000" points="607,-19.5 607,-38.5 698,-38.5 698,-19.5 607,-19.5"/>
<text text-anchor="middle" x="652.5" y="-26.5" font-family="Helvetica,sans-Serif" font-size="10.00" fill="#000000">select_menu_opt</text>
</a>
</g>
</g>
<!-- Node143&#45;&gt;Node144 -->
<g id="edge5" class="edge">
<title>Node143&#45;&gt;Node144</title>
<path fill="none" stroke="#191970" d="M579.4694,-41.5007C588.2612,-39.9958 597.707,-38.379 606.7914,-36.824"/>
<polygon fill="#191970" stroke="#191970" points="578.7761,-38.0684 569.51,-43.2055 579.9572,-44.9681 578.7761,-38.0684"/>
</g>
<!-- Node145 -->
<g id="node7" class="node">
<title>Node145</title>
<g id="a_node7"><a xlink:href="menu_8h.html#a6ed6ac9188a15c74b9d07d12b34397c0" target="_top" xlink:title="Subscribes interruptions of the necessary modules Calls main menu and game functions. ">
<polygon fill="#ffffff" stroke="#000000" points="734,-19.5 734,-38.5 826,-38.5 826,-19.5 734,-19.5"/>
<text text-anchor="middle" x="780" y="-26.5" font-family="Helvetica,sans-Serif" font-size="10.00" fill="#000000">game_main_cicle</text>
</a>
</g>
</g>
<!-- Node144&#45;&gt;Node145 -->
<g id="edge6" class="edge">
<title>Node144&#45;&gt;Node145</title>
<path fill="none" stroke="#191970" d="M708.3846,-29C716.8691,-29 725.5423,-29 733.7907,-29"/>
<polygon fill="#191970" stroke="#191970" points="708.1703,-25.5001 698.1703,-29 708.1703,-32.5001 708.1703,-25.5001"/>
</g>
<!-- Node146 -->
<g id="node8" class="node">
<title>Node146</title>
<g id="a_node8"><a xlink:href="proj_8c.html#a2a16f651eccbd248e1ad3b3b924b143b" target="_top" xlink:title="proj_main_loop">
<polygon fill="#ffffff" stroke="#000000" points="862,-19.5 862,-38.5 944,-38.5 944,-19.5 862,-19.5"/>
<text text-anchor="middle" x="903" y="-26.5" font-family="Helvetica,sans-Serif" font-size="10.00" fill="#000000">proj_main_loop</text>
</a>
</g>
</g>
<!-- Node145&#45;&gt;Node146 -->
<g id="edge7" class="edge">
<title>Node145&#45;&gt;Node146</title>
<path fill="none" stroke="#191970" d="M836.1908,-29C844.8339,-29 853.6179,-29 861.8531,-29"/>
<polygon fill="#191970" stroke="#191970" points="836.1506,-25.5001 826.1506,-29 836.1506,-32.5001 836.1506,-25.5001"/>
</g>
<!-- Node147&#45;&gt;Node144 -->
<g id="edge9" class="edge">
<title>Node147&#45;&gt;Node144</title>
<path fill="none" stroke="#191970" d="M581.3594,-16.8228C589.6038,-18.234 598.3495,-19.731 606.7839,-21.1747"/>
<polygon fill="#191970" stroke="#191970" points="581.6931,-13.3291 571.246,-15.0917 580.5121,-20.2287 581.6931,-13.3291"/>
</g>
</g>
</svg>
