<?xml version="1.0" encoding="UTF-8" standalone="no"?>
<!DOCTYPE svg PUBLIC "-//W3C//DTD SVG 1.1//EN"
 "http://www.w3.org/Graphics/SVG/1.1/DTD/svg11.dtd">
<!-- Generated by graphviz version 2.40.1 (20161225.0304)
 -->
<!-- Title: draw_boats Pages: 1 -->
<svg width="515pt" height="47pt"
 viewBox="0.00 0.00 515.00 47.00" xmlns="http://www.w3.org/2000/svg" xmlns:xlink="http://www.w3.org/1999/xlink">
<g id="graph0" class="graph" transform="scale(1 1) rotate(0) translate(4 43)">
<title>draw_boats</title>
<polygon fill="#ffffff" stroke="transparent" points="-4,4 -4,-43 511,-43 511,4 -4,4"/>
<!-- Node53 -->
<g id="node1" class="node">
<title>Node53</title>
<polygon fill="#bfbfbf" stroke="#000000" points="0,-19.5 0,-38.5 67,-38.5 67,-19.5 0,-19.5"/>
<text text-anchor="middle" x="33.5" y="-26.5" font-family="Helvetica,sans-Serif" font-size="10.00" fill="#000000">draw_boats</text>
</g>
<!-- Node54 -->
<g id="node2" class="node">
<title>Node54</title>
<g id="a_node2"><a xlink:href="sprite_8c.html#ab0c8b8caefb74f2cf7c79ffb254c4ac4" target="_top" xlink:title="Shows the sprite. ">
<polygon fill="#ffffff" stroke="#000000" points="103,-19.5 103,-38.5 170,-38.5 170,-19.5 103,-19.5"/>
<text text-anchor="middle" x="136.5" y="-26.5" font-family="Helvetica,sans-Serif" font-size="10.00" fill="#000000">draw_sprite</text>
</a>
</g>
</g>
<!-- Node53&#45;&gt;Node54 -->
<g id="edge1" class="edge">
<title>Node53&#45;&gt;Node54</title>
<path fill="none" stroke="#191970" d="M67.2261,-29C75.318,-29 84.0771,-29 92.5569,-29"/>
<polygon fill="#191970" stroke="#191970" points="92.6982,-32.5001 102.6982,-29 92.6981,-25.5001 92.6982,-32.5001"/>
</g>
<!-- Node55 -->
<g id="node3" class="node">
<title>Node55</title>
<g id="a_node3"><a xlink:href="graphic_8c.html#a461a83bf6ebfd3b6dc95ca3962858d3d" target="_top" xlink:title="Copies the xmp into the video mem. ">
<polygon fill="#ffffff" stroke="#000000" points="206,-19.5 206,-38.5 268,-38.5 268,-19.5 206,-19.5"/>
<text text-anchor="middle" x="237" y="-26.5" font-family="Helvetica,sans-Serif" font-size="10.00" fill="#000000">draw_xpm</text>
</a>
</g>
</g>
<!-- Node54&#45;&gt;Node55 -->
<g id="edge2" class="edge">
<title>Node54&#45;&gt;Node55</title>
<path fill="none" stroke="#191970" d="M170.2446,-29C178.4338,-29 187.2809,-29 195.7726,-29"/>
<polygon fill="#191970" stroke="#191970" points="195.8862,-32.5001 205.8862,-29 195.8862,-25.5001 195.8862,-32.5001"/>
</g>
<!-- Node56 -->
<g id="node4" class="node">
<title>Node56</title>
<g id="a_node4"><a xlink:href="graphic_8c.html#a89e5e15fb2c065221f58c6d883da6049" target="_top" xlink:title="get_bytes_per_pixel">
<polygon fill="#ffffff" stroke="#000000" points="403,-19.5 403,-38.5 507,-38.5 507,-19.5 403,-19.5"/>
<text text-anchor="middle" x="455" y="-26.5" font-family="Helvetica,sans-Serif" font-size="10.00" fill="#000000">get_bytes_per_pixel</text>
</a>
</g>
</g>
<!-- Node55&#45;&gt;Node56 -->
<g id="edge3" class="edge">
<title>Node55&#45;&gt;Node56</title>
<path fill="none" stroke="#191970" d="M268.2341,-29C300.5774,-29 351.9817,-29 392.6808,-29"/>
<polygon fill="#191970" stroke="#191970" points="392.7793,-32.5001 402.7792,-29 392.7792,-25.5001 392.7793,-32.5001"/>
</g>
<!-- Node57 -->
<g id="node5" class="node">
<title>Node57</title>
<g id="a_node5"><a xlink:href="graphic_8c.html#a90228825151958bdc7dfaffdbbd88494" target="_top" xlink:title="Calculates the color and sets the pixel in the video mem. ">
<polygon fill="#ffffff" stroke="#000000" points="304,-.5 304,-19.5 367,-19.5 367,-.5 304,-.5"/>
<text text-anchor="middle" x="335.5" y="-7.5" font-family="Helvetica,sans-Serif" font-size="10.00" fill="#000000">draw_pixel</text>
</a>
</g>
</g>
<!-- Node55&#45;&gt;Node57 -->
<g id="edge4" class="edge">
<title>Node55&#45;&gt;Node57</title>
<path fill="none" stroke="#191970" d="M268.166,-22.9883C276.3491,-21.4098 285.3057,-19.6822 293.939,-18.0168"/>
<polygon fill="#191970" stroke="#191970" points="294.7036,-21.434 303.8597,-16.1032 293.3778,-14.5607 294.7036,-21.434"/>
</g>
<!-- Node57&#45;&gt;Node56 -->
<g id="edge5" class="edge">
<title>Node57&#45;&gt;Node56</title>
<path fill="none" stroke="#191970" d="M367.2101,-15.0418C375.1477,-16.3038 383.9393,-17.7016 392.8028,-19.1109"/>
<polygon fill="#191970" stroke="#191970" points="392.3732,-22.5865 402.7988,-20.7002 393.4724,-15.6733 392.3732,-22.5865"/>
</g>
</g>
</svg>
