<?xml version="1.0" encoding="UTF-8" standalone="no"?>
<!DOCTYPE svg PUBLIC "-//W3C//DTD SVG 1.1//EN"
 "http://www.w3.org/Graphics/SVG/1.1/DTD/svg11.dtd">
<!-- Generated by graphviz version 2.40.1 (20161225.0304)
 -->
<!-- Title: draw_objects Pages: 1 -->
<svg width="522pt" height="47pt"
 viewBox="0.00 0.00 522.00 47.00" xmlns="http://www.w3.org/2000/svg" xmlns:xlink="http://www.w3.org/1999/xlink">
<g id="graph0" class="graph" transform="scale(1 1) rotate(0) translate(4 43)">
<title>draw_objects</title>
<polygon fill="#ffffff" stroke="transparent" points="-4,4 -4,-43 518,-43 518,4 -4,4"/>
<!-- Node78 -->
<g id="node1" class="node">
<title>Node78</title>
<polygon fill="#bfbfbf" stroke="#000000" points="0,-19.5 0,-38.5 74,-38.5 74,-19.5 0,-19.5"/>
<text text-anchor="middle" x="37" y="-26.5" font-family="Helvetica,sans-Serif" font-size="10.00" fill="#000000">draw_objects</text>
</g>
<!-- Node79 -->
<g id="node2" class="node">
<title>Node79</title>
<g id="a_node2"><a xlink:href="sprite_8c.html#ab0c8b8caefb74f2cf7c79ffb254c4ac4" target="_top" xlink:title="Shows the sprite. ">
<polygon fill="#ffffff" stroke="#000000" points="110,-19.5 110,-38.5 177,-38.5 177,-19.5 110,-19.5"/>
<text text-anchor="middle" x="143.5" y="-26.5" font-family="Helvetica,sans-Serif" font-size="10.00" fill="#000000">draw_sprite</text>
</a>
</g>
</g>
<!-- Node78&#45;&gt;Node79 -->
<g id="edge1" class="edge">
<title>Node78&#45;&gt;Node79</title>
<path fill="none" stroke="#191970" d="M74.2485,-29C82.4363,-29 91.1804,-29 99.6024,-29"/>
<polygon fill="#191970" stroke="#191970" points="99.6564,-32.5001 109.6564,-29 99.6564,-25.5001 99.6564,-32.5001"/>
</g>
<!-- Node80 -->
<g id="node3" class="node">
<title>Node80</title>
<g id="a_node3"><a xlink:href="graphic_8c.html#a461a83bf6ebfd3b6dc95ca3962858d3d" target="_top" xlink:title="Copies the xmp into the video mem. ">
<polygon fill="#ffffff" stroke="#000000" points="213,-19.5 213,-38.5 275,-38.5 275,-19.5 213,-19.5"/>
<text text-anchor="middle" x="244" y="-26.5" font-family="Helvetica,sans-Serif" font-size="10.00" fill="#000000">draw_xpm</text>
</a>
</g>
</g>
<!-- Node79&#45;&gt;Node80 -->
<g id="edge2" class="edge">
<title>Node79&#45;&gt;Node80</title>
<path fill="none" stroke="#191970" d="M177.2446,-29C185.4338,-29 194.2809,-29 202.7726,-29"/>
<polygon fill="#191970" stroke="#191970" points="202.8862,-32.5001 212.8862,-29 202.8862,-25.5001 202.8862,-32.5001"/>
</g>
<!-- Node81 -->
<g id="node4" class="node">
<title>Node81</title>
<g id="a_node4"><a xlink:href="graphic_8c.html#a89e5e15fb2c065221f58c6d883da6049" target="_top" xlink:title="get_bytes_per_pixel">
<polygon fill="#ffffff" stroke="#000000" points="410,-19.5 410,-38.5 514,-38.5 514,-19.5 410,-19.5"/>
<text text-anchor="middle" x="462" y="-26.5" font-family="Helvetica,sans-Serif" font-size="10.00" fill="#000000">get_bytes_per_pixel</text>
</a>
</g>
</g>
<!-- Node80&#45;&gt;Node81 -->
<g id="edge3" class="edge">
<title>Node80&#45;&gt;Node81</title>
<path fill="none" stroke="#191970" d="M275.2341,-29C307.5774,-29 358.9817,-29 399.6808,-29"/>
<polygon fill="#191970" stroke="#191970" points="399.7793,-32.5001 409.7792,-29 399.7792,-25.5001 399.7793,-32.5001"/>
</g>
<!-- Node82 -->
<g id="node5" class="node">
<title>Node82</title>
<g id="a_node5"><a xlink:href="graphic_8c.html#a90228825151958bdc7dfaffdbbd88494" target="_top" xlink:title="Calculates the color and sets the pixel in the video mem. ">
<polygon fill="#ffffff" stroke="#000000" points="311,-.5 311,-19.5 374,-19.5 374,-.5 311,-.5"/>
<text text-anchor="middle" x="342.5" y="-7.5" font-family="Helvetica,sans-Serif" font-size="10.00" fill="#000000">draw_pixel</text>
</a>
</g>
</g>
<!-- Node80&#45;&gt;Node82 -->
<g id="edge4" class="edge">
<title>Node80&#45;&gt;Node82</title>
<path fill="none" stroke="#191970" d="M275.166,-22.9883C283.3491,-21.4098 292.3057,-19.6822 300.939,-18.0168"/>
<polygon fill="#191970" stroke="#191970" points="301.7036,-21.434 310.8597,-16.1032 300.3778,-14.5607 301.7036,-21.434"/>
</g>
<!-- Node82&#45;&gt;Node81 -->
<g id="edge5" class="edge">
<title>Node82&#45;&gt;Node81</title>
<path fill="none" stroke="#191970" d="M374.2101,-15.0418C382.1477,-16.3038 390.9393,-17.7016 399.8028,-19.1109"/>
<polygon fill="#191970" stroke="#191970" points="399.3732,-22.5865 409.7988,-20.7002 400.4724,-15.6733 399.3732,-22.5865"/>
</g>
</g>
</svg>
