<?xml version="1.0" encoding="UTF-8" standalone="no"?>
<!DOCTYPE svg PUBLIC "-//W3C//DTD SVG 1.1//EN"
 "http://www.w3.org/Graphics/SVG/1.1/DTD/svg11.dtd">
<!-- Generated by graphviz version 2.40.1 (20161225.0304)
 -->
<!-- Title: place_boat_cord Pages: 1 -->
<svg width="721pt" height="28pt"
 viewBox="0.00 0.00 721.00 28.00" xmlns="http://www.w3.org/2000/svg" xmlns:xlink="http://www.w3.org/1999/xlink">
<g id="graph0" class="graph" transform="scale(1 1) rotate(0) translate(4 24)">
<title>place_boat_cord</title>
<polygon fill="#ffffff" stroke="transparent" points="-4,4 -4,-24 717,-24 717,4 -4,4"/>
<!-- Node125 -->
<g id="node1" class="node">
<title>Node125</title>
<polygon fill="#bfbfbf" stroke="#000000" points="0,-.5 0,-19.5 88,-19.5 88,-.5 0,-.5"/>
<text text-anchor="middle" x="44" y="-7.5" font-family="Helvetica,sans-Serif" font-size="10.00" fill="#000000">place_boat_cord</text>
</g>
<!-- Node126 -->
<g id="node2" class="node">
<title>Node126</title>
<g id="a_node2"><a xlink:href="player_8h.html#ae1c4e7c7e4d00bca98a8edb0d179819f" target="_top" xlink:title="Generates a random board with placed boats for the AI. ">
<polygon fill="#ffffff" stroke="#000000" points="124,-.5 124,-19.5 248,-19.5 248,-.5 124,-.5"/>
<text text-anchor="middle" x="186" y="-7.5" font-family="Helvetica,sans-Serif" font-size="10.00" fill="#000000">generate_random_matrix</text>
</a>
</g>
</g>
<!-- Node125&#45;&gt;Node126 -->
<g id="edge1" class="edge">
<title>Node125&#45;&gt;Node126</title>
<path fill="none" stroke="#191970" d="M98.1984,-10C106.5985,-10 115.3315,-10 123.8894,-10"/>
<polygon fill="#191970" stroke="#191970" points="98.1513,-6.5001 88.1513,-10 98.1513,-13.5001 98.1513,-6.5001"/>
</g>
<!-- Node127 -->
<g id="node3" class="node">
<title>Node127</title>
<g id="a_node3"><a xlink:href="game_8h.html#aff1f849979a9ca10d6ff2bce0dfb7fd5" target="_top" xlink:title="Single Player Iniciates the boards from the respective players Starts the game loop (1 turn per playe...">
<polygon fill="#ffffff" stroke="#000000" points="284,-.5 284,-19.5 340,-19.5 340,-.5 284,-.5"/>
<text text-anchor="middle" x="312" y="-7.5" font-family="Helvetica,sans-Serif" font-size="10.00" fill="#000000">game_sp</text>
</a>
</g>
</g>
<!-- Node126&#45;&gt;Node127 -->
<g id="edge2" class="edge">
<title>Node126&#45;&gt;Node127</title>
<path fill="none" stroke="#191970" d="M258.5036,-10C267.511,-10 276.2531,-10 283.9705,-10"/>
<polygon fill="#191970" stroke="#191970" points="258.2618,-6.5001 248.2617,-10 258.2617,-13.5001 258.2618,-6.5001"/>
</g>
<!-- Node128 -->
<g id="node4" class="node">
<title>Node128</title>
<g id="a_node4"><a xlink:href="menu_8h.html#a95c8dcba38d720d3e4bd6fcf9a8ee279" target="_top" xlink:title="selects a menu option ">
<polygon fill="#ffffff" stroke="#000000" points="376,-.5 376,-19.5 467,-19.5 467,-.5 376,-.5"/>
<text text-anchor="middle" x="421.5" y="-7.5" font-family="Helvetica,sans-Serif" font-size="10.00" fill="#000000">select_menu_opt</text>
</a>
</g>
</g>
<!-- Node127&#45;&gt;Node128 -->
<g id="edge3" class="edge">
<title>Node127&#45;&gt;Node128</title>
<path fill="none" stroke="#191970" d="M350.3311,-10C358.6145,-10 367.4504,-10 375.9788,-10"/>
<polygon fill="#191970" stroke="#191970" points="350.199,-6.5001 340.199,-10 350.1989,-13.5001 350.199,-6.5001"/>
</g>
<!-- Node129 -->
<g id="node5" class="node">
<title>Node129</title>
<g id="a_node5"><a xlink:href="menu_8h.html#a6ed6ac9188a15c74b9d07d12b34397c0" target="_top" xlink:title="Subscribes interruptions of the necessary modules Calls main menu and game functions. ">
<polygon fill="#ffffff" stroke="#000000" points="503,-.5 503,-19.5 595,-19.5 595,-.5 503,-.5"/>
<text text-anchor="middle" x="549" y="-7.5" font-family="Helvetica,sans-Serif" font-size="10.00" fill="#000000">game_main_cicle</text>
</a>
</g>
</g>
<!-- Node128&#45;&gt;Node129 -->
<g id="edge4" class="edge">
<title>Node128&#45;&gt;Node129</title>
<path fill="none" stroke="#191970" d="M477.3846,-10C485.8691,-10 494.5423,-10 502.7907,-10"/>
<polygon fill="#191970" stroke="#191970" points="477.1703,-6.5001 467.1703,-10 477.1703,-13.5001 477.1703,-6.5001"/>
</g>
<!-- Node130 -->
<g id="node6" class="node">
<title>Node130</title>
<g id="a_node6"><a xlink:href="proj_8c.html#a2a16f651eccbd248e1ad3b3b924b143b" target="_top" xlink:title="proj_main_loop">
<polygon fill="#ffffff" stroke="#000000" points="631,-.5 631,-19.5 713,-19.5 713,-.5 631,-.5"/>
<text text-anchor="middle" x="672" y="-7.5" font-family="Helvetica,sans-Serif" font-size="10.00" fill="#000000">proj_main_loop</text>
</a>
</g>
</g>
<!-- Node129&#45;&gt;Node130 -->
<g id="edge5" class="edge">
<title>Node129&#45;&gt;Node130</title>
<path fill="none" stroke="#191970" d="M605.1908,-10C613.8339,-10 622.6179,-10 630.8531,-10"/>
<polygon fill="#191970" stroke="#191970" points="605.1506,-6.5001 595.1506,-10 605.1506,-13.5001 605.1506,-6.5001"/>
</g>
</g>
</svg>
