<?xml version="1.0" encoding="UTF-8" standalone="no"?>
<!DOCTYPE svg PUBLIC "-//W3C//DTD SVG 1.1//EN"
 "http://www.w3.org/Graphics/SVG/1.1/DTD/svg11.dtd">
<!-- Generated by graphviz version 2.40.1 (20161225.0304)
 -->
<!-- Title: draw_boats Pages: 1 -->
<svg width="667pt" height="66pt"
 viewBox="0.00 0.00 667.00 66.00" xmlns="http://www.w3.org/2000/svg" xmlns:xlink="http://www.w3.org/1999/xlink">
<g id="graph0" class="graph" transform="scale(1 1) rotate(0) translate(4 62)">
<title>draw_boats</title>
<polygon fill="#ffffff" stroke="transparent" points="-4,4 -4,-62 663,-62 663,4 -4,4"/>
<!-- Node58 -->
<g id="node1" class="node">
<title>Node58</title>
<polygon fill="#bfbfbf" stroke="#000000" points="0,-19.5 0,-38.5 67,-38.5 67,-19.5 0,-19.5"/>
<text text-anchor="middle" x="33.5" y="-26.5" font-family="Helvetica,sans-Serif" font-size="10.00" fill="#000000">draw_boats</text>
</g>
<!-- Node59 -->
<g id="node2" class="node">
<title>Node59</title>
<g id="a_node2"><a xlink:href="game_8h.html#a382ed7c0cb3201c13d4396ad9afc5a3e" target="_top" xlink:title="Lets the player initialize the board unsign a graphical interface 10 boats must be positioned before ...">
<polygon fill="#ffffff" stroke="#000000" points="103,-.5 103,-19.5 191,-19.5 191,-.5 103,-.5"/>
<text text-anchor="middle" x="147" y="-7.5" font-family="Helvetica,sans-Serif" font-size="10.00" fill="#000000">game_init_board</text>
</a>
</g>
</g>
<!-- Node58&#45;&gt;Node59 -->
<g id="edge1" class="edge">
<title>Node58&#45;&gt;Node59</title>
<path fill="none" stroke="#191970" d="M77.1823,-21.6875C85.5331,-20.2896 94.2831,-18.8249 102.6544,-17.4235"/>
<polygon fill="#191970" stroke="#191970" points="76.5313,-18.2477 67.2464,-23.3508 77.6871,-25.1517 76.5313,-18.2477"/>
</g>
<!-- Node65 -->
<g id="node8" class="node">
<title>Node65</title>
<g id="a_node8"><a xlink:href="game_8h.html#afb1a61b5802eed643536ce45225d2000" target="_top" xlink:title="Randomly fires upon player&#39;s boats using a state machine to simulate a strategy In case of a hit the ...">
<polygon fill="#ffffff" stroke="#000000" points="105.5,-38.5 105.5,-57.5 188.5,-57.5 188.5,-38.5 105.5,-38.5"/>
<text text-anchor="middle" x="147" y="-45.5" font-family="Helvetica,sans-Serif" font-size="10.00" fill="#000000">game_round_ai</text>
</a>
</g>
</g>
<!-- Node58&#45;&gt;Node65 -->
<g id="edge8" class="edge">
<title>Node58&#45;&gt;Node65</title>
<path fill="none" stroke="#191970" d="M77.3119,-36.3341C86.4531,-37.8644 96.0674,-39.4738 105.136,-40.9919"/>
<polygon fill="#191970" stroke="#191970" points="77.6871,-32.8483 67.2464,-34.6492 76.5313,-39.7523 77.6871,-32.8483"/>
</g>
<!-- Node60 -->
<g id="node3" class="node">
<title>Node60</title>
<g id="a_node3"><a xlink:href="game_8h.html#aff1f849979a9ca10d6ff2bce0dfb7fd5" target="_top" xlink:title="Single Player Iniciates the boards from the respective players Starts the game loop (1 turn per playe...">
<polygon fill="#ffffff" stroke="#000000" points="228.5,-38.5 228.5,-57.5 284.5,-57.5 284.5,-38.5 228.5,-38.5"/>
<text text-anchor="middle" x="256.5" y="-45.5" font-family="Helvetica,sans-Serif" font-size="10.00" fill="#000000">game_sp</text>
</a>
</g>
</g>
<!-- Node59&#45;&gt;Node60 -->
<g id="edge2" class="edge">
<title>Node59&#45;&gt;Node60</title>
<path fill="none" stroke="#191970" d="M184.3792,-22.9718C198.9676,-28.0344 215.3917,-33.7341 228.8774,-38.4141"/>
<polygon fill="#191970" stroke="#191970" points="185.2263,-19.561 174.6315,-19.589 182.9313,-26.1741 185.2263,-19.561"/>
</g>
<!-- Node64 -->
<g id="node7" class="node">
<title>Node64</title>
<g id="a_node7"><a xlink:href="game_8h.html#a03f40ddf75045683b3f488d4839937ab" target="_top" xlink:title="Multiplayer. ">
<polygon fill="#ffffff" stroke="#000000" points="227,-.5 227,-19.5 286,-19.5 286,-.5 227,-.5"/>
<text text-anchor="middle" x="256.5" y="-7.5" font-family="Helvetica,sans-Serif" font-size="10.00" fill="#000000">game_mp</text>
</a>
</g>
</g>
<!-- Node59&#45;&gt;Node64 -->
<g id="edge6" class="edge">
<title>Node59&#45;&gt;Node64</title>
<path fill="none" stroke="#191970" d="M201.451,-10C210.2143,-10 218.9877,-10 226.8734,-10"/>
<polygon fill="#191970" stroke="#191970" points="201.2222,-6.5001 191.2222,-10 201.2222,-13.5001 201.2222,-6.5001"/>
</g>
<!-- Node61 -->
<g id="node4" class="node">
<title>Node61</title>
<g id="a_node4"><a xlink:href="menu_8h.html#a95c8dcba38d720d3e4bd6fcf9a8ee279" target="_top" xlink:title="selects a menu option ">
<polygon fill="#ffffff" stroke="#000000" points="322,-19.5 322,-38.5 413,-38.5 413,-19.5 322,-19.5"/>
<text text-anchor="middle" x="367.5" y="-26.5" font-family="Helvetica,sans-Serif" font-size="10.00" fill="#000000">select_menu_opt</text>
</a>
</g>
</g>
<!-- Node60&#45;&gt;Node61 -->
<g id="edge3" class="edge">
<title>Node60&#45;&gt;Node61</title>
<path fill="none" stroke="#191970" d="M294.4694,-41.5007C303.2612,-39.9958 312.707,-38.379 321.7914,-36.824"/>
<polygon fill="#191970" stroke="#191970" points="293.7761,-38.0684 284.51,-43.2055 294.9572,-44.9681 293.7761,-38.0684"/>
</g>
<!-- Node62 -->
<g id="node5" class="node">
<title>Node62</title>
<g id="a_node5"><a xlink:href="menu_8h.html#a6ed6ac9188a15c74b9d07d12b34397c0" target="_top" xlink:title="Subscribes interruptions of the necessary modules Calls main menu and game functions. ">
<polygon fill="#ffffff" stroke="#000000" points="449,-19.5 449,-38.5 541,-38.5 541,-19.5 449,-19.5"/>
<text text-anchor="middle" x="495" y="-26.5" font-family="Helvetica,sans-Serif" font-size="10.00" fill="#000000">game_main_cicle</text>
</a>
</g>
</g>
<!-- Node61&#45;&gt;Node62 -->
<g id="edge4" class="edge">
<title>Node61&#45;&gt;Node62</title>
<path fill="none" stroke="#191970" d="M423.3846,-29C431.8691,-29 440.5423,-29 448.7907,-29"/>
<polygon fill="#191970" stroke="#191970" points="423.1703,-25.5001 413.1703,-29 423.1703,-32.5001 423.1703,-25.5001"/>
</g>
<!-- Node63 -->
<g id="node6" class="node">
<title>Node63</title>
<g id="a_node6"><a xlink:href="proj_8c.html#a2a16f651eccbd248e1ad3b3b924b143b" target="_top" xlink:title="proj_main_loop">
<polygon fill="#ffffff" stroke="#000000" points="577,-19.5 577,-38.5 659,-38.5 659,-19.5 577,-19.5"/>
<text text-anchor="middle" x="618" y="-26.5" font-family="Helvetica,sans-Serif" font-size="10.00" fill="#000000">proj_main_loop</text>
</a>
</g>
</g>
<!-- Node62&#45;&gt;Node63 -->
<g id="edge5" class="edge">
<title>Node62&#45;&gt;Node63</title>
<path fill="none" stroke="#191970" d="M551.1908,-29C559.8339,-29 568.6179,-29 576.8531,-29"/>
<polygon fill="#191970" stroke="#191970" points="551.1506,-25.5001 541.1506,-29 551.1506,-32.5001 551.1506,-25.5001"/>
</g>
<!-- Node64&#45;&gt;Node61 -->
<g id="edge7" class="edge">
<title>Node64&#45;&gt;Node61</title>
<path fill="none" stroke="#191970" d="M296.3594,-16.8228C304.6038,-18.234 313.3495,-19.731 321.7839,-21.1747"/>
<polygon fill="#191970" stroke="#191970" points="296.6931,-13.3291 286.246,-15.0917 295.5121,-20.2287 296.6931,-13.3291"/>
</g>
<!-- Node65&#45;&gt;Node60 -->
<g id="edge9" class="edge">
<title>Node65&#45;&gt;Node60</title>
<path fill="none" stroke="#191970" d="M198.8333,-48C209.0553,-48 219.4133,-48 228.4765,-48"/>
<polygon fill="#191970" stroke="#191970" points="198.7097,-44.5001 188.7096,-48 198.7096,-51.5001 198.7097,-44.5001"/>
</g>
</g>
</svg>
