<?xml version="1.0" encoding="UTF-8" standalone="no"?>
<!DOCTYPE svg PUBLIC "-//W3C//DTD SVG 1.1//EN"
 "http://www.w3.org/Graphics/SVG/1.1/DTD/svg11.dtd">
<!-- Generated by graphviz version 2.40.1 (20161225.0304)
 -->
<!-- Title: draw_destroyed_boats Pages: 1 -->
<svg width="563pt" height="47pt"
 viewBox="0.00 0.00 563.00 47.00" xmlns="http://www.w3.org/2000/svg" xmlns:xlink="http://www.w3.org/1999/xlink">
<g id="graph0" class="graph" transform="scale(1 1) rotate(0) translate(4 43)">
<title>draw_destroyed_boats</title>
<polygon fill="#ffffff" stroke="transparent" points="-4,4 -4,-43 559,-43 559,4 -4,4"/>
<!-- Node66 -->
<g id="node1" class="node">
<title>Node66</title>
<polygon fill="#bfbfbf" stroke="#000000" points="0,-19.5 0,-38.5 115,-38.5 115,-19.5 0,-19.5"/>
<text text-anchor="middle" x="57.5" y="-26.5" font-family="Helvetica,sans-Serif" font-size="10.00" fill="#000000">draw_destroyed_boats</text>
</g>
<!-- Node67 -->
<g id="node2" class="node">
<title>Node67</title>
<g id="a_node2"><a xlink:href="sprite_8c.html#ab0c8b8caefb74f2cf7c79ffb254c4ac4" target="_top" xlink:title="Shows the sprite. ">
<polygon fill="#ffffff" stroke="#000000" points="151,-19.5 151,-38.5 218,-38.5 218,-19.5 151,-19.5"/>
<text text-anchor="middle" x="184.5" y="-26.5" font-family="Helvetica,sans-Serif" font-size="10.00" fill="#000000">draw_sprite</text>
</a>
</g>
</g>
<!-- Node66&#45;&gt;Node67 -->
<g id="edge1" class="edge">
<title>Node66&#45;&gt;Node67</title>
<path fill="none" stroke="#191970" d="M115.0546,-29C123.6378,-29 132.3672,-29 140.608,-29"/>
<polygon fill="#191970" stroke="#191970" points="140.7373,-32.5001 150.7373,-29 140.7373,-25.5001 140.7373,-32.5001"/>
</g>
<!-- Node68 -->
<g id="node3" class="node">
<title>Node68</title>
<g id="a_node3"><a xlink:href="graphic_8c.html#a461a83bf6ebfd3b6dc95ca3962858d3d" target="_top" xlink:title="Copies the xmp into the video mem. ">
<polygon fill="#ffffff" stroke="#000000" points="254,-19.5 254,-38.5 316,-38.5 316,-19.5 254,-19.5"/>
<text text-anchor="middle" x="285" y="-26.5" font-family="Helvetica,sans-Serif" font-size="10.00" fill="#000000">draw_xpm</text>
</a>
</g>
</g>
<!-- Node67&#45;&gt;Node68 -->
<g id="edge2" class="edge">
<title>Node67&#45;&gt;Node68</title>
<path fill="none" stroke="#191970" d="M218.2446,-29C226.4338,-29 235.2809,-29 243.7726,-29"/>
<polygon fill="#191970" stroke="#191970" points="243.8862,-32.5001 253.8862,-29 243.8862,-25.5001 243.8862,-32.5001"/>
</g>
<!-- Node69 -->
<g id="node4" class="node">
<title>Node69</title>
<g id="a_node4"><a xlink:href="graphic_8c.html#a89e5e15fb2c065221f58c6d883da6049" target="_top" xlink:title="get_bytes_per_pixel">
<polygon fill="#ffffff" stroke="#000000" points="451,-19.5 451,-38.5 555,-38.5 555,-19.5 451,-19.5"/>
<text text-anchor="middle" x="503" y="-26.5" font-family="Helvetica,sans-Serif" font-size="10.00" fill="#000000">get_bytes_per_pixel</text>
</a>
</g>
</g>
<!-- Node68&#45;&gt;Node69 -->
<g id="edge3" class="edge">
<title>Node68&#45;&gt;Node69</title>
<path fill="none" stroke="#191970" d="M316.2341,-29C348.5774,-29 399.9817,-29 440.6808,-29"/>
<polygon fill="#191970" stroke="#191970" points="440.7793,-32.5001 450.7792,-29 440.7792,-25.5001 440.7793,-32.5001"/>
</g>
<!-- Node70 -->
<g id="node5" class="node">
<title>Node70</title>
<g id="a_node5"><a xlink:href="graphic_8c.html#a90228825151958bdc7dfaffdbbd88494" target="_top" xlink:title="Calculates the color and sets the pixel in the video mem. ">
<polygon fill="#ffffff" stroke="#000000" points="352,-.5 352,-19.5 415,-19.5 415,-.5 352,-.5"/>
<text text-anchor="middle" x="383.5" y="-7.5" font-family="Helvetica,sans-Serif" font-size="10.00" fill="#000000">draw_pixel</text>
</a>
</g>
</g>
<!-- Node68&#45;&gt;Node70 -->
<g id="edge4" class="edge">
<title>Node68&#45;&gt;Node70</title>
<path fill="none" stroke="#191970" d="M316.166,-22.9883C324.3491,-21.4098 333.3057,-19.6822 341.939,-18.0168"/>
<polygon fill="#191970" stroke="#191970" points="342.7036,-21.434 351.8597,-16.1032 341.3778,-14.5607 342.7036,-21.434"/>
</g>
<!-- Node70&#45;&gt;Node69 -->
<g id="edge5" class="edge">
<title>Node70&#45;&gt;Node69</title>
<path fill="none" stroke="#191970" d="M415.2101,-15.0418C423.1477,-16.3038 431.9393,-17.7016 440.8028,-19.1109"/>
<polygon fill="#191970" stroke="#191970" points="440.3732,-22.5865 450.7988,-20.7002 441.4724,-15.6733 440.3732,-22.5865"/>
</g>
</g>
</svg>
