<?xml version="1.0" encoding="UTF-8" standalone="no"?>
<!DOCTYPE svg PUBLIC "-//W3C//DTD SVG 1.1//EN"
 "http://www.w3.org/Graphics/SVG/1.1/DTD/svg11.dtd">
<!-- Generated by graphviz version 2.40.1 (20161225.0304)
 -->
<!-- Title: load_boats Pages: 1 -->
<!--zoomable 66 -->
<svg id="main" version="1.1" xmlns="http://www.w3.org/2000/svg" xmlns:xlink="http://www.w3.org/1999/xlink" xml:space="preserve" onload="init(evt)">
<style type="text/css"><![CDATA[
.edge:hover path { stroke: red; }
.edge:hover polygon { stroke: red; fill: red; }
]]></style>
<script type="text/javascript"><![CDATA[
var edges = document.getElementsByTagName('g');
if (edges && edges.length) {
  for (var i=0;i<edges.length;i++) {
    if (edges[i].id.substr(0,4)=='edge') {
      edges[i].setAttribute('class','edge');
    }
  }
}
]]></script>
        <defs>
                <circle id="rim" cx="0" cy="0" r="7"/>
                <circle id="rim2" cx="0" cy="0" r="3.5"/>
                <g id="zoomPlus">
                        <use xlink:href="#rim" fill="#404040">
                                <set attributeName="fill" to="#808080" begin="zoomplus.mouseover" end="zoomplus.mouseout"/>
                        </use>
                        <path d="M-4,0h8M0,-4v8" fill="none" stroke="white" stroke-width="1.5" pointer-events="none"/>
                </g>
                <g id="zoomMin">
                        <use xlink:href="#rim" fill="#404040">
                                <set attributeName="fill" to="#808080" begin="zoomminus.mouseover" end="zoomminus.mouseout"/>
                        </use>
                        <path d="M-4,0h8" fill="none" stroke="white" stroke-width="1.5" pointer-events="none"/>
                </g>
                <g id="dirArrow">
                        <path fill="none" stroke="white" stroke-width="1.5" d="M0,-3.0v7 M-2.5,-0.5L0,-3.0L2.5,-0.5"/>
                </g>
               <g id="resetDef">
                       <use xlink:href="#rim2" fill="#404040">
                               <set attributeName="fill" to="#808080" begin="reset.mouseover" end="reset.mouseout"/>
                       </use>
               </g>
        </defs>

<script type="text/javascript">
var viewWidth = 664;
var viewHeight = 66;
var sectionId = 'dynsection-14';
</script>
<script xlink:href="svgpan.js"/>
<svg id="graph" class="graph">
<g id="viewport">
<title>load_boats</title>
<polygon fill="#ffffff" stroke="transparent" points="-4,4 -4,-62 660,-62 660,4 -4,4"/>
<!-- Node94 -->
<g id="node1" class="node">
<title>Node94</title>
<polygon fill="#bfbfbf" stroke="#000000" points="0,-19.5 0,-38.5 64,-38.5 64,-19.5 0,-19.5"/>
<text text-anchor="middle" x="32" y="-26.5" font-family="Helvetica,sans-Serif" font-size="10.00" fill="#000000">load_boats</text>
</g>
<!-- Node95 -->
<g id="node2" class="node">
<title>Node95</title>
<g id="a_node2"><a xlink:href="game_8h.html#a382ed7c0cb3201c13d4396ad9afc5a3e" target="_top" xlink:title="Lets the player initialize the board unsign a graphical interface 10 boats must be positioned before ...">
<polygon fill="#ffffff" stroke="#000000" points="100,-38.5 100,-57.5 188,-57.5 188,-38.5 100,-38.5"/>
<text text-anchor="middle" x="144" y="-45.5" font-family="Helvetica,sans-Serif" font-size="10.00" fill="#000000">game_init_board</text>
</a>
</g>
</g>
<!-- Node94&#45;&gt;Node95 -->
<g id="edge1" class="edge">
<title>Node94&#45;&gt;Node95</title>
<path fill="none" stroke="#191970" d="M74.0687,-36.1367C82.4728,-37.5624 91.3239,-39.0639 99.7974,-40.5014"/>
<polygon fill="#191970" stroke="#191970" points="74.5393,-32.6666 64.0947,-34.4446 73.3684,-39.568 74.5393,-32.6666"/>
</g>
<!-- Node101 -->
<g id="node8" class="node">
<title>Node101</title>
<g id="a_node8"><a xlink:href="player_8h.html#ae5667617b46fe0f16724a0deb73f98e3" target="_top" xlink:title="Create a Player object. ">
<polygon fill="#ffffff" stroke="#000000" points="108.5,-.5 108.5,-19.5 179.5,-19.5 179.5,-.5 108.5,-.5"/>
<text text-anchor="middle" x="144" y="-7.5" font-family="Helvetica,sans-Serif" font-size="10.00" fill="#000000">createPlayer</text>
</a>
</g>
</g>
<!-- Node94&#45;&gt;Node101 -->
<g id="edge8" class="edge">
<title>Node94&#45;&gt;Node101</title>
<path fill="none" stroke="#191970" d="M74.1589,-21.848C85.4238,-19.937 97.4858,-17.8908 108.3617,-16.0458"/>
<polygon fill="#191970" stroke="#191970" points="73.3684,-18.432 64.0947,-23.5554 74.5393,-25.3334 73.3684,-18.432"/>
</g>
<!-- Node96 -->
<g id="node3" class="node">
<title>Node96</title>
<g id="a_node3"><a xlink:href="game_8h.html#aff1f849979a9ca10d6ff2bce0dfb7fd5" target="_top" xlink:title="Single Player Iniciates the boards from the respective players Starts the game loop (1 turn per playe...">
<polygon fill="#ffffff" stroke="#000000" points="225.5,-38.5 225.5,-57.5 281.5,-57.5 281.5,-38.5 225.5,-38.5"/>
<text text-anchor="middle" x="253.5" y="-45.5" font-family="Helvetica,sans-Serif" font-size="10.00" fill="#000000">game_sp</text>
</a>
</g>
</g>
<!-- Node95&#45;&gt;Node96 -->
<g id="edge2" class="edge">
<title>Node95&#45;&gt;Node96</title>
<path fill="none" stroke="#191970" d="M198.3605,-48C207.7574,-48 217.1696,-48 225.4898,-48"/>
<polygon fill="#191970" stroke="#191970" points="198.2222,-44.5001 188.2222,-48 198.2222,-51.5001 198.2222,-44.5001"/>
</g>
<!-- Node100 -->
<g id="node7" class="node">
<title>Node100</title>
<g id="a_node7"><a xlink:href="game_8h.html#a03f40ddf75045683b3f488d4839937ab" target="_top" xlink:title="Multiplayer. ">
<polygon fill="#ffffff" stroke="#000000" points="224,-.5 224,-19.5 283,-19.5 283,-.5 224,-.5"/>
<text text-anchor="middle" x="253.5" y="-7.5" font-family="Helvetica,sans-Serif" font-size="10.00" fill="#000000">game_mp</text>
</a>
</g>
</g>
<!-- Node95&#45;&gt;Node100 -->
<g id="edge6" class="edge">
<title>Node95&#45;&gt;Node100</title>
<path fill="none" stroke="#191970" d="M181.3792,-35.0282C195.9676,-29.9656 212.3917,-24.2659 225.8774,-19.5859"/>
<polygon fill="#191970" stroke="#191970" points="179.9313,-31.8259 171.6315,-38.411 182.2263,-38.439 179.9313,-31.8259"/>
</g>
<!-- Node97 -->
<g id="node4" class="node">
<title>Node97</title>
<g id="a_node4"><a xlink:href="menu_8h.html#a95c8dcba38d720d3e4bd6fcf9a8ee279" target="_top" xlink:title="selects a menu option ">
<polygon fill="#ffffff" stroke="#000000" points="319,-19.5 319,-38.5 410,-38.5 410,-19.5 319,-19.5"/>
<text text-anchor="middle" x="364.5" y="-26.5" font-family="Helvetica,sans-Serif" font-size="10.00" fill="#000000">select_menu_opt</text>
</a>
</g>
</g>
<!-- Node96&#45;&gt;Node97 -->
<g id="edge3" class="edge">
<title>Node96&#45;&gt;Node97</title>
<path fill="none" stroke="#191970" d="M291.4694,-41.5007C300.2612,-39.9958 309.707,-38.379 318.7914,-36.824"/>
<polygon fill="#191970" stroke="#191970" points="290.7761,-38.0684 281.51,-43.2055 291.9572,-44.9681 290.7761,-38.0684"/>
</g>
<!-- Node98 -->
<g id="node5" class="node">
<title>Node98</title>
<g id="a_node5"><a xlink:href="menu_8h.html#a6ed6ac9188a15c74b9d07d12b34397c0" target="_top" xlink:title="Subscribes interruptions of the necessary modules Calls main menu and game functions. ">
<polygon fill="#ffffff" stroke="#000000" points="446,-19.5 446,-38.5 538,-38.5 538,-19.5 446,-19.5"/>
<text text-anchor="middle" x="492" y="-26.5" font-family="Helvetica,sans-Serif" font-size="10.00" fill="#000000">game_main_cicle</text>
</a>
</g>
</g>
<!-- Node97&#45;&gt;Node98 -->
<g id="edge4" class="edge">
<title>Node97&#45;&gt;Node98</title>
<path fill="none" stroke="#191970" d="M420.3846,-29C428.8691,-29 437.5423,-29 445.7907,-29"/>
<polygon fill="#191970" stroke="#191970" points="420.1703,-25.5001 410.1703,-29 420.1703,-32.5001 420.1703,-25.5001"/>
</g>
<!-- Node99 -->
<g id="node6" class="node">
<title>Node99</title>
<g id="a_node6"><a xlink:href="proj_8c.html#a2a16f651eccbd248e1ad3b3b924b143b" target="_top" xlink:title="proj_main_loop">
<polygon fill="#ffffff" stroke="#000000" points="574,-19.5 574,-38.5 656,-38.5 656,-19.5 574,-19.5"/>
<text text-anchor="middle" x="615" y="-26.5" font-family="Helvetica,sans-Serif" font-size="10.00" fill="#000000">proj_main_loop</text>
</a>
</g>
</g>
<!-- Node98&#45;&gt;Node99 -->
<g id="edge5" class="edge">
<title>Node98&#45;&gt;Node99</title>
<path fill="none" stroke="#191970" d="M548.1908,-29C556.8339,-29 565.6179,-29 573.8531,-29"/>
<polygon fill="#191970" stroke="#191970" points="548.1506,-25.5001 538.1506,-29 548.1506,-32.5001 548.1506,-25.5001"/>
</g>
<!-- Node100&#45;&gt;Node97 -->
<g id="edge7" class="edge">
<title>Node100&#45;&gt;Node97</title>
<path fill="none" stroke="#191970" d="M293.3594,-16.8228C301.6038,-18.234 310.3495,-19.731 318.7839,-21.1747"/>
<polygon fill="#191970" stroke="#191970" points="293.6931,-13.3291 283.246,-15.0917 292.5121,-20.2287 293.6931,-13.3291"/>
</g>
<!-- Node101&#45;&gt;Node96 -->
<g id="edge9" class="edge">
<title>Node101&#45;&gt;Node96</title>
<path fill="none" stroke="#191970" d="M181.3792,-22.9718C195.9676,-28.0344 212.3917,-33.7341 225.8774,-38.4141"/>
<polygon fill="#191970" stroke="#191970" points="182.2263,-19.561 171.6315,-19.589 179.9313,-26.1741 182.2263,-19.561"/>
</g>
<!-- Node101&#45;&gt;Node100 -->
<g id="edge10" class="edge">
<title>Node101&#45;&gt;Node100</title>
<path fill="none" stroke="#191970" d="M189.5699,-10C201.1991,-10 213.397,-10 223.9838,-10"/>
<polygon fill="#191970" stroke="#191970" points="189.5515,-6.5001 179.5515,-10 189.5515,-13.5001 189.5515,-6.5001"/>
</g>
</g>
</svg>
        <g id="navigator" transform="translate(0 0)" fill="#404254">
                <rect fill="#f2f5e9" fill-opacity="0.5" stroke="#606060" stroke-width=".5" x="0" y="0" width="60" height="60"/>
                <use id="zoomplus" xlink:href="#zoomPlus" x="17" y="9" onmousedown="handleZoom(evt,'in')"/>
                <use id="zoomminus" xlink:href="#zoomMin" x="42" y="9" onmousedown="handleZoom(evt,'out')"/>
                <use id="reset" xlink:href="#resetDef" x="30" y="36" onmousedown="handleReset()"/>
                <g id="arrowUp" xlink:href="#dirArrow" transform="translate(30 24)" onmousedown="handlePan(0,-1)">
                  <use xlink:href="#rim" fill="#404040">
                        <set attributeName="fill" to="#808080" begin="arrowUp.mouseover" end="arrowUp.mouseout"/>
                  </use>
                  <path fill="none" stroke="white" stroke-width="1.5" d="M0,-3.0v7 M-2.5,-0.5L0,-3.0L2.5,-0.5"/>
                </g>
                <g id="arrowRight" xlink:href="#dirArrow" transform="rotate(90) translate(36 -43)" onmousedown="handlePan(1,0)">
                  <use xlink:href="#rim" fill="#404040">
                        <set attributeName="fill" to="#808080" begin="arrowRight.mouseover" end="arrowRight.mouseout"/>
                  </use>
                  <path fill="none" stroke="white" stroke-width="1.5" d="M0,-3.0v7 M-2.5,-0.5L0,-3.0L2.5,-0.5"/>
                </g>
                <g id="arrowDown" xlink:href="#dirArrow" transform="rotate(180) translate(-30 -48)" onmousedown="handlePan(0,1)">
                  <use xlink:href="#rim" fill="#404040">
                        <set attributeName="fill" to="#808080" begin="arrowDown.mouseover" end="arrowDown.mouseout"/>
                  </use>
                  <path fill="none" stroke="white" stroke-width="1.5" d="M0,-3.0v7 M-2.5,-0.5L0,-3.0L2.5,-0.5"/>
                </g>
                <g id="arrowLeft" xlink:href="#dirArrow" transform="rotate(270) translate(-36 17)" onmousedown="handlePan(-1,0)">
                  <use xlink:href="#rim" fill="#404040">
                        <set attributeName="fill" to="#808080" begin="arrowLeft.mouseover" end="arrowLeft.mouseout"/>
                  </use>
                  <path fill="none" stroke="white" stroke-width="1.5" d="M0,-3.0v7 M-2.5,-0.5L0,-3.0L2.5,-0.5"/>
                </g>
        </g>
        <svg viewBox="0 0 15 15" width="100%" height="30px" preserveAspectRatio="xMaxYMin meet">
         <g id="arrow_out" transform="scale(0.3 0.3)">
          <a xlink:href="board_8h_ae77f988d7fd295ac883560b379f2e26d_icgraph_org.svg" target="_base">
           <rect id="button" ry="5" rx="5" y="6" x="6" height="38" width="38"
                fill="#f2f5e9" fill-opacity="0.5" stroke="#606060" stroke-width="1.0"/>
           <path id="arrow"
             d="M 11.500037,31.436501 C 11.940474,20.09759 22.043105,11.32322 32.158766,21.979434 L 37.068811,17.246167 C 37.068811,17.246167 37.088388,32 37.088388,32 L 22.160133,31.978069 C 22.160133,31.978069 26.997745,27.140456 26.997745,27.140456 C 18.528582,18.264221 13.291696,25.230495 11.500037,31.436501 z"
             style="fill:#404040;"/>
          </a>
         </g>
        </svg>
</svg>
