<?xml version="1.0" encoding="UTF-8" standalone="no"?>
<!DOCTYPE svg PUBLIC "-//W3C//DTD SVG 1.1//EN"
 "http://www.w3.org/Graphics/SVG/1.1/DTD/svg11.dtd">
<!-- Generated by graphviz version 2.40.1 (20161225.0304)
 -->
<!-- Title: create_boat Pages: 1 -->
<svg width="768pt" height="66pt"
 viewBox="0.00 0.00 768.00 66.00" xmlns="http://www.w3.org/2000/svg" xmlns:xlink="http://www.w3.org/1999/xlink">
<g id="graph0" class="graph" transform="scale(1 1) rotate(0) translate(4 62)">
<title>create_boat</title>
<polygon fill="#ffffff" stroke="transparent" points="-4,4 -4,-62 764,-62 764,4 -4,4"/>
<!-- Node2 -->
<g id="node1" class="node">
<title>Node2</title>
<polygon fill="#bfbfbf" stroke="#000000" points="0,-19.5 0,-38.5 68,-38.5 68,-19.5 0,-19.5"/>
<text text-anchor="middle" x="34" y="-26.5" font-family="Helvetica,sans-Serif" font-size="10.00" fill="#000000">create_boat</text>
</g>
<!-- Node3 -->
<g id="node2" class="node">
<title>Node3</title>
<g id="a_node2"><a xlink:href="board_8h.html#ae77f988d7fd295ac883560b379f2e26d" target="_top" xlink:title="Creates boat objects and loads them into an array. ">
<polygon fill="#ffffff" stroke="#000000" points="104,-19.5 104,-38.5 168,-38.5 168,-19.5 104,-19.5"/>
<text text-anchor="middle" x="136" y="-26.5" font-family="Helvetica,sans-Serif" font-size="10.00" fill="#000000">load_boats</text>
</a>
</g>
</g>
<!-- Node2&#45;&gt;Node3 -->
<g id="edge1" class="edge">
<title>Node2&#45;&gt;Node3</title>
<path fill="none" stroke="#191970" d="M78.4387,-29C86.9471,-29 95.7033,-29 103.7386,-29"/>
<polygon fill="#191970" stroke="#191970" points="78.2483,-25.5001 68.2483,-29 78.2482,-32.5001 78.2483,-25.5001"/>
</g>
<!-- Node4 -->
<g id="node3" class="node">
<title>Node4</title>
<g id="a_node3"><a xlink:href="game_8h.html#a382ed7c0cb3201c13d4396ad9afc5a3e" target="_top" xlink:title="Lets the player initialize the board unsign a graphical interface 10 boats must be positioned before ...">
<polygon fill="#ffffff" stroke="#000000" points="204,-38.5 204,-57.5 292,-57.5 292,-38.5 204,-38.5"/>
<text text-anchor="middle" x="248" y="-45.5" font-family="Helvetica,sans-Serif" font-size="10.00" fill="#000000">game_init_board</text>
</a>
</g>
</g>
<!-- Node3&#45;&gt;Node4 -->
<g id="edge2" class="edge">
<title>Node3&#45;&gt;Node4</title>
<path fill="none" stroke="#191970" d="M178.0687,-36.1367C186.4728,-37.5624 195.3239,-39.0639 203.7974,-40.5014"/>
<polygon fill="#191970" stroke="#191970" points="178.5393,-32.6666 168.0947,-34.4446 177.3684,-39.568 178.5393,-32.6666"/>
</g>
<!-- Node10 -->
<g id="node9" class="node">
<title>Node10</title>
<g id="a_node9"><a xlink:href="player_8h.html#ae5667617b46fe0f16724a0deb73f98e3" target="_top" xlink:title="Create a Player object. ">
<polygon fill="#ffffff" stroke="#000000" points="212.5,-.5 212.5,-19.5 283.5,-19.5 283.5,-.5 212.5,-.5"/>
<text text-anchor="middle" x="248" y="-7.5" font-family="Helvetica,sans-Serif" font-size="10.00" fill="#000000">createPlayer</text>
</a>
</g>
</g>
<!-- Node3&#45;&gt;Node10 -->
<g id="edge9" class="edge">
<title>Node3&#45;&gt;Node10</title>
<path fill="none" stroke="#191970" d="M178.1589,-21.848C189.4238,-19.937 201.4858,-17.8908 212.3617,-16.0458"/>
<polygon fill="#191970" stroke="#191970" points="177.3684,-18.432 168.0947,-23.5554 178.5393,-25.3334 177.3684,-18.432"/>
</g>
<!-- Node5 -->
<g id="node4" class="node">
<title>Node5</title>
<g id="a_node4"><a xlink:href="game_8h.html#aff1f849979a9ca10d6ff2bce0dfb7fd5" target="_top" xlink:title="Single Player Iniciates the boards from the respective players Starts the game loop (1 turn per playe...">
<polygon fill="#ffffff" stroke="#000000" points="329.5,-38.5 329.5,-57.5 385.5,-57.5 385.5,-38.5 329.5,-38.5"/>
<text text-anchor="middle" x="357.5" y="-45.5" font-family="Helvetica,sans-Serif" font-size="10.00" fill="#000000">game_sp</text>
</a>
</g>
</g>
<!-- Node4&#45;&gt;Node5 -->
<g id="edge3" class="edge">
<title>Node4&#45;&gt;Node5</title>
<path fill="none" stroke="#191970" d="M302.3605,-48C311.7574,-48 321.1696,-48 329.4898,-48"/>
<polygon fill="#191970" stroke="#191970" points="302.2222,-44.5001 292.2222,-48 302.2222,-51.5001 302.2222,-44.5001"/>
</g>
<!-- Node9 -->
<g id="node8" class="node">
<title>Node9</title>
<g id="a_node8"><a xlink:href="game_8h.html#a03f40ddf75045683b3f488d4839937ab" target="_top" xlink:title="Multiplayer. ">
<polygon fill="#ffffff" stroke="#000000" points="328,-.5 328,-19.5 387,-19.5 387,-.5 328,-.5"/>
<text text-anchor="middle" x="357.5" y="-7.5" font-family="Helvetica,sans-Serif" font-size="10.00" fill="#000000">game_mp</text>
</a>
</g>
</g>
<!-- Node4&#45;&gt;Node9 -->
<g id="edge7" class="edge">
<title>Node4&#45;&gt;Node9</title>
<path fill="none" stroke="#191970" d="M285.3792,-35.0282C299.9676,-29.9656 316.3917,-24.2659 329.8774,-19.5859"/>
<polygon fill="#191970" stroke="#191970" points="283.9313,-31.8259 275.6315,-38.411 286.2263,-38.439 283.9313,-31.8259"/>
</g>
<!-- Node6 -->
<g id="node5" class="node">
<title>Node6</title>
<g id="a_node5"><a xlink:href="menu_8h.html#a95c8dcba38d720d3e4bd6fcf9a8ee279" target="_top" xlink:title="selects a menu option ">
<polygon fill="#ffffff" stroke="#000000" points="423,-19.5 423,-38.5 514,-38.5 514,-19.5 423,-19.5"/>
<text text-anchor="middle" x="468.5" y="-26.5" font-family="Helvetica,sans-Serif" font-size="10.00" fill="#000000">select_menu_opt</text>
</a>
</g>
</g>
<!-- Node5&#45;&gt;Node6 -->
<g id="edge4" class="edge">
<title>Node5&#45;&gt;Node6</title>
<path fill="none" stroke="#191970" d="M395.4694,-41.5007C404.2612,-39.9958 413.707,-38.379 422.7914,-36.824"/>
<polygon fill="#191970" stroke="#191970" points="394.7761,-38.0684 385.51,-43.2055 395.9572,-44.9681 394.7761,-38.0684"/>
</g>
<!-- Node7 -->
<g id="node6" class="node">
<title>Node7</title>
<g id="a_node6"><a xlink:href="menu_8h.html#a6ed6ac9188a15c74b9d07d12b34397c0" target="_top" xlink:title="Subscribes interruptions of the necessary modules Calls main menu and game functions. ">
<polygon fill="#ffffff" stroke="#000000" points="550,-19.5 550,-38.5 642,-38.5 642,-19.5 550,-19.5"/>
<text text-anchor="middle" x="596" y="-26.5" font-family="Helvetica,sans-Serif" font-size="10.00" fill="#000000">game_main_cicle</text>
</a>
</g>
</g>
<!-- Node6&#45;&gt;Node7 -->
<g id="edge5" class="edge">
<title>Node6&#45;&gt;Node7</title>
<path fill="none" stroke="#191970" d="M524.3846,-29C532.8691,-29 541.5423,-29 549.7907,-29"/>
<polygon fill="#191970" stroke="#191970" points="524.1703,-25.5001 514.1703,-29 524.1703,-32.5001 524.1703,-25.5001"/>
</g>
<!-- Node8 -->
<g id="node7" class="node">
<title>Node8</title>
<g id="a_node7"><a xlink:href="proj_8c.html#a2a16f651eccbd248e1ad3b3b924b143b" target="_top" xlink:title="proj_main_loop">
<polygon fill="#ffffff" stroke="#000000" points="678,-19.5 678,-38.5 760,-38.5 760,-19.5 678,-19.5"/>
<text text-anchor="middle" x="719" y="-26.5" font-family="Helvetica,sans-Serif" font-size="10.00" fill="#000000">proj_main_loop</text>
</a>
</g>
</g>
<!-- Node7&#45;&gt;Node8 -->
<g id="edge6" class="edge">
<title>Node7&#45;&gt;Node8</title>
<path fill="none" stroke="#191970" d="M652.1908,-29C660.8339,-29 669.6179,-29 677.8531,-29"/>
<polygon fill="#191970" stroke="#191970" points="652.1506,-25.5001 642.1506,-29 652.1506,-32.5001 652.1506,-25.5001"/>
</g>
<!-- Node9&#45;&gt;Node6 -->
<g id="edge8" class="edge">
<title>Node9&#45;&gt;Node6</title>
<path fill="none" stroke="#191970" d="M397.3594,-16.8228C405.6038,-18.234 414.3495,-19.731 422.7839,-21.1747"/>
<polygon fill="#191970" stroke="#191970" points="397.6931,-13.3291 387.246,-15.0917 396.5121,-20.2287 397.6931,-13.3291"/>
</g>
<!-- Node10&#45;&gt;Node5 -->
<g id="edge10" class="edge">
<title>Node10&#45;&gt;Node5</title>
<path fill="none" stroke="#191970" d="M285.3792,-22.9718C299.9676,-28.0344 316.3917,-33.7341 329.8774,-38.4141"/>
<polygon fill="#191970" stroke="#191970" points="286.2263,-19.561 275.6315,-19.589 283.9313,-26.1741 286.2263,-19.561"/>
</g>
<!-- Node10&#45;&gt;Node9 -->
<g id="edge11" class="edge">
<title>Node10&#45;&gt;Node9</title>
<path fill="none" stroke="#191970" d="M293.5699,-10C305.1991,-10 317.397,-10 327.9838,-10"/>
<polygon fill="#191970" stroke="#191970" points="293.5515,-6.5001 283.5515,-10 293.5515,-13.5001 293.5515,-6.5001"/>
</g>
</g>
</svg>
