<?xml version="1.0" encoding="UTF-8" standalone="no"?>
<!DOCTYPE svg PUBLIC "-//W3C//DTD SVG 1.1//EN"
 "http://www.w3.org/Graphics/SVG/1.1/DTD/svg11.dtd">
<!-- Generated by graphviz version 2.40.1 (20161225.0304)
 -->
<!-- Title: winner_sp Pages: 1 -->
<!--zoomable 275 -->
<svg id="main" version="1.1" xmlns="http://www.w3.org/2000/svg" xmlns:xlink="http://www.w3.org/1999/xlink" xml:space="preserve" onload="init(evt)">
<style type="text/css"><![CDATA[
.edge:hover path { stroke: red; }
.edge:hover polygon { stroke: red; fill: red; }
]]></style>
<script type="text/javascript"><![CDATA[
var edges = document.getElementsByTagName('g');
if (edges && edges.length) {
  for (var i=0;i<edges.length;i++) {
    if (edges[i].id.substr(0,4)=='edge') {
      edges[i].setAttribute('class','edge');
    }
  }
}
]]></script>
        <defs>
                <circle id="rim" cx="0" cy="0" r="7"/>
                <circle id="rim2" cx="0" cy="0" r="3.5"/>
                <g id="zoomPlus">
                        <use xlink:href="#rim" fill="#404040">
                                <set attributeName="fill" to="#808080" begin="zoomplus.mouseover" end="zoomplus.mouseout"/>
                        </use>
                        <path d="M-4,0h8M0,-4v8" fill="none" stroke="white" stroke-width="1.5" pointer-events="none"/>
                </g>
                <g id="zoomMin">
                        <use xlink:href="#rim" fill="#404040">
                                <set attributeName="fill" to="#808080" begin="zoomminus.mouseover" end="zoomminus.mouseout"/>
                        </use>
                        <path d="M-4,0h8" fill="none" stroke="white" stroke-width="1.5" pointer-events="none"/>
                </g>
                <g id="dirArrow">
                        <path fill="none" stroke="white" stroke-width="1.5" d="M0,-3.0v7 M-2.5,-0.5L0,-3.0L2.5,-0.5"/>
                </g>
               <g id="resetDef">
                       <use xlink:href="#rim2" fill="#404040">
                               <set attributeName="fill" to="#808080" begin="reset.mouseover" end="reset.mouseout"/>
                       </use>
               </g>
        </defs>

<script type="text/javascript">
var viewWidth = 588;
var viewHeight = 275;
var sectionId = 'dynsection-14';
</script>
<script xlink:href="svgpan.js"/>
<svg id="graph" class="graph">
<g id="viewport">
<title>winner_sp</title>
<polygon fill="#ffffff" stroke="transparent" points="-4,4 -4,-271 584,-271 584,4 -4,4"/>
<!-- Node244 -->
<g id="node1" class="node">
<title>Node244</title>
<polygon fill="#bfbfbf" stroke="#000000" points="0,-171.5 0,-190.5 61,-190.5 61,-171.5 0,-171.5"/>
<text text-anchor="middle" x="30.5" y="-178.5" font-family="Helvetica,sans-Serif" font-size="10.00" fill="#000000">winner_sp</text>
</g>
<!-- Node245 -->
<g id="node2" class="node">
<title>Node245</title>
<g id="a_node2"><a xlink:href="graphic_8c.html#a461a83bf6ebfd3b6dc95ca3962858d3d" target="_top" xlink:title="Copies the xmp into the video mem. ">
<polygon fill="#ffffff" stroke="#000000" points="109,-209.5 109,-228.5 171,-228.5 171,-209.5 109,-209.5"/>
<text text-anchor="middle" x="140" y="-216.5" font-family="Helvetica,sans-Serif" font-size="10.00" fill="#000000">draw_xpm</text>
</a>
</g>
</g>
<!-- Node244&#45;&gt;Node245 -->
<g id="edge1" class="edge">
<title>Node244&#45;&gt;Node245</title>
<path fill="none" stroke="#191970" d="M58.1315,-190.589C71.6185,-195.2694 88.0427,-200.9692 102.6303,-206.0315"/>
<polygon fill="#191970" stroke="#191970" points="101.7826,-209.442 112.3774,-209.4141 104.0776,-202.8289 101.7826,-209.442"/>
</g>
<!-- Node248 -->
<g id="node5" class="node">
<title>Node248</title>
<g id="a_node5"><a xlink:href="graphic_8c.html#a541e181cdbfecf6110d4d4c3ee087c30" target="_top" xlink:title="get_video_mem">
<polygon fill="#ffffff" stroke="#000000" points="97,-171.5 97,-190.5 183,-190.5 183,-171.5 97,-171.5"/>
<text text-anchor="middle" x="140" y="-178.5" font-family="Helvetica,sans-Serif" font-size="10.00" fill="#000000">get_video_mem</text>
</a>
</g>
</g>
<!-- Node244&#45;&gt;Node248 -->
<g id="edge5" class="edge">
<title>Node244&#45;&gt;Node248</title>
<path fill="none" stroke="#191970" d="M61.0019,-181C69.007,-181 77.8788,-181 86.7003,-181"/>
<polygon fill="#191970" stroke="#191970" points="86.9781,-184.5001 96.9781,-181 86.978,-177.5001 86.9781,-184.5001"/>
</g>
<!-- Node249 -->
<g id="node6" class="node">
<title>Node249</title>
<g id="a_node6"><a xlink:href="game_8c.html#abdd70639378b19cfc929273ef7b4ff45" target="_top" xlink:title="Uses timer interruptions to wait a predetermined time. ">
<polygon fill="#ffffff" stroke="#000000" points="112,-133.5 112,-152.5 168,-152.5 168,-133.5 112,-133.5"/>
<text text-anchor="middle" x="140" y="-140.5" font-family="Helvetica,sans-Serif" font-size="10.00" fill="#000000">idle_time</text>
</a>
</g>
</g>
<!-- Node244&#45;&gt;Node249 -->
<g id="edge6" class="edge">
<title>Node244&#45;&gt;Node249</title>
<path fill="none" stroke="#191970" d="M58.1315,-171.411C71.6185,-166.7306 88.0427,-161.0308 102.6303,-155.9685"/>
<polygon fill="#191970" stroke="#191970" points="104.0776,-159.1711 112.3774,-152.5859 101.7826,-152.558 104.0776,-159.1711"/>
</g>
<!-- Node246 -->
<g id="node3" class="node">
<title>Node246</title>
<g id="a_node3"><a xlink:href="graphic_8c.html#a89e5e15fb2c065221f58c6d883da6049" target="_top" xlink:title="get_bytes_per_pixel">
<polygon fill="#ffffff" stroke="#000000" points="356,-247.5 356,-266.5 460,-266.5 460,-247.5 356,-247.5"/>
<text text-anchor="middle" x="408" y="-254.5" font-family="Helvetica,sans-Serif" font-size="10.00" fill="#000000">get_bytes_per_pixel</text>
</a>
</g>
</g>
<!-- Node245&#45;&gt;Node246 -->
<g id="edge2" class="edge">
<title>Node245&#45;&gt;Node246</title>
<path fill="none" stroke="#191970" d="M171.3203,-227.5688C185.7454,-231.2473 203.1454,-235.3093 219,-238 260.9037,-245.1115 308.5187,-249.8782 345.4734,-252.8586"/>
<polygon fill="#191970" stroke="#191970" points="345.3572,-256.3601 355.6002,-253.6523 345.9043,-249.3815 345.3572,-256.3601"/>
</g>
<!-- Node247 -->
<g id="node4" class="node">
<title>Node247</title>
<g id="a_node4"><a xlink:href="graphic_8c.html#a90228825151958bdc7dfaffdbbd88494" target="_top" xlink:title="Calculates the color and sets the pixel in the video mem. ">
<polygon fill="#ffffff" stroke="#000000" points="235,-209.5 235,-228.5 298,-228.5 298,-209.5 235,-209.5"/>
<text text-anchor="middle" x="266.5" y="-216.5" font-family="Helvetica,sans-Serif" font-size="10.00" fill="#000000">draw_pixel</text>
</a>
</g>
</g>
<!-- Node245&#45;&gt;Node247 -->
<g id="edge3" class="edge">
<title>Node245&#45;&gt;Node247</title>
<path fill="none" stroke="#191970" d="M171.2697,-219C187.2653,-219 206.964,-219 224.2868,-219"/>
<polygon fill="#191970" stroke="#191970" points="224.7114,-222.5001 234.7114,-219 224.7114,-215.5001 224.7114,-222.5001"/>
</g>
<!-- Node247&#45;&gt;Node246 -->
<g id="edge4" class="edge">
<title>Node247&#45;&gt;Node246</title>
<path fill="none" stroke="#191970" d="M298.2554,-227.5279C317.3181,-232.6473 341.8733,-239.2416 362.9216,-244.8941"/>
<polygon fill="#191970" stroke="#191970" points="362.0567,-248.2858 372.6223,-247.4993 363.8723,-241.5253 362.0567,-248.2858"/>
</g>
<!-- Node250 -->
<g id="node7" class="node">
<title>Node250</title>
<g id="a_node7"><a xlink:href="interrupt__cicle_8c.html#ae96d62d9643ecb59a9a8a7828dfc1860" target="_top" xlink:title="get_int_data">
<polygon fill="#ffffff" stroke="#000000" points="231.5,-171.5 231.5,-190.5 301.5,-190.5 301.5,-171.5 231.5,-171.5"/>
<text text-anchor="middle" x="266.5" y="-178.5" font-family="Helvetica,sans-Serif" font-size="10.00" fill="#000000">get_int_data</text>
</a>
</g>
</g>
<!-- Node249&#45;&gt;Node250 -->
<g id="edge7" class="edge">
<title>Node249&#45;&gt;Node250</title>
<path fill="none" stroke="#191970" d="M168.0745,-151.4334C184.7334,-156.4377 206.1659,-162.8759 224.7757,-168.4662"/>
<polygon fill="#191970" stroke="#191970" points="223.9077,-171.8599 234.4919,-171.3849 225.9216,-165.1559 223.9077,-171.8599"/>
</g>
<!-- Node251 -->
<g id="node8" class="node">
<title>Node251</title>
<g id="a_node8"><a xlink:href="interrupt__cicle_8c.html#a0718d5c75848a080a2122df6548d2422" target="_top" xlink:title="Receives and handles interruptions from the necessary modules. ">
<polygon fill="#ffffff" stroke="#000000" points="228,-133.5 228,-152.5 305,-152.5 305,-133.5 228,-133.5"/>
<text text-anchor="middle" x="266.5" y="-140.5" font-family="Helvetica,sans-Serif" font-size="10.00" fill="#000000">interrupt_cicle</text>
</a>
</g>
</g>
<!-- Node249&#45;&gt;Node251 -->
<g id="edge8" class="edge">
<title>Node249&#45;&gt;Node251</title>
<path fill="none" stroke="#191970" d="M168.0745,-143C182.6618,-143 200.9093,-143 217.7167,-143"/>
<polygon fill="#191970" stroke="#191970" points="217.95,-146.5001 227.9499,-143 217.9499,-139.5001 217.95,-146.5001"/>
</g>
<!-- Node261 -->
<g id="node18" class="node">
<title>Node261</title>
<g id="a_node18"><a xlink:href="timer_8c.html#a97436b6607dec81590187f4729fea5dd" target="_top" xlink:title="get_timer_counter">
<polygon fill="#ffffff" stroke="#000000" points="219,-95.5 219,-114.5 314,-114.5 314,-95.5 219,-95.5"/>
<text text-anchor="middle" x="266.5" y="-102.5" font-family="Helvetica,sans-Serif" font-size="10.00" fill="#000000">get_timer_counter</text>
</a>
</g>
</g>
<!-- Node249&#45;&gt;Node261 -->
<g id="edge19" class="edge">
<title>Node249&#45;&gt;Node261</title>
<path fill="none" stroke="#191970" d="M168.0745,-134.5666C184.7334,-129.5623 206.1659,-123.1241 224.7757,-117.5338"/>
<polygon fill="#191970" stroke="#191970" points="225.9216,-120.8441 234.4919,-114.6151 223.9077,-114.1401 225.9216,-120.8441"/>
</g>
<!-- Node252 -->
<g id="node9" class="node">
<title>Node252</title>
<g id="a_node9"><a xlink:href="mouse_8c.html#a210374b50462acdedab00df64d5cea3c" target="_top" xlink:title="Mouse IH. ">
<polygon fill="#ffffff" stroke="#000000" points="378.5,-209.5 378.5,-228.5 437.5,-228.5 437.5,-209.5 378.5,-209.5"/>
<text text-anchor="middle" x="408" y="-216.5" font-family="Helvetica,sans-Serif" font-size="10.00" fill="#000000">mouse_ih</text>
</a>
</g>
</g>
<!-- Node251&#45;&gt;Node252 -->
<g id="edge9" class="edge">
<title>Node251&#45;&gt;Node252</title>
<path fill="none" stroke="#191970" d="M296.1426,-152.557C302.2994,-155.163 308.5624,-158.3081 314,-162 333.2473,-175.0681 330.3448,-187.5538 350,-200 355.7741,-203.6563 362.3205,-206.6763 368.8834,-209.1486"/>
<polygon fill="#191970" stroke="#191970" points="367.8283,-212.4865 378.4227,-212.389 370.0799,-205.8585 367.8283,-212.4865"/>
</g>
<!-- Node254 -->
<g id="node11" class="node">
<title>Node254</title>
<g id="a_node11"><a xlink:href="mouse_8c.html#a4f0a0dc9001ebefef3a416dd9b882b97" target="_top" xlink:title="Initiates the mouse packet member. ">
<polygon fill="#ffffff" stroke="#000000" points="376,-171.5 376,-190.5 440,-190.5 440,-171.5 376,-171.5"/>
<text text-anchor="middle" x="408" y="-178.5" font-family="Helvetica,sans-Serif" font-size="10.00" fill="#000000">init_packet</text>
</a>
</g>
</g>
<!-- Node251&#45;&gt;Node254 -->
<g id="edge11" class="edge">
<title>Node251&#45;&gt;Node254</title>
<path fill="none" stroke="#191970" d="M302.2064,-152.589C321.5371,-157.7803 345.5371,-164.2255 365.7891,-169.6642"/>
<polygon fill="#191970" stroke="#191970" points="365.1267,-173.1103 375.6923,-172.3237 366.9422,-166.3498 365.1267,-173.1103"/>
</g>
<!-- Node255 -->
<g id="node12" class="node">
<title>Node255</title>
<g id="a_node12"><a xlink:href="mouse_8c.html#a2ce59763196c5a8a030a47599b6a160e" target="_top" xlink:title="Get the cnt bytes. ">
<polygon fill="#ffffff" stroke="#000000" points="369,-133.5 369,-152.5 447,-152.5 447,-133.5 369,-133.5"/>
<text text-anchor="middle" x="408" y="-140.5" font-family="Helvetica,sans-Serif" font-size="10.00" fill="#000000">get_cnt_bytes</text>
</a>
</g>
</g>
<!-- Node251&#45;&gt;Node255 -->
<g id="edge12" class="edge">
<title>Node251&#45;&gt;Node255</title>
<path fill="none" stroke="#191970" d="M305.1655,-143C321.7189,-143 341.2452,-143 358.811,-143"/>
<polygon fill="#191970" stroke="#191970" points="358.8896,-146.5001 368.8896,-143 358.8896,-139.5001 358.8896,-146.5001"/>
</g>
<!-- Node256 -->
<g id="node13" class="node">
<title>Node256</title>
<g id="a_node13"><a xlink:href="kbd_8c.html#aea970a154161a35f6894898a092ed70a" target="_top" xlink:title="Keyboard IH. ">
<polygon fill="#ffffff" stroke="#000000" points="385.5,-95.5 385.5,-114.5 430.5,-114.5 430.5,-95.5 385.5,-95.5"/>
<text text-anchor="middle" x="408" y="-102.5" font-family="Helvetica,sans-Serif" font-size="10.00" fill="#000000">kbc_ih</text>
</a>
</g>
</g>
<!-- Node251&#45;&gt;Node256 -->
<g id="edge13" class="edge">
<title>Node251&#45;&gt;Node256</title>
<path fill="none" stroke="#191970" d="M302.2064,-133.411C324.6821,-127.3751 353.4701,-119.6441 375.34,-113.7709"/>
<polygon fill="#191970" stroke="#191970" points="376.4075,-117.1083 385.1575,-111.1344 374.5919,-110.3478 376.4075,-117.1083"/>
</g>
<!-- Node257 -->
<g id="node14" class="node">
<title>Node257</title>
<g id="a_node14"><a xlink:href="timer_8c.html#ac7c3715c83c45c6411f9f3f9f6cf8c7f" target="_top" xlink:title="Timer IH. ">
<polygon fill="#ffffff" stroke="#000000" points="350,-57.5 350,-76.5 466,-76.5 466,-57.5 350,-57.5"/>
<text text-anchor="middle" x="408" y="-64.5" font-family="Helvetica,sans-Serif" font-size="10.00" fill="#000000">timer_interrupt_handler</text>
</a>
</g>
</g>
<!-- Node251&#45;&gt;Node257 -->
<g id="edge14" class="edge">
<title>Node251&#45;&gt;Node257</title>
<path fill="none" stroke="#191970" d="M296.1426,-133.443C302.2994,-130.837 308.5624,-127.6919 314,-124 333.2473,-110.9319 330.3448,-98.4462 350,-86 353.1864,-83.9823 356.608,-82.1584 360.1377,-80.5133"/>
<polygon fill="#191970" stroke="#191970" points="361.7524,-83.6327 369.6466,-76.5664 359.0688,-77.1675 361.7524,-83.6327"/>
</g>
<!-- Node258 -->
<g id="node15" class="node">
<title>Node258</title>
<g id="a_node15"><a xlink:href="interrupt__cicle_8c.html#a3cd9db2b8c583d8e97d9865c1a4802a9" target="_top" xlink:title="Initializes the interrupt_data struct tot be used in other files. ">
<polygon fill="#ffffff" stroke="#000000" points="373.5,-19.5 373.5,-38.5 442.5,-38.5 442.5,-19.5 373.5,-19.5"/>
<text text-anchor="middle" x="408" y="-26.5" font-family="Helvetica,sans-Serif" font-size="10.00" fill="#000000">init_int_data</text>
</a>
</g>
</g>
<!-- Node251&#45;&gt;Node258 -->
<g id="edge15" class="edge">
<title>Node251&#45;&gt;Node258</title>
<path fill="none" stroke="#191970" d="M300.0785,-133.3013C305.1326,-130.8307 309.9876,-127.7715 314,-124 341.2333,-98.4015 321.9624,-72.715 350,-48 354.1234,-44.3653 358.9572,-41.4235 364.0443,-39.0429"/>
<polygon fill="#191970" stroke="#191970" points="365.3745,-42.2806 373.3758,-35.3358 362.79,-35.7752 365.3745,-42.2806"/>
</g>
<!-- Node253 -->
<g id="node10" class="node">
<title>Node253</title>
<g id="a_node10"><a xlink:href="mouse_8c.html#a4a11876c724ae443363cf5971f1558e7" target="_top" xlink:title="Empties a mouse packet. ">
<polygon fill="#ffffff" stroke="#000000" points="502,-142.5 502,-161.5 580,-161.5 580,-142.5 502,-142.5"/>
<text text-anchor="middle" x="541" y="-149.5" font-family="Helvetica,sans-Serif" font-size="10.00" fill="#000000">empty_packet</text>
</a>
</g>
</g>
<!-- Node252&#45;&gt;Node253 -->
<g id="edge10" class="edge">
<title>Node252&#45;&gt;Node253</title>
<path fill="none" stroke="#191970" d="M437.7696,-210.8374C447.0078,-207.8859 457.0967,-204.2235 466,-200 485.2007,-190.8916 505.407,-177.7243 520.0022,-167.4838"/>
<polygon fill="#191970" stroke="#191970" points="522.2058,-170.211 528.3056,-161.5482 518.135,-164.5163 522.2058,-170.211"/>
</g>
<!-- Node258&#45;&gt;Node253 -->
<g id="edge17" class="edge">
<title>Node258&#45;&gt;Node253</title>
<path fill="none" stroke="#191970" d="M442.5417,-36.396C450.7208,-39.1725 459.0715,-42.9346 466,-48 496.9948,-70.6601 520.269,-109.9941 532.1567,-133.2485"/>
<polygon fill="#191970" stroke="#191970" points="529.1124,-134.9888 536.6743,-142.4097 535.3906,-131.8929 529.1124,-134.9888"/>
</g>
<!-- Node259 -->
<g id="node16" class="node">
<title>Node259</title>
<g id="a_node16"><a xlink:href="mouse_8c.html#a56a5da7f70edb0bb5db9910981ef65f9" target="_top" xlink:title="Get packet struct. ">
<polygon fill="#ffffff" stroke="#000000" points="508.5,-38.5 508.5,-57.5 573.5,-57.5 573.5,-38.5 508.5,-38.5"/>
<text text-anchor="middle" x="541" y="-45.5" font-family="Helvetica,sans-Serif" font-size="10.00" fill="#000000">get_packet</text>
</a>
</g>
</g>
<!-- Node258&#45;&gt;Node259 -->
<g id="edge16" class="edge">
<title>Node258&#45;&gt;Node259</title>
<path fill="none" stroke="#191970" d="M442.597,-33.9424C459.6621,-36.3803 480.4006,-39.3429 498.4308,-41.9187"/>
<polygon fill="#191970" stroke="#191970" points="498.0115,-45.3942 508.406,-43.3437 499.0015,-38.4646 498.0115,-45.3942"/>
</g>
<!-- Node260 -->
<g id="node17" class="node">
<title>Node260</title>
<g id="a_node17"><a xlink:href="kbd_8c.html#aabe32d3d3ebb9ccff7ca4b7992f48209" target="_top" xlink:title="Get the scancode. ">
<polygon fill="#ffffff" stroke="#000000" points="502.5,-.5 502.5,-19.5 579.5,-19.5 579.5,-.5 502.5,-.5"/>
<text text-anchor="middle" x="541" y="-7.5" font-family="Helvetica,sans-Serif" font-size="10.00" fill="#000000">get_scancode</text>
</a>
</g>
</g>
<!-- Node258&#45;&gt;Node260 -->
<g id="edge18" class="edge">
<title>Node258&#45;&gt;Node260</title>
<path fill="none" stroke="#191970" d="M442.597,-24.0576C457.7668,-21.8905 475.8393,-19.3087 492.3318,-16.9526"/>
<polygon fill="#191970" stroke="#191970" points="492.9519,-20.3996 502.3564,-15.5205 491.9619,-13.47 492.9519,-20.3996"/>
</g>
</g>
</svg>
        <g id="navigator" transform="translate(0 0)" fill="#404254">
                <rect fill="#f2f5e9" fill-opacity="0.5" stroke="#606060" stroke-width=".5" x="0" y="0" width="60" height="60"/>
                <use id="zoomplus" xlink:href="#zoomPlus" x="17" y="9" onmousedown="handleZoom(evt,'in')"/>
                <use id="zoomminus" xlink:href="#zoomMin" x="42" y="9" onmousedown="handleZoom(evt,'out')"/>
                <use id="reset" xlink:href="#resetDef" x="30" y="36" onmousedown="handleReset()"/>
                <g id="arrowUp" xlink:href="#dirArrow" transform="translate(30 24)" onmousedown="handlePan(0,-1)">
                  <use xlink:href="#rim" fill="#404040">
                        <set attributeName="fill" to="#808080" begin="arrowUp.mouseover" end="arrowUp.mouseout"/>
                  </use>
                  <path fill="none" stroke="white" stroke-width="1.5" d="M0,-3.0v7 M-2.5,-0.5L0,-3.0L2.5,-0.5"/>
                </g>
                <g id="arrowRight" xlink:href="#dirArrow" transform="rotate(90) translate(36 -43)" onmousedown="handlePan(1,0)">
                  <use xlink:href="#rim" fill="#404040">
                        <set attributeName="fill" to="#808080" begin="arrowRight.mouseover" end="arrowRight.mouseout"/>
                  </use>
                  <path fill="none" stroke="white" stroke-width="1.5" d="M0,-3.0v7 M-2.5,-0.5L0,-3.0L2.5,-0.5"/>
                </g>
                <g id="arrowDown" xlink:href="#dirArrow" transform="rotate(180) translate(-30 -48)" onmousedown="handlePan(0,1)">
                  <use xlink:href="#rim" fill="#404040">
                        <set attributeName="fill" to="#808080" begin="arrowDown.mouseover" end="arrowDown.mouseout"/>
                  </use>
                  <path fill="none" stroke="white" stroke-width="1.5" d="M0,-3.0v7 M-2.5,-0.5L0,-3.0L2.5,-0.5"/>
                </g>
                <g id="arrowLeft" xlink:href="#dirArrow" transform="rotate(270) translate(-36 17)" onmousedown="handlePan(-1,0)">
                  <use xlink:href="#rim" fill="#404040">
                        <set attributeName="fill" to="#808080" begin="arrowLeft.mouseover" end="arrowLeft.mouseout"/>
                  </use>
                  <path fill="none" stroke="white" stroke-width="1.5" d="M0,-3.0v7 M-2.5,-0.5L0,-3.0L2.5,-0.5"/>
                </g>
        </g>
        <svg viewBox="0 0 15 15" width="100%" height="30px" preserveAspectRatio="xMaxYMin meet">
         <g id="arrow_out" transform="scale(0.3 0.3)">
          <a xlink:href="game_8h_a0ecf3df63f0053cd3177ad9dd3716b54_cgraph_org.svg" target="_base">
           <rect id="button" ry="5" rx="5" y="6" x="6" height="38" width="38"
                fill="#f2f5e9" fill-opacity="0.5" stroke="#606060" stroke-width="1.0"/>
           <path id="arrow"
             d="M 11.500037,31.436501 C 11.940474,20.09759 22.043105,11.32322 32.158766,21.979434 L 37.068811,17.246167 C 37.068811,17.246167 37.088388,32 37.088388,32 L 22.160133,31.978069 C 22.160133,31.978069 26.997745,27.140456 26.997745,27.140456 C 18.528582,18.264221 13.291696,25.230495 11.500037,31.436501 z"
             style="fill:#404040;"/>
          </a>
         </g>
        </svg>
</svg>
