<?xml version="1.0" encoding="UTF-8" standalone="no"?>
<!DOCTYPE svg PUBLIC "-//W3C//DTD SVG 1.1//EN"
 "http://www.w3.org/Graphics/SVG/1.1/DTD/svg11.dtd">
<!-- Generated by graphviz version 2.40.1 (20161225.0304)
 -->
<!-- Title: game_over_sp Pages: 1 -->
<svg width="672pt" height="28pt"
 viewBox="0.00 0.00 672.00 28.00" xmlns="http://www.w3.org/2000/svg" xmlns:xlink="http://www.w3.org/1999/xlink">
<g id="graph0" class="graph" transform="scale(1 1) rotate(0) translate(4 24)">
<title>game_over_sp</title>
<polygon fill="#ffffff" stroke="transparent" points="-4,4 -4,-24 668,-24 668,4 -4,4"/>
<!-- Node101 -->
<g id="node1" class="node">
<title>Node101</title>
<polygon fill="#bfbfbf" stroke="#000000" points="0,-.5 0,-19.5 80,-19.5 80,-.5 0,-.5"/>
<text text-anchor="middle" x="40" y="-7.5" font-family="Helvetica,sans-Serif" font-size="10.00" fill="#000000">game_over_sp</text>
</g>
<!-- Node102 -->
<g id="node2" class="node">
<title>Node102</title>
<g id="a_node2"><a xlink:href="game_8h.html#afb1a61b5802eed643536ce45225d2000" target="_top" xlink:title="Randomly fires upon player&#39;s boats using a state machine to simulate a strategy In case of a hit the ...">
<polygon fill="#ffffff" stroke="#000000" points="116,-.5 116,-19.5 199,-19.5 199,-.5 116,-.5"/>
<text text-anchor="middle" x="157.5" y="-7.5" font-family="Helvetica,sans-Serif" font-size="10.00" fill="#000000">game_round_ai</text>
</a>
</g>
</g>
<!-- Node101&#45;&gt;Node102 -->
<g id="edge1" class="edge">
<title>Node101&#45;&gt;Node102</title>
<path fill="none" stroke="#191970" d="M90.3595,-10C98.9028,-10 107.6879,-10 115.9719,-10"/>
<polygon fill="#191970" stroke="#191970" points="90.1082,-6.5001 80.1082,-10 90.1082,-13.5001 90.1082,-6.5001"/>
</g>
<!-- Node103 -->
<g id="node3" class="node">
<title>Node103</title>
<g id="a_node3"><a xlink:href="game_8h.html#aff1f849979a9ca10d6ff2bce0dfb7fd5" target="_top" xlink:title="Single Player Iniciates the boards from the respective players Starts the game loop (1 turn per playe...">
<polygon fill="#ffffff" stroke="#000000" points="235,-.5 235,-19.5 291,-19.5 291,-.5 235,-.5"/>
<text text-anchor="middle" x="263" y="-7.5" font-family="Helvetica,sans-Serif" font-size="10.00" fill="#000000">game_sp</text>
</a>
</g>
</g>
<!-- Node102&#45;&gt;Node103 -->
<g id="edge2" class="edge">
<title>Node102&#45;&gt;Node103</title>
<path fill="none" stroke="#191970" d="M209.4351,-10C218.2184,-10 227.0319,-10 234.9011,-10"/>
<polygon fill="#191970" stroke="#191970" points="209.1964,-6.5001 199.1964,-10 209.1964,-13.5001 209.1964,-6.5001"/>
</g>
<!-- Node104 -->
<g id="node4" class="node">
<title>Node104</title>
<g id="a_node4"><a xlink:href="menu_8h.html#a95c8dcba38d720d3e4bd6fcf9a8ee279" target="_top" xlink:title="selects a menu option ">
<polygon fill="#ffffff" stroke="#000000" points="327,-.5 327,-19.5 418,-19.5 418,-.5 327,-.5"/>
<text text-anchor="middle" x="372.5" y="-7.5" font-family="Helvetica,sans-Serif" font-size="10.00" fill="#000000">select_menu_opt</text>
</a>
</g>
</g>
<!-- Node103&#45;&gt;Node104 -->
<g id="edge3" class="edge">
<title>Node103&#45;&gt;Node104</title>
<path fill="none" stroke="#191970" d="M301.3311,-10C309.6145,-10 318.4504,-10 326.9788,-10"/>
<polygon fill="#191970" stroke="#191970" points="301.199,-6.5001 291.199,-10 301.1989,-13.5001 301.199,-6.5001"/>
</g>
<!-- Node105 -->
<g id="node5" class="node">
<title>Node105</title>
<g id="a_node5"><a xlink:href="menu_8h.html#a6ed6ac9188a15c74b9d07d12b34397c0" target="_top" xlink:title="Subscribes interruptions of the necessary modules Calls main menu and game functions. ">
<polygon fill="#ffffff" stroke="#000000" points="454,-.5 454,-19.5 546,-19.5 546,-.5 454,-.5"/>
<text text-anchor="middle" x="500" y="-7.5" font-family="Helvetica,sans-Serif" font-size="10.00" fill="#000000">game_main_cicle</text>
</a>
</g>
</g>
<!-- Node104&#45;&gt;Node105 -->
<g id="edge4" class="edge">
<title>Node104&#45;&gt;Node105</title>
<path fill="none" stroke="#191970" d="M428.3846,-10C436.8691,-10 445.5423,-10 453.7907,-10"/>
<polygon fill="#191970" stroke="#191970" points="428.1703,-6.5001 418.1703,-10 428.1703,-13.5001 428.1703,-6.5001"/>
</g>
<!-- Node106 -->
<g id="node6" class="node">
<title>Node106</title>
<g id="a_node6"><a xlink:href="proj_8c.html#a2a16f651eccbd248e1ad3b3b924b143b" target="_top" xlink:title="proj_main_loop">
<polygon fill="#ffffff" stroke="#000000" points="582,-.5 582,-19.5 664,-19.5 664,-.5 582,-.5"/>
<text text-anchor="middle" x="623" y="-7.5" font-family="Helvetica,sans-Serif" font-size="10.00" fill="#000000">proj_main_loop</text>
</a>
</g>
</g>
<!-- Node105&#45;&gt;Node106 -->
<g id="edge5" class="edge">
<title>Node105&#45;&gt;Node106</title>
<path fill="none" stroke="#191970" d="M556.1908,-10C564.8339,-10 573.6179,-10 581.8531,-10"/>
<polygon fill="#191970" stroke="#191970" points="556.1506,-6.5001 546.1506,-10 556.1506,-13.5001 556.1506,-6.5001"/>
</g>
</g>
</svg>
