<?xml version="1.0" encoding="UTF-8" standalone="no"?>
<!DOCTYPE svg PUBLIC "-//W3C//DTD SVG 1.1//EN"
 "http://www.w3.org/Graphics/SVG/1.1/DTD/svg11.dtd">
<!-- Generated by graphviz version 2.40.1 (20161225.0304)
 -->
<!-- Title: game_round_ai Pages: 1 -->
<!--zoomable 345 -->
<svg id="main" version="1.1" xmlns="http://www.w3.org/2000/svg" xmlns:xlink="http://www.w3.org/1999/xlink" xml:space="preserve" onload="init(evt)">
<style type="text/css"><![CDATA[
.edge:hover path { stroke: red; }
.edge:hover polygon { stroke: red; fill: red; }
]]></style>
<script type="text/javascript"><![CDATA[
var edges = document.getElementsByTagName('g');
if (edges && edges.length) {
  for (var i=0;i<edges.length;i++) {
    if (edges[i].id.substr(0,4)=='edge') {
      edges[i].setAttribute('class','edge');
    }
  }
}
]]></script>
        <defs>
                <circle id="rim" cx="0" cy="0" r="7"/>
                <circle id="rim2" cx="0" cy="0" r="3.5"/>
                <g id="zoomPlus">
                        <use xlink:href="#rim" fill="#404040">
                                <set attributeName="fill" to="#808080" begin="zoomplus.mouseover" end="zoomplus.mouseout"/>
                        </use>
                        <path d="M-4,0h8M0,-4v8" fill="none" stroke="white" stroke-width="1.5" pointer-events="none"/>
                </g>
                <g id="zoomMin">
                        <use xlink:href="#rim" fill="#404040">
                                <set attributeName="fill" to="#808080" begin="zoomminus.mouseover" end="zoomminus.mouseout"/>
                        </use>
                        <path d="M-4,0h8" fill="none" stroke="white" stroke-width="1.5" pointer-events="none"/>
                </g>
                <g id="dirArrow">
                        <path fill="none" stroke="white" stroke-width="1.5" d="M0,-3.0v7 M-2.5,-0.5L0,-3.0L2.5,-0.5"/>
                </g>
               <g id="resetDef">
                       <use xlink:href="#rim2" fill="#404040">
                               <set attributeName="fill" to="#808080" begin="reset.mouseover" end="reset.mouseout"/>
                       </use>
               </g>
        </defs>

<script type="text/javascript">
var viewWidth = 827;
var viewHeight = 345;
var sectionId = 'dynsection-6';
</script>
<script xlink:href="svgpan.js"/>
<svg id="graph" class="graph">
<g id="viewport">
<title>game_round_ai</title>
<polygon fill="#ffffff" stroke="transparent" points="-4,4 -4,-341.4749 823,-341.4749 823,4 -4,4"/>
<!-- Node107 -->
<g id="node1" class="node">
<title>Node107</title>
<polygon fill="#bfbfbf" stroke="#000000" points="0,-209.5 0,-228.5 83,-228.5 83,-209.5 0,-209.5"/>
<text text-anchor="middle" x="41.5" y="-216.5" font-family="Helvetica,sans-Serif" font-size="10.00" fill="#000000">game_round_ai</text>
</g>
<!-- Node108 -->
<g id="node2" class="node">
<title>Node108</title>
<g id="a_node2"><a xlink:href="board_8c.html#a97ebf6f6f65c53b49910187180bd5e67" target="_top" xlink:title="Converts the states of the matrix into objects and shows them. ">
<polygon fill="#ffffff" stroke="#000000" points="132.5,-247.5 132.5,-266.5 206.5,-266.5 206.5,-247.5 132.5,-247.5"/>
<text text-anchor="middle" x="169.5" y="-254.5" font-family="Helvetica,sans-Serif" font-size="10.00" fill="#000000">draw_objects</text>
</a>
</g>
</g>
<!-- Node107&#45;&gt;Node108 -->
<g id="edge1" class="edge">
<title>Node107&#45;&gt;Node108</title>
<path fill="none" stroke="#191970" d="M73.7998,-228.589C90.0202,-233.4044 109.8751,-239.2988 127.2869,-244.468"/>
<polygon fill="#191970" stroke="#191970" points="126.6279,-247.9233 137.2105,-247.4141 128.6202,-241.2127 126.6279,-247.9233"/>
</g>
<!-- Node110 -->
<g id="node4" class="node">
<title>Node110</title>
<g id="a_node4"><a xlink:href="graphic_8c.html#a461a83bf6ebfd3b6dc95ca3962858d3d" target="_top" xlink:title="Copies the xmp into the video mem. ">
<polygon fill="#ffffff" stroke="#000000" points="448.5,-266.5 448.5,-285.5 510.5,-285.5 510.5,-266.5 448.5,-266.5"/>
<text text-anchor="middle" x="479.5" y="-273.5" font-family="Helvetica,sans-Serif" font-size="10.00" fill="#000000">draw_xpm</text>
</a>
</g>
</g>
<!-- Node107&#45;&gt;Node110 -->
<g id="edge9" class="edge">
<title>Node107&#45;&gt;Node110</title>
<path fill="none" stroke="#191970" d="M45.769,-228.6362C55.3878,-248.9803 80.9283,-295.9252 119,-314 230.9769,-367.1619 384.0467,-316.0254 448.6914,-289.6126"/>
<polygon fill="#191970" stroke="#191970" points="450.4084,-292.6886 458.2875,-285.6055 447.711,-286.2292 450.4084,-292.6886"/>
</g>
<!-- Node113 -->
<g id="node7" class="node">
<title>Node113</title>
<g id="a_node7"><a xlink:href="board_8c.html#a381a21388b9cb70e9bfaf870ac1f7130" target="_top" xlink:title="Iterates over a boat array and shows the boats. ">
<polygon fill="#ffffff" stroke="#000000" points="136,-285.5 136,-304.5 203,-304.5 203,-285.5 136,-285.5"/>
<text text-anchor="middle" x="169.5" y="-292.5" font-family="Helvetica,sans-Serif" font-size="10.00" fill="#000000">draw_boats</text>
</a>
</g>
</g>
<!-- Node107&#45;&gt;Node113 -->
<g id="edge7" class="edge">
<title>Node107&#45;&gt;Node113</title>
<path fill="none" stroke="#191970" d="M52.3976,-228.5331C66.8317,-240.7907 93.4543,-262.1436 119,-276 122.7053,-278.0098 126.6684,-279.9002 130.6841,-281.6509"/>
<polygon fill="#191970" stroke="#191970" points="129.4719,-284.9364 140.0532,-285.4732 132.1162,-278.455 129.4719,-284.9364"/>
</g>
<!-- Node114 -->
<g id="node8" class="node">
<title>Node114</title>
<g id="a_node8"><a xlink:href="graphic_8c.html#a541e181cdbfecf6110d4d4c3ee087c30" target="_top" xlink:title="get_video_mem">
<polygon fill="#ffffff" stroke="#000000" points="283,-209.5 283,-228.5 369,-228.5 369,-209.5 283,-209.5"/>
<text text-anchor="middle" x="326" y="-216.5" font-family="Helvetica,sans-Serif" font-size="10.00" fill="#000000">get_video_mem</text>
</a>
</g>
</g>
<!-- Node107&#45;&gt;Node114 -->
<g id="edge10" class="edge">
<title>Node107&#45;&gt;Node114</title>
<path fill="none" stroke="#191970" d="M83.1734,-219C133.3421,-219 217.6822,-219 272.5846,-219"/>
<polygon fill="#191970" stroke="#191970" points="272.816,-222.5001 282.8159,-219 272.8159,-215.5001 272.816,-222.5001"/>
</g>
<!-- Node115 -->
<g id="node9" class="node">
<title>Node115</title>
<g id="a_node9"><a xlink:href="state__machine_8c.html#a003e7e4a061ada07023f893070d4bb2b" target="_top" xlink:title="State Machine used for simulating a game strategy Generates a random position and then fires on that ...">
<polygon fill="#ffffff" stroke="#000000" points="119,-95.5 119,-114.5 220,-114.5 220,-95.5 119,-95.5"/>
<text text-anchor="middle" x="169.5" y="-102.5" font-family="Helvetica,sans-Serif" font-size="10.00" fill="#000000">game_round_ai_sm</text>
</a>
</g>
</g>
<!-- Node107&#45;&gt;Node115 -->
<g id="edge11" class="edge">
<title>Node107&#45;&gt;Node115</title>
<path fill="none" stroke="#191970" d="M47.7079,-209.4403C59.669,-191.6325 87.5255,-153.015 119,-129 123.845,-125.3033 129.3508,-121.9763 134.9019,-119.06"/>
<polygon fill="#191970" stroke="#191970" points="136.717,-122.0693 144.1782,-114.5472 133.6547,-115.7747 136.717,-122.0693"/>
</g>
<!-- Node118 -->
<g id="node12" class="node">
<title>Node118</title>
<g id="a_node12"><a xlink:href="game_8c.html#a428e51196f5847d0e5e50822aa1c9716" target="_top" xlink:title="displays the end game screen (lost) ">
<polygon fill="#ffffff" stroke="#000000" points="129.5,-171.5 129.5,-190.5 209.5,-190.5 209.5,-171.5 129.5,-171.5"/>
<text text-anchor="middle" x="169.5" y="-178.5" font-family="Helvetica,sans-Serif" font-size="10.00" fill="#000000">game_over_sp</text>
</a>
</g>
</g>
<!-- Node107&#45;&gt;Node118 -->
<g id="edge14" class="edge">
<title>Node107&#45;&gt;Node118</title>
<path fill="none" stroke="#191970" d="M73.7998,-209.411C90.0202,-204.5956 109.8751,-198.7012 127.2869,-193.532"/>
<polygon fill="#191970" stroke="#191970" points="128.6202,-196.7873 137.2105,-190.5859 126.6279,-190.0767 128.6202,-196.7873"/>
</g>
<!-- Node119 -->
<g id="node13" class="node">
<title>Node119</title>
<g id="a_node13"><a xlink:href="game_8c.html#abdd70639378b19cfc929273ef7b4ff45" target="_top" xlink:title="Uses timer interruptions to wait a predetermined time. ">
<polygon fill="#ffffff" stroke="#000000" points="298,-133.5 298,-152.5 354,-152.5 354,-133.5 298,-133.5"/>
<text text-anchor="middle" x="326" y="-140.5" font-family="Helvetica,sans-Serif" font-size="10.00" fill="#000000">idle_time</text>
</a>
</g>
</g>
<!-- Node107&#45;&gt;Node119 -->
<g id="edge31" class="edge">
<title>Node107&#45;&gt;Node119</title>
<path fill="none" stroke="#191970" d="M50.959,-209.2886C64.5948,-195.9873 91.2058,-172.552 119,-162 174.8301,-140.8043 244.9733,-139.0714 287.5988,-140.4962"/>
<polygon fill="#191970" stroke="#191970" points="287.682,-144.0025 297.8174,-140.9166 287.9697,-137.0084 287.682,-144.0025"/>
</g>
<!-- Node109 -->
<g id="node3" class="node">
<title>Node109</title>
<g id="a_node3"><a xlink:href="sprite_8c.html#ab0c8b8caefb74f2cf7c79ffb254c4ac4" target="_top" xlink:title="Shows the sprite. ">
<polygon fill="#ffffff" stroke="#000000" points="292.5,-266.5 292.5,-285.5 359.5,-285.5 359.5,-266.5 292.5,-266.5"/>
<text text-anchor="middle" x="326" y="-273.5" font-family="Helvetica,sans-Serif" font-size="10.00" fill="#000000">draw_sprite</text>
</a>
</g>
</g>
<!-- Node108&#45;&gt;Node109 -->
<g id="edge2" class="edge">
<title>Node108&#45;&gt;Node109</title>
<path fill="none" stroke="#191970" d="M206.5883,-261.5027C229.2647,-264.2558 258.3882,-267.7915 282.1965,-270.682"/>
<polygon fill="#191970" stroke="#191970" points="282.0298,-274.1874 292.3788,-271.9182 282.8735,-267.2384 282.0298,-274.1874"/>
</g>
<!-- Node109&#45;&gt;Node110 -->
<g id="edge3" class="edge">
<title>Node109&#45;&gt;Node110</title>
<path fill="none" stroke="#191970" d="M359.6862,-276C382.7753,-276 413.5522,-276 438.1314,-276"/>
<polygon fill="#191970" stroke="#191970" points="438.2455,-279.5001 448.2455,-276 438.2454,-272.5001 438.2455,-279.5001"/>
</g>
<!-- Node111 -->
<g id="node5" class="node">
<title>Node111</title>
<g id="a_node5"><a xlink:href="graphic_8c.html#a89e5e15fb2c065221f58c6d883da6049" target="_top" xlink:title="get_bytes_per_pixel">
<polygon fill="#ffffff" stroke="#000000" points="715,-266.5 715,-285.5 819,-285.5 819,-266.5 715,-266.5"/>
<text text-anchor="middle" x="767" y="-273.5" font-family="Helvetica,sans-Serif" font-size="10.00" fill="#000000">get_bytes_per_pixel</text>
</a>
</g>
</g>
<!-- Node110&#45;&gt;Node111 -->
<g id="edge4" class="edge">
<title>Node110&#45;&gt;Node111</title>
<path fill="none" stroke="#191970" d="M510.5407,-276C556.7964,-276 644.777,-276 704.6519,-276"/>
<polygon fill="#191970" stroke="#191970" points="704.7478,-279.5001 714.7477,-276 704.7477,-272.5001 704.7478,-279.5001"/>
</g>
<!-- Node112 -->
<g id="node6" class="node">
<title>Node112</title>
<g id="a_node6"><a xlink:href="graphic_8c.html#a90228825151958bdc7dfaffdbbd88494" target="_top" xlink:title="Calculates the color and sets the pixel in the video mem. ">
<polygon fill="#ffffff" stroke="#000000" points="589.5,-247.5 589.5,-266.5 652.5,-266.5 652.5,-247.5 589.5,-247.5"/>
<text text-anchor="middle" x="621" y="-254.5" font-family="Helvetica,sans-Serif" font-size="10.00" fill="#000000">draw_pixel</text>
</a>
</g>
</g>
<!-- Node110&#45;&gt;Node112 -->
<g id="edge5" class="edge">
<title>Node110&#45;&gt;Node112</title>
<path fill="none" stroke="#191970" d="M510.5528,-271.8304C530.6388,-269.1333 557.0362,-265.5888 578.9873,-262.6413"/>
<polygon fill="#191970" stroke="#191970" points="579.594,-266.0913 589.0392,-261.2916 578.6624,-259.1536 579.594,-266.0913"/>
</g>
<!-- Node112&#45;&gt;Node111 -->
<g id="edge6" class="edge">
<title>Node112&#45;&gt;Node111</title>
<path fill="none" stroke="#191970" d="M652.6798,-261.1227C667.8938,-263.1026 686.678,-265.5471 704.5927,-267.8785"/>
<polygon fill="#191970" stroke="#191970" points="704.3478,-271.3761 714.7159,-269.1959 705.2512,-264.4346 704.3478,-271.3761"/>
</g>
<!-- Node113&#45;&gt;Node109 -->
<g id="edge8" class="edge">
<title>Node113&#45;&gt;Node109</title>
<path fill="none" stroke="#191970" d="M203.0732,-290.924C226.281,-288.1065 257.3738,-284.3316 282.4816,-281.2834"/>
<polygon fill="#191970" stroke="#191970" points="282.9771,-284.749 292.4823,-280.0692 282.1334,-277.8 282.9771,-284.749"/>
</g>
<!-- Node116 -->
<g id="node10" class="node">
<title>Node116</title>
<g id="a_node10"><a xlink:href="board_8c.html#a8067154f2f1e58f15220943de5571515" target="_top" xlink:title="Receives a position and acerts what cell type has been hit. ">
<polygon fill="#ffffff" stroke="#000000" points="256,-57.5 256,-76.5 396,-76.5 396,-57.5 256,-57.5"/>
<text text-anchor="middle" x="326" y="-64.5" font-family="Helvetica,sans-Serif" font-size="10.00" fill="#000000">check_matrix_collision_cord</text>
</a>
</g>
</g>
<!-- Node115&#45;&gt;Node116 -->
<g id="edge12" class="edge">
<title>Node115&#45;&gt;Node116</title>
<path fill="none" stroke="#191970" d="M208.9916,-95.411C229.6434,-90.3965 255.114,-84.2119 277.0125,-78.8947"/>
<polygon fill="#191970" stroke="#191970" points="277.9007,-82.2809 286.7924,-76.5201 276.2489,-75.4785 277.9007,-82.2809"/>
</g>
<!-- Node117 -->
<g id="node11" class="node">
<title>Node117</title>
<g id="a_node11"><a xlink:href="board_8c.html#afca9c6d37276959ed0f884f28060a992" target="_top" xlink:title="Sets the surrounding cells of a boat to &#45;7. ">
<polygon fill="#ffffff" stroke="#000000" points="275.5,-95.5 275.5,-114.5 376.5,-114.5 376.5,-95.5 275.5,-95.5"/>
<text text-anchor="middle" x="326" y="-102.5" font-family="Helvetica,sans-Serif" font-size="10.00" fill="#000000">set_protected_cells</text>
</a>
</g>
</g>
<!-- Node115&#45;&gt;Node117 -->
<g id="edge13" class="edge">
<title>Node115&#45;&gt;Node117</title>
<path fill="none" stroke="#191970" d="M220.3111,-105C234.6695,-105 250.4392,-105 265.3157,-105"/>
<polygon fill="#191970" stroke="#191970" points="265.4439,-108.5001 275.4439,-105 265.4438,-101.5001 265.4439,-108.5001"/>
</g>
<!-- Node118&#45;&gt;Node110 -->
<g id="edge15" class="edge">
<title>Node118&#45;&gt;Node110</title>
<path fill="none" stroke="#191970" d="M209.8488,-176.8015C256.6736,-173.6059 335.2277,-173.5106 396,-200 425.3405,-212.7889 451.2219,-240.1815 466.1208,-258.3461"/>
<polygon fill="#191970" stroke="#191970" points="463.5645,-260.7556 472.5196,-266.4176 469.0499,-256.407 463.5645,-260.7556"/>
</g>
<!-- Node118&#45;&gt;Node114 -->
<g id="edge16" class="edge">
<title>Node118&#45;&gt;Node114</title>
<path fill="none" stroke="#191970" d="M208.9916,-190.589C229.6434,-195.6035 255.114,-201.7881 277.0125,-207.1053"/>
<polygon fill="#191970" stroke="#191970" points="276.2489,-210.5215 286.7924,-209.4799 277.9007,-203.7191 276.2489,-210.5215"/>
</g>
<!-- Node118&#45;&gt;Node119 -->
<g id="edge17" class="edge">
<title>Node118&#45;&gt;Node119</title>
<path fill="none" stroke="#191970" d="M208.9916,-171.411C233.2364,-165.5241 264.1226,-158.0245 288.0736,-152.209"/>
<polygon fill="#191970" stroke="#191970" points="288.9823,-155.5901 297.8741,-149.8293 287.3306,-148.7877 288.9823,-155.5901"/>
</g>
<!-- Node120 -->
<g id="node14" class="node">
<title>Node120</title>
<g id="a_node14"><a xlink:href="interrupt__cicle_8c.html#ae96d62d9643ecb59a9a8a7828dfc1860" target="_top" xlink:title="get_int_data">
<polygon fill="#ffffff" stroke="#000000" points="444.5,-133.5 444.5,-152.5 514.5,-152.5 514.5,-133.5 444.5,-133.5"/>
<text text-anchor="middle" x="479.5" y="-140.5" font-family="Helvetica,sans-Serif" font-size="10.00" fill="#000000">get_int_data</text>
</a>
</g>
</g>
<!-- Node119&#45;&gt;Node120 -->
<g id="edge18" class="edge">
<title>Node119&#45;&gt;Node120</title>
<path fill="none" stroke="#191970" d="M354.1543,-143C376.4429,-143 408.0201,-143 433.9037,-143"/>
<polygon fill="#191970" stroke="#191970" points="434.2389,-146.5001 444.2389,-143 434.2388,-139.5001 434.2389,-146.5001"/>
</g>
<!-- Node121 -->
<g id="node15" class="node">
<title>Node121</title>
<g id="a_node15"><a xlink:href="interrupt__cicle_8c.html#a0718d5c75848a080a2122df6548d2422" target="_top" xlink:title="Receives and handles interruptions from the necessary modules. ">
<polygon fill="#ffffff" stroke="#000000" points="441,-95.5 441,-114.5 518,-114.5 518,-95.5 441,-95.5"/>
<text text-anchor="middle" x="479.5" y="-102.5" font-family="Helvetica,sans-Serif" font-size="10.00" fill="#000000">interrupt_cicle</text>
</a>
</g>
</g>
<!-- Node119&#45;&gt;Node121 -->
<g id="edge19" class="edge">
<title>Node119&#45;&gt;Node121</title>
<path fill="none" stroke="#191970" d="M354.1543,-136.0302C375.7014,-130.6961 405.9295,-123.2129 431.3023,-116.9317"/>
<polygon fill="#191970" stroke="#191970" points="432.2523,-120.3022 441.1182,-114.5017 430.5701,-113.5074 432.2523,-120.3022"/>
</g>
<!-- Node131 -->
<g id="node25" class="node">
<title>Node131</title>
<g id="a_node25"><a xlink:href="timer_8c.html#a97436b6607dec81590187f4729fea5dd" target="_top" xlink:title="get_timer_counter">
<polygon fill="#ffffff" stroke="#000000" points="432,-171.5 432,-190.5 527,-190.5 527,-171.5 432,-171.5"/>
<text text-anchor="middle" x="479.5" y="-178.5" font-family="Helvetica,sans-Serif" font-size="10.00" fill="#000000">get_timer_counter</text>
</a>
</g>
</g>
<!-- Node119&#45;&gt;Node131 -->
<g id="edge30" class="edge">
<title>Node119&#45;&gt;Node131</title>
<path fill="none" stroke="#191970" d="M354.1543,-149.9698C375.7014,-155.3039 405.9295,-162.7871 431.3023,-169.0683"/>
<polygon fill="#191970" stroke="#191970" points="430.5701,-172.4926 441.1182,-171.4983 432.2523,-165.6978 430.5701,-172.4926"/>
</g>
<!-- Node122 -->
<g id="node16" class="node">
<title>Node122</title>
<g id="a_node16"><a xlink:href="mouse_8c.html#a210374b50462acdedab00df64d5cea3c" target="_top" xlink:title="Mouse IH. ">
<polygon fill="#ffffff" stroke="#000000" points="591.5,-114.5 591.5,-133.5 650.5,-133.5 650.5,-114.5 591.5,-114.5"/>
<text text-anchor="middle" x="621" y="-121.5" font-family="Helvetica,sans-Serif" font-size="10.00" fill="#000000">mouse_ih</text>
</a>
</g>
</g>
<!-- Node121&#45;&gt;Node122 -->
<g id="edge20" class="edge">
<title>Node121&#45;&gt;Node122</title>
<path fill="none" stroke="#191970" d="M518.1655,-110.1918C537.8155,-112.8304 561.6548,-116.0314 581.431,-118.6868"/>
<polygon fill="#191970" stroke="#191970" points="580.9816,-122.1578 591.3585,-120.0199 581.9133,-115.2201 580.9816,-122.1578"/>
</g>
<!-- Node124 -->
<g id="node18" class="node">
<title>Node124</title>
<g id="a_node18"><a xlink:href="mouse_8c.html#a4f0a0dc9001ebefef3a416dd9b882b97" target="_top" xlink:title="Initiates the mouse packet member. ">
<polygon fill="#ffffff" stroke="#000000" points="589,-38.5 589,-57.5 653,-57.5 653,-38.5 589,-38.5"/>
<text text-anchor="middle" x="621" y="-45.5" font-family="Helvetica,sans-Serif" font-size="10.00" fill="#000000">init_packet</text>
</a>
</g>
</g>
<!-- Node121&#45;&gt;Node124 -->
<g id="edge22" class="edge">
<title>Node121&#45;&gt;Node124</title>
<path fill="none" stroke="#191970" d="M498.81,-95.4758C515.5687,-87.3884 540.5935,-75.7377 563,-67 568.502,-64.8544 574.3575,-62.7425 580.1517,-60.7513"/>
<polygon fill="#191970" stroke="#191970" points="581.4009,-64.024 589.7718,-57.5295 579.1779,-57.3864 581.4009,-64.024"/>
</g>
<!-- Node125 -->
<g id="node19" class="node">
<title>Node125</title>
<g id="a_node19"><a xlink:href="mouse_8c.html#a2ce59763196c5a8a030a47599b6a160e" target="_top" xlink:title="Get the cnt bytes. ">
<polygon fill="#ffffff" stroke="#000000" points="582,-.5 582,-19.5 660,-19.5 660,-.5 582,-.5"/>
<text text-anchor="middle" x="621" y="-7.5" font-family="Helvetica,sans-Serif" font-size="10.00" fill="#000000">get_cnt_bytes</text>
</a>
</g>
</g>
<!-- Node121&#45;&gt;Node125 -->
<g id="edge23" class="edge">
<title>Node121&#45;&gt;Node125</title>
<path fill="none" stroke="#191970" d="M487.5252,-95.434C501.3717,-79.4989 531.3266,-47.4514 563,-29 566.6051,-26.8999 570.4732,-24.9963 574.4383,-23.2785"/>
<polygon fill="#191970" stroke="#191970" points="575.7621,-26.5189 583.7879,-19.6024 573.2007,-20.0044 575.7621,-26.5189"/>
</g>
<!-- Node126 -->
<g id="node20" class="node">
<title>Node126</title>
<g id="a_node20"><a xlink:href="kbd_8c.html#aea970a154161a35f6894898a092ed70a" target="_top" xlink:title="Keyboard IH. ">
<polygon fill="#ffffff" stroke="#000000" points="598.5,-190.5 598.5,-209.5 643.5,-209.5 643.5,-190.5 598.5,-190.5"/>
<text text-anchor="middle" x="621" y="-197.5" font-family="Helvetica,sans-Serif" font-size="10.00" fill="#000000">kbc_ih</text>
</a>
</g>
</g>
<!-- Node121&#45;&gt;Node126 -->
<g id="edge24" class="edge">
<title>Node121&#45;&gt;Node126</title>
<path fill="none" stroke="#191970" d="M511.7099,-114.6666C517.1541,-117.1716 522.4939,-120.2506 527,-124 550.0325,-143.1647 539.3668,-162.5813 563,-181 570.4082,-186.7736 579.6398,-190.8269 588.544,-193.659"/>
<polygon fill="#191970" stroke="#191970" points="587.7725,-197.0768 598.3433,-196.3642 589.6353,-190.3292 587.7725,-197.0768"/>
</g>
<!-- Node127 -->
<g id="node21" class="node">
<title>Node127</title>
<g id="a_node21"><a xlink:href="timer_8c.html#ac7c3715c83c45c6411f9f3f9f6cf8c7f" target="_top" xlink:title="Timer IH. ">
<polygon fill="#ffffff" stroke="#000000" points="563,-152.5 563,-171.5 679,-171.5 679,-152.5 563,-152.5"/>
<text text-anchor="middle" x="621" y="-159.5" font-family="Helvetica,sans-Serif" font-size="10.00" fill="#000000">timer_interrupt_handler</text>
</a>
</g>
</g>
<!-- Node121&#45;&gt;Node127 -->
<g id="edge25" class="edge">
<title>Node121&#45;&gt;Node127</title>
<path fill="none" stroke="#191970" d="M504.8545,-114.5704C512.0758,-117.4499 519.9056,-120.72 527,-124 543.4215,-131.5922 546.3442,-135.9365 563,-143 568.0604,-145.146 573.4515,-147.2025 578.8316,-149.1176"/>
<polygon fill="#191970" stroke="#191970" points="577.8353,-152.4759 588.4298,-152.4009 580.1009,-145.8526 577.8353,-152.4759"/>
</g>
<!-- Node128 -->
<g id="node22" class="node">
<title>Node128</title>
<g id="a_node22"><a xlink:href="interrupt__cicle_8c.html#a3cd9db2b8c583d8e97d9865c1a4802a9" target="_top" xlink:title="Initializes the interrupt_data struct tot be used in other files. ">
<polygon fill="#ffffff" stroke="#000000" points="586.5,-76.5 586.5,-95.5 655.5,-95.5 655.5,-76.5 586.5,-76.5"/>
<text text-anchor="middle" x="621" y="-83.5" font-family="Helvetica,sans-Serif" font-size="10.00" fill="#000000">init_int_data</text>
</a>
</g>
</g>
<!-- Node121&#45;&gt;Node128 -->
<g id="edge26" class="edge">
<title>Node121&#45;&gt;Node128</title>
<path fill="none" stroke="#191970" d="M518.1655,-99.8082C536.1163,-97.3978 557.5633,-94.518 576.2149,-92.0136"/>
<polygon fill="#191970" stroke="#191970" points="576.8041,-95.4659 586.2493,-90.6662 575.8724,-88.5282 576.8041,-95.4659"/>
</g>
<!-- Node123 -->
<g id="node17" class="node">
<title>Node123</title>
<g id="a_node17"><a xlink:href="mouse_8c.html#a4a11876c724ae443363cf5971f1558e7" target="_top" xlink:title="Empties a mouse packet. ">
<polygon fill="#ffffff" stroke="#000000" points="728,-114.5 728,-133.5 806,-133.5 806,-114.5 728,-114.5"/>
<text text-anchor="middle" x="767" y="-121.5" font-family="Helvetica,sans-Serif" font-size="10.00" fill="#000000">empty_packet</text>
</a>
</g>
</g>
<!-- Node122&#45;&gt;Node123 -->
<g id="edge21" class="edge">
<title>Node122&#45;&gt;Node123</title>
<path fill="none" stroke="#191970" d="M650.5453,-124C669.751,-124 695.2661,-124 717.5174,-124"/>
<polygon fill="#191970" stroke="#191970" points="717.8057,-127.5001 727.8057,-124 717.8057,-120.5001 717.8057,-127.5001"/>
</g>
<!-- Node128&#45;&gt;Node123 -->
<g id="edge28" class="edge">
<title>Node128&#45;&gt;Node123</title>
<path fill="none" stroke="#191970" d="M655.6,-95.0055C675.0364,-100.0643 699.5501,-106.4446 720.6304,-111.9312"/>
<polygon fill="#191970" stroke="#191970" points="719.7946,-115.3302 730.3538,-114.462 721.5579,-108.5559 719.7946,-115.3302"/>
</g>
<!-- Node129 -->
<g id="node23" class="node">
<title>Node129</title>
<g id="a_node23"><a xlink:href="mouse_8c.html#a56a5da7f70edb0bb5db9910981ef65f9" target="_top" xlink:title="Get packet struct. ">
<polygon fill="#ffffff" stroke="#000000" points="734.5,-76.5 734.5,-95.5 799.5,-95.5 799.5,-76.5 734.5,-76.5"/>
<text text-anchor="middle" x="767" y="-83.5" font-family="Helvetica,sans-Serif" font-size="10.00" fill="#000000">get_packet</text>
</a>
</g>
</g>
<!-- Node128&#45;&gt;Node129 -->
<g id="edge27" class="edge">
<title>Node128&#45;&gt;Node129</title>
<path fill="none" stroke="#191970" d="M655.6,-86C676.1284,-86 702.3205,-86 724.1493,-86"/>
<polygon fill="#191970" stroke="#191970" points="724.1523,-89.5001 734.1523,-86 724.1523,-82.5001 724.1523,-89.5001"/>
</g>
<!-- Node130 -->
<g id="node24" class="node">
<title>Node130</title>
<g id="a_node24"><a xlink:href="kbd_8c.html#aabe32d3d3ebb9ccff7ca4b7992f48209" target="_top" xlink:title="Get the scancode. ">
<polygon fill="#ffffff" stroke="#000000" points="728.5,-38.5 728.5,-57.5 805.5,-57.5 805.5,-38.5 728.5,-38.5"/>
<text text-anchor="middle" x="767" y="-45.5" font-family="Helvetica,sans-Serif" font-size="10.00" fill="#000000">get_scancode</text>
</a>
</g>
</g>
<!-- Node128&#45;&gt;Node130 -->
<g id="edge29" class="edge">
<title>Node128&#45;&gt;Node130</title>
<path fill="none" stroke="#191970" d="M655.6,-76.9945C675.0364,-71.9357 699.5501,-65.5554 720.6304,-60.0688"/>
<polygon fill="#191970" stroke="#191970" points="721.5579,-63.4441 730.3538,-57.538 719.7946,-56.6698 721.5579,-63.4441"/>
</g>
</g>
</svg>
        <g id="navigator" transform="translate(0 0)" fill="#404254">
                <rect fill="#f2f5e9" fill-opacity="0.5" stroke="#606060" stroke-width=".5" x="0" y="0" width="60" height="60"/>
                <use id="zoomplus" xlink:href="#zoomPlus" x="17" y="9" onmousedown="handleZoom(evt,'in')"/>
                <use id="zoomminus" xlink:href="#zoomMin" x="42" y="9" onmousedown="handleZoom(evt,'out')"/>
                <use id="reset" xlink:href="#resetDef" x="30" y="36" onmousedown="handleReset()"/>
                <g id="arrowUp" xlink:href="#dirArrow" transform="translate(30 24)" onmousedown="handlePan(0,-1)">
                  <use xlink:href="#rim" fill="#404040">
                        <set attributeName="fill" to="#808080" begin="arrowUp.mouseover" end="arrowUp.mouseout"/>
                  </use>
                  <path fill="none" stroke="white" stroke-width="1.5" d="M0,-3.0v7 M-2.5,-0.5L0,-3.0L2.5,-0.5"/>
                </g>
                <g id="arrowRight" xlink:href="#dirArrow" transform="rotate(90) translate(36 -43)" onmousedown="handlePan(1,0)">
                  <use xlink:href="#rim" fill="#404040">
                        <set attributeName="fill" to="#808080" begin="arrowRight.mouseover" end="arrowRight.mouseout"/>
                  </use>
                  <path fill="none" stroke="white" stroke-width="1.5" d="M0,-3.0v7 M-2.5,-0.5L0,-3.0L2.5,-0.5"/>
                </g>
                <g id="arrowDown" xlink:href="#dirArrow" transform="rotate(180) translate(-30 -48)" onmousedown="handlePan(0,1)">
                  <use xlink:href="#rim" fill="#404040">
                        <set attributeName="fill" to="#808080" begin="arrowDown.mouseover" end="arrowDown.mouseout"/>
                  </use>
                  <path fill="none" stroke="white" stroke-width="1.5" d="M0,-3.0v7 M-2.5,-0.5L0,-3.0L2.5,-0.5"/>
                </g>
                <g id="arrowLeft" xlink:href="#dirArrow" transform="rotate(270) translate(-36 17)" onmousedown="handlePan(-1,0)">
                  <use xlink:href="#rim" fill="#404040">
                        <set attributeName="fill" to="#808080" begin="arrowLeft.mouseover" end="arrowLeft.mouseout"/>
                  </use>
                  <path fill="none" stroke="white" stroke-width="1.5" d="M0,-3.0v7 M-2.5,-0.5L0,-3.0L2.5,-0.5"/>
                </g>
        </g>
        <svg viewBox="0 0 15 15" width="100%" height="30px" preserveAspectRatio="xMaxYMin meet">
         <g id="arrow_out" transform="scale(0.3 0.3)">
          <a xlink:href="game_8h_afb1a61b5802eed643536ce45225d2000_cgraph_org.svg" target="_base">
           <rect id="button" ry="5" rx="5" y="6" x="6" height="38" width="38"
                fill="#f2f5e9" fill-opacity="0.5" stroke="#606060" stroke-width="1.0"/>
           <path id="arrow"
             d="M 11.500037,31.436501 C 11.940474,20.09759 22.043105,11.32322 32.158766,21.979434 L 37.068811,17.246167 C 37.068811,17.246167 37.088388,32 37.088388,32 L 22.160133,31.978069 C 22.160133,31.978069 26.997745,27.140456 26.997745,27.140456 C 18.528582,18.264221 13.291696,25.230495 11.500037,31.436501 z"
             style="fill:#404040;"/>
          </a>
         </g>
        </svg>
</svg>
