<?xml version="1.0" encoding="UTF-8" standalone="no"?>
<!DOCTYPE svg PUBLIC "-//W3C//DTD SVG 1.1//EN"
 "http://www.w3.org/Graphics/SVG/1.1/DTD/svg11.dtd">
<!-- Generated by graphviz version 2.40.1 (20161225.0304)
 -->
<!-- Title: game_over_sp Pages: 1 -->
<!--zoomable 275 -->
<svg id="main" version="1.1" xmlns="http://www.w3.org/2000/svg" xmlns:xlink="http://www.w3.org/1999/xlink" xml:space="preserve" onload="init(evt)">
<style type="text/css"><![CDATA[
.edge:hover path { stroke: red; }
.edge:hover polygon { stroke: red; fill: red; }
]]></style>
<script type="text/javascript"><![CDATA[
var edges = document.getElementsByTagName('g');
if (edges && edges.length) {
  for (var i=0;i<edges.length;i++) {
    if (edges[i].id.substr(0,4)=='edge') {
      edges[i].setAttribute('class','edge');
    }
  }
}
]]></script>
        <defs>
                <circle id="rim" cx="0" cy="0" r="7"/>
                <circle id="rim2" cx="0" cy="0" r="3.5"/>
                <g id="zoomPlus">
                        <use xlink:href="#rim" fill="#404040">
                                <set attributeName="fill" to="#808080" begin="zoomplus.mouseover" end="zoomplus.mouseout"/>
                        </use>
                        <path d="M-4,0h8M0,-4v8" fill="none" stroke="white" stroke-width="1.5" pointer-events="none"/>
                </g>
                <g id="zoomMin">
                        <use xlink:href="#rim" fill="#404040">
                                <set attributeName="fill" to="#808080" begin="zoomminus.mouseover" end="zoomminus.mouseout"/>
                        </use>
                        <path d="M-4,0h8" fill="none" stroke="white" stroke-width="1.5" pointer-events="none"/>
                </g>
                <g id="dirArrow">
                        <path fill="none" stroke="white" stroke-width="1.5" d="M0,-3.0v7 M-2.5,-0.5L0,-3.0L2.5,-0.5"/>
                </g>
               <g id="resetDef">
                       <use xlink:href="#rim2" fill="#404040">
                               <set attributeName="fill" to="#808080" begin="reset.mouseover" end="reset.mouseout"/>
                       </use>
               </g>
        </defs>

<script type="text/javascript">
var viewWidth = 607;
var viewHeight = 275;
var sectionId = 'dynsection-4';
</script>
<script xlink:href="svgpan.js"/>
<svg id="graph" class="graph">
<g id="viewport">
<title>game_over_sp</title>
<polygon fill="#ffffff" stroke="transparent" points="-4,4 -4,-271 603,-271 603,4 -4,4"/>
<!-- Node83 -->
<g id="node1" class="node">
<title>Node83</title>
<polygon fill="#bfbfbf" stroke="#000000" points="0,-171.5 0,-190.5 80,-190.5 80,-171.5 0,-171.5"/>
<text text-anchor="middle" x="40" y="-178.5" font-family="Helvetica,sans-Serif" font-size="10.00" fill="#000000">game_over_sp</text>
</g>
<!-- Node84 -->
<g id="node2" class="node">
<title>Node84</title>
<g id="a_node2"><a xlink:href="graphic_8c.html#a461a83bf6ebfd3b6dc95ca3962858d3d" target="_top" xlink:title="Copies the xmp into the video mem. ">
<polygon fill="#ffffff" stroke="#000000" points="128,-209.5 128,-228.5 190,-228.5 190,-209.5 128,-209.5"/>
<text text-anchor="middle" x="159" y="-216.5" font-family="Helvetica,sans-Serif" font-size="10.00" fill="#000000">draw_xpm</text>
</a>
</g>
</g>
<!-- Node83&#45;&gt;Node84 -->
<g id="edge1" class="edge">
<title>Node83&#45;&gt;Node84</title>
<path fill="none" stroke="#191970" d="M70.0287,-190.589C84.9677,-195.3594 103.2227,-201.1888 119.3006,-206.3229"/>
<polygon fill="#191970" stroke="#191970" points="118.3901,-209.7062 128.9809,-209.4141 120.5195,-203.0379 118.3901,-209.7062"/>
</g>
<!-- Node87 -->
<g id="node5" class="node">
<title>Node87</title>
<g id="a_node5"><a xlink:href="graphic_8c.html#a541e181cdbfecf6110d4d4c3ee087c30" target="_top" xlink:title="get_video_mem">
<polygon fill="#ffffff" stroke="#000000" points="116,-171.5 116,-190.5 202,-190.5 202,-171.5 116,-171.5"/>
<text text-anchor="middle" x="159" y="-178.5" font-family="Helvetica,sans-Serif" font-size="10.00" fill="#000000">get_video_mem</text>
</a>
</g>
</g>
<!-- Node83&#45;&gt;Node87 -->
<g id="edge5" class="edge">
<title>Node83&#45;&gt;Node87</title>
<path fill="none" stroke="#191970" d="M80.288,-181C88.4372,-181 97.1251,-181 105.6432,-181"/>
<polygon fill="#191970" stroke="#191970" points="105.9016,-184.5001 115.9016,-181 105.9015,-177.5001 105.9016,-184.5001"/>
</g>
<!-- Node88 -->
<g id="node6" class="node">
<title>Node88</title>
<g id="a_node6"><a xlink:href="game_8c.html#abdd70639378b19cfc929273ef7b4ff45" target="_top" xlink:title="Uses timer interruptions to wait a predetermined time. ">
<polygon fill="#ffffff" stroke="#000000" points="131,-133.5 131,-152.5 187,-152.5 187,-133.5 131,-133.5"/>
<text text-anchor="middle" x="159" y="-140.5" font-family="Helvetica,sans-Serif" font-size="10.00" fill="#000000">idle_time</text>
</a>
</g>
</g>
<!-- Node83&#45;&gt;Node88 -->
<g id="edge6" class="edge">
<title>Node83&#45;&gt;Node88</title>
<path fill="none" stroke="#191970" d="M70.0287,-171.411C85.4238,-166.4949 104.3406,-160.4543 120.7671,-155.2088"/>
<polygon fill="#191970" stroke="#191970" points="122.158,-158.4389 130.6194,-152.0627 120.0286,-151.7706 122.158,-158.4389"/>
</g>
<!-- Node85 -->
<g id="node3" class="node">
<title>Node85</title>
<g id="a_node3"><a xlink:href="graphic_8c.html#a89e5e15fb2c065221f58c6d883da6049" target="_top" xlink:title="get_bytes_per_pixel">
<polygon fill="#ffffff" stroke="#000000" points="375,-247.5 375,-266.5 479,-266.5 479,-247.5 375,-247.5"/>
<text text-anchor="middle" x="427" y="-254.5" font-family="Helvetica,sans-Serif" font-size="10.00" fill="#000000">get_bytes_per_pixel</text>
</a>
</g>
</g>
<!-- Node84&#45;&gt;Node85 -->
<g id="edge2" class="edge">
<title>Node84&#45;&gt;Node85</title>
<path fill="none" stroke="#191970" d="M190.3203,-227.5688C204.7454,-231.2473 222.1454,-235.3093 238,-238 279.9037,-245.1115 327.5187,-249.8782 364.4734,-252.8586"/>
<polygon fill="#191970" stroke="#191970" points="364.3572,-256.3601 374.6002,-253.6523 364.9043,-249.3815 364.3572,-256.3601"/>
</g>
<!-- Node86 -->
<g id="node4" class="node">
<title>Node86</title>
<g id="a_node4"><a xlink:href="graphic_8c.html#a90228825151958bdc7dfaffdbbd88494" target="_top" xlink:title="Calculates the color and sets the pixel in the video mem. ">
<polygon fill="#ffffff" stroke="#000000" points="254,-209.5 254,-228.5 317,-228.5 317,-209.5 254,-209.5"/>
<text text-anchor="middle" x="285.5" y="-216.5" font-family="Helvetica,sans-Serif" font-size="10.00" fill="#000000">draw_pixel</text>
</a>
</g>
</g>
<!-- Node84&#45;&gt;Node86 -->
<g id="edge3" class="edge">
<title>Node84&#45;&gt;Node86</title>
<path fill="none" stroke="#191970" d="M190.2697,-219C206.2653,-219 225.964,-219 243.2868,-219"/>
<polygon fill="#191970" stroke="#191970" points="243.7114,-222.5001 253.7114,-219 243.7114,-215.5001 243.7114,-222.5001"/>
</g>
<!-- Node86&#45;&gt;Node85 -->
<g id="edge4" class="edge">
<title>Node86&#45;&gt;Node85</title>
<path fill="none" stroke="#191970" d="M317.2554,-227.5279C336.3181,-232.6473 360.8733,-239.2416 381.9216,-244.8941"/>
<polygon fill="#191970" stroke="#191970" points="381.0567,-248.2858 391.6223,-247.4993 382.8723,-241.5253 381.0567,-248.2858"/>
</g>
<!-- Node89 -->
<g id="node7" class="node">
<title>Node89</title>
<g id="a_node7"><a xlink:href="interrupt__cicle_8c.html#ae96d62d9643ecb59a9a8a7828dfc1860" target="_top" xlink:title="get_int_data">
<polygon fill="#ffffff" stroke="#000000" points="250.5,-171.5 250.5,-190.5 320.5,-190.5 320.5,-171.5 250.5,-171.5"/>
<text text-anchor="middle" x="285.5" y="-178.5" font-family="Helvetica,sans-Serif" font-size="10.00" fill="#000000">get_int_data</text>
</a>
</g>
</g>
<!-- Node88&#45;&gt;Node89 -->
<g id="edge7" class="edge">
<title>Node88&#45;&gt;Node89</title>
<path fill="none" stroke="#191970" d="M187.0745,-151.4334C203.7334,-156.4377 225.1659,-162.8759 243.7757,-168.4662"/>
<polygon fill="#191970" stroke="#191970" points="242.9077,-171.8599 253.4919,-171.3849 244.9216,-165.1559 242.9077,-171.8599"/>
</g>
<!-- Node90 -->
<g id="node8" class="node">
<title>Node90</title>
<g id="a_node8"><a xlink:href="interrupt__cicle_8c.html#a0718d5c75848a080a2122df6548d2422" target="_top" xlink:title="Receives and handles interruptions from the necessary modules. ">
<polygon fill="#ffffff" stroke="#000000" points="247,-133.5 247,-152.5 324,-152.5 324,-133.5 247,-133.5"/>
<text text-anchor="middle" x="285.5" y="-140.5" font-family="Helvetica,sans-Serif" font-size="10.00" fill="#000000">interrupt_cicle</text>
</a>
</g>
</g>
<!-- Node88&#45;&gt;Node90 -->
<g id="edge8" class="edge">
<title>Node88&#45;&gt;Node90</title>
<path fill="none" stroke="#191970" d="M187.0745,-143C201.6618,-143 219.9093,-143 236.7167,-143"/>
<polygon fill="#191970" stroke="#191970" points="236.95,-146.5001 246.9499,-143 236.9499,-139.5001 236.95,-146.5001"/>
</g>
<!-- Node100 -->
<g id="node18" class="node">
<title>Node100</title>
<g id="a_node18"><a xlink:href="timer_8c.html#a97436b6607dec81590187f4729fea5dd" target="_top" xlink:title="get_timer_counter">
<polygon fill="#ffffff" stroke="#000000" points="238,-95.5 238,-114.5 333,-114.5 333,-95.5 238,-95.5"/>
<text text-anchor="middle" x="285.5" y="-102.5" font-family="Helvetica,sans-Serif" font-size="10.00" fill="#000000">get_timer_counter</text>
</a>
</g>
</g>
<!-- Node88&#45;&gt;Node100 -->
<g id="edge19" class="edge">
<title>Node88&#45;&gt;Node100</title>
<path fill="none" stroke="#191970" d="M187.0745,-134.5666C203.7334,-129.5623 225.1659,-123.1241 243.7757,-117.5338"/>
<polygon fill="#191970" stroke="#191970" points="244.9216,-120.8441 253.4919,-114.6151 242.9077,-114.1401 244.9216,-120.8441"/>
</g>
<!-- Node91 -->
<g id="node9" class="node">
<title>Node91</title>
<g id="a_node9"><a xlink:href="mouse_8c.html#a210374b50462acdedab00df64d5cea3c" target="_top" xlink:title="Mouse IH. ">
<polygon fill="#ffffff" stroke="#000000" points="397.5,-209.5 397.5,-228.5 456.5,-228.5 456.5,-209.5 397.5,-209.5"/>
<text text-anchor="middle" x="427" y="-216.5" font-family="Helvetica,sans-Serif" font-size="10.00" fill="#000000">mouse_ih</text>
</a>
</g>
</g>
<!-- Node90&#45;&gt;Node91 -->
<g id="edge9" class="edge">
<title>Node90&#45;&gt;Node91</title>
<path fill="none" stroke="#191970" d="M315.1426,-152.557C321.2994,-155.163 327.5624,-158.3081 333,-162 352.2473,-175.0681 349.3448,-187.5538 369,-200 374.7741,-203.6563 381.3205,-206.6763 387.8834,-209.1486"/>
<polygon fill="#191970" stroke="#191970" points="386.8283,-212.4865 397.4227,-212.389 389.0799,-205.8585 386.8283,-212.4865"/>
</g>
<!-- Node93 -->
<g id="node11" class="node">
<title>Node93</title>
<g id="a_node11"><a xlink:href="mouse_8c.html#a4f0a0dc9001ebefef3a416dd9b882b97" target="_top" xlink:title="Initiates the mouse packet member. ">
<polygon fill="#ffffff" stroke="#000000" points="395,-171.5 395,-190.5 459,-190.5 459,-171.5 395,-171.5"/>
<text text-anchor="middle" x="427" y="-178.5" font-family="Helvetica,sans-Serif" font-size="10.00" fill="#000000">init_packet</text>
</a>
</g>
</g>
<!-- Node90&#45;&gt;Node93 -->
<g id="edge11" class="edge">
<title>Node90&#45;&gt;Node93</title>
<path fill="none" stroke="#191970" d="M321.2064,-152.589C340.5371,-157.7803 364.5371,-164.2255 384.7891,-169.6642"/>
<polygon fill="#191970" stroke="#191970" points="384.1267,-173.1103 394.6923,-172.3237 385.9422,-166.3498 384.1267,-173.1103"/>
</g>
<!-- Node94 -->
<g id="node12" class="node">
<title>Node94</title>
<g id="a_node12"><a xlink:href="mouse_8c.html#a2ce59763196c5a8a030a47599b6a160e" target="_top" xlink:title="Get the cnt bytes. ">
<polygon fill="#ffffff" stroke="#000000" points="388,-133.5 388,-152.5 466,-152.5 466,-133.5 388,-133.5"/>
<text text-anchor="middle" x="427" y="-140.5" font-family="Helvetica,sans-Serif" font-size="10.00" fill="#000000">get_cnt_bytes</text>
</a>
</g>
</g>
<!-- Node90&#45;&gt;Node94 -->
<g id="edge12" class="edge">
<title>Node90&#45;&gt;Node94</title>
<path fill="none" stroke="#191970" d="M324.1655,-143C340.7189,-143 360.2452,-143 377.811,-143"/>
<polygon fill="#191970" stroke="#191970" points="377.8896,-146.5001 387.8896,-143 377.8896,-139.5001 377.8896,-146.5001"/>
</g>
<!-- Node95 -->
<g id="node13" class="node">
<title>Node95</title>
<g id="a_node13"><a xlink:href="kbd_8c.html#aea970a154161a35f6894898a092ed70a" target="_top" xlink:title="Keyboard IH. ">
<polygon fill="#ffffff" stroke="#000000" points="404.5,-95.5 404.5,-114.5 449.5,-114.5 449.5,-95.5 404.5,-95.5"/>
<text text-anchor="middle" x="427" y="-102.5" font-family="Helvetica,sans-Serif" font-size="10.00" fill="#000000">kbc_ih</text>
</a>
</g>
</g>
<!-- Node90&#45;&gt;Node95 -->
<g id="edge13" class="edge">
<title>Node90&#45;&gt;Node95</title>
<path fill="none" stroke="#191970" d="M321.2064,-133.411C343.6821,-127.3751 372.4701,-119.6441 394.34,-113.7709"/>
<polygon fill="#191970" stroke="#191970" points="395.4075,-117.1083 404.1575,-111.1344 393.5919,-110.3478 395.4075,-117.1083"/>
</g>
<!-- Node96 -->
<g id="node14" class="node">
<title>Node96</title>
<g id="a_node14"><a xlink:href="timer_8c.html#ac7c3715c83c45c6411f9f3f9f6cf8c7f" target="_top" xlink:title="Timer IH. ">
<polygon fill="#ffffff" stroke="#000000" points="369,-57.5 369,-76.5 485,-76.5 485,-57.5 369,-57.5"/>
<text text-anchor="middle" x="427" y="-64.5" font-family="Helvetica,sans-Serif" font-size="10.00" fill="#000000">timer_interrupt_handler</text>
</a>
</g>
</g>
<!-- Node90&#45;&gt;Node96 -->
<g id="edge14" class="edge">
<title>Node90&#45;&gt;Node96</title>
<path fill="none" stroke="#191970" d="M315.1426,-133.443C321.2994,-130.837 327.5624,-127.6919 333,-124 352.2473,-110.9319 349.3448,-98.4462 369,-86 372.1864,-83.9823 375.608,-82.1584 379.1377,-80.5133"/>
<polygon fill="#191970" stroke="#191970" points="380.7524,-83.6327 388.6466,-76.5664 378.0688,-77.1675 380.7524,-83.6327"/>
</g>
<!-- Node97 -->
<g id="node15" class="node">
<title>Node97</title>
<g id="a_node15"><a xlink:href="interrupt__cicle_8c.html#a3cd9db2b8c583d8e97d9865c1a4802a9" target="_top" xlink:title="Initializes the interrupt_data struct tot be used in other files. ">
<polygon fill="#ffffff" stroke="#000000" points="392.5,-19.5 392.5,-38.5 461.5,-38.5 461.5,-19.5 392.5,-19.5"/>
<text text-anchor="middle" x="427" y="-26.5" font-family="Helvetica,sans-Serif" font-size="10.00" fill="#000000">init_int_data</text>
</a>
</g>
</g>
<!-- Node90&#45;&gt;Node97 -->
<g id="edge15" class="edge">
<title>Node90&#45;&gt;Node97</title>
<path fill="none" stroke="#191970" d="M319.0785,-133.3013C324.1326,-130.8307 328.9876,-127.7715 333,-124 360.2333,-98.4015 340.9624,-72.715 369,-48 373.1234,-44.3653 377.9572,-41.4235 383.0443,-39.0429"/>
<polygon fill="#191970" stroke="#191970" points="384.3745,-42.2806 392.3758,-35.3358 381.79,-35.7752 384.3745,-42.2806"/>
</g>
<!-- Node92 -->
<g id="node10" class="node">
<title>Node92</title>
<g id="a_node10"><a xlink:href="mouse_8c.html#a4a11876c724ae443363cf5971f1558e7" target="_top" xlink:title="Empties a mouse packet. ">
<polygon fill="#ffffff" stroke="#000000" points="521,-142.5 521,-161.5 599,-161.5 599,-142.5 521,-142.5"/>
<text text-anchor="middle" x="560" y="-149.5" font-family="Helvetica,sans-Serif" font-size="10.00" fill="#000000">empty_packet</text>
</a>
</g>
</g>
<!-- Node91&#45;&gt;Node92 -->
<g id="edge10" class="edge">
<title>Node91&#45;&gt;Node92</title>
<path fill="none" stroke="#191970" d="M456.7696,-210.8374C466.0078,-207.8859 476.0967,-204.2235 485,-200 504.2007,-190.8916 524.407,-177.7243 539.0022,-167.4838"/>
<polygon fill="#191970" stroke="#191970" points="541.2058,-170.211 547.3056,-161.5482 537.135,-164.5163 541.2058,-170.211"/>
</g>
<!-- Node97&#45;&gt;Node92 -->
<g id="edge17" class="edge">
<title>Node97&#45;&gt;Node92</title>
<path fill="none" stroke="#191970" d="M461.5417,-36.396C469.7208,-39.1725 478.0715,-42.9346 485,-48 515.9948,-70.6601 539.269,-109.9941 551.1567,-133.2485"/>
<polygon fill="#191970" stroke="#191970" points="548.1124,-134.9888 555.6743,-142.4097 554.3906,-131.8929 548.1124,-134.9888"/>
</g>
<!-- Node98 -->
<g id="node16" class="node">
<title>Node98</title>
<g id="a_node16"><a xlink:href="mouse_8c.html#a56a5da7f70edb0bb5db9910981ef65f9" target="_top" xlink:title="Get packet struct. ">
<polygon fill="#ffffff" stroke="#000000" points="527.5,-38.5 527.5,-57.5 592.5,-57.5 592.5,-38.5 527.5,-38.5"/>
<text text-anchor="middle" x="560" y="-45.5" font-family="Helvetica,sans-Serif" font-size="10.00" fill="#000000">get_packet</text>
</a>
</g>
</g>
<!-- Node97&#45;&gt;Node98 -->
<g id="edge16" class="edge">
<title>Node97&#45;&gt;Node98</title>
<path fill="none" stroke="#191970" d="M461.597,-33.9424C478.6621,-36.3803 499.4006,-39.3429 517.4308,-41.9187"/>
<polygon fill="#191970" stroke="#191970" points="517.0115,-45.3942 527.406,-43.3437 518.0015,-38.4646 517.0115,-45.3942"/>
</g>
<!-- Node99 -->
<g id="node17" class="node">
<title>Node99</title>
<g id="a_node17"><a xlink:href="kbd_8c.html#aabe32d3d3ebb9ccff7ca4b7992f48209" target="_top" xlink:title="Get the scancode. ">
<polygon fill="#ffffff" stroke="#000000" points="521.5,-.5 521.5,-19.5 598.5,-19.5 598.5,-.5 521.5,-.5"/>
<text text-anchor="middle" x="560" y="-7.5" font-family="Helvetica,sans-Serif" font-size="10.00" fill="#000000">get_scancode</text>
</a>
</g>
</g>
<!-- Node97&#45;&gt;Node99 -->
<g id="edge18" class="edge">
<title>Node97&#45;&gt;Node99</title>
<path fill="none" stroke="#191970" d="M461.597,-24.0576C476.7668,-21.8905 494.8393,-19.3087 511.3318,-16.9526"/>
<polygon fill="#191970" stroke="#191970" points="511.9519,-20.3996 521.3564,-15.5205 510.9619,-13.47 511.9519,-20.3996"/>
</g>
</g>
</svg>
        <g id="navigator" transform="translate(0 0)" fill="#404254">
                <rect fill="#f2f5e9" fill-opacity="0.5" stroke="#606060" stroke-width=".5" x="0" y="0" width="60" height="60"/>
                <use id="zoomplus" xlink:href="#zoomPlus" x="17" y="9" onmousedown="handleZoom(evt,'in')"/>
                <use id="zoomminus" xlink:href="#zoomMin" x="42" y="9" onmousedown="handleZoom(evt,'out')"/>
                <use id="reset" xlink:href="#resetDef" x="30" y="36" onmousedown="handleReset()"/>
                <g id="arrowUp" xlink:href="#dirArrow" transform="translate(30 24)" onmousedown="handlePan(0,-1)">
                  <use xlink:href="#rim" fill="#404040">
                        <set attributeName="fill" to="#808080" begin="arrowUp.mouseover" end="arrowUp.mouseout"/>
                  </use>
                  <path fill="none" stroke="white" stroke-width="1.5" d="M0,-3.0v7 M-2.5,-0.5L0,-3.0L2.5,-0.5"/>
                </g>
                <g id="arrowRight" xlink:href="#dirArrow" transform="rotate(90) translate(36 -43)" onmousedown="handlePan(1,0)">
                  <use xlink:href="#rim" fill="#404040">
                        <set attributeName="fill" to="#808080" begin="arrowRight.mouseover" end="arrowRight.mouseout"/>
                  </use>
                  <path fill="none" stroke="white" stroke-width="1.5" d="M0,-3.0v7 M-2.5,-0.5L0,-3.0L2.5,-0.5"/>
                </g>
                <g id="arrowDown" xlink:href="#dirArrow" transform="rotate(180) translate(-30 -48)" onmousedown="handlePan(0,1)">
                  <use xlink:href="#rim" fill="#404040">
                        <set attributeName="fill" to="#808080" begin="arrowDown.mouseover" end="arrowDown.mouseout"/>
                  </use>
                  <path fill="none" stroke="white" stroke-width="1.5" d="M0,-3.0v7 M-2.5,-0.5L0,-3.0L2.5,-0.5"/>
                </g>
                <g id="arrowLeft" xlink:href="#dirArrow" transform="rotate(270) translate(-36 17)" onmousedown="handlePan(-1,0)">
                  <use xlink:href="#rim" fill="#404040">
                        <set attributeName="fill" to="#808080" begin="arrowLeft.mouseover" end="arrowLeft.mouseout"/>
                  </use>
                  <path fill="none" stroke="white" stroke-width="1.5" d="M0,-3.0v7 M-2.5,-0.5L0,-3.0L2.5,-0.5"/>
                </g>
        </g>
        <svg viewBox="0 0 15 15" width="100%" height="30px" preserveAspectRatio="xMaxYMin meet">
         <g id="arrow_out" transform="scale(0.3 0.3)">
          <a xlink:href="game_8c_a428e51196f5847d0e5e50822aa1c9716_cgraph_org.svg" target="_base">
           <rect id="button" ry="5" rx="5" y="6" x="6" height="38" width="38"
                fill="#f2f5e9" fill-opacity="0.5" stroke="#606060" stroke-width="1.0"/>
           <path id="arrow"
             d="M 11.500037,31.436501 C 11.940474,20.09759 22.043105,11.32322 32.158766,21.979434 L 37.068811,17.246167 C 37.068811,17.246167 37.088388,32 37.088388,32 L 22.160133,31.978069 C 22.160133,31.978069 26.997745,27.140456 26.997745,27.140456 C 18.528582,18.264221 13.291696,25.230495 11.500037,31.436501 z"
             style="fill:#404040;"/>
          </a>
         </g>
        </svg>
</svg>
