<?xml version="1.0" encoding="UTF-8" standalone="no"?>
<!DOCTYPE svg PUBLIC "-//W3C//DTD SVG 1.1//EN"
 "http://www.w3.org/Graphics/SVG/1.1/DTD/svg11.dtd">
<!-- Generated by graphviz version 2.40.1 (20161225.0304)
 -->
<!-- Title: winner_sp Pages: 1 -->
<svg width="659pt" height="66pt"
 viewBox="0.00 0.00 659.00 66.00" xmlns="http://www.w3.org/2000/svg" xmlns:xlink="http://www.w3.org/1999/xlink">
<g id="graph0" class="graph" transform="scale(1 1) rotate(0) translate(4 62)">
<title>winner_sp</title>
<polygon fill="#ffffff" stroke="transparent" points="-4,4 -4,-62 655,-62 655,4 -4,4"/>
<!-- Node262 -->
<g id="node1" class="node">
<title>Node262</title>
<polygon fill="#bfbfbf" stroke="#000000" points="0,-19.5 0,-38.5 61,-38.5 61,-19.5 0,-19.5"/>
<text text-anchor="middle" x="30.5" y="-26.5" font-family="Helvetica,sans-Serif" font-size="10.00" fill="#000000">winner_sp</text>
</g>
<!-- Node263 -->
<g id="node2" class="node">
<title>Node263</title>
<g id="a_node2"><a xlink:href="game_8h.html#aaeeee1282b90aa12468a1862c7871ee4" target="_top" xlink:title="Lets the player fire against the enemy&#39;s boats using a graphical interface Shows previously hit cells...">
<polygon fill="#ffffff" stroke="#000000" points="97,-19.5 97,-38.5 183,-38.5 183,-19.5 97,-19.5"/>
<text text-anchor="middle" x="140" y="-26.5" font-family="Helvetica,sans-Serif" font-size="10.00" fill="#000000">game_round_sp</text>
</a>
</g>
</g>
<!-- Node262&#45;&gt;Node263 -->
<g id="edge1" class="edge">
<title>Node262&#45;&gt;Node263</title>
<path fill="none" stroke="#191970" d="M71.0211,-29C79.4821,-29 88.4302,-29 96.9781,-29"/>
<polygon fill="#191970" stroke="#191970" points="71.0019,-25.5001 61.0019,-29 71.0018,-32.5001 71.0019,-25.5001"/>
</g>
<!-- Node264 -->
<g id="node3" class="node">
<title>Node264</title>
<g id="a_node3"><a xlink:href="game_8h.html#aff1f849979a9ca10d6ff2bce0dfb7fd5" target="_top" xlink:title="Single Player Iniciates the boards from the respective players Starts the game loop (1 turn per playe...">
<polygon fill="#ffffff" stroke="#000000" points="220.5,-38.5 220.5,-57.5 276.5,-57.5 276.5,-38.5 220.5,-38.5"/>
<text text-anchor="middle" x="248.5" y="-45.5" font-family="Helvetica,sans-Serif" font-size="10.00" fill="#000000">game_sp</text>
</a>
</g>
</g>
<!-- Node263&#45;&gt;Node264 -->
<g id="edge2" class="edge">
<title>Node263&#45;&gt;Node264</title>
<path fill="none" stroke="#191970" d="M193.2983,-38.3333C202.6727,-39.9749 212.0851,-41.6232 220.4152,-43.0819"/>
<polygon fill="#191970" stroke="#191970" points="193.6477,-34.8413 183.1938,-36.5639 192.4402,-41.7364 193.6477,-34.8413"/>
</g>
<!-- Node268 -->
<g id="node7" class="node">
<title>Node268</title>
<g id="a_node7"><a xlink:href="game_8h.html#a03f40ddf75045683b3f488d4839937ab" target="_top" xlink:title="Multiplayer. ">
<polygon fill="#ffffff" stroke="#000000" points="219,-.5 219,-19.5 278,-19.5 278,-.5 219,-.5"/>
<text text-anchor="middle" x="248.5" y="-7.5" font-family="Helvetica,sans-Serif" font-size="10.00" fill="#000000">game_mp</text>
</a>
</g>
</g>
<!-- Node263&#45;&gt;Node268 -->
<g id="edge6" class="edge">
<title>Node263&#45;&gt;Node268</title>
<path fill="none" stroke="#191970" d="M193.1035,-19.7008C201.9402,-18.1533 210.8175,-16.5988 218.797,-15.2014"/>
<polygon fill="#191970" stroke="#191970" points="192.4402,-16.2636 183.1938,-21.4361 193.6477,-23.1587 192.4402,-16.2636"/>
</g>
<!-- Node265 -->
<g id="node4" class="node">
<title>Node265</title>
<g id="a_node4"><a xlink:href="menu_8h.html#a95c8dcba38d720d3e4bd6fcf9a8ee279" target="_top" xlink:title="selects a menu option ">
<polygon fill="#ffffff" stroke="#000000" points="314,-19.5 314,-38.5 405,-38.5 405,-19.5 314,-19.5"/>
<text text-anchor="middle" x="359.5" y="-26.5" font-family="Helvetica,sans-Serif" font-size="10.00" fill="#000000">select_menu_opt</text>
</a>
</g>
</g>
<!-- Node264&#45;&gt;Node265 -->
<g id="edge3" class="edge">
<title>Node264&#45;&gt;Node265</title>
<path fill="none" stroke="#191970" d="M286.4694,-41.5007C295.2612,-39.9958 304.707,-38.379 313.7914,-36.824"/>
<polygon fill="#191970" stroke="#191970" points="285.7761,-38.0684 276.51,-43.2055 286.9572,-44.9681 285.7761,-38.0684"/>
</g>
<!-- Node266 -->
<g id="node5" class="node">
<title>Node266</title>
<g id="a_node5"><a xlink:href="menu_8h.html#a6ed6ac9188a15c74b9d07d12b34397c0" target="_top" xlink:title="Subscribes interruptions of the necessary modules Calls main menu and game functions. ">
<polygon fill="#ffffff" stroke="#000000" points="441,-19.5 441,-38.5 533,-38.5 533,-19.5 441,-19.5"/>
<text text-anchor="middle" x="487" y="-26.5" font-family="Helvetica,sans-Serif" font-size="10.00" fill="#000000">game_main_cicle</text>
</a>
</g>
</g>
<!-- Node265&#45;&gt;Node266 -->
<g id="edge4" class="edge">
<title>Node265&#45;&gt;Node266</title>
<path fill="none" stroke="#191970" d="M415.3846,-29C423.8691,-29 432.5423,-29 440.7907,-29"/>
<polygon fill="#191970" stroke="#191970" points="415.1703,-25.5001 405.1703,-29 415.1703,-32.5001 415.1703,-25.5001"/>
</g>
<!-- Node267 -->
<g id="node6" class="node">
<title>Node267</title>
<g id="a_node6"><a xlink:href="proj_8c.html#a2a16f651eccbd248e1ad3b3b924b143b" target="_top" xlink:title="proj_main_loop">
<polygon fill="#ffffff" stroke="#000000" points="569,-19.5 569,-38.5 651,-38.5 651,-19.5 569,-19.5"/>
<text text-anchor="middle" x="610" y="-26.5" font-family="Helvetica,sans-Serif" font-size="10.00" fill="#000000">proj_main_loop</text>
</a>
</g>
</g>
<!-- Node266&#45;&gt;Node267 -->
<g id="edge5" class="edge">
<title>Node266&#45;&gt;Node267</title>
<path fill="none" stroke="#191970" d="M543.1908,-29C551.8339,-29 560.6179,-29 568.8531,-29"/>
<polygon fill="#191970" stroke="#191970" points="543.1506,-25.5001 533.1506,-29 543.1506,-32.5001 543.1506,-25.5001"/>
</g>
<!-- Node268&#45;&gt;Node265 -->
<g id="edge7" class="edge">
<title>Node268&#45;&gt;Node265</title>
<path fill="none" stroke="#191970" d="M288.3594,-16.8228C296.6038,-18.234 305.3495,-19.731 313.7839,-21.1747"/>
<polygon fill="#191970" stroke="#191970" points="288.6931,-13.3291 278.246,-15.0917 287.5121,-20.2287 288.6931,-13.3291"/>
</g>
</g>
</svg>
