<?xml version="1.0" encoding="UTF-8" standalone="no"?>
<!DOCTYPE svg PUBLIC "-//W3C//DTD SVG 1.1//EN"
 "http://www.w3.org/Graphics/SVG/1.1/DTD/svg11.dtd">
<!-- Generated by graphviz version 2.40.1 (20161225.0304)
 -->
<!-- Title: game_sp Pages: 1 -->
<svg width="437pt" height="28pt"
 viewBox="0.00 0.00 437.00 28.00" xmlns="http://www.w3.org/2000/svg" xmlns:xlink="http://www.w3.org/1999/xlink">
<g id="graph0" class="graph" transform="scale(1 1) rotate(0) translate(4 24)">
<title>game_sp</title>
<polygon fill="#ffffff" stroke="transparent" points="-4,4 -4,-24 433,-24 433,4 -4,4"/>
<!-- Node217 -->
<g id="node1" class="node">
<title>Node217</title>
<polygon fill="#bfbfbf" stroke="#000000" points="0,-.5 0,-19.5 56,-19.5 56,-.5 0,-.5"/>
<text text-anchor="middle" x="28" y="-7.5" font-family="Helvetica,sans-Serif" font-size="10.00" fill="#000000">game_sp</text>
</g>
<!-- Node218 -->
<g id="node2" class="node">
<title>Node218</title>
<g id="a_node2"><a xlink:href="menu_8h.html#a95c8dcba38d720d3e4bd6fcf9a8ee279" target="_top" xlink:title="selects a menu option ">
<polygon fill="#ffffff" stroke="#000000" points="92,-.5 92,-19.5 183,-19.5 183,-.5 92,-.5"/>
<text text-anchor="middle" x="137.5" y="-7.5" font-family="Helvetica,sans-Serif" font-size="10.00" fill="#000000">select_menu_opt</text>
</a>
</g>
</g>
<!-- Node217&#45;&gt;Node218 -->
<g id="edge1" class="edge">
<title>Node217&#45;&gt;Node218</title>
<path fill="none" stroke="#191970" d="M66.3311,-10C74.6145,-10 83.4504,-10 91.9788,-10"/>
<polygon fill="#191970" stroke="#191970" points="66.199,-6.5001 56.199,-10 66.1989,-13.5001 66.199,-6.5001"/>
</g>
<!-- Node219 -->
<g id="node3" class="node">
<title>Node219</title>
<g id="a_node3"><a xlink:href="menu_8h.html#a6ed6ac9188a15c74b9d07d12b34397c0" target="_top" xlink:title="Subscribes interruptions of the necessary modules Calls main menu and game functions. ">
<polygon fill="#ffffff" stroke="#000000" points="219,-.5 219,-19.5 311,-19.5 311,-.5 219,-.5"/>
<text text-anchor="middle" x="265" y="-7.5" font-family="Helvetica,sans-Serif" font-size="10.00" fill="#000000">game_main_cicle</text>
</a>
</g>
</g>
<!-- Node218&#45;&gt;Node219 -->
<g id="edge2" class="edge">
<title>Node218&#45;&gt;Node219</title>
<path fill="none" stroke="#191970" d="M193.3846,-10C201.8691,-10 210.5423,-10 218.7907,-10"/>
<polygon fill="#191970" stroke="#191970" points="193.1703,-6.5001 183.1703,-10 193.1703,-13.5001 193.1703,-6.5001"/>
</g>
<!-- Node220 -->
<g id="node4" class="node">
<title>Node220</title>
<g id="a_node4"><a xlink:href="proj_8c.html#a2a16f651eccbd248e1ad3b3b924b143b" target="_top" xlink:title="proj_main_loop">
<polygon fill="#ffffff" stroke="#000000" points="347,-.5 347,-19.5 429,-19.5 429,-.5 347,-.5"/>
<text text-anchor="middle" x="388" y="-7.5" font-family="Helvetica,sans-Serif" font-size="10.00" fill="#000000">proj_main_loop</text>
</a>
</g>
</g>
<!-- Node219&#45;&gt;Node220 -->
<g id="edge3" class="edge">
<title>Node219&#45;&gt;Node220</title>
<path fill="none" stroke="#191970" d="M321.1908,-10C329.8339,-10 338.6179,-10 346.8531,-10"/>
<polygon fill="#191970" stroke="#191970" points="321.1506,-6.5001 311.1506,-10 321.1506,-13.5001 321.1506,-6.5001"/>
</g>
</g>
</svg>
