<?xml version="1.0" encoding="UTF-8" standalone="no"?>
<!DOCTYPE svg PUBLIC "-//W3C//DTD SVG 1.1//EN"
 "http://www.w3.org/Graphics/SVG/1.1/DTD/svg11.dtd">
<!-- Generated by graphviz version 2.40.1 (20161225.0304)
 -->
<!-- Title: game_init_board Pages: 1 -->
<svg width="775pt" height="529pt"
 viewBox="0.00 0.00 775.00 528.55" xmlns="http://www.w3.org/2000/svg" xmlns:xlink="http://www.w3.org/1999/xlink">
<g id="graph0" class="graph" transform="scale(1 1) rotate(0) translate(4 524.5458)">
<title>game_init_board</title>
<polygon fill="#ffffff" stroke="transparent" points="-4,4 -4,-524.5458 771,-524.5458 771,4 -4,4"/>
<!-- Node0 -->
<g id="node1" class="node">
<title>Node0</title>
<polygon fill="#bfbfbf" stroke="#000000" points="0,-211.9499 0,-230.9499 88,-230.9499 88,-211.9499 0,-211.9499"/>
<text text-anchor="middle" x="44" y="-218.9499" font-family="Helvetica,sans-Serif" font-size="10.00" fill="#000000">game_init_board</text>
</g>
<!-- Node1 -->
<g id="node2" class="node">
<title>Node1</title>
<g id="a_node2"><a xlink:href="sprite_8c.html#ab67f095900ba6092fed7f581886f28c6" target="_top" xlink:title="create_sprite">
<polygon fill="#ffffff" stroke="#000000" points="426.5,-496.9499 426.5,-515.9499 499.5,-515.9499 499.5,-496.9499 426.5,-496.9499"/>
<text text-anchor="middle" x="463" y="-503.9499" font-family="Helvetica,sans-Serif" font-size="10.00" fill="#000000">create_sprite</text>
</a>
</g>
</g>
<!-- Node0&#45;&gt;Node1 -->
<g id="edge1" class="edge">
<title>Node0&#45;&gt;Node1</title>
<path fill="none" stroke="#191970" d="M44.7514,-231.013C47.907,-265.0628 62.9168,-381.957 124,-449.4499 198.1053,-531.3313 342.2039,-524.6209 416.3887,-514.6112"/>
<polygon fill="#191970" stroke="#191970" points="416.9726,-518.0634 426.3779,-513.1857 415.9837,-511.1336 416.9726,-518.0634"/>
</g>
<!-- Node2 -->
<g id="node3" class="node">
<title>Node2</title>
<g id="a_node3"><a xlink:href="board_8c.html#ae77f988d7fd295ac883560b379f2e26d" target="_top" xlink:title="Creates boat objects and loads them into an array. ">
<polygon fill="#ffffff" stroke="#000000" points="135,-420.9499 135,-439.9499 199,-439.9499 199,-420.9499 135,-420.9499"/>
<text text-anchor="middle" x="167" y="-427.9499" font-family="Helvetica,sans-Serif" font-size="10.00" fill="#000000">load_boats</text>
</a>
</g>
</g>
<!-- Node0&#45;&gt;Node2 -->
<g id="edge2" class="edge">
<title>Node0&#45;&gt;Node2</title>
<path fill="none" stroke="#191970" d="M49.6047,-230.9732C68.6145,-263.2746 130.8588,-369.0391 156.1602,-412.031"/>
<polygon fill="#191970" stroke="#191970" points="153.274,-414.0275 161.3624,-420.8705 159.3068,-410.477 153.274,-414.0275"/>
</g>
<!-- Node4 -->
<g id="node5" class="node">
<title>Node4</title>
<g id="a_node5"><a xlink:href="interrupt__cicle_8c.html#a0718d5c75848a080a2122df6548d2422" target="_top" xlink:title="Receives and handles interruptions from the necessary modules. ">
<polygon fill="#ffffff" stroke="#000000" points="128.5,-325.9499 128.5,-344.9499 205.5,-344.9499 205.5,-325.9499 128.5,-325.9499"/>
<text text-anchor="middle" x="167" y="-332.9499" font-family="Helvetica,sans-Serif" font-size="10.00" fill="#000000">interrupt_cicle</text>
</a>
</g>
</g>
<!-- Node0&#45;&gt;Node4 -->
<g id="edge5" class="edge">
<title>Node0&#45;&gt;Node4</title>
<path fill="none" stroke="#191970" d="M54.4869,-231.1694C75.4557,-250.6039 122.7752,-294.461 148.8725,-318.6488"/>
<polygon fill="#191970" stroke="#191970" points="146.8261,-321.5242 156.5396,-325.7549 151.5845,-316.3902 146.8261,-321.5242"/>
</g>
<!-- Node14 -->
<g id="node15" class="node">
<title>Node14</title>
<g id="a_node15"><a xlink:href="interrupt__cicle_8c.html#ae96d62d9643ecb59a9a8a7828dfc1860" target="_top" xlink:title="get_int_data">
<polygon fill="#ffffff" stroke="#000000" points="269,-173.9499 269,-192.9499 339,-192.9499 339,-173.9499 269,-173.9499"/>
<text text-anchor="middle" x="304" y="-180.9499" font-family="Helvetica,sans-Serif" font-size="10.00" fill="#000000">get_int_data</text>
</a>
</g>
</g>
<!-- Node0&#45;&gt;Node14 -->
<g id="edge16" class="edge">
<title>Node0&#45;&gt;Node14</title>
<path fill="none" stroke="#191970" d="M88.1055,-215.0037C135.6174,-208.0596 210.8357,-197.0662 258.7769,-190.0594"/>
<polygon fill="#191970" stroke="#191970" points="259.479,-193.494 268.8677,-188.5846 258.4666,-186.5676 259.479,-193.494"/>
</g>
<!-- Node15 -->
<g id="node16" class="node">
<title>Node15</title>
<g id="a_node16"><a xlink:href="board_8c.html#a381a21388b9cb70e9bfaf870ac1f7130" target="_top" xlink:title="Iterates over a boat array and shows the boats. ">
<polygon fill="#ffffff" stroke="#000000" points="133.5,-249.9499 133.5,-268.9499 200.5,-268.9499 200.5,-249.9499 133.5,-249.9499"/>
<text text-anchor="middle" x="167" y="-256.9499" font-family="Helvetica,sans-Serif" font-size="10.00" fill="#000000">draw_boats</text>
</a>
</g>
</g>
<!-- Node0&#45;&gt;Node15 -->
<g id="edge17" class="edge">
<title>Node0&#45;&gt;Node15</title>
<path fill="none" stroke="#191970" d="M75.0381,-231.0389C90.4792,-235.8093 109.3478,-241.6386 125.9661,-246.7727"/>
<polygon fill="#191970" stroke="#191970" points="125.3843,-250.2561 135.9718,-249.8639 127.4506,-243.568 125.3843,-250.2561"/>
</g>
<!-- Node16 -->
<g id="node17" class="node">
<title>Node16</title>
<g id="a_node17"><a xlink:href="sprite_8c.html#ab0c8b8caefb74f2cf7c79ffb254c4ac4" target="_top" xlink:title="Shows the sprite. ">
<polygon fill="#ffffff" stroke="#000000" points="270.5,-211.9499 270.5,-230.9499 337.5,-230.9499 337.5,-211.9499 270.5,-211.9499"/>
<text text-anchor="middle" x="304" y="-218.9499" font-family="Helvetica,sans-Serif" font-size="10.00" fill="#000000">draw_sprite</text>
</a>
</g>
</g>
<!-- Node0&#45;&gt;Node16 -->
<g id="edge23" class="edge">
<title>Node0&#45;&gt;Node16</title>
<path fill="none" stroke="#191970" d="M88.1055,-221.4499C136.1573,-221.4499 212.5488,-221.4499 260.4006,-221.4499"/>
<polygon fill="#191970" stroke="#191970" points="260.4506,-224.95 270.4506,-221.4499 260.4505,-217.95 260.4506,-224.95"/>
</g>
<!-- Node20 -->
<g id="node21" class="node">
<title>Node20</title>
<g id="a_node21"><a xlink:href="graphic_8c.html#a541e181cdbfecf6110d4d4c3ee087c30" target="_top" xlink:title="get_video_mem">
<polygon fill="#ffffff" stroke="#000000" points="124,-135.9499 124,-154.9499 210,-154.9499 210,-135.9499 124,-135.9499"/>
<text text-anchor="middle" x="167" y="-142.9499" font-family="Helvetica,sans-Serif" font-size="10.00" fill="#000000">get_video_mem</text>
</a>
</g>
</g>
<!-- Node0&#45;&gt;Node20 -->
<g id="edge24" class="edge">
<title>Node0&#45;&gt;Node20</title>
<path fill="none" stroke="#191970" d="M58.2671,-211.7604C74.127,-201.0876 100.5951,-183.5662 124,-169.4499 129.2527,-166.2817 134.9388,-163.0042 140.4028,-159.9275"/>
<polygon fill="#191970" stroke="#191970" points="142.2349,-162.9135 149.2727,-154.9939 138.8323,-156.7961 142.2349,-162.9135"/>
</g>
<!-- Node21 -->
<g id="node22" class="node">
<title>Node21</title>
<g id="a_node22"><a xlink:href="state__machine_8c.html#aa5f2f1b1392cbe33e1401ee41fb7d3ba" target="_top" xlink:title="State Machine used for dragging and droping boats Places boats on the board and updates the atributes...">
<polygon fill="#ffffff" stroke="#000000" points="124,-97.9499 124,-116.9499 210,-116.9499 210,-97.9499 124,-97.9499"/>
<text text-anchor="middle" x="167" y="-104.9499" font-family="Helvetica,sans-Serif" font-size="10.00" fill="#000000">select_boat_sm</text>
</a>
</g>
</g>
<!-- Node0&#45;&gt;Node21 -->
<g id="edge25" class="edge">
<title>Node0&#45;&gt;Node21</title>
<path fill="none" stroke="#191970" d="M49.9157,-211.8486C61.8481,-193.1631 90.5353,-151.5475 124,-126.4499 126.1894,-124.8079 128.5429,-123.2701 130.9801,-121.8373"/>
<polygon fill="#191970" stroke="#191970" points="132.7854,-124.8431 140.028,-117.1104 129.544,-118.6388 132.7854,-124.8431"/>
</g>
<!-- Node23 -->
<g id="node24" class="node">
<title>Node23</title>
<g id="a_node24"><a xlink:href="sprite_8c.html#a999c54879ed9502affbd8d65ecfd1b83" target="_top" xlink:title="Checks sprite collision between two sprites. ">
<polygon fill="#ffffff" stroke="#000000" points="406.5,-2.9499 406.5,-21.9499 519.5,-21.9499 519.5,-2.9499 406.5,-2.9499"/>
<text text-anchor="middle" x="463" y="-9.9499" font-family="Helvetica,sans-Serif" font-size="10.00" fill="#000000">check_sprite_collision</text>
</a>
</g>
</g>
<!-- Node0&#45;&gt;Node23 -->
<g id="edge36" class="edge">
<title>Node0&#45;&gt;Node23</title>
<path fill="none" stroke="#191970" d="M47.9325,-211.7205C57.8062,-188.2199 85.6245,-127.4287 124,-88.4499 168.8181,-42.9271 184.58,-30.0159 246,-12.4499 294.7906,1.5042 352.3152,.7736 395.8744,-3.0515"/>
<polygon fill="#191970" stroke="#191970" points="395.7822,-6.5585 406.0697,-4.0251 396.4477,.4098 395.7822,-6.5585"/>
</g>
<!-- Node3 -->
<g id="node4" class="node">
<title>Node3</title>
<g id="a_node4"><a xlink:href="boat_8c.html#a5841281c2167da2f3adcd0f7a1a48a1a" target="_top" xlink:title="Creates a boat object. ">
<polygon fill="#ffffff" stroke="#000000" points="270,-477.9499 270,-496.9499 338,-496.9499 338,-477.9499 270,-477.9499"/>
<text text-anchor="middle" x="304" y="-484.9499" font-family="Helvetica,sans-Serif" font-size="10.00" fill="#000000">create_boat</text>
</a>
</g>
</g>
<!-- Node2&#45;&gt;Node3 -->
<g id="edge3" class="edge">
<title>Node2&#45;&gt;Node3</title>
<path fill="none" stroke="#191970" d="M185.2077,-440.0554C201.0248,-448.1935 224.679,-459.8732 246,-468.4499 251.4159,-470.6285 257.1871,-472.7494 262.9096,-474.7365"/>
<polygon fill="#191970" stroke="#191970" points="261.829,-478.0657 272.4231,-477.9409 264.0635,-471.4319 261.829,-478.0657"/>
</g>
<!-- Node3&#45;&gt;Node1 -->
<g id="edge4" class="edge">
<title>Node3&#45;&gt;Node1</title>
<path fill="none" stroke="#191970" d="M338.1095,-491.5258C360.9663,-494.2571 391.351,-497.888 416.4271,-500.8845"/>
<polygon fill="#191970" stroke="#191970" points="416.1113,-504.3716 426.4559,-502.083 416.9419,-497.4211 416.1113,-504.3716"/>
</g>
<!-- Node5 -->
<g id="node6" class="node">
<title>Node5</title>
<g id="a_node6"><a xlink:href="mouse_8c.html#a210374b50462acdedab00df64d5cea3c" target="_top" xlink:title="Mouse IH. ">
<polygon fill="#ffffff" stroke="#000000" points="274.5,-325.9499 274.5,-344.9499 333.5,-344.9499 333.5,-325.9499 274.5,-325.9499"/>
<text text-anchor="middle" x="304" y="-332.9499" font-family="Helvetica,sans-Serif" font-size="10.00" fill="#000000">mouse_ih</text>
</a>
</g>
</g>
<!-- Node4&#45;&gt;Node5 -->
<g id="edge6" class="edge">
<title>Node4&#45;&gt;Node5</title>
<path fill="none" stroke="#191970" d="M205.5267,-335.4499C223.8718,-335.4499 245.7896,-335.4499 264.2851,-335.4499"/>
<polygon fill="#191970" stroke="#191970" points="264.4444,-338.95 274.4443,-335.4499 264.4443,-331.95 264.4444,-338.95"/>
</g>
<!-- Node7 -->
<g id="node8" class="node">
<title>Node7</title>
<g id="a_node8"><a xlink:href="mouse_8c.html#a4f0a0dc9001ebefef3a416dd9b882b97" target="_top" xlink:title="Initiates the mouse packet member. ">
<polygon fill="#ffffff" stroke="#000000" points="272,-287.9499 272,-306.9499 336,-306.9499 336,-287.9499 272,-287.9499"/>
<text text-anchor="middle" x="304" y="-294.9499" font-family="Helvetica,sans-Serif" font-size="10.00" fill="#000000">init_packet</text>
</a>
</g>
</g>
<!-- Node4&#45;&gt;Node7 -->
<g id="edge8" class="edge">
<title>Node4&#45;&gt;Node7</title>
<path fill="none" stroke="#191970" d="M201.5709,-325.8608C219.9313,-320.7682 242.6425,-314.4687 262.0104,-309.0966"/>
<polygon fill="#191970" stroke="#191970" points="263.0923,-312.4287 271.793,-306.3832 261.2213,-305.6834 263.0923,-312.4287"/>
</g>
<!-- Node8 -->
<g id="node9" class="node">
<title>Node8</title>
<g id="a_node9"><a xlink:href="mouse_8c.html#a2ce59763196c5a8a030a47599b6a160e" target="_top" xlink:title="Get the cnt bytes. ">
<polygon fill="#ffffff" stroke="#000000" points="265,-249.9499 265,-268.9499 343,-268.9499 343,-249.9499 265,-249.9499"/>
<text text-anchor="middle" x="304" y="-256.9499" font-family="Helvetica,sans-Serif" font-size="10.00" fill="#000000">get_cnt_bytes</text>
</a>
</g>
</g>
<!-- Node4&#45;&gt;Node8 -->
<g id="edge9" class="edge">
<title>Node4&#45;&gt;Node8</title>
<path fill="none" stroke="#191970" d="M178.0512,-325.7604C192.7027,-313.3337 219.7736,-291.7982 246,-278.4499 250.2612,-276.281 254.8224,-274.2864 259.4452,-272.4721"/>
<polygon fill="#191970" stroke="#191970" points="260.7521,-275.7209 268.9447,-269.0028 258.3508,-269.1457 260.7521,-275.7209"/>
</g>
<!-- Node9 -->
<g id="node10" class="node">
<title>Node9</title>
<g id="a_node10"><a xlink:href="kbd_8c.html#aea970a154161a35f6894898a092ed70a" target="_top" xlink:title="Keyboard IH. ">
<polygon fill="#ffffff" stroke="#000000" points="281.5,-439.9499 281.5,-458.9499 326.5,-458.9499 326.5,-439.9499 281.5,-439.9499"/>
<text text-anchor="middle" x="304" y="-446.9499" font-family="Helvetica,sans-Serif" font-size="10.00" fill="#000000">kbc_ih</text>
</a>
</g>
</g>
<!-- Node4&#45;&gt;Node9 -->
<g id="edge10" class="edge">
<title>Node4&#45;&gt;Node9</title>
<path fill="none" stroke="#191970" d="M172.4257,-345.0567C183.6752,-364.126 211.4026,-406.9411 246,-430.4499 253.7049,-435.6853 262.958,-439.5656 271.7873,-442.4041"/>
<polygon fill="#191970" stroke="#191970" points="270.8931,-445.7888 281.4706,-445.1829 272.824,-439.0603 270.8931,-445.7888"/>
</g>
<!-- Node10 -->
<g id="node11" class="node">
<title>Node10</title>
<g id="a_node11"><a xlink:href="timer_8c.html#ac7c3715c83c45c6411f9f3f9f6cf8c7f" target="_top" xlink:title="Timer IH. ">
<polygon fill="#ffffff" stroke="#000000" points="246,-401.9499 246,-420.9499 362,-420.9499 362,-401.9499 246,-401.9499"/>
<text text-anchor="middle" x="304" y="-408.9499" font-family="Helvetica,sans-Serif" font-size="10.00" fill="#000000">timer_interrupt_handler</text>
</a>
</g>
</g>
<!-- Node4&#45;&gt;Node10 -->
<g id="edge11" class="edge">
<title>Node4&#45;&gt;Node10</title>
<path fill="none" stroke="#191970" d="M178.0512,-345.1393C192.7027,-357.566 219.7736,-379.1015 246,-392.4499 250.2612,-394.6187 254.8224,-396.6133 259.4452,-398.4277"/>
<polygon fill="#191970" stroke="#191970" points="258.3508,-401.754 268.9447,-401.8969 260.7521,-395.1788 258.3508,-401.754"/>
</g>
<!-- Node11 -->
<g id="node12" class="node">
<title>Node11</title>
<g id="a_node12"><a xlink:href="interrupt__cicle_8c.html#a3cd9db2b8c583d8e97d9865c1a4802a9" target="_top" xlink:title="Initializes the interrupt_data struct tot be used in other files. ">
<polygon fill="#ffffff" stroke="#000000" points="269.5,-363.9499 269.5,-382.9499 338.5,-382.9499 338.5,-363.9499 269.5,-363.9499"/>
<text text-anchor="middle" x="304" y="-370.9499" font-family="Helvetica,sans-Serif" font-size="10.00" fill="#000000">init_int_data</text>
</a>
</g>
</g>
<!-- Node4&#45;&gt;Node11 -->
<g id="edge12" class="edge">
<title>Node4&#45;&gt;Node11</title>
<path fill="none" stroke="#191970" d="M201.5709,-345.0389C219.1752,-349.9218 240.7793,-355.9142 259.601,-361.1348"/>
<polygon fill="#191970" stroke="#191970" points="258.8685,-364.5637 269.4402,-363.8639 260.7395,-357.8184 258.8685,-364.5637"/>
</g>
<!-- Node6 -->
<g id="node7" class="node">
<title>Node6</title>
<g id="a_node7"><a xlink:href="mouse_8c.html#a4a11876c724ae443363cf5971f1558e7" target="_top" xlink:title="Empties a mouse packet. ">
<polygon fill="#ffffff" stroke="#000000" points="424,-325.9499 424,-344.9499 502,-344.9499 502,-325.9499 424,-325.9499"/>
<text text-anchor="middle" x="463" y="-332.9499" font-family="Helvetica,sans-Serif" font-size="10.00" fill="#000000">empty_packet</text>
</a>
</g>
</g>
<!-- Node5&#45;&gt;Node6 -->
<g id="edge7" class="edge">
<title>Node5&#45;&gt;Node6</title>
<path fill="none" stroke="#191970" d="M333.534,-335.4499C355.9713,-335.4499 387.3381,-335.4499 413.5775,-335.4499"/>
<polygon fill="#191970" stroke="#191970" points="413.723,-338.95 423.7229,-335.4499 413.7229,-331.95 413.723,-338.95"/>
</g>
<!-- Node11&#45;&gt;Node6 -->
<g id="edge14" class="edge">
<title>Node11&#45;&gt;Node6</title>
<path fill="none" stroke="#191970" d="M338.5006,-365.2044C360.5761,-359.9285 389.5538,-353.003 413.9976,-347.1611"/>
<polygon fill="#191970" stroke="#191970" points="414.9005,-350.544 423.813,-344.8153 413.2733,-343.7357 414.9005,-350.544"/>
</g>
<!-- Node12 -->
<g id="node13" class="node">
<title>Node12</title>
<g id="a_node13"><a xlink:href="mouse_8c.html#a56a5da7f70edb0bb5db9910981ef65f9" target="_top" xlink:title="Get packet struct. ">
<polygon fill="#ffffff" stroke="#000000" points="430.5,-401.9499 430.5,-420.9499 495.5,-420.9499 495.5,-401.9499 430.5,-401.9499"/>
<text text-anchor="middle" x="463" y="-408.9499" font-family="Helvetica,sans-Serif" font-size="10.00" fill="#000000">get_packet</text>
</a>
</g>
</g>
<!-- Node11&#45;&gt;Node12 -->
<g id="edge13" class="edge">
<title>Node11&#45;&gt;Node12</title>
<path fill="none" stroke="#191970" d="M338.5006,-381.6953C362.6093,-387.4571 394.9504,-395.1864 420.6275,-401.3231"/>
<polygon fill="#191970" stroke="#191970" points="419.9261,-404.754 430.4658,-403.6744 421.5533,-397.9457 419.9261,-404.754"/>
</g>
<!-- Node13 -->
<g id="node14" class="node">
<title>Node13</title>
<g id="a_node14"><a xlink:href="kbd_8c.html#aabe32d3d3ebb9ccff7ca4b7992f48209" target="_top" xlink:title="Get the scancode. ">
<polygon fill="#ffffff" stroke="#000000" points="424.5,-363.9499 424.5,-382.9499 501.5,-382.9499 501.5,-363.9499 424.5,-363.9499"/>
<text text-anchor="middle" x="463" y="-370.9499" font-family="Helvetica,sans-Serif" font-size="10.00" fill="#000000">get_scancode</text>
</a>
</g>
</g>
<!-- Node11&#45;&gt;Node13 -->
<g id="edge15" class="edge">
<title>Node11&#45;&gt;Node13</title>
<path fill="none" stroke="#191970" d="M338.5006,-373.4499C360.6378,-373.4499 389.7159,-373.4499 414.2026,-373.4499"/>
<polygon fill="#191970" stroke="#191970" points="414.3822,-376.95 424.3821,-373.4499 414.3821,-369.95 414.3822,-376.95"/>
</g>
<!-- Node15&#45;&gt;Node16 -->
<g id="edge18" class="edge">
<title>Node15&#45;&gt;Node16</title>
<path fill="none" stroke="#191970" d="M200.514,-250.154C218.5926,-245.1395 241.1155,-238.8923 260.5288,-233.5076"/>
<polygon fill="#191970" stroke="#191970" points="261.6565,-236.827 270.3572,-230.7814 259.7855,-230.0816 261.6565,-236.827"/>
</g>
<!-- Node17 -->
<g id="node18" class="node">
<title>Node17</title>
<g id="a_node18"><a xlink:href="graphic_8c.html#a461a83bf6ebfd3b6dc95ca3962858d3d" target="_top" xlink:title="Copies the xmp into the video mem. ">
<polygon fill="#ffffff" stroke="#000000" points="432,-211.9499 432,-230.9499 494,-230.9499 494,-211.9499 432,-211.9499"/>
<text text-anchor="middle" x="463" y="-218.9499" font-family="Helvetica,sans-Serif" font-size="10.00" fill="#000000">draw_xpm</text>
</a>
</g>
</g>
<!-- Node16&#45;&gt;Node17 -->
<g id="edge19" class="edge">
<title>Node16&#45;&gt;Node17</title>
<path fill="none" stroke="#191970" d="M337.7198,-221.4499C362.1563,-221.4499 395.3466,-221.4499 421.4257,-221.4499"/>
<polygon fill="#191970" stroke="#191970" points="421.7587,-224.95 431.7587,-221.4499 421.7586,-217.95 421.7587,-224.95"/>
</g>
<!-- Node18 -->
<g id="node19" class="node">
<title>Node18</title>
<g id="a_node19"><a xlink:href="graphic_8c.html#a89e5e15fb2c065221f58c6d883da6049" target="_top" xlink:title="get_bytes_per_pixel">
<polygon fill="#ffffff" stroke="#000000" points="663,-211.9499 663,-230.9499 767,-230.9499 767,-211.9499 663,-211.9499"/>
<text text-anchor="middle" x="715" y="-218.9499" font-family="Helvetica,sans-Serif" font-size="10.00" fill="#000000">get_bytes_per_pixel</text>
</a>
</g>
</g>
<!-- Node17&#45;&gt;Node18 -->
<g id="edge20" class="edge">
<title>Node17&#45;&gt;Node18</title>
<path fill="none" stroke="#191970" d="M494.1529,-221.4499C533.5761,-221.4499 602.4028,-221.4499 652.7689,-221.4499"/>
<polygon fill="#191970" stroke="#191970" points="652.9001,-224.95 662.9001,-221.4499 652.9001,-217.95 652.9001,-224.95"/>
</g>
<!-- Node19 -->
<g id="node20" class="node">
<title>Node19</title>
<g id="a_node20"><a xlink:href="graphic_8c.html#a90228825151958bdc7dfaffdbbd88494" target="_top" xlink:title="Calculates the color and sets the pixel in the video mem. ">
<polygon fill="#ffffff" stroke="#000000" points="564,-192.9499 564,-211.9499 627,-211.9499 627,-192.9499 564,-192.9499"/>
<text text-anchor="middle" x="595.5" y="-199.9499" font-family="Helvetica,sans-Serif" font-size="10.00" fill="#000000">draw_pixel</text>
</a>
</g>
</g>
<!-- Node17&#45;&gt;Node19 -->
<g id="edge21" class="edge">
<title>Node17&#45;&gt;Node19</title>
<path fill="none" stroke="#191970" d="M494.0654,-216.9952C511.8308,-214.4477 534.3515,-211.2183 553.6575,-208.4499"/>
<polygon fill="#191970" stroke="#191970" points="554.3071,-211.8927 563.709,-207.0086 553.3134,-204.9635 554.3071,-211.8927"/>
</g>
<!-- Node19&#45;&gt;Node18 -->
<g id="edge22" class="edge">
<title>Node19&#45;&gt;Node18</title>
<path fill="none" stroke="#191970" d="M627.2101,-207.4916C635.1477,-208.7537 643.9393,-210.1515 652.8028,-211.5608"/>
<polygon fill="#191970" stroke="#191970" points="652.3732,-215.0363 662.7988,-213.1501 653.4724,-208.1232 652.3732,-215.0363"/>
</g>
<!-- Node21&#45;&gt;Node14 -->
<g id="edge26" class="edge">
<title>Node21&#45;&gt;Node14</title>
<path fill="none" stroke="#191970" d="M193.3627,-117.1183C199.0819,-119.7481 204.931,-122.8749 210,-126.4499 229.012,-139.8581 226.3448,-152.0036 246,-164.4499 250.1459,-167.0752 254.69,-169.3724 259.3525,-171.3744"/>
<polygon fill="#191970" stroke="#191970" points="258.4095,-174.7615 268.9996,-175.0796 260.9193,-168.2268 258.4095,-174.7615"/>
</g>
<!-- Node22 -->
<g id="node23" class="node">
<title>Node22</title>
<g id="a_node23"><a xlink:href="board_8c.html#a1e9f126ea93fb3c584c5088151988bef" target="_top" xlink:title="Acerts wich boat has been selected. ">
<polygon fill="#ffffff" stroke="#000000" points="246,-21.9499 246,-40.9499 362,-40.9499 362,-21.9499 246,-21.9499"/>
<text text-anchor="middle" x="304" y="-28.9499" font-family="Helvetica,sans-Serif" font-size="10.00" fill="#000000">check_board_selection</text>
</a>
</g>
</g>
<!-- Node21&#45;&gt;Node22 -->
<g id="edge27" class="edge">
<title>Node21&#45;&gt;Node22</title>
<path fill="none" stroke="#191970" d="M179.9463,-97.8189C195.2196,-86.7235 221.6249,-68.3649 246,-55.4499 253.1091,-51.6831 260.9417,-48.0929 268.4891,-44.8906"/>
<polygon fill="#191970" stroke="#191970" points="269.9004,-48.0948 277.8208,-41.0579 267.2409,-41.6197 269.9004,-48.0948"/>
</g>
<!-- Node24 -->
<g id="node25" class="node">
<title>Node24</title>
<g id="a_node25"><a xlink:href="boat_8c.html#a52cf7f134f8345da0318d72d997063d3" target="_top" xlink:title="Rotates a boat. ">
<polygon fill="#ffffff" stroke="#000000" points="271.5,-135.9499 271.5,-154.9499 336.5,-154.9499 336.5,-135.9499 271.5,-135.9499"/>
<text text-anchor="middle" x="304" y="-142.9499" font-family="Helvetica,sans-Serif" font-size="10.00" fill="#000000">rotate_boat</text>
</a>
</g>
</g>
<!-- Node21&#45;&gt;Node24 -->
<g id="edge29" class="edge">
<title>Node21&#45;&gt;Node24</title>
<path fill="none" stroke="#191970" d="M201.5709,-117.0389C219.7963,-122.0941 242.3088,-128.3384 261.5826,-133.6844"/>
<polygon fill="#191970" stroke="#191970" points="260.7548,-137.0869 271.3265,-136.3871 262.6258,-130.3416 260.7548,-137.0869"/>
</g>
<!-- Node25 -->
<g id="node26" class="node">
<title>Node25</title>
<g id="a_node26"><a xlink:href="board_8c.html#ad6e9584e2541e9dac82e24ae2e1f1272" target="_top" xlink:title="Places a boat on the matrix using the sprite If the boat was previously placed on the matrix...">
<polygon fill="#ffffff" stroke="#000000" points="272,-97.9499 272,-116.9499 336,-116.9499 336,-97.9499 272,-97.9499"/>
<text text-anchor="middle" x="304" y="-104.9499" font-family="Helvetica,sans-Serif" font-size="10.00" fill="#000000">place_boat</text>
</a>
</g>
</g>
<!-- Node21&#45;&gt;Node25 -->
<g id="edge30" class="edge">
<title>Node21&#45;&gt;Node25</title>
<path fill="none" stroke="#191970" d="M210.3477,-107.4499C226.6814,-107.4499 245.2308,-107.4499 261.4875,-107.4499"/>
<polygon fill="#191970" stroke="#191970" points="261.7931,-110.95 271.793,-107.4499 261.793,-103.95 261.7931,-110.95"/>
</g>
<!-- Node28 -->
<g id="node29" class="node">
<title>Node28</title>
<g id="a_node29"><a xlink:href="board_8c.html#a5cc3d6d9b6f9475ba1cdc66468431694" target="_top" xlink:title="Removes a boat from the board matrix. ">
<polygon fill="#ffffff" stroke="#000000" points="398,-59.9499 398,-78.9499 528,-78.9499 528,-59.9499 398,-59.9499"/>
<text text-anchor="middle" x="463" y="-66.9499" font-family="Helvetica,sans-Serif" font-size="10.00" fill="#000000">remove_boat_from_matrix</text>
</a>
</g>
</g>
<!-- Node21&#45;&gt;Node28 -->
<g id="edge35" class="edge">
<title>Node21&#45;&gt;Node28</title>
<path fill="none" stroke="#191970" d="M201.7739,-97.9055C215.4647,-94.4589 231.3815,-90.8342 246,-88.4499 292.7224,-80.8293 345.6371,-76.1184 387.5169,-73.2937"/>
<polygon fill="#191970" stroke="#191970" points="387.8907,-76.7769 397.6415,-72.6329 387.4347,-69.7918 387.8907,-76.7769"/>
</g>
<!-- Node22&#45;&gt;Node23 -->
<g id="edge28" class="edge">
<title>Node22&#45;&gt;Node23</title>
<path fill="none" stroke="#191970" d="M362.3029,-24.4828C373.2958,-23.1692 384.872,-21.7859 396.1038,-20.4437"/>
<polygon fill="#191970" stroke="#191970" points="396.7812,-23.8878 406.2953,-19.2259 395.9506,-16.9372 396.7812,-23.8878"/>
</g>
<!-- Node26 -->
<g id="node27" class="node">
<title>Node26</title>
<g id="a_node27"><a xlink:href="board_8c.html#a94c2c1ad303e2a5b6d5927acad3af174" target="_top" xlink:title="Checks if a sprite has been placed inside the board matrix. ">
<polygon fill="#ffffff" stroke="#000000" points="405,-135.9499 405,-154.9499 521,-154.9499 521,-135.9499 405,-135.9499"/>
<text text-anchor="middle" x="463" y="-142.9499" font-family="Helvetica,sans-Serif" font-size="10.00" fill="#000000">check_matrix_collision</text>
</a>
</g>
</g>
<!-- Node25&#45;&gt;Node26 -->
<g id="edge31" class="edge">
<title>Node25&#45;&gt;Node26</title>
<path fill="none" stroke="#191970" d="M336.176,-115.1397C358.2861,-120.4239 388.0743,-127.5431 413.2254,-133.554"/>
<polygon fill="#191970" stroke="#191970" points="412.4277,-136.9619 422.9674,-135.8823 414.0549,-130.1536 412.4277,-136.9619"/>
</g>
<!-- Node27 -->
<g id="node28" class="node">
<title>Node27</title>
<g id="a_node28"><a xlink:href="board_8c.html#a3477a1d0ce52ed1ee03810f53bea8b68" target="_top" xlink:title="Checks if the boat can be placed in the given postion of the matrix. ">
<polygon fill="#ffffff" stroke="#000000" points="405.5,-97.9499 405.5,-116.9499 520.5,-116.9499 520.5,-97.9499 405.5,-97.9499"/>
<text text-anchor="middle" x="463" y="-104.9499" font-family="Helvetica,sans-Serif" font-size="10.00" fill="#000000">verify_boat_placement</text>
</a>
</g>
</g>
<!-- Node25&#45;&gt;Node27 -->
<g id="edge32" class="edge">
<title>Node25&#45;&gt;Node27</title>
<path fill="none" stroke="#191970" d="M336.176,-107.4499C353.1765,-107.4499 374.7163,-107.4499 395.1973,-107.4499"/>
<polygon fill="#191970" stroke="#191970" points="395.4604,-110.95 405.4604,-107.4499 395.4603,-103.95 395.4604,-110.95"/>
</g>
<!-- Node25&#45;&gt;Node28 -->
<g id="edge33" class="edge">
<title>Node25&#45;&gt;Node28</title>
<path fill="none" stroke="#191970" d="M336.176,-99.76C358.2861,-94.4758 388.0743,-87.3566 413.2254,-81.3457"/>
<polygon fill="#191970" stroke="#191970" points="414.0549,-84.7461 422.9674,-79.0174 412.4277,-77.9378 414.0549,-84.7461"/>
</g>
<!-- Node29 -->
<g id="node30" class="node">
<title>Node29</title>
<g id="a_node30"><a xlink:href="board_8c.html#a961d159f91ae9361f28e245e283df6ba" target="_top" xlink:title="Increments (with &#45;1) the surrounding cells of a boat Blocked cells range from &#45;1 to &#45;4...">
<polygon fill="#ffffff" stroke="#000000" points="409.5,-173.9499 409.5,-192.9499 516.5,-192.9499 516.5,-173.9499 409.5,-173.9499"/>
<text text-anchor="middle" x="463" y="-180.9499" font-family="Helvetica,sans-Serif" font-size="10.00" fill="#000000">block_adjacent_cells</text>
</a>
</g>
</g>
<!-- Node25&#45;&gt;Node29 -->
<g id="edge34" class="edge">
<title>Node25&#45;&gt;Node29</title>
<path fill="none" stroke="#191970" d="M336.2745,-114.9103C345.0183,-117.744 354.2117,-121.5181 362,-126.4499 381.6552,-138.8961 378.1471,-152.3215 398,-164.4499 401.5554,-166.6219 405.372,-168.5567 409.3094,-170.2782"/>
<polygon fill="#191970" stroke="#191970" points="408.0614,-173.5482 418.6497,-173.9197 410.6041,-167.0263 408.0614,-173.5482"/>
</g>
</g>
</svg>
