<?xml version="1.0" encoding="UTF-8" standalone="no"?>
<!DOCTYPE svg PUBLIC "-//W3C//DTD SVG 1.1//EN"
 "http://www.w3.org/Graphics/SVG/1.1/DTD/svg11.dtd">
<!-- Generated by graphviz version 2.40.1 (20161225.0304)
 -->
<!-- Title: game_round_sp Pages: 1 -->
<svg width="820pt" height="455pt"
 viewBox="0.00 0.00 820.00 455.00" xmlns="http://www.w3.org/2000/svg" xmlns:xlink="http://www.w3.org/1999/xlink">
<g id="graph0" class="graph" transform="scale(1 1) rotate(0) translate(4 451)">
<title>game_round_sp</title>
<polygon fill="#ffffff" stroke="transparent" points="-4,4 -4,-451 816,-451 816,4 -4,4"/>
<!-- Node137 -->
<g id="node1" class="node">
<title>Node137</title>
<polygon fill="#bfbfbf" stroke="#000000" points="0,-237.5 0,-256.5 86,-256.5 86,-237.5 0,-237.5"/>
<text text-anchor="middle" x="43" y="-244.5" font-family="Helvetica,sans-Serif" font-size="10.00" fill="#000000">game_round_sp</text>
</g>
<!-- Node138 -->
<g id="node2" class="node">
<title>Node138</title>
<g id="a_node2"><a xlink:href="board_8c.html#a97ebf6f6f65c53b49910187180bd5e67" target="_top" xlink:title="Converts the states of the matrix into objects and shows them. ">
<polygon fill="#ffffff" stroke="#000000" points="142.5,-351.5 142.5,-370.5 216.5,-370.5 216.5,-351.5 142.5,-351.5"/>
<text text-anchor="middle" x="179.5" y="-358.5" font-family="Helvetica,sans-Serif" font-size="10.00" fill="#000000">draw_objects</text>
</a>
</g>
</g>
<!-- Node137&#45;&gt;Node138 -->
<g id="edge1" class="edge">
<title>Node137&#45;&gt;Node138</title>
<path fill="none" stroke="#191970" d="M49.2648,-256.696C61.352,-274.731 89.5791,-313.7121 122,-337 127.5487,-340.9856 133.8593,-344.4654 140.2181,-347.4464"/>
<polygon fill="#191970" stroke="#191970" points="138.9183,-350.6976 149.4858,-351.4578 141.6988,-344.2735 138.9183,-350.6976"/>
</g>
<!-- Node139 -->
<g id="node3" class="node">
<title>Node139</title>
<g id="a_node3"><a xlink:href="sprite_8c.html#ab0c8b8caefb74f2cf7c79ffb254c4ac4" target="_top" xlink:title="Shows the sprite. ">
<polygon fill="#ffffff" stroke="#000000" points="297.5,-370.5 297.5,-389.5 364.5,-389.5 364.5,-370.5 297.5,-370.5"/>
<text text-anchor="middle" x="331" y="-377.5" font-family="Helvetica,sans-Serif" font-size="10.00" fill="#000000">draw_sprite</text>
</a>
</g>
</g>
<!-- Node137&#45;&gt;Node139 -->
<g id="edge22" class="edge">
<title>Node137&#45;&gt;Node139</title>
<path fill="none" stroke="#191970" d="M45.2645,-256.7303C51.8519,-282.5149 73.6839,-352.5023 122,-380 173.0523,-409.055 243.116,-401.3623 287.73,-391.7798"/>
<polygon fill="#191970" stroke="#191970" points="288.6945,-395.1499 297.6713,-389.5226 287.1445,-388.3237 288.6945,-395.1499"/>
</g>
<!-- Node140 -->
<g id="node4" class="node">
<title>Node140</title>
<g id="a_node4"><a xlink:href="graphic_8c.html#a461a83bf6ebfd3b6dc95ca3962858d3d" target="_top" xlink:title="Copies the xmp into the video mem. ">
<polygon fill="#ffffff" stroke="#000000" points="441.5,-342.5 441.5,-361.5 503.5,-361.5 503.5,-342.5 441.5,-342.5"/>
<text text-anchor="middle" x="472.5" y="-349.5" font-family="Helvetica,sans-Serif" font-size="10.00" fill="#000000">draw_xpm</text>
</a>
</g>
</g>
<!-- Node137&#45;&gt;Node140 -->
<g id="edge9" class="edge">
<title>Node137&#45;&gt;Node140</title>
<path fill="none" stroke="#191970" d="M59.0868,-256.5733C74.6703,-265.4477 99.2229,-278.3925 122,-286 230.4307,-322.2155 364.7617,-340.5219 431.2397,-347.9149"/>
<polygon fill="#191970" stroke="#191970" points="430.9926,-351.4085 441.3121,-349.0087 431.7485,-344.4494 430.9926,-351.4085"/>
</g>
<!-- Node143 -->
<g id="node7" class="node">
<title>Node143</title>
<g id="a_node7"><a xlink:href="board_8c.html#a63852514f51073a5cc620ff3985a6d77" target="_top" xlink:title="Iterates over the boats array and draws the ones wich have 0 hitpoints. ">
<polygon fill="#ffffff" stroke="#000000" points="122,-427.5 122,-446.5 237,-446.5 237,-427.5 122,-427.5"/>
<text text-anchor="middle" x="179.5" y="-434.5" font-family="Helvetica,sans-Serif" font-size="10.00" fill="#000000">draw_destroyed_boats</text>
</a>
</g>
</g>
<!-- Node137&#45;&gt;Node143 -->
<g id="edge7" class="edge">
<title>Node137&#45;&gt;Node143</title>
<path fill="none" stroke="#191970" d="M45.0342,-256.6757C51.3975,-284.6848 73.4646,-366.7761 122,-413 126.0635,-416.87 130.8412,-420.157 135.8768,-422.9385"/>
<polygon fill="#191970" stroke="#191970" points="134.5953,-426.2067 145.1209,-427.4158 137.6467,-419.9067 134.5953,-426.2067"/>
</g>
<!-- Node144 -->
<g id="node8" class="node">
<title>Node144</title>
<g id="a_node8"><a xlink:href="interrupt__cicle_8c.html#a0718d5c75848a080a2122df6548d2422" target="_top" xlink:title="Receives and handles interruptions from the necessary modules. ">
<polygon fill="#ffffff" stroke="#000000" points="434,-190.5 434,-209.5 511,-209.5 511,-190.5 434,-190.5"/>
<text text-anchor="middle" x="472.5" y="-197.5" font-family="Helvetica,sans-Serif" font-size="10.00" fill="#000000">interrupt_cicle</text>
</a>
</g>
</g>
<!-- Node137&#45;&gt;Node144 -->
<g id="edge10" class="edge">
<title>Node137&#45;&gt;Node144</title>
<path fill="none" stroke="#191970" d="M59.6671,-237.3471C75.2625,-228.7691 99.4712,-216.5967 122,-210 236.204,-176.5599 270.2121,-182.9123 389,-190 400.27,-190.6724 412.3501,-191.8511 423.7228,-193.1687"/>
<polygon fill="#191970" stroke="#191970" points="423.5756,-196.6765 433.9246,-194.4074 424.4194,-189.7275 423.5756,-196.6765"/>
</g>
<!-- Node153 -->
<g id="node17" class="node">
<title>Node153</title>
<g id="a_node17"><a xlink:href="kbd_8c.html#aabe32d3d3ebb9ccff7ca4b7992f48209" target="_top" xlink:title="Get the scancode. ">
<polygon fill="#ffffff" stroke="#000000" points="721.5,-95.5 721.5,-114.5 798.5,-114.5 798.5,-95.5 721.5,-95.5"/>
<text text-anchor="middle" x="760" y="-102.5" font-family="Helvetica,sans-Serif" font-size="10.00" fill="#000000">get_scancode</text>
</a>
</g>
</g>
<!-- Node137&#45;&gt;Node153 -->
<g id="edge34" class="edge">
<title>Node137&#45;&gt;Node153</title>
<path fill="none" stroke="#191970" d="M47.8603,-237.2857C58.4579,-217.1118 85.6394,-170.5191 122,-146 202.1255,-91.9689 234.3591,-86 331,-86 331,-86 331,-86 472.5,-86 556.5576,-86 654.139,-94.1866 711.2717,-99.8123"/>
<polygon fill="#191970" stroke="#191970" points="711.1579,-103.3183 721.4565,-100.8304 711.8543,-96.353 711.1579,-103.3183"/>
</g>
<!-- Node154 -->
<g id="node18" class="node">
<title>Node154</title>
<g id="a_node18"><a xlink:href="interrupt__cicle_8c.html#ae96d62d9643ecb59a9a8a7828dfc1860" target="_top" xlink:title="get_int_data">
<polygon fill="#ffffff" stroke="#000000" points="437.5,-133.5 437.5,-152.5 507.5,-152.5 507.5,-133.5 437.5,-133.5"/>
<text text-anchor="middle" x="472.5" y="-140.5" font-family="Helvetica,sans-Serif" font-size="10.00" fill="#000000">get_int_data</text>
</a>
</g>
</g>
<!-- Node137&#45;&gt;Node154 -->
<g id="edge21" class="edge">
<title>Node137&#45;&gt;Node154</title>
<path fill="none" stroke="#191970" d="M51.0879,-237.4848C64.2544,-222.7317 91.895,-194.7157 122,-182 224.6009,-138.6637 358.3689,-137.2236 427.2024,-140.0197"/>
<polygon fill="#191970" stroke="#191970" points="427.1277,-143.5198 437.2767,-140.4787 427.4464,-136.5271 427.1277,-143.5198"/>
</g>
<!-- Node155 -->
<g id="node19" class="node">
<title>Node155</title>
<g id="a_node19"><a xlink:href="graphic_8c.html#a541e181cdbfecf6110d4d4c3ee087c30" target="_top" xlink:title="get_video_mem">
<polygon fill="#ffffff" stroke="#000000" points="288,-275.5 288,-294.5 374,-294.5 374,-275.5 288,-275.5"/>
<text text-anchor="middle" x="331" y="-282.5" font-family="Helvetica,sans-Serif" font-size="10.00" fill="#000000">get_video_mem</text>
</a>
</g>
</g>
<!-- Node137&#45;&gt;Node155 -->
<g id="edge23" class="edge">
<title>Node137&#45;&gt;Node155</title>
<path fill="none" stroke="#191970" d="M77.778,-256.519C91.4694,-259.9622 107.3855,-263.5914 122,-266 174.6395,-274.6755 235.4381,-279.6427 277.8406,-282.3054"/>
<polygon fill="#191970" stroke="#191970" points="277.7455,-285.8059 287.9391,-282.9178 278.1693,-278.8188 277.7455,-285.8059"/>
</g>
<!-- Node156 -->
<g id="node20" class="node">
<title>Node156</title>
<g id="a_node20"><a xlink:href="player_8c.html#a76c6479b507c3c9c25f6ee0ff216f07c" target="_top" xlink:title="Recieves a player (plr_1) and determines if the shot against the enemy (plr_2) is valid...">
<polygon fill="#ffffff" stroke="#000000" points="146,-38.5 146,-57.5 213,-57.5 213,-38.5 146,-38.5"/>
<text text-anchor="middle" x="179.5" y="-45.5" font-family="Helvetica,sans-Serif" font-size="10.00" fill="#000000">player_shot</text>
</a>
</g>
</g>
<!-- Node137&#45;&gt;Node156 -->
<g id="edge24" class="edge">
<title>Node137&#45;&gt;Node156</title>
<path fill="none" stroke="#191970" d="M44.7891,-237.2228C50.5991,-208.1166 71.5586,-121.0174 122,-72 126.274,-67.8466 131.3715,-64.3694 136.7402,-61.4696"/>
<polygon fill="#191970" stroke="#191970" points="138.3929,-64.5597 145.9336,-57.1173 135.3976,-58.2328 138.3929,-64.5597"/>
</g>
<!-- Node159 -->
<g id="node23" class="node">
<title>Node159</title>
<g id="a_node23"><a xlink:href="game_8c.html#a0ecf3df63f0053cd3177ad9dd3716b54" target="_top" xlink:title="displays the end game screen (won) ">
<polygon fill="#ffffff" stroke="#000000" points="149,-237.5 149,-256.5 210,-256.5 210,-237.5 149,-237.5"/>
<text text-anchor="middle" x="179.5" y="-244.5" font-family="Helvetica,sans-Serif" font-size="10.00" fill="#000000">winner_sp</text>
</a>
</g>
</g>
<!-- Node137&#45;&gt;Node159 -->
<g id="edge27" class="edge">
<title>Node137&#45;&gt;Node159</title>
<path fill="none" stroke="#191970" d="M86.1895,-247C102.848,-247 121.8196,-247 138.2866,-247"/>
<polygon fill="#191970" stroke="#191970" points="138.6966,-250.5001 148.6965,-247 138.6965,-243.5001 138.6966,-250.5001"/>
</g>
<!-- Node160 -->
<g id="node24" class="node">
<title>Node160</title>
<g id="a_node24"><a xlink:href="game_8c.html#abdd70639378b19cfc929273ef7b4ff45" target="_top" xlink:title="Uses timer interruptions to wait a predetermined time. ">
<polygon fill="#ffffff" stroke="#000000" points="303,-199.5 303,-218.5 359,-218.5 359,-199.5 303,-199.5"/>
<text text-anchor="middle" x="331" y="-206.5" font-family="Helvetica,sans-Serif" font-size="10.00" fill="#000000">idle_time</text>
</a>
</g>
</g>
<!-- Node137&#45;&gt;Node160 -->
<g id="edge35" class="edge">
<title>Node137&#45;&gt;Node160</title>
<path fill="none" stroke="#191970" d="M77.778,-237.481C91.4694,-234.0378 107.3855,-230.4086 122,-228 181.1564,-218.2504 250.6172,-213.1843 292.6929,-210.809"/>
<polygon fill="#191970" stroke="#191970" points="292.9815,-214.2986 302.7771,-210.2619 292.6022,-207.3089 292.9815,-214.2986"/>
</g>
<!-- Node138&#45;&gt;Node139 -->
<g id="edge2" class="edge">
<title>Node138&#45;&gt;Node139</title>
<path fill="none" stroke="#191970" d="M216.5611,-365.6479C237.9835,-368.3346 265.0489,-371.7289 287.4798,-374.542"/>
<polygon fill="#191970" stroke="#191970" points="287.0649,-378.0173 297.4228,-375.789 287.9361,-371.0717 287.0649,-378.0173"/>
</g>
<!-- Node139&#45;&gt;Node140 -->
<g id="edge3" class="edge">
<title>Node139&#45;&gt;Node140</title>
<path fill="none" stroke="#191970" d="M364.5335,-373.3644C384.4797,-369.4175 409.9428,-364.3788 431.1309,-360.1861"/>
<polygon fill="#191970" stroke="#191970" points="432.0156,-363.579 441.146,-358.2043 430.6567,-356.7121 432.0156,-363.579"/>
</g>
<!-- Node141 -->
<g id="node5" class="node">
<title>Node141</title>
<g id="a_node5"><a xlink:href="graphic_8c.html#a89e5e15fb2c065221f58c6d883da6049" target="_top" xlink:title="get_bytes_per_pixel">
<polygon fill="#ffffff" stroke="#000000" points="708,-361.5 708,-380.5 812,-380.5 812,-361.5 708,-361.5"/>
<text text-anchor="middle" x="760" y="-368.5" font-family="Helvetica,sans-Serif" font-size="10.00" fill="#000000">get_bytes_per_pixel</text>
</a>
</g>
</g>
<!-- Node140&#45;&gt;Node141 -->
<g id="edge4" class="edge">
<title>Node140&#45;&gt;Node141</title>
<path fill="none" stroke="#191970" d="M503.5407,-360.8034C519.1399,-364.7806 538.4188,-369.025 556,-371 603.3707,-376.3215 657.3202,-376.0473 697.8365,-374.5905"/>
<polygon fill="#191970" stroke="#191970" points="697.981,-378.0876 707.8357,-374.1973 697.7059,-371.093 697.981,-378.0876"/>
</g>
<!-- Node142 -->
<g id="node6" class="node">
<title>Node142</title>
<g id="a_node6"><a xlink:href="graphic_8c.html#a90228825151958bdc7dfaffdbbd88494" target="_top" xlink:title="Calculates the color and sets the pixel in the video mem. ">
<polygon fill="#ffffff" stroke="#000000" points="582.5,-342.5 582.5,-361.5 645.5,-361.5 645.5,-342.5 582.5,-342.5"/>
<text text-anchor="middle" x="614" y="-349.5" font-family="Helvetica,sans-Serif" font-size="10.00" fill="#000000">draw_pixel</text>
</a>
</g>
</g>
<!-- Node140&#45;&gt;Node142 -->
<g id="edge5" class="edge">
<title>Node140&#45;&gt;Node142</title>
<path fill="none" stroke="#191970" d="M503.5528,-352C523.6388,-352 550.0362,-352 571.9873,-352"/>
<polygon fill="#191970" stroke="#191970" points="572.0393,-355.5001 582.0392,-352 572.0392,-348.5001 572.0393,-355.5001"/>
</g>
<!-- Node142&#45;&gt;Node141 -->
<g id="edge6" class="edge">
<title>Node142&#45;&gt;Node141</title>
<path fill="none" stroke="#191970" d="M645.6798,-356.1227C660.8938,-358.1026 679.678,-360.5471 697.5927,-362.8785"/>
<polygon fill="#191970" stroke="#191970" points="697.3478,-366.3761 707.7159,-364.1959 698.2512,-359.4346 697.3478,-366.3761"/>
</g>
<!-- Node143&#45;&gt;Node139 -->
<g id="edge8" class="edge">
<title>Node143&#45;&gt;Node139</title>
<path fill="none" stroke="#191970" d="M204.8577,-427.4595C229.8742,-418.0473 268.3104,-403.5862 296.1813,-393.1001"/>
<polygon fill="#191970" stroke="#191970" points="297.4326,-396.3689 305.5596,-389.5716 294.9676,-389.8173 297.4326,-396.3689"/>
</g>
<!-- Node145 -->
<g id="node9" class="node">
<title>Node145</title>
<g id="a_node9"><a xlink:href="mouse_8c.html#a210374b50462acdedab00df64d5cea3c" target="_top" xlink:title="Mouse IH. ">
<polygon fill="#ffffff" stroke="#000000" points="584.5,-190.5 584.5,-209.5 643.5,-209.5 643.5,-190.5 584.5,-190.5"/>
<text text-anchor="middle" x="614" y="-197.5" font-family="Helvetica,sans-Serif" font-size="10.00" fill="#000000">mouse_ih</text>
</a>
</g>
</g>
<!-- Node144&#45;&gt;Node145 -->
<g id="edge11" class="edge">
<title>Node144&#45;&gt;Node145</title>
<path fill="none" stroke="#191970" d="M511.1655,-200C530.7254,-200 554.4362,-200 574.1585,-200"/>
<polygon fill="#191970" stroke="#191970" points="574.3585,-203.5001 584.3585,-200 574.3585,-196.5001 574.3585,-203.5001"/>
</g>
<!-- Node147 -->
<g id="node11" class="node">
<title>Node147</title>
<g id="a_node11"><a xlink:href="mouse_8c.html#a4f0a0dc9001ebefef3a416dd9b882b97" target="_top" xlink:title="Initiates the mouse packet member. ">
<polygon fill="#ffffff" stroke="#000000" points="582,-114.5 582,-133.5 646,-133.5 646,-114.5 582,-114.5"/>
<text text-anchor="middle" x="614" y="-121.5" font-family="Helvetica,sans-Serif" font-size="10.00" fill="#000000">init_packet</text>
</a>
</g>
</g>
<!-- Node144&#45;&gt;Node147 -->
<g id="edge13" class="edge">
<title>Node144&#45;&gt;Node147</title>
<path fill="none" stroke="#191970" d="M484.2805,-190.3564C499.8744,-177.9794 528.6038,-156.4975 556,-143 561.0495,-140.5122 566.501,-138.2387 571.9702,-136.1977"/>
<polygon fill="#191970" stroke="#191970" points="573.4659,-139.3827 581.7509,-132.779 571.1561,-132.7747 573.4659,-139.3827"/>
</g>
<!-- Node148 -->
<g id="node12" class="node">
<title>Node148</title>
<g id="a_node12"><a xlink:href="mouse_8c.html#a2ce59763196c5a8a030a47599b6a160e" target="_top" xlink:title="Get the cnt bytes. ">
<polygon fill="#ffffff" stroke="#000000" points="575,-304.5 575,-323.5 653,-323.5 653,-304.5 575,-304.5"/>
<text text-anchor="middle" x="614" y="-311.5" font-family="Helvetica,sans-Serif" font-size="10.00" fill="#000000">get_cnt_bytes</text>
</a>
</g>
</g>
<!-- Node144&#45;&gt;Node148 -->
<g id="edge14" class="edge">
<title>Node144&#45;&gt;Node148</title>
<path fill="none" stroke="#191970" d="M506.0785,-209.6987C511.1326,-212.1693 515.9876,-215.2285 520,-219 547.2333,-244.5985 527.9624,-270.285 556,-295 558.8714,-297.5312 562.0875,-299.7263 565.4936,-301.6299"/>
<polygon fill="#191970" stroke="#191970" points="564.308,-304.9397 574.8478,-306.0182 567.281,-298.6024 564.308,-304.9397"/>
</g>
<!-- Node149 -->
<g id="node13" class="node">
<title>Node149</title>
<g id="a_node13"><a xlink:href="kbd_8c.html#aea970a154161a35f6894898a092ed70a" target="_top" xlink:title="Keyboard IH. ">
<polygon fill="#ffffff" stroke="#000000" points="591.5,-266.5 591.5,-285.5 636.5,-285.5 636.5,-266.5 591.5,-266.5"/>
<text text-anchor="middle" x="614" y="-273.5" font-family="Helvetica,sans-Serif" font-size="10.00" fill="#000000">kbc_ih</text>
</a>
</g>
</g>
<!-- Node144&#45;&gt;Node149 -->
<g id="edge15" class="edge">
<title>Node144&#45;&gt;Node149</title>
<path fill="none" stroke="#191970" d="M502.1426,-209.557C508.2994,-212.163 514.5624,-215.3081 520,-219 539.2473,-232.0681 536.3448,-244.5538 556,-257 563.8051,-261.9424 573.0213,-265.7221 581.7821,-268.5579"/>
<polygon fill="#191970" stroke="#191970" points="580.7996,-271.9171 591.3803,-271.37 582.7678,-265.1995 580.7996,-271.9171"/>
</g>
<!-- Node150 -->
<g id="node14" class="node">
<title>Node150</title>
<g id="a_node14"><a xlink:href="timer_8c.html#ac7c3715c83c45c6411f9f3f9f6cf8c7f" target="_top" xlink:title="Timer IH. ">
<polygon fill="#ffffff" stroke="#000000" points="556,-228.5 556,-247.5 672,-247.5 672,-228.5 556,-228.5"/>
<text text-anchor="middle" x="614" y="-235.5" font-family="Helvetica,sans-Serif" font-size="10.00" fill="#000000">timer_interrupt_handler</text>
</a>
</g>
</g>
<!-- Node144&#45;&gt;Node150 -->
<g id="edge16" class="edge">
<title>Node144&#45;&gt;Node150</title>
<path fill="none" stroke="#191970" d="M508.2064,-209.589C526.4727,-214.4944 548.9084,-220.5196 568.4112,-225.7571"/>
<polygon fill="#191970" stroke="#191970" points="567.7394,-229.2006 578.305,-228.4141 569.555,-222.4401 567.7394,-229.2006"/>
</g>
<!-- Node151 -->
<g id="node15" class="node">
<title>Node151</title>
<g id="a_node15"><a xlink:href="interrupt__cicle_8c.html#a3cd9db2b8c583d8e97d9865c1a4802a9" target="_top" xlink:title="Initializes the interrupt_data struct tot be used in other files. ">
<polygon fill="#ffffff" stroke="#000000" points="579.5,-152.5 579.5,-171.5 648.5,-171.5 648.5,-152.5 579.5,-152.5"/>
<text text-anchor="middle" x="614" y="-159.5" font-family="Helvetica,sans-Serif" font-size="10.00" fill="#000000">init_int_data</text>
</a>
</g>
</g>
<!-- Node144&#45;&gt;Node151 -->
<g id="edge17" class="edge">
<title>Node144&#45;&gt;Node151</title>
<path fill="none" stroke="#191970" d="M508.2064,-190.411C526.8367,-185.4078 549.8041,-179.2399 569.5734,-173.9308"/>
<polygon fill="#191970" stroke="#191970" points="570.5333,-177.2971 579.2833,-171.3232 568.7177,-170.5367 570.5333,-177.2971"/>
</g>
<!-- Node146 -->
<g id="node10" class="node">
<title>Node146</title>
<g id="a_node10"><a xlink:href="mouse_8c.html#a4a11876c724ae443363cf5971f1558e7" target="_top" xlink:title="Empties a mouse packet. ">
<polygon fill="#ffffff" stroke="#000000" points="721,-190.5 721,-209.5 799,-209.5 799,-190.5 721,-190.5"/>
<text text-anchor="middle" x="760" y="-197.5" font-family="Helvetica,sans-Serif" font-size="10.00" fill="#000000">empty_packet</text>
</a>
</g>
</g>
<!-- Node145&#45;&gt;Node146 -->
<g id="edge12" class="edge">
<title>Node145&#45;&gt;Node146</title>
<path fill="none" stroke="#191970" d="M643.5453,-200C662.751,-200 688.2661,-200 710.5174,-200"/>
<polygon fill="#191970" stroke="#191970" points="710.8057,-203.5001 720.8057,-200 710.8057,-196.5001 710.8057,-203.5001"/>
</g>
<!-- Node151&#45;&gt;Node146 -->
<g id="edge19" class="edge">
<title>Node151&#45;&gt;Node146</title>
<path fill="none" stroke="#191970" d="M648.6,-171.0055C668.0364,-176.0643 692.5501,-182.4446 713.6304,-187.9312"/>
<polygon fill="#191970" stroke="#191970" points="712.7946,-191.3302 723.3538,-190.462 714.5579,-184.5559 712.7946,-191.3302"/>
</g>
<!-- Node152 -->
<g id="node16" class="node">
<title>Node152</title>
<g id="a_node16"><a xlink:href="mouse_8c.html#a56a5da7f70edb0bb5db9910981ef65f9" target="_top" xlink:title="Get packet struct. ">
<polygon fill="#ffffff" stroke="#000000" points="727.5,-152.5 727.5,-171.5 792.5,-171.5 792.5,-152.5 727.5,-152.5"/>
<text text-anchor="middle" x="760" y="-159.5" font-family="Helvetica,sans-Serif" font-size="10.00" fill="#000000">get_packet</text>
</a>
</g>
</g>
<!-- Node151&#45;&gt;Node152 -->
<g id="edge18" class="edge">
<title>Node151&#45;&gt;Node152</title>
<path fill="none" stroke="#191970" d="M648.6,-162C669.1284,-162 695.3205,-162 717.1493,-162"/>
<polygon fill="#191970" stroke="#191970" points="717.1523,-165.5001 727.1523,-162 717.1523,-158.5001 717.1523,-165.5001"/>
</g>
<!-- Node151&#45;&gt;Node153 -->
<g id="edge20" class="edge">
<title>Node151&#45;&gt;Node153</title>
<path fill="none" stroke="#191970" d="M644.8853,-152.4594C653.7017,-149.5804 663.2802,-146.3031 672,-143 691.5136,-135.6082 713.0235,-126.3409 729.8927,-118.8087"/>
<polygon fill="#191970" stroke="#191970" points="731.5565,-121.8981 739.2385,-114.6017 728.6831,-115.515 731.5565,-121.8981"/>
</g>
<!-- Node157 -->
<g id="node21" class="node">
<title>Node157</title>
<g id="a_node21"><a xlink:href="board_8c.html#a94c2c1ad303e2a5b6d5927acad3af174" target="_top" xlink:title="Checks if a sprite has been placed inside the board matrix. ">
<polygon fill="#ffffff" stroke="#000000" points="273,-38.5 273,-57.5 389,-57.5 389,-38.5 273,-38.5"/>
<text text-anchor="middle" x="331" y="-45.5" font-family="Helvetica,sans-Serif" font-size="10.00" fill="#000000">check_matrix_collision</text>
</a>
</g>
</g>
<!-- Node156&#45;&gt;Node157 -->
<g id="edge25" class="edge">
<title>Node156&#45;&gt;Node157</title>
<path fill="none" stroke="#191970" d="M213.1228,-48C227.77,-48 245.4986,-48 262.7087,-48"/>
<polygon fill="#191970" stroke="#191970" points="262.7546,-51.5001 272.7545,-48 262.7545,-44.5001 262.7546,-51.5001"/>
</g>
<!-- Node158 -->
<g id="node22" class="node">
<title>Node158</title>
<g id="a_node22"><a xlink:href="board_8c.html#afca9c6d37276959ed0f884f28060a992" target="_top" xlink:title="Sets the surrounding cells of a boat to &#45;7. ">
<polygon fill="#ffffff" stroke="#000000" points="280.5,-.5 280.5,-19.5 381.5,-19.5 381.5,-.5 280.5,-.5"/>
<text text-anchor="middle" x="331" y="-7.5" font-family="Helvetica,sans-Serif" font-size="10.00" fill="#000000">set_protected_cells</text>
</a>
</g>
</g>
<!-- Node156&#45;&gt;Node158 -->
<g id="edge26" class="edge">
<title>Node156&#45;&gt;Node158</title>
<path fill="none" stroke="#191970" d="M213.1228,-39.5666C233.7016,-34.4049 260.3627,-27.7176 283.1227,-22.0088"/>
<polygon fill="#191970" stroke="#191970" points="284.0902,-25.3747 292.9382,-19.5468 282.3871,-18.585 284.0902,-25.3747"/>
</g>
<!-- Node159&#45;&gt;Node140 -->
<g id="edge28" class="edge">
<title>Node159&#45;&gt;Node140</title>
<path fill="none" stroke="#191970" d="M210.0131,-243.3877C252.4047,-239.7421 330.497,-238.0785 389,-266 420.5961,-281.0797 446.7253,-313.4802 460.9277,-333.9238"/>
<polygon fill="#191970" stroke="#191970" points="458.1147,-336.0134 466.5906,-342.3703 463.9289,-332.1152 458.1147,-336.0134"/>
</g>
<!-- Node159&#45;&gt;Node155 -->
<g id="edge29" class="edge">
<title>Node159&#45;&gt;Node155</title>
<path fill="none" stroke="#191970" d="M210.1583,-254.6899C231.039,-259.9273 259.1067,-266.9674 282.936,-272.9443"/>
<polygon fill="#191970" stroke="#191970" points="282.3047,-276.3943 292.8557,-275.4325 284.0077,-269.6047 282.3047,-276.3943"/>
</g>
<!-- Node159&#45;&gt;Node160 -->
<g id="edge30" class="edge">
<title>Node159&#45;&gt;Node160</title>
<path fill="none" stroke="#191970" d="M210.1583,-239.3101C234.1259,-233.2984 267.5628,-224.9116 293.1899,-218.4837"/>
<polygon fill="#191970" stroke="#191970" points="294.0941,-221.8654 302.9421,-216.0376 292.391,-215.0758 294.0941,-221.8654"/>
</g>
<!-- Node160&#45;&gt;Node144 -->
<g id="edge32" class="edge">
<title>Node160&#45;&gt;Node144</title>
<path fill="none" stroke="#191970" d="M359.2946,-207.2003C377.6616,-206.0321 402.0862,-204.4786 423.546,-203.1137"/>
<polygon fill="#191970" stroke="#191970" points="424.0454,-206.5891 433.8031,-202.4613 423.6011,-199.6032 424.0454,-206.5891"/>
</g>
<!-- Node160&#45;&gt;Node154 -->
<g id="edge31" class="edge">
<title>Node160&#45;&gt;Node154</title>
<path fill="none" stroke="#191970" d="M351.5753,-199.403C375.5733,-188.2096 415.439,-169.615 442.7928,-156.8564"/>
<polygon fill="#191970" stroke="#191970" points="444.3167,-160.0076 451.8999,-152.6085 441.3577,-153.6638 444.3167,-160.0076"/>
</g>
<!-- Node161 -->
<g id="node25" class="node">
<title>Node161</title>
<g id="a_node25"><a xlink:href="timer_8c.html#a97436b6607dec81590187f4729fea5dd" target="_top" xlink:title="get_timer_counter">
<polygon fill="#ffffff" stroke="#000000" points="425,-228.5 425,-247.5 520,-247.5 520,-228.5 425,-228.5"/>
<text text-anchor="middle" x="472.5" y="-235.5" font-family="Helvetica,sans-Serif" font-size="10.00" fill="#000000">get_timer_counter</text>
</a>
</g>
</g>
<!-- Node160&#45;&gt;Node161 -->
<g id="edge33" class="edge">
<title>Node160&#45;&gt;Node161</title>
<path fill="none" stroke="#191970" d="M359.2946,-214.7989C375.5029,-218.1207 396.4286,-222.4094 415.8713,-226.3941"/>
<polygon fill="#191970" stroke="#191970" points="415.3714,-229.8643 425.8705,-228.4434 416.7769,-223.0069 415.3714,-229.8643"/>
</g>
</g>
</svg>
