<?xml version="1.0" encoding="UTF-8" standalone="no"?>
<!DOCTYPE svg PUBLIC "-//W3C//DTD SVG 1.1//EN"
 "http://www.w3.org/Graphics/SVG/1.1/DTD/svg11.dtd">
<!-- Generated by graphviz version 2.40.1 (20161225.0304)
 -->
<!-- Title: idle_time Pages: 1 -->
<svg width="461pt" height="237pt"
 viewBox="0.00 0.00 461.00 237.00" xmlns="http://www.w3.org/2000/svg" xmlns:xlink="http://www.w3.org/1999/xlink">
<g id="graph0" class="graph" transform="scale(1 1) rotate(0) translate(4 233)">
<title>idle_time</title>
<polygon fill="#ffffff" stroke="transparent" points="-4,4 -4,-233 457,-233 457,4 -4,4"/>
<!-- Node221 -->
<g id="node1" class="node">
<title>Node221</title>
<polygon fill="#bfbfbf" stroke="#000000" points="0,-114.5 0,-133.5 56,-133.5 56,-114.5 0,-114.5"/>
<text text-anchor="middle" x="28" y="-121.5" font-family="Helvetica,sans-Serif" font-size="10.00" fill="#000000">idle_time</text>
</g>
<!-- Node222 -->
<g id="node2" class="node">
<title>Node222</title>
<g id="a_node2"><a xlink:href="interrupt__cicle_8c.html#ae96d62d9643ecb59a9a8a7828dfc1860" target="_top" xlink:title="get_int_data">
<polygon fill="#ffffff" stroke="#000000" points="104.5,-152.5 104.5,-171.5 174.5,-171.5 174.5,-152.5 104.5,-152.5"/>
<text text-anchor="middle" x="139.5" y="-159.5" font-family="Helvetica,sans-Serif" font-size="10.00" fill="#000000">get_int_data</text>
</a>
</g>
</g>
<!-- Node221&#45;&gt;Node222 -->
<g id="edge1" class="edge">
<title>Node221&#45;&gt;Node222</title>
<path fill="none" stroke="#191970" d="M56.1362,-133.589C70.0015,-138.3144 86.9156,-144.0789 101.8758,-149.1774"/>
<polygon fill="#191970" stroke="#191970" points="100.7784,-152.501 111.3728,-152.4141 103.0365,-145.8752 100.7784,-152.501"/>
</g>
<!-- Node223 -->
<g id="node3" class="node">
<title>Node223</title>
<g id="a_node3"><a xlink:href="interrupt__cicle_8c.html#a0718d5c75848a080a2122df6548d2422" target="_top" xlink:title="Receives and handles interruptions from the necessary modules. ">
<polygon fill="#ffffff" stroke="#000000" points="101,-114.5 101,-133.5 178,-133.5 178,-114.5 101,-114.5"/>
<text text-anchor="middle" x="139.5" y="-121.5" font-family="Helvetica,sans-Serif" font-size="10.00" fill="#000000">interrupt_cicle</text>
</a>
</g>
</g>
<!-- Node221&#45;&gt;Node223 -->
<g id="edge2" class="edge">
<title>Node221&#45;&gt;Node223</title>
<path fill="none" stroke="#191970" d="M56.1362,-124C66.6146,-124 78.8342,-124 90.6357,-124"/>
<polygon fill="#191970" stroke="#191970" points="90.845,-127.5001 100.8449,-124 90.8449,-120.5001 90.845,-127.5001"/>
</g>
<!-- Node233 -->
<g id="node13" class="node">
<title>Node233</title>
<g id="a_node13"><a xlink:href="timer_8c.html#a97436b6607dec81590187f4729fea5dd" target="_top" xlink:title="get_timer_counter">
<polygon fill="#ffffff" stroke="#000000" points="92,-76.5 92,-95.5 187,-95.5 187,-76.5 92,-76.5"/>
<text text-anchor="middle" x="139.5" y="-83.5" font-family="Helvetica,sans-Serif" font-size="10.00" fill="#000000">get_timer_counter</text>
</a>
</g>
</g>
<!-- Node221&#45;&gt;Node233 -->
<g id="edge13" class="edge">
<title>Node221&#45;&gt;Node233</title>
<path fill="none" stroke="#191970" d="M56.1362,-114.411C70.0015,-109.6856 86.9156,-103.9211 101.8758,-98.8226"/>
<polygon fill="#191970" stroke="#191970" points="103.0365,-102.1248 111.3728,-95.5859 100.7784,-95.499 103.0365,-102.1248"/>
</g>
<!-- Node224 -->
<g id="node4" class="node">
<title>Node224</title>
<g id="a_node4"><a xlink:href="mouse_8c.html#a210374b50462acdedab00df64d5cea3c" target="_top" xlink:title="Mouse IH. ">
<polygon fill="#ffffff" stroke="#000000" points="251.5,-209.5 251.5,-228.5 310.5,-228.5 310.5,-209.5 251.5,-209.5"/>
<text text-anchor="middle" x="281" y="-216.5" font-family="Helvetica,sans-Serif" font-size="10.00" fill="#000000">mouse_ih</text>
</a>
</g>
</g>
<!-- Node223&#45;&gt;Node224 -->
<g id="edge3" class="edge">
<title>Node223&#45;&gt;Node224</title>
<path fill="none" stroke="#191970" d="M171.7099,-133.6666C177.1541,-136.1716 182.4939,-139.2506 187,-143 210.0325,-162.1647 199.3668,-181.5813 223,-200 228.5029,-204.2887 235.012,-207.6282 241.6456,-210.2231"/>
<polygon fill="#191970" stroke="#191970" points="240.7567,-213.6174 251.3511,-213.5158 243.0057,-206.9885 240.7567,-213.6174"/>
</g>
<!-- Node226 -->
<g id="node6" class="node">
<title>Node226</title>
<g id="a_node6"><a xlink:href="mouse_8c.html#a4f0a0dc9001ebefef3a416dd9b882b97" target="_top" xlink:title="Initiates the mouse packet member. ">
<polygon fill="#ffffff" stroke="#000000" points="249,-171.5 249,-190.5 313,-190.5 313,-171.5 249,-171.5"/>
<text text-anchor="middle" x="281" y="-178.5" font-family="Helvetica,sans-Serif" font-size="10.00" fill="#000000">init_packet</text>
</a>
</g>
</g>
<!-- Node223&#45;&gt;Node226 -->
<g id="edge5" class="edge">
<title>Node223&#45;&gt;Node226</title>
<path fill="none" stroke="#191970" d="M164.8545,-133.5704C172.0758,-136.4499 179.9056,-139.72 187,-143 203.4215,-150.5922 206.3442,-154.9365 223,-162 228.1214,-164.1719 233.5815,-166.2521 239.026,-168.1868"/>
<polygon fill="#191970" stroke="#191970" points="238.1383,-171.582 248.7328,-171.5006 240.3999,-164.9574 238.1383,-171.582"/>
</g>
<!-- Node227 -->
<g id="node7" class="node">
<title>Node227</title>
<g id="a_node7"><a xlink:href="mouse_8c.html#a2ce59763196c5a8a030a47599b6a160e" target="_top" xlink:title="Get the cnt bytes. ">
<polygon fill="#ffffff" stroke="#000000" points="242,-133.5 242,-152.5 320,-152.5 320,-133.5 242,-133.5"/>
<text text-anchor="middle" x="281" y="-140.5" font-family="Helvetica,sans-Serif" font-size="10.00" fill="#000000">get_cnt_bytes</text>
</a>
</g>
</g>
<!-- Node223&#45;&gt;Node227 -->
<g id="edge6" class="edge">
<title>Node223&#45;&gt;Node227</title>
<path fill="none" stroke="#191970" d="M178.1655,-129.1918C194.7189,-131.4146 214.2452,-134.0365 231.811,-136.3951"/>
<polygon fill="#191970" stroke="#191970" points="231.5127,-139.8864 241.8896,-137.7484 232.4444,-132.9487 231.5127,-139.8864"/>
</g>
<!-- Node228 -->
<g id="node8" class="node">
<title>Node228</title>
<g id="a_node8"><a xlink:href="kbd_8c.html#aea970a154161a35f6894898a092ed70a" target="_top" xlink:title="Keyboard IH. ">
<polygon fill="#ffffff" stroke="#000000" points="258.5,-95.5 258.5,-114.5 303.5,-114.5 303.5,-95.5 258.5,-95.5"/>
<text text-anchor="middle" x="281" y="-102.5" font-family="Helvetica,sans-Serif" font-size="10.00" fill="#000000">kbc_ih</text>
</a>
</g>
</g>
<!-- Node223&#45;&gt;Node228 -->
<g id="edge7" class="edge">
<title>Node223&#45;&gt;Node228</title>
<path fill="none" stroke="#191970" d="M178.1655,-118.8082C200.1457,-115.8568 227.3676,-112.2015 248.2811,-109.3933"/>
<polygon fill="#191970" stroke="#191970" points="248.84,-112.8498 258.2852,-108.05 247.9083,-105.9121 248.84,-112.8498"/>
</g>
<!-- Node229 -->
<g id="node9" class="node">
<title>Node229</title>
<g id="a_node9"><a xlink:href="timer_8c.html#ac7c3715c83c45c6411f9f3f9f6cf8c7f" target="_top" xlink:title="Timer IH. ">
<polygon fill="#ffffff" stroke="#000000" points="223,-57.5 223,-76.5 339,-76.5 339,-57.5 223,-57.5"/>
<text text-anchor="middle" x="281" y="-64.5" font-family="Helvetica,sans-Serif" font-size="10.00" fill="#000000">timer_interrupt_handler</text>
</a>
</g>
</g>
<!-- Node223&#45;&gt;Node229 -->
<g id="edge8" class="edge">
<title>Node223&#45;&gt;Node229</title>
<path fill="none" stroke="#191970" d="M164.8545,-114.4296C172.0758,-111.5501 179.9056,-108.28 187,-105 203.4215,-97.4078 206.3442,-93.0635 223,-86 228.0604,-83.854 233.4515,-81.7975 238.8316,-79.8824"/>
<polygon fill="#191970" stroke="#191970" points="240.1009,-83.1474 248.4298,-76.5991 237.8353,-76.5241 240.1009,-83.1474"/>
</g>
<!-- Node230 -->
<g id="node10" class="node">
<title>Node230</title>
<g id="a_node10"><a xlink:href="interrupt__cicle_8c.html#a3cd9db2b8c583d8e97d9865c1a4802a9" target="_top" xlink:title="Initializes the interrupt_data struct tot be used in other files. ">
<polygon fill="#ffffff" stroke="#000000" points="246.5,-19.5 246.5,-38.5 315.5,-38.5 315.5,-19.5 246.5,-19.5"/>
<text text-anchor="middle" x="281" y="-26.5" font-family="Helvetica,sans-Serif" font-size="10.00" fill="#000000">init_int_data</text>
</a>
</g>
</g>
<!-- Node223&#45;&gt;Node230 -->
<g id="edge9" class="edge">
<title>Node223&#45;&gt;Node230</title>
<path fill="none" stroke="#191970" d="M171.7099,-114.3334C177.1541,-111.8284 182.4939,-108.7494 187,-105 210.0325,-85.8353 199.3668,-66.4187 223,-48 227.1252,-44.785 231.8159,-42.1034 236.7006,-39.8691"/>
<polygon fill="#191970" stroke="#191970" points="238.2218,-43.0314 246.2355,-36.1009 235.649,-36.5213 238.2218,-43.0314"/>
</g>
<!-- Node225 -->
<g id="node5" class="node">
<title>Node225</title>
<g id="a_node5"><a xlink:href="mouse_8c.html#a4a11876c724ae443363cf5971f1558e7" target="_top" xlink:title="Empties a mouse packet. ">
<polygon fill="#ffffff" stroke="#000000" points="375,-142.5 375,-161.5 453,-161.5 453,-142.5 375,-142.5"/>
<text text-anchor="middle" x="414" y="-149.5" font-family="Helvetica,sans-Serif" font-size="10.00" fill="#000000">empty_packet</text>
</a>
</g>
</g>
<!-- Node224&#45;&gt;Node225 -->
<g id="edge4" class="edge">
<title>Node224&#45;&gt;Node225</title>
<path fill="none" stroke="#191970" d="M310.7696,-210.8374C320.0078,-207.8859 330.0967,-204.2235 339,-200 358.2007,-190.8916 378.407,-177.7243 393.0022,-167.4838"/>
<polygon fill="#191970" stroke="#191970" points="395.2058,-170.211 401.3056,-161.5482 391.135,-164.5163 395.2058,-170.211"/>
</g>
<!-- Node230&#45;&gt;Node225 -->
<g id="edge11" class="edge">
<title>Node230&#45;&gt;Node225</title>
<path fill="none" stroke="#191970" d="M315.5417,-36.396C323.7208,-39.1725 332.0715,-42.9346 339,-48 369.9948,-70.6601 393.269,-109.9941 405.1567,-133.2485"/>
<polygon fill="#191970" stroke="#191970" points="402.1124,-134.9888 409.6743,-142.4097 408.3906,-131.8929 402.1124,-134.9888"/>
</g>
<!-- Node231 -->
<g id="node11" class="node">
<title>Node231</title>
<g id="a_node11"><a xlink:href="mouse_8c.html#a56a5da7f70edb0bb5db9910981ef65f9" target="_top" xlink:title="Get packet struct. ">
<polygon fill="#ffffff" stroke="#000000" points="381.5,-38.5 381.5,-57.5 446.5,-57.5 446.5,-38.5 381.5,-38.5"/>
<text text-anchor="middle" x="414" y="-45.5" font-family="Helvetica,sans-Serif" font-size="10.00" fill="#000000">get_packet</text>
</a>
</g>
</g>
<!-- Node230&#45;&gt;Node231 -->
<g id="edge10" class="edge">
<title>Node230&#45;&gt;Node231</title>
<path fill="none" stroke="#191970" d="M315.597,-33.9424C332.6621,-36.3803 353.4006,-39.3429 371.4308,-41.9187"/>
<polygon fill="#191970" stroke="#191970" points="371.0115,-45.3942 381.406,-43.3437 372.0015,-38.4646 371.0115,-45.3942"/>
</g>
<!-- Node232 -->
<g id="node12" class="node">
<title>Node232</title>
<g id="a_node12"><a xlink:href="kbd_8c.html#aabe32d3d3ebb9ccff7ca4b7992f48209" target="_top" xlink:title="Get the scancode. ">
<polygon fill="#ffffff" stroke="#000000" points="375.5,-.5 375.5,-19.5 452.5,-19.5 452.5,-.5 375.5,-.5"/>
<text text-anchor="middle" x="414" y="-7.5" font-family="Helvetica,sans-Serif" font-size="10.00" fill="#000000">get_scancode</text>
</a>
</g>
</g>
<!-- Node230&#45;&gt;Node232 -->
<g id="edge12" class="edge">
<title>Node230&#45;&gt;Node232</title>
<path fill="none" stroke="#191970" d="M315.597,-24.0576C330.7668,-21.8905 348.8393,-19.3087 365.3318,-16.9526"/>
<polygon fill="#191970" stroke="#191970" points="365.9519,-20.3996 375.3564,-15.5205 364.9619,-13.47 365.9519,-20.3996"/>
</g>
</g>
</svg>
