<?xml version="1.0" encoding="UTF-8" standalone="no"?>
<!DOCTYPE svg PUBLIC "-//W3C//DTD SVG 1.1//EN"
 "http://www.w3.org/Graphics/SVG/1.1/DTD/svg11.dtd">
<!-- Generated by graphviz version 2.40.1 (20161225.0304)
 -->
<!-- Title: game_init_board Pages: 1 -->
<svg width="564pt" height="66pt"
 viewBox="0.00 0.00 564.00 66.00" xmlns="http://www.w3.org/2000/svg" xmlns:xlink="http://www.w3.org/1999/xlink">
<g id="graph0" class="graph" transform="scale(1 1) rotate(0) translate(4 62)">
<title>game_init_board</title>
<polygon fill="#ffffff" stroke="transparent" points="-4,4 -4,-62 560,-62 560,4 -4,4"/>
<!-- Node30 -->
<g id="node1" class="node">
<title>Node30</title>
<polygon fill="#bfbfbf" stroke="#000000" points="0,-19.5 0,-38.5 88,-38.5 88,-19.5 0,-19.5"/>
<text text-anchor="middle" x="44" y="-26.5" font-family="Helvetica,sans-Serif" font-size="10.00" fill="#000000">game_init_board</text>
</g>
<!-- Node31 -->
<g id="node2" class="node">
<title>Node31</title>
<g id="a_node2"><a xlink:href="game_8h.html#aff1f849979a9ca10d6ff2bce0dfb7fd5" target="_top" xlink:title="Single Player Iniciates the boards from the respective players Starts the game loop (1 turn per playe...">
<polygon fill="#ffffff" stroke="#000000" points="125.5,-38.5 125.5,-57.5 181.5,-57.5 181.5,-38.5 125.5,-38.5"/>
<text text-anchor="middle" x="153.5" y="-45.5" font-family="Helvetica,sans-Serif" font-size="10.00" fill="#000000">game_sp</text>
</a>
</g>
</g>
<!-- Node30&#45;&gt;Node31 -->
<g id="edge1" class="edge">
<title>Node30&#45;&gt;Node31</title>
<path fill="none" stroke="#191970" d="M98.3605,-38.4324C107.7574,-40.0629 117.1696,-41.6961 125.4898,-43.1398"/>
<polygon fill="#191970" stroke="#191970" points="98.6734,-34.9345 88.2222,-36.6733 97.4766,-41.8314 98.6734,-34.9345"/>
</g>
<!-- Node35 -->
<g id="node6" class="node">
<title>Node35</title>
<g id="a_node6"><a xlink:href="game_8h.html#a03f40ddf75045683b3f488d4839937ab" target="_top" xlink:title="Multiplayer. ">
<polygon fill="#ffffff" stroke="#000000" points="124,-.5 124,-19.5 183,-19.5 183,-.5 124,-.5"/>
<text text-anchor="middle" x="153.5" y="-7.5" font-family="Helvetica,sans-Serif" font-size="10.00" fill="#000000">game_mp</text>
</a>
</g>
</g>
<!-- Node30&#45;&gt;Node35 -->
<g id="edge5" class="edge">
<title>Node30&#45;&gt;Node35</title>
<path fill="none" stroke="#191970" d="M98.1653,-19.6015C107.0234,-18.0644 115.902,-16.5238 123.8734,-15.1407"/>
<polygon fill="#191970" stroke="#191970" points="97.4766,-16.1686 88.2222,-21.3267 98.6734,-23.0655 97.4766,-16.1686"/>
</g>
<!-- Node32 -->
<g id="node3" class="node">
<title>Node32</title>
<g id="a_node3"><a xlink:href="menu_8h.html#a95c8dcba38d720d3e4bd6fcf9a8ee279" target="_top" xlink:title="selects a menu option ">
<polygon fill="#ffffff" stroke="#000000" points="219,-19.5 219,-38.5 310,-38.5 310,-19.5 219,-19.5"/>
<text text-anchor="middle" x="264.5" y="-26.5" font-family="Helvetica,sans-Serif" font-size="10.00" fill="#000000">select_menu_opt</text>
</a>
</g>
</g>
<!-- Node31&#45;&gt;Node32 -->
<g id="edge2" class="edge">
<title>Node31&#45;&gt;Node32</title>
<path fill="none" stroke="#191970" d="M191.4694,-41.5007C200.2612,-39.9958 209.707,-38.379 218.7914,-36.824"/>
<polygon fill="#191970" stroke="#191970" points="190.7761,-38.0684 181.51,-43.2055 191.9572,-44.9681 190.7761,-38.0684"/>
</g>
<!-- Node33 -->
<g id="node4" class="node">
<title>Node33</title>
<g id="a_node4"><a xlink:href="menu_8h.html#a6ed6ac9188a15c74b9d07d12b34397c0" target="_top" xlink:title="Subscribes interruptions of the necessary modules Calls main menu and game functions. ">
<polygon fill="#ffffff" stroke="#000000" points="346,-19.5 346,-38.5 438,-38.5 438,-19.5 346,-19.5"/>
<text text-anchor="middle" x="392" y="-26.5" font-family="Helvetica,sans-Serif" font-size="10.00" fill="#000000">game_main_cicle</text>
</a>
</g>
</g>
<!-- Node32&#45;&gt;Node33 -->
<g id="edge3" class="edge">
<title>Node32&#45;&gt;Node33</title>
<path fill="none" stroke="#191970" d="M320.3846,-29C328.8691,-29 337.5423,-29 345.7907,-29"/>
<polygon fill="#191970" stroke="#191970" points="320.1703,-25.5001 310.1703,-29 320.1703,-32.5001 320.1703,-25.5001"/>
</g>
<!-- Node34 -->
<g id="node5" class="node">
<title>Node34</title>
<g id="a_node5"><a xlink:href="proj_8c.html#a2a16f651eccbd248e1ad3b3b924b143b" target="_top" xlink:title="proj_main_loop">
<polygon fill="#ffffff" stroke="#000000" points="474,-19.5 474,-38.5 556,-38.5 556,-19.5 474,-19.5"/>
<text text-anchor="middle" x="515" y="-26.5" font-family="Helvetica,sans-Serif" font-size="10.00" fill="#000000">proj_main_loop</text>
</a>
</g>
</g>
<!-- Node33&#45;&gt;Node34 -->
<g id="edge4" class="edge">
<title>Node33&#45;&gt;Node34</title>
<path fill="none" stroke="#191970" d="M448.1908,-29C456.8339,-29 465.6179,-29 473.8531,-29"/>
<polygon fill="#191970" stroke="#191970" points="448.1506,-25.5001 438.1506,-29 448.1506,-32.5001 448.1506,-25.5001"/>
</g>
<!-- Node35&#45;&gt;Node32 -->
<g id="edge6" class="edge">
<title>Node35&#45;&gt;Node32</title>
<path fill="none" stroke="#191970" d="M193.3594,-16.8228C201.6038,-18.234 210.3495,-19.731 218.7839,-21.1747"/>
<polygon fill="#191970" stroke="#191970" points="193.6931,-13.3291 183.246,-15.0917 192.5121,-20.2287 193.6931,-13.3291"/>
</g>
</g>
</svg>
