<?xml version="1.0" encoding="UTF-8" standalone="no"?>
<!DOCTYPE svg PUBLIC "-//W3C//DTD SVG 1.1//EN"
 "http://www.w3.org/Graphics/SVG/1.1/DTD/svg11.dtd">
<!-- Generated by graphviz version 2.40.1 (20161225.0304)
 -->
<!-- Title: game_round_sp Pages: 1 -->
<svg width="562pt" height="66pt"
 viewBox="0.00 0.00 562.00 66.00" xmlns="http://www.w3.org/2000/svg" xmlns:xlink="http://www.w3.org/1999/xlink">
<g id="graph0" class="graph" transform="scale(1 1) rotate(0) translate(4 62)">
<title>game_round_sp</title>
<polygon fill="#ffffff" stroke="transparent" points="-4,4 -4,-62 558,-62 558,4 -4,4"/>
<!-- Node162 -->
<g id="node1" class="node">
<title>Node162</title>
<polygon fill="#bfbfbf" stroke="#000000" points="0,-19.5 0,-38.5 86,-38.5 86,-19.5 0,-19.5"/>
<text text-anchor="middle" x="43" y="-26.5" font-family="Helvetica,sans-Serif" font-size="10.00" fill="#000000">game_round_sp</text>
</g>
<!-- Node163 -->
<g id="node2" class="node">
<title>Node163</title>
<g id="a_node2"><a xlink:href="game_8h.html#aff1f849979a9ca10d6ff2bce0dfb7fd5" target="_top" xlink:title="Single Player Iniciates the boards from the respective players Starts the game loop (1 turn per playe...">
<polygon fill="#ffffff" stroke="#000000" points="123.5,-38.5 123.5,-57.5 179.5,-57.5 179.5,-38.5 123.5,-38.5"/>
<text text-anchor="middle" x="151.5" y="-45.5" font-family="Helvetica,sans-Serif" font-size="10.00" fill="#000000">game_sp</text>
</a>
</g>
</g>
<!-- Node162&#45;&gt;Node163 -->
<g id="edge1" class="edge">
<title>Node162&#45;&gt;Node163</title>
<path fill="none" stroke="#191970" d="M96.2983,-38.3333C105.6727,-39.9749 115.0851,-41.6232 123.4152,-43.0819"/>
<polygon fill="#191970" stroke="#191970" points="96.6477,-34.8413 86.1938,-36.5639 95.4402,-41.7364 96.6477,-34.8413"/>
</g>
<!-- Node167 -->
<g id="node6" class="node">
<title>Node167</title>
<g id="a_node6"><a xlink:href="game_8h.html#a03f40ddf75045683b3f488d4839937ab" target="_top" xlink:title="Multiplayer. ">
<polygon fill="#ffffff" stroke="#000000" points="122,-.5 122,-19.5 181,-19.5 181,-.5 122,-.5"/>
<text text-anchor="middle" x="151.5" y="-7.5" font-family="Helvetica,sans-Serif" font-size="10.00" fill="#000000">game_mp</text>
</a>
</g>
</g>
<!-- Node162&#45;&gt;Node167 -->
<g id="edge5" class="edge">
<title>Node162&#45;&gt;Node167</title>
<path fill="none" stroke="#191970" d="M96.1035,-19.7008C104.9402,-18.1533 113.8175,-16.5988 121.797,-15.2014"/>
<polygon fill="#191970" stroke="#191970" points="95.4402,-16.2636 86.1938,-21.4361 96.6477,-23.1587 95.4402,-16.2636"/>
</g>
<!-- Node164 -->
<g id="node3" class="node">
<title>Node164</title>
<g id="a_node3"><a xlink:href="menu_8h.html#a95c8dcba38d720d3e4bd6fcf9a8ee279" target="_top" xlink:title="selects a menu option ">
<polygon fill="#ffffff" stroke="#000000" points="217,-19.5 217,-38.5 308,-38.5 308,-19.5 217,-19.5"/>
<text text-anchor="middle" x="262.5" y="-26.5" font-family="Helvetica,sans-Serif" font-size="10.00" fill="#000000">select_menu_opt</text>
</a>
</g>
</g>
<!-- Node163&#45;&gt;Node164 -->
<g id="edge2" class="edge">
<title>Node163&#45;&gt;Node164</title>
<path fill="none" stroke="#191970" d="M189.4694,-41.5007C198.2612,-39.9958 207.707,-38.379 216.7914,-36.824"/>
<polygon fill="#191970" stroke="#191970" points="188.7761,-38.0684 179.51,-43.2055 189.9572,-44.9681 188.7761,-38.0684"/>
</g>
<!-- Node165 -->
<g id="node4" class="node">
<title>Node165</title>
<g id="a_node4"><a xlink:href="menu_8h.html#a6ed6ac9188a15c74b9d07d12b34397c0" target="_top" xlink:title="Subscribes interruptions of the necessary modules Calls main menu and game functions. ">
<polygon fill="#ffffff" stroke="#000000" points="344,-19.5 344,-38.5 436,-38.5 436,-19.5 344,-19.5"/>
<text text-anchor="middle" x="390" y="-26.5" font-family="Helvetica,sans-Serif" font-size="10.00" fill="#000000">game_main_cicle</text>
</a>
</g>
</g>
<!-- Node164&#45;&gt;Node165 -->
<g id="edge3" class="edge">
<title>Node164&#45;&gt;Node165</title>
<path fill="none" stroke="#191970" d="M318.3846,-29C326.8691,-29 335.5423,-29 343.7907,-29"/>
<polygon fill="#191970" stroke="#191970" points="318.1703,-25.5001 308.1703,-29 318.1703,-32.5001 318.1703,-25.5001"/>
</g>
<!-- Node166 -->
<g id="node5" class="node">
<title>Node166</title>
<g id="a_node5"><a xlink:href="proj_8c.html#a2a16f651eccbd248e1ad3b3b924b143b" target="_top" xlink:title="proj_main_loop">
<polygon fill="#ffffff" stroke="#000000" points="472,-19.5 472,-38.5 554,-38.5 554,-19.5 472,-19.5"/>
<text text-anchor="middle" x="513" y="-26.5" font-family="Helvetica,sans-Serif" font-size="10.00" fill="#000000">proj_main_loop</text>
</a>
</g>
</g>
<!-- Node165&#45;&gt;Node166 -->
<g id="edge4" class="edge">
<title>Node165&#45;&gt;Node166</title>
<path fill="none" stroke="#191970" d="M446.1908,-29C454.8339,-29 463.6179,-29 471.8531,-29"/>
<polygon fill="#191970" stroke="#191970" points="446.1506,-25.5001 436.1506,-29 446.1506,-32.5001 446.1506,-25.5001"/>
</g>
<!-- Node167&#45;&gt;Node164 -->
<g id="edge6" class="edge">
<title>Node167&#45;&gt;Node164</title>
<path fill="none" stroke="#191970" d="M191.3594,-16.8228C199.6038,-18.234 208.3495,-19.731 216.7839,-21.1747"/>
<polygon fill="#191970" stroke="#191970" points="191.6931,-13.3291 181.246,-15.0917 190.5121,-20.2287 191.6931,-13.3291"/>
</g>
</g>
</svg>
