<?xml version="1.0" encoding="UTF-8" standalone="no"?>
<!DOCTYPE svg PUBLIC "-//W3C//DTD SVG 1.1//EN"
 "http://www.w3.org/Graphics/SVG/1.1/DTD/svg11.dtd">
<!-- Generated by graphviz version 2.40.1 (20161225.0304)
 -->
<!-- Title: idle_time Pages: 1 -->
<!--zoomable 179 -->
<svg id="main" version="1.1" xmlns="http://www.w3.org/2000/svg" xmlns:xlink="http://www.w3.org/1999/xlink" xml:space="preserve" onload="init(evt)">
<style type="text/css"><![CDATA[
.edge:hover path { stroke: red; }
.edge:hover polygon { stroke: red; fill: red; }
]]></style>
<script type="text/javascript"><![CDATA[
var edges = document.getElementsByTagName('g');
if (edges && edges.length) {
  for (var i=0;i<edges.length;i++) {
    if (edges[i].id.substr(0,4)=='edge') {
      edges[i].setAttribute('class','edge');
    }
  }
}
]]></script>
        <defs>
                <circle id="rim" cx="0" cy="0" r="7"/>
                <circle id="rim2" cx="0" cy="0" r="3.5"/>
                <g id="zoomPlus">
                        <use xlink:href="#rim" fill="#404040">
                                <set attributeName="fill" to="#808080" begin="zoomplus.mouseover" end="zoomplus.mouseout"/>
                        </use>
                        <path d="M-4,0h8M0,-4v8" fill="none" stroke="white" stroke-width="1.5" pointer-events="none"/>
                </g>
                <g id="zoomMin">
                        <use xlink:href="#rim" fill="#404040">
                                <set attributeName="fill" to="#808080" begin="zoomminus.mouseover" end="zoomminus.mouseout"/>
                        </use>
                        <path d="M-4,0h8" fill="none" stroke="white" stroke-width="1.5" pointer-events="none"/>
                </g>
                <g id="dirArrow">
                        <path fill="none" stroke="white" stroke-width="1.5" d="M0,-3.0v7 M-2.5,-0.5L0,-3.0L2.5,-0.5"/>
                </g>
               <g id="resetDef">
                       <use xlink:href="#rim2" fill="#404040">
                               <set attributeName="fill" to="#808080" begin="reset.mouseover" end="reset.mouseout"/>
                       </use>
               </g>
        </defs>

<script type="text/javascript">
var viewWidth = 770;
var viewHeight = 179;
var sectionId = 'dynsection-13';
</script>
<script xlink:href="svgpan.js"/>
<svg id="graph" class="graph">
<g id="viewport">
<title>idle_time</title>
<polygon fill="#ffffff" stroke="transparent" points="-4,4 -4,-175.4113 766,-175.4113 766,4 -4,4"/>
<!-- Node234 -->
<g id="node1" class="node">
<title>Node234</title>
<polygon fill="#bfbfbf" stroke="#000000" points="0,-95.5 0,-114.5 56,-114.5 56,-95.5 0,-95.5"/>
<text text-anchor="middle" x="28" y="-102.5" font-family="Helvetica,sans-Serif" font-size="10.00" fill="#000000">idle_time</text>
</g>
<!-- Node235 -->
<g id="node2" class="node">
<title>Node235</title>
<g id="a_node2"><a xlink:href="game_8h.html#aff1f849979a9ca10d6ff2bce0dfb7fd5" target="_top" xlink:title="Single Player Iniciates the boards from the respective players Starts the game loop (1 turn per playe...">
<polygon fill="#ffffff" stroke="#000000" points="331.5,-76.5 331.5,-95.5 387.5,-95.5 387.5,-76.5 331.5,-76.5"/>
<text text-anchor="middle" x="359.5" y="-83.5" font-family="Helvetica,sans-Serif" font-size="10.00" fill="#000000">game_sp</text>
</a>
</g>
</g>
<!-- Node234&#45;&gt;Node235 -->
<g id="edge1" class="edge">
<title>Node234&#45;&gt;Node235</title>
<path fill="none" stroke="#191970" d="M66.4567,-102.7958C133.8874,-98.931 271.9219,-91.0196 331.308,-87.6158"/>
<polygon fill="#191970" stroke="#191970" points="66.0468,-99.3135 56.2635,-103.3801 66.4474,-106.302 66.0468,-99.3135"/>
</g>
<!-- Node239 -->
<g id="node6" class="node">
<title>Node239</title>
<g id="a_node6"><a xlink:href="game_8h.html#a03f40ddf75045683b3f488d4839937ab" target="_top" xlink:title="Multiplayer. ">
<polygon fill="#ffffff" stroke="#000000" points="330,-114.5 330,-133.5 389,-133.5 389,-114.5 330,-114.5"/>
<text text-anchor="middle" x="359.5" y="-121.5" font-family="Helvetica,sans-Serif" font-size="10.00" fill="#000000">game_mp</text>
</a>
</g>
</g>
<!-- Node234&#45;&gt;Node239 -->
<g id="edge5" class="edge">
<title>Node234&#45;&gt;Node239</title>
<path fill="none" stroke="#191970" d="M42.2487,-122.3021C54.0479,-135.1707 72.0626,-151.7126 92,-159 178.8809,-190.7561 290.9201,-152.6819 337.5887,-133.6226"/>
<polygon fill="#191970" stroke="#191970" points="44.6524,-119.7339 35.4348,-114.5102 39.383,-124.3419 44.6524,-119.7339"/>
</g>
<!-- Node240 -->
<g id="node7" class="node">
<title>Node240</title>
<g id="a_node7"><a xlink:href="game_8h.html#aaeeee1282b90aa12468a1862c7871ee4" target="_top" xlink:title="Lets the player fire against the enemy&#39;s boats using a graphical interface Shows previously hit cells...">
<polygon fill="#ffffff" stroke="#000000" points="208,-114.5 208,-133.5 294,-133.5 294,-114.5 208,-114.5"/>
<text text-anchor="middle" x="251" y="-121.5" font-family="Helvetica,sans-Serif" font-size="10.00" fill="#000000">game_round_sp</text>
</a>
</g>
</g>
<!-- Node234&#45;&gt;Node240 -->
<g id="edge7" class="edge">
<title>Node234&#45;&gt;Node240</title>
<path fill="none" stroke="#191970" d="M48.1783,-120.8147C60.1748,-129.1957 76.1121,-138.6387 92,-143 137.0388,-155.3634 191.4398,-143.3172 223.5185,-133.5746"/>
<polygon fill="#191970" stroke="#191970" points="49.9763,-117.7936 39.8387,-114.7145 45.8435,-123.4434 49.9763,-117.7936"/>
</g>
<!-- Node241 -->
<g id="node8" class="node">
<title>Node241</title>
<g id="a_node8"><a xlink:href="game_8h.html#afb1a61b5802eed643536ce45225d2000" target="_top" xlink:title="Randomly fires upon player&#39;s boats using a state machine to simulate a strategy In case of a hit the ...">
<polygon fill="#ffffff" stroke="#000000" points="209.5,-38.5 209.5,-57.5 292.5,-57.5 292.5,-38.5 209.5,-38.5"/>
<text text-anchor="middle" x="251" y="-45.5" font-family="Helvetica,sans-Serif" font-size="10.00" fill="#000000">game_round_ai</text>
</a>
</g>
</g>
<!-- Node234&#45;&gt;Node241 -->
<g id="edge10" class="edge">
<title>Node234&#45;&gt;Node241</title>
<path fill="none" stroke="#191970" d="M51.8726,-90.3239C63.5743,-83.7556 78.11,-76.4944 92,-72 130.6463,-59.4951 176.7247,-53.452 209.3031,-50.5649"/>
<polygon fill="#191970" stroke="#191970" points="50.0557,-87.3316 43.1621,-95.377 53.5683,-93.3865 50.0557,-87.3316"/>
</g>
<!-- Node242 -->
<g id="node9" class="node">
<title>Node242</title>
<g id="a_node9"><a xlink:href="game_8h.html#a428e51196f5847d0e5e50822aa1c9716" target="_top" xlink:title="displays the end game screen (lost) ">
<polygon fill="#ffffff" stroke="#000000" points="92,-.5 92,-19.5 172,-19.5 172,-.5 92,-.5"/>
<text text-anchor="middle" x="132" y="-7.5" font-family="Helvetica,sans-Serif" font-size="10.00" fill="#000000">game_over_sp</text>
</a>
</g>
</g>
<!-- Node234&#45;&gt;Node242 -->
<g id="edge12" class="edge">
<title>Node234&#45;&gt;Node242</title>
<path fill="none" stroke="#191970" d="M41.4302,-87.348C53.5804,-72.098 72.5086,-50.048 92,-34 98.5022,-28.6465 106.3229,-23.6818 113.3177,-19.6735"/>
<polygon fill="#191970" stroke="#191970" points="38.5036,-85.4089 35.1065,-95.4444 44.0203,-89.7178 38.5036,-85.4089"/>
</g>
<!-- Node243 -->
<g id="node10" class="node">
<title>Node243</title>
<g id="a_node10"><a xlink:href="game_8h.html#a0ecf3df63f0053cd3177ad9dd3716b54" target="_top" xlink:title="displays the end game screen (won) ">
<polygon fill="#ffffff" stroke="#000000" points="101.5,-114.5 101.5,-133.5 162.5,-133.5 162.5,-114.5 101.5,-114.5"/>
<text text-anchor="middle" x="132" y="-121.5" font-family="Helvetica,sans-Serif" font-size="10.00" fill="#000000">winner_sp</text>
</a>
</g>
</g>
<!-- Node234&#45;&gt;Node243 -->
<g id="edge14" class="edge">
<title>Node234&#45;&gt;Node243</title>
<path fill="none" stroke="#191970" d="M66.0164,-111.9453C77.6174,-114.0647 90.2216,-116.3674 101.2757,-118.3869"/>
<polygon fill="#191970" stroke="#191970" points="66.6101,-108.4959 56.1439,-110.1417 65.352,-115.3819 66.6101,-108.4959"/>
</g>
<!-- Node236 -->
<g id="node3" class="node">
<title>Node236</title>
<g id="a_node3"><a xlink:href="menu_8h.html#a95c8dcba38d720d3e4bd6fcf9a8ee279" target="_top" xlink:title="selects a menu option ">
<polygon fill="#ffffff" stroke="#000000" points="425,-95.5 425,-114.5 516,-114.5 516,-95.5 425,-95.5"/>
<text text-anchor="middle" x="470.5" y="-102.5" font-family="Helvetica,sans-Serif" font-size="10.00" fill="#000000">select_menu_opt</text>
</a>
</g>
</g>
<!-- Node235&#45;&gt;Node236 -->
<g id="edge2" class="edge">
<title>Node235&#45;&gt;Node236</title>
<path fill="none" stroke="#191970" d="M397.4694,-92.4993C406.2612,-94.0042 415.707,-95.621 424.7914,-97.176"/>
<polygon fill="#191970" stroke="#191970" points="397.9572,-89.0319 387.51,-90.7945 396.7761,-95.9316 397.9572,-89.0319"/>
</g>
<!-- Node237 -->
<g id="node4" class="node">
<title>Node237</title>
<g id="a_node4"><a xlink:href="menu_8h.html#a6ed6ac9188a15c74b9d07d12b34397c0" target="_top" xlink:title="Subscribes interruptions of the necessary modules Calls main menu and game functions. ">
<polygon fill="#ffffff" stroke="#000000" points="552,-95.5 552,-114.5 644,-114.5 644,-95.5 552,-95.5"/>
<text text-anchor="middle" x="598" y="-102.5" font-family="Helvetica,sans-Serif" font-size="10.00" fill="#000000">game_main_cicle</text>
</a>
</g>
</g>
<!-- Node236&#45;&gt;Node237 -->
<g id="edge3" class="edge">
<title>Node236&#45;&gt;Node237</title>
<path fill="none" stroke="#191970" d="M526.3846,-105C534.8691,-105 543.5423,-105 551.7907,-105"/>
<polygon fill="#191970" stroke="#191970" points="526.1703,-101.5001 516.1703,-105 526.1703,-108.5001 526.1703,-101.5001"/>
</g>
<!-- Node238 -->
<g id="node5" class="node">
<title>Node238</title>
<g id="a_node5"><a xlink:href="proj_8c.html#a2a16f651eccbd248e1ad3b3b924b143b" target="_top" xlink:title="proj_main_loop">
<polygon fill="#ffffff" stroke="#000000" points="680,-95.5 680,-114.5 762,-114.5 762,-95.5 680,-95.5"/>
<text text-anchor="middle" x="721" y="-102.5" font-family="Helvetica,sans-Serif" font-size="10.00" fill="#000000">proj_main_loop</text>
</a>
</g>
</g>
<!-- Node237&#45;&gt;Node238 -->
<g id="edge4" class="edge">
<title>Node237&#45;&gt;Node238</title>
<path fill="none" stroke="#191970" d="M654.1908,-105C662.8339,-105 671.6179,-105 679.8531,-105"/>
<polygon fill="#191970" stroke="#191970" points="654.1506,-101.5001 644.1506,-105 654.1506,-108.5001 654.1506,-101.5001"/>
</g>
<!-- Node239&#45;&gt;Node236 -->
<g id="edge6" class="edge">
<title>Node239&#45;&gt;Node236</title>
<path fill="none" stroke="#191970" d="M399.3594,-117.1772C407.6038,-115.766 416.3495,-114.269 424.7839,-112.8253"/>
<polygon fill="#191970" stroke="#191970" points="398.5121,-113.7713 389.246,-118.9083 399.6931,-120.6709 398.5121,-113.7713"/>
</g>
<!-- Node240&#45;&gt;Node235 -->
<g id="edge8" class="edge">
<title>Node240&#45;&gt;Node235</title>
<path fill="none" stroke="#191970" d="M288.0379,-111.0282C302.4931,-105.9656 318.7671,-100.2659 332.1296,-95.5859"/>
<polygon fill="#191970" stroke="#191970" points="286.6601,-107.8022 278.3791,-114.411 288.974,-114.4088 286.6601,-107.8022"/>
</g>
<!-- Node240&#45;&gt;Node239 -->
<g id="edge9" class="edge">
<title>Node240&#45;&gt;Node239</title>
<path fill="none" stroke="#191970" d="M304.3886,-124C313.131,-124 321.9033,-124 329.797,-124"/>
<polygon fill="#191970" stroke="#191970" points="304.1939,-120.5001 294.1938,-124 304.1938,-127.5001 304.1939,-120.5001"/>
</g>
<!-- Node241&#45;&gt;Node235 -->
<g id="edge11" class="edge">
<title>Node241&#45;&gt;Node235</title>
<path fill="none" stroke="#191970" d="M288.0379,-60.9718C302.4931,-66.0344 318.7671,-71.7341 332.1296,-76.4141"/>
<polygon fill="#191970" stroke="#191970" points="288.974,-57.5912 278.3791,-57.589 286.6601,-64.1978 288.974,-57.5912"/>
</g>
<!-- Node242&#45;&gt;Node241 -->
<g id="edge13" class="edge">
<title>Node242&#45;&gt;Node241</title>
<path fill="none" stroke="#191970" d="M171.7098,-22.6804C187.7886,-27.8148 206.0433,-33.6441 220.9809,-38.4141"/>
<polygon fill="#191970" stroke="#191970" points="172.6195,-19.2969 162.0287,-19.589 170.4901,-25.9652 172.6195,-19.2969"/>
</g>
<!-- Node243&#45;&gt;Node240 -->
<g id="edge15" class="edge">
<title>Node243&#45;&gt;Node240</title>
<path fill="none" stroke="#191970" d="M172.7237,-124C184.0676,-124 196.426,-124 207.9016,-124"/>
<polygon fill="#191970" stroke="#191970" points="172.6455,-120.5001 162.6455,-124 172.6454,-127.5001 172.6455,-120.5001"/>
</g>
</g>
</svg>
        <g id="navigator" transform="translate(0 0)" fill="#404254">
                <rect fill="#f2f5e9" fill-opacity="0.5" stroke="#606060" stroke-width=".5" x="0" y="0" width="60" height="60"/>
                <use id="zoomplus" xlink:href="#zoomPlus" x="17" y="9" onmousedown="handleZoom(evt,'in')"/>
                <use id="zoomminus" xlink:href="#zoomMin" x="42" y="9" onmousedown="handleZoom(evt,'out')"/>
                <use id="reset" xlink:href="#resetDef" x="30" y="36" onmousedown="handleReset()"/>
                <g id="arrowUp" xlink:href="#dirArrow" transform="translate(30 24)" onmousedown="handlePan(0,-1)">
                  <use xlink:href="#rim" fill="#404040">
                        <set attributeName="fill" to="#808080" begin="arrowUp.mouseover" end="arrowUp.mouseout"/>
                  </use>
                  <path fill="none" stroke="white" stroke-width="1.5" d="M0,-3.0v7 M-2.5,-0.5L0,-3.0L2.5,-0.5"/>
                </g>
                <g id="arrowRight" xlink:href="#dirArrow" transform="rotate(90) translate(36 -43)" onmousedown="handlePan(1,0)">
                  <use xlink:href="#rim" fill="#404040">
                        <set attributeName="fill" to="#808080" begin="arrowRight.mouseover" end="arrowRight.mouseout"/>
                  </use>
                  <path fill="none" stroke="white" stroke-width="1.5" d="M0,-3.0v7 M-2.5,-0.5L0,-3.0L2.5,-0.5"/>
                </g>
                <g id="arrowDown" xlink:href="#dirArrow" transform="rotate(180) translate(-30 -48)" onmousedown="handlePan(0,1)">
                  <use xlink:href="#rim" fill="#404040">
                        <set attributeName="fill" to="#808080" begin="arrowDown.mouseover" end="arrowDown.mouseout"/>
                  </use>
                  <path fill="none" stroke="white" stroke-width="1.5" d="M0,-3.0v7 M-2.5,-0.5L0,-3.0L2.5,-0.5"/>
                </g>
                <g id="arrowLeft" xlink:href="#dirArrow" transform="rotate(270) translate(-36 17)" onmousedown="handlePan(-1,0)">
                  <use xlink:href="#rim" fill="#404040">
                        <set attributeName="fill" to="#808080" begin="arrowLeft.mouseover" end="arrowLeft.mouseout"/>
                  </use>
                  <path fill="none" stroke="white" stroke-width="1.5" d="M0,-3.0v7 M-2.5,-0.5L0,-3.0L2.5,-0.5"/>
                </g>
        </g>
        <svg viewBox="0 0 15 15" width="100%" height="30px" preserveAspectRatio="xMaxYMin meet">
         <g id="arrow_out" transform="scale(0.3 0.3)">
          <a xlink:href="game_8c_abdd70639378b19cfc929273ef7b4ff45_icgraph_org.svg" target="_base">
           <rect id="button" ry="5" rx="5" y="6" x="6" height="38" width="38"
                fill="#f2f5e9" fill-opacity="0.5" stroke="#606060" stroke-width="1.0"/>
           <path id="arrow"
             d="M 11.500037,31.436501 C 11.940474,20.09759 22.043105,11.32322 32.158766,21.979434 L 37.068811,17.246167 C 37.068811,17.246167 37.088388,32 37.088388,32 L 22.160133,31.978069 C 22.160133,31.978069 26.997745,27.140456 26.997745,27.140456 C 18.528582,18.264221 13.291696,25.230495 11.500037,31.436501 z"
             style="fill:#404040;"/>
          </a>
         </g>
        </svg>
</svg>
