<?xml version="1.0" encoding="UTF-8" standalone="no"?>
<!DOCTYPE svg PUBLIC "-//W3C//DTD SVG 1.1//EN"
 "http://www.w3.org/Graphics/SVG/1.1/DTD/svg11.dtd">
<!-- Generated by graphviz version 2.40.1 (20161225.0304)
 -->
<!-- Title: get_video_mem Pages: 1 -->
<!--zoomable 208 -->
<svg id="main" version="1.1" xmlns="http://www.w3.org/2000/svg" xmlns:xlink="http://www.w3.org/1999/xlink" xml:space="preserve" onload="init(evt)">
<style type="text/css"><![CDATA[
.edge:hover path { stroke: red; }
.edge:hover polygon { stroke: red; fill: red; }
]]></style>
<script type="text/javascript"><![CDATA[
var edges = document.getElementsByTagName('g');
if (edges && edges.length) {
  for (var i=0;i<edges.length;i++) {
    if (edges[i].id.substr(0,4)=='edge') {
      edges[i].setAttribute('class','edge');
    }
  }
}
]]></script>
        <defs>
                <circle id="rim" cx="0" cy="0" r="7"/>
                <circle id="rim2" cx="0" cy="0" r="3.5"/>
                <g id="zoomPlus">
                        <use xlink:href="#rim" fill="#404040">
                                <set attributeName="fill" to="#808080" begin="zoomplus.mouseover" end="zoomplus.mouseout"/>
                        </use>
                        <path d="M-4,0h8M0,-4v8" fill="none" stroke="white" stroke-width="1.5" pointer-events="none"/>
                </g>
                <g id="zoomMin">
                        <use xlink:href="#rim" fill="#404040">
                                <set attributeName="fill" to="#808080" begin="zoomminus.mouseover" end="zoomminus.mouseout"/>
                        </use>
                        <path d="M-4,0h8" fill="none" stroke="white" stroke-width="1.5" pointer-events="none"/>
                </g>
                <g id="dirArrow">
                        <path fill="none" stroke="white" stroke-width="1.5" d="M0,-3.0v7 M-2.5,-0.5L0,-3.0L2.5,-0.5"/>
                </g>
               <g id="resetDef">
                       <use xlink:href="#rim2" fill="#404040">
                               <set attributeName="fill" to="#808080" begin="reset.mouseover" end="reset.mouseout"/>
                       </use>
               </g>
        </defs>

<script type="text/javascript">
var viewWidth = 802;
var viewHeight = 208;
var sectionId = 'dynsection-5';
</script>
<script xlink:href="svgpan.js"/>
<svg id="graph" class="graph">
<g id="viewport">
<title>get_video_mem</title>
<polygon fill="#ffffff" stroke="transparent" points="-4,4 -4,-204 798,-204 798,4 -4,4"/>
<!-- Node62 -->
<g id="node1" class="node">
<title>Node62</title>
<polygon fill="#bfbfbf" stroke="#000000" points="0,-85.5 0,-104.5 86,-104.5 86,-85.5 0,-85.5"/>
<text text-anchor="middle" x="43" y="-92.5" font-family="Helvetica,sans-Serif" font-size="10.00" fill="#000000">get_video_mem</text>
</g>
<!-- Node63 -->
<g id="node2" class="node">
<title>Node63</title>
<g id="a_node2"><a xlink:href="game_8h.html#a382ed7c0cb3201c13d4396ad9afc5a3e" target="_top" xlink:title="Lets the player initialize the board unsign a graphical interface 10 boats must be positioned before ...">
<polygon fill="#ffffff" stroke="#000000" points="238,-104.5 238,-123.5 326,-123.5 326,-104.5 238,-104.5"/>
<text text-anchor="middle" x="282" y="-111.5" font-family="Helvetica,sans-Serif" font-size="10.00" fill="#000000">game_init_board</text>
</a>
</g>
</g>
<!-- Node62&#45;&gt;Node63 -->
<g id="edge1" class="edge">
<title>Node62&#45;&gt;Node63</title>
<path fill="none" stroke="#191970" d="M96.1759,-99.2274C138.7306,-102.6104 197.7079,-107.299 237.7223,-110.48"/>
<polygon fill="#191970" stroke="#191970" points="96.2504,-95.7223 86.0044,-98.4188 95.6956,-102.7003 96.2504,-95.7223"/>
</g>
<!-- Node69 -->
<g id="node8" class="node">
<title>Node69</title>
<g id="a_node8"><a xlink:href="game_8h.html#aaeeee1282b90aa12468a1862c7871ee4" target="_top" xlink:title="Lets the player fire against the enemy&#39;s boats using a graphical interface Shows previously hit cells...">
<polygon fill="#ffffff" stroke="#000000" points="239,-66.5 239,-85.5 325,-85.5 325,-66.5 239,-66.5"/>
<text text-anchor="middle" x="282" y="-73.5" font-family="Helvetica,sans-Serif" font-size="10.00" fill="#000000">game_round_sp</text>
</a>
</g>
</g>
<!-- Node62&#45;&gt;Node69 -->
<g id="edge8" class="edge">
<title>Node62&#45;&gt;Node69</title>
<path fill="none" stroke="#191970" d="M66.4066,-80.293C81.611,-71.6304 102.2159,-61.5108 122,-57 166.7278,-46.8019 219.8121,-57.4677 252.1899,-66.4509"/>
<polygon fill="#191970" stroke="#191970" points="64.5265,-77.3385 57.6932,-85.4352 68.0842,-83.3669 64.5265,-77.3385"/>
</g>
<!-- Node70 -->
<g id="node9" class="node">
<title>Node70</title>
<g id="a_node9"><a xlink:href="game_8h.html#afb1a61b5802eed643536ce45225d2000" target="_top" xlink:title="Randomly fires upon player&#39;s boats using a state machine to simulate a strategy In case of a hit the ...">
<polygon fill="#ffffff" stroke="#000000" points="240.5,-142.5 240.5,-161.5 323.5,-161.5 323.5,-142.5 240.5,-142.5"/>
<text text-anchor="middle" x="282" y="-149.5" font-family="Helvetica,sans-Serif" font-size="10.00" fill="#000000">game_round_ai</text>
</a>
</g>
</g>
<!-- Node62&#45;&gt;Node70 -->
<g id="edge11" class="edge">
<title>Node62&#45;&gt;Node70</title>
<path fill="none" stroke="#191970" d="M83.9093,-107.5345C96.1131,-111.1045 109.5535,-114.8703 122,-118 161.934,-128.0416 207.9608,-137.6157 240.367,-144.0304"/>
<polygon fill="#191970" stroke="#191970" points="84.5802,-104.083 73.998,-104.6001 82.5929,-110.7951 84.5802,-104.083"/>
</g>
<!-- Node71 -->
<g id="node10" class="node">
<title>Node71</title>
<g id="a_node10"><a xlink:href="game_8h.html#a428e51196f5847d0e5e50822aa1c9716" target="_top" xlink:title="displays the end game screen (lost) ">
<polygon fill="#ffffff" stroke="#000000" points="122,-180.5 122,-199.5 202,-199.5 202,-180.5 122,-180.5"/>
<text text-anchor="middle" x="162" y="-187.5" font-family="Helvetica,sans-Serif" font-size="10.00" fill="#000000">game_over_sp</text>
</a>
</g>
</g>
<!-- Node62&#45;&gt;Node71 -->
<g id="edge13" class="edge">
<title>Node62&#45;&gt;Node71</title>
<path fill="none" stroke="#191970" d="M59.969,-112.0073C75.4336,-127.0678 99.2654,-149.2046 122,-166 129.0349,-171.1971 137.2533,-176.2806 144.4045,-180.4214"/>
<polygon fill="#191970" stroke="#191970" points="62.2754,-109.3663 52.6949,-104.8424 57.3632,-114.3534 62.2754,-109.3663"/>
</g>
<!-- Node72 -->
<g id="node11" class="node">
<title>Node72</title>
<g id="a_node11"><a xlink:href="game_8h.html#a0ecf3df63f0053cd3177ad9dd3716b54" target="_top" xlink:title="displays the end game screen (won) ">
<polygon fill="#ffffff" stroke="#000000" points="131.5,-66.5 131.5,-85.5 192.5,-85.5 192.5,-66.5 131.5,-66.5"/>
<text text-anchor="middle" x="162" y="-73.5" font-family="Helvetica,sans-Serif" font-size="10.00" fill="#000000">winner_sp</text>
</a>
</g>
</g>
<!-- Node62&#45;&gt;Node72 -->
<g id="edge15" class="edge">
<title>Node62&#45;&gt;Node72</title>
<path fill="none" stroke="#191970" d="M96.2343,-86.5004C108.2101,-84.5883 120.5283,-82.6215 131.2191,-80.9146"/>
<polygon fill="#191970" stroke="#191970" points="95.6214,-83.0538 86.2984,-88.0868 96.7251,-89.9663 95.6214,-83.0538"/>
</g>
<!-- Node73 -->
<g id="node12" class="node">
<title>Node73</title>
<g id="a_node12"><a xlink:href="menu_8h.html#a4cc4e9de5c448babdb711586dd12bec0" target="_top" xlink:title="graphical interface for the main menu ">
<polygon fill="#ffffff" stroke="#000000" points="482,-.5 482,-19.5 523,-19.5 523,-.5 482,-.5"/>
<text text-anchor="middle" x="502.5" y="-7.5" font-family="Helvetica,sans-Serif" font-size="10.00" fill="#000000">menu</text>
</a>
</g>
</g>
<!-- Node62&#45;&gt;Node73 -->
<g id="edge17" class="edge">
<title>Node62&#45;&gt;Node73</title>
<path fill="none" stroke="#191970" d="M63.4752,-79.3911C78.7475,-68.6338 100.5853,-55.0518 122,-48 253.4734,-4.7062 423.1875,-6.7273 481.641,-8.9678"/>
<polygon fill="#191970" stroke="#191970" points="61.3323,-76.6216 55.2946,-85.3277 65.4437,-82.287 61.3323,-76.6216"/>
</g>
<!-- Node64 -->
<g id="node3" class="node">
<title>Node64</title>
<g id="a_node3"><a xlink:href="game_8h.html#aff1f849979a9ca10d6ff2bce0dfb7fd5" target="_top" xlink:title="Single Player Iniciates the boards from the respective players Starts the game loop (1 turn per playe...">
<polygon fill="#ffffff" stroke="#000000" points="363.5,-104.5 363.5,-123.5 419.5,-123.5 419.5,-104.5 363.5,-104.5"/>
<text text-anchor="middle" x="391.5" y="-111.5" font-family="Helvetica,sans-Serif" font-size="10.00" fill="#000000">game_sp</text>
</a>
</g>
</g>
<!-- Node63&#45;&gt;Node64 -->
<g id="edge2" class="edge">
<title>Node63&#45;&gt;Node64</title>
<path fill="none" stroke="#191970" d="M336.3605,-114C345.7574,-114 355.1696,-114 363.4898,-114"/>
<polygon fill="#191970" stroke="#191970" points="336.2222,-110.5001 326.2222,-114 336.2222,-117.5001 336.2222,-110.5001"/>
</g>
<!-- Node68 -->
<g id="node7" class="node">
<title>Node68</title>
<g id="a_node7"><a xlink:href="game_8h.html#a03f40ddf75045683b3f488d4839937ab" target="_top" xlink:title="Multiplayer. ">
<polygon fill="#ffffff" stroke="#000000" points="362,-66.5 362,-85.5 421,-85.5 421,-66.5 362,-66.5"/>
<text text-anchor="middle" x="391.5" y="-73.5" font-family="Helvetica,sans-Serif" font-size="10.00" fill="#000000">game_mp</text>
</a>
</g>
</g>
<!-- Node63&#45;&gt;Node68 -->
<g id="edge6" class="edge">
<title>Node63&#45;&gt;Node68</title>
<path fill="none" stroke="#191970" d="M319.3792,-101.0282C333.9676,-95.9656 350.3917,-90.2659 363.8774,-85.5859"/>
<polygon fill="#191970" stroke="#191970" points="317.9313,-97.8259 309.6315,-104.411 320.2263,-104.439 317.9313,-97.8259"/>
</g>
<!-- Node65 -->
<g id="node4" class="node">
<title>Node65</title>
<g id="a_node4"><a xlink:href="menu_8h.html#a95c8dcba38d720d3e4bd6fcf9a8ee279" target="_top" xlink:title="selects a menu option ">
<polygon fill="#ffffff" stroke="#000000" points="457,-66.5 457,-85.5 548,-85.5 548,-66.5 457,-66.5"/>
<text text-anchor="middle" x="502.5" y="-73.5" font-family="Helvetica,sans-Serif" font-size="10.00" fill="#000000">select_menu_opt</text>
</a>
</g>
</g>
<!-- Node64&#45;&gt;Node65 -->
<g id="edge3" class="edge">
<title>Node64&#45;&gt;Node65</title>
<path fill="none" stroke="#191970" d="M429.3913,-101.0282C444.1795,-95.9656 460.8285,-90.2659 474.499,-85.5859"/>
<polygon fill="#191970" stroke="#191970" points="427.8373,-97.8607 419.51,-104.411 430.1046,-104.4834 427.8373,-97.8607"/>
</g>
<!-- Node66 -->
<g id="node5" class="node">
<title>Node66</title>
<g id="a_node5"><a xlink:href="menu_8h.html#a6ed6ac9188a15c74b9d07d12b34397c0" target="_top" xlink:title="Subscribes interruptions of the necessary modules Calls main menu and game functions. ">
<polygon fill="#ffffff" stroke="#000000" points="584,-28.5 584,-47.5 676,-47.5 676,-28.5 584,-28.5"/>
<text text-anchor="middle" x="630" y="-35.5" font-family="Helvetica,sans-Serif" font-size="10.00" fill="#000000">game_main_cicle</text>
</a>
</g>
</g>
<!-- Node65&#45;&gt;Node66 -->
<g id="edge4" class="edge">
<title>Node65&#45;&gt;Node66</title>
<path fill="none" stroke="#191970" d="M544.5592,-63.4647C561.9041,-58.2952 581.6812,-52.4009 597.8367,-47.5859"/>
<polygon fill="#191970" stroke="#191970" points="543.2574,-60.2005 534.6736,-66.411 545.2568,-66.9089 543.2574,-60.2005"/>
</g>
<!-- Node67 -->
<g id="node6" class="node">
<title>Node67</title>
<g id="a_node6"><a xlink:href="proj_8c.html#a2a16f651eccbd248e1ad3b3b924b143b" target="_top" xlink:title="proj_main_loop">
<polygon fill="#ffffff" stroke="#000000" points="712,-28.5 712,-47.5 794,-47.5 794,-28.5 712,-28.5"/>
<text text-anchor="middle" x="753" y="-35.5" font-family="Helvetica,sans-Serif" font-size="10.00" fill="#000000">proj_main_loop</text>
</a>
</g>
</g>
<!-- Node66&#45;&gt;Node67 -->
<g id="edge5" class="edge">
<title>Node66&#45;&gt;Node67</title>
<path fill="none" stroke="#191970" d="M686.1908,-38C694.8339,-38 703.6179,-38 711.8531,-38"/>
<polygon fill="#191970" stroke="#191970" points="686.1506,-34.5001 676.1506,-38 686.1506,-41.5001 686.1506,-34.5001"/>
</g>
<!-- Node68&#45;&gt;Node65 -->
<g id="edge7" class="edge">
<title>Node68&#45;&gt;Node65</title>
<path fill="none" stroke="#191970" d="M431.3594,-76C439.6038,-76 448.3495,-76 456.7839,-76"/>
<polygon fill="#191970" stroke="#191970" points="431.246,-72.5001 421.246,-76 431.2459,-79.5001 431.246,-72.5001"/>
</g>
<!-- Node69&#45;&gt;Node64 -->
<g id="edge9" class="edge">
<title>Node69&#45;&gt;Node64</title>
<path fill="none" stroke="#191970" d="M319.3792,-88.9718C333.9676,-94.0344 350.3917,-99.7341 363.8774,-104.4141"/>
<polygon fill="#191970" stroke="#191970" points="320.2263,-85.561 309.6315,-85.589 317.9313,-92.1741 320.2263,-85.561"/>
</g>
<!-- Node69&#45;&gt;Node68 -->
<g id="edge10" class="edge">
<title>Node69&#45;&gt;Node68</title>
<path fill="none" stroke="#191970" d="M335.4068,-76C344.4436,-76 353.5292,-76 361.6781,-76"/>
<polygon fill="#191970" stroke="#191970" points="335.2773,-72.5001 325.2773,-76 335.2773,-79.5001 335.2773,-72.5001"/>
</g>
<!-- Node70&#45;&gt;Node64 -->
<g id="edge12" class="edge">
<title>Node70&#45;&gt;Node64</title>
<path fill="none" stroke="#191970" d="M319.3792,-139.0282C333.9676,-133.9656 350.3917,-128.2659 363.8774,-123.5859"/>
<polygon fill="#191970" stroke="#191970" points="317.9313,-135.8259 309.6315,-142.411 320.2263,-142.439 317.9313,-135.8259"/>
</g>
<!-- Node71&#45;&gt;Node70 -->
<g id="edge14" class="edge">
<title>Node71&#45;&gt;Node70</title>
<path fill="none" stroke="#191970" d="M202.0435,-177.3196C218.2574,-172.1852 236.6656,-166.3559 251.7286,-161.5859"/>
<polygon fill="#191970" stroke="#191970" points="200.7578,-174.0553 192.2811,-180.411 202.8711,-180.7287 200.7578,-174.0553"/>
</g>
<!-- Node72&#45;&gt;Node69 -->
<g id="edge16" class="edge">
<title>Node72&#45;&gt;Node69</title>
<path fill="none" stroke="#191970" d="M202.8666,-76C214.4419,-76 227.0783,-76 238.7872,-76"/>
<polygon fill="#191970" stroke="#191970" points="202.5916,-72.5001 192.5916,-76 202.5915,-79.5001 202.5916,-72.5001"/>
</g>
<!-- Node73&#45;&gt;Node66 -->
<g id="edge19" class="edge">
<title>Node73&#45;&gt;Node66</title>
<path fill="none" stroke="#191970" d="M533.1557,-16.7322C549.1403,-20.2426 568.9658,-24.5964 586.5076,-28.4487"/>
<polygon fill="#191970" stroke="#191970" points="533.7869,-13.2875 523.2688,-14.561 532.2853,-20.1246 533.7869,-13.2875"/>
</g>
<!-- Node73&#45;&gt;Node73 -->
<g id="edge18" class="edge">
<title>Node73&#45;&gt;Node73</title>
<path fill="none" stroke="#191970" d="M482.1306,-29.4C483.491,-34.3146 490.2808,-38 502.5,-38 522.0508,-38 527.7022,-28.5653 519.4542,-19.7571"/>
<polygon fill="#191970" stroke="#191970" points="485.5065,-30.3518 485.5458,-19.7571 478.9081,-28.0149 485.5065,-30.3518"/>
</g>
</g>
</svg>
        <g id="navigator" transform="translate(0 0)" fill="#404254">
                <rect fill="#f2f5e9" fill-opacity="0.5" stroke="#606060" stroke-width=".5" x="0" y="0" width="60" height="60"/>
                <use id="zoomplus" xlink:href="#zoomPlus" x="17" y="9" onmousedown="handleZoom(evt,'in')"/>
                <use id="zoomminus" xlink:href="#zoomMin" x="42" y="9" onmousedown="handleZoom(evt,'out')"/>
                <use id="reset" xlink:href="#resetDef" x="30" y="36" onmousedown="handleReset()"/>
                <g id="arrowUp" xlink:href="#dirArrow" transform="translate(30 24)" onmousedown="handlePan(0,-1)">
                  <use xlink:href="#rim" fill="#404040">
                        <set attributeName="fill" to="#808080" begin="arrowUp.mouseover" end="arrowUp.mouseout"/>
                  </use>
                  <path fill="none" stroke="white" stroke-width="1.5" d="M0,-3.0v7 M-2.5,-0.5L0,-3.0L2.5,-0.5"/>
                </g>
                <g id="arrowRight" xlink:href="#dirArrow" transform="rotate(90) translate(36 -43)" onmousedown="handlePan(1,0)">
                  <use xlink:href="#rim" fill="#404040">
                        <set attributeName="fill" to="#808080" begin="arrowRight.mouseover" end="arrowRight.mouseout"/>
                  </use>
                  <path fill="none" stroke="white" stroke-width="1.5" d="M0,-3.0v7 M-2.5,-0.5L0,-3.0L2.5,-0.5"/>
                </g>
                <g id="arrowDown" xlink:href="#dirArrow" transform="rotate(180) translate(-30 -48)" onmousedown="handlePan(0,1)">
                  <use xlink:href="#rim" fill="#404040">
                        <set attributeName="fill" to="#808080" begin="arrowDown.mouseover" end="arrowDown.mouseout"/>
                  </use>
                  <path fill="none" stroke="white" stroke-width="1.5" d="M0,-3.0v7 M-2.5,-0.5L0,-3.0L2.5,-0.5"/>
                </g>
                <g id="arrowLeft" xlink:href="#dirArrow" transform="rotate(270) translate(-36 17)" onmousedown="handlePan(-1,0)">
                  <use xlink:href="#rim" fill="#404040">
                        <set attributeName="fill" to="#808080" begin="arrowLeft.mouseover" end="arrowLeft.mouseout"/>
                  </use>
                  <path fill="none" stroke="white" stroke-width="1.5" d="M0,-3.0v7 M-2.5,-0.5L0,-3.0L2.5,-0.5"/>
                </g>
        </g>
        <svg viewBox="0 0 15 15" width="100%" height="30px" preserveAspectRatio="xMaxYMin meet">
         <g id="arrow_out" transform="scale(0.3 0.3)">
          <a xlink:href="graphic_8h_a541e181cdbfecf6110d4d4c3ee087c30_icgraph_org.svg" target="_base">
           <rect id="button" ry="5" rx="5" y="6" x="6" height="38" width="38"
                fill="#f2f5e9" fill-opacity="0.5" stroke="#606060" stroke-width="1.0"/>
           <path id="arrow"
             d="M 11.500037,31.436501 C 11.940474,20.09759 22.043105,11.32322 32.158766,21.979434 L 37.068811,17.246167 C 37.068811,17.246167 37.088388,32 37.088388,32 L 22.160133,31.978069 C 22.160133,31.978069 26.997745,27.140456 26.997745,27.140456 C 18.528582,18.264221 13.291696,25.230495 11.500037,31.436501 z"
             style="fill:#404040;"/>
          </a>
         </g>
        </svg>
</svg>
