<?xml version="1.0" encoding="UTF-8" standalone="no"?>
<!DOCTYPE svg PUBLIC "-//W3C//DTD SVG 1.1//EN"
 "http://www.w3.org/Graphics/SVG/1.1/DTD/svg11.dtd">
<!-- Generated by graphviz version 2.40.1 (20161225.0304)
 -->
<!-- Title: get_bytes_per_pixel Pages: 1 -->
<!--zoomable 370 -->
<svg id="main" version="1.1" xmlns="http://www.w3.org/2000/svg" xmlns:xlink="http://www.w3.org/1999/xlink" xml:space="preserve" onload="init(evt)">
<style type="text/css"><![CDATA[
.edge:hover path { stroke: red; }
.edge:hover polygon { stroke: red; fill: red; }
]]></style>
<script type="text/javascript"><![CDATA[
var edges = document.getElementsByTagName('g');
if (edges && edges.length) {
  for (var i=0;i<edges.length;i++) {
    if (edges[i].id.substr(0,4)=='edge') {
      edges[i].setAttribute('class','edge');
    }
  }
}
]]></script>
        <defs>
                <circle id="rim" cx="0" cy="0" r="7"/>
                <circle id="rim2" cx="0" cy="0" r="3.5"/>
                <g id="zoomPlus">
                        <use xlink:href="#rim" fill="#404040">
                                <set attributeName="fill" to="#808080" begin="zoomplus.mouseover" end="zoomplus.mouseout"/>
                        </use>
                        <path d="M-4,0h8M0,-4v8" fill="none" stroke="white" stroke-width="1.5" pointer-events="none"/>
                </g>
                <g id="zoomMin">
                        <use xlink:href="#rim" fill="#404040">
                                <set attributeName="fill" to="#808080" begin="zoomminus.mouseover" end="zoomminus.mouseout"/>
                        </use>
                        <path d="M-4,0h8" fill="none" stroke="white" stroke-width="1.5" pointer-events="none"/>
                </g>
                <g id="dirArrow">
                        <path fill="none" stroke="white" stroke-width="1.5" d="M0,-3.0v7 M-2.5,-0.5L0,-3.0L2.5,-0.5"/>
                </g>
               <g id="resetDef">
                       <use xlink:href="#rim2" fill="#404040">
                               <set attributeName="fill" to="#808080" begin="reset.mouseover" end="reset.mouseout"/>
                       </use>
               </g>
        </defs>

<script type="text/javascript">
var viewWidth = 1168;
var viewHeight = 370;
var sectionId = 'dynsection-4';
</script>
<script xlink:href="svgpan.js"/>
<svg id="graph" class="graph">
<g id="viewport">
<title>get_bytes_per_pixel</title>
<polygon fill="#ffffff" stroke="transparent" points="-4,4 -4,-366 1164,-366 1164,4 -4,4"/>
<!-- Node39 -->
<g id="node1" class="node">
<title>Node39</title>
<polygon fill="#bfbfbf" stroke="#000000" points="0,-171.5 0,-190.5 104,-190.5 104,-171.5 0,-171.5"/>
<text text-anchor="middle" x="52" y="-178.5" font-family="Helvetica,sans-Serif" font-size="10.00" fill="#000000">get_bytes_per_pixel</text>
</g>
<!-- Node40 -->
<g id="node2" class="node">
<title>Node40</title>
<g id="a_node2"><a xlink:href="graphic_8h.html#a461a83bf6ebfd3b6dc95ca3962858d3d" target="_top" xlink:title="Copies the xmp into the video mem. ">
<polygon fill="#ffffff" stroke="#000000" points="239,-171.5 239,-190.5 301,-190.5 301,-171.5 239,-171.5"/>
<text text-anchor="middle" x="270" y="-178.5" font-family="Helvetica,sans-Serif" font-size="10.00" fill="#000000">draw_xpm</text>
</a>
</g>
</g>
<!-- Node39&#45;&gt;Node40 -->
<g id="edge1" class="edge">
<title>Node39&#45;&gt;Node40</title>
<path fill="none" stroke="#191970" d="M114.3144,-181C155.0116,-181 206.4146,-181 238.7596,-181"/>
<polygon fill="#191970" stroke="#191970" points="114.2165,-177.5001 104.2164,-181 114.2164,-184.5001 114.2165,-177.5001"/>
</g>
<!-- Node56 -->
<g id="node18" class="node">
<title>Node56</title>
<g id="a_node18"><a xlink:href="graphic_8h.html#a90228825151958bdc7dfaffdbbd88494" target="_top" xlink:title="Calculates the color and sets the pixel in the video mem. ">
<polygon fill="#ffffff" stroke="#000000" points="140,-152.5 140,-171.5 203,-171.5 203,-152.5 140,-152.5"/>
<text text-anchor="middle" x="171.5" y="-159.5" font-family="Helvetica,sans-Serif" font-size="10.00" fill="#000000">draw_pixel</text>
</a>
</g>
</g>
<!-- Node39&#45;&gt;Node56 -->
<g id="edge31" class="edge">
<title>Node39&#45;&gt;Node56</title>
<path fill="none" stroke="#191970" d="M114.1311,-171.1214C123.0561,-169.7024 131.9102,-168.2946 139.8951,-167.025"/>
<polygon fill="#191970" stroke="#191970" points="113.3932,-167.6947 104.0668,-172.7216 114.4924,-174.6079 113.3932,-167.6947"/>
</g>
<!-- Node41 -->
<g id="node3" class="node">
<title>Node41</title>
<g id="a_node3"><a xlink:href="game_8h.html#aaeeee1282b90aa12468a1862c7871ee4" target="_top" xlink:title="Lets the player fire against the enemy&#39;s boats using a graphical interface Shows previously hit cells...">
<polygon fill="#ffffff" stroke="#000000" points="605,-152.5 605,-171.5 691,-171.5 691,-152.5 605,-152.5"/>
<text text-anchor="middle" x="648" y="-159.5" font-family="Helvetica,sans-Serif" font-size="10.00" fill="#000000">game_round_sp</text>
</a>
</g>
</g>
<!-- Node40&#45;&gt;Node41 -->
<g id="edge2" class="edge">
<title>Node40&#45;&gt;Node41</title>
<path fill="none" stroke="#191970" d="M295.8815,-166.3928C330.4243,-147.8171 394.0989,-116.7446 453,-105 503.1244,-95.0055 519.3179,-89.4308 568,-105 597.2378,-114.3506 624.9107,-138.7319 638.7647,-152.3841"/>
<polygon fill="#191970" stroke="#191970" points="294.0396,-163.4107 286.9393,-171.2743 297.3937,-169.5548 294.0396,-163.4107"/>
</g>
<!-- Node47 -->
<g id="node9" class="node">
<title>Node47</title>
<g id="a_node9"><a xlink:href="game_8h.html#afb1a61b5802eed643536ce45225d2000" target="_top" xlink:title="Randomly fires upon player&#39;s boats using a state machine to simulate a strategy In case of a hit the ...">
<polygon fill="#ffffff" stroke="#000000" points="606.5,-266.5 606.5,-285.5 689.5,-285.5 689.5,-266.5 606.5,-266.5"/>
<text text-anchor="middle" x="648" y="-273.5" font-family="Helvetica,sans-Serif" font-size="10.00" fill="#000000">game_round_ai</text>
</a>
</g>
</g>
<!-- Node40&#45;&gt;Node47 -->
<g id="edge9" class="edge">
<title>Node40&#45;&gt;Node47</title>
<path fill="none" stroke="#191970" d="M288.315,-197.4136C319.4547,-224.0909 385.893,-275.8075 453,-295 510.0672,-311.3211 579.9394,-296.5639 618.6444,-285.5135"/>
<polygon fill="#191970" stroke="#191970" points="290.3355,-194.5318 280.4968,-190.601 285.7368,-199.8094 290.3355,-194.5318"/>
</g>
<!-- Node48 -->
<g id="node10" class="node">
<title>Node48</title>
<g id="a_node10"><a xlink:href="game_8h.html#a428e51196f5847d0e5e50822aa1c9716" target="_top" xlink:title="displays the end game screen (lost) ">
<polygon fill="#ffffff" stroke="#000000" points="337,-342.5 337,-361.5 417,-361.5 417,-342.5 337,-342.5"/>
<text text-anchor="middle" x="377" y="-349.5" font-family="Helvetica,sans-Serif" font-size="10.00" fill="#000000">game_over_sp</text>
</a>
</g>
</g>
<!-- Node40&#45;&gt;Node48 -->
<g id="edge11" class="edge">
<title>Node40&#45;&gt;Node48</title>
<path fill="none" stroke="#191970" d="M274.8327,-200.4717C283.1641,-230.7505 302.7228,-289.6219 337,-328 342.1789,-333.7985 349.0987,-338.6232 355.7253,-342.3889"/>
<polygon fill="#191970" stroke="#191970" points="278.1917,-199.4828 272.2647,-190.7009 271.4216,-201.2622 278.1917,-199.4828"/>
</g>
<!-- Node49 -->
<g id="node11" class="node">
<title>Node49</title>
<g id="a_node11"><a xlink:href="game_8h.html#a0ecf3df63f0053cd3177ad9dd3716b54" target="_top" xlink:title="displays the end game screen (won) ">
<polygon fill="#ffffff" stroke="#000000" points="346.5,-.5 346.5,-19.5 407.5,-19.5 407.5,-.5 346.5,-.5"/>
<text text-anchor="middle" x="377" y="-7.5" font-family="Helvetica,sans-Serif" font-size="10.00" fill="#000000">winner_sp</text>
</a>
</g>
</g>
<!-- Node40&#45;&gt;Node49 -->
<g id="edge13" class="edge">
<title>Node40&#45;&gt;Node49</title>
<path fill="none" stroke="#191970" d="M274.8327,-161.5283C283.1641,-131.2495 302.7228,-72.3781 337,-34 342.1789,-28.2015 349.0987,-23.3768 355.7253,-19.6111"/>
<polygon fill="#191970" stroke="#191970" points="271.4216,-160.7378 272.2647,-171.2991 278.1917,-162.5172 271.4216,-160.7378"/>
</g>
<!-- Node50 -->
<g id="node12" class="node">
<title>Node50</title>
<g id="a_node12"><a xlink:href="sprite_8h.html#ab0c8b8caefb74f2cf7c79ffb254c4ac4" target="_top" xlink:title="Shows the sprite. ">
<polygon fill="#ffffff" stroke="#000000" points="343.5,-171.5 343.5,-190.5 410.5,-190.5 410.5,-171.5 343.5,-171.5"/>
<text text-anchor="middle" x="377" y="-178.5" font-family="Helvetica,sans-Serif" font-size="10.00" fill="#000000">draw_sprite</text>
</a>
</g>
</g>
<!-- Node40&#45;&gt;Node50 -->
<g id="edge15" class="edge">
<title>Node40&#45;&gt;Node50</title>
<path fill="none" stroke="#191970" d="M311.4847,-181C322.0161,-181 333.2025,-181 343.2948,-181"/>
<polygon fill="#191970" stroke="#191970" points="311.2365,-177.5001 301.2365,-181 311.2364,-184.5001 311.2365,-177.5001"/>
</g>
<!-- Node42 -->
<g id="node4" class="node">
<title>Node42</title>
<g id="a_node4"><a xlink:href="game_8h.html#aff1f849979a9ca10d6ff2bce0dfb7fd5" target="_top" xlink:title="Single Player Iniciates the boards from the respective players Starts the game loop (1 turn per playe...">
<polygon fill="#ffffff" stroke="#000000" points="729.5,-217.5 729.5,-236.5 785.5,-236.5 785.5,-217.5 729.5,-217.5"/>
<text text-anchor="middle" x="757.5" y="-224.5" font-family="Helvetica,sans-Serif" font-size="10.00" fill="#000000">game_sp</text>
</a>
</g>
</g>
<!-- Node41&#45;&gt;Node42 -->
<g id="edge3" class="edge">
<title>Node41&#45;&gt;Node42</title>
<path fill="none" stroke="#191970" d="M672.8459,-176.7487C693.8108,-189.1936 723.2147,-206.648 741.2766,-217.3697"/>
<polygon fill="#191970" stroke="#191970" points="674.5428,-173.6858 664.1571,-171.591 670.9696,-179.7052 674.5428,-173.6858"/>
</g>
<!-- Node46 -->
<g id="node8" class="node">
<title>Node46</title>
<g id="a_node8"><a xlink:href="game_8h.html#a03f40ddf75045683b3f488d4839937ab" target="_top" xlink:title="Multiplayer. ">
<polygon fill="#ffffff" stroke="#000000" points="728,-165.5 728,-184.5 787,-184.5 787,-165.5 728,-165.5"/>
<text text-anchor="middle" x="757.5" y="-172.5" font-family="Helvetica,sans-Serif" font-size="10.00" fill="#000000">game_mp</text>
</a>
</g>
</g>
<!-- Node41&#45;&gt;Node46 -->
<g id="edge7" class="edge">
<title>Node41&#45;&gt;Node46</title>
<path fill="none" stroke="#191970" d="M701.4068,-168.3405C710.4436,-169.4134 719.5292,-170.4921 727.6781,-171.4595"/>
<polygon fill="#191970" stroke="#191970" points="701.6202,-164.8414 691.2773,-167.1379 700.7949,-171.7926 701.6202,-164.8414"/>
</g>
<!-- Node43 -->
<g id="node5" class="node">
<title>Node43</title>
<g id="a_node5"><a xlink:href="menu_8h.html#a95c8dcba38d720d3e4bd6fcf9a8ee279" target="_top" xlink:title="selects a menu option ">
<polygon fill="#ffffff" stroke="#000000" points="823,-165.5 823,-184.5 914,-184.5 914,-165.5 823,-165.5"/>
<text text-anchor="middle" x="868.5" y="-172.5" font-family="Helvetica,sans-Serif" font-size="10.00" fill="#000000">select_menu_opt</text>
</a>
</g>
</g>
<!-- Node42&#45;&gt;Node43 -->
<g id="edge4" class="edge">
<title>Node42&#45;&gt;Node43</title>
<path fill="none" stroke="#191970" d="M787.0691,-213.1478C806.2636,-204.1558 830.7958,-192.6632 847.8941,-184.6532"/>
<polygon fill="#191970" stroke="#191970" points="785.4299,-210.0506 777.8591,-217.4624 788.3995,-216.3895 785.4299,-210.0506"/>
</g>
<!-- Node44 -->
<g id="node6" class="node">
<title>Node44</title>
<g id="a_node6"><a xlink:href="menu_8h.html#a6ed6ac9188a15c74b9d07d12b34397c0" target="_top" xlink:title="Subscribes interruptions of the necessary modules Calls main menu and game functions. ">
<polygon fill="#ffffff" stroke="#000000" points="950,-108.5 950,-127.5 1042,-127.5 1042,-108.5 950,-108.5"/>
<text text-anchor="middle" x="996" y="-115.5" font-family="Helvetica,sans-Serif" font-size="10.00" fill="#000000">game_main_cicle</text>
</a>
</g>
</g>
<!-- Node43&#45;&gt;Node44 -->
<g id="edge5" class="edge">
<title>Node43&#45;&gt;Node44</title>
<path fill="none" stroke="#191970" d="M899.2731,-161.2426C922.5688,-150.8281 953.9716,-136.7892 974.5897,-127.5716"/>
<polygon fill="#191970" stroke="#191970" points="897.5414,-158.1829 889.8406,-165.4595 900.3984,-164.5734 897.5414,-158.1829"/>
</g>
<!-- Node45 -->
<g id="node7" class="node">
<title>Node45</title>
<g id="a_node7"><a xlink:href="proj_8c.html#a2a16f651eccbd248e1ad3b3b924b143b" target="_top" xlink:title="proj_main_loop">
<polygon fill="#ffffff" stroke="#000000" points="1078,-108.5 1078,-127.5 1160,-127.5 1160,-108.5 1078,-108.5"/>
<text text-anchor="middle" x="1119" y="-115.5" font-family="Helvetica,sans-Serif" font-size="10.00" fill="#000000">proj_main_loop</text>
</a>
</g>
</g>
<!-- Node44&#45;&gt;Node45 -->
<g id="edge6" class="edge">
<title>Node44&#45;&gt;Node45</title>
<path fill="none" stroke="#191970" d="M1052.1908,-118C1060.8339,-118 1069.6179,-118 1077.8531,-118"/>
<polygon fill="#191970" stroke="#191970" points="1052.1506,-114.5001 1042.1506,-118 1052.1506,-121.5001 1052.1506,-114.5001"/>
</g>
<!-- Node46&#45;&gt;Node43 -->
<g id="edge8" class="edge">
<title>Node46&#45;&gt;Node43</title>
<path fill="none" stroke="#191970" d="M797.3594,-175C805.6038,-175 814.3495,-175 822.7839,-175"/>
<polygon fill="#191970" stroke="#191970" points="797.246,-171.5001 787.246,-175 797.2459,-178.5001 797.246,-171.5001"/>
</g>
<!-- Node47&#45;&gt;Node42 -->
<g id="edge10" class="edge">
<title>Node47&#45;&gt;Node42</title>
<path fill="none" stroke="#191970" d="M678.75,-262.2397C697.0623,-254.0452 719.8406,-243.8522 736.1813,-236.5399"/>
<polygon fill="#191970" stroke="#191970" points="677.0708,-259.1566 669.3726,-266.436 679.93,-265.5461 677.0708,-259.1566"/>
</g>
<!-- Node48&#45;&gt;Node47 -->
<g id="edge12" class="edge">
<title>Node48&#45;&gt;Node47</title>
<path fill="none" stroke="#191970" d="M427.5134,-351.7829C466.8787,-350.1741 522.3334,-344.7052 568,-328 595.069,-318.098 622.2991,-297.6338 636.9661,-285.5399"/>
<polygon fill="#191970" stroke="#191970" points="427.2397,-348.29 417.364,-352.127 427.4769,-355.286 427.2397,-348.29"/>
</g>
<!-- Node49&#45;&gt;Node41 -->
<g id="edge14" class="edge">
<title>Node49&#45;&gt;Node41</title>
<path fill="none" stroke="#191970" d="M418.0186,-5.4709C459.1793,-3.0166 522.7926,-5.1128 568,-34 613.2686,-62.9263 637.3368,-127.6054 645.1298,-152.2279"/>
<polygon fill="#191970" stroke="#191970" points="417.5321,-1.9967 407.807,-6.2006 418.0311,-8.9789 417.5321,-1.9967"/>
</g>
<!-- Node50&#45;&gt;Node41 -->
<g id="edge27" class="edge">
<title>Node50&#45;&gt;Node41</title>
<path fill="none" stroke="#191970" d="M420.4811,-177.9515C471.1062,-174.4021 554.216,-168.5753 604.7443,-165.0327"/>
<polygon fill="#191970" stroke="#191970" points="420.2324,-174.4603 410.5017,-178.6512 420.7221,-181.4431 420.2324,-174.4603"/>
</g>
<!-- Node51 -->
<g id="node13" class="node">
<title>Node51</title>
<g id="a_node13"><a xlink:href="board_8h.html#a381a21388b9cb70e9bfaf870ac1f7130" target="_top" xlink:title="Iterates over a boat array and shows the boats. ">
<polygon fill="#ffffff" stroke="#000000" points="477,-266.5 477,-285.5 544,-285.5 544,-266.5 477,-266.5"/>
<text text-anchor="middle" x="510.5" y="-273.5" font-family="Helvetica,sans-Serif" font-size="10.00" fill="#000000">draw_boats</text>
</a>
</g>
</g>
<!-- Node50&#45;&gt;Node51 -->
<g id="edge16" class="edge">
<title>Node50&#45;&gt;Node51</title>
<path fill="none" stroke="#191970" d="M392.1804,-198.349C406.5919,-213.9962 429.4913,-236.8185 453,-252 461.9054,-257.751 472.419,-262.6159 482.0044,-266.4305"/>
<polygon fill="#191970" stroke="#191970" points="394.7567,-195.9797 385.4596,-190.899 389.5592,-200.6685 394.7567,-195.9797"/>
</g>
<!-- Node52 -->
<g id="node14" class="node">
<title>Node52</title>
<g id="a_node14"><a xlink:href="game_8h.html#a382ed7c0cb3201c13d4396ad9afc5a3e" target="_top" xlink:title="Lets the player initialize the board unsign a graphical interface 10 boats must be positioned before ...">
<polygon fill="#ffffff" stroke="#000000" points="604,-224.5 604,-243.5 692,-243.5 692,-224.5 604,-224.5"/>
<text text-anchor="middle" x="648" y="-231.5" font-family="Helvetica,sans-Serif" font-size="10.00" fill="#000000">game_init_board</text>
</a>
</g>
</g>
<!-- Node50&#45;&gt;Node52 -->
<g id="edge26" class="edge">
<title>Node50&#45;&gt;Node52</title>
<path fill="none" stroke="#191970" d="M400.5341,-195.7519C415.0812,-204.0974 434.4574,-213.864 453,-219 503.3921,-232.9578 563.7223,-235.5508 603.7981,-235.4012"/>
<polygon fill="#191970" stroke="#191970" points="402.1169,-192.6215 391.7293,-190.5359 398.5491,-198.6441 402.1169,-192.6215"/>
</g>
<!-- Node53 -->
<g id="node15" class="node">
<title>Node53</title>
<g id="a_node15"><a xlink:href="board_8h.html#a63852514f51073a5cc620ff3985a6d77" target="_top" xlink:title="Iterates over the boats array and draws the ones wich have 0 hitpoints. ">
<polygon fill="#ffffff" stroke="#000000" points="453,-114.5 453,-133.5 568,-133.5 568,-114.5 453,-114.5"/>
<text text-anchor="middle" x="510.5" y="-121.5" font-family="Helvetica,sans-Serif" font-size="10.00" fill="#000000">draw_destroyed_boats</text>
</a>
</g>
</g>
<!-- Node50&#45;&gt;Node53 -->
<g id="edge21" class="edge">
<title>Node50&#45;&gt;Node53</title>
<path fill="none" stroke="#191970" d="M408.3694,-167.2598C422.0562,-161.2957 438.3031,-154.2576 453,-148 464.3461,-143.1691 476.9895,-137.8815 487.5249,-133.5018"/>
<polygon fill="#191970" stroke="#191970" points="406.6797,-164.1784 398.9145,-171.3863 409.4797,-170.594 406.6797,-164.1784"/>
</g>
<!-- Node54 -->
<g id="node16" class="node">
<title>Node54</title>
<g id="a_node16"><a xlink:href="board_8h.html#a97ebf6f6f65c53b49910187180bd5e67" target="_top" xlink:title="Converts the states of the matrix into objects and shows them. ">
<polygon fill="#ffffff" stroke="#000000" points="473.5,-190.5 473.5,-209.5 547.5,-209.5 547.5,-190.5 473.5,-190.5"/>
<text text-anchor="middle" x="510.5" y="-197.5" font-family="Helvetica,sans-Serif" font-size="10.00" fill="#000000">draw_objects</text>
</a>
</g>
</g>
<!-- Node50&#45;&gt;Node54 -->
<g id="edge23" class="edge">
<title>Node50&#45;&gt;Node54</title>
<path fill="none" stroke="#191970" d="M420.8637,-187.2428C437.7411,-189.6448 456.8394,-192.3629 473.0576,-194.6711"/>
<polygon fill="#191970" stroke="#191970" points="421.0811,-183.7385 410.6877,-185.7945 420.0947,-190.6687 421.0811,-183.7385"/>
</g>
<!-- Node55 -->
<g id="node17" class="node">
<title>Node55</title>
<g id="a_node17"><a xlink:href="menu_8h.html#a4cc4e9de5c448babdb711586dd12bec0" target="_top" xlink:title="graphical interface for the main menu ">
<polygon fill="#ffffff" stroke="#000000" points="848,-80.5 848,-99.5 889,-99.5 889,-80.5 848,-80.5"/>
<text text-anchor="middle" x="868.5" y="-87.5" font-family="Helvetica,sans-Serif" font-size="10.00" fill="#000000">menu</text>
</a>
</g>
</g>
<!-- Node50&#45;&gt;Node55 -->
<g id="edge28" class="edge">
<title>Node50&#45;&gt;Node55</title>
<path fill="none" stroke="#191970" d="M388.874,-162.8497C402.0593,-144.4796 425.1932,-117.1102 453,-105 592.9678,-44.0421 785.2643,-73.5692 847.8881,-85.6764"/>
<polygon fill="#191970" stroke="#191970" points="385.8616,-161.0529 383.0684,-171.2729 391.6252,-165.0254 385.8616,-161.0529"/>
</g>
<!-- Node51&#45;&gt;Node47 -->
<g id="edge20" class="edge">
<title>Node51&#45;&gt;Node47</title>
<path fill="none" stroke="#191970" d="M554.1912,-276C570.8823,-276 589.8563,-276 606.3519,-276"/>
<polygon fill="#191970" stroke="#191970" points="554.1363,-272.5001 544.1363,-276 554.1362,-279.5001 554.1363,-272.5001"/>
</g>
<!-- Node51&#45;&gt;Node52 -->
<g id="edge17" class="edge">
<title>Node51&#45;&gt;Node52</title>
<path fill="none" stroke="#191970" d="M551.538,-263.4648C572.3269,-257.1147 597.176,-249.5244 616.4466,-243.6381"/>
<polygon fill="#191970" stroke="#191970" points="550.2422,-260.2009 541.7009,-266.4695 552.2871,-266.8955 550.2422,-260.2009"/>
</g>
<!-- Node52&#45;&gt;Node42 -->
<g id="edge18" class="edge">
<title>Node52&#45;&gt;Node42</title>
<path fill="none" stroke="#191970" d="M702.3605,-230.5249C711.7574,-229.9242 721.1696,-229.3225 729.4898,-228.7906"/>
<polygon fill="#191970" stroke="#191970" points="701.9785,-227.0421 692.2222,-231.173 702.4252,-234.0278 701.9785,-227.0421"/>
</g>
<!-- Node52&#45;&gt;Node46 -->
<g id="edge19" class="edge">
<title>Node52&#45;&gt;Node46</title>
<path fill="none" stroke="#191970" d="M675.0939,-219.4014C695.2753,-208.5274 722.2556,-193.9901 739.7548,-184.5614"/>
<polygon fill="#191970" stroke="#191970" points="673.2249,-216.4327 666.0817,-224.2573 676.5453,-222.5951 673.2249,-216.4327"/>
</g>
<!-- Node53&#45;&gt;Node41 -->
<g id="edge22" class="edge">
<title>Node53&#45;&gt;Node41</title>
<path fill="none" stroke="#191970" d="M555.0729,-136.3183C573.9645,-141.5393 595.6472,-147.5316 613.314,-152.4141"/>
<polygon fill="#191970" stroke="#191970" points="555.7681,-132.8793 545.1971,-133.589 553.9034,-139.6264 555.7681,-132.8793"/>
</g>
<!-- Node54&#45;&gt;Node41 -->
<g id="edge24" class="edge">
<title>Node54&#45;&gt;Node41</title>
<path fill="none" stroke="#191970" d="M555.0729,-187.6817C573.9645,-182.4607 595.6472,-176.4684 613.314,-171.5859"/>
<polygon fill="#191970" stroke="#191970" points="553.9034,-184.3736 545.1971,-190.411 555.7681,-191.1207 553.9034,-184.3736"/>
</g>
<!-- Node54&#45;&gt;Node47 -->
<g id="edge25" class="edge">
<title>Node54&#45;&gt;Node47</title>
<path fill="none" stroke="#191970" d="M535.7645,-214.6292C554.505,-225.4054 580.7295,-240.3273 604,-253 612.1755,-257.4522 621.2839,-262.2414 629.0831,-266.2908"/>
<polygon fill="#191970" stroke="#191970" points="537.3688,-211.5142 526.957,-209.5531 533.8734,-217.579 537.3688,-211.5142"/>
</g>
<!-- Node55&#45;&gt;Node44 -->
<g id="edge30" class="edge">
<title>Node55&#45;&gt;Node44</title>
<path fill="none" stroke="#191970" d="M899.1557,-96.7322C915.1403,-100.2426 934.9658,-104.5964 952.5076,-108.4487"/>
<polygon fill="#191970" stroke="#191970" points="899.7869,-93.2875 889.2688,-94.561 898.2853,-100.1246 899.7869,-93.2875"/>
</g>
<!-- Node55&#45;&gt;Node55 -->
<g id="edge29" class="edge">
<title>Node55&#45;&gt;Node55</title>
<path fill="none" stroke="#191970" d="M848.1306,-109.4C849.491,-114.3146 856.2808,-118 868.5,-118 888.0508,-118 893.7022,-108.5653 885.4542,-99.7571"/>
<polygon fill="#191970" stroke="#191970" points="851.5065,-110.3518 851.5458,-99.7571 844.9081,-108.0149 851.5065,-110.3518"/>
</g>
<!-- Node56&#45;&gt;Node40 -->
<g id="edge32" class="edge">
<title>Node56&#45;&gt;Node40</title>
<path fill="none" stroke="#191970" d="M213.069,-170.0184C221.6486,-171.6733 230.547,-173.3898 238.6881,-174.9601"/>
<polygon fill="#191970" stroke="#191970" points="213.6901,-166.5738 203.2082,-168.1163 212.3643,-173.4471 213.6901,-166.5738"/>
</g>
</g>
</svg>
        <g id="navigator" transform="translate(0 0)" fill="#404254">
                <rect fill="#f2f5e9" fill-opacity="0.5" stroke="#606060" stroke-width=".5" x="0" y="0" width="60" height="60"/>
                <use id="zoomplus" xlink:href="#zoomPlus" x="17" y="9" onmousedown="handleZoom(evt,'in')"/>
                <use id="zoomminus" xlink:href="#zoomMin" x="42" y="9" onmousedown="handleZoom(evt,'out')"/>
                <use id="reset" xlink:href="#resetDef" x="30" y="36" onmousedown="handleReset()"/>
                <g id="arrowUp" xlink:href="#dirArrow" transform="translate(30 24)" onmousedown="handlePan(0,-1)">
                  <use xlink:href="#rim" fill="#404040">
                        <set attributeName="fill" to="#808080" begin="arrowUp.mouseover" end="arrowUp.mouseout"/>
                  </use>
                  <path fill="none" stroke="white" stroke-width="1.5" d="M0,-3.0v7 M-2.5,-0.5L0,-3.0L2.5,-0.5"/>
                </g>
                <g id="arrowRight" xlink:href="#dirArrow" transform="rotate(90) translate(36 -43)" onmousedown="handlePan(1,0)">
                  <use xlink:href="#rim" fill="#404040">
                        <set attributeName="fill" to="#808080" begin="arrowRight.mouseover" end="arrowRight.mouseout"/>
                  </use>
                  <path fill="none" stroke="white" stroke-width="1.5" d="M0,-3.0v7 M-2.5,-0.5L0,-3.0L2.5,-0.5"/>
                </g>
                <g id="arrowDown" xlink:href="#dirArrow" transform="rotate(180) translate(-30 -48)" onmousedown="handlePan(0,1)">
                  <use xlink:href="#rim" fill="#404040">
                        <set attributeName="fill" to="#808080" begin="arrowDown.mouseover" end="arrowDown.mouseout"/>
                  </use>
                  <path fill="none" stroke="white" stroke-width="1.5" d="M0,-3.0v7 M-2.5,-0.5L0,-3.0L2.5,-0.5"/>
                </g>
                <g id="arrowLeft" xlink:href="#dirArrow" transform="rotate(270) translate(-36 17)" onmousedown="handlePan(-1,0)">
                  <use xlink:href="#rim" fill="#404040">
                        <set attributeName="fill" to="#808080" begin="arrowLeft.mouseover" end="arrowLeft.mouseout"/>
                  </use>
                  <path fill="none" stroke="white" stroke-width="1.5" d="M0,-3.0v7 M-2.5,-0.5L0,-3.0L2.5,-0.5"/>
                </g>
        </g>
        <svg viewBox="0 0 15 15" width="100%" height="30px" preserveAspectRatio="xMaxYMin meet">
         <g id="arrow_out" transform="scale(0.3 0.3)">
          <a xlink:href="graphic_8h_a89e5e15fb2c065221f58c6d883da6049_icgraph_org.svg" target="_base">
           <rect id="button" ry="5" rx="5" y="6" x="6" height="38" width="38"
                fill="#f2f5e9" fill-opacity="0.5" stroke="#606060" stroke-width="1.0"/>
           <path id="arrow"
             d="M 11.500037,31.436501 C 11.940474,20.09759 22.043105,11.32322 32.158766,21.979434 L 37.068811,17.246167 C 37.068811,17.246167 37.088388,32 37.088388,32 L 22.160133,31.978069 C 22.160133,31.978069 26.997745,27.140456 26.997745,27.140456 C 18.528582,18.264221 13.291696,25.230495 11.500037,31.436501 z"
             style="fill:#404040;"/>
          </a>
         </g>
        </svg>
</svg>
