<?xml version="1.0" encoding="UTF-8" standalone="no"?>
<!DOCTYPE svg PUBLIC "-//W3C//DTD SVG 1.1//EN"
 "http://www.w3.org/Graphics/SVG/1.1/DTD/svg11.dtd">
<!-- Generated by graphviz version 2.40.1 (20161225.0304)
 -->
<!-- Title: draw_xpm Pages: 1 -->
<svg width="309pt" height="47pt"
 viewBox="0.00 0.00 309.00 47.00" xmlns="http://www.w3.org/2000/svg" xmlns:xlink="http://www.w3.org/1999/xlink">
<g id="graph0" class="graph" transform="scale(1 1) rotate(0) translate(4 43)">
<title>draw_xpm</title>
<polygon fill="#ffffff" stroke="transparent" points="-4,4 -4,-43 305,-43 305,4 -4,4"/>
<!-- Node19 -->
<g id="node1" class="node">
<title>Node19</title>
<polygon fill="#bfbfbf" stroke="#000000" points="0,-19.5 0,-38.5 62,-38.5 62,-19.5 0,-19.5"/>
<text text-anchor="middle" x="31" y="-26.5" font-family="Helvetica,sans-Serif" font-size="10.00" fill="#000000">draw_xpm</text>
</g>
<!-- Node20 -->
<g id="node2" class="node">
<title>Node20</title>
<g id="a_node2"><a xlink:href="graphic_8c.html#a89e5e15fb2c065221f58c6d883da6049" target="_top" xlink:title="get_bytes_per_pixel">
<polygon fill="#ffffff" stroke="#000000" points="197,-19.5 197,-38.5 301,-38.5 301,-19.5 197,-19.5"/>
<text text-anchor="middle" x="249" y="-26.5" font-family="Helvetica,sans-Serif" font-size="10.00" fill="#000000">get_bytes_per_pixel</text>
</a>
</g>
</g>
<!-- Node19&#45;&gt;Node20 -->
<g id="edge1" class="edge">
<title>Node19&#45;&gt;Node20</title>
<path fill="none" stroke="#191970" d="M62.2341,-29C94.5774,-29 145.9817,-29 186.6808,-29"/>
<polygon fill="#191970" stroke="#191970" points="186.7793,-32.5001 196.7792,-29 186.7792,-25.5001 186.7793,-32.5001"/>
</g>
<!-- Node21 -->
<g id="node3" class="node">
<title>Node21</title>
<g id="a_node3"><a xlink:href="graphic_8c.html#a90228825151958bdc7dfaffdbbd88494" target="_top" xlink:title="Calculates the color and sets the pixel in the video mem. ">
<polygon fill="#ffffff" stroke="#000000" points="98,-.5 98,-19.5 161,-19.5 161,-.5 98,-.5"/>
<text text-anchor="middle" x="129.5" y="-7.5" font-family="Helvetica,sans-Serif" font-size="10.00" fill="#000000">draw_pixel</text>
</a>
</g>
</g>
<!-- Node19&#45;&gt;Node21 -->
<g id="edge2" class="edge">
<title>Node19&#45;&gt;Node21</title>
<path fill="none" stroke="#191970" d="M62.166,-22.9883C70.3491,-21.4098 79.3057,-19.6822 87.939,-18.0168"/>
<polygon fill="#191970" stroke="#191970" points="88.7036,-21.434 97.8597,-16.1032 87.3778,-14.5607 88.7036,-21.434"/>
</g>
<!-- Node21&#45;&gt;Node20 -->
<g id="edge3" class="edge">
<title>Node21&#45;&gt;Node20</title>
<path fill="none" stroke="#191970" d="M161.2101,-15.0418C169.1477,-16.3038 177.9393,-17.7016 186.8028,-19.1109"/>
<polygon fill="#191970" stroke="#191970" points="186.3732,-22.5865 196.7988,-20.7002 187.4724,-15.6733 186.3732,-22.5865"/>
</g>
</g>
</svg>
