<?xml version="1.0" encoding="UTF-8" standalone="no"?>
<!DOCTYPE svg PUBLIC "-//W3C//DTD SVG 1.1//EN"
 "http://www.w3.org/Graphics/SVG/1.1/DTD/svg11.dtd">
<!-- Generated by graphviz version 2.40.1 (20161225.0304)
 -->
<!-- Title: draw_pixel Pages: 1 -->
<!--zoomable 370 -->
<svg id="main" version="1.1" xmlns="http://www.w3.org/2000/svg" xmlns:xlink="http://www.w3.org/1999/xlink" xml:space="preserve" onload="init(evt)">
<style type="text/css"><![CDATA[
.edge:hover path { stroke: red; }
.edge:hover polygon { stroke: red; fill: red; }
]]></style>
<script type="text/javascript"><![CDATA[
var edges = document.getElementsByTagName('g');
if (edges && edges.length) {
  for (var i=0;i<edges.length;i++) {
    if (edges[i].id.substr(0,4)=='edge') {
      edges[i].setAttribute('class','edge');
    }
  }
}
]]></script>
        <defs>
                <circle id="rim" cx="0" cy="0" r="7"/>
                <circle id="rim2" cx="0" cy="0" r="3.5"/>
                <g id="zoomPlus">
                        <use xlink:href="#rim" fill="#404040">
                                <set attributeName="fill" to="#808080" begin="zoomplus.mouseover" end="zoomplus.mouseout"/>
                        </use>
                        <path d="M-4,0h8M0,-4v8" fill="none" stroke="white" stroke-width="1.5" pointer-events="none"/>
                </g>
                <g id="zoomMin">
                        <use xlink:href="#rim" fill="#404040">
                                <set attributeName="fill" to="#808080" begin="zoomminus.mouseover" end="zoomminus.mouseout"/>
                        </use>
                        <path d="M-4,0h8" fill="none" stroke="white" stroke-width="1.5" pointer-events="none"/>
                </g>
                <g id="dirArrow">
                        <path fill="none" stroke="white" stroke-width="1.5" d="M0,-3.0v7 M-2.5,-0.5L0,-3.0L2.5,-0.5"/>
                </g>
               <g id="resetDef">
                       <use xlink:href="#rim2" fill="#404040">
                               <set attributeName="fill" to="#808080" begin="reset.mouseover" end="reset.mouseout"/>
                       </use>
               </g>
        </defs>

<script type="text/javascript">
var viewWidth = 1028;
var viewHeight = 370;
var sectionId = 'dynsection-1';
</script>
<script xlink:href="svgpan.js"/>
<svg id="graph" class="graph">
<g id="viewport">
<title>draw_pixel</title>
<polygon fill="#ffffff" stroke="transparent" points="-4,4 -4,-366 1024,-366 1024,4 -4,4"/>
<!-- Node2 -->
<g id="node1" class="node">
<title>Node2</title>
<polygon fill="#bfbfbf" stroke="#000000" points="0,-171.5 0,-190.5 63,-190.5 63,-171.5 0,-171.5"/>
<text text-anchor="middle" x="31.5" y="-178.5" font-family="Helvetica,sans-Serif" font-size="10.00" fill="#000000">draw_pixel</text>
</g>
<!-- Node3 -->
<g id="node2" class="node">
<title>Node3</title>
<g id="a_node2"><a xlink:href="graphic_8h.html#a461a83bf6ebfd3b6dc95ca3962858d3d" target="_top" xlink:title="Copies the xmp into the video mem. ">
<polygon fill="#ffffff" stroke="#000000" points="99,-171.5 99,-190.5 161,-190.5 161,-171.5 99,-171.5"/>
<text text-anchor="middle" x="130" y="-178.5" font-family="Helvetica,sans-Serif" font-size="10.00" fill="#000000">draw_xpm</text>
</a>
</g>
</g>
<!-- Node2&#45;&gt;Node3 -->
<g id="edge1" class="edge">
<title>Node2&#45;&gt;Node3</title>
<path fill="none" stroke="#191970" d="M73.3489,-181C81.8419,-181 90.6355,-181 98.6881,-181"/>
<polygon fill="#191970" stroke="#191970" points="73.2082,-177.5001 63.2082,-181 73.2082,-184.5001 73.2082,-177.5001"/>
</g>
<!-- Node4 -->
<g id="node3" class="node">
<title>Node4</title>
<g id="a_node3"><a xlink:href="game_8h.html#aaeeee1282b90aa12468a1862c7871ee4" target="_top" xlink:title="Lets the player fire against the enemy&#39;s boats using a graphical interface Shows previously hit cells...">
<polygon fill="#ffffff" stroke="#000000" points="465,-152.5 465,-171.5 551,-171.5 551,-152.5 465,-152.5"/>
<text text-anchor="middle" x="508" y="-159.5" font-family="Helvetica,sans-Serif" font-size="10.00" fill="#000000">game_round_sp</text>
</a>
</g>
</g>
<!-- Node3&#45;&gt;Node4 -->
<g id="edge2" class="edge">
<title>Node3&#45;&gt;Node4</title>
<path fill="none" stroke="#191970" d="M155.8815,-166.3928C190.4243,-147.8171 254.0989,-116.7446 313,-105 363.1244,-95.0055 379.3179,-89.4308 428,-105 457.2378,-114.3506 484.9107,-138.7319 498.7647,-152.3841"/>
<polygon fill="#191970" stroke="#191970" points="154.0396,-163.4107 146.9393,-171.2743 157.3937,-169.5548 154.0396,-163.4107"/>
</g>
<!-- Node10 -->
<g id="node9" class="node">
<title>Node10</title>
<g id="a_node9"><a xlink:href="game_8h.html#afb1a61b5802eed643536ce45225d2000" target="_top" xlink:title="Randomly fires upon player&#39;s boats using a state machine to simulate a strategy In case of a hit the ...">
<polygon fill="#ffffff" stroke="#000000" points="466.5,-266.5 466.5,-285.5 549.5,-285.5 549.5,-266.5 466.5,-266.5"/>
<text text-anchor="middle" x="508" y="-273.5" font-family="Helvetica,sans-Serif" font-size="10.00" fill="#000000">game_round_ai</text>
</a>
</g>
</g>
<!-- Node3&#45;&gt;Node10 -->
<g id="edge9" class="edge">
<title>Node3&#45;&gt;Node10</title>
<path fill="none" stroke="#191970" d="M148.315,-197.4136C179.4547,-224.0909 245.893,-275.8075 313,-295 370.0672,-311.3211 439.9394,-296.5639 478.6444,-285.5135"/>
<polygon fill="#191970" stroke="#191970" points="150.3355,-194.5318 140.4968,-190.601 145.7368,-199.8094 150.3355,-194.5318"/>
</g>
<!-- Node11 -->
<g id="node10" class="node">
<title>Node11</title>
<g id="a_node10"><a xlink:href="game_8h.html#a428e51196f5847d0e5e50822aa1c9716" target="_top" xlink:title="displays the end game screen (lost) ">
<polygon fill="#ffffff" stroke="#000000" points="197,-342.5 197,-361.5 277,-361.5 277,-342.5 197,-342.5"/>
<text text-anchor="middle" x="237" y="-349.5" font-family="Helvetica,sans-Serif" font-size="10.00" fill="#000000">game_over_sp</text>
</a>
</g>
</g>
<!-- Node3&#45;&gt;Node11 -->
<g id="edge11" class="edge">
<title>Node3&#45;&gt;Node11</title>
<path fill="none" stroke="#191970" d="M134.8327,-200.4717C143.1641,-230.7505 162.7228,-289.6219 197,-328 202.1789,-333.7985 209.0987,-338.6232 215.7253,-342.3889"/>
<polygon fill="#191970" stroke="#191970" points="138.1917,-199.4828 132.2647,-190.7009 131.4216,-201.2622 138.1917,-199.4828"/>
</g>
<!-- Node12 -->
<g id="node11" class="node">
<title>Node12</title>
<g id="a_node11"><a xlink:href="game_8h.html#a0ecf3df63f0053cd3177ad9dd3716b54" target="_top" xlink:title="displays the end game screen (won) ">
<polygon fill="#ffffff" stroke="#000000" points="206.5,-.5 206.5,-19.5 267.5,-19.5 267.5,-.5 206.5,-.5"/>
<text text-anchor="middle" x="237" y="-7.5" font-family="Helvetica,sans-Serif" font-size="10.00" fill="#000000">winner_sp</text>
</a>
</g>
</g>
<!-- Node3&#45;&gt;Node12 -->
<g id="edge13" class="edge">
<title>Node3&#45;&gt;Node12</title>
<path fill="none" stroke="#191970" d="M134.8327,-161.5283C143.1641,-131.2495 162.7228,-72.3781 197,-34 202.1789,-28.2015 209.0987,-23.3768 215.7253,-19.6111"/>
<polygon fill="#191970" stroke="#191970" points="131.4216,-160.7378 132.2647,-171.2991 138.1917,-162.5172 131.4216,-160.7378"/>
</g>
<!-- Node13 -->
<g id="node12" class="node">
<title>Node13</title>
<g id="a_node12"><a xlink:href="sprite_8h.html#ab0c8b8caefb74f2cf7c79ffb254c4ac4" target="_top" xlink:title="Shows the sprite. ">
<polygon fill="#ffffff" stroke="#000000" points="203.5,-171.5 203.5,-190.5 270.5,-190.5 270.5,-171.5 203.5,-171.5"/>
<text text-anchor="middle" x="237" y="-178.5" font-family="Helvetica,sans-Serif" font-size="10.00" fill="#000000">draw_sprite</text>
</a>
</g>
</g>
<!-- Node3&#45;&gt;Node13 -->
<g id="edge15" class="edge">
<title>Node3&#45;&gt;Node13</title>
<path fill="none" stroke="#191970" d="M171.4847,-181C182.0161,-181 193.2025,-181 203.2948,-181"/>
<polygon fill="#191970" stroke="#191970" points="171.2365,-177.5001 161.2365,-181 171.2364,-184.5001 171.2365,-177.5001"/>
</g>
<!-- Node5 -->
<g id="node4" class="node">
<title>Node5</title>
<g id="a_node4"><a xlink:href="game_8h.html#aff1f849979a9ca10d6ff2bce0dfb7fd5" target="_top" xlink:title="Single Player Iniciates the boards from the respective players Starts the game loop (1 turn per playe...">
<polygon fill="#ffffff" stroke="#000000" points="589.5,-217.5 589.5,-236.5 645.5,-236.5 645.5,-217.5 589.5,-217.5"/>
<text text-anchor="middle" x="617.5" y="-224.5" font-family="Helvetica,sans-Serif" font-size="10.00" fill="#000000">game_sp</text>
</a>
</g>
</g>
<!-- Node4&#45;&gt;Node5 -->
<g id="edge3" class="edge">
<title>Node4&#45;&gt;Node5</title>
<path fill="none" stroke="#191970" d="M532.8459,-176.7487C553.8108,-189.1936 583.2147,-206.648 601.2766,-217.3697"/>
<polygon fill="#191970" stroke="#191970" points="534.5428,-173.6858 524.1571,-171.591 530.9696,-179.7052 534.5428,-173.6858"/>
</g>
<!-- Node9 -->
<g id="node8" class="node">
<title>Node9</title>
<g id="a_node8"><a xlink:href="game_8h.html#a03f40ddf75045683b3f488d4839937ab" target="_top" xlink:title="Multiplayer. ">
<polygon fill="#ffffff" stroke="#000000" points="588,-165.5 588,-184.5 647,-184.5 647,-165.5 588,-165.5"/>
<text text-anchor="middle" x="617.5" y="-172.5" font-family="Helvetica,sans-Serif" font-size="10.00" fill="#000000">game_mp</text>
</a>
</g>
</g>
<!-- Node4&#45;&gt;Node9 -->
<g id="edge7" class="edge">
<title>Node4&#45;&gt;Node9</title>
<path fill="none" stroke="#191970" d="M561.4068,-168.3405C570.4436,-169.4134 579.5292,-170.4921 587.6781,-171.4595"/>
<polygon fill="#191970" stroke="#191970" points="561.6202,-164.8414 551.2773,-167.1379 560.7949,-171.7926 561.6202,-164.8414"/>
</g>
<!-- Node6 -->
<g id="node5" class="node">
<title>Node6</title>
<g id="a_node5"><a xlink:href="menu_8h.html#a95c8dcba38d720d3e4bd6fcf9a8ee279" target="_top" xlink:title="selects a menu option ">
<polygon fill="#ffffff" stroke="#000000" points="683,-165.5 683,-184.5 774,-184.5 774,-165.5 683,-165.5"/>
<text text-anchor="middle" x="728.5" y="-172.5" font-family="Helvetica,sans-Serif" font-size="10.00" fill="#000000">select_menu_opt</text>
</a>
</g>
</g>
<!-- Node5&#45;&gt;Node6 -->
<g id="edge4" class="edge">
<title>Node5&#45;&gt;Node6</title>
<path fill="none" stroke="#191970" d="M647.0691,-213.1478C666.2636,-204.1558 690.7958,-192.6632 707.8941,-184.6532"/>
<polygon fill="#191970" stroke="#191970" points="645.4299,-210.0506 637.8591,-217.4624 648.3995,-216.3895 645.4299,-210.0506"/>
</g>
<!-- Node7 -->
<g id="node6" class="node">
<title>Node7</title>
<g id="a_node6"><a xlink:href="menu_8h.html#a6ed6ac9188a15c74b9d07d12b34397c0" target="_top" xlink:title="Subscribes interruptions of the necessary modules Calls main menu and game functions. ">
<polygon fill="#ffffff" stroke="#000000" points="810,-108.5 810,-127.5 902,-127.5 902,-108.5 810,-108.5"/>
<text text-anchor="middle" x="856" y="-115.5" font-family="Helvetica,sans-Serif" font-size="10.00" fill="#000000">game_main_cicle</text>
</a>
</g>
</g>
<!-- Node6&#45;&gt;Node7 -->
<g id="edge5" class="edge">
<title>Node6&#45;&gt;Node7</title>
<path fill="none" stroke="#191970" d="M759.2731,-161.2426C782.5688,-150.8281 813.9716,-136.7892 834.5897,-127.5716"/>
<polygon fill="#191970" stroke="#191970" points="757.5414,-158.1829 749.8406,-165.4595 760.3984,-164.5734 757.5414,-158.1829"/>
</g>
<!-- Node8 -->
<g id="node7" class="node">
<title>Node8</title>
<g id="a_node7"><a xlink:href="proj_8c.html#a2a16f651eccbd248e1ad3b3b924b143b" target="_top" xlink:title="proj_main_loop">
<polygon fill="#ffffff" stroke="#000000" points="938,-108.5 938,-127.5 1020,-127.5 1020,-108.5 938,-108.5"/>
<text text-anchor="middle" x="979" y="-115.5" font-family="Helvetica,sans-Serif" font-size="10.00" fill="#000000">proj_main_loop</text>
</a>
</g>
</g>
<!-- Node7&#45;&gt;Node8 -->
<g id="edge6" class="edge">
<title>Node7&#45;&gt;Node8</title>
<path fill="none" stroke="#191970" d="M912.1908,-118C920.8339,-118 929.6179,-118 937.8531,-118"/>
<polygon fill="#191970" stroke="#191970" points="912.1506,-114.5001 902.1506,-118 912.1506,-121.5001 912.1506,-114.5001"/>
</g>
<!-- Node9&#45;&gt;Node6 -->
<g id="edge8" class="edge">
<title>Node9&#45;&gt;Node6</title>
<path fill="none" stroke="#191970" d="M657.3594,-175C665.6038,-175 674.3495,-175 682.7839,-175"/>
<polygon fill="#191970" stroke="#191970" points="657.246,-171.5001 647.246,-175 657.2459,-178.5001 657.246,-171.5001"/>
</g>
<!-- Node10&#45;&gt;Node5 -->
<g id="edge10" class="edge">
<title>Node10&#45;&gt;Node5</title>
<path fill="none" stroke="#191970" d="M538.75,-262.2397C557.0623,-254.0452 579.8406,-243.8522 596.1813,-236.5399"/>
<polygon fill="#191970" stroke="#191970" points="537.0708,-259.1566 529.3726,-266.436 539.93,-265.5461 537.0708,-259.1566"/>
</g>
<!-- Node11&#45;&gt;Node10 -->
<g id="edge12" class="edge">
<title>Node11&#45;&gt;Node10</title>
<path fill="none" stroke="#191970" d="M287.5134,-351.7829C326.8787,-350.1741 382.3334,-344.7052 428,-328 455.069,-318.098 482.2991,-297.6338 496.9661,-285.5399"/>
<polygon fill="#191970" stroke="#191970" points="287.2397,-348.29 277.364,-352.127 287.4769,-355.286 287.2397,-348.29"/>
</g>
<!-- Node12&#45;&gt;Node4 -->
<g id="edge14" class="edge">
<title>Node12&#45;&gt;Node4</title>
<path fill="none" stroke="#191970" d="M278.0186,-5.4709C319.1793,-3.0166 382.7926,-5.1128 428,-34 473.2686,-62.9263 497.3368,-127.6054 505.1298,-152.2279"/>
<polygon fill="#191970" stroke="#191970" points="277.5321,-1.9967 267.807,-6.2006 278.0311,-8.9789 277.5321,-1.9967"/>
</g>
<!-- Node13&#45;&gt;Node4 -->
<g id="edge27" class="edge">
<title>Node13&#45;&gt;Node4</title>
<path fill="none" stroke="#191970" d="M280.4811,-177.9515C331.1062,-174.4021 414.216,-168.5753 464.7443,-165.0327"/>
<polygon fill="#191970" stroke="#191970" points="280.2324,-174.4603 270.5017,-178.6512 280.7221,-181.4431 280.2324,-174.4603"/>
</g>
<!-- Node14 -->
<g id="node13" class="node">
<title>Node14</title>
<g id="a_node13"><a xlink:href="board_8h.html#a381a21388b9cb70e9bfaf870ac1f7130" target="_top" xlink:title="Iterates over a boat array and shows the boats. ">
<polygon fill="#ffffff" stroke="#000000" points="337,-266.5 337,-285.5 404,-285.5 404,-266.5 337,-266.5"/>
<text text-anchor="middle" x="370.5" y="-273.5" font-family="Helvetica,sans-Serif" font-size="10.00" fill="#000000">draw_boats</text>
</a>
</g>
</g>
<!-- Node13&#45;&gt;Node14 -->
<g id="edge16" class="edge">
<title>Node13&#45;&gt;Node14</title>
<path fill="none" stroke="#191970" d="M252.1804,-198.349C266.5919,-213.9962 289.4913,-236.8185 313,-252 321.9054,-257.751 332.419,-262.6159 342.0044,-266.4305"/>
<polygon fill="#191970" stroke="#191970" points="254.7567,-195.9797 245.4596,-190.899 249.5592,-200.6685 254.7567,-195.9797"/>
</g>
<!-- Node15 -->
<g id="node14" class="node">
<title>Node15</title>
<g id="a_node14"><a xlink:href="game_8h.html#a382ed7c0cb3201c13d4396ad9afc5a3e" target="_top" xlink:title="Lets the player initialize the board unsign a graphical interface 10 boats must be positioned before ...">
<polygon fill="#ffffff" stroke="#000000" points="464,-224.5 464,-243.5 552,-243.5 552,-224.5 464,-224.5"/>
<text text-anchor="middle" x="508" y="-231.5" font-family="Helvetica,sans-Serif" font-size="10.00" fill="#000000">game_init_board</text>
</a>
</g>
</g>
<!-- Node13&#45;&gt;Node15 -->
<g id="edge26" class="edge">
<title>Node13&#45;&gt;Node15</title>
<path fill="none" stroke="#191970" d="M260.5341,-195.7519C275.0812,-204.0974 294.4574,-213.864 313,-219 363.3921,-232.9578 423.7223,-235.5508 463.7981,-235.4012"/>
<polygon fill="#191970" stroke="#191970" points="262.1169,-192.6215 251.7293,-190.5359 258.5491,-198.6441 262.1169,-192.6215"/>
</g>
<!-- Node16 -->
<g id="node15" class="node">
<title>Node16</title>
<g id="a_node15"><a xlink:href="board_8h.html#a63852514f51073a5cc620ff3985a6d77" target="_top" xlink:title="Iterates over the boats array and draws the ones wich have 0 hitpoints. ">
<polygon fill="#ffffff" stroke="#000000" points="313,-114.5 313,-133.5 428,-133.5 428,-114.5 313,-114.5"/>
<text text-anchor="middle" x="370.5" y="-121.5" font-family="Helvetica,sans-Serif" font-size="10.00" fill="#000000">draw_destroyed_boats</text>
</a>
</g>
</g>
<!-- Node13&#45;&gt;Node16 -->
<g id="edge21" class="edge">
<title>Node13&#45;&gt;Node16</title>
<path fill="none" stroke="#191970" d="M268.3694,-167.2598C282.0562,-161.2957 298.3031,-154.2576 313,-148 324.3461,-143.1691 336.9895,-137.8815 347.5249,-133.5018"/>
<polygon fill="#191970" stroke="#191970" points="266.6797,-164.1784 258.9145,-171.3863 269.4797,-170.594 266.6797,-164.1784"/>
</g>
<!-- Node17 -->
<g id="node16" class="node">
<title>Node17</title>
<g id="a_node16"><a xlink:href="board_8h.html#a97ebf6f6f65c53b49910187180bd5e67" target="_top" xlink:title="Converts the states of the matrix into objects and shows them. ">
<polygon fill="#ffffff" stroke="#000000" points="333.5,-190.5 333.5,-209.5 407.5,-209.5 407.5,-190.5 333.5,-190.5"/>
<text text-anchor="middle" x="370.5" y="-197.5" font-family="Helvetica,sans-Serif" font-size="10.00" fill="#000000">draw_objects</text>
</a>
</g>
</g>
<!-- Node13&#45;&gt;Node17 -->
<g id="edge23" class="edge">
<title>Node13&#45;&gt;Node17</title>
<path fill="none" stroke="#191970" d="M280.8637,-187.2428C297.7411,-189.6448 316.8394,-192.3629 333.0576,-194.6711"/>
<polygon fill="#191970" stroke="#191970" points="281.0811,-183.7385 270.6877,-185.7945 280.0947,-190.6687 281.0811,-183.7385"/>
</g>
<!-- Node18 -->
<g id="node17" class="node">
<title>Node18</title>
<g id="a_node17"><a xlink:href="menu_8h.html#a4cc4e9de5c448babdb711586dd12bec0" target="_top" xlink:title="graphical interface for the main menu ">
<polygon fill="#ffffff" stroke="#000000" points="708,-80.5 708,-99.5 749,-99.5 749,-80.5 708,-80.5"/>
<text text-anchor="middle" x="728.5" y="-87.5" font-family="Helvetica,sans-Serif" font-size="10.00" fill="#000000">menu</text>
</a>
</g>
</g>
<!-- Node13&#45;&gt;Node18 -->
<g id="edge28" class="edge">
<title>Node13&#45;&gt;Node18</title>
<path fill="none" stroke="#191970" d="M248.874,-162.8497C262.0593,-144.4796 285.1932,-117.1102 313,-105 452.9678,-44.0421 645.2643,-73.5692 707.8881,-85.6764"/>
<polygon fill="#191970" stroke="#191970" points="245.8616,-161.0529 243.0684,-171.2729 251.6252,-165.0254 245.8616,-161.0529"/>
</g>
<!-- Node14&#45;&gt;Node10 -->
<g id="edge20" class="edge">
<title>Node14&#45;&gt;Node10</title>
<path fill="none" stroke="#191970" d="M414.1912,-276C430.8823,-276 449.8563,-276 466.3519,-276"/>
<polygon fill="#191970" stroke="#191970" points="414.1363,-272.5001 404.1363,-276 414.1362,-279.5001 414.1363,-272.5001"/>
</g>
<!-- Node14&#45;&gt;Node15 -->
<g id="edge17" class="edge">
<title>Node14&#45;&gt;Node15</title>
<path fill="none" stroke="#191970" d="M411.538,-263.4648C432.3269,-257.1147 457.176,-249.5244 476.4466,-243.6381"/>
<polygon fill="#191970" stroke="#191970" points="410.2422,-260.2009 401.7009,-266.4695 412.2871,-266.8955 410.2422,-260.2009"/>
</g>
<!-- Node15&#45;&gt;Node5 -->
<g id="edge18" class="edge">
<title>Node15&#45;&gt;Node5</title>
<path fill="none" stroke="#191970" d="M562.3605,-230.5249C571.7574,-229.9242 581.1696,-229.3225 589.4898,-228.7906"/>
<polygon fill="#191970" stroke="#191970" points="561.9785,-227.0421 552.2222,-231.173 562.4252,-234.0278 561.9785,-227.0421"/>
</g>
<!-- Node15&#45;&gt;Node9 -->
<g id="edge19" class="edge">
<title>Node15&#45;&gt;Node9</title>
<path fill="none" stroke="#191970" d="M535.0939,-219.4014C555.2753,-208.5274 582.2556,-193.9901 599.7548,-184.5614"/>
<polygon fill="#191970" stroke="#191970" points="533.2249,-216.4327 526.0817,-224.2573 536.5453,-222.5951 533.2249,-216.4327"/>
</g>
<!-- Node16&#45;&gt;Node4 -->
<g id="edge22" class="edge">
<title>Node16&#45;&gt;Node4</title>
<path fill="none" stroke="#191970" d="M415.0729,-136.3183C433.9645,-141.5393 455.6472,-147.5316 473.314,-152.4141"/>
<polygon fill="#191970" stroke="#191970" points="415.7681,-132.8793 405.1971,-133.589 413.9034,-139.6264 415.7681,-132.8793"/>
</g>
<!-- Node17&#45;&gt;Node4 -->
<g id="edge24" class="edge">
<title>Node17&#45;&gt;Node4</title>
<path fill="none" stroke="#191970" d="M415.0729,-187.6817C433.9645,-182.4607 455.6472,-176.4684 473.314,-171.5859"/>
<polygon fill="#191970" stroke="#191970" points="413.9034,-184.3736 405.1971,-190.411 415.7681,-191.1207 413.9034,-184.3736"/>
</g>
<!-- Node17&#45;&gt;Node10 -->
<g id="edge25" class="edge">
<title>Node17&#45;&gt;Node10</title>
<path fill="none" stroke="#191970" d="M395.7645,-214.6292C414.505,-225.4054 440.7295,-240.3273 464,-253 472.1755,-257.4522 481.2839,-262.2414 489.0831,-266.2908"/>
<polygon fill="#191970" stroke="#191970" points="397.3688,-211.5142 386.957,-209.5531 393.8734,-217.579 397.3688,-211.5142"/>
</g>
<!-- Node18&#45;&gt;Node7 -->
<g id="edge30" class="edge">
<title>Node18&#45;&gt;Node7</title>
<path fill="none" stroke="#191970" d="M759.1557,-96.7322C775.1403,-100.2426 794.9658,-104.5964 812.5076,-108.4487"/>
<polygon fill="#191970" stroke="#191970" points="759.7869,-93.2875 749.2688,-94.561 758.2853,-100.1246 759.7869,-93.2875"/>
</g>
<!-- Node18&#45;&gt;Node18 -->
<g id="edge29" class="edge">
<title>Node18&#45;&gt;Node18</title>
<path fill="none" stroke="#191970" d="M708.1306,-109.4C709.491,-114.3146 716.2808,-118 728.5,-118 748.0508,-118 753.7022,-108.5653 745.4542,-99.7571"/>
<polygon fill="#191970" stroke="#191970" points="711.5065,-110.3518 711.5458,-99.7571 704.9081,-108.0149 711.5065,-110.3518"/>
</g>
</g>
</svg>
        <g id="navigator" transform="translate(0 0)" fill="#404254">
                <rect fill="#f2f5e9" fill-opacity="0.5" stroke="#606060" stroke-width=".5" x="0" y="0" width="60" height="60"/>
                <use id="zoomplus" xlink:href="#zoomPlus" x="17" y="9" onmousedown="handleZoom(evt,'in')"/>
                <use id="zoomminus" xlink:href="#zoomMin" x="42" y="9" onmousedown="handleZoom(evt,'out')"/>
                <use id="reset" xlink:href="#resetDef" x="30" y="36" onmousedown="handleReset()"/>
                <g id="arrowUp" xlink:href="#dirArrow" transform="translate(30 24)" onmousedown="handlePan(0,-1)">
                  <use xlink:href="#rim" fill="#404040">
                        <set attributeName="fill" to="#808080" begin="arrowUp.mouseover" end="arrowUp.mouseout"/>
                  </use>
                  <path fill="none" stroke="white" stroke-width="1.5" d="M0,-3.0v7 M-2.5,-0.5L0,-3.0L2.5,-0.5"/>
                </g>
                <g id="arrowRight" xlink:href="#dirArrow" transform="rotate(90) translate(36 -43)" onmousedown="handlePan(1,0)">
                  <use xlink:href="#rim" fill="#404040">
                        <set attributeName="fill" to="#808080" begin="arrowRight.mouseover" end="arrowRight.mouseout"/>
                  </use>
                  <path fill="none" stroke="white" stroke-width="1.5" d="M0,-3.0v7 M-2.5,-0.5L0,-3.0L2.5,-0.5"/>
                </g>
                <g id="arrowDown" xlink:href="#dirArrow" transform="rotate(180) translate(-30 -48)" onmousedown="handlePan(0,1)">
                  <use xlink:href="#rim" fill="#404040">
                        <set attributeName="fill" to="#808080" begin="arrowDown.mouseover" end="arrowDown.mouseout"/>
                  </use>
                  <path fill="none" stroke="white" stroke-width="1.5" d="M0,-3.0v7 M-2.5,-0.5L0,-3.0L2.5,-0.5"/>
                </g>
                <g id="arrowLeft" xlink:href="#dirArrow" transform="rotate(270) translate(-36 17)" onmousedown="handlePan(-1,0)">
                  <use xlink:href="#rim" fill="#404040">
                        <set attributeName="fill" to="#808080" begin="arrowLeft.mouseover" end="arrowLeft.mouseout"/>
                  </use>
                  <path fill="none" stroke="white" stroke-width="1.5" d="M0,-3.0v7 M-2.5,-0.5L0,-3.0L2.5,-0.5"/>
                </g>
        </g>
        <svg viewBox="0 0 15 15" width="100%" height="30px" preserveAspectRatio="xMaxYMin meet">
         <g id="arrow_out" transform="scale(0.3 0.3)">
          <a xlink:href="graphic_8h_a90228825151958bdc7dfaffdbbd88494_icgraph_org.svg" target="_base">
           <rect id="button" ry="5" rx="5" y="6" x="6" height="38" width="38"
                fill="#f2f5e9" fill-opacity="0.5" stroke="#606060" stroke-width="1.0"/>
           <path id="arrow"
             d="M 11.500037,31.436501 C 11.940474,20.09759 22.043105,11.32322 32.158766,21.979434 L 37.068811,17.246167 C 37.068811,17.246167 37.088388,32 37.088388,32 L 22.160133,31.978069 C 22.160133,31.978069 26.997745,27.140456 26.997745,27.140456 C 18.528582,18.264221 13.291696,25.230495 11.500037,31.436501 z"
             style="fill:#404040;"/>
          </a>
         </g>
        </svg>
</svg>
