<?xml version="1.0" encoding="UTF-8" standalone="no"?>
<!DOCTYPE svg PUBLIC "-//W3C//DTD SVG 1.1//EN"
 "http://www.w3.org/Graphics/SVG/1.1/DTD/svg11.dtd">
<!-- Generated by graphviz version 2.40.1 (20161225.0304)
 -->
<!-- Title: draw_xpm Pages: 1 -->
<!--zoomable 370 -->
<svg id="main" version="1.1" xmlns="http://www.w3.org/2000/svg" xmlns:xlink="http://www.w3.org/1999/xlink" xml:space="preserve" onload="init(evt)">
<style type="text/css"><![CDATA[
.edge:hover path { stroke: red; }
.edge:hover polygon { stroke: red; fill: red; }
]]></style>
<script type="text/javascript"><![CDATA[
var edges = document.getElementsByTagName('g');
if (edges && edges.length) {
  for (var i=0;i<edges.length;i++) {
    if (edges[i].id.substr(0,4)=='edge') {
      edges[i].setAttribute('class','edge');
    }
  }
}
]]></script>
        <defs>
                <circle id="rim" cx="0" cy="0" r="7"/>
                <circle id="rim2" cx="0" cy="0" r="3.5"/>
                <g id="zoomPlus">
                        <use xlink:href="#rim" fill="#404040">
                                <set attributeName="fill" to="#808080" begin="zoomplus.mouseover" end="zoomplus.mouseout"/>
                        </use>
                        <path d="M-4,0h8M0,-4v8" fill="none" stroke="white" stroke-width="1.5" pointer-events="none"/>
                </g>
                <g id="zoomMin">
                        <use xlink:href="#rim" fill="#404040">
                                <set attributeName="fill" to="#808080" begin="zoomminus.mouseover" end="zoomminus.mouseout"/>
                        </use>
                        <path d="M-4,0h8" fill="none" stroke="white" stroke-width="1.5" pointer-events="none"/>
                </g>
                <g id="dirArrow">
                        <path fill="none" stroke="white" stroke-width="1.5" d="M0,-3.0v7 M-2.5,-0.5L0,-3.0L2.5,-0.5"/>
                </g>
               <g id="resetDef">
                       <use xlink:href="#rim2" fill="#404040">
                               <set attributeName="fill" to="#808080" begin="reset.mouseover" end="reset.mouseout"/>
                       </use>
               </g>
        </defs>

<script type="text/javascript">
var viewWidth = 929;
var viewHeight = 370;
var sectionId = 'dynsection-3';
</script>
<script xlink:href="svgpan.js"/>
<svg id="graph" class="graph">
<g id="viewport">
<title>draw_xpm</title>
<polygon fill="#ffffff" stroke="transparent" points="-4,4 -4,-366 925,-366 925,4 -4,4"/>
<!-- Node22 -->
<g id="node1" class="node">
<title>Node22</title>
<polygon fill="#bfbfbf" stroke="#000000" points="0,-171.5 0,-190.5 62,-190.5 62,-171.5 0,-171.5"/>
<text text-anchor="middle" x="31" y="-178.5" font-family="Helvetica,sans-Serif" font-size="10.00" fill="#000000">draw_xpm</text>
</g>
<!-- Node23 -->
<g id="node2" class="node">
<title>Node23</title>
<g id="a_node2"><a xlink:href="game_8h.html#aaeeee1282b90aa12468a1862c7871ee4" target="_top" xlink:title="Lets the player fire against the enemy&#39;s boats using a graphical interface Shows previously hit cells...">
<polygon fill="#ffffff" stroke="#000000" points="366,-152.5 366,-171.5 452,-171.5 452,-152.5 366,-152.5"/>
<text text-anchor="middle" x="409" y="-159.5" font-family="Helvetica,sans-Serif" font-size="10.00" fill="#000000">game_round_sp</text>
</a>
</g>
</g>
<!-- Node22&#45;&gt;Node23 -->
<g id="edge1" class="edge">
<title>Node22&#45;&gt;Node23</title>
<path fill="none" stroke="#191970" d="M56.8815,-166.3928C91.4243,-147.8171 155.0989,-116.7446 214,-105 264.1244,-95.0055 280.3179,-89.4308 329,-105 358.2378,-114.3506 385.9107,-138.7319 399.7647,-152.3841"/>
<polygon fill="#191970" stroke="#191970" points="55.0396,-163.4107 47.9393,-171.2743 58.3937,-169.5548 55.0396,-163.4107"/>
</g>
<!-- Node29 -->
<g id="node8" class="node">
<title>Node29</title>
<g id="a_node8"><a xlink:href="game_8h.html#afb1a61b5802eed643536ce45225d2000" target="_top" xlink:title="Randomly fires upon player&#39;s boats using a state machine to simulate a strategy In case of a hit the ...">
<polygon fill="#ffffff" stroke="#000000" points="367.5,-266.5 367.5,-285.5 450.5,-285.5 450.5,-266.5 367.5,-266.5"/>
<text text-anchor="middle" x="409" y="-273.5" font-family="Helvetica,sans-Serif" font-size="10.00" fill="#000000">game_round_ai</text>
</a>
</g>
</g>
<!-- Node22&#45;&gt;Node29 -->
<g id="edge8" class="edge">
<title>Node22&#45;&gt;Node29</title>
<path fill="none" stroke="#191970" d="M49.315,-197.4136C80.4547,-224.0909 146.893,-275.8075 214,-295 271.0672,-311.3211 340.9394,-296.5639 379.6444,-285.5135"/>
<polygon fill="#191970" stroke="#191970" points="51.3355,-194.5318 41.4968,-190.601 46.7368,-199.8094 51.3355,-194.5318"/>
</g>
<!-- Node30 -->
<g id="node9" class="node">
<title>Node30</title>
<g id="a_node9"><a xlink:href="game_8h.html#a428e51196f5847d0e5e50822aa1c9716" target="_top" xlink:title="displays the end game screen (lost) ">
<polygon fill="#ffffff" stroke="#000000" points="98,-342.5 98,-361.5 178,-361.5 178,-342.5 98,-342.5"/>
<text text-anchor="middle" x="138" y="-349.5" font-family="Helvetica,sans-Serif" font-size="10.00" fill="#000000">game_over_sp</text>
</a>
</g>
</g>
<!-- Node22&#45;&gt;Node30 -->
<g id="edge10" class="edge">
<title>Node22&#45;&gt;Node30</title>
<path fill="none" stroke="#191970" d="M35.8327,-200.4717C44.1641,-230.7505 63.7228,-289.6219 98,-328 103.1789,-333.7985 110.0987,-338.6232 116.7253,-342.3889"/>
<polygon fill="#191970" stroke="#191970" points="39.1917,-199.4828 33.2647,-190.7009 32.4216,-201.2622 39.1917,-199.4828"/>
</g>
<!-- Node31 -->
<g id="node10" class="node">
<title>Node31</title>
<g id="a_node10"><a xlink:href="game_8h.html#a0ecf3df63f0053cd3177ad9dd3716b54" target="_top" xlink:title="displays the end game screen (won) ">
<polygon fill="#ffffff" stroke="#000000" points="107.5,-.5 107.5,-19.5 168.5,-19.5 168.5,-.5 107.5,-.5"/>
<text text-anchor="middle" x="138" y="-7.5" font-family="Helvetica,sans-Serif" font-size="10.00" fill="#000000">winner_sp</text>
</a>
</g>
</g>
<!-- Node22&#45;&gt;Node31 -->
<g id="edge12" class="edge">
<title>Node22&#45;&gt;Node31</title>
<path fill="none" stroke="#191970" d="M35.8327,-161.5283C44.1641,-131.2495 63.7228,-72.3781 98,-34 103.1789,-28.2015 110.0987,-23.3768 116.7253,-19.6111"/>
<polygon fill="#191970" stroke="#191970" points="32.4216,-160.7378 33.2647,-171.2991 39.1917,-162.5172 32.4216,-160.7378"/>
</g>
<!-- Node32 -->
<g id="node11" class="node">
<title>Node32</title>
<g id="a_node11"><a xlink:href="sprite_8h.html#ab0c8b8caefb74f2cf7c79ffb254c4ac4" target="_top" xlink:title="Shows the sprite. ">
<polygon fill="#ffffff" stroke="#000000" points="104.5,-171.5 104.5,-190.5 171.5,-190.5 171.5,-171.5 104.5,-171.5"/>
<text text-anchor="middle" x="138" y="-178.5" font-family="Helvetica,sans-Serif" font-size="10.00" fill="#000000">draw_sprite</text>
</a>
</g>
</g>
<!-- Node22&#45;&gt;Node32 -->
<g id="edge14" class="edge">
<title>Node22&#45;&gt;Node32</title>
<path fill="none" stroke="#191970" d="M72.4847,-181C83.0161,-181 94.2025,-181 104.2948,-181"/>
<polygon fill="#191970" stroke="#191970" points="72.2365,-177.5001 62.2365,-181 72.2364,-184.5001 72.2365,-177.5001"/>
</g>
<!-- Node24 -->
<g id="node3" class="node">
<title>Node24</title>
<g id="a_node3"><a xlink:href="game_8h.html#aff1f849979a9ca10d6ff2bce0dfb7fd5" target="_top" xlink:title="Single Player Iniciates the boards from the respective players Starts the game loop (1 turn per playe...">
<polygon fill="#ffffff" stroke="#000000" points="490.5,-217.5 490.5,-236.5 546.5,-236.5 546.5,-217.5 490.5,-217.5"/>
<text text-anchor="middle" x="518.5" y="-224.5" font-family="Helvetica,sans-Serif" font-size="10.00" fill="#000000">game_sp</text>
</a>
</g>
</g>
<!-- Node23&#45;&gt;Node24 -->
<g id="edge2" class="edge">
<title>Node23&#45;&gt;Node24</title>
<path fill="none" stroke="#191970" d="M433.8459,-176.7487C454.8108,-189.1936 484.2147,-206.648 502.2766,-217.3697"/>
<polygon fill="#191970" stroke="#191970" points="435.5428,-173.6858 425.1571,-171.591 431.9696,-179.7052 435.5428,-173.6858"/>
</g>
<!-- Node28 -->
<g id="node7" class="node">
<title>Node28</title>
<g id="a_node7"><a xlink:href="game_8h.html#a03f40ddf75045683b3f488d4839937ab" target="_top" xlink:title="Multiplayer. ">
<polygon fill="#ffffff" stroke="#000000" points="489,-165.5 489,-184.5 548,-184.5 548,-165.5 489,-165.5"/>
<text text-anchor="middle" x="518.5" y="-172.5" font-family="Helvetica,sans-Serif" font-size="10.00" fill="#000000">game_mp</text>
</a>
</g>
</g>
<!-- Node23&#45;&gt;Node28 -->
<g id="edge6" class="edge">
<title>Node23&#45;&gt;Node28</title>
<path fill="none" stroke="#191970" d="M462.4068,-168.3405C471.4436,-169.4134 480.5292,-170.4921 488.6781,-171.4595"/>
<polygon fill="#191970" stroke="#191970" points="462.6202,-164.8414 452.2773,-167.1379 461.7949,-171.7926 462.6202,-164.8414"/>
</g>
<!-- Node25 -->
<g id="node4" class="node">
<title>Node25</title>
<g id="a_node4"><a xlink:href="menu_8h.html#a95c8dcba38d720d3e4bd6fcf9a8ee279" target="_top" xlink:title="selects a menu option ">
<polygon fill="#ffffff" stroke="#000000" points="584,-165.5 584,-184.5 675,-184.5 675,-165.5 584,-165.5"/>
<text text-anchor="middle" x="629.5" y="-172.5" font-family="Helvetica,sans-Serif" font-size="10.00" fill="#000000">select_menu_opt</text>
</a>
</g>
</g>
<!-- Node24&#45;&gt;Node25 -->
<g id="edge3" class="edge">
<title>Node24&#45;&gt;Node25</title>
<path fill="none" stroke="#191970" d="M548.0691,-213.1478C567.2636,-204.1558 591.7958,-192.6632 608.8941,-184.6532"/>
<polygon fill="#191970" stroke="#191970" points="546.4299,-210.0506 538.8591,-217.4624 549.3995,-216.3895 546.4299,-210.0506"/>
</g>
<!-- Node26 -->
<g id="node5" class="node">
<title>Node26</title>
<g id="a_node5"><a xlink:href="menu_8h.html#a6ed6ac9188a15c74b9d07d12b34397c0" target="_top" xlink:title="Subscribes interruptions of the necessary modules Calls main menu and game functions. ">
<polygon fill="#ffffff" stroke="#000000" points="711,-108.5 711,-127.5 803,-127.5 803,-108.5 711,-108.5"/>
<text text-anchor="middle" x="757" y="-115.5" font-family="Helvetica,sans-Serif" font-size="10.00" fill="#000000">game_main_cicle</text>
</a>
</g>
</g>
<!-- Node25&#45;&gt;Node26 -->
<g id="edge4" class="edge">
<title>Node25&#45;&gt;Node26</title>
<path fill="none" stroke="#191970" d="M660.2731,-161.2426C683.5688,-150.8281 714.9716,-136.7892 735.5897,-127.5716"/>
<polygon fill="#191970" stroke="#191970" points="658.5414,-158.1829 650.8406,-165.4595 661.3984,-164.5734 658.5414,-158.1829"/>
</g>
<!-- Node27 -->
<g id="node6" class="node">
<title>Node27</title>
<g id="a_node6"><a xlink:href="proj_8c.html#a2a16f651eccbd248e1ad3b3b924b143b" target="_top" xlink:title="proj_main_loop">
<polygon fill="#ffffff" stroke="#000000" points="839,-108.5 839,-127.5 921,-127.5 921,-108.5 839,-108.5"/>
<text text-anchor="middle" x="880" y="-115.5" font-family="Helvetica,sans-Serif" font-size="10.00" fill="#000000">proj_main_loop</text>
</a>
</g>
</g>
<!-- Node26&#45;&gt;Node27 -->
<g id="edge5" class="edge">
<title>Node26&#45;&gt;Node27</title>
<path fill="none" stroke="#191970" d="M813.1908,-118C821.8339,-118 830.6179,-118 838.8531,-118"/>
<polygon fill="#191970" stroke="#191970" points="813.1506,-114.5001 803.1506,-118 813.1506,-121.5001 813.1506,-114.5001"/>
</g>
<!-- Node28&#45;&gt;Node25 -->
<g id="edge7" class="edge">
<title>Node28&#45;&gt;Node25</title>
<path fill="none" stroke="#191970" d="M558.3594,-175C566.6038,-175 575.3495,-175 583.7839,-175"/>
<polygon fill="#191970" stroke="#191970" points="558.246,-171.5001 548.246,-175 558.2459,-178.5001 558.246,-171.5001"/>
</g>
<!-- Node29&#45;&gt;Node24 -->
<g id="edge9" class="edge">
<title>Node29&#45;&gt;Node24</title>
<path fill="none" stroke="#191970" d="M439.75,-262.2397C458.0623,-254.0452 480.8406,-243.8522 497.1813,-236.5399"/>
<polygon fill="#191970" stroke="#191970" points="438.0708,-259.1566 430.3726,-266.436 440.93,-265.5461 438.0708,-259.1566"/>
</g>
<!-- Node30&#45;&gt;Node29 -->
<g id="edge11" class="edge">
<title>Node30&#45;&gt;Node29</title>
<path fill="none" stroke="#191970" d="M188.5134,-351.7829C227.8787,-350.1741 283.3334,-344.7052 329,-328 356.069,-318.098 383.2991,-297.6338 397.9661,-285.5399"/>
<polygon fill="#191970" stroke="#191970" points="188.2397,-348.29 178.364,-352.127 188.4769,-355.286 188.2397,-348.29"/>
</g>
<!-- Node31&#45;&gt;Node23 -->
<g id="edge13" class="edge">
<title>Node31&#45;&gt;Node23</title>
<path fill="none" stroke="#191970" d="M179.0186,-5.4709C220.1793,-3.0166 283.7926,-5.1128 329,-34 374.2686,-62.9263 398.3368,-127.6054 406.1298,-152.2279"/>
<polygon fill="#191970" stroke="#191970" points="178.5321,-1.9967 168.807,-6.2006 179.0311,-8.9789 178.5321,-1.9967"/>
</g>
<!-- Node32&#45;&gt;Node23 -->
<g id="edge26" class="edge">
<title>Node32&#45;&gt;Node23</title>
<path fill="none" stroke="#191970" d="M181.4811,-177.9515C232.1062,-174.4021 315.216,-168.5753 365.7443,-165.0327"/>
<polygon fill="#191970" stroke="#191970" points="181.2324,-174.4603 171.5017,-178.6512 181.7221,-181.4431 181.2324,-174.4603"/>
</g>
<!-- Node33 -->
<g id="node12" class="node">
<title>Node33</title>
<g id="a_node12"><a xlink:href="board_8h.html#a381a21388b9cb70e9bfaf870ac1f7130" target="_top" xlink:title="Iterates over a boat array and shows the boats. ">
<polygon fill="#ffffff" stroke="#000000" points="238,-266.5 238,-285.5 305,-285.5 305,-266.5 238,-266.5"/>
<text text-anchor="middle" x="271.5" y="-273.5" font-family="Helvetica,sans-Serif" font-size="10.00" fill="#000000">draw_boats</text>
</a>
</g>
</g>
<!-- Node32&#45;&gt;Node33 -->
<g id="edge15" class="edge">
<title>Node32&#45;&gt;Node33</title>
<path fill="none" stroke="#191970" d="M153.1804,-198.349C167.5919,-213.9962 190.4913,-236.8185 214,-252 222.9054,-257.751 233.419,-262.6159 243.0044,-266.4305"/>
<polygon fill="#191970" stroke="#191970" points="155.7567,-195.9797 146.4596,-190.899 150.5592,-200.6685 155.7567,-195.9797"/>
</g>
<!-- Node34 -->
<g id="node13" class="node">
<title>Node34</title>
<g id="a_node13"><a xlink:href="game_8h.html#a382ed7c0cb3201c13d4396ad9afc5a3e" target="_top" xlink:title="Lets the player initialize the board unsign a graphical interface 10 boats must be positioned before ...">
<polygon fill="#ffffff" stroke="#000000" points="365,-224.5 365,-243.5 453,-243.5 453,-224.5 365,-224.5"/>
<text text-anchor="middle" x="409" y="-231.5" font-family="Helvetica,sans-Serif" font-size="10.00" fill="#000000">game_init_board</text>
</a>
</g>
</g>
<!-- Node32&#45;&gt;Node34 -->
<g id="edge25" class="edge">
<title>Node32&#45;&gt;Node34</title>
<path fill="none" stroke="#191970" d="M161.5341,-195.7519C176.0812,-204.0974 195.4574,-213.864 214,-219 264.3921,-232.9578 324.7223,-235.5508 364.7981,-235.4012"/>
<polygon fill="#191970" stroke="#191970" points="163.1169,-192.6215 152.7293,-190.5359 159.5491,-198.6441 163.1169,-192.6215"/>
</g>
<!-- Node35 -->
<g id="node14" class="node">
<title>Node35</title>
<g id="a_node14"><a xlink:href="board_8h.html#a63852514f51073a5cc620ff3985a6d77" target="_top" xlink:title="Iterates over the boats array and draws the ones wich have 0 hitpoints. ">
<polygon fill="#ffffff" stroke="#000000" points="214,-114.5 214,-133.5 329,-133.5 329,-114.5 214,-114.5"/>
<text text-anchor="middle" x="271.5" y="-121.5" font-family="Helvetica,sans-Serif" font-size="10.00" fill="#000000">draw_destroyed_boats</text>
</a>
</g>
</g>
<!-- Node32&#45;&gt;Node35 -->
<g id="edge20" class="edge">
<title>Node32&#45;&gt;Node35</title>
<path fill="none" stroke="#191970" d="M169.3694,-167.2598C183.0562,-161.2957 199.3031,-154.2576 214,-148 225.3461,-143.1691 237.9895,-137.8815 248.5249,-133.5018"/>
<polygon fill="#191970" stroke="#191970" points="167.6797,-164.1784 159.9145,-171.3863 170.4797,-170.594 167.6797,-164.1784"/>
</g>
<!-- Node36 -->
<g id="node15" class="node">
<title>Node36</title>
<g id="a_node15"><a xlink:href="board_8h.html#a97ebf6f6f65c53b49910187180bd5e67" target="_top" xlink:title="Converts the states of the matrix into objects and shows them. ">
<polygon fill="#ffffff" stroke="#000000" points="234.5,-190.5 234.5,-209.5 308.5,-209.5 308.5,-190.5 234.5,-190.5"/>
<text text-anchor="middle" x="271.5" y="-197.5" font-family="Helvetica,sans-Serif" font-size="10.00" fill="#000000">draw_objects</text>
</a>
</g>
</g>
<!-- Node32&#45;&gt;Node36 -->
<g id="edge22" class="edge">
<title>Node32&#45;&gt;Node36</title>
<path fill="none" stroke="#191970" d="M181.8637,-187.2428C198.7411,-189.6448 217.8394,-192.3629 234.0576,-194.6711"/>
<polygon fill="#191970" stroke="#191970" points="182.0811,-183.7385 171.6877,-185.7945 181.0947,-190.6687 182.0811,-183.7385"/>
</g>
<!-- Node37 -->
<g id="node16" class="node">
<title>Node37</title>
<g id="a_node16"><a xlink:href="menu_8h.html#a4cc4e9de5c448babdb711586dd12bec0" target="_top" xlink:title="graphical interface for the main menu ">
<polygon fill="#ffffff" stroke="#000000" points="609,-80.5 609,-99.5 650,-99.5 650,-80.5 609,-80.5"/>
<text text-anchor="middle" x="629.5" y="-87.5" font-family="Helvetica,sans-Serif" font-size="10.00" fill="#000000">menu</text>
</a>
</g>
</g>
<!-- Node32&#45;&gt;Node37 -->
<g id="edge27" class="edge">
<title>Node32&#45;&gt;Node37</title>
<path fill="none" stroke="#191970" d="M149.874,-162.8497C163.0593,-144.4796 186.1932,-117.1102 214,-105 353.9678,-44.0421 546.2643,-73.5692 608.8881,-85.6764"/>
<polygon fill="#191970" stroke="#191970" points="146.8616,-161.0529 144.0684,-171.2729 152.6252,-165.0254 146.8616,-161.0529"/>
</g>
<!-- Node33&#45;&gt;Node29 -->
<g id="edge19" class="edge">
<title>Node33&#45;&gt;Node29</title>
<path fill="none" stroke="#191970" d="M315.1912,-276C331.8823,-276 350.8563,-276 367.3519,-276"/>
<polygon fill="#191970" stroke="#191970" points="315.1363,-272.5001 305.1363,-276 315.1362,-279.5001 315.1363,-272.5001"/>
</g>
<!-- Node33&#45;&gt;Node34 -->
<g id="edge16" class="edge">
<title>Node33&#45;&gt;Node34</title>
<path fill="none" stroke="#191970" d="M312.538,-263.4648C333.3269,-257.1147 358.176,-249.5244 377.4466,-243.6381"/>
<polygon fill="#191970" stroke="#191970" points="311.2422,-260.2009 302.7009,-266.4695 313.2871,-266.8955 311.2422,-260.2009"/>
</g>
<!-- Node34&#45;&gt;Node24 -->
<g id="edge17" class="edge">
<title>Node34&#45;&gt;Node24</title>
<path fill="none" stroke="#191970" d="M463.3605,-230.5249C472.7574,-229.9242 482.1696,-229.3225 490.4898,-228.7906"/>
<polygon fill="#191970" stroke="#191970" points="462.9785,-227.0421 453.2222,-231.173 463.4252,-234.0278 462.9785,-227.0421"/>
</g>
<!-- Node34&#45;&gt;Node28 -->
<g id="edge18" class="edge">
<title>Node34&#45;&gt;Node28</title>
<path fill="none" stroke="#191970" d="M436.0939,-219.4014C456.2753,-208.5274 483.2556,-193.9901 500.7548,-184.5614"/>
<polygon fill="#191970" stroke="#191970" points="434.2249,-216.4327 427.0817,-224.2573 437.5453,-222.5951 434.2249,-216.4327"/>
</g>
<!-- Node35&#45;&gt;Node23 -->
<g id="edge21" class="edge">
<title>Node35&#45;&gt;Node23</title>
<path fill="none" stroke="#191970" d="M316.0729,-136.3183C334.9645,-141.5393 356.6472,-147.5316 374.314,-152.4141"/>
<polygon fill="#191970" stroke="#191970" points="316.7681,-132.8793 306.1971,-133.589 314.9034,-139.6264 316.7681,-132.8793"/>
</g>
<!-- Node36&#45;&gt;Node23 -->
<g id="edge23" class="edge">
<title>Node36&#45;&gt;Node23</title>
<path fill="none" stroke="#191970" d="M316.0729,-187.6817C334.9645,-182.4607 356.6472,-176.4684 374.314,-171.5859"/>
<polygon fill="#191970" stroke="#191970" points="314.9034,-184.3736 306.1971,-190.411 316.7681,-191.1207 314.9034,-184.3736"/>
</g>
<!-- Node36&#45;&gt;Node29 -->
<g id="edge24" class="edge">
<title>Node36&#45;&gt;Node29</title>
<path fill="none" stroke="#191970" d="M296.7645,-214.6292C315.505,-225.4054 341.7295,-240.3273 365,-253 373.1755,-257.4522 382.2839,-262.2414 390.0831,-266.2908"/>
<polygon fill="#191970" stroke="#191970" points="298.3688,-211.5142 287.957,-209.5531 294.8734,-217.579 298.3688,-211.5142"/>
</g>
<!-- Node37&#45;&gt;Node26 -->
<g id="edge29" class="edge">
<title>Node37&#45;&gt;Node26</title>
<path fill="none" stroke="#191970" d="M660.1557,-96.7322C676.1403,-100.2426 695.9658,-104.5964 713.5076,-108.4487"/>
<polygon fill="#191970" stroke="#191970" points="660.7869,-93.2875 650.2688,-94.561 659.2853,-100.1246 660.7869,-93.2875"/>
</g>
<!-- Node37&#45;&gt;Node37 -->
<g id="edge28" class="edge">
<title>Node37&#45;&gt;Node37</title>
<path fill="none" stroke="#191970" d="M609.1306,-109.4C610.491,-114.3146 617.2808,-118 629.5,-118 649.0508,-118 654.7022,-108.5653 646.4542,-99.7571"/>
<polygon fill="#191970" stroke="#191970" points="612.5065,-110.3518 612.5458,-99.7571 605.9081,-108.0149 612.5065,-110.3518"/>
</g>
</g>
</svg>
        <g id="navigator" transform="translate(0 0)" fill="#404254">
                <rect fill="#f2f5e9" fill-opacity="0.5" stroke="#606060" stroke-width=".5" x="0" y="0" width="60" height="60"/>
                <use id="zoomplus" xlink:href="#zoomPlus" x="17" y="9" onmousedown="handleZoom(evt,'in')"/>
                <use id="zoomminus" xlink:href="#zoomMin" x="42" y="9" onmousedown="handleZoom(evt,'out')"/>
                <use id="reset" xlink:href="#resetDef" x="30" y="36" onmousedown="handleReset()"/>
                <g id="arrowUp" xlink:href="#dirArrow" transform="translate(30 24)" onmousedown="handlePan(0,-1)">
                  <use xlink:href="#rim" fill="#404040">
                        <set attributeName="fill" to="#808080" begin="arrowUp.mouseover" end="arrowUp.mouseout"/>
                  </use>
                  <path fill="none" stroke="white" stroke-width="1.5" d="M0,-3.0v7 M-2.5,-0.5L0,-3.0L2.5,-0.5"/>
                </g>
                <g id="arrowRight" xlink:href="#dirArrow" transform="rotate(90) translate(36 -43)" onmousedown="handlePan(1,0)">
                  <use xlink:href="#rim" fill="#404040">
                        <set attributeName="fill" to="#808080" begin="arrowRight.mouseover" end="arrowRight.mouseout"/>
                  </use>
                  <path fill="none" stroke="white" stroke-width="1.5" d="M0,-3.0v7 M-2.5,-0.5L0,-3.0L2.5,-0.5"/>
                </g>
                <g id="arrowDown" xlink:href="#dirArrow" transform="rotate(180) translate(-30 -48)" onmousedown="handlePan(0,1)">
                  <use xlink:href="#rim" fill="#404040">
                        <set attributeName="fill" to="#808080" begin="arrowDown.mouseover" end="arrowDown.mouseout"/>
                  </use>
                  <path fill="none" stroke="white" stroke-width="1.5" d="M0,-3.0v7 M-2.5,-0.5L0,-3.0L2.5,-0.5"/>
                </g>
                <g id="arrowLeft" xlink:href="#dirArrow" transform="rotate(270) translate(-36 17)" onmousedown="handlePan(-1,0)">
                  <use xlink:href="#rim" fill="#404040">
                        <set attributeName="fill" to="#808080" begin="arrowLeft.mouseover" end="arrowLeft.mouseout"/>
                  </use>
                  <path fill="none" stroke="white" stroke-width="1.5" d="M0,-3.0v7 M-2.5,-0.5L0,-3.0L2.5,-0.5"/>
                </g>
        </g>
        <svg viewBox="0 0 15 15" width="100%" height="30px" preserveAspectRatio="xMaxYMin meet">
         <g id="arrow_out" transform="scale(0.3 0.3)">
          <a xlink:href="graphic_8h_a461a83bf6ebfd3b6dc95ca3962858d3d_icgraph_org.svg" target="_base">
           <rect id="button" ry="5" rx="5" y="6" x="6" height="38" width="38"
                fill="#f2f5e9" fill-opacity="0.5" stroke="#606060" stroke-width="1.0"/>
           <path id="arrow"
             d="M 11.500037,31.436501 C 11.940474,20.09759 22.043105,11.32322 32.158766,21.979434 L 37.068811,17.246167 C 37.068811,17.246167 37.088388,32 37.088388,32 L 22.160133,31.978069 C 22.160133,31.978069 26.997745,27.140456 26.997745,27.140456 C 18.528582,18.264221 13.291696,25.230495 11.500037,31.436501 z"
             style="fill:#404040;"/>
          </a>
         </g>
        </svg>
</svg>
