<?xml version="1.0" encoding="UTF-8" standalone="no"?>
<!DOCTYPE svg PUBLIC "-//W3C//DTD SVG 1.1//EN"
 "http://www.w3.org/Graphics/SVG/1.1/DTD/svg11.dtd">
<!-- Generated by graphviz version 2.40.1 (20161225.0304)
 -->
<!-- Title: enable_components Pages: 1 -->
<svg width="358pt" height="28pt"
 viewBox="0.00 0.00 358.00 28.00" xmlns="http://www.w3.org/2000/svg" xmlns:xlink="http://www.w3.org/1999/xlink">
<g id="graph0" class="graph" transform="scale(1 1) rotate(0) translate(4 24)">
<title>enable_components</title>
<polygon fill="#ffffff" stroke="transparent" points="-4,4 -4,-24 354,-24 354,4 -4,4"/>
<!-- Node13 -->
<g id="node1" class="node">
<title>Node13</title>
<polygon fill="#bfbfbf" stroke="#000000" points="0,-.5 0,-19.5 104,-19.5 104,-.5 0,-.5"/>
<text text-anchor="middle" x="52" y="-7.5" font-family="Helvetica,sans-Serif" font-size="10.00" fill="#000000">enable_components</text>
</g>
<!-- Node14 -->
<g id="node2" class="node">
<title>Node14</title>
<g id="a_node2"><a xlink:href="menu_8h.html#a6ed6ac9188a15c74b9d07d12b34397c0" target="_top" xlink:title="Subscribes interruptions of the necessary modules Calls main menu and game functions. ">
<polygon fill="#ffffff" stroke="#000000" points="140,-.5 140,-19.5 232,-19.5 232,-.5 140,-.5"/>
<text text-anchor="middle" x="186" y="-7.5" font-family="Helvetica,sans-Serif" font-size="10.00" fill="#000000">game_main_cicle</text>
</a>
</g>
</g>
<!-- Node13&#45;&gt;Node14 -->
<g id="edge1" class="edge">
<title>Node13&#45;&gt;Node14</title>
<path fill="none" stroke="#191970" d="M114.2298,-10C122.8516,-10 131.5793,-10 139.8379,-10"/>
<polygon fill="#191970" stroke="#191970" points="114.1916,-6.5001 104.1916,-10 114.1916,-13.5001 114.1916,-6.5001"/>
</g>
<!-- Node15 -->
<g id="node3" class="node">
<title>Node15</title>
<g id="a_node3"><a xlink:href="proj_8c.html#a2a16f651eccbd248e1ad3b3b924b143b" target="_top" xlink:title="proj_main_loop">
<polygon fill="#ffffff" stroke="#000000" points="268,-.5 268,-19.5 350,-19.5 350,-.5 268,-.5"/>
<text text-anchor="middle" x="309" y="-7.5" font-family="Helvetica,sans-Serif" font-size="10.00" fill="#000000">proj_main_loop</text>
</a>
</g>
</g>
<!-- Node14&#45;&gt;Node15 -->
<g id="edge2" class="edge">
<title>Node14&#45;&gt;Node15</title>
<path fill="none" stroke="#191970" d="M242.1908,-10C250.8339,-10 259.6179,-10 267.8531,-10"/>
<polygon fill="#191970" stroke="#191970" points="242.1506,-6.5001 232.1506,-10 242.1506,-13.5001 242.1506,-6.5001"/>
</g>
</g>
</svg>
