<?xml version="1.0" encoding="UTF-8" standalone="no"?>
<!DOCTYPE svg PUBLIC "-//W3C//DTD SVG 1.1//EN"
 "http://www.w3.org/Graphics/SVG/1.1/DTD/svg11.dtd">
<!-- Generated by graphviz version 2.40.1 (20161225.0304)
 -->
<!-- Title: interrupt_cicle Pages: 1 -->
<svg width="885pt" height="305pt"
 viewBox="0.00 0.00 885.00 304.86" xmlns="http://www.w3.org/2000/svg" xmlns:xlink="http://www.w3.org/1999/xlink">
<g id="graph0" class="graph" transform="scale(1 1) rotate(0) translate(4 300.8574)">
<title>interrupt_cicle</title>
<polygon fill="#ffffff" stroke="transparent" points="-4,4 -4,-300.8574 881,-300.8574 881,4 -4,4"/>
<!-- Node59 -->
<g id="node1" class="node">
<title>Node59</title>
<polygon fill="#bfbfbf" stroke="#000000" points="0,-47.5 0,-66.5 77,-66.5 77,-47.5 0,-47.5"/>
<text text-anchor="middle" x="38.5" y="-54.5" font-family="Helvetica,sans-Serif" font-size="10.00" fill="#000000">interrupt_cicle</text>
</g>
<!-- Node60 -->
<g id="node2" class="node">
<title>Node60</title>
<g id="a_node2"><a xlink:href="game_8h.html#a382ed7c0cb3201c13d4396ad9afc5a3e" target="_top" xlink:title="Lets the player initialize the board unsign a graphical interface 10 boats must be positioned before ...">
<polygon fill="#ffffff" stroke="#000000" points="321,-66.5 321,-85.5 409,-85.5 409,-66.5 321,-66.5"/>
<text text-anchor="middle" x="365" y="-73.5" font-family="Helvetica,sans-Serif" font-size="10.00" fill="#000000">game_init_board</text>
</a>
</g>
</g>
<!-- Node59&#45;&gt;Node60 -->
<g id="edge1" class="edge">
<title>Node59&#45;&gt;Node60</title>
<path fill="none" stroke="#191970" d="M87.1974,-55.7983C137.0137,-55.0823 216.5878,-55.3595 285,-62 296.6482,-63.1307 309.1527,-64.9998 320.7338,-67.0097"/>
<polygon fill="#191970" stroke="#191970" points="86.9751,-52.3014 77.0336,-55.9643 87.0894,-59.3005 86.9751,-52.3014"/>
</g>
<!-- Node66 -->
<g id="node8" class="node">
<title>Node66</title>
<g id="a_node8"><a xlink:href="game_8h.html#aaeeee1282b90aa12468a1862c7871ee4" target="_top" xlink:title="Lets the player fire against the enemy&#39;s boats using a graphical interface Shows previously hit cells...">
<polygon fill="#ffffff" stroke="#000000" points="322,-142.5 322,-161.5 408,-161.5 408,-142.5 322,-142.5"/>
<text text-anchor="middle" x="365" y="-149.5" font-family="Helvetica,sans-Serif" font-size="10.00" fill="#000000">game_round_sp</text>
</a>
</g>
</g>
<!-- Node59&#45;&gt;Node66 -->
<g id="edge8" class="edge">
<title>Node59&#45;&gt;Node66</title>
<path fill="none" stroke="#191970" d="M80.9747,-69.3586C146.9676,-88.5602 272.7107,-125.1471 332.2208,-142.4624"/>
<polygon fill="#191970" stroke="#191970" points="81.8806,-65.9772 71.301,-66.5439 79.9249,-72.6984 81.8806,-65.9772"/>
</g>
<!-- Node67 -->
<g id="node9" class="node">
<title>Node67</title>
<g id="a_node9"><a xlink:href="game_8h.html#abdd70639378b19cfc929273ef7b4ff45" target="_top" xlink:title="Uses timer interruptions to wait a predetermined time. ">
<polygon fill="#ffffff" stroke="#000000" points="113,-180.5 113,-199.5 169,-199.5 169,-180.5 113,-180.5"/>
<text text-anchor="middle" x="141" y="-187.5" font-family="Helvetica,sans-Serif" font-size="10.00" fill="#000000">idle_time</text>
</a>
</g>
</g>
<!-- Node59&#45;&gt;Node67 -->
<g id="edge11" class="edge">
<title>Node59&#45;&gt;Node67</title>
<path fill="none" stroke="#191970" d="M52.2109,-74.7907C74.1027,-103.1967 116.2315,-157.8614 133.4187,-180.1628"/>
<polygon fill="#191970" stroke="#191970" points="54.7481,-72.3492 45.8715,-66.565 49.2036,-76.6223 54.7481,-72.3492"/>
</g>
<!-- Node71 -->
<g id="node13" class="node">
<title>Node71</title>
<g id="a_node13"><a xlink:href="menu_8h.html#a4cc4e9de5c448babdb711586dd12bec0" target="_top" xlink:title="graphical interface for the main menu ">
<polygon fill="#ffffff" stroke="#000000" points="565,-19.5 565,-38.5 606,-38.5 606,-19.5 565,-19.5"/>
<text text-anchor="middle" x="585.5" y="-26.5" font-family="Helvetica,sans-Serif" font-size="10.00" fill="#000000">menu</text>
</a>
</g>
</g>
<!-- Node59&#45;&gt;Node71 -->
<g id="edge21" class="edge">
<title>Node59&#45;&gt;Node71</title>
<path fill="none" stroke="#191970" d="M68.0963,-43.4037C107.5687,-26.5435 180.0284,0 245,0 245,0 245,0 365,0 439.133,0 526.0977,-16.3125 564.9468,-24.4688"/>
<polygon fill="#191970" stroke="#191970" points="66.5634,-40.2537 58.7963,-47.4595 69.3617,-46.6701 66.5634,-40.2537"/>
</g>
<!-- Node61 -->
<g id="node3" class="node">
<title>Node61</title>
<g id="a_node3"><a xlink:href="game_8h.html#aff1f849979a9ca10d6ff2bce0dfb7fd5" target="_top" xlink:title="Single Player Iniciates the boards from the respective players Starts the game loop (1 turn per playe...">
<polygon fill="#ffffff" stroke="#000000" points="446.5,-142.5 446.5,-161.5 502.5,-161.5 502.5,-142.5 446.5,-142.5"/>
<text text-anchor="middle" x="474.5" y="-149.5" font-family="Helvetica,sans-Serif" font-size="10.00" fill="#000000">game_sp</text>
</a>
</g>
</g>
<!-- Node60&#45;&gt;Node61 -->
<g id="edge2" class="edge">
<title>Node60&#45;&gt;Node61</title>
<path fill="none" stroke="#191970" d="M386.3378,-91.6151C402.3446,-103.228 424.8701,-119.3571 445,-133 449.6394,-136.1443 454.7542,-139.4825 459.4034,-142.4691"/>
<polygon fill="#191970" stroke="#191970" points="388.3173,-88.727 378.1723,-85.6726 384.1983,-94.3869 388.3173,-88.727"/>
</g>
<!-- Node65 -->
<g id="node7" class="node">
<title>Node65</title>
<g id="a_node7"><a xlink:href="game_8h.html#a03f40ddf75045683b3f488d4839937ab" target="_top" xlink:title="Multiplayer. ">
<polygon fill="#ffffff" stroke="#000000" points="445,-104.5 445,-123.5 504,-123.5 504,-104.5 445,-104.5"/>
<text text-anchor="middle" x="474.5" y="-111.5" font-family="Helvetica,sans-Serif" font-size="10.00" fill="#000000">game_mp</text>
</a>
</g>
</g>
<!-- Node60&#45;&gt;Node65 -->
<g id="edge6" class="edge">
<title>Node60&#45;&gt;Node65</title>
<path fill="none" stroke="#191970" d="M402.3792,-88.9718C416.9676,-94.0344 433.3917,-99.7341 446.8774,-104.4141"/>
<polygon fill="#191970" stroke="#191970" points="403.2263,-85.561 392.6315,-85.589 400.9313,-92.1741 403.2263,-85.561"/>
</g>
<!-- Node62 -->
<g id="node4" class="node">
<title>Node62</title>
<g id="a_node4"><a xlink:href="menu_8h.html#a95c8dcba38d720d3e4bd6fcf9a8ee279" target="_top" xlink:title="selects a menu option ">
<polygon fill="#ffffff" stroke="#000000" points="540,-104.5 540,-123.5 631,-123.5 631,-104.5 540,-104.5"/>
<text text-anchor="middle" x="585.5" y="-111.5" font-family="Helvetica,sans-Serif" font-size="10.00" fill="#000000">select_menu_opt</text>
</a>
</g>
</g>
<!-- Node61&#45;&gt;Node62 -->
<g id="edge3" class="edge">
<title>Node61&#45;&gt;Node62</title>
<path fill="none" stroke="#191970" d="M512.3913,-139.0282C527.1795,-133.9656 543.8285,-128.2659 557.499,-123.5859"/>
<polygon fill="#191970" stroke="#191970" points="510.8373,-135.8607 502.51,-142.411 513.1046,-142.4834 510.8373,-135.8607"/>
</g>
<!-- Node63 -->
<g id="node5" class="node">
<title>Node63</title>
<g id="a_node5"><a xlink:href="menu_8h.html#a6ed6ac9188a15c74b9d07d12b34397c0" target="_top" xlink:title="Subscribes interruptions of the necessary modules Calls main menu and game functions. ">
<polygon fill="#ffffff" stroke="#000000" points="667,-47.5 667,-66.5 759,-66.5 759,-47.5 667,-47.5"/>
<text text-anchor="middle" x="713" y="-54.5" font-family="Helvetica,sans-Serif" font-size="10.00" fill="#000000">game_main_cicle</text>
</a>
</g>
</g>
<!-- Node62&#45;&gt;Node63 -->
<g id="edge4" class="edge">
<title>Node62&#45;&gt;Node63</title>
<path fill="none" stroke="#191970" d="M616.2731,-100.2426C639.5688,-89.8281 670.9716,-75.7892 691.5897,-66.5716"/>
<polygon fill="#191970" stroke="#191970" points="614.5414,-97.1829 606.8406,-104.4595 617.3984,-103.5734 614.5414,-97.1829"/>
</g>
<!-- Node64 -->
<g id="node6" class="node">
<title>Node64</title>
<g id="a_node6"><a xlink:href="proj_8c.html#a2a16f651eccbd248e1ad3b3b924b143b" target="_top" xlink:title="proj_main_loop">
<polygon fill="#ffffff" stroke="#000000" points="795,-47.5 795,-66.5 877,-66.5 877,-47.5 795,-47.5"/>
<text text-anchor="middle" x="836" y="-54.5" font-family="Helvetica,sans-Serif" font-size="10.00" fill="#000000">proj_main_loop</text>
</a>
</g>
</g>
<!-- Node63&#45;&gt;Node64 -->
<g id="edge5" class="edge">
<title>Node63&#45;&gt;Node64</title>
<path fill="none" stroke="#191970" d="M769.1908,-57C777.8339,-57 786.6179,-57 794.8531,-57"/>
<polygon fill="#191970" stroke="#191970" points="769.1506,-53.5001 759.1506,-57 769.1506,-60.5001 769.1506,-53.5001"/>
</g>
<!-- Node65&#45;&gt;Node62 -->
<g id="edge7" class="edge">
<title>Node65&#45;&gt;Node62</title>
<path fill="none" stroke="#191970" d="M514.3594,-114C522.6038,-114 531.3495,-114 539.7839,-114"/>
<polygon fill="#191970" stroke="#191970" points="514.246,-110.5001 504.246,-114 514.2459,-117.5001 514.246,-110.5001"/>
</g>
<!-- Node66&#45;&gt;Node61 -->
<g id="edge9" class="edge">
<title>Node66&#45;&gt;Node61</title>
<path fill="none" stroke="#191970" d="M418.2954,-152C427.9786,-152 437.7225,-152 446.3144,-152"/>
<polygon fill="#191970" stroke="#191970" points="418.2773,-148.5001 408.2773,-152 418.2773,-155.5001 418.2773,-148.5001"/>
</g>
<!-- Node66&#45;&gt;Node65 -->
<g id="edge10" class="edge">
<title>Node66&#45;&gt;Node65</title>
<path fill="none" stroke="#191970" d="M402.3792,-139.0282C416.9676,-133.9656 433.3917,-128.2659 446.8774,-123.5859"/>
<polygon fill="#191970" stroke="#191970" points="400.9313,-135.8259 392.6315,-142.411 403.2263,-142.439 400.9313,-135.8259"/>
</g>
<!-- Node67&#45;&gt;Node61 -->
<g id="edge12" class="edge">
<title>Node67&#45;&gt;Node61</title>
<path fill="none" stroke="#191970" d="M179.3278,-191.5804C208.376,-192.3952 249.2559,-192.7226 285,-190 340.5933,-185.7655 354.5555,-183.0141 409,-171 421.3715,-168.27 434.8439,-164.5029 446.3356,-161.0425"/>
<polygon fill="#191970" stroke="#191970" points="179.2973,-188.0778 169.1926,-191.2629 179.0781,-195.0744 179.2973,-188.0778"/>
</g>
<!-- Node67&#45;&gt;Node65 -->
<g id="edge13" class="edge">
<title>Node67&#45;&gt;Node65</title>
<path fill="none" stroke="#191970" d="M154.8687,-172.5314C166.6349,-159.1273 184.7902,-141.5207 205,-133 286.2537,-98.7424 393.5091,-104.5538 444.7556,-110.0583"/>
<polygon fill="#191970" stroke="#191970" points="152.1644,-170.3092 148.407,-180.2154 157.5219,-174.8145 152.1644,-170.3092"/>
</g>
<!-- Node67&#45;&gt;Node66 -->
<g id="edge14" class="edge">
<title>Node67&#45;&gt;Node66</title>
<path fill="none" stroke="#191970" d="M179.1639,-186.0385C208.284,-182.7564 249.3296,-177.5714 285,-171 299.1794,-168.3878 314.6227,-164.8793 328.1256,-161.5884"/>
<polygon fill="#191970" stroke="#191970" points="178.5623,-182.5836 169.0071,-187.1606 179.331,-189.5412 178.5623,-182.5836"/>
</g>
<!-- Node68 -->
<g id="node10" class="node">
<title>Node68</title>
<g id="a_node10"><a xlink:href="game_8h.html#afb1a61b5802eed643536ce45225d2000" target="_top" xlink:title="Randomly fires upon player&#39;s boats using a state machine to simulate a strategy In case of a hit the ...">
<polygon fill="#ffffff" stroke="#000000" points="323.5,-256.5 323.5,-275.5 406.5,-275.5 406.5,-256.5 323.5,-256.5"/>
<text text-anchor="middle" x="365" y="-263.5" font-family="Helvetica,sans-Serif" font-size="10.00" fill="#000000">game_round_ai</text>
</a>
</g>
</g>
<!-- Node67&#45;&gt;Node68 -->
<g id="edge15" class="edge">
<title>Node67&#45;&gt;Node68</title>
<path fill="none" stroke="#191970" d="M147.5636,-209.2101C156.5236,-232.0358 174.9912,-269.0332 205,-285 250.3152,-309.111 312.8744,-288.8945 344.6739,-275.5099"/>
<polygon fill="#191970" stroke="#191970" points="150.7542,-207.7457 144.0139,-199.5714 144.1855,-210.1649 150.7542,-207.7457"/>
</g>
<!-- Node69 -->
<g id="node11" class="node">
<title>Node69</title>
<g id="a_node11"><a xlink:href="game_8h.html#a428e51196f5847d0e5e50822aa1c9716" target="_top" xlink:title="displays the end game screen (lost) ">
<polygon fill="#ffffff" stroke="#000000" points="205,-256.5 205,-275.5 285,-275.5 285,-256.5 205,-256.5"/>
<text text-anchor="middle" x="245" y="-263.5" font-family="Helvetica,sans-Serif" font-size="10.00" fill="#000000">game_over_sp</text>
</a>
</g>
</g>
<!-- Node67&#45;&gt;Node69 -->
<g id="edge17" class="edge">
<title>Node67&#45;&gt;Node69</title>
<path fill="none" stroke="#191970" d="M159.8053,-206.4638C172.2728,-217.0781 189.1884,-230.9168 205,-242 212.2948,-247.1133 220.7058,-252.2635 227.9271,-256.4749"/>
<polygon fill="#191970" stroke="#191970" points="161.8151,-203.5757 151.9529,-199.7041 157.2482,-208.8808 161.8151,-203.5757"/>
</g>
<!-- Node70 -->
<g id="node12" class="node">
<title>Node70</title>
<g id="a_node12"><a xlink:href="game_8h.html#a0ecf3df63f0053cd3177ad9dd3716b54" target="_top" xlink:title="displays the end game screen (won) ">
<polygon fill="#ffffff" stroke="#000000" points="214.5,-142.5 214.5,-161.5 275.5,-161.5 275.5,-142.5 214.5,-142.5"/>
<text text-anchor="middle" x="245" y="-149.5" font-family="Helvetica,sans-Serif" font-size="10.00" fill="#000000">winner_sp</text>
</a>
</g>
</g>
<!-- Node67&#45;&gt;Node70 -->
<g id="edge19" class="edge">
<title>Node67&#45;&gt;Node70</title>
<path fill="none" stroke="#191970" d="M176.9019,-176.882C190.6571,-171.8561 206.0796,-166.2209 218.7648,-161.5859"/>
<polygon fill="#191970" stroke="#191970" points="175.435,-173.6916 167.2436,-180.411 177.8374,-180.2664 175.435,-173.6916"/>
</g>
<!-- Node68&#45;&gt;Node61 -->
<g id="edge16" class="edge">
<title>Node68&#45;&gt;Node61</title>
<path fill="none" stroke="#191970" d="M396.0473,-251.355C400.6177,-248.5633 405.0951,-245.4284 409,-242 436.7372,-217.6476 459.5463,-179.5345 469.3408,-161.7502"/>
<polygon fill="#191970" stroke="#191970" points="394.2729,-248.3373 387.2699,-256.2877 397.7023,-254.4397 394.2729,-248.3373"/>
</g>
<!-- Node69&#45;&gt;Node68 -->
<g id="edge18" class="edge">
<title>Node69&#45;&gt;Node68</title>
<path fill="none" stroke="#191970" d="M295.5739,-266C304.8395,-266 314.4127,-266 323.3797,-266"/>
<polygon fill="#191970" stroke="#191970" points="295.2921,-262.5001 285.2921,-266 295.2921,-269.5001 295.2921,-262.5001"/>
</g>
<!-- Node70&#45;&gt;Node66 -->
<g id="edge20" class="edge">
<title>Node70&#45;&gt;Node66</title>
<path fill="none" stroke="#191970" d="M285.8666,-152C297.4419,-152 310.0783,-152 321.7872,-152"/>
<polygon fill="#191970" stroke="#191970" points="285.5916,-148.5001 275.5916,-152 285.5915,-155.5001 285.5916,-148.5001"/>
</g>
<!-- Node71&#45;&gt;Node63 -->
<g id="edge23" class="edge">
<title>Node71&#45;&gt;Node63</title>
<path fill="none" stroke="#191970" d="M616.1557,-35.7322C632.1403,-39.2426 651.9658,-43.5964 669.5076,-47.4487"/>
<polygon fill="#191970" stroke="#191970" points="616.7869,-32.2875 606.2688,-33.561 615.2853,-39.1246 616.7869,-32.2875"/>
</g>
<!-- Node71&#45;&gt;Node71 -->
<g id="edge22" class="edge">
<title>Node71&#45;&gt;Node71</title>
<path fill="none" stroke="#191970" d="M565.1306,-48.4C566.491,-53.3146 573.2808,-57 585.5,-57 605.0508,-57 610.7022,-47.5653 602.4542,-38.7571"/>
<polygon fill="#191970" stroke="#191970" points="568.5065,-49.3518 568.5458,-38.7571 561.9081,-47.0149 568.5065,-49.3518"/>
</g>
</g>
</svg>
