<?xml version="1.0" encoding="UTF-8" standalone="no"?>
<!DOCTYPE svg PUBLIC "-//W3C//DTD SVG 1.1//EN"
 "http://www.w3.org/Graphics/SVG/1.1/DTD/svg11.dtd">
<!-- Generated by graphviz version 2.40.1 (20161225.0304)
 -->
<!-- Title: disable_components Pages: 1 -->
<svg width="417pt" height="104pt"
 viewBox="0.00 0.00 417.00 104.00" xmlns="http://www.w3.org/2000/svg" xmlns:xlink="http://www.w3.org/1999/xlink">
<g id="graph0" class="graph" transform="scale(1 1) rotate(0) translate(4 100)">
<title>disable_components</title>
<polygon fill="#ffffff" stroke="transparent" points="-4,4 -4,-100 413,-100 413,4 -4,4"/>
<!-- Node0 -->
<g id="node1" class="node">
<title>Node0</title>
<polygon fill="#bfbfbf" stroke="#000000" points="0,-38.5 0,-57.5 106,-57.5 106,-38.5 0,-38.5"/>
<text text-anchor="middle" x="53" y="-45.5" font-family="Helvetica,sans-Serif" font-size="10.00" fill="#000000">disable_components</text>
</g>
<!-- Node1 -->
<g id="node2" class="node">
<title>Node1</title>
<g id="a_node2"><a xlink:href="mouse_8c.html#a6ede28d071933c1edc8c745753d592ea" target="_top" xlink:title="Unsubscribe mouse interrupts. ">
<polygon fill="#ffffff" stroke="#000000" points="151,-76.5 151,-95.5 270,-95.5 270,-76.5 151,-76.5"/>
<text text-anchor="middle" x="210.5" y="-83.5" font-family="Helvetica,sans-Serif" font-size="10.00" fill="#000000">mouse_unsubscribe_int</text>
</a>
</g>
</g>
<!-- Node0&#45;&gt;Node1 -->
<g id="edge1" class="edge">
<title>Node0&#45;&gt;Node1</title>
<path fill="none" stroke="#191970" d="M92.7439,-57.589C113.5277,-62.6035 139.1611,-68.7881 161.1995,-74.1053"/>
<polygon fill="#191970" stroke="#191970" points="160.4999,-77.5368 171.0419,-76.4799 162.1417,-70.7321 160.4999,-77.5368"/>
</g>
<!-- Node3 -->
<g id="node4" class="node">
<title>Node3</title>
<g id="a_node4"><a xlink:href="kbd_8c.html#ae2e01c45406a9284d43daa9684fae8dc" target="_top" xlink:title="Unsubscribe keyboard interruption. ">
<polygon fill="#ffffff" stroke="#000000" points="157.5,-38.5 157.5,-57.5 263.5,-57.5 263.5,-38.5 157.5,-38.5"/>
<text text-anchor="middle" x="210.5" y="-45.5" font-family="Helvetica,sans-Serif" font-size="10.00" fill="#000000">kbd_unsubscribe_int</text>
</a>
</g>
</g>
<!-- Node0&#45;&gt;Node3 -->
<g id="edge3" class="edge">
<title>Node0&#45;&gt;Node3</title>
<path fill="none" stroke="#191970" d="M106.3223,-48C119.4074,-48 133.5418,-48 147.0513,-48"/>
<polygon fill="#191970" stroke="#191970" points="147.2326,-51.5001 157.2326,-48 147.2326,-44.5001 147.2326,-51.5001"/>
</g>
<!-- Node4 -->
<g id="node5" class="node">
<title>Node4</title>
<g id="a_node5"><a xlink:href="timer_8c.html#a8aef1401cd2656969d7f8b1ee72dafb9" target="_top" xlink:title="Unsubscribes timer interruptions. ">
<polygon fill="#ffffff" stroke="#000000" points="142,-.5 142,-19.5 279,-19.5 279,-.5 142,-.5"/>
<text text-anchor="middle" x="210.5" y="-7.5" font-family="Helvetica,sans-Serif" font-size="10.00" fill="#000000">timer_unsubscribe_interrupt</text>
</a>
</g>
</g>
<!-- Node0&#45;&gt;Node4 -->
<g id="edge4" class="edge">
<title>Node0&#45;&gt;Node4</title>
<path fill="none" stroke="#191970" d="M92.7439,-38.411C113.5277,-33.3965 139.1611,-27.2119 161.1995,-21.8947"/>
<polygon fill="#191970" stroke="#191970" points="162.1417,-25.2679 171.0419,-19.5201 160.4999,-18.4632 162.1417,-25.2679"/>
</g>
<!-- Node2 -->
<g id="node3" class="node">
<title>Node2</title>
<g id="a_node3"><a xlink:href="mouse_8c.html#adbcbd37b59e476b1872dc37801bc4f15" target="_top" xlink:title="Sends a command to the STAT_REG. ">
<polygon fill="#ffffff" stroke="#000000" points="315,-76.5 315,-95.5 409,-95.5 409,-76.5 315,-76.5"/>
<text text-anchor="middle" x="362" y="-83.5" font-family="Helvetica,sans-Serif" font-size="10.00" fill="#000000">mouse_command</text>
</a>
</g>
</g>
<!-- Node1&#45;&gt;Node2 -->
<g id="edge2" class="edge">
<title>Node1&#45;&gt;Node2</title>
<path fill="none" stroke="#191970" d="M270.3768,-86C281.6485,-86 293.411,-86 304.6046,-86"/>
<polygon fill="#191970" stroke="#191970" points="304.6941,-89.5001 314.6941,-86 304.6941,-82.5001 304.6941,-89.5001"/>
</g>
</g>
</svg>
