<?xml version="1.0" encoding="UTF-8" standalone="no"?>
<!DOCTYPE svg PUBLIC "-//W3C//DTD SVG 1.1//EN"
 "http://www.w3.org/Graphics/SVG/1.1/DTD/svg11.dtd">
<!-- Generated by graphviz version 2.40.1 (20161225.0304)
 -->
<!-- Title: init_int_data Pages: 1 -->
<svg width="990pt" height="305pt"
 viewBox="0.00 0.00 990.00 304.86" xmlns="http://www.w3.org/2000/svg" xmlns:xlink="http://www.w3.org/1999/xlink">
<g id="graph0" class="graph" transform="scale(1 1) rotate(0) translate(4 300.8574)">
<title>init_int_data</title>
<polygon fill="#ffffff" stroke="transparent" points="-4,4 -4,-300.8574 986,-300.8574 986,4 -4,4"/>
<!-- Node35 -->
<g id="node1" class="node">
<title>Node35</title>
<polygon fill="#bfbfbf" stroke="#000000" points="0,-47.5 0,-66.5 69,-66.5 69,-47.5 0,-47.5"/>
<text text-anchor="middle" x="34.5" y="-54.5" font-family="Helvetica,sans-Serif" font-size="10.00" fill="#000000">init_int_data</text>
</g>
<!-- Node36 -->
<g id="node2" class="node">
<title>Node36</title>
<g id="a_node2"><a xlink:href="interrupt__cicle_8h.html#a0718d5c75848a080a2122df6548d2422" target="_top" xlink:title="Receives and handles interruptions from the necessary modules. ">
<polygon fill="#ffffff" stroke="#000000" points="105,-47.5 105,-66.5 182,-66.5 182,-47.5 105,-47.5"/>
<text text-anchor="middle" x="143.5" y="-54.5" font-family="Helvetica,sans-Serif" font-size="10.00" fill="#000000">interrupt_cicle</text>
</a>
</g>
</g>
<!-- Node35&#45;&gt;Node36 -->
<g id="edge1" class="edge">
<title>Node35&#45;&gt;Node36</title>
<path fill="none" stroke="#191970" d="M79.3939,-57C87.8555,-57 96.6362,-57 104.8849,-57"/>
<polygon fill="#191970" stroke="#191970" points="79.288,-53.5001 69.288,-57 79.2879,-60.5001 79.288,-53.5001"/>
</g>
<!-- Node37 -->
<g id="node3" class="node">
<title>Node37</title>
<g id="a_node3"><a xlink:href="game_8h.html#a382ed7c0cb3201c13d4396ad9afc5a3e" target="_top" xlink:title="Lets the player initialize the board unsign a graphical interface 10 boats must be positioned before ...">
<polygon fill="#ffffff" stroke="#000000" points="426,-66.5 426,-85.5 514,-85.5 514,-66.5 426,-66.5"/>
<text text-anchor="middle" x="470" y="-73.5" font-family="Helvetica,sans-Serif" font-size="10.00" fill="#000000">game_init_board</text>
</a>
</g>
</g>
<!-- Node36&#45;&gt;Node37 -->
<g id="edge2" class="edge">
<title>Node36&#45;&gt;Node37</title>
<path fill="none" stroke="#191970" d="M192.1974,-55.7983C242.0137,-55.0823 321.5878,-55.3595 390,-62 401.6482,-63.1307 414.1527,-64.9998 425.7338,-67.0097"/>
<polygon fill="#191970" stroke="#191970" points="191.9751,-52.3014 182.0336,-55.9643 192.0894,-59.3005 191.9751,-52.3014"/>
</g>
<!-- Node43 -->
<g id="node9" class="node">
<title>Node43</title>
<g id="a_node9"><a xlink:href="game_8h.html#aaeeee1282b90aa12468a1862c7871ee4" target="_top" xlink:title="Lets the player fire against the enemy&#39;s boats using a graphical interface Shows previously hit cells...">
<polygon fill="#ffffff" stroke="#000000" points="427,-142.5 427,-161.5 513,-161.5 513,-142.5 427,-142.5"/>
<text text-anchor="middle" x="470" y="-149.5" font-family="Helvetica,sans-Serif" font-size="10.00" fill="#000000">game_round_sp</text>
</a>
</g>
</g>
<!-- Node36&#45;&gt;Node43 -->
<g id="edge9" class="edge">
<title>Node36&#45;&gt;Node43</title>
<path fill="none" stroke="#191970" d="M185.9747,-69.3586C251.9676,-88.5602 377.7107,-125.1471 437.2208,-142.4624"/>
<polygon fill="#191970" stroke="#191970" points="186.8806,-65.9772 176.301,-66.5439 184.9249,-72.6984 186.8806,-65.9772"/>
</g>
<!-- Node44 -->
<g id="node10" class="node">
<title>Node44</title>
<g id="a_node10"><a xlink:href="game_8h.html#abdd70639378b19cfc929273ef7b4ff45" target="_top" xlink:title="Uses timer interruptions to wait a predetermined time. ">
<polygon fill="#ffffff" stroke="#000000" points="218,-180.5 218,-199.5 274,-199.5 274,-180.5 218,-180.5"/>
<text text-anchor="middle" x="246" y="-187.5" font-family="Helvetica,sans-Serif" font-size="10.00" fill="#000000">idle_time</text>
</a>
</g>
</g>
<!-- Node36&#45;&gt;Node44 -->
<g id="edge12" class="edge">
<title>Node36&#45;&gt;Node44</title>
<path fill="none" stroke="#191970" d="M157.2109,-74.7907C179.1027,-103.1967 221.2315,-157.8614 238.4187,-180.1628"/>
<polygon fill="#191970" stroke="#191970" points="159.7481,-72.3492 150.8715,-66.565 154.2036,-76.6223 159.7481,-72.3492"/>
</g>
<!-- Node48 -->
<g id="node14" class="node">
<title>Node48</title>
<g id="a_node14"><a xlink:href="menu_8h.html#a4cc4e9de5c448babdb711586dd12bec0" target="_top" xlink:title="graphical interface for the main menu ">
<polygon fill="#ffffff" stroke="#000000" points="670,-19.5 670,-38.5 711,-38.5 711,-19.5 670,-19.5"/>
<text text-anchor="middle" x="690.5" y="-26.5" font-family="Helvetica,sans-Serif" font-size="10.00" fill="#000000">menu</text>
</a>
</g>
</g>
<!-- Node36&#45;&gt;Node48 -->
<g id="edge22" class="edge">
<title>Node36&#45;&gt;Node48</title>
<path fill="none" stroke="#191970" d="M173.0963,-43.4037C212.5687,-26.5435 285.0284,0 350,0 350,0 350,0 470,0 544.133,0 631.0977,-16.3125 669.9468,-24.4688"/>
<polygon fill="#191970" stroke="#191970" points="171.5634,-40.2537 163.7963,-47.4595 174.3617,-46.6701 171.5634,-40.2537"/>
</g>
<!-- Node38 -->
<g id="node4" class="node">
<title>Node38</title>
<g id="a_node4"><a xlink:href="game_8h.html#aff1f849979a9ca10d6ff2bce0dfb7fd5" target="_top" xlink:title="Single Player Iniciates the boards from the respective players Starts the game loop (1 turn per playe...">
<polygon fill="#ffffff" stroke="#000000" points="551.5,-142.5 551.5,-161.5 607.5,-161.5 607.5,-142.5 551.5,-142.5"/>
<text text-anchor="middle" x="579.5" y="-149.5" font-family="Helvetica,sans-Serif" font-size="10.00" fill="#000000">game_sp</text>
</a>
</g>
</g>
<!-- Node37&#45;&gt;Node38 -->
<g id="edge3" class="edge">
<title>Node37&#45;&gt;Node38</title>
<path fill="none" stroke="#191970" d="M491.3378,-91.6151C507.3446,-103.228 529.8701,-119.3571 550,-133 554.6394,-136.1443 559.7542,-139.4825 564.4034,-142.4691"/>
<polygon fill="#191970" stroke="#191970" points="493.3173,-88.727 483.1723,-85.6726 489.1983,-94.3869 493.3173,-88.727"/>
</g>
<!-- Node42 -->
<g id="node8" class="node">
<title>Node42</title>
<g id="a_node8"><a xlink:href="game_8h.html#a03f40ddf75045683b3f488d4839937ab" target="_top" xlink:title="Multiplayer. ">
<polygon fill="#ffffff" stroke="#000000" points="550,-104.5 550,-123.5 609,-123.5 609,-104.5 550,-104.5"/>
<text text-anchor="middle" x="579.5" y="-111.5" font-family="Helvetica,sans-Serif" font-size="10.00" fill="#000000">game_mp</text>
</a>
</g>
</g>
<!-- Node37&#45;&gt;Node42 -->
<g id="edge7" class="edge">
<title>Node37&#45;&gt;Node42</title>
<path fill="none" stroke="#191970" d="M507.3792,-88.9718C521.9676,-94.0344 538.3917,-99.7341 551.8774,-104.4141"/>
<polygon fill="#191970" stroke="#191970" points="508.2263,-85.561 497.6315,-85.589 505.9313,-92.1741 508.2263,-85.561"/>
</g>
<!-- Node39 -->
<g id="node5" class="node">
<title>Node39</title>
<g id="a_node5"><a xlink:href="menu_8h.html#a95c8dcba38d720d3e4bd6fcf9a8ee279" target="_top" xlink:title="selects a menu option ">
<polygon fill="#ffffff" stroke="#000000" points="645,-104.5 645,-123.5 736,-123.5 736,-104.5 645,-104.5"/>
<text text-anchor="middle" x="690.5" y="-111.5" font-family="Helvetica,sans-Serif" font-size="10.00" fill="#000000">select_menu_opt</text>
</a>
</g>
</g>
<!-- Node38&#45;&gt;Node39 -->
<g id="edge4" class="edge">
<title>Node38&#45;&gt;Node39</title>
<path fill="none" stroke="#191970" d="M617.3913,-139.0282C632.1795,-133.9656 648.8285,-128.2659 662.499,-123.5859"/>
<polygon fill="#191970" stroke="#191970" points="615.8373,-135.8607 607.51,-142.411 618.1046,-142.4834 615.8373,-135.8607"/>
</g>
<!-- Node40 -->
<g id="node6" class="node">
<title>Node40</title>
<g id="a_node6"><a xlink:href="menu_8h.html#a6ed6ac9188a15c74b9d07d12b34397c0" target="_top" xlink:title="Subscribes interruptions of the necessary modules Calls main menu and game functions. ">
<polygon fill="#ffffff" stroke="#000000" points="772,-47.5 772,-66.5 864,-66.5 864,-47.5 772,-47.5"/>
<text text-anchor="middle" x="818" y="-54.5" font-family="Helvetica,sans-Serif" font-size="10.00" fill="#000000">game_main_cicle</text>
</a>
</g>
</g>
<!-- Node39&#45;&gt;Node40 -->
<g id="edge5" class="edge">
<title>Node39&#45;&gt;Node40</title>
<path fill="none" stroke="#191970" d="M721.2731,-100.2426C744.5688,-89.8281 775.9716,-75.7892 796.5897,-66.5716"/>
<polygon fill="#191970" stroke="#191970" points="719.5414,-97.1829 711.8406,-104.4595 722.3984,-103.5734 719.5414,-97.1829"/>
</g>
<!-- Node41 -->
<g id="node7" class="node">
<title>Node41</title>
<g id="a_node7"><a xlink:href="proj_8c.html#a2a16f651eccbd248e1ad3b3b924b143b" target="_top" xlink:title="proj_main_loop">
<polygon fill="#ffffff" stroke="#000000" points="900,-47.5 900,-66.5 982,-66.5 982,-47.5 900,-47.5"/>
<text text-anchor="middle" x="941" y="-54.5" font-family="Helvetica,sans-Serif" font-size="10.00" fill="#000000">proj_main_loop</text>
</a>
</g>
</g>
<!-- Node40&#45;&gt;Node41 -->
<g id="edge6" class="edge">
<title>Node40&#45;&gt;Node41</title>
<path fill="none" stroke="#191970" d="M874.1908,-57C882.8339,-57 891.6179,-57 899.8531,-57"/>
<polygon fill="#191970" stroke="#191970" points="874.1506,-53.5001 864.1506,-57 874.1506,-60.5001 874.1506,-53.5001"/>
</g>
<!-- Node42&#45;&gt;Node39 -->
<g id="edge8" class="edge">
<title>Node42&#45;&gt;Node39</title>
<path fill="none" stroke="#191970" d="M619.3594,-114C627.6038,-114 636.3495,-114 644.7839,-114"/>
<polygon fill="#191970" stroke="#191970" points="619.246,-110.5001 609.246,-114 619.2459,-117.5001 619.246,-110.5001"/>
</g>
<!-- Node43&#45;&gt;Node38 -->
<g id="edge10" class="edge">
<title>Node43&#45;&gt;Node38</title>
<path fill="none" stroke="#191970" d="M523.2954,-152C532.9786,-152 542.7225,-152 551.3144,-152"/>
<polygon fill="#191970" stroke="#191970" points="523.2773,-148.5001 513.2773,-152 523.2773,-155.5001 523.2773,-148.5001"/>
</g>
<!-- Node43&#45;&gt;Node42 -->
<g id="edge11" class="edge">
<title>Node43&#45;&gt;Node42</title>
<path fill="none" stroke="#191970" d="M507.3792,-139.0282C521.9676,-133.9656 538.3917,-128.2659 551.8774,-123.5859"/>
<polygon fill="#191970" stroke="#191970" points="505.9313,-135.8259 497.6315,-142.411 508.2263,-142.439 505.9313,-135.8259"/>
</g>
<!-- Node44&#45;&gt;Node38 -->
<g id="edge13" class="edge">
<title>Node44&#45;&gt;Node38</title>
<path fill="none" stroke="#191970" d="M284.3278,-191.5804C313.376,-192.3952 354.2559,-192.7226 390,-190 445.5933,-185.7655 459.5555,-183.0141 514,-171 526.3715,-168.27 539.8439,-164.5029 551.3356,-161.0425"/>
<polygon fill="#191970" stroke="#191970" points="284.2973,-188.0778 274.1926,-191.2629 284.0781,-195.0744 284.2973,-188.0778"/>
</g>
<!-- Node44&#45;&gt;Node42 -->
<g id="edge14" class="edge">
<title>Node44&#45;&gt;Node42</title>
<path fill="none" stroke="#191970" d="M259.8687,-172.5314C271.6349,-159.1273 289.7902,-141.5207 310,-133 391.2537,-98.7424 498.5091,-104.5538 549.7556,-110.0583"/>
<polygon fill="#191970" stroke="#191970" points="257.1644,-170.3092 253.407,-180.2154 262.5219,-174.8145 257.1644,-170.3092"/>
</g>
<!-- Node44&#45;&gt;Node43 -->
<g id="edge15" class="edge">
<title>Node44&#45;&gt;Node43</title>
<path fill="none" stroke="#191970" d="M284.1639,-186.0385C313.284,-182.7564 354.3296,-177.5714 390,-171 404.1794,-168.3878 419.6227,-164.8793 433.1256,-161.5884"/>
<polygon fill="#191970" stroke="#191970" points="283.5623,-182.5836 274.0071,-187.1606 284.331,-189.5412 283.5623,-182.5836"/>
</g>
<!-- Node45 -->
<g id="node11" class="node">
<title>Node45</title>
<g id="a_node11"><a xlink:href="game_8h.html#afb1a61b5802eed643536ce45225d2000" target="_top" xlink:title="Randomly fires upon player&#39;s boats using a state machine to simulate a strategy In case of a hit the ...">
<polygon fill="#ffffff" stroke="#000000" points="428.5,-256.5 428.5,-275.5 511.5,-275.5 511.5,-256.5 428.5,-256.5"/>
<text text-anchor="middle" x="470" y="-263.5" font-family="Helvetica,sans-Serif" font-size="10.00" fill="#000000">game_round_ai</text>
</a>
</g>
</g>
<!-- Node44&#45;&gt;Node45 -->
<g id="edge16" class="edge">
<title>Node44&#45;&gt;Node45</title>
<path fill="none" stroke="#191970" d="M252.5636,-209.2101C261.5236,-232.0358 279.9912,-269.0332 310,-285 355.3152,-309.111 417.8744,-288.8945 449.6739,-275.5099"/>
<polygon fill="#191970" stroke="#191970" points="255.7542,-207.7457 249.0139,-199.5714 249.1855,-210.1649 255.7542,-207.7457"/>
</g>
<!-- Node46 -->
<g id="node12" class="node">
<title>Node46</title>
<g id="a_node12"><a xlink:href="game_8h.html#a428e51196f5847d0e5e50822aa1c9716" target="_top" xlink:title="displays the end game screen (lost) ">
<polygon fill="#ffffff" stroke="#000000" points="310,-256.5 310,-275.5 390,-275.5 390,-256.5 310,-256.5"/>
<text text-anchor="middle" x="350" y="-263.5" font-family="Helvetica,sans-Serif" font-size="10.00" fill="#000000">game_over_sp</text>
</a>
</g>
</g>
<!-- Node44&#45;&gt;Node46 -->
<g id="edge18" class="edge">
<title>Node44&#45;&gt;Node46</title>
<path fill="none" stroke="#191970" d="M264.8053,-206.4638C277.2728,-217.0781 294.1884,-230.9168 310,-242 317.2948,-247.1133 325.7058,-252.2635 332.9271,-256.4749"/>
<polygon fill="#191970" stroke="#191970" points="266.8151,-203.5757 256.9529,-199.7041 262.2482,-208.8808 266.8151,-203.5757"/>
</g>
<!-- Node47 -->
<g id="node13" class="node">
<title>Node47</title>
<g id="a_node13"><a xlink:href="game_8h.html#a0ecf3df63f0053cd3177ad9dd3716b54" target="_top" xlink:title="displays the end game screen (won) ">
<polygon fill="#ffffff" stroke="#000000" points="319.5,-142.5 319.5,-161.5 380.5,-161.5 380.5,-142.5 319.5,-142.5"/>
<text text-anchor="middle" x="350" y="-149.5" font-family="Helvetica,sans-Serif" font-size="10.00" fill="#000000">winner_sp</text>
</a>
</g>
</g>
<!-- Node44&#45;&gt;Node47 -->
<g id="edge20" class="edge">
<title>Node44&#45;&gt;Node47</title>
<path fill="none" stroke="#191970" d="M281.9019,-176.882C295.6571,-171.8561 311.0796,-166.2209 323.7648,-161.5859"/>
<polygon fill="#191970" stroke="#191970" points="280.435,-173.6916 272.2436,-180.411 282.8374,-180.2664 280.435,-173.6916"/>
</g>
<!-- Node45&#45;&gt;Node38 -->
<g id="edge17" class="edge">
<title>Node45&#45;&gt;Node38</title>
<path fill="none" stroke="#191970" d="M501.0473,-251.355C505.6177,-248.5633 510.0951,-245.4284 514,-242 541.7372,-217.6476 564.5463,-179.5345 574.3408,-161.7502"/>
<polygon fill="#191970" stroke="#191970" points="499.2729,-248.3373 492.2699,-256.2877 502.7023,-254.4397 499.2729,-248.3373"/>
</g>
<!-- Node46&#45;&gt;Node45 -->
<g id="edge19" class="edge">
<title>Node46&#45;&gt;Node45</title>
<path fill="none" stroke="#191970" d="M400.5739,-266C409.8395,-266 419.4127,-266 428.3797,-266"/>
<polygon fill="#191970" stroke="#191970" points="400.2921,-262.5001 390.2921,-266 400.2921,-269.5001 400.2921,-262.5001"/>
</g>
<!-- Node47&#45;&gt;Node43 -->
<g id="edge21" class="edge">
<title>Node47&#45;&gt;Node43</title>
<path fill="none" stroke="#191970" d="M390.8666,-152C402.4419,-152 415.0783,-152 426.7872,-152"/>
<polygon fill="#191970" stroke="#191970" points="390.5916,-148.5001 380.5916,-152 390.5915,-155.5001 390.5916,-148.5001"/>
</g>
<!-- Node48&#45;&gt;Node40 -->
<g id="edge24" class="edge">
<title>Node48&#45;&gt;Node40</title>
<path fill="none" stroke="#191970" d="M721.1557,-35.7322C737.1403,-39.2426 756.9658,-43.5964 774.5076,-47.4487"/>
<polygon fill="#191970" stroke="#191970" points="721.7869,-32.2875 711.2688,-33.561 720.2853,-39.1246 721.7869,-32.2875"/>
</g>
<!-- Node48&#45;&gt;Node48 -->
<g id="edge23" class="edge">
<title>Node48&#45;&gt;Node48</title>
<path fill="none" stroke="#191970" d="M670.1306,-48.4C671.491,-53.3146 678.2808,-57 690.5,-57 710.0508,-57 715.7022,-47.5653 707.4542,-38.7571"/>
<polygon fill="#191970" stroke="#191970" points="673.5065,-49.3518 673.5458,-38.7571 666.9081,-47.0149 673.5065,-49.3518"/>
</g>
</g>
</svg>
