<?xml version="1.0" encoding="UTF-8" standalone="no"?>
<!DOCTYPE svg PUBLIC "-//W3C//DTD SVG 1.1//EN"
 "http://www.w3.org/Graphics/SVG/1.1/DTD/svg11.dtd">
<!-- Generated by graphviz version 2.40.1 (20161225.0304)
 -->
<!-- Title: init_int_data Pages: 1 -->
<svg width="191pt" height="104pt"
 viewBox="0.00 0.00 191.00 104.00" xmlns="http://www.w3.org/2000/svg" xmlns:xlink="http://www.w3.org/1999/xlink">
<g id="graph0" class="graph" transform="scale(1 1) rotate(0) translate(4 100)">
<title>init_int_data</title>
<polygon fill="#ffffff" stroke="transparent" points="-4,4 -4,-100 187,-100 187,4 -4,4"/>
<!-- Node31 -->
<g id="node1" class="node">
<title>Node31</title>
<polygon fill="#bfbfbf" stroke="#000000" points="0,-38.5 0,-57.5 69,-57.5 69,-38.5 0,-38.5"/>
<text text-anchor="middle" x="34.5" y="-45.5" font-family="Helvetica,sans-Serif" font-size="10.00" fill="#000000">init_int_data</text>
</g>
<!-- Node32 -->
<g id="node2" class="node">
<title>Node32</title>
<g id="a_node2"><a xlink:href="mouse_8c.html#a56a5da7f70edb0bb5db9910981ef65f9" target="_top" xlink:title="Get packet struct. ">
<polygon fill="#ffffff" stroke="#000000" points="111.5,-76.5 111.5,-95.5 176.5,-95.5 176.5,-76.5 111.5,-76.5"/>
<text text-anchor="middle" x="144" y="-83.5" font-family="Helvetica,sans-Serif" font-size="10.00" fill="#000000">get_packet</text>
</a>
</g>
</g>
<!-- Node31&#45;&gt;Node32 -->
<g id="edge1" class="edge">
<title>Node31&#45;&gt;Node32</title>
<path fill="none" stroke="#191970" d="M62.1315,-57.589C75.6185,-62.2694 92.0427,-67.9692 106.6303,-73.0315"/>
<polygon fill="#191970" stroke="#191970" points="105.7826,-76.442 116.3774,-76.4141 108.0776,-69.8289 105.7826,-76.442"/>
</g>
<!-- Node33 -->
<g id="node3" class="node">
<title>Node33</title>
<g id="a_node3"><a xlink:href="mouse_8c.html#a4a11876c724ae443363cf5971f1558e7" target="_top" xlink:title="Empties a mouse packet. ">
<polygon fill="#ffffff" stroke="#000000" points="105,-38.5 105,-57.5 183,-57.5 183,-38.5 105,-38.5"/>
<text text-anchor="middle" x="144" y="-45.5" font-family="Helvetica,sans-Serif" font-size="10.00" fill="#000000">empty_packet</text>
</a>
</g>
</g>
<!-- Node31&#45;&gt;Node33 -->
<g id="edge2" class="edge">
<title>Node31&#45;&gt;Node33</title>
<path fill="none" stroke="#191970" d="M69.1465,-48C77.1645,-48 85.8506,-48 94.3699,-48"/>
<polygon fill="#191970" stroke="#191970" points="94.6227,-51.5001 104.6227,-48 94.6227,-44.5001 94.6227,-51.5001"/>
</g>
<!-- Node34 -->
<g id="node4" class="node">
<title>Node34</title>
<g id="a_node4"><a xlink:href="kbd_8c.html#aabe32d3d3ebb9ccff7ca4b7992f48209" target="_top" xlink:title="Get the scancode. ">
<polygon fill="#ffffff" stroke="#000000" points="105.5,-.5 105.5,-19.5 182.5,-19.5 182.5,-.5 105.5,-.5"/>
<text text-anchor="middle" x="144" y="-7.5" font-family="Helvetica,sans-Serif" font-size="10.00" fill="#000000">get_scancode</text>
</a>
</g>
</g>
<!-- Node31&#45;&gt;Node34 -->
<g id="edge3" class="edge">
<title>Node31&#45;&gt;Node34</title>
<path fill="none" stroke="#191970" d="M62.1315,-38.411C75.6185,-33.7306 92.0427,-28.0308 106.6303,-22.9685"/>
<polygon fill="#191970" stroke="#191970" points="108.0776,-26.1711 116.3774,-19.5859 105.7826,-19.558 108.0776,-26.1711"/>
</g>
</g>
</svg>
