<?xml version="1.0" encoding="UTF-8" standalone="no"?>
<!DOCTYPE svg PUBLIC "-//W3C//DTD SVG 1.1//EN"
 "http://www.w3.org/Graphics/SVG/1.1/DTD/svg11.dtd">
<!-- Generated by graphviz version 2.40.1 (20161225.0304)
 -->
<!-- Title: get_int_data Pages: 1 -->
<!--zoomable 335 -->
<svg id="main" version="1.1" xmlns="http://www.w3.org/2000/svg" xmlns:xlink="http://www.w3.org/1999/xlink" xml:space="preserve" onload="init(evt)">
<style type="text/css"><![CDATA[
.edge:hover path { stroke: red; }
.edge:hover polygon { stroke: red; fill: red; }
]]></style>
<script type="text/javascript"><![CDATA[
var edges = document.getElementsByTagName('g');
if (edges && edges.length) {
  for (var i=0;i<edges.length;i++) {
    if (edges[i].id.substr(0,4)=='edge') {
      edges[i].setAttribute('class','edge');
    }
  }
}
]]></script>
        <defs>
                <circle id="rim" cx="0" cy="0" r="7"/>
                <circle id="rim2" cx="0" cy="0" r="3.5"/>
                <g id="zoomPlus">
                        <use xlink:href="#rim" fill="#404040">
                                <set attributeName="fill" to="#808080" begin="zoomplus.mouseover" end="zoomplus.mouseout"/>
                        </use>
                        <path d="M-4,0h8M0,-4v8" fill="none" stroke="white" stroke-width="1.5" pointer-events="none"/>
                </g>
                <g id="zoomMin">
                        <use xlink:href="#rim" fill="#404040">
                                <set attributeName="fill" to="#808080" begin="zoomminus.mouseover" end="zoomminus.mouseout"/>
                        </use>
                        <path d="M-4,0h8" fill="none" stroke="white" stroke-width="1.5" pointer-events="none"/>
                </g>
                <g id="dirArrow">
                        <path fill="none" stroke="white" stroke-width="1.5" d="M0,-3.0v7 M-2.5,-0.5L0,-3.0L2.5,-0.5"/>
                </g>
               <g id="resetDef">
                       <use xlink:href="#rim2" fill="#404040">
                               <set attributeName="fill" to="#808080" begin="reset.mouseover" end="reset.mouseout"/>
                       </use>
               </g>
        </defs>

<script type="text/javascript">
var viewWidth = 908;
var viewHeight = 335;
var sectionId = 'dynsection-4';
</script>
<script xlink:href="svgpan.js"/>
<svg id="graph" class="graph">
<g id="viewport">
<title>get_int_data</title>
<polygon fill="#ffffff" stroke="transparent" points="-4,4 -4,-331.137 904,-331.137 904,4 -4,4"/>
<!-- Node17 -->
<g id="node1" class="node">
<title>Node17</title>
<polygon fill="#bfbfbf" stroke="#000000" points="0,-218.5 0,-237.5 70,-237.5 70,-218.5 0,-218.5"/>
<text text-anchor="middle" x="35" y="-225.5" font-family="Helvetica,sans-Serif" font-size="10.00" fill="#000000">get_int_data</text>
</g>
<!-- Node18 -->
<g id="node2" class="node">
<title>Node18</title>
<g id="a_node2"><a xlink:href="game_8h.html#a382ed7c0cb3201c13d4396ad9afc5a3e" target="_top" xlink:title="Lets the player initialize the board unsign a graphical interface 10 boats must be positioned before ...">
<polygon fill="#ffffff" stroke="#000000" points="344,-294.5 344,-313.5 432,-313.5 432,-294.5 344,-294.5"/>
<text text-anchor="middle" x="388" y="-301.5" font-family="Helvetica,sans-Serif" font-size="10.00" fill="#000000">game_init_board</text>
</a>
</g>
</g>
<!-- Node17&#45;&gt;Node18 -->
<g id="edge1" class="edge">
<title>Node17&#45;&gt;Node18</title>
<path fill="none" stroke="#191970" d="M45.9599,-246.3945C58.0607,-264.7554 79.3974,-291.9253 106,-304 186.4687,-340.5242 293.656,-325.5436 349.8808,-313.5305"/>
<polygon fill="#191970" stroke="#191970" points="48.7876,-244.3166 40.4949,-237.7224 42.8654,-248.0487 48.7876,-244.3166"/>
</g>
<!-- Node24 -->
<g id="node8" class="node">
<title>Node24</title>
<g id="a_node8"><a xlink:href="game_8h.html#aaeeee1282b90aa12468a1862c7871ee4" target="_top" xlink:title="Lets the player fire against the enemy&#39;s boats using a graphical interface Shows previously hit cells...">
<polygon fill="#ffffff" stroke="#000000" points="345,-180.5 345,-199.5 431,-199.5 431,-180.5 345,-180.5"/>
<text text-anchor="middle" x="388" y="-187.5" font-family="Helvetica,sans-Serif" font-size="10.00" fill="#000000">game_round_sp</text>
</a>
</g>
</g>
<!-- Node17&#45;&gt;Node24 -->
<g id="edge8" class="edge">
<title>Node17&#45;&gt;Node24</title>
<path fill="none" stroke="#191970" d="M80.1781,-223.1366C148.5933,-215.7718 277.6072,-201.8836 344.8202,-194.6483"/>
<polygon fill="#191970" stroke="#191970" points="79.7055,-219.6672 70.1375,-224.2175 80.4547,-226.627 79.7055,-219.6672"/>
</g>
<!-- Node25 -->
<g id="node9" class="node">
<title>Node25</title>
<g id="a_node9"><a xlink:href="game_8h.html#abdd70639378b19cfc929273ef7b4ff45" target="_top" xlink:title="Uses timer interruptions to wait a predetermined time. ">
<polygon fill="#ffffff" stroke="#000000" points="121,-142.5 121,-161.5 177,-161.5 177,-142.5 121,-142.5"/>
<text text-anchor="middle" x="149" y="-149.5" font-family="Helvetica,sans-Serif" font-size="10.00" fill="#000000">idle_time</text>
</a>
</g>
</g>
<!-- Node17&#45;&gt;Node25 -->
<g id="edge11" class="edge">
<title>Node17&#45;&gt;Node25</title>
<path fill="none" stroke="#191970" d="M57.8889,-212.7408C80.8132,-197.4578 115.382,-174.412 134.6791,-161.5473"/>
<polygon fill="#191970" stroke="#191970" points="55.8172,-209.9153 49.4382,-218.3745 59.7002,-215.7397 55.8172,-209.9153"/>
</g>
<!-- Node29 -->
<g id="node13" class="node">
<title>Node29</title>
<g id="a_node13"><a xlink:href="menu_8h.html#a4cc4e9de5c448babdb711586dd12bec0" target="_top" xlink:title="graphical interface for the main menu ">
<polygon fill="#ffffff" stroke="#000000" points="588,-47.5 588,-66.5 629,-66.5 629,-47.5 588,-47.5"/>
<text text-anchor="middle" x="608.5" y="-54.5" font-family="Helvetica,sans-Serif" font-size="10.00" fill="#000000">menu</text>
</a>
</g>
</g>
<!-- Node17&#45;&gt;Node29 -->
<g id="edge21" class="edge">
<title>Node17&#45;&gt;Node29</title>
<path fill="none" stroke="#191970" d="M43.0303,-209.2699C67.8026,-154.7526 148.6341,0 268,0 268,0 268,0 388,0 463.7184,0 549.5411,-31.8957 587.981,-47.9682"/>
<polygon fill="#191970" stroke="#191970" points="39.7946,-207.9328 38.9439,-218.4934 46.1946,-210.7683 39.7946,-207.9328"/>
</g>
<!-- Node30 -->
<g id="node14" class="node">
<title>Node30</title>
<g id="a_node14"><a xlink:href="state__machine_8h.html#aa5f2f1b1392cbe33e1401ee41fb7d3ba" target="_top" xlink:title="State Machine used for dragging and droping boats Places boats on the board and updates the atributes...">
<polygon fill="#ffffff" stroke="#000000" points="106,-275.5 106,-294.5 192,-294.5 192,-275.5 106,-275.5"/>
<text text-anchor="middle" x="149" y="-282.5" font-family="Helvetica,sans-Serif" font-size="10.00" fill="#000000">select_boat_sm</text>
</a>
</g>
</g>
<!-- Node17&#45;&gt;Node30 -->
<g id="edge24" class="edge">
<title>Node17&#45;&gt;Node30</title>
<path fill="none" stroke="#191970" d="M63.0744,-242.0372C83.8444,-252.4222 111.5863,-266.2931 129.8567,-275.4284"/>
<polygon fill="#191970" stroke="#191970" points="64.5906,-238.8822 54.081,-237.5405 61.4601,-245.1432 64.5906,-238.8822"/>
</g>
<!-- Node19 -->
<g id="node3" class="node">
<title>Node19</title>
<g id="a_node3"><a xlink:href="game_8h.html#aff1f849979a9ca10d6ff2bce0dfb7fd5" target="_top" xlink:title="Single Player Iniciates the boards from the respective players Starts the game loop (1 turn per playe...">
<polygon fill="#ffffff" stroke="#000000" points="469.5,-151.5 469.5,-170.5 525.5,-170.5 525.5,-151.5 469.5,-151.5"/>
<text text-anchor="middle" x="497.5" y="-158.5" font-family="Helvetica,sans-Serif" font-size="10.00" fill="#000000">game_sp</text>
</a>
</g>
</g>
<!-- Node18&#45;&gt;Node19 -->
<g id="edge2" class="edge">
<title>Node18&#45;&gt;Node19</title>
<path fill="none" stroke="#191970" d="M401.2927,-286.4528C417.1275,-265.5734 444.406,-229.678 468,-199 475.4337,-189.3343 483.9834,-178.3338 489.9583,-170.6648"/>
<polygon fill="#191970" stroke="#191970" points="398.5029,-284.3393 395.2512,-294.4228 404.0814,-288.568 398.5029,-284.3393"/>
</g>
<!-- Node23 -->
<g id="node7" class="node">
<title>Node23</title>
<g id="a_node7"><a xlink:href="game_8h.html#a03f40ddf75045683b3f488d4839937ab" target="_top" xlink:title="Multiplayer. ">
<polygon fill="#ffffff" stroke="#000000" points="468,-208.5 468,-227.5 527,-227.5 527,-208.5 468,-208.5"/>
<text text-anchor="middle" x="497.5" y="-215.5" font-family="Helvetica,sans-Serif" font-size="10.00" fill="#000000">game_mp</text>
</a>
</g>
</g>
<!-- Node18&#45;&gt;Node23 -->
<g id="edge6" class="edge">
<title>Node18&#45;&gt;Node23</title>
<path fill="none" stroke="#191970" d="M417.2912,-289.4103C422.3372,-286.5102 427.4254,-283.326 432,-280 454.2896,-263.7944 476.89,-240.5668 488.8385,-227.6321"/>
<polygon fill="#191970" stroke="#191970" points="415.4643,-286.4202 408.3739,-294.2927 418.8261,-292.5601 415.4643,-286.4202"/>
</g>
<!-- Node20 -->
<g id="node4" class="node">
<title>Node20</title>
<g id="a_node4"><a xlink:href="menu_8h.html#a95c8dcba38d720d3e4bd6fcf9a8ee279" target="_top" xlink:title="selects a menu option ">
<polygon fill="#ffffff" stroke="#000000" points="563,-151.5 563,-170.5 654,-170.5 654,-151.5 563,-151.5"/>
<text text-anchor="middle" x="608.5" y="-158.5" font-family="Helvetica,sans-Serif" font-size="10.00" fill="#000000">select_menu_opt</text>
</a>
</g>
</g>
<!-- Node19&#45;&gt;Node20 -->
<g id="edge3" class="edge">
<title>Node19&#45;&gt;Node20</title>
<path fill="none" stroke="#191970" d="M535.7564,-161C544.4665,-161 553.8057,-161 562.7914,-161"/>
<polygon fill="#191970" stroke="#191970" points="535.51,-157.5001 525.51,-161 535.51,-164.5001 535.51,-157.5001"/>
</g>
<!-- Node21 -->
<g id="node5" class="node">
<title>Node21</title>
<g id="a_node5"><a xlink:href="menu_8h.html#a6ed6ac9188a15c74b9d07d12b34397c0" target="_top" xlink:title="Subscribes interruptions of the necessary modules Calls main menu and game functions. ">
<polygon fill="#ffffff" stroke="#000000" points="690,-75.5 690,-94.5 782,-94.5 782,-75.5 690,-75.5"/>
<text text-anchor="middle" x="736" y="-82.5" font-family="Helvetica,sans-Serif" font-size="10.00" fill="#000000">game_main_cicle</text>
</a>
</g>
</g>
<!-- Node20&#45;&gt;Node21 -->
<g id="edge4" class="edge">
<title>Node20&#45;&gt;Node21</title>
<path fill="none" stroke="#191970" d="M633.4218,-146.1447C659.0529,-130.8665 698.21,-107.5258 719.9832,-94.5473"/>
<polygon fill="#191970" stroke="#191970" points="631.4457,-143.2479 624.648,-151.3745 635.0298,-149.2608 631.4457,-143.2479"/>
</g>
<!-- Node22 -->
<g id="node6" class="node">
<title>Node22</title>
<g id="a_node6"><a xlink:href="proj_8c.html#a2a16f651eccbd248e1ad3b3b924b143b" target="_top" xlink:title="proj_main_loop">
<polygon fill="#ffffff" stroke="#000000" points="818,-75.5 818,-94.5 900,-94.5 900,-75.5 818,-75.5"/>
<text text-anchor="middle" x="859" y="-82.5" font-family="Helvetica,sans-Serif" font-size="10.00" fill="#000000">proj_main_loop</text>
</a>
</g>
</g>
<!-- Node21&#45;&gt;Node22 -->
<g id="edge5" class="edge">
<title>Node21&#45;&gt;Node22</title>
<path fill="none" stroke="#191970" d="M792.1908,-85C800.8339,-85 809.6179,-85 817.8531,-85"/>
<polygon fill="#191970" stroke="#191970" points="792.1506,-81.5001 782.1506,-85 792.1506,-88.5001 792.1506,-81.5001"/>
</g>
<!-- Node23&#45;&gt;Node20 -->
<g id="edge7" class="edge">
<title>Node23&#45;&gt;Node20</title>
<path fill="none" stroke="#191970" d="M525.1093,-203.8223C545.3022,-193.4529 572.151,-179.6657 589.8605,-170.5716"/>
<polygon fill="#191970" stroke="#191970" points="523.3758,-200.7779 516.0789,-208.4595 526.5734,-207.0049 523.3758,-200.7779"/>
</g>
<!-- Node24&#45;&gt;Node19 -->
<g id="edge9" class="edge">
<title>Node24&#45;&gt;Node19</title>
<path fill="none" stroke="#191970" d="M434.0448,-177.8055C446.0374,-174.6294 458.6018,-171.3018 469.3566,-168.4535"/>
<polygon fill="#191970" stroke="#191970" points="432.9285,-174.4804 424.1579,-180.4239 434.7207,-181.2471 432.9285,-174.4804"/>
</g>
<!-- Node24&#45;&gt;Node23 -->
<g id="edge10" class="edge">
<title>Node24&#45;&gt;Node23</title>
<path fill="none" stroke="#191970" d="M435.3563,-202.1094C446.4051,-204.9346 457.8631,-207.8645 467.8858,-210.4274"/>
<polygon fill="#191970" stroke="#191970" points="435.9328,-198.6442 425.3774,-199.5577 434.1986,-205.426 435.9328,-198.6442"/>
</g>
<!-- Node25&#45;&gt;Node19 -->
<g id="edge12" class="edge">
<title>Node25&#45;&gt;Node19</title>
<path fill="none" stroke="#191970" d="M158.044,-133.278C170.283,-110.3737 194.5038,-72.71 228,-57 260.1909,-41.9022 272.8367,-51.733 308,-57 365.0049,-65.5387 382.6585,-65.2026 432,-95 457.1504,-110.1883 479.6459,-137.1393 490.5496,-151.4512"/>
<polygon fill="#191970" stroke="#191970" points="154.8382,-131.86 153.4064,-142.3576 161.0721,-135.0441 154.8382,-131.86"/>
</g>
<!-- Node25&#45;&gt;Node23 -->
<g id="edge13" class="edge">
<title>Node25&#45;&gt;Node23</title>
<path fill="none" stroke="#191970" d="M174.5762,-166.6136C189.6799,-174.6482 209.4248,-184.145 228,-190 311.8959,-216.4444 417.0262,-219.1955 467.6032,-218.7575"/>
<polygon fill="#191970" stroke="#191970" points="175.8351,-163.3135 165.3801,-161.5978 172.4833,-169.4588 175.8351,-163.3135"/>
</g>
<!-- Node25&#45;&gt;Node24 -->
<g id="edge14" class="edge">
<title>Node25&#45;&gt;Node24</title>
<path fill="none" stroke="#191970" d="M187.2759,-162.1661C200.1479,-165.3276 214.6328,-168.6075 228,-171 267.2379,-178.023 312.3688,-183.1146 344.6743,-186.2488"/>
<polygon fill="#191970" stroke="#191970" points="187.9021,-158.7148 177.3508,-159.6752 186.198,-165.5042 187.9021,-158.7148"/>
</g>
<!-- Node26 -->
<g id="node10" class="node">
<title>Node26</title>
<g id="a_node10"><a xlink:href="game_8h.html#afb1a61b5802eed643536ce45225d2000" target="_top" xlink:title="Randomly fires upon player&#39;s boats using a state machine to simulate a strategy In case of a hit the ...">
<polygon fill="#ffffff" stroke="#000000" points="346.5,-104.5 346.5,-123.5 429.5,-123.5 429.5,-104.5 346.5,-104.5"/>
<text text-anchor="middle" x="388" y="-111.5" font-family="Helvetica,sans-Serif" font-size="10.00" fill="#000000">game_round_ai</text>
</a>
</g>
</g>
<!-- Node25&#45;&gt;Node26 -->
<g id="edge15" class="edge">
<title>Node25&#45;&gt;Node26</title>
<path fill="none" stroke="#191970" d="M187.2759,-141.8339C200.1479,-138.6724 214.6328,-135.3925 228,-133 267.9263,-125.8538 313.9541,-120.7074 346.3626,-117.588"/>
<polygon fill="#191970" stroke="#191970" points="186.198,-138.4958 177.3508,-144.3248 187.9021,-145.2852 186.198,-138.4958"/>
</g>
<!-- Node27 -->
<g id="node11" class="node">
<title>Node27</title>
<g id="a_node11"><a xlink:href="game_8h.html#a428e51196f5847d0e5e50822aa1c9716" target="_top" xlink:title="displays the end game screen (lost) ">
<polygon fill="#ffffff" stroke="#000000" points="228,-66.5 228,-85.5 308,-85.5 308,-66.5 228,-66.5"/>
<text text-anchor="middle" x="268" y="-73.5" font-family="Helvetica,sans-Serif" font-size="10.00" fill="#000000">game_over_sp</text>
</a>
</g>
</g>
<!-- Node25&#45;&gt;Node27 -->
<g id="edge17" class="edge">
<title>Node25&#45;&gt;Node27</title>
<path fill="none" stroke="#191970" d="M171.6776,-136.7121C187.3812,-126.2148 208.827,-112.0547 228,-100 235.6788,-95.1721 244.2948,-89.9749 251.5583,-85.6556"/>
<polygon fill="#191970" stroke="#191970" points="169.5124,-133.9499 163.1556,-142.4259 173.4106,-139.764 169.5124,-133.9499"/>
</g>
<!-- Node28 -->
<g id="node12" class="node">
<title>Node28</title>
<g id="a_node12"><a xlink:href="game_8h.html#a0ecf3df63f0053cd3177ad9dd3716b54" target="_top" xlink:title="displays the end game screen (won) ">
<polygon fill="#ffffff" stroke="#000000" points="237.5,-142.5 237.5,-161.5 298.5,-161.5 298.5,-142.5 237.5,-142.5"/>
<text text-anchor="middle" x="268" y="-149.5" font-family="Helvetica,sans-Serif" font-size="10.00" fill="#000000">winner_sp</text>
</a>
</g>
</g>
<!-- Node25&#45;&gt;Node28 -->
<g id="edge19" class="edge">
<title>Node25&#45;&gt;Node28</title>
<path fill="none" stroke="#191970" d="M187.4479,-152C203.6566,-152 222.2582,-152 237.4994,-152"/>
<polygon fill="#191970" stroke="#191970" points="187.2014,-148.5001 177.2013,-152 187.2013,-155.5001 187.2014,-148.5001"/>
</g>
<!-- Node26&#45;&gt;Node19 -->
<g id="edge16" class="edge">
<title>Node26&#45;&gt;Node19</title>
<path fill="none" stroke="#191970" d="M419.5389,-127.5373C437.2721,-135.1487 458.992,-144.4714 474.9982,-151.3417"/>
<polygon fill="#191970" stroke="#191970" points="420.7288,-124.2392 410.159,-123.5112 417.9677,-130.6717 420.7288,-124.2392"/>
</g>
<!-- Node27&#45;&gt;Node26 -->
<g id="edge18" class="edge">
<title>Node27&#45;&gt;Node26</title>
<path fill="none" stroke="#191970" d="M308.0435,-88.6804C324.2574,-93.8148 342.6656,-99.6441 357.7286,-104.4141"/>
<polygon fill="#191970" stroke="#191970" points="308.8711,-85.2713 298.2811,-85.589 306.7578,-91.9447 308.8711,-85.2713"/>
</g>
<!-- Node28&#45;&gt;Node24 -->
<g id="edge20" class="edge">
<title>Node28&#45;&gt;Node24</title>
<path fill="none" stroke="#191970" d="M308.0435,-164.6804C324.2574,-169.8148 342.6656,-175.6441 357.7286,-180.4141"/>
<polygon fill="#191970" stroke="#191970" points="308.8711,-161.2713 298.2811,-161.589 306.7578,-167.9447 308.8711,-161.2713"/>
</g>
<!-- Node29&#45;&gt;Node21 -->
<g id="edge23" class="edge">
<title>Node29&#45;&gt;Node21</title>
<path fill="none" stroke="#191970" d="M639.1557,-63.7322C655.1403,-67.2426 674.9658,-71.5964 692.5076,-75.4487"/>
<polygon fill="#191970" stroke="#191970" points="639.7869,-60.2875 629.2688,-61.561 638.2853,-67.1246 639.7869,-60.2875"/>
</g>
<!-- Node29&#45;&gt;Node29 -->
<g id="edge22" class="edge">
<title>Node29&#45;&gt;Node29</title>
<path fill="none" stroke="#191970" d="M588.1306,-76.4C589.491,-81.3146 596.2808,-85 608.5,-85 628.0508,-85 633.7022,-75.5653 625.4542,-66.7571"/>
<polygon fill="#191970" stroke="#191970" points="591.5065,-77.3518 591.5458,-66.7571 584.9081,-75.0149 591.5065,-77.3518"/>
</g>
<!-- Node30&#45;&gt;Node18 -->
<g id="edge25" class="edge">
<title>Node30&#45;&gt;Node18</title>
<path fill="none" stroke="#191970" d="M202.1759,-289.2274C244.7306,-292.6104 303.7079,-297.299 343.7223,-300.48"/>
<polygon fill="#191970" stroke="#191970" points="202.2504,-285.7223 192.0044,-288.4188 201.6956,-292.7003 202.2504,-285.7223"/>
</g>
</g>
</svg>
        <g id="navigator" transform="translate(0 0)" fill="#404254">
                <rect fill="#f2f5e9" fill-opacity="0.5" stroke="#606060" stroke-width=".5" x="0" y="0" width="60" height="60"/>
                <use id="zoomplus" xlink:href="#zoomPlus" x="17" y="9" onmousedown="handleZoom(evt,'in')"/>
                <use id="zoomminus" xlink:href="#zoomMin" x="42" y="9" onmousedown="handleZoom(evt,'out')"/>
                <use id="reset" xlink:href="#resetDef" x="30" y="36" onmousedown="handleReset()"/>
                <g id="arrowUp" xlink:href="#dirArrow" transform="translate(30 24)" onmousedown="handlePan(0,-1)">
                  <use xlink:href="#rim" fill="#404040">
                        <set attributeName="fill" to="#808080" begin="arrowUp.mouseover" end="arrowUp.mouseout"/>
                  </use>
                  <path fill="none" stroke="white" stroke-width="1.5" d="M0,-3.0v7 M-2.5,-0.5L0,-3.0L2.5,-0.5"/>
                </g>
                <g id="arrowRight" xlink:href="#dirArrow" transform="rotate(90) translate(36 -43)" onmousedown="handlePan(1,0)">
                  <use xlink:href="#rim" fill="#404040">
                        <set attributeName="fill" to="#808080" begin="arrowRight.mouseover" end="arrowRight.mouseout"/>
                  </use>
                  <path fill="none" stroke="white" stroke-width="1.5" d="M0,-3.0v7 M-2.5,-0.5L0,-3.0L2.5,-0.5"/>
                </g>
                <g id="arrowDown" xlink:href="#dirArrow" transform="rotate(180) translate(-30 -48)" onmousedown="handlePan(0,1)">
                  <use xlink:href="#rim" fill="#404040">
                        <set attributeName="fill" to="#808080" begin="arrowDown.mouseover" end="arrowDown.mouseout"/>
                  </use>
                  <path fill="none" stroke="white" stroke-width="1.5" d="M0,-3.0v7 M-2.5,-0.5L0,-3.0L2.5,-0.5"/>
                </g>
                <g id="arrowLeft" xlink:href="#dirArrow" transform="rotate(270) translate(-36 17)" onmousedown="handlePan(-1,0)">
                  <use xlink:href="#rim" fill="#404040">
                        <set attributeName="fill" to="#808080" begin="arrowLeft.mouseover" end="arrowLeft.mouseout"/>
                  </use>
                  <path fill="none" stroke="white" stroke-width="1.5" d="M0,-3.0v7 M-2.5,-0.5L0,-3.0L2.5,-0.5"/>
                </g>
        </g>
        <svg viewBox="0 0 15 15" width="100%" height="30px" preserveAspectRatio="xMaxYMin meet">
         <g id="arrow_out" transform="scale(0.3 0.3)">
          <a xlink:href="interrupt__cicle_8c_ae96d62d9643ecb59a9a8a7828dfc1860_icgraph_org.svg" target="_base">
           <rect id="button" ry="5" rx="5" y="6" x="6" height="38" width="38"
                fill="#f2f5e9" fill-opacity="0.5" stroke="#606060" stroke-width="1.0"/>
           <path id="arrow"
             d="M 11.500037,31.436501 C 11.940474,20.09759 22.043105,11.32322 32.158766,21.979434 L 37.068811,17.246167 C 37.068811,17.246167 37.088388,32 37.088388,32 L 22.160133,31.978069 C 22.160133,31.978069 26.997745,27.140456 26.997745,27.140456 C 18.528582,18.264221 13.291696,25.230495 11.500037,31.436501 z"
             style="fill:#404040;"/>
          </a>
         </g>
        </svg>
</svg>
