<?xml version="1.0" encoding="UTF-8" standalone="no"?>
<!DOCTYPE svg PUBLIC "-//W3C//DTD SVG 1.1//EN"
 "http://www.w3.org/Graphics/SVG/1.1/DTD/svg11.dtd">
<!-- Generated by graphviz version 2.40.1 (20161225.0304)
 -->
<!-- Title: disable_components Pages: 1 -->
<svg width="360pt" height="28pt"
 viewBox="0.00 0.00 360.00 28.00" xmlns="http://www.w3.org/2000/svg" xmlns:xlink="http://www.w3.org/1999/xlink">
<g id="graph0" class="graph" transform="scale(1 1) rotate(0) translate(4 24)">
<title>disable_components</title>
<polygon fill="#ffffff" stroke="transparent" points="-4,4 -4,-24 356,-24 356,4 -4,4"/>
<!-- Node5 -->
<g id="node1" class="node">
<title>Node5</title>
<polygon fill="#bfbfbf" stroke="#000000" points="0,-.5 0,-19.5 106,-19.5 106,-.5 0,-.5"/>
<text text-anchor="middle" x="53" y="-7.5" font-family="Helvetica,sans-Serif" font-size="10.00" fill="#000000">disable_components</text>
</g>
<!-- Node6 -->
<g id="node2" class="node">
<title>Node6</title>
<g id="a_node2"><a xlink:href="menu_8h.html#a6ed6ac9188a15c74b9d07d12b34397c0" target="_top" xlink:title="Subscribes interruptions of the necessary modules Calls main menu and game functions. ">
<polygon fill="#ffffff" stroke="#000000" points="142,-.5 142,-19.5 234,-19.5 234,-.5 142,-.5"/>
<text text-anchor="middle" x="188" y="-7.5" font-family="Helvetica,sans-Serif" font-size="10.00" fill="#000000">game_main_cicle</text>
</a>
</g>
</g>
<!-- Node5&#45;&gt;Node6 -->
<g id="edge1" class="edge">
<title>Node5&#45;&gt;Node6</title>
<path fill="none" stroke="#191970" d="M116.5656,-10C124.9985,-10 133.5136,-10 141.582,-10"/>
<polygon fill="#191970" stroke="#191970" points="116.3556,-6.5001 106.3556,-10 116.3555,-13.5001 116.3556,-6.5001"/>
</g>
<!-- Node7 -->
<g id="node3" class="node">
<title>Node7</title>
<g id="a_node3"><a xlink:href="proj_8c.html#a2a16f651eccbd248e1ad3b3b924b143b" target="_top" xlink:title="proj_main_loop">
<polygon fill="#ffffff" stroke="#000000" points="270,-.5 270,-19.5 352,-19.5 352,-.5 270,-.5"/>
<text text-anchor="middle" x="311" y="-7.5" font-family="Helvetica,sans-Serif" font-size="10.00" fill="#000000">proj_main_loop</text>
</a>
</g>
</g>
<!-- Node6&#45;&gt;Node7 -->
<g id="edge2" class="edge">
<title>Node6&#45;&gt;Node7</title>
<path fill="none" stroke="#191970" d="M244.1908,-10C252.8339,-10 261.6179,-10 269.8531,-10"/>
<polygon fill="#191970" stroke="#191970" points="244.1506,-6.5001 234.1506,-10 244.1506,-13.5001 244.1506,-6.5001"/>
</g>
</g>
</svg>
