<?xml version="1.0" encoding="UTF-8" standalone="no"?>
<!DOCTYPE svg PUBLIC "-//W3C//DTD SVG 1.1//EN"
 "http://www.w3.org/Graphics/SVG/1.1/DTD/svg11.dtd">
<!-- Generated by graphviz version 2.40.1 (20161225.0304)
 -->
<!-- Title: interrupt_cicle Pages: 1 -->
<svg width="351pt" height="237pt"
 viewBox="0.00 0.00 351.00 237.00" xmlns="http://www.w3.org/2000/svg" xmlns:xlink="http://www.w3.org/1999/xlink">
<g id="graph0" class="graph" transform="scale(1 1) rotate(0) translate(4 233)">
<title>interrupt_cicle</title>
<polygon fill="#ffffff" stroke="transparent" points="-4,4 -4,-233 347,-233 347,4 -4,4"/>
<!-- Node49 -->
<g id="node1" class="node">
<title>Node49</title>
<polygon fill="#bfbfbf" stroke="#000000" points="0,-114.5 0,-133.5 77,-133.5 77,-114.5 0,-114.5"/>
<text text-anchor="middle" x="38.5" y="-121.5" font-family="Helvetica,sans-Serif" font-size="10.00" fill="#000000">interrupt_cicle</text>
</g>
<!-- Node50 -->
<g id="node2" class="node">
<title>Node50</title>
<g id="a_node2"><a xlink:href="mouse_8c.html#a210374b50462acdedab00df64d5cea3c" target="_top" xlink:title="Mouse IH. ">
<polygon fill="#ffffff" stroke="#000000" points="141.5,-209.5 141.5,-228.5 200.5,-228.5 200.5,-209.5 141.5,-209.5"/>
<text text-anchor="middle" x="171" y="-216.5" font-family="Helvetica,sans-Serif" font-size="10.00" fill="#000000">mouse_ih</text>
</a>
</g>
</g>
<!-- Node49&#45;&gt;Node50 -->
<g id="edge1" class="edge">
<title>Node49&#45;&gt;Node50</title>
<path fill="none" stroke="#191970" d="M45.4231,-133.6131C57.4279,-149.6178 83.6526,-181.7651 113,-200 118.8051,-203.607 125.3668,-206.6025 131.9354,-209.0657"/>
<polygon fill="#191970" stroke="#191970" points="130.8823,-212.4043 141.4767,-212.3029 133.1315,-205.7755 130.8823,-212.4043"/>
</g>
<!-- Node52 -->
<g id="node4" class="node">
<title>Node52</title>
<g id="a_node4"><a xlink:href="mouse_8c.html#a4f0a0dc9001ebefef3a416dd9b882b97" target="_top" xlink:title="Initiates the mouse packet member. ">
<polygon fill="#ffffff" stroke="#000000" points="139,-171.5 139,-190.5 203,-190.5 203,-171.5 139,-171.5"/>
<text text-anchor="middle" x="171" y="-178.5" font-family="Helvetica,sans-Serif" font-size="10.00" fill="#000000">init_packet</text>
</a>
</g>
</g>
<!-- Node49&#45;&gt;Node52 -->
<g id="edge3" class="edge">
<title>Node49&#45;&gt;Node52</title>
<path fill="none" stroke="#191970" d="M55.307,-133.523C70.1791,-141.7179 92.6225,-153.5254 113,-162 118.1364,-164.1361 123.6054,-166.1952 129.0545,-168.1189"/>
<polygon fill="#191970" stroke="#191970" points="128.171,-171.5153 138.7654,-171.423 130.4258,-164.8884 128.171,-171.5153"/>
</g>
<!-- Node53 -->
<g id="node5" class="node">
<title>Node53</title>
<g id="a_node5"><a xlink:href="mouse_8c.html#a2ce59763196c5a8a030a47599b6a160e" target="_top" xlink:title="Get the cnt bytes. ">
<polygon fill="#ffffff" stroke="#000000" points="132,-133.5 132,-152.5 210,-152.5 210,-133.5 132,-133.5"/>
<text text-anchor="middle" x="171" y="-140.5" font-family="Helvetica,sans-Serif" font-size="10.00" fill="#000000">get_cnt_bytes</text>
</a>
</g>
</g>
<!-- Node49&#45;&gt;Node53 -->
<g id="edge4" class="edge">
<title>Node49&#45;&gt;Node53</title>
<path fill="none" stroke="#191970" d="M77.1807,-129.5467C91.0828,-131.5402 106.9562,-133.8164 121.6428,-135.9224"/>
<polygon fill="#191970" stroke="#191970" points="121.1864,-139.3926 131.582,-137.3476 122.1801,-132.4635 121.1864,-139.3926"/>
</g>
<!-- Node54 -->
<g id="node6" class="node">
<title>Node54</title>
<g id="a_node6"><a xlink:href="kbd_8c.html#aea970a154161a35f6894898a092ed70a" target="_top" xlink:title="Keyboard IH. ">
<polygon fill="#ffffff" stroke="#000000" points="148.5,-95.5 148.5,-114.5 193.5,-114.5 193.5,-95.5 148.5,-95.5"/>
<text text-anchor="middle" x="171" y="-102.5" font-family="Helvetica,sans-Serif" font-size="10.00" fill="#000000">kbc_ih</text>
</a>
</g>
</g>
<!-- Node49&#45;&gt;Node54 -->
<g id="edge5" class="edge">
<title>Node49&#45;&gt;Node54</title>
<path fill="none" stroke="#191970" d="M77.1807,-118.4533C96.5545,-115.6752 119.7567,-112.3481 138.24,-109.6977"/>
<polygon fill="#191970" stroke="#191970" points="138.8382,-113.1478 148.2401,-108.2637 137.8445,-106.2187 138.8382,-113.1478"/>
</g>
<!-- Node55 -->
<g id="node7" class="node">
<title>Node55</title>
<g id="a_node7"><a xlink:href="timer_8c.html#ac7c3715c83c45c6411f9f3f9f6cf8c7f" target="_top" xlink:title="Timer IH. ">
<polygon fill="#ffffff" stroke="#000000" points="113,-57.5 113,-76.5 229,-76.5 229,-57.5 113,-57.5"/>
<text text-anchor="middle" x="171" y="-64.5" font-family="Helvetica,sans-Serif" font-size="10.00" fill="#000000">timer_interrupt_handler</text>
</a>
</g>
</g>
<!-- Node49&#45;&gt;Node55 -->
<g id="edge6" class="edge">
<title>Node49&#45;&gt;Node55</title>
<path fill="none" stroke="#191970" d="M55.307,-114.477C70.1791,-106.2821 92.6225,-94.4746 113,-86 118.1364,-83.8639 123.6054,-81.8048 129.0545,-79.8811"/>
<polygon fill="#191970" stroke="#191970" points="130.4258,-83.1116 138.7654,-76.577 128.171,-76.4847 130.4258,-83.1116"/>
</g>
<!-- Node56 -->
<g id="node8" class="node">
<title>Node56</title>
<g id="a_node8"><a xlink:href="interrupt__cicle_8c.html#a3cd9db2b8c583d8e97d9865c1a4802a9" target="_top" xlink:title="Initializes the interrupt_data struct tot be used in other files. ">
<polygon fill="#ffffff" stroke="#000000" points="136.5,-19.5 136.5,-38.5 205.5,-38.5 205.5,-19.5 136.5,-19.5"/>
<text text-anchor="middle" x="171" y="-26.5" font-family="Helvetica,sans-Serif" font-size="10.00" fill="#000000">init_int_data</text>
</a>
</g>
</g>
<!-- Node49&#45;&gt;Node56 -->
<g id="edge7" class="edge">
<title>Node49&#45;&gt;Node56</title>
<path fill="none" stroke="#191970" d="M45.4231,-114.3869C57.4279,-98.3822 83.6526,-66.2349 113,-48 117.3327,-45.3079 122.0869,-42.9564 126.9509,-40.9126"/>
<polygon fill="#191970" stroke="#191970" points="128.2439,-44.1656 136.3579,-37.3529 125.7664,-37.6187 128.2439,-44.1656"/>
</g>
<!-- Node51 -->
<g id="node3" class="node">
<title>Node51</title>
<g id="a_node3"><a xlink:href="mouse_8c.html#a4a11876c724ae443363cf5971f1558e7" target="_top" xlink:title="Empties a mouse packet. ">
<polygon fill="#ffffff" stroke="#000000" points="265,-142.5 265,-161.5 343,-161.5 343,-142.5 265,-142.5"/>
<text text-anchor="middle" x="304" y="-149.5" font-family="Helvetica,sans-Serif" font-size="10.00" fill="#000000">empty_packet</text>
</a>
</g>
</g>
<!-- Node50&#45;&gt;Node51 -->
<g id="edge2" class="edge">
<title>Node50&#45;&gt;Node51</title>
<path fill="none" stroke="#191970" d="M200.7696,-210.8374C210.0078,-207.8859 220.0967,-204.2235 229,-200 248.2007,-190.8916 268.407,-177.7243 283.0022,-167.4838"/>
<polygon fill="#191970" stroke="#191970" points="285.2058,-170.211 291.3056,-161.5482 281.135,-164.5163 285.2058,-170.211"/>
</g>
<!-- Node56&#45;&gt;Node51 -->
<g id="edge9" class="edge">
<title>Node56&#45;&gt;Node51</title>
<path fill="none" stroke="#191970" d="M205.5417,-36.396C213.7208,-39.1725 222.0715,-42.9346 229,-48 259.9948,-70.6601 283.269,-109.9941 295.1567,-133.2485"/>
<polygon fill="#191970" stroke="#191970" points="292.1124,-134.9888 299.6743,-142.4097 298.3906,-131.8929 292.1124,-134.9888"/>
</g>
<!-- Node57 -->
<g id="node9" class="node">
<title>Node57</title>
<g id="a_node9"><a xlink:href="mouse_8c.html#a56a5da7f70edb0bb5db9910981ef65f9" target="_top" xlink:title="Get packet struct. ">
<polygon fill="#ffffff" stroke="#000000" points="271.5,-38.5 271.5,-57.5 336.5,-57.5 336.5,-38.5 271.5,-38.5"/>
<text text-anchor="middle" x="304" y="-45.5" font-family="Helvetica,sans-Serif" font-size="10.00" fill="#000000">get_packet</text>
</a>
</g>
</g>
<!-- Node56&#45;&gt;Node57 -->
<g id="edge8" class="edge">
<title>Node56&#45;&gt;Node57</title>
<path fill="none" stroke="#191970" d="M205.597,-33.9424C222.6621,-36.3803 243.4006,-39.3429 261.4308,-41.9187"/>
<polygon fill="#191970" stroke="#191970" points="261.0115,-45.3942 271.406,-43.3437 262.0015,-38.4646 261.0115,-45.3942"/>
</g>
<!-- Node58 -->
<g id="node10" class="node">
<title>Node58</title>
<g id="a_node10"><a xlink:href="kbd_8c.html#aabe32d3d3ebb9ccff7ca4b7992f48209" target="_top" xlink:title="Get the scancode. ">
<polygon fill="#ffffff" stroke="#000000" points="265.5,-.5 265.5,-19.5 342.5,-19.5 342.5,-.5 265.5,-.5"/>
<text text-anchor="middle" x="304" y="-7.5" font-family="Helvetica,sans-Serif" font-size="10.00" fill="#000000">get_scancode</text>
</a>
</g>
</g>
<!-- Node56&#45;&gt;Node58 -->
<g id="edge10" class="edge">
<title>Node56&#45;&gt;Node58</title>
<path fill="none" stroke="#191970" d="M205.597,-24.0576C220.7668,-21.8905 238.8393,-19.3087 255.3318,-16.9526"/>
<polygon fill="#191970" stroke="#191970" points="255.9519,-20.3996 265.3564,-15.5205 254.9619,-13.47 255.9519,-20.3996"/>
</g>
</g>
</svg>
