<?xml version="1.0" encoding="UTF-8" standalone="no"?>
<!DOCTYPE svg PUBLIC "-//W3C//DTD SVG 1.1//EN"
 "http://www.w3.org/Graphics/SVG/1.1/DTD/svg11.dtd">
<!-- Generated by graphviz version 2.40.1 (20161225.0304)
 -->
<!-- Title: enable_components Pages: 1 -->
<svg width="404pt" height="104pt"
 viewBox="0.00 0.00 404.00 104.00" xmlns="http://www.w3.org/2000/svg" xmlns:xlink="http://www.w3.org/1999/xlink">
<g id="graph0" class="graph" transform="scale(1 1) rotate(0) translate(4 100)">
<title>enable_components</title>
<polygon fill="#ffffff" stroke="transparent" points="-4,4 -4,-100 400,-100 400,4 -4,4"/>
<!-- Node8 -->
<g id="node1" class="node">
<title>Node8</title>
<polygon fill="#bfbfbf" stroke="#000000" points="0,-38.5 0,-57.5 104,-57.5 104,-38.5 0,-38.5"/>
<text text-anchor="middle" x="52" y="-45.5" font-family="Helvetica,sans-Serif" font-size="10.00" fill="#000000">enable_components</text>
</g>
<!-- Node9 -->
<g id="node2" class="node">
<title>Node9</title>
<g id="a_node2"><a xlink:href="mouse_8c.html#a931e47d5ee56f248d36a9295f8931f4b" target="_top" xlink:title="Subscribe mouse interrupts. ">
<polygon fill="#ffffff" stroke="#000000" points="148.5,-76.5 148.5,-95.5 257.5,-95.5 257.5,-76.5 148.5,-76.5"/>
<text text-anchor="middle" x="203" y="-83.5" font-family="Helvetica,sans-Serif" font-size="10.00" fill="#000000">mouse_subscribe_int</text>
</a>
</g>
</g>
<!-- Node8&#45;&gt;Node9 -->
<g id="edge1" class="edge">
<title>Node8&#45;&gt;Node9</title>
<path fill="none" stroke="#191970" d="M90.1037,-57.589C109.94,-62.5809 134.3839,-68.7324 155.4483,-74.0334"/>
<polygon fill="#191970" stroke="#191970" points="154.6185,-77.4336 165.1703,-76.4799 156.3269,-70.6452 154.6185,-77.4336"/>
</g>
<!-- Node11 -->
<g id="node4" class="node">
<title>Node11</title>
<g id="a_node4"><a xlink:href="kbd_8c.html#ae64607ecf7a2d4dbb979e73a83f0a889" target="_top" xlink:title="Subscribe keyboard interruptions. ">
<polygon fill="#ffffff" stroke="#000000" points="155.5,-38.5 155.5,-57.5 250.5,-57.5 250.5,-38.5 155.5,-38.5"/>
<text text-anchor="middle" x="203" y="-45.5" font-family="Helvetica,sans-Serif" font-size="10.00" fill="#000000">kbd_subscribe_int</text>
</a>
</g>
</g>
<!-- Node8&#45;&gt;Node11 -->
<g id="edge3" class="edge">
<title>Node8&#45;&gt;Node11</title>
<path fill="none" stroke="#191970" d="M104.3887,-48C117.5571,-48 131.7635,-48 145.1806,-48"/>
<polygon fill="#191970" stroke="#191970" points="145.2567,-51.5001 155.2567,-48 145.2566,-44.5001 145.2567,-51.5001"/>
</g>
<!-- Node12 -->
<g id="node5" class="node">
<title>Node12</title>
<g id="a_node5"><a xlink:href="timer_8c.html#a3d5b56575044727856b57a7d5ea6f7f4" target="_top" xlink:title="Subscribes timer interruptions. ">
<polygon fill="#ffffff" stroke="#000000" points="140,-.5 140,-19.5 266,-19.5 266,-.5 140,-.5"/>
<text text-anchor="middle" x="203" y="-7.5" font-family="Helvetica,sans-Serif" font-size="10.00" fill="#000000">timer_subscribe_interrupt</text>
</a>
</g>
</g>
<!-- Node8&#45;&gt;Node12 -->
<g id="edge4" class="edge">
<title>Node8&#45;&gt;Node12</title>
<path fill="none" stroke="#191970" d="M90.1037,-38.411C109.94,-33.4191 134.3839,-27.2676 155.4483,-21.9666"/>
<polygon fill="#191970" stroke="#191970" points="156.3269,-25.3548 165.1703,-19.5201 154.6185,-18.5664 156.3269,-25.3548"/>
</g>
<!-- Node10 -->
<g id="node3" class="node">
<title>Node10</title>
<g id="a_node3"><a xlink:href="mouse_8c.html#adbcbd37b59e476b1872dc37801bc4f15" target="_top" xlink:title="Sends a command to the STAT_REG. ">
<polygon fill="#ffffff" stroke="#000000" points="302,-76.5 302,-95.5 396,-95.5 396,-76.5 302,-76.5"/>
<text text-anchor="middle" x="349" y="-83.5" font-family="Helvetica,sans-Serif" font-size="10.00" fill="#000000">mouse_command</text>
</a>
</g>
</g>
<!-- Node9&#45;&gt;Node10 -->
<g id="edge2" class="edge">
<title>Node9&#45;&gt;Node10</title>
<path fill="none" stroke="#191970" d="M257.7804,-86C268.8075,-86 280.4271,-86 291.5426,-86"/>
<polygon fill="#191970" stroke="#191970" points="291.5775,-89.5001 301.5775,-86 291.5775,-82.5001 291.5775,-89.5001"/>
</g>
</g>
</svg>
