<?xml version="1.0" encoding="UTF-8" standalone="no"?>
<!DOCTYPE svg PUBLIC "-//W3C//DTD SVG 1.1//EN"
 "http://www.w3.org/Graphics/SVG/1.1/DTD/svg11.dtd">
<!-- Generated by graphviz version 2.40.1 (20161225.0304)
 -->
<!-- Title: get_scancode Pages: 1 -->
<!--zoomable 312 -->
<svg id="main" version="1.1" xmlns="http://www.w3.org/2000/svg" xmlns:xlink="http://www.w3.org/1999/xlink" xml:space="preserve" onload="init(evt)">
<style type="text/css"><![CDATA[
.edge:hover path { stroke: red; }
.edge:hover polygon { stroke: red; fill: red; }
]]></style>
<script type="text/javascript"><![CDATA[
var edges = document.getElementsByTagName('g');
if (edges && edges.length) {
  for (var i=0;i<edges.length;i++) {
    if (edges[i].id.substr(0,4)=='edge') {
      edges[i].setAttribute('class','edge');
    }
  }
}
]]></script>
        <defs>
                <circle id="rim" cx="0" cy="0" r="7"/>
                <circle id="rim2" cx="0" cy="0" r="3.5"/>
                <g id="zoomPlus">
                        <use xlink:href="#rim" fill="#404040">
                                <set attributeName="fill" to="#808080" begin="zoomplus.mouseover" end="zoomplus.mouseout"/>
                        </use>
                        <path d="M-4,0h8M0,-4v8" fill="none" stroke="white" stroke-width="1.5" pointer-events="none"/>
                </g>
                <g id="zoomMin">
                        <use xlink:href="#rim" fill="#404040">
                                <set attributeName="fill" to="#808080" begin="zoomminus.mouseover" end="zoomminus.mouseout"/>
                        </use>
                        <path d="M-4,0h8" fill="none" stroke="white" stroke-width="1.5" pointer-events="none"/>
                </g>
                <g id="dirArrow">
                        <path fill="none" stroke="white" stroke-width="1.5" d="M0,-3.0v7 M-2.5,-0.5L0,-3.0L2.5,-0.5"/>
                </g>
               <g id="resetDef">
                       <use xlink:href="#rim2" fill="#404040">
                               <set attributeName="fill" to="#808080" begin="reset.mouseover" end="reset.mouseout"/>
                       </use>
               </g>
        </defs>

<script type="text/javascript">
var viewWidth = 1103;
var viewHeight = 312;
var sectionId = 'dynsection-0';
</script>
<script xlink:href="svgpan.js"/>
<svg id="graph" class="graph">
<g id="viewport">
<title>get_scancode</title>
<polygon fill="#ffffff" stroke="transparent" points="-4,4 -4,-308 1099,-308 1099,4 -4,4"/>
<!-- Node3 -->
<g id="node1" class="node">
<title>Node3</title>
<polygon fill="#bfbfbf" stroke="#000000" points="0,-9.5 0,-28.5 77,-28.5 77,-9.5 0,-9.5"/>
<text text-anchor="middle" x="38.5" y="-16.5" font-family="Helvetica,sans-Serif" font-size="10.00" fill="#000000">get_scancode</text>
</g>
<!-- Node4 -->
<g id="node2" class="node">
<title>Node4</title>
<g id="a_node2"><a xlink:href="game_8h.html#aaeeee1282b90aa12468a1862c7871ee4" target="_top" xlink:title="Lets the player fire against the enemy&#39;s boats using a graphical interface Shows previously hit cells...">
<polygon fill="#ffffff" stroke="#000000" points="540,-104.5 540,-123.5 626,-123.5 626,-104.5 540,-104.5"/>
<text text-anchor="middle" x="583" y="-111.5" font-family="Helvetica,sans-Serif" font-size="10.00" fill="#000000">game_round_sp</text>
</a>
</g>
</g>
<!-- Node3&#45;&gt;Node4 -->
<g id="edge1" class="edge">
<title>Node3&#45;&gt;Node4</title>
<path fill="none" stroke="#191970" d="M87.1576,-12.3205C131.2677,-6.8471 198.116,0 256.5,0 256.5,0 256.5,0 359,0 428.3333,0 445.1215,-21.8268 503,-60 521.6285,-72.2863 520.4507,-82.5944 539,-95 544.3948,-98.608 550.5869,-101.7812 556.5895,-104.4497"/>
<polygon fill="#191970" stroke="#191970" points="86.4844,-8.8777 77.0033,-13.6062 87.3638,-15.8223 86.4844,-8.8777"/>
</g>
<!-- Node10 -->
<g id="node8" class="node">
<title>Node10</title>
<g id="a_node8"><a xlink:href="interrupt__cicle_8h.html#a3cd9db2b8c583d8e97d9865c1a4802a9" target="_top" xlink:title="Initializes the interrupt_data struct tot be used in other files. ">
<polygon fill="#ffffff" stroke="#000000" points="113,-28.5 113,-47.5 182,-47.5 182,-28.5 113,-28.5"/>
<text text-anchor="middle" x="147.5" y="-35.5" font-family="Helvetica,sans-Serif" font-size="10.00" fill="#000000">init_int_data</text>
</a>
</g>
</g>
<!-- Node3&#45;&gt;Node10 -->
<g id="edge8" class="edge">
<title>Node3&#45;&gt;Node10</title>
<path fill="none" stroke="#191970" d="M87.2415,-27.4962C95.886,-29.0031 104.726,-30.544 112.8783,-31.965"/>
<polygon fill="#191970" stroke="#191970" points="87.6887,-24.0215 77.2362,-25.7522 86.4866,-30.9175 87.6887,-24.0215"/>
</g>
<!-- Node5 -->
<g id="node3" class="node">
<title>Node5</title>
<g id="a_node3"><a xlink:href="game_8h.html#aff1f849979a9ca10d6ff2bce0dfb7fd5" target="_top" xlink:title="Single Player Iniciates the boards from the respective players Starts the game loop (1 turn per playe...">
<polygon fill="#ffffff" stroke="#000000" points="664.5,-161.5 664.5,-180.5 720.5,-180.5 720.5,-161.5 664.5,-161.5"/>
<text text-anchor="middle" x="692.5" y="-168.5" font-family="Helvetica,sans-Serif" font-size="10.00" fill="#000000">game_sp</text>
</a>
</g>
</g>
<!-- Node4&#45;&gt;Node5 -->
<g id="edge2" class="edge">
<title>Node4&#45;&gt;Node5</title>
<path fill="none" stroke="#191970" d="M610.4933,-128.3116C630.4167,-138.6827 656.8049,-152.419 674.1991,-161.4735"/>
<polygon fill="#191970" stroke="#191970" points="612.0615,-125.1821 601.5752,-123.6693 608.8293,-131.3912 612.0615,-125.1821"/>
</g>
<!-- Node9 -->
<g id="node7" class="node">
<title>Node9</title>
<g id="a_node7"><a xlink:href="game_8h.html#a03f40ddf75045683b3f488d4839937ab" target="_top" xlink:title="Multiplayer. ">
<polygon fill="#ffffff" stroke="#000000" points="663,-114.5 663,-133.5 722,-133.5 722,-114.5 663,-114.5"/>
<text text-anchor="middle" x="692.5" y="-121.5" font-family="Helvetica,sans-Serif" font-size="10.00" fill="#000000">game_mp</text>
</a>
</g>
</g>
<!-- Node4&#45;&gt;Node9 -->
<g id="edge6" class="edge">
<title>Node4&#45;&gt;Node9</title>
<path fill="none" stroke="#191970" d="M636.4068,-118.8773C645.4436,-119.7026 654.5292,-120.5324 662.6781,-121.2765"/>
<polygon fill="#191970" stroke="#191970" points="636.5542,-115.3763 626.2773,-117.9523 635.9175,-122.3473 636.5542,-115.3763"/>
</g>
<!-- Node6 -->
<g id="node4" class="node">
<title>Node6</title>
<g id="a_node4"><a xlink:href="menu_8h.html#a95c8dcba38d720d3e4bd6fcf9a8ee279" target="_top" xlink:title="selects a menu option ">
<polygon fill="#ffffff" stroke="#000000" points="758,-161.5 758,-180.5 849,-180.5 849,-161.5 758,-161.5"/>
<text text-anchor="middle" x="803.5" y="-168.5" font-family="Helvetica,sans-Serif" font-size="10.00" fill="#000000">select_menu_opt</text>
</a>
</g>
</g>
<!-- Node5&#45;&gt;Node6 -->
<g id="edge3" class="edge">
<title>Node5&#45;&gt;Node6</title>
<path fill="none" stroke="#191970" d="M730.7564,-171C739.4665,-171 748.8057,-171 757.7914,-171"/>
<polygon fill="#191970" stroke="#191970" points="730.51,-167.5001 720.51,-171 730.51,-174.5001 730.51,-167.5001"/>
</g>
<!-- Node7 -->
<g id="node5" class="node">
<title>Node7</title>
<g id="a_node5"><a xlink:href="menu_8h.html#a6ed6ac9188a15c74b9d07d12b34397c0" target="_top" xlink:title="Subscribes interruptions of the necessary modules Calls main menu and game functions. ">
<polygon fill="#ffffff" stroke="#000000" points="885,-180.5 885,-199.5 977,-199.5 977,-180.5 885,-180.5"/>
<text text-anchor="middle" x="931" y="-187.5" font-family="Helvetica,sans-Serif" font-size="10.00" fill="#000000">game_main_cicle</text>
</a>
</g>
</g>
<!-- Node6&#45;&gt;Node7 -->
<g id="edge4" class="edge">
<title>Node6&#45;&gt;Node7</title>
<path fill="none" stroke="#191970" d="M859.105,-179.2862C867.6784,-180.5638 876.4517,-181.8712 884.7907,-183.1139"/>
<polygon fill="#191970" stroke="#191970" points="859.577,-175.818 849.1703,-177.8058 858.5452,-182.7415 859.577,-175.818"/>
</g>
<!-- Node8 -->
<g id="node6" class="node">
<title>Node8</title>
<g id="a_node6"><a xlink:href="proj_8c.html#a2a16f651eccbd248e1ad3b3b924b143b" target="_top" xlink:title="proj_main_loop">
<polygon fill="#ffffff" stroke="#000000" points="1013,-180.5 1013,-199.5 1095,-199.5 1095,-180.5 1013,-180.5"/>
<text text-anchor="middle" x="1054" y="-187.5" font-family="Helvetica,sans-Serif" font-size="10.00" fill="#000000">proj_main_loop</text>
</a>
</g>
</g>
<!-- Node7&#45;&gt;Node8 -->
<g id="edge5" class="edge">
<title>Node7&#45;&gt;Node8</title>
<path fill="none" stroke="#191970" d="M987.1908,-190C995.8339,-190 1004.6179,-190 1012.8531,-190"/>
<polygon fill="#191970" stroke="#191970" points="987.1506,-186.5001 977.1506,-190 987.1506,-193.5001 987.1506,-186.5001"/>
</g>
<!-- Node9&#45;&gt;Node6 -->
<g id="edge7" class="edge">
<title>Node9&#45;&gt;Node6</title>
<path fill="none" stroke="#191970" d="M724.471,-137.5373C742.447,-145.1487 764.4644,-154.4714 780.6899,-161.3417"/>
<polygon fill="#191970" stroke="#191970" points="725.5357,-134.1873 714.9625,-133.5112 722.8063,-140.6333 725.5357,-134.1873"/>
</g>
<!-- Node11 -->
<g id="node9" class="node">
<title>Node11</title>
<g id="a_node9"><a xlink:href="interrupt__cicle_8h.html#a0718d5c75848a080a2122df6548d2422" target="_top" xlink:title="Receives and handles interruptions from the necessary modules. ">
<polygon fill="#ffffff" stroke="#000000" points="218,-28.5 218,-47.5 295,-47.5 295,-28.5 218,-28.5"/>
<text text-anchor="middle" x="256.5" y="-35.5" font-family="Helvetica,sans-Serif" font-size="10.00" fill="#000000">interrupt_cicle</text>
</a>
</g>
</g>
<!-- Node10&#45;&gt;Node11 -->
<g id="edge9" class="edge">
<title>Node10&#45;&gt;Node11</title>
<path fill="none" stroke="#191970" d="M192.3939,-38C200.8555,-38 209.6362,-38 217.8849,-38"/>
<polygon fill="#191970" stroke="#191970" points="192.288,-34.5001 182.288,-38 192.2879,-41.5001 192.288,-34.5001"/>
</g>
<!-- Node11&#45;&gt;Node4 -->
<g id="edge13" class="edge">
<title>Node11&#45;&gt;Node4</title>
<path fill="none" stroke="#191970" d="M304.9393,-44.0815C355.0965,-51.0185 435.4354,-63.9276 503,-83 523.3557,-88.7461 545.7435,-97.6556 561.6461,-104.4512"/>
<polygon fill="#191970" stroke="#191970" points="305.397,-40.6116 295.0166,-42.7327 304.4541,-47.5478 305.397,-40.6116"/>
</g>
<!-- Node12 -->
<g id="node10" class="node">
<title>Node12</title>
<g id="a_node10"><a xlink:href="game_8h.html#a382ed7c0cb3201c13d4396ad9afc5a3e" target="_top" xlink:title="Lets the player initialize the board unsign a graphical interface 10 boats must be positioned before ...">
<polygon fill="#ffffff" stroke="#000000" points="539,-66.5 539,-85.5 627,-85.5 627,-66.5 539,-66.5"/>
<text text-anchor="middle" x="583" y="-73.5" font-family="Helvetica,sans-Serif" font-size="10.00" fill="#000000">game_init_board</text>
</a>
</g>
</g>
<!-- Node11&#45;&gt;Node12 -->
<g id="edge10" class="edge">
<title>Node11&#45;&gt;Node12</title>
<path fill="none" stroke="#191970" d="M302.4081,-26.2632C352.7358,-15.4768 435.3322,-3.9405 503,-24 530.9522,-32.2862 558.2826,-53.757 572.6344,-66.367"/>
<polygon fill="#191970" stroke="#191970" points="301.4827,-22.8834 292.4813,-28.4713 303.0027,-29.7164 301.4827,-22.8834"/>
</g>
<!-- Node13 -->
<g id="node11" class="node">
<title>Node13</title>
<g id="a_node11"><a xlink:href="game_8h.html#abdd70639378b19cfc929273ef7b4ff45" target="_top" xlink:title="Uses timer interruptions to wait a predetermined time. ">
<polygon fill="#ffffff" stroke="#000000" points="331,-142.5 331,-161.5 387,-161.5 387,-142.5 331,-142.5"/>
<text text-anchor="middle" x="359" y="-149.5" font-family="Helvetica,sans-Serif" font-size="10.00" fill="#000000">idle_time</text>
</a>
</g>
</g>
<!-- Node11&#45;&gt;Node13 -->
<g id="edge14" class="edge">
<title>Node11&#45;&gt;Node13</title>
<path fill="none" stroke="#191970" d="M272.203,-55.4648C294.0776,-79.7937 332.9787,-123.0592 350.283,-142.305"/>
<polygon fill="#191970" stroke="#191970" points="274.5278,-52.8157 265.2391,-47.7196 269.3225,-57.4959 274.5278,-52.8157"/>
</g>
<!-- Node17 -->
<g id="node15" class="node">
<title>Node17</title>
<g id="a_node15"><a xlink:href="menu_8h.html#a4cc4e9de5c448babdb711586dd12bec0" target="_top" xlink:title="graphical interface for the main menu ">
<polygon fill="#ffffff" stroke="#000000" points="783,-246.5 783,-265.5 824,-265.5 824,-246.5 783,-246.5"/>
<text text-anchor="middle" x="803.5" y="-253.5" font-family="Helvetica,sans-Serif" font-size="10.00" fill="#000000">menu</text>
</a>
</g>
</g>
<!-- Node11&#45;&gt;Node17 -->
<g id="edge24" class="edge">
<title>Node11&#45;&gt;Node17</title>
<path fill="none" stroke="#191970" d="M261.4274,-57.7946C278.0828,-119.4593 338.3403,-304 463,-304 463,-304 463,-304 583,-304 658.0255,-304 744.1919,-277.1404 782.8491,-263.6057"/>
<polygon fill="#191970" stroke="#191970" points="264.7272,-56.5772 258.8192,-47.7825 257.9533,-58.3419 264.7272,-56.5772"/>
</g>
<!-- Node12&#45;&gt;Node5 -->
<g id="edge11" class="edge">
<title>Node12&#45;&gt;Node5</title>
<path fill="none" stroke="#191970" d="M620.4161,-90.4647C622.7234,-91.8668 624.9415,-93.3776 627,-95 647.9438,-111.5066 645.2667,-123.0841 663,-143 668.7287,-149.4338 675.6971,-156.0945 681.4224,-161.3047"/>
<polygon fill="#191970" stroke="#191970" points="621.6985,-87.1831 611.2242,-85.5894 618.4185,-93.3671 621.6985,-87.1831"/>
</g>
<!-- Node12&#45;&gt;Node9 -->
<g id="edge12" class="edge">
<title>Node12&#45;&gt;Node9</title>
<path fill="none" stroke="#191970" d="M614.7986,-89.6901C618.9065,-91.4708 623.0547,-93.2749 627,-95 641.6989,-101.4274 658.2159,-108.7409 670.9864,-114.4155"/>
<polygon fill="#191970" stroke="#191970" points="615.9689,-86.383 605.4012,-85.6261 613.1904,-92.808 615.9689,-86.383"/>
</g>
<!-- Node13&#45;&gt;Node4 -->
<g id="edge17" class="edge">
<title>Node13&#45;&gt;Node4</title>
<path fill="none" stroke="#191970" d="M372.3225,-134.6024C383.9845,-120.9189 402.2726,-102.892 423,-95 469.0101,-77.4815 527.3813,-93.0314 559.3701,-104.4609"/>
<polygon fill="#191970" stroke="#191970" points="369.5493,-132.465 365.9549,-142.4315 374.98,-136.8819 369.5493,-132.465"/>
</g>
<!-- Node13&#45;&gt;Node5 -->
<g id="edge15" class="edge">
<title>Node13&#45;&gt;Node5</title>
<path fill="none" stroke="#191970" d="M397.1532,-161.6315C405.6111,-163.4059 414.5676,-165.0093 423,-166 510.6083,-176.2931 615.317,-174.1389 664.4436,-172.2873"/>
<polygon fill="#191970" stroke="#191970" points="397.6732,-158.1618 387.1523,-159.4119 396.1564,-164.9955 397.6732,-158.1618"/>
</g>
<!-- Node13&#45;&gt;Node9 -->
<g id="edge16" class="edge">
<title>Node13&#45;&gt;Node9</title>
<path fill="none" stroke="#191970" d="M397.3403,-150.0764C449.4225,-147.2821 545.4006,-141.4893 627,-133 638.7593,-131.7766 651.6592,-130.0807 662.8782,-128.4906"/>
<polygon fill="#191970" stroke="#191970" points="397.0213,-146.5883 387.22,-150.6112 397.3908,-153.5786 397.0213,-146.5883"/>
</g>
<!-- Node14 -->
<g id="node12" class="node">
<title>Node14</title>
<g id="a_node12"><a xlink:href="game_8h.html#afb1a61b5802eed643536ce45225d2000" target="_top" xlink:title="Randomly fires upon player&#39;s boats using a state machine to simulate a strategy In case of a hit the ...">
<polygon fill="#ffffff" stroke="#000000" points="541.5,-218.5 541.5,-237.5 624.5,-237.5 624.5,-218.5 541.5,-218.5"/>
<text text-anchor="middle" x="583" y="-225.5" font-family="Helvetica,sans-Serif" font-size="10.00" fill="#000000">game_round_ai</text>
</a>
</g>
</g>
<!-- Node13&#45;&gt;Node14 -->
<g id="edge18" class="edge">
<title>Node13&#45;&gt;Node14</title>
<path fill="none" stroke="#191970" d="M365.5636,-171.2101C374.5236,-194.0358 392.9912,-231.0332 423,-247 468.3152,-271.111 530.8744,-250.8945 562.6739,-237.5099"/>
<polygon fill="#191970" stroke="#191970" points="368.7542,-169.7457 362.0139,-161.5714 362.1855,-172.1649 368.7542,-169.7457"/>
</g>
<!-- Node15 -->
<g id="node13" class="node">
<title>Node15</title>
<g id="a_node13"><a xlink:href="game_8h.html#a428e51196f5847d0e5e50822aa1c9716" target="_top" xlink:title="displays the end game screen (lost) ">
<polygon fill="#ffffff" stroke="#000000" points="423,-218.5 423,-237.5 503,-237.5 503,-218.5 423,-218.5"/>
<text text-anchor="middle" x="463" y="-225.5" font-family="Helvetica,sans-Serif" font-size="10.00" fill="#000000">game_over_sp</text>
</a>
</g>
</g>
<!-- Node13&#45;&gt;Node15 -->
<g id="edge20" class="edge">
<title>Node13&#45;&gt;Node15</title>
<path fill="none" stroke="#191970" d="M377.8053,-168.4638C390.2728,-179.0781 407.1884,-192.9168 423,-204 430.2948,-209.1133 438.7058,-214.2635 445.9271,-218.4749"/>
<polygon fill="#191970" stroke="#191970" points="379.8151,-165.5757 369.9529,-161.7041 375.2482,-170.8808 379.8151,-165.5757"/>
</g>
<!-- Node16 -->
<g id="node14" class="node">
<title>Node16</title>
<g id="a_node14"><a xlink:href="game_8h.html#a0ecf3df63f0053cd3177ad9dd3716b54" target="_top" xlink:title="displays the end game screen (won) ">
<polygon fill="#ffffff" stroke="#000000" points="432.5,-104.5 432.5,-123.5 493.5,-123.5 493.5,-104.5 432.5,-104.5"/>
<text text-anchor="middle" x="463" y="-111.5" font-family="Helvetica,sans-Serif" font-size="10.00" fill="#000000">winner_sp</text>
</a>
</g>
</g>
<!-- Node13&#45;&gt;Node16 -->
<g id="edge22" class="edge">
<title>Node13&#45;&gt;Node16</title>
<path fill="none" stroke="#191970" d="M394.9019,-138.882C408.6571,-133.8561 424.0796,-128.2209 436.7648,-123.5859"/>
<polygon fill="#191970" stroke="#191970" points="393.435,-135.6916 385.2436,-142.411 395.8374,-142.2664 393.435,-135.6916"/>
</g>
<!-- Node14&#45;&gt;Node5 -->
<g id="edge19" class="edge">
<title>Node14&#45;&gt;Node5</title>
<path fill="none" stroke="#191970" d="M610.4933,-213.6884C630.4167,-203.3173 656.8049,-189.581 674.1991,-180.5265"/>
<polygon fill="#191970" stroke="#191970" points="608.8293,-210.6088 601.5752,-218.3307 612.0615,-216.8179 608.8293,-210.6088"/>
</g>
<!-- Node15&#45;&gt;Node14 -->
<g id="edge21" class="edge">
<title>Node15&#45;&gt;Node14</title>
<path fill="none" stroke="#191970" d="M513.5739,-228C522.8395,-228 532.4127,-228 541.3797,-228"/>
<polygon fill="#191970" stroke="#191970" points="513.2921,-224.5001 503.2921,-228 513.2921,-231.5001 513.2921,-224.5001"/>
</g>
<!-- Node16&#45;&gt;Node4 -->
<g id="edge23" class="edge">
<title>Node16&#45;&gt;Node4</title>
<path fill="none" stroke="#191970" d="M503.8666,-114C515.4419,-114 528.0783,-114 539.7872,-114"/>
<polygon fill="#191970" stroke="#191970" points="503.5916,-110.5001 493.5916,-114 503.5915,-117.5001 503.5916,-110.5001"/>
</g>
<!-- Node17&#45;&gt;Node7 -->
<g id="edge26" class="edge">
<title>Node17&#45;&gt;Node7</title>
<path fill="none" stroke="#191970" d="M831.2166,-241.6526C855.8209,-228.9162 891.088,-210.6603 912.438,-199.6085"/>
<polygon fill="#191970" stroke="#191970" points="829.3113,-238.6977 822.0396,-246.403 832.5293,-244.9142 829.3113,-238.6977"/>
</g>
<!-- Node17&#45;&gt;Node17 -->
<g id="edge25" class="edge">
<title>Node17&#45;&gt;Node17</title>
<path fill="none" stroke="#191970" d="M783.1306,-275.4C784.491,-280.3146 791.2808,-284 803.5,-284 823.0508,-284 828.7022,-274.5653 820.4542,-265.7571"/>
<polygon fill="#191970" stroke="#191970" points="786.5065,-276.3518 786.5458,-265.7571 779.9081,-274.0149 786.5065,-276.3518"/>
</g>
</g>
</svg>
        <g id="navigator" transform="translate(0 0)" fill="#404254">
                <rect fill="#f2f5e9" fill-opacity="0.5" stroke="#606060" stroke-width=".5" x="0" y="0" width="60" height="60"/>
                <use id="zoomplus" xlink:href="#zoomPlus" x="17" y="9" onmousedown="handleZoom(evt,'in')"/>
                <use id="zoomminus" xlink:href="#zoomMin" x="42" y="9" onmousedown="handleZoom(evt,'out')"/>
                <use id="reset" xlink:href="#resetDef" x="30" y="36" onmousedown="handleReset()"/>
                <g id="arrowUp" xlink:href="#dirArrow" transform="translate(30 24)" onmousedown="handlePan(0,-1)">
                  <use xlink:href="#rim" fill="#404040">
                        <set attributeName="fill" to="#808080" begin="arrowUp.mouseover" end="arrowUp.mouseout"/>
                  </use>
                  <path fill="none" stroke="white" stroke-width="1.5" d="M0,-3.0v7 M-2.5,-0.5L0,-3.0L2.5,-0.5"/>
                </g>
                <g id="arrowRight" xlink:href="#dirArrow" transform="rotate(90) translate(36 -43)" onmousedown="handlePan(1,0)">
                  <use xlink:href="#rim" fill="#404040">
                        <set attributeName="fill" to="#808080" begin="arrowRight.mouseover" end="arrowRight.mouseout"/>
                  </use>
                  <path fill="none" stroke="white" stroke-width="1.5" d="M0,-3.0v7 M-2.5,-0.5L0,-3.0L2.5,-0.5"/>
                </g>
                <g id="arrowDown" xlink:href="#dirArrow" transform="rotate(180) translate(-30 -48)" onmousedown="handlePan(0,1)">
                  <use xlink:href="#rim" fill="#404040">
                        <set attributeName="fill" to="#808080" begin="arrowDown.mouseover" end="arrowDown.mouseout"/>
                  </use>
                  <path fill="none" stroke="white" stroke-width="1.5" d="M0,-3.0v7 M-2.5,-0.5L0,-3.0L2.5,-0.5"/>
                </g>
                <g id="arrowLeft" xlink:href="#dirArrow" transform="rotate(270) translate(-36 17)" onmousedown="handlePan(-1,0)">
                  <use xlink:href="#rim" fill="#404040">
                        <set attributeName="fill" to="#808080" begin="arrowLeft.mouseover" end="arrowLeft.mouseout"/>
                  </use>
                  <path fill="none" stroke="white" stroke-width="1.5" d="M0,-3.0v7 M-2.5,-0.5L0,-3.0L2.5,-0.5"/>
                </g>
        </g>
        <svg viewBox="0 0 15 15" width="100%" height="30px" preserveAspectRatio="xMaxYMin meet">
         <g id="arrow_out" transform="scale(0.3 0.3)">
          <a xlink:href="kbd_8h_aabe32d3d3ebb9ccff7ca4b7992f48209_icgraph_org.svg" target="_base">
           <rect id="button" ry="5" rx="5" y="6" x="6" height="38" width="38"
                fill="#f2f5e9" fill-opacity="0.5" stroke="#606060" stroke-width="1.0"/>
           <path id="arrow"
             d="M 11.500037,31.436501 C 11.940474,20.09759 22.043105,11.32322 32.158766,21.979434 L 37.068811,17.246167 C 37.068811,17.246167 37.088388,32 37.088388,32 L 22.160133,31.978069 C 22.160133,31.978069 26.997745,27.140456 26.997745,27.140456 C 18.528582,18.264221 13.291696,25.230495 11.500037,31.436501 z"
             style="fill:#404040;"/>
          </a>
         </g>
        </svg>
</svg>
