<?xml version="1.0" encoding="UTF-8" standalone="no"?>
<!DOCTYPE svg PUBLIC "-//W3C//DTD SVG 1.1//EN"
 "http://www.w3.org/Graphics/SVG/1.1/DTD/svg11.dtd">
<!-- Generated by graphviz version 2.40.1 (20161225.0304)
 -->
<!-- Title: kbd_subscribe_int Pages: 1 -->
<svg width="489pt" height="28pt"
 viewBox="0.00 0.00 489.00 28.00" xmlns="http://www.w3.org/2000/svg" xmlns:xlink="http://www.w3.org/1999/xlink">
<g id="graph0" class="graph" transform="scale(1 1) rotate(0) translate(4 24)">
<title>kbd_subscribe_int</title>
<polygon fill="#ffffff" stroke="transparent" points="-4,4 -4,-24 485,-24 485,4 -4,4"/>
<!-- Node34 -->
<g id="node1" class="node">
<title>Node34</title>
<polygon fill="#bfbfbf" stroke="#000000" points="0,-.5 0,-19.5 95,-19.5 95,-.5 0,-.5"/>
<text text-anchor="middle" x="47.5" y="-7.5" font-family="Helvetica,sans-Serif" font-size="10.00" fill="#000000">kbd_subscribe_int</text>
</g>
<!-- Node35 -->
<g id="node2" class="node">
<title>Node35</title>
<g id="a_node2"><a xlink:href="interrupt__cicle_8h.html#a9553b9e9f5fa6db9b6fa41da73c82341" target="_top" xlink:title="Subscribes interrupts of the necessary modules. ">
<polygon fill="#ffffff" stroke="#000000" points="131,-.5 131,-19.5 235,-19.5 235,-.5 131,-.5"/>
<text text-anchor="middle" x="183" y="-7.5" font-family="Helvetica,sans-Serif" font-size="10.00" fill="#000000">enable_components</text>
</a>
</g>
</g>
<!-- Node34&#45;&gt;Node35 -->
<g id="edge1" class="edge">
<title>Node34&#45;&gt;Node35</title>
<path fill="none" stroke="#191970" d="M105.3567,-10C113.7372,-10 122.3241,-10 130.5894,-10"/>
<polygon fill="#191970" stroke="#191970" points="105.2723,-6.5001 95.2722,-10 105.2722,-13.5001 105.2723,-6.5001"/>
</g>
<!-- Node36 -->
<g id="node3" class="node">
<title>Node36</title>
<g id="a_node3"><a xlink:href="menu_8h.html#a6ed6ac9188a15c74b9d07d12b34397c0" target="_top" xlink:title="Subscribes interruptions of the necessary modules Calls main menu and game functions. ">
<polygon fill="#ffffff" stroke="#000000" points="271,-.5 271,-19.5 363,-19.5 363,-.5 271,-.5"/>
<text text-anchor="middle" x="317" y="-7.5" font-family="Helvetica,sans-Serif" font-size="10.00" fill="#000000">game_main_cicle</text>
</a>
</g>
</g>
<!-- Node35&#45;&gt;Node36 -->
<g id="edge2" class="edge">
<title>Node35&#45;&gt;Node36</title>
<path fill="none" stroke="#191970" d="M245.2298,-10C253.8516,-10 262.5793,-10 270.8379,-10"/>
<polygon fill="#191970" stroke="#191970" points="245.1916,-6.5001 235.1916,-10 245.1916,-13.5001 245.1916,-6.5001"/>
</g>
<!-- Node37 -->
<g id="node4" class="node">
<title>Node37</title>
<g id="a_node4"><a xlink:href="proj_8c.html#a2a16f651eccbd248e1ad3b3b924b143b" target="_top" xlink:title="proj_main_loop">
<polygon fill="#ffffff" stroke="#000000" points="399,-.5 399,-19.5 481,-19.5 481,-.5 399,-.5"/>
<text text-anchor="middle" x="440" y="-7.5" font-family="Helvetica,sans-Serif" font-size="10.00" fill="#000000">proj_main_loop</text>
</a>
</g>
</g>
<!-- Node36&#45;&gt;Node37 -->
<g id="edge3" class="edge">
<title>Node36&#45;&gt;Node37</title>
<path fill="none" stroke="#191970" d="M373.1908,-10C381.8339,-10 390.6179,-10 398.8531,-10"/>
<polygon fill="#191970" stroke="#191970" points="373.1506,-6.5001 363.1506,-10 373.1506,-13.5001 373.1506,-6.5001"/>
</g>
</g>
</svg>
