<?xml version="1.0" encoding="UTF-8" standalone="no"?>
<!DOCTYPE svg PUBLIC "-//W3C//DTD SVG 1.1//EN"
 "http://www.w3.org/Graphics/SVG/1.1/DTD/svg11.dtd">
<!-- Generated by graphviz version 2.40.1 (20161225.0304)
 -->
<!-- Title: kbd_unsubscribe_int Pages: 1 -->
<svg width="502pt" height="28pt"
 viewBox="0.00 0.00 502.00 28.00" xmlns="http://www.w3.org/2000/svg" xmlns:xlink="http://www.w3.org/1999/xlink">
<g id="graph0" class="graph" transform="scale(1 1) rotate(0) translate(4 24)">
<title>kbd_unsubscribe_int</title>
<polygon fill="#ffffff" stroke="transparent" points="-4,4 -4,-24 498,-24 498,4 -4,4"/>
<!-- Node39 -->
<g id="node1" class="node">
<title>Node39</title>
<polygon fill="#bfbfbf" stroke="#000000" points="0,-.5 0,-19.5 106,-19.5 106,-.5 0,-.5"/>
<text text-anchor="middle" x="53" y="-7.5" font-family="Helvetica,sans-Serif" font-size="10.00" fill="#000000">kbd_unsubscribe_int</text>
</g>
<!-- Node40 -->
<g id="node2" class="node">
<title>Node40</title>
<g id="a_node2"><a xlink:href="interrupt__cicle_8h.html#a3c004d0012483dd8dc40d901b176e8a7" target="_top" xlink:title="Unsubscribes interrupts from the subscribed modules. ">
<polygon fill="#ffffff" stroke="#000000" points="142,-.5 142,-19.5 248,-19.5 248,-.5 142,-.5"/>
<text text-anchor="middle" x="195" y="-7.5" font-family="Helvetica,sans-Serif" font-size="10.00" fill="#000000">disable_components</text>
</a>
</g>
</g>
<!-- Node39&#45;&gt;Node40 -->
<g id="edge1" class="edge">
<title>Node39&#45;&gt;Node40</title>
<path fill="none" stroke="#191970" d="M116.5173,-10C124.9959,-10 133.6185,-10 141.8941,-10"/>
<polygon fill="#191970" stroke="#191970" points="116.2796,-6.5001 106.2796,-10 116.2795,-13.5001 116.2796,-6.5001"/>
</g>
<!-- Node41 -->
<g id="node3" class="node">
<title>Node41</title>
<g id="a_node3"><a xlink:href="menu_8h.html#a6ed6ac9188a15c74b9d07d12b34397c0" target="_top" xlink:title="Subscribes interruptions of the necessary modules Calls main menu and game functions. ">
<polygon fill="#ffffff" stroke="#000000" points="284,-.5 284,-19.5 376,-19.5 376,-.5 284,-.5"/>
<text text-anchor="middle" x="330" y="-7.5" font-family="Helvetica,sans-Serif" font-size="10.00" fill="#000000">game_main_cicle</text>
</a>
</g>
</g>
<!-- Node40&#45;&gt;Node41 -->
<g id="edge2" class="edge">
<title>Node40&#45;&gt;Node41</title>
<path fill="none" stroke="#191970" d="M258.5656,-10C266.9985,-10 275.5136,-10 283.582,-10"/>
<polygon fill="#191970" stroke="#191970" points="258.3556,-6.5001 248.3556,-10 258.3555,-13.5001 258.3556,-6.5001"/>
</g>
<!-- Node42 -->
<g id="node4" class="node">
<title>Node42</title>
<g id="a_node4"><a xlink:href="proj_8c.html#a2a16f651eccbd248e1ad3b3b924b143b" target="_top" xlink:title="proj_main_loop">
<polygon fill="#ffffff" stroke="#000000" points="412,-.5 412,-19.5 494,-19.5 494,-.5 412,-.5"/>
<text text-anchor="middle" x="453" y="-7.5" font-family="Helvetica,sans-Serif" font-size="10.00" fill="#000000">proj_main_loop</text>
</a>
</g>
</g>
<!-- Node41&#45;&gt;Node42 -->
<g id="edge3" class="edge">
<title>Node41&#45;&gt;Node42</title>
<path fill="none" stroke="#191970" d="M386.1908,-10C394.8339,-10 403.6179,-10 411.8531,-10"/>
<polygon fill="#191970" stroke="#191970" points="386.1506,-6.5001 376.1506,-10 386.1506,-13.5001 386.1506,-6.5001"/>
</g>
</g>
</svg>
