<?xml version="1.0" encoding="UTF-8" standalone="no"?>
<!DOCTYPE svg PUBLIC "-//W3C//DTD SVG 1.1//EN"
 "http://www.w3.org/Graphics/SVG/1.1/DTD/svg11.dtd">
<!-- Generated by graphviz version 2.40.1 (20161225.0304)
 -->
<!-- Title: kbc_ih Pages: 1 -->
<svg width="966pt" height="305pt"
 viewBox="0.00 0.00 966.00 304.86" xmlns="http://www.w3.org/2000/svg" xmlns:xlink="http://www.w3.org/1999/xlink">
<g id="graph0" class="graph" transform="scale(1 1) rotate(0) translate(4 300.8574)">
<title>kbc_ih</title>
<polygon fill="#ffffff" stroke="transparent" points="-4,4 -4,-300.8574 962,-300.8574 962,4 -4,4"/>
<!-- Node19 -->
<g id="node1" class="node">
<title>Node19</title>
<polygon fill="#bfbfbf" stroke="#000000" points="0,-47.5 0,-66.5 45,-66.5 45,-47.5 0,-47.5"/>
<text text-anchor="middle" x="22.5" y="-54.5" font-family="Helvetica,sans-Serif" font-size="10.00" fill="#000000">kbc_ih</text>
</g>
<!-- Node20 -->
<g id="node2" class="node">
<title>Node20</title>
<g id="a_node2"><a xlink:href="interrupt__cicle_8h.html#a0718d5c75848a080a2122df6548d2422" target="_top" xlink:title="Receives and handles interruptions from the necessary modules. ">
<polygon fill="#ffffff" stroke="#000000" points="81,-47.5 81,-66.5 158,-66.5 158,-47.5 81,-47.5"/>
<text text-anchor="middle" x="119.5" y="-54.5" font-family="Helvetica,sans-Serif" font-size="10.00" fill="#000000">interrupt_cicle</text>
</a>
</g>
</g>
<!-- Node19&#45;&gt;Node20 -->
<g id="edge1" class="edge">
<title>Node19&#45;&gt;Node20</title>
<path fill="none" stroke="#191970" d="M55.6532,-57C63.7293,-57 72.4385,-57 80.7492,-57"/>
<polygon fill="#191970" stroke="#191970" points="55.4877,-53.5001 45.4876,-57 55.4876,-60.5001 55.4877,-53.5001"/>
</g>
<!-- Node21 -->
<g id="node3" class="node">
<title>Node21</title>
<g id="a_node3"><a xlink:href="game_8h.html#a382ed7c0cb3201c13d4396ad9afc5a3e" target="_top" xlink:title="Lets the player initialize the board unsign a graphical interface 10 boats must be positioned before ...">
<polygon fill="#ffffff" stroke="#000000" points="402,-66.5 402,-85.5 490,-85.5 490,-66.5 402,-66.5"/>
<text text-anchor="middle" x="446" y="-73.5" font-family="Helvetica,sans-Serif" font-size="10.00" fill="#000000">game_init_board</text>
</a>
</g>
</g>
<!-- Node20&#45;&gt;Node21 -->
<g id="edge2" class="edge">
<title>Node20&#45;&gt;Node21</title>
<path fill="none" stroke="#191970" d="M168.1974,-55.7983C218.0137,-55.0823 297.5878,-55.3595 366,-62 377.6482,-63.1307 390.1527,-64.9998 401.7338,-67.0097"/>
<polygon fill="#191970" stroke="#191970" points="167.9751,-52.3014 158.0336,-55.9643 168.0894,-59.3005 167.9751,-52.3014"/>
</g>
<!-- Node27 -->
<g id="node9" class="node">
<title>Node27</title>
<g id="a_node9"><a xlink:href="game_8h.html#aaeeee1282b90aa12468a1862c7871ee4" target="_top" xlink:title="Lets the player fire against the enemy&#39;s boats using a graphical interface Shows previously hit cells...">
<polygon fill="#ffffff" stroke="#000000" points="403,-142.5 403,-161.5 489,-161.5 489,-142.5 403,-142.5"/>
<text text-anchor="middle" x="446" y="-149.5" font-family="Helvetica,sans-Serif" font-size="10.00" fill="#000000">game_round_sp</text>
</a>
</g>
</g>
<!-- Node20&#45;&gt;Node27 -->
<g id="edge9" class="edge">
<title>Node20&#45;&gt;Node27</title>
<path fill="none" stroke="#191970" d="M161.9747,-69.3586C227.9676,-88.5602 353.7107,-125.1471 413.2208,-142.4624"/>
<polygon fill="#191970" stroke="#191970" points="162.8806,-65.9772 152.301,-66.5439 160.9249,-72.6984 162.8806,-65.9772"/>
</g>
<!-- Node28 -->
<g id="node10" class="node">
<title>Node28</title>
<g id="a_node10"><a xlink:href="game_8h.html#abdd70639378b19cfc929273ef7b4ff45" target="_top" xlink:title="Uses timer interruptions to wait a predetermined time. ">
<polygon fill="#ffffff" stroke="#000000" points="194,-180.5 194,-199.5 250,-199.5 250,-180.5 194,-180.5"/>
<text text-anchor="middle" x="222" y="-187.5" font-family="Helvetica,sans-Serif" font-size="10.00" fill="#000000">idle_time</text>
</a>
</g>
</g>
<!-- Node20&#45;&gt;Node28 -->
<g id="edge12" class="edge">
<title>Node20&#45;&gt;Node28</title>
<path fill="none" stroke="#191970" d="M133.2109,-74.7907C155.1027,-103.1967 197.2315,-157.8614 214.4187,-180.1628"/>
<polygon fill="#191970" stroke="#191970" points="135.7481,-72.3492 126.8715,-66.565 130.2036,-76.6223 135.7481,-72.3492"/>
</g>
<!-- Node32 -->
<g id="node14" class="node">
<title>Node32</title>
<g id="a_node14"><a xlink:href="menu_8h.html#a4cc4e9de5c448babdb711586dd12bec0" target="_top" xlink:title="graphical interface for the main menu ">
<polygon fill="#ffffff" stroke="#000000" points="646,-19.5 646,-38.5 687,-38.5 687,-19.5 646,-19.5"/>
<text text-anchor="middle" x="666.5" y="-26.5" font-family="Helvetica,sans-Serif" font-size="10.00" fill="#000000">menu</text>
</a>
</g>
</g>
<!-- Node20&#45;&gt;Node32 -->
<g id="edge22" class="edge">
<title>Node20&#45;&gt;Node32</title>
<path fill="none" stroke="#191970" d="M149.0963,-43.4037C188.5687,-26.5435 261.0284,0 326,0 326,0 326,0 446,0 520.133,0 607.0977,-16.3125 645.9468,-24.4688"/>
<polygon fill="#191970" stroke="#191970" points="147.5634,-40.2537 139.7963,-47.4595 150.3617,-46.6701 147.5634,-40.2537"/>
</g>
<!-- Node22 -->
<g id="node4" class="node">
<title>Node22</title>
<g id="a_node4"><a xlink:href="game_8h.html#aff1f849979a9ca10d6ff2bce0dfb7fd5" target="_top" xlink:title="Single Player Iniciates the boards from the respective players Starts the game loop (1 turn per playe...">
<polygon fill="#ffffff" stroke="#000000" points="527.5,-142.5 527.5,-161.5 583.5,-161.5 583.5,-142.5 527.5,-142.5"/>
<text text-anchor="middle" x="555.5" y="-149.5" font-family="Helvetica,sans-Serif" font-size="10.00" fill="#000000">game_sp</text>
</a>
</g>
</g>
<!-- Node21&#45;&gt;Node22 -->
<g id="edge3" class="edge">
<title>Node21&#45;&gt;Node22</title>
<path fill="none" stroke="#191970" d="M467.3378,-91.6151C483.3446,-103.228 505.8701,-119.3571 526,-133 530.6394,-136.1443 535.7542,-139.4825 540.4034,-142.4691"/>
<polygon fill="#191970" stroke="#191970" points="469.3173,-88.727 459.1723,-85.6726 465.1983,-94.3869 469.3173,-88.727"/>
</g>
<!-- Node26 -->
<g id="node8" class="node">
<title>Node26</title>
<g id="a_node8"><a xlink:href="game_8h.html#a03f40ddf75045683b3f488d4839937ab" target="_top" xlink:title="Multiplayer. ">
<polygon fill="#ffffff" stroke="#000000" points="526,-104.5 526,-123.5 585,-123.5 585,-104.5 526,-104.5"/>
<text text-anchor="middle" x="555.5" y="-111.5" font-family="Helvetica,sans-Serif" font-size="10.00" fill="#000000">game_mp</text>
</a>
</g>
</g>
<!-- Node21&#45;&gt;Node26 -->
<g id="edge7" class="edge">
<title>Node21&#45;&gt;Node26</title>
<path fill="none" stroke="#191970" d="M483.3792,-88.9718C497.9676,-94.0344 514.3917,-99.7341 527.8774,-104.4141"/>
<polygon fill="#191970" stroke="#191970" points="484.2263,-85.561 473.6315,-85.589 481.9313,-92.1741 484.2263,-85.561"/>
</g>
<!-- Node23 -->
<g id="node5" class="node">
<title>Node23</title>
<g id="a_node5"><a xlink:href="menu_8h.html#a95c8dcba38d720d3e4bd6fcf9a8ee279" target="_top" xlink:title="selects a menu option ">
<polygon fill="#ffffff" stroke="#000000" points="621,-104.5 621,-123.5 712,-123.5 712,-104.5 621,-104.5"/>
<text text-anchor="middle" x="666.5" y="-111.5" font-family="Helvetica,sans-Serif" font-size="10.00" fill="#000000">select_menu_opt</text>
</a>
</g>
</g>
<!-- Node22&#45;&gt;Node23 -->
<g id="edge4" class="edge">
<title>Node22&#45;&gt;Node23</title>
<path fill="none" stroke="#191970" d="M593.3913,-139.0282C608.1795,-133.9656 624.8285,-128.2659 638.499,-123.5859"/>
<polygon fill="#191970" stroke="#191970" points="591.8373,-135.8607 583.51,-142.411 594.1046,-142.4834 591.8373,-135.8607"/>
</g>
<!-- Node24 -->
<g id="node6" class="node">
<title>Node24</title>
<g id="a_node6"><a xlink:href="menu_8h.html#a6ed6ac9188a15c74b9d07d12b34397c0" target="_top" xlink:title="Subscribes interruptions of the necessary modules Calls main menu and game functions. ">
<polygon fill="#ffffff" stroke="#000000" points="748,-47.5 748,-66.5 840,-66.5 840,-47.5 748,-47.5"/>
<text text-anchor="middle" x="794" y="-54.5" font-family="Helvetica,sans-Serif" font-size="10.00" fill="#000000">game_main_cicle</text>
</a>
</g>
</g>
<!-- Node23&#45;&gt;Node24 -->
<g id="edge5" class="edge">
<title>Node23&#45;&gt;Node24</title>
<path fill="none" stroke="#191970" d="M697.2731,-100.2426C720.5688,-89.8281 751.9716,-75.7892 772.5897,-66.5716"/>
<polygon fill="#191970" stroke="#191970" points="695.5414,-97.1829 687.8406,-104.4595 698.3984,-103.5734 695.5414,-97.1829"/>
</g>
<!-- Node25 -->
<g id="node7" class="node">
<title>Node25</title>
<g id="a_node7"><a xlink:href="proj_8c.html#a2a16f651eccbd248e1ad3b3b924b143b" target="_top" xlink:title="proj_main_loop">
<polygon fill="#ffffff" stroke="#000000" points="876,-47.5 876,-66.5 958,-66.5 958,-47.5 876,-47.5"/>
<text text-anchor="middle" x="917" y="-54.5" font-family="Helvetica,sans-Serif" font-size="10.00" fill="#000000">proj_main_loop</text>
</a>
</g>
</g>
<!-- Node24&#45;&gt;Node25 -->
<g id="edge6" class="edge">
<title>Node24&#45;&gt;Node25</title>
<path fill="none" stroke="#191970" d="M850.1908,-57C858.8339,-57 867.6179,-57 875.8531,-57"/>
<polygon fill="#191970" stroke="#191970" points="850.1506,-53.5001 840.1506,-57 850.1506,-60.5001 850.1506,-53.5001"/>
</g>
<!-- Node26&#45;&gt;Node23 -->
<g id="edge8" class="edge">
<title>Node26&#45;&gt;Node23</title>
<path fill="none" stroke="#191970" d="M595.3594,-114C603.6038,-114 612.3495,-114 620.7839,-114"/>
<polygon fill="#191970" stroke="#191970" points="595.246,-110.5001 585.246,-114 595.2459,-117.5001 595.246,-110.5001"/>
</g>
<!-- Node27&#45;&gt;Node22 -->
<g id="edge10" class="edge">
<title>Node27&#45;&gt;Node22</title>
<path fill="none" stroke="#191970" d="M499.2954,-152C508.9786,-152 518.7225,-152 527.3144,-152"/>
<polygon fill="#191970" stroke="#191970" points="499.2773,-148.5001 489.2773,-152 499.2773,-155.5001 499.2773,-148.5001"/>
</g>
<!-- Node27&#45;&gt;Node26 -->
<g id="edge11" class="edge">
<title>Node27&#45;&gt;Node26</title>
<path fill="none" stroke="#191970" d="M483.3792,-139.0282C497.9676,-133.9656 514.3917,-128.2659 527.8774,-123.5859"/>
<polygon fill="#191970" stroke="#191970" points="481.9313,-135.8259 473.6315,-142.411 484.2263,-142.439 481.9313,-135.8259"/>
</g>
<!-- Node28&#45;&gt;Node22 -->
<g id="edge13" class="edge">
<title>Node28&#45;&gt;Node22</title>
<path fill="none" stroke="#191970" d="M260.3278,-191.5804C289.376,-192.3952 330.2559,-192.7226 366,-190 421.5933,-185.7655 435.5555,-183.0141 490,-171 502.3715,-168.27 515.8439,-164.5029 527.3356,-161.0425"/>
<polygon fill="#191970" stroke="#191970" points="260.2973,-188.0778 250.1926,-191.2629 260.0781,-195.0744 260.2973,-188.0778"/>
</g>
<!-- Node28&#45;&gt;Node26 -->
<g id="edge14" class="edge">
<title>Node28&#45;&gt;Node26</title>
<path fill="none" stroke="#191970" d="M235.8687,-172.5314C247.6349,-159.1273 265.7902,-141.5207 286,-133 367.2537,-98.7424 474.5091,-104.5538 525.7556,-110.0583"/>
<polygon fill="#191970" stroke="#191970" points="233.1644,-170.3092 229.407,-180.2154 238.5219,-174.8145 233.1644,-170.3092"/>
</g>
<!-- Node28&#45;&gt;Node27 -->
<g id="edge15" class="edge">
<title>Node28&#45;&gt;Node27</title>
<path fill="none" stroke="#191970" d="M260.1639,-186.0385C289.284,-182.7564 330.3296,-177.5714 366,-171 380.1794,-168.3878 395.6227,-164.8793 409.1256,-161.5884"/>
<polygon fill="#191970" stroke="#191970" points="259.5623,-182.5836 250.0071,-187.1606 260.331,-189.5412 259.5623,-182.5836"/>
</g>
<!-- Node29 -->
<g id="node11" class="node">
<title>Node29</title>
<g id="a_node11"><a xlink:href="game_8h.html#afb1a61b5802eed643536ce45225d2000" target="_top" xlink:title="Randomly fires upon player&#39;s boats using a state machine to simulate a strategy In case of a hit the ...">
<polygon fill="#ffffff" stroke="#000000" points="404.5,-256.5 404.5,-275.5 487.5,-275.5 487.5,-256.5 404.5,-256.5"/>
<text text-anchor="middle" x="446" y="-263.5" font-family="Helvetica,sans-Serif" font-size="10.00" fill="#000000">game_round_ai</text>
</a>
</g>
</g>
<!-- Node28&#45;&gt;Node29 -->
<g id="edge16" class="edge">
<title>Node28&#45;&gt;Node29</title>
<path fill="none" stroke="#191970" d="M228.5636,-209.2101C237.5236,-232.0358 255.9912,-269.0332 286,-285 331.3152,-309.111 393.8744,-288.8945 425.6739,-275.5099"/>
<polygon fill="#191970" stroke="#191970" points="231.7542,-207.7457 225.0139,-199.5714 225.1855,-210.1649 231.7542,-207.7457"/>
</g>
<!-- Node30 -->
<g id="node12" class="node">
<title>Node30</title>
<g id="a_node12"><a xlink:href="game_8h.html#a428e51196f5847d0e5e50822aa1c9716" target="_top" xlink:title="displays the end game screen (lost) ">
<polygon fill="#ffffff" stroke="#000000" points="286,-256.5 286,-275.5 366,-275.5 366,-256.5 286,-256.5"/>
<text text-anchor="middle" x="326" y="-263.5" font-family="Helvetica,sans-Serif" font-size="10.00" fill="#000000">game_over_sp</text>
</a>
</g>
</g>
<!-- Node28&#45;&gt;Node30 -->
<g id="edge18" class="edge">
<title>Node28&#45;&gt;Node30</title>
<path fill="none" stroke="#191970" d="M240.8053,-206.4638C253.2728,-217.0781 270.1884,-230.9168 286,-242 293.2948,-247.1133 301.7058,-252.2635 308.9271,-256.4749"/>
<polygon fill="#191970" stroke="#191970" points="242.8151,-203.5757 232.9529,-199.7041 238.2482,-208.8808 242.8151,-203.5757"/>
</g>
<!-- Node31 -->
<g id="node13" class="node">
<title>Node31</title>
<g id="a_node13"><a xlink:href="game_8h.html#a0ecf3df63f0053cd3177ad9dd3716b54" target="_top" xlink:title="displays the end game screen (won) ">
<polygon fill="#ffffff" stroke="#000000" points="295.5,-142.5 295.5,-161.5 356.5,-161.5 356.5,-142.5 295.5,-142.5"/>
<text text-anchor="middle" x="326" y="-149.5" font-family="Helvetica,sans-Serif" font-size="10.00" fill="#000000">winner_sp</text>
</a>
</g>
</g>
<!-- Node28&#45;&gt;Node31 -->
<g id="edge20" class="edge">
<title>Node28&#45;&gt;Node31</title>
<path fill="none" stroke="#191970" d="M257.9019,-176.882C271.6571,-171.8561 287.0796,-166.2209 299.7648,-161.5859"/>
<polygon fill="#191970" stroke="#191970" points="256.435,-173.6916 248.2436,-180.411 258.8374,-180.2664 256.435,-173.6916"/>
</g>
<!-- Node29&#45;&gt;Node22 -->
<g id="edge17" class="edge">
<title>Node29&#45;&gt;Node22</title>
<path fill="none" stroke="#191970" d="M477.0473,-251.355C481.6177,-248.5633 486.0951,-245.4284 490,-242 517.7372,-217.6476 540.5463,-179.5345 550.3408,-161.7502"/>
<polygon fill="#191970" stroke="#191970" points="475.2729,-248.3373 468.2699,-256.2877 478.7023,-254.4397 475.2729,-248.3373"/>
</g>
<!-- Node30&#45;&gt;Node29 -->
<g id="edge19" class="edge">
<title>Node30&#45;&gt;Node29</title>
<path fill="none" stroke="#191970" d="M376.5739,-266C385.8395,-266 395.4127,-266 404.3797,-266"/>
<polygon fill="#191970" stroke="#191970" points="376.2921,-262.5001 366.2921,-266 376.2921,-269.5001 376.2921,-262.5001"/>
</g>
<!-- Node31&#45;&gt;Node27 -->
<g id="edge21" class="edge">
<title>Node31&#45;&gt;Node27</title>
<path fill="none" stroke="#191970" d="M366.8666,-152C378.4419,-152 391.0783,-152 402.7872,-152"/>
<polygon fill="#191970" stroke="#191970" points="366.5916,-148.5001 356.5916,-152 366.5915,-155.5001 366.5916,-148.5001"/>
</g>
<!-- Node32&#45;&gt;Node24 -->
<g id="edge24" class="edge">
<title>Node32&#45;&gt;Node24</title>
<path fill="none" stroke="#191970" d="M697.1557,-35.7322C713.1403,-39.2426 732.9658,-43.5964 750.5076,-47.4487"/>
<polygon fill="#191970" stroke="#191970" points="697.7869,-32.2875 687.2688,-33.561 696.2853,-39.1246 697.7869,-32.2875"/>
</g>
<!-- Node32&#45;&gt;Node32 -->
<g id="edge23" class="edge">
<title>Node32&#45;&gt;Node32</title>
<path fill="none" stroke="#191970" d="M646.1306,-48.4C647.491,-53.3146 654.2808,-57 666.5,-57 686.0508,-57 691.7022,-47.5653 683.4542,-38.7571"/>
<polygon fill="#191970" stroke="#191970" points="649.5065,-49.3518 649.5458,-38.7571 642.9081,-47.0149 649.5065,-49.3518"/>
</g>
</g>
</svg>
