<?xml version="1.0" encoding="UTF-8" standalone="no"?>
<!DOCTYPE svg PUBLIC "-//W3C//DTD SVG 1.1//EN"
 "http://www.w3.org/Graphics/SVG/1.1/DTD/svg11.dtd">
<!-- Generated by graphviz version 2.40.1 (20161225.0304)
 -->
<!-- Title: menu Pages: 1 -->
<svg width="372pt" height="65pt"
 viewBox="0.00 0.00 372.00 65.00" xmlns="http://www.w3.org/2000/svg" xmlns:xlink="http://www.w3.org/1999/xlink">
<g id="graph0" class="graph" transform="scale(1 1) rotate(0) translate(4 61)">
<title>menu</title>
<polygon fill="#ffffff" stroke="transparent" points="-4,4 -4,-61 368,-61 368,4 -4,4"/>
<!-- Node84 -->
<g id="node1" class="node">
<title>Node84</title>
<polygon fill="#bfbfbf" stroke="#000000" points="0,-.5 0,-19.5 41,-19.5 41,-.5 0,-.5"/>
<text text-anchor="middle" x="20.5" y="-7.5" font-family="Helvetica,sans-Serif" font-size="10.00" fill="#000000">menu</text>
</g>
<!-- Node85 -->
<g id="node2" class="node">
<title>Node85</title>
<g id="a_node2"><a xlink:href="menu_8h.html#a4cc4e9de5c448babdb711586dd12bec0" target="_top" xlink:title="graphical interface for the main menu ">
<polygon fill="#ffffff" stroke="#000000" points="77,-19.5 77,-38.5 118,-38.5 118,-19.5 77,-19.5"/>
<text text-anchor="middle" x="97.5" y="-26.5" font-family="Helvetica,sans-Serif" font-size="10.00" fill="#000000">menu</text>
</a>
</g>
</g>
<!-- Node84&#45;&gt;Node85 -->
<g id="edge1" class="edge">
<title>Node84&#45;&gt;Node85</title>
<path fill="none" stroke="#191970" d="M50.9426,-17.5118C59.6165,-19.6521 68.8616,-21.9334 76.8085,-23.8943"/>
<polygon fill="#191970" stroke="#191970" points="51.6819,-14.0893 41.1346,-15.0917 50.0049,-20.8855 51.6819,-14.0893"/>
</g>
<!-- Node86 -->
<g id="node3" class="node">
<title>Node86</title>
<g id="a_node3"><a xlink:href="menu_8h.html#a6ed6ac9188a15c74b9d07d12b34397c0" target="_top" xlink:title="Subscribes interruptions of the necessary modules Calls main menu and game functions. ">
<polygon fill="#ffffff" stroke="#000000" points="154,-.5 154,-19.5 246,-19.5 246,-.5 154,-.5"/>
<text text-anchor="middle" x="200" y="-7.5" font-family="Helvetica,sans-Serif" font-size="10.00" fill="#000000">game_main_cicle</text>
</a>
</g>
</g>
<!-- Node84&#45;&gt;Node86 -->
<g id="edge5" class="edge">
<title>Node84&#45;&gt;Node86</title>
<path fill="none" stroke="#191970" d="M51.1726,-10C79.4004,-10 121.6562,-10 153.9382,-10"/>
<polygon fill="#191970" stroke="#191970" points="51.091,-6.5001 41.0909,-10 51.0909,-13.5001 51.091,-6.5001"/>
</g>
<!-- Node85&#45;&gt;Node85 -->
<g id="edge2" class="edge">
<title>Node85&#45;&gt;Node85</title>
<path fill="none" stroke="#191970" d="M83.5041,-48.7663C84.6034,-53.4965 89.2687,-57 97.5,-57 111.0078,-57 114.9124,-47.5653 109.2138,-38.7571"/>
<polygon fill="#191970" stroke="#191970" points="86.9756,-49.2849 85.7862,-38.7571 80.1508,-47.7288 86.9756,-49.2849"/>
</g>
<!-- Node85&#45;&gt;Node86 -->
<g id="edge3" class="edge">
<title>Node85&#45;&gt;Node86</title>
<path fill="none" stroke="#191970" d="M128.2878,-23.293C136.3476,-21.799 145.2152,-20.1552 153.8848,-18.5482"/>
<polygon fill="#191970" stroke="#191970" points="127.437,-19.891 118.2424,-25.1551 128.7128,-26.7738 127.437,-19.891"/>
</g>
<!-- Node87 -->
<g id="node4" class="node">
<title>Node87</title>
<g id="a_node4"><a xlink:href="proj_8c.html#a2a16f651eccbd248e1ad3b3b924b143b" target="_top" xlink:title="proj_main_loop">
<polygon fill="#ffffff" stroke="#000000" points="282,-.5 282,-19.5 364,-19.5 364,-.5 282,-.5"/>
<text text-anchor="middle" x="323" y="-7.5" font-family="Helvetica,sans-Serif" font-size="10.00" fill="#000000">proj_main_loop</text>
</a>
</g>
</g>
<!-- Node86&#45;&gt;Node87 -->
<g id="edge4" class="edge">
<title>Node86&#45;&gt;Node87</title>
<path fill="none" stroke="#191970" d="M256.1908,-10C264.8339,-10 273.6179,-10 281.8531,-10"/>
<polygon fill="#191970" stroke="#191970" points="256.1506,-6.5001 246.1506,-10 256.1506,-13.5001 256.1506,-6.5001"/>
</g>
</g>
</svg>
