<?xml version="1.0" encoding="UTF-8" standalone="no"?>
<!DOCTYPE svg PUBLIC "-//W3C//DTD SVG 1.1//EN"
 "http://www.w3.org/Graphics/SVG/1.1/DTD/svg11.dtd">
<!-- Generated by graphviz version 2.40.1 (20161225.0304)
 -->
<!-- Title: menu Pages: 1 -->
<svg width="295pt" height="46pt"
 viewBox="0.00 0.00 295.00 46.00" xmlns="http://www.w3.org/2000/svg" xmlns:xlink="http://www.w3.org/1999/xlink">
<g id="graph0" class="graph" transform="scale(1 1) rotate(0) translate(4 42)">
<title>menu</title>
<polygon fill="#ffffff" stroke="transparent" points="-4,4 -4,-42 291,-42 291,4 -4,4"/>
<!-- Node85 -->
<g id="node1" class="node">
<title>Node85</title>
<polygon fill="#bfbfbf" stroke="#000000" points="0,-.5 0,-19.5 41,-19.5 41,-.5 0,-.5"/>
<text text-anchor="middle" x="20.5" y="-7.5" font-family="Helvetica,sans-Serif" font-size="10.00" fill="#000000">menu</text>
</g>
<!-- Node85&#45;&gt;Node85 -->
<g id="edge1" class="edge">
<title>Node85&#45;&gt;Node85</title>
<path fill="none" stroke="#191970" d="M1.612,-29.4C2.8734,-34.3146 9.1694,-38 20.5,-38 38.6289,-38 43.8693,-28.5653 36.2212,-19.7571"/>
<polygon fill="#191970" stroke="#191970" points="4.9839,-30.3499 4.7788,-19.7571 -1.6666,-28.1658 4.9839,-30.3499"/>
</g>
<!-- Node86 -->
<g id="node2" class="node">
<title>Node86</title>
<g id="a_node2"><a xlink:href="menu_8h.html#a6ed6ac9188a15c74b9d07d12b34397c0" target="_top" xlink:title="Subscribes interruptions of the necessary modules Calls main menu and game functions. ">
<polygon fill="#ffffff" stroke="#000000" points="77,-.5 77,-19.5 169,-19.5 169,-.5 77,-.5"/>
<text text-anchor="middle" x="123" y="-7.5" font-family="Helvetica,sans-Serif" font-size="10.00" fill="#000000">game_main_cicle</text>
</a>
</g>
</g>
<!-- Node85&#45;&gt;Node86 -->
<g id="edge2" class="edge">
<title>Node85&#45;&gt;Node86</title>
<path fill="none" stroke="#191970" d="M51.2878,-10C59.3476,-10 68.2152,-10 76.8848,-10"/>
<polygon fill="#191970" stroke="#191970" points="51.2424,-6.5001 41.2424,-10 51.2424,-13.5001 51.2424,-6.5001"/>
</g>
<!-- Node87 -->
<g id="node3" class="node">
<title>Node87</title>
<g id="a_node3"><a xlink:href="proj_8c.html#a2a16f651eccbd248e1ad3b3b924b143b" target="_top" xlink:title="proj_main_loop">
<polygon fill="#ffffff" stroke="#000000" points="205,-.5 205,-19.5 287,-19.5 287,-.5 205,-.5"/>
<text text-anchor="middle" x="246" y="-7.5" font-family="Helvetica,sans-Serif" font-size="10.00" fill="#000000">proj_main_loop</text>
</a>
</g>
</g>
<!-- Node86&#45;&gt;Node87 -->
<g id="edge3" class="edge">
<title>Node86&#45;&gt;Node87</title>
<path fill="none" stroke="#191970" d="M179.1908,-10C187.8339,-10 196.6179,-10 204.8531,-10"/>
<polygon fill="#191970" stroke="#191970" points="179.1506,-6.5001 169.1506,-10 179.1506,-13.5001 179.1506,-6.5001"/>
</g>
</g>
</svg>
