<?xml version="1.0" encoding="UTF-8" standalone="no"?>
<!DOCTYPE svg PUBLIC "-//W3C//DTD SVG 1.1//EN"
 "http://www.w3.org/Graphics/SVG/1.1/DTD/svg11.dtd">
<!-- Generated by graphviz version 2.40.1 (20161225.0304)
 -->
<!-- Title: menu Pages: 1 -->
<svg width="605pt" height="294pt"
 viewBox="0.00 0.00 604.74 294.00" xmlns="http://www.w3.org/2000/svg" xmlns:xlink="http://www.w3.org/1999/xlink">
<g id="graph0" class="graph" transform="scale(1 1) rotate(0) translate(4 290)">
<title>menu</title>
<polygon fill="#ffffff" stroke="transparent" points="-4,4 -4,-290 600.7379,-290 600.7379,4 -4,4"/>
<!-- Node65 -->
<g id="node1" class="node">
<title>Node65</title>
<polygon fill="#bfbfbf" stroke="#000000" points=".7379,-95.5 .7379,-114.5 41.7379,-114.5 41.7379,-95.5 .7379,-95.5"/>
<text text-anchor="middle" x="21.2379" y="-102.5" font-family="Helvetica,sans-Serif" font-size="10.00" fill="#000000">menu</text>
</g>
<!-- Node65&#45;&gt;Node65 -->
<g id="edge1" class="edge">
<title>Node65&#45;&gt;Node65</title>
<path fill="none" stroke="#191970" d="M3.9754,-114.7571C-4.4225,-123.5653 1.3316,-133 21.2379,-133 33.6793,-133 40.5925,-129.3146 41.9776,-124.4"/>
<polygon fill="#191970" stroke="#191970" points="45.1851,-122.9768 38.5003,-114.7571 38.6001,-125.3514 45.1851,-122.9768"/>
</g>
<!-- Node66 -->
<g id="node2" class="node">
<title>Node66</title>
<g id="a_node2"><a xlink:href="sprite_8c.html#ab67f095900ba6092fed7f581886f28c6" target="_top" xlink:title="create_sprite">
<polygon fill="#ffffff" stroke="#000000" points="97.7379,-190.5 97.7379,-209.5 170.7379,-209.5 170.7379,-190.5 97.7379,-190.5"/>
<text text-anchor="middle" x="134.2379" y="-197.5" font-family="Helvetica,sans-Serif" font-size="10.00" fill="#000000">create_sprite</text>
</a>
</g>
</g>
<!-- Node65&#45;&gt;Node66 -->
<g id="edge2" class="edge">
<title>Node65&#45;&gt;Node66</title>
<path fill="none" stroke="#191970" d="M25.9166,-114.6507C34.1787,-130.7108 52.8583,-162.9375 77.7379,-181 80.9895,-183.3607 84.5546,-185.4424 88.2632,-187.2754"/>
<polygon fill="#191970" stroke="#191970" points="87.112,-190.5905 97.6805,-191.3367 89.8841,-184.1628 87.112,-190.5905"/>
</g>
<!-- Node67 -->
<g id="node3" class="node">
<title>Node67</title>
<g id="a_node3"><a xlink:href="interrupt__cicle_8c.html#a0718d5c75848a080a2122df6548d2422" target="_top" xlink:title="Receives and handles interruptions from the necessary modules. ">
<polygon fill="#ffffff" stroke="#000000" points="95.7379,-152.5 95.7379,-171.5 172.7379,-171.5 172.7379,-152.5 95.7379,-152.5"/>
<text text-anchor="middle" x="134.2379" y="-159.5" font-family="Helvetica,sans-Serif" font-size="10.00" fill="#000000">interrupt_cicle</text>
</a>
</g>
</g>
<!-- Node65&#45;&gt;Node67 -->
<g id="edge3" class="edge">
<title>Node65&#45;&gt;Node67</title>
<path fill="none" stroke="#191970" d="M33.6571,-114.7834C44.7264,-123.1453 61.6234,-135.0514 77.7379,-143 82.0913,-145.1474 86.7462,-147.1457 91.446,-148.9775"/>
<polygon fill="#191970" stroke="#191970" points="90.48,-152.3509 101.0738,-152.4981 92.884,-145.7766 90.48,-152.3509"/>
</g>
<!-- Node77 -->
<g id="node13" class="node">
<title>Node77</title>
<g id="a_node13"><a xlink:href="interrupt__cicle_8c.html#ae96d62d9643ecb59a9a8a7828dfc1860" target="_top" xlink:title="get_int_data">
<polygon fill="#ffffff" stroke="#000000" points="99.2379,-114.5 99.2379,-133.5 169.2379,-133.5 169.2379,-114.5 99.2379,-114.5"/>
<text text-anchor="middle" x="134.2379" y="-121.5" font-family="Helvetica,sans-Serif" font-size="10.00" fill="#000000">get_int_data</text>
</a>
</g>
</g>
<!-- Node65&#45;&gt;Node77 -->
<g id="edge14" class="edge">
<title>Node65&#45;&gt;Node77</title>
<path fill="none" stroke="#191970" d="M41.9638,-108.4849C55.1548,-110.7029 72.7654,-113.6639 89.0645,-116.4045"/>
<polygon fill="#191970" stroke="#191970" points="88.5503,-119.8671 98.9923,-118.0737 89.7111,-112.964 88.5503,-119.8671"/>
</g>
<!-- Node78 -->
<g id="node14" class="node">
<title>Node78</title>
<g id="a_node14"><a xlink:href="sprite_8c.html#ab0c8b8caefb74f2cf7c79ffb254c4ac4" target="_top" xlink:title="Shows the sprite. ">
<polygon fill="#ffffff" stroke="#000000" points="100.7379,-76.5 100.7379,-95.5 167.7379,-95.5 167.7379,-76.5 100.7379,-76.5"/>
<text text-anchor="middle" x="134.2379" y="-83.5" font-family="Helvetica,sans-Serif" font-size="10.00" fill="#000000">draw_sprite</text>
</a>
</g>
</g>
<!-- Node65&#45;&gt;Node78 -->
<g id="edge15" class="edge">
<title>Node65&#45;&gt;Node78</title>
<path fill="none" stroke="#191970" d="M41.9638,-101.5151C55.4714,-99.2439 73.6132,-96.1935 90.2357,-93.3986"/>
<polygon fill="#191970" stroke="#191970" points="91.0529,-96.8104 100.3341,-91.7006 89.8922,-89.9073 91.0529,-96.8104"/>
</g>
<!-- Node82 -->
<g id="node18" class="node">
<title>Node82</title>
<g id="a_node18"><a xlink:href="graphic_8c.html#a541e181cdbfecf6110d4d4c3ee087c30" target="_top" xlink:title="get_video_mem">
<polygon fill="#ffffff" stroke="#000000" points="91.2379,-38.5 91.2379,-57.5 177.2379,-57.5 177.2379,-38.5 91.2379,-38.5"/>
<text text-anchor="middle" x="134.2379" y="-45.5" font-family="Helvetica,sans-Serif" font-size="10.00" fill="#000000">get_video_mem</text>
</a>
</g>
</g>
<!-- Node65&#45;&gt;Node82 -->
<g id="edge20" class="edge">
<title>Node65&#45;&gt;Node82</title>
<path fill="none" stroke="#191970" d="M33.6571,-95.2166C44.7264,-86.8547 61.6234,-74.9486 77.7379,-67 82.0913,-64.8526 86.7462,-62.8543 91.446,-61.0225"/>
<polygon fill="#191970" stroke="#191970" points="92.884,-64.2234 101.0738,-57.5019 90.48,-57.6491 92.884,-64.2234"/>
</g>
<!-- Node83 -->
<g id="node19" class="node">
<title>Node83</title>
<g id="a_node19"><a xlink:href="sprite_8c.html#a999c54879ed9502affbd8d65ecfd1b83" target="_top" xlink:title="Checks sprite collision between two sprites. ">
<polygon fill="#ffffff" stroke="#000000" points="77.7379,-.5 77.7379,-19.5 190.7379,-19.5 190.7379,-.5 77.7379,-.5"/>
<text text-anchor="middle" x="134.2379" y="-7.5" font-family="Helvetica,sans-Serif" font-size="10.00" fill="#000000">check_sprite_collision</text>
</a>
</g>
</g>
<!-- Node65&#45;&gt;Node83 -->
<g id="edge21" class="edge">
<title>Node65&#45;&gt;Node83</title>
<path fill="none" stroke="#191970" d="M25.9166,-95.3493C34.1787,-79.2892 52.8583,-47.0625 77.7379,-29 80.3758,-27.0848 83.2201,-25.3533 86.1799,-23.7892"/>
<polygon fill="#191970" stroke="#191970" points="87.6955,-26.9446 95.3152,-19.5831 84.7679,-20.5862 87.6955,-26.9446"/>
</g>
<!-- Node68 -->
<g id="node4" class="node">
<title>Node68</title>
<g id="a_node4"><a xlink:href="mouse_8c.html#a210374b50462acdedab00df64d5cea3c" target="_top" xlink:title="Mouse IH. ">
<polygon fill="#ffffff" stroke="#000000" points="255.2379,-266.5 255.2379,-285.5 314.2379,-285.5 314.2379,-266.5 255.2379,-266.5"/>
<text text-anchor="middle" x="284.7379" y="-273.5" font-family="Helvetica,sans-Serif" font-size="10.00" fill="#000000">mouse_ih</text>
</a>
</g>
</g>
<!-- Node67&#45;&gt;Node68 -->
<g id="edge4" class="edge">
<title>Node67&#45;&gt;Node68</title>
<path fill="none" stroke="#191970" d="M172.9702,-170.3657C179.4032,-173.0031 185.6319,-176.4634 190.7379,-181 218.6785,-205.8246 198.7002,-232.285 226.7379,-257 232.0784,-261.7076 238.6107,-265.2529 245.3414,-267.9218"/>
<polygon fill="#191970" stroke="#191970" points="244.635,-271.3764 255.2289,-271.2381 246.861,-264.7397 244.635,-271.3764"/>
</g>
<!-- Node70 -->
<g id="node6" class="node">
<title>Node70</title>
<g id="a_node6"><a xlink:href="mouse_8c.html#a4f0a0dc9001ebefef3a416dd9b882b97" target="_top" xlink:title="Initiates the mouse packet member. ">
<polygon fill="#ffffff" stroke="#000000" points="252.7379,-228.5 252.7379,-247.5 316.7379,-247.5 316.7379,-228.5 252.7379,-228.5"/>
<text text-anchor="middle" x="284.7379" y="-235.5" font-family="Helvetica,sans-Serif" font-size="10.00" fill="#000000">init_packet</text>
</a>
</g>
</g>
<!-- Node67&#45;&gt;Node70 -->
<g id="edge6" class="edge">
<title>Node67&#45;&gt;Node70</title>
<path fill="none" stroke="#191970" d="M171.301,-171.5617C178.0408,-174.0957 184.8072,-177.2119 190.7379,-181 210.3442,-193.5231 207.0827,-206.5538 226.7379,-219 231.7273,-222.1594 237.2933,-224.8437 242.9484,-227.1101"/>
<polygon fill="#191970" stroke="#191970" points="241.869,-230.4414 252.4634,-230.5396 244.2426,-223.8561 241.869,-230.4414"/>
</g>
<!-- Node71 -->
<g id="node7" class="node">
<title>Node71</title>
<g id="a_node7"><a xlink:href="mouse_8c.html#a2ce59763196c5a8a030a47599b6a160e" target="_top" xlink:title="Get the cnt bytes. ">
<polygon fill="#ffffff" stroke="#000000" points="245.7379,-190.5 245.7379,-209.5 323.7379,-209.5 323.7379,-190.5 245.7379,-190.5"/>
<text text-anchor="middle" x="284.7379" y="-197.5" font-family="Helvetica,sans-Serif" font-size="10.00" fill="#000000">get_cnt_bytes</text>
</a>
</g>
</g>
<!-- Node67&#45;&gt;Node71 -->
<g id="edge7" class="edge">
<title>Node67&#45;&gt;Node71</title>
<path fill="none" stroke="#191970" d="M172.2154,-171.589C191.8966,-176.5583 216.1286,-182.6767 237.0585,-187.9613"/>
<polygon fill="#191970" stroke="#191970" points="236.4809,-191.4253 247.0335,-190.4799 238.1946,-184.6383 236.4809,-191.4253"/>
</g>
<!-- Node72 -->
<g id="node8" class="node">
<title>Node72</title>
<g id="a_node8"><a xlink:href="kbd_8c.html#aea970a154161a35f6894898a092ed70a" target="_top" xlink:title="Keyboard IH. ">
<polygon fill="#ffffff" stroke="#000000" points="262.2379,-152.5 262.2379,-171.5 307.2379,-171.5 307.2379,-152.5 262.2379,-152.5"/>
<text text-anchor="middle" x="284.7379" y="-159.5" font-family="Helvetica,sans-Serif" font-size="10.00" fill="#000000">kbc_ih</text>
</a>
</g>
</g>
<!-- Node67&#45;&gt;Node72 -->
<g id="edge8" class="edge">
<title>Node67&#45;&gt;Node72</title>
<path fill="none" stroke="#191970" d="M172.9954,-162C197.466,-162 228.73,-162 251.9622,-162"/>
<polygon fill="#191970" stroke="#191970" points="252.0181,-165.5001 262.018,-162 252.018,-158.5001 252.0181,-165.5001"/>
</g>
<!-- Node73 -->
<g id="node9" class="node">
<title>Node73</title>
<g id="a_node9"><a xlink:href="timer_8c.html#ac7c3715c83c45c6411f9f3f9f6cf8c7f" target="_top" xlink:title="Timer IH. ">
<polygon fill="#ffffff" stroke="#000000" points="226.7379,-114.5 226.7379,-133.5 342.7379,-133.5 342.7379,-114.5 226.7379,-114.5"/>
<text text-anchor="middle" x="284.7379" y="-121.5" font-family="Helvetica,sans-Serif" font-size="10.00" fill="#000000">timer_interrupt_handler</text>
</a>
</g>
</g>
<!-- Node67&#45;&gt;Node73 -->
<g id="edge9" class="edge">
<title>Node67&#45;&gt;Node73</title>
<path fill="none" stroke="#191970" d="M172.2154,-152.411C191.8966,-147.4417 216.1286,-141.3233 237.0585,-136.0387"/>
<polygon fill="#191970" stroke="#191970" points="238.1946,-139.3617 247.0335,-133.5201 236.4809,-132.5747 238.1946,-139.3617"/>
</g>
<!-- Node74 -->
<g id="node10" class="node">
<title>Node74</title>
<g id="a_node10"><a xlink:href="interrupt__cicle_8c.html#a3cd9db2b8c583d8e97d9865c1a4802a9" target="_top" xlink:title="Initializes the interrupt_data struct tot be used in other files. ">
<polygon fill="#ffffff" stroke="#000000" points="250.2379,-76.5 250.2379,-95.5 319.2379,-95.5 319.2379,-76.5 250.2379,-76.5"/>
<text text-anchor="middle" x="284.7379" y="-83.5" font-family="Helvetica,sans-Serif" font-size="10.00" fill="#000000">init_int_data</text>
</a>
</g>
</g>
<!-- Node67&#45;&gt;Node74 -->
<g id="edge10" class="edge">
<title>Node67&#45;&gt;Node74</title>
<path fill="none" stroke="#191970" d="M171.301,-152.4383C178.0408,-149.9043 184.8072,-146.7881 190.7379,-143 210.3442,-130.4769 207.0827,-117.4462 226.7379,-105 231.0475,-102.271 235.7873,-99.8966 240.6431,-97.8397"/>
<polygon fill="#191970" stroke="#191970" points="241.9382,-101.0918 250.0414,-94.2662 239.4503,-94.5488 241.9382,-101.0918"/>
</g>
<!-- Node69 -->
<g id="node5" class="node">
<title>Node69</title>
<g id="a_node5"><a xlink:href="mouse_8c.html#a4a11876c724ae443363cf5971f1558e7" target="_top" xlink:title="Empties a mouse packet. ">
<polygon fill="#ffffff" stroke="#000000" points="378.7379,-209.5 378.7379,-228.5 456.7379,-228.5 456.7379,-209.5 378.7379,-209.5"/>
<text text-anchor="middle" x="417.7379" y="-216.5" font-family="Helvetica,sans-Serif" font-size="10.00" fill="#000000">empty_packet</text>
</a>
</g>
</g>
<!-- Node68&#45;&gt;Node69 -->
<g id="edge5" class="edge">
<title>Node68&#45;&gt;Node69</title>
<path fill="none" stroke="#191970" d="M314.2635,-267.2879C323.4902,-264.3105 333.634,-260.7717 342.7379,-257 359.3922,-250.1002 377.4325,-241.0139 391.6456,-233.4565"/>
<polygon fill="#191970" stroke="#191970" points="393.6695,-236.3416 400.8099,-228.5143 390.3468,-230.1804 393.6695,-236.3416"/>
</g>
<!-- Node74&#45;&gt;Node69 -->
<g id="edge12" class="edge">
<title>Node74&#45;&gt;Node69</title>
<path fill="none" stroke="#191970" d="M319.434,-93.1894C327.6093,-95.971 335.9195,-99.7872 342.7379,-105 375.9864,-130.4192 399.0624,-175.0437 410.1723,-200.2623"/>
<polygon fill="#191970" stroke="#191970" points="406.9539,-201.638 414.0782,-209.4799 413.3991,-198.9068 406.9539,-201.638"/>
</g>
<!-- Node75 -->
<g id="node11" class="node">
<title>Node75</title>
<g id="a_node11"><a xlink:href="mouse_8c.html#a56a5da7f70edb0bb5db9910981ef65f9" target="_top" xlink:title="Get packet struct. ">
<polygon fill="#ffffff" stroke="#000000" points="385.2379,-114.5 385.2379,-133.5 450.2379,-133.5 450.2379,-114.5 385.2379,-114.5"/>
<text text-anchor="middle" x="417.7379" y="-121.5" font-family="Helvetica,sans-Serif" font-size="10.00" fill="#000000">get_packet</text>
</a>
</g>
</g>
<!-- Node74&#45;&gt;Node75 -->
<g id="edge11" class="edge">
<title>Node74&#45;&gt;Node75</title>
<path fill="none" stroke="#191970" d="M318.2994,-95.589C335.6506,-100.5465 357.0043,-106.6476 375.4702,-111.9235"/>
<polygon fill="#191970" stroke="#191970" points="374.5298,-115.2948 385.1066,-114.6768 376.4529,-108.5642 374.5298,-115.2948"/>
</g>
<!-- Node76 -->
<g id="node12" class="node">
<title>Node76</title>
<g id="a_node12"><a xlink:href="kbd_8c.html#aabe32d3d3ebb9ccff7ca4b7992f48209" target="_top" xlink:title="Get the scancode. ">
<polygon fill="#ffffff" stroke="#000000" points="379.2379,-76.5 379.2379,-95.5 456.2379,-95.5 456.2379,-76.5 379.2379,-76.5"/>
<text text-anchor="middle" x="417.7379" y="-83.5" font-family="Helvetica,sans-Serif" font-size="10.00" fill="#000000">get_scancode</text>
</a>
</g>
</g>
<!-- Node74&#45;&gt;Node76 -->
<g id="edge13" class="edge">
<title>Node74&#45;&gt;Node76</title>
<path fill="none" stroke="#191970" d="M319.3349,-86C334.5046,-86 352.5772,-86 369.0696,-86"/>
<polygon fill="#191970" stroke="#191970" points="369.0943,-89.5001 379.0943,-86 369.0943,-82.5001 369.0943,-89.5001"/>
</g>
<!-- Node79 -->
<g id="node15" class="node">
<title>Node79</title>
<g id="a_node15"><a xlink:href="graphic_8c.html#a461a83bf6ebfd3b6dc95ca3962858d3d" target="_top" xlink:title="Copies the xmp into the video mem. ">
<polygon fill="#ffffff" stroke="#000000" points="253.7379,-38.5 253.7379,-57.5 315.7379,-57.5 315.7379,-38.5 253.7379,-38.5"/>
<text text-anchor="middle" x="284.7379" y="-45.5" font-family="Helvetica,sans-Serif" font-size="10.00" fill="#000000">draw_xpm</text>
</a>
</g>
</g>
<!-- Node78&#45;&gt;Node79 -->
<g id="edge16" class="edge">
<title>Node78&#45;&gt;Node79</title>
<path fill="none" stroke="#191970" d="M168.013,-77.4721C190.4592,-71.8046 220.0653,-64.3293 243.8437,-58.3254"/>
<polygon fill="#191970" stroke="#191970" points="244.8009,-61.6937 253.6398,-55.852 243.0872,-54.9067 244.8009,-61.6937"/>
</g>
<!-- Node80 -->
<g id="node16" class="node">
<title>Node80</title>
<g id="a_node16"><a xlink:href="graphic_8c.html#a89e5e15fb2c065221f58c6d883da6049" target="_top" xlink:title="get_bytes_per_pixel">
<polygon fill="#ffffff" stroke="#000000" points="492.7379,-19.5 492.7379,-38.5 596.7379,-38.5 596.7379,-19.5 492.7379,-19.5"/>
<text text-anchor="middle" x="544.7379" y="-26.5" font-family="Helvetica,sans-Serif" font-size="10.00" fill="#000000">get_bytes_per_pixel</text>
</a>
</g>
</g>
<!-- Node79&#45;&gt;Node80 -->
<g id="edge17" class="edge">
<title>Node79&#45;&gt;Node80</title>
<path fill="none" stroke="#191970" d="M315.8417,-45.727C356.7841,-42.7351 429.7095,-37.4059 482.2593,-33.5657"/>
<polygon fill="#191970" stroke="#191970" points="482.7638,-37.0383 492.4821,-32.8187 482.2536,-30.0569 482.7638,-37.0383"/>
</g>
<!-- Node81 -->
<g id="node17" class="node">
<title>Node81</title>
<g id="a_node17"><a xlink:href="graphic_8c.html#a90228825151958bdc7dfaffdbbd88494" target="_top" xlink:title="Calculates the color and sets the pixel in the video mem. ">
<polygon fill="#ffffff" stroke="#000000" points="386.2379,-.5 386.2379,-19.5 449.2379,-19.5 449.2379,-.5 386.2379,-.5"/>
<text text-anchor="middle" x="417.7379" y="-7.5" font-family="Helvetica,sans-Serif" font-size="10.00" fill="#000000">draw_pixel</text>
</a>
</g>
</g>
<!-- Node79&#45;&gt;Node81 -->
<g id="edge18" class="edge">
<title>Node79&#45;&gt;Node81</title>
<path fill="none" stroke="#191970" d="M315.9205,-39.0907C333.8351,-33.9722 356.5671,-27.4774 376.0052,-21.9236"/>
<polygon fill="#191970" stroke="#191970" points="377.1732,-25.23 385.8269,-19.1174 375.2501,-18.4994 377.1732,-25.23"/>
</g>
<!-- Node81&#45;&gt;Node80 -->
<g id="edge19" class="edge">
<title>Node81&#45;&gt;Node80</title>
<path fill="none" stroke="#191970" d="M449.4577,-14.7455C459.5724,-16.2587 471.1366,-17.9888 482.6394,-19.7097"/>
<polygon fill="#191970" stroke="#191970" points="482.2864,-23.1957 492.6942,-21.2139 483.3221,-16.2728 482.2864,-23.1957"/>
</g>
</g>
</svg>
