<?xml version="1.0" encoding="UTF-8" standalone="no"?>
<!DOCTYPE svg PUBLIC "-//W3C//DTD SVG 1.1//EN"
 "http://www.w3.org/Graphics/SVG/1.1/DTD/svg11.dtd">
<!-- Generated by graphviz version 2.40.1 (20161225.0304)
 -->
<!-- Title: menu Pages: 1 -->
<svg width="681pt" height="342pt"
 viewBox="0.00 0.00 681.00 342.00" xmlns="http://www.w3.org/2000/svg" xmlns:xlink="http://www.w3.org/1999/xlink">
<g id="graph0" class="graph" transform="scale(1 1) rotate(0) translate(4 338)">
<title>menu</title>
<polygon fill="#ffffff" stroke="transparent" points="-4,4 -4,-338 677,-338 677,4 -4,4"/>
<!-- Node65 -->
<g id="node1" class="node">
<title>Node65</title>
<polygon fill="#bfbfbf" stroke="#000000" points="0,-109.5 0,-128.5 41,-128.5 41,-109.5 0,-109.5"/>
<text text-anchor="middle" x="20.5" y="-116.5" font-family="Helvetica,sans-Serif" font-size="10.00" fill="#000000">menu</text>
</g>
<!-- Node66 -->
<g id="node2" class="node">
<title>Node66</title>
<g id="a_node2"><a xlink:href="menu_8c.html#a4cc4e9de5c448babdb711586dd12bec0" target="_top" xlink:title="graphical interface for the main menu ">
<polygon fill="#ffffff" stroke="#000000" points="77,-109.5 77,-128.5 118,-128.5 118,-109.5 77,-109.5"/>
<text text-anchor="middle" x="97.5" y="-116.5" font-family="Helvetica,sans-Serif" font-size="10.00" fill="#000000">menu</text>
</a>
</g>
</g>
<!-- Node65&#45;&gt;Node66 -->
<g id="edge1" class="edge">
<title>Node65&#45;&gt;Node66</title>
<path fill="none" stroke="#191970" d="M41.1346,-119C48.9889,-119 58.1178,-119 66.7121,-119"/>
<polygon fill="#191970" stroke="#191970" points="66.8085,-122.5001 76.8085,-119 66.8084,-115.5001 66.8085,-122.5001"/>
</g>
<!-- Node67 -->
<g id="node3" class="node">
<title>Node67</title>
<g id="a_node3"><a xlink:href="sprite_8c.html#ab67f095900ba6092fed7f581886f28c6" target="_top" xlink:title="create_sprite">
<polygon fill="#ffffff" stroke="#000000" points="174,-239.5 174,-258.5 247,-258.5 247,-239.5 174,-239.5"/>
<text text-anchor="middle" x="210.5" y="-246.5" font-family="Helvetica,sans-Serif" font-size="10.00" fill="#000000">create_sprite</text>
</a>
</g>
</g>
<!-- Node65&#45;&gt;Node67 -->
<g id="edge23" class="edge">
<title>Node65&#45;&gt;Node67</title>
<path fill="none" stroke="#191970" d="M25.5253,-128.6314C34.1604,-144.3764 53.2036,-175.7933 77,-195 102.3841,-215.4883 136.572,-229.1193 163.9955,-237.5609"/>
<polygon fill="#191970" stroke="#191970" points="163.1825,-240.97 173.764,-240.4392 165.161,-234.2554 163.1825,-240.97"/>
</g>
<!-- Node68 -->
<g id="node4" class="node">
<title>Node68</title>
<g id="a_node4"><a xlink:href="interrupt__cicle_8c.html#a0718d5c75848a080a2122df6548d2422" target="_top" xlink:title="Receives and handles interruptions from the necessary modules. ">
<polygon fill="#ffffff" stroke="#000000" points="172,-201.5 172,-220.5 249,-220.5 249,-201.5 172,-201.5"/>
<text text-anchor="middle" x="210.5" y="-208.5" font-family="Helvetica,sans-Serif" font-size="10.00" fill="#000000">interrupt_cicle</text>
</a>
</g>
</g>
<!-- Node65&#45;&gt;Node68 -->
<g id="edge24" class="edge">
<title>Node65&#45;&gt;Node68</title>
<path fill="none" stroke="#191970" d="M28.2158,-128.8806C38.2042,-141.0129 56.7473,-161.4029 77,-173 103.0305,-187.9056 135.3099,-197.3001 161.607,-203.0188"/>
<polygon fill="#191970" stroke="#191970" points="161.2338,-206.5154 171.7345,-205.1061 162.6469,-199.6595 161.2338,-206.5154"/>
</g>
<!-- Node78 -->
<g id="node14" class="node">
<title>Node78</title>
<g id="a_node14"><a xlink:href="interrupt__cicle_8c.html#ae96d62d9643ecb59a9a8a7828dfc1860" target="_top" xlink:title="get_int_data">
<polygon fill="#ffffff" stroke="#000000" points="175.5,-143.5 175.5,-162.5 245.5,-162.5 245.5,-143.5 175.5,-143.5"/>
<text text-anchor="middle" x="210.5" y="-150.5" font-family="Helvetica,sans-Serif" font-size="10.00" fill="#000000">get_int_data</text>
</a>
</g>
</g>
<!-- Node65&#45;&gt;Node78 -->
<g id="edge25" class="edge">
<title>Node65&#45;&gt;Node78</title>
<path fill="none" stroke="#191970" d="M31.1955,-128.787C41.886,-137.8515 59.2472,-150.7044 77,-156 105.5358,-164.5122 139.0453,-163.727 165.3533,-160.8315"/>
<polygon fill="#191970" stroke="#191970" points="165.9272,-164.2872 175.4207,-159.5837 165.0661,-157.3404 165.9272,-164.2872"/>
</g>
<!-- Node79 -->
<g id="node15" class="node">
<title>Node79</title>
<g id="a_node15"><a xlink:href="sprite_8c.html#ab0c8b8caefb74f2cf7c79ffb254c4ac4" target="_top" xlink:title="Shows the sprite. ">
<polygon fill="#ffffff" stroke="#000000" points="177,-84.5 177,-103.5 244,-103.5 244,-84.5 177,-84.5"/>
<text text-anchor="middle" x="210.5" y="-91.5" font-family="Helvetica,sans-Serif" font-size="10.00" fill="#000000">draw_sprite</text>
</a>
</g>
</g>
<!-- Node65&#45;&gt;Node79 -->
<g id="edge26" class="edge">
<title>Node65&#45;&gt;Node79</title>
<path fill="none" stroke="#191970" d="M41.0592,-110.5411C51.615,-106.5975 64.7926,-102.2802 77,-100 106.5962,-94.4718 140.4924,-93.0066 166.7235,-92.9056"/>
<polygon fill="#191970" stroke="#191970" points="166.7273,-96.4056 176.7363,-92.9312 166.7453,-89.4056 166.7273,-96.4056"/>
</g>
<!-- Node83 -->
<g id="node19" class="node">
<title>Node83</title>
<g id="a_node19"><a xlink:href="graphic_8c.html#a541e181cdbfecf6110d4d4c3ee087c30" target="_top" xlink:title="get_video_mem">
<polygon fill="#ffffff" stroke="#000000" points="167.5,-42.5 167.5,-61.5 253.5,-61.5 253.5,-42.5 167.5,-42.5"/>
<text text-anchor="middle" x="210.5" y="-49.5" font-family="Helvetica,sans-Serif" font-size="10.00" fill="#000000">get_video_mem</text>
</a>
</g>
</g>
<!-- Node65&#45;&gt;Node83 -->
<g id="edge27" class="edge">
<title>Node65&#45;&gt;Node83</title>
<path fill="none" stroke="#191970" d="M36.9103,-109.485C47.9773,-103.3435 63.0513,-95.5028 77,-90 103.6169,-79.4995 134.2627,-70.5648 159.4739,-64.0023"/>
<polygon fill="#191970" stroke="#191970" points="160.382,-67.3828 169.2044,-61.5162 158.6492,-60.6007 160.382,-67.3828"/>
</g>
<!-- Node84 -->
<g id="node20" class="node">
<title>Node84</title>
<g id="a_node20"><a xlink:href="sprite_8c.html#a999c54879ed9502affbd8d65ecfd1b83" target="_top" xlink:title="Checks sprite collision between two sprites. ">
<polygon fill="#ffffff" stroke="#000000" points="154,-.5 154,-19.5 267,-19.5 267,-.5 154,-.5"/>
<text text-anchor="middle" x="210.5" y="-7.5" font-family="Helvetica,sans-Serif" font-size="10.00" fill="#000000">check_sprite_collision</text>
</a>
</g>
</g>
<!-- Node65&#45;&gt;Node84 -->
<g id="edge28" class="edge">
<title>Node65&#45;&gt;Node84</title>
<path fill="none" stroke="#191970" d="M30.7717,-109.2343C41.6886,-99.1571 59.7256,-83.3509 77,-72 109.0596,-50.9337 119.0942,-48.912 154,-33 161.0889,-29.7685 168.7691,-26.495 176.1154,-23.4705"/>
<polygon fill="#191970" stroke="#191970" points="177.8872,-26.5289 185.8393,-19.5278 175.2569,-20.0418 177.8872,-26.5289"/>
</g>
<!-- Node66&#45;&gt;Node66 -->
<g id="edge2" class="edge">
<title>Node66&#45;&gt;Node66</title>
<path fill="none" stroke="#191970" d="M85.7862,-128.7571C80.0876,-137.5653 83.9922,-147 97.5,-147 105.7313,-147 110.3966,-143.4965 111.4959,-138.7663"/>
<polygon fill="#191970" stroke="#191970" points="114.8492,-137.7288 109.2138,-128.7571 108.0244,-139.2849 114.8492,-137.7288"/>
</g>
<!-- Node66&#45;&gt;Node67 -->
<g id="edge3" class="edge">
<title>Node66&#45;&gt;Node67</title>
<path fill="none" stroke="#191970" d="M99.7287,-128.5537C105.1934,-149.8865 121.2646,-201.7384 154,-230 157.2166,-232.777 160.8549,-235.152 164.697,-237.1824"/>
<polygon fill="#191970" stroke="#191970" points="163.3721,-240.4241 173.9289,-241.322 166.2363,-234.0368 163.3721,-240.4241"/>
</g>
<!-- Node66&#45;&gt;Node68 -->
<g id="edge4" class="edge">
<title>Node66&#45;&gt;Node68</title>
<path fill="none" stroke="#191970" d="M107.0964,-128.8484C118.0254,-139.859 136.6233,-157.9825 154,-172 164.332,-180.3347 176.3681,-188.799 186.6698,-195.7026"/>
<polygon fill="#191970" stroke="#191970" points="184.9158,-198.7384 195.19,-201.3251 188.7713,-192.8959 184.9158,-198.7384"/>
</g>
<!-- Node66&#45;&gt;Node78 -->
<g id="edge15" class="edge">
<title>Node66&#45;&gt;Node78</title>
<path fill="none" stroke="#191970" d="M118.2259,-125.2361C132.3936,-129.499 151.6594,-135.2958 168.923,-140.4901"/>
<polygon fill="#191970" stroke="#191970" points="168.218,-143.9329 178.8024,-143.4627 170.235,-137.2298 168.218,-143.9329"/>
</g>
<!-- Node66&#45;&gt;Node79 -->
<g id="edge16" class="edge">
<title>Node66&#45;&gt;Node79</title>
<path fill="none" stroke="#191970" d="M118.2259,-114.4146C131.7335,-111.4262 149.8753,-107.4125 166.4978,-103.735"/>
<polygon fill="#191970" stroke="#191970" points="167.5885,-107.0784 176.5963,-101.5008 166.0763,-100.2437 167.5885,-107.0784"/>
</g>
<!-- Node66&#45;&gt;Node83 -->
<g id="edge21" class="edge">
<title>Node66&#45;&gt;Node83</title>
<path fill="none" stroke="#191970" d="M108.1115,-109.278C119.0133,-99.6539 136.7781,-84.9551 154,-75 160.0372,-71.5102 166.7065,-68.294 173.2833,-65.4416"/>
<polygon fill="#191970" stroke="#191970" points="174.8561,-68.5791 182.7686,-61.5333 172.1893,-62.107 174.8561,-68.5791"/>
</g>
<!-- Node66&#45;&gt;Node84 -->
<g id="edge22" class="edge">
<title>Node66&#45;&gt;Node84</title>
<path fill="none" stroke="#191970" d="M101.48,-109.3734C109.1641,-91.8759 127.6422,-54.6683 154,-33 158.295,-29.4691 163.2047,-26.4191 168.2962,-23.8013"/>
<polygon fill="#191970" stroke="#191970" points="169.9368,-26.8993 177.5638,-19.5454 167.0156,-20.538 169.9368,-26.8993"/>
</g>
<!-- Node69 -->
<g id="node5" class="node">
<title>Node69</title>
<g id="a_node5"><a xlink:href="mouse_8c.html#a210374b50462acdedab00df64d5cea3c" target="_top" xlink:title="Mouse IH. ">
<polygon fill="#ffffff" stroke="#000000" points="331.5,-200.5 331.5,-219.5 390.5,-219.5 390.5,-200.5 331.5,-200.5"/>
<text text-anchor="middle" x="361" y="-207.5" font-family="Helvetica,sans-Serif" font-size="10.00" fill="#000000">mouse_ih</text>
</a>
</g>
</g>
<!-- Node68&#45;&gt;Node69 -->
<g id="edge5" class="edge">
<title>Node68&#45;&gt;Node69</title>
<path fill="none" stroke="#191970" d="M249.2575,-210.7425C271.3623,-210.5956 299.0105,-210.4119 321.2743,-210.264"/>
<polygon fill="#191970" stroke="#191970" points="321.4271,-213.7631 331.4036,-210.1967 321.3805,-206.7633 321.4271,-213.7631"/>
</g>
<!-- Node71 -->
<g id="node7" class="node">
<title>Node71</title>
<g id="a_node7"><a xlink:href="mouse_8c.html#a4f0a0dc9001ebefef3a416dd9b882b97" target="_top" xlink:title="Initiates the mouse packet member. ">
<polygon fill="#ffffff" stroke="#000000" points="329,-124.5 329,-143.5 393,-143.5 393,-124.5 329,-124.5"/>
<text text-anchor="middle" x="361" y="-131.5" font-family="Helvetica,sans-Serif" font-size="10.00" fill="#000000">init_packet</text>
</a>
</g>
</g>
<!-- Node68&#45;&gt;Node71 -->
<g id="edge7" class="edge">
<title>Node68&#45;&gt;Node71</title>
<path fill="none" stroke="#191970" d="M223.4004,-201.483C240.768,-189.0123 272.9647,-167.0782 303,-153 308.097,-150.6109 313.5763,-148.3952 319.0596,-146.3838"/>
<polygon fill="#191970" stroke="#191970" points="320.5497,-149.5717 328.8525,-142.9904 318.2577,-142.9575 320.5497,-149.5717"/>
</g>
<!-- Node72 -->
<g id="node8" class="node">
<title>Node72</title>
<g id="a_node8"><a xlink:href="mouse_8c.html#a2ce59763196c5a8a030a47599b6a160e" target="_top" xlink:title="Get the cnt bytes. ">
<polygon fill="#ffffff" stroke="#000000" points="322,-314.5 322,-333.5 400,-333.5 400,-314.5 322,-314.5"/>
<text text-anchor="middle" x="361" y="-321.5" font-family="Helvetica,sans-Serif" font-size="10.00" fill="#000000">get_cnt_bytes</text>
</a>
</g>
</g>
<!-- Node68&#45;&gt;Node72 -->
<g id="edge8" class="edge">
<title>Node68&#45;&gt;Node72</title>
<path fill="none" stroke="#191970" d="M249.2131,-219.3875C255.6481,-222.0227 261.8823,-225.4766 267,-230 294.7038,-254.487 275.2005,-280.6218 303,-305 305.878,-307.5238 309.0986,-309.7136 312.508,-311.6135"/>
<polygon fill="#191970" stroke="#191970" points="311.327,-314.9252 321.8676,-315.9957 314.2952,-308.5856 311.327,-314.9252"/>
</g>
<!-- Node73 -->
<g id="node9" class="node">
<title>Node73</title>
<g id="a_node9"><a xlink:href="kbd_8c.html#aea970a154161a35f6894898a092ed70a" target="_top" xlink:title="Keyboard IH. ">
<polygon fill="#ffffff" stroke="#000000" points="338.5,-276.5 338.5,-295.5 383.5,-295.5 383.5,-276.5 338.5,-276.5"/>
<text text-anchor="middle" x="361" y="-283.5" font-family="Helvetica,sans-Serif" font-size="10.00" fill="#000000">kbc_ih</text>
</a>
</g>
</g>
<!-- Node68&#45;&gt;Node73 -->
<g id="edge9" class="edge">
<title>Node68&#45;&gt;Node73</title>
<path fill="none" stroke="#191970" d="M247.225,-220.5145C254.0665,-223.0629 260.9567,-226.1964 267,-230 286.4179,-242.2214 283.5343,-254.8547 303,-267 310.7536,-271.8377 319.8662,-275.5724 328.542,-278.3981"/>
<polygon fill="#191970" stroke="#191970" points="327.8368,-281.839 338.4184,-281.3093 329.8161,-275.1247 327.8368,-281.839"/>
</g>
<!-- Node74 -->
<g id="node10" class="node">
<title>Node74</title>
<g id="a_node10"><a xlink:href="timer_8c.html#ac7c3715c83c45c6411f9f3f9f6cf8c7f" target="_top" xlink:title="Timer IH. ">
<polygon fill="#ffffff" stroke="#000000" points="303,-238.5 303,-257.5 419,-257.5 419,-238.5 303,-238.5"/>
<text text-anchor="middle" x="361" y="-245.5" font-family="Helvetica,sans-Serif" font-size="10.00" fill="#000000">timer_interrupt_handler</text>
</a>
</g>
</g>
<!-- Node68&#45;&gt;Node74 -->
<g id="edge10" class="edge">
<title>Node68&#45;&gt;Node74</title>
<path fill="none" stroke="#191970" d="M249.2575,-220.5284C268.493,-225.2574 291.9261,-231.0184 312.3561,-236.041"/>
<polygon fill="#191970" stroke="#191970" points="311.5661,-239.451 322.1126,-238.4396 313.2373,-232.6534 311.5661,-239.451"/>
</g>
<!-- Node75 -->
<g id="node11" class="node">
<title>Node75</title>
<g id="a_node11"><a xlink:href="interrupt__cicle_8c.html#a3cd9db2b8c583d8e97d9865c1a4802a9" target="_top" xlink:title="Initializes the interrupt_data struct tot be used in other files. ">
<polygon fill="#ffffff" stroke="#000000" points="326.5,-162.5 326.5,-181.5 395.5,-181.5 395.5,-162.5 326.5,-162.5"/>
<text text-anchor="middle" x="361" y="-169.5" font-family="Helvetica,sans-Serif" font-size="10.00" fill="#000000">init_int_data</text>
</a>
</g>
</g>
<!-- Node68&#45;&gt;Node75 -->
<g id="edge11" class="edge">
<title>Node68&#45;&gt;Node75</title>
<path fill="none" stroke="#191970" d="M247.3164,-201.4595C268.2201,-196.0426 294.5326,-189.2241 316.5775,-183.5115"/>
<polygon fill="#191970" stroke="#191970" points="317.5689,-186.8703 326.3712,-180.9736 315.8129,-180.0941 317.5689,-186.8703"/>
</g>
<!-- Node70 -->
<g id="node6" class="node">
<title>Node70</title>
<g id="a_node6"><a xlink:href="mouse_8c.html#a4a11876c724ae443363cf5971f1558e7" target="_top" xlink:title="Empties a mouse packet. ">
<polygon fill="#ffffff" stroke="#000000" points="455,-200.5 455,-219.5 533,-219.5 533,-200.5 455,-200.5"/>
<text text-anchor="middle" x="494" y="-207.5" font-family="Helvetica,sans-Serif" font-size="10.00" fill="#000000">empty_packet</text>
</a>
</g>
</g>
<!-- Node69&#45;&gt;Node70 -->
<g id="edge6" class="edge">
<title>Node69&#45;&gt;Node70</title>
<path fill="none" stroke="#191970" d="M390.517,-210C406.4566,-210 426.5527,-210 444.7858,-210"/>
<polygon fill="#191970" stroke="#191970" points="444.9719,-213.5001 454.9719,-210 444.9718,-206.5001 444.9719,-213.5001"/>
</g>
<!-- Node75&#45;&gt;Node70 -->
<g id="edge13" class="edge">
<title>Node75&#45;&gt;Node70</title>
<path fill="none" stroke="#191970" d="M394.5615,-181.589C411.573,-186.4494 432.4319,-192.4091 450.6446,-197.6127"/>
<polygon fill="#191970" stroke="#191970" points="449.8724,-201.0321 460.4492,-200.4141 451.7955,-194.3014 449.8724,-201.0321"/>
</g>
<!-- Node76 -->
<g id="node12" class="node">
<title>Node76</title>
<g id="a_node12"><a xlink:href="mouse_8c.html#a56a5da7f70edb0bb5db9910981ef65f9" target="_top" xlink:title="Get packet struct. ">
<polygon fill="#ffffff" stroke="#000000" points="461.5,-124.5 461.5,-143.5 526.5,-143.5 526.5,-124.5 461.5,-124.5"/>
<text text-anchor="middle" x="494" y="-131.5" font-family="Helvetica,sans-Serif" font-size="10.00" fill="#000000">get_packet</text>
</a>
</g>
</g>
<!-- Node75&#45;&gt;Node76 -->
<g id="edge12" class="edge">
<title>Node75&#45;&gt;Node76</title>
<path fill="none" stroke="#191970" d="M394.5615,-162.411C411.9127,-157.4535 433.2664,-151.3524 451.7323,-146.0765"/>
<polygon fill="#191970" stroke="#191970" points="452.7151,-149.4358 461.3688,-143.3232 450.792,-142.7052 452.7151,-149.4358"/>
</g>
<!-- Node77 -->
<g id="node13" class="node">
<title>Node77</title>
<g id="a_node13"><a xlink:href="kbd_8c.html#aabe32d3d3ebb9ccff7ca4b7992f48209" target="_top" xlink:title="Get the scancode. ">
<polygon fill="#ffffff" stroke="#000000" points="455.5,-162.5 455.5,-181.5 532.5,-181.5 532.5,-162.5 455.5,-162.5"/>
<text text-anchor="middle" x="494" y="-169.5" font-family="Helvetica,sans-Serif" font-size="10.00" fill="#000000">get_scancode</text>
</a>
</g>
</g>
<!-- Node75&#45;&gt;Node77 -->
<g id="edge14" class="edge">
<title>Node75&#45;&gt;Node77</title>
<path fill="none" stroke="#191970" d="M395.597,-172C410.7668,-172 428.8393,-172 445.3318,-172"/>
<polygon fill="#191970" stroke="#191970" points="445.3565,-175.5001 455.3564,-172 445.3564,-168.5001 445.3565,-175.5001"/>
</g>
<!-- Node80 -->
<g id="node16" class="node">
<title>Node80</title>
<g id="a_node16"><a xlink:href="graphic_8c.html#a461a83bf6ebfd3b6dc95ca3962858d3d" target="_top" xlink:title="Copies the xmp into the video mem. ">
<polygon fill="#ffffff" stroke="#000000" points="330,-84.5 330,-103.5 392,-103.5 392,-84.5 330,-84.5"/>
<text text-anchor="middle" x="361" y="-91.5" font-family="Helvetica,sans-Serif" font-size="10.00" fill="#000000">draw_xpm</text>
</a>
</g>
</g>
<!-- Node79&#45;&gt;Node80 -->
<g id="edge17" class="edge">
<title>Node79&#45;&gt;Node80</title>
<path fill="none" stroke="#191970" d="M244.2751,-94C266.6211,-94 296.0633,-94 319.787,-94"/>
<polygon fill="#191970" stroke="#191970" points="319.9019,-97.5001 329.9019,-94 319.9019,-90.5001 319.9019,-97.5001"/>
</g>
<!-- Node81 -->
<g id="node17" class="node">
<title>Node81</title>
<g id="a_node17"><a xlink:href="graphic_8c.html#a89e5e15fb2c065221f58c6d883da6049" target="_top" xlink:title="get_bytes_per_pixel">
<polygon fill="#ffffff" stroke="#000000" points="569,-66.5 569,-85.5 673,-85.5 673,-66.5 569,-66.5"/>
<text text-anchor="middle" x="621" y="-73.5" font-family="Helvetica,sans-Serif" font-size="10.00" fill="#000000">get_bytes_per_pixel</text>
</a>
</g>
</g>
<!-- Node80&#45;&gt;Node81 -->
<g id="edge18" class="edge">
<title>Node80&#45;&gt;Node81</title>
<path fill="none" stroke="#191970" d="M392.1038,-91.8467C433.0462,-89.0122 505.9717,-83.9635 558.5215,-80.3254"/>
<polygon fill="#191970" stroke="#191970" points="559.0099,-83.8001 568.7443,-79.6177 558.5264,-76.8168 559.0099,-83.8001"/>
</g>
<!-- Node82 -->
<g id="node18" class="node">
<title>Node82</title>
<g id="a_node18"><a xlink:href="graphic_8c.html#a90228825151958bdc7dfaffdbbd88494" target="_top" xlink:title="Calculates the color and sets the pixel in the video mem. ">
<polygon fill="#ffffff" stroke="#000000" points="462.5,-47.5 462.5,-66.5 525.5,-66.5 525.5,-47.5 462.5,-47.5"/>
<text text-anchor="middle" x="494" y="-54.5" font-family="Helvetica,sans-Serif" font-size="10.00" fill="#000000">draw_pixel</text>
</a>
</g>
</g>
<!-- Node80&#45;&gt;Node82 -->
<g id="edge19" class="edge">
<title>Node80&#45;&gt;Node82</title>
<path fill="none" stroke="#191970" d="M392.1826,-85.3251C410.0973,-80.3414 432.8292,-74.0174 452.2673,-68.6098"/>
<polygon fill="#191970" stroke="#191970" points="453.3929,-71.9297 462.089,-65.8775 451.5168,-65.1858 453.3929,-71.9297"/>
</g>
<!-- Node82&#45;&gt;Node81 -->
<g id="edge20" class="edge">
<title>Node82&#45;&gt;Node81</title>
<path fill="none" stroke="#191970" d="M525.7199,-61.7455C535.8346,-63.2587 547.3987,-64.9888 558.9016,-66.7097"/>
<polygon fill="#191970" stroke="#191970" points="558.5485,-70.1957 568.9563,-68.2139 559.5843,-63.2728 558.5485,-70.1957"/>
</g>
</g>
</svg>
