<?xml version="1.0" encoding="UTF-8" standalone="no"?>
<!DOCTYPE svg PUBLIC "-//W3C//DTD SVG 1.1//EN"
 "http://www.w3.org/Graphics/SVG/1.1/DTD/svg11.dtd">
<!-- Generated by graphviz version 2.40.1 (20161225.0304)
 -->
<!-- Title: get_packet Pages: 1 -->
<svg width="1091pt" height="305pt"
 viewBox="0.00 0.00 1091.00 304.86" xmlns="http://www.w3.org/2000/svg" xmlns:xlink="http://www.w3.org/1999/xlink">
<g id="graph0" class="graph" transform="scale(1 1) rotate(0) translate(4 300.8574)">
<title>get_packet</title>
<polygon fill="#ffffff" stroke="transparent" points="-4,4 -4,-300.8574 1087,-300.8574 1087,4 -4,4"/>
<!-- Node37 -->
<g id="node1" class="node">
<title>Node37</title>
<polygon fill="#bfbfbf" stroke="#000000" points="0,-47.5 0,-66.5 65,-66.5 65,-47.5 0,-47.5"/>
<text text-anchor="middle" x="32.5" y="-54.5" font-family="Helvetica,sans-Serif" font-size="10.00" fill="#000000">get_packet</text>
</g>
<!-- Node38 -->
<g id="node2" class="node">
<title>Node38</title>
<g id="a_node2"><a xlink:href="interrupt__cicle_8h.html#a3cd9db2b8c583d8e97d9865c1a4802a9" target="_top" xlink:title="Initializes the interrupt_data struct tot be used in other files. ">
<polygon fill="#ffffff" stroke="#000000" points="101,-47.5 101,-66.5 170,-66.5 170,-47.5 101,-47.5"/>
<text text-anchor="middle" x="135.5" y="-54.5" font-family="Helvetica,sans-Serif" font-size="10.00" fill="#000000">init_int_data</text>
</a>
</g>
</g>
<!-- Node37&#45;&gt;Node38 -->
<g id="edge1" class="edge">
<title>Node37&#45;&gt;Node38</title>
<path fill="none" stroke="#191970" d="M75.301,-57C83.8607,-57 92.7506,-57 100.9876,-57"/>
<polygon fill="#191970" stroke="#191970" points="75.0899,-53.5001 65.0898,-57 75.0898,-60.5001 75.0899,-53.5001"/>
</g>
<!-- Node39 -->
<g id="node3" class="node">
<title>Node39</title>
<g id="a_node3"><a xlink:href="interrupt__cicle_8h.html#a0718d5c75848a080a2122df6548d2422" target="_top" xlink:title="Receives and handles interruptions from the necessary modules. ">
<polygon fill="#ffffff" stroke="#000000" points="206,-47.5 206,-66.5 283,-66.5 283,-47.5 206,-47.5"/>
<text text-anchor="middle" x="244.5" y="-54.5" font-family="Helvetica,sans-Serif" font-size="10.00" fill="#000000">interrupt_cicle</text>
</a>
</g>
</g>
<!-- Node38&#45;&gt;Node39 -->
<g id="edge2" class="edge">
<title>Node38&#45;&gt;Node39</title>
<path fill="none" stroke="#191970" d="M180.3939,-57C188.8555,-57 197.6362,-57 205.8849,-57"/>
<polygon fill="#191970" stroke="#191970" points="180.288,-53.5001 170.288,-57 180.2879,-60.5001 180.288,-53.5001"/>
</g>
<!-- Node40 -->
<g id="node4" class="node">
<title>Node40</title>
<g id="a_node4"><a xlink:href="game_8h.html#a382ed7c0cb3201c13d4396ad9afc5a3e" target="_top" xlink:title="Lets the player initialize the board unsign a graphical interface 10 boats must be positioned before ...">
<polygon fill="#ffffff" stroke="#000000" points="527,-66.5 527,-85.5 615,-85.5 615,-66.5 527,-66.5"/>
<text text-anchor="middle" x="571" y="-73.5" font-family="Helvetica,sans-Serif" font-size="10.00" fill="#000000">game_init_board</text>
</a>
</g>
</g>
<!-- Node39&#45;&gt;Node40 -->
<g id="edge3" class="edge">
<title>Node39&#45;&gt;Node40</title>
<path fill="none" stroke="#191970" d="M293.1974,-55.7983C343.0137,-55.0823 422.5878,-55.3595 491,-62 502.6482,-63.1307 515.1527,-64.9998 526.7338,-67.0097"/>
<polygon fill="#191970" stroke="#191970" points="292.9751,-52.3014 283.0336,-55.9643 293.0894,-59.3005 292.9751,-52.3014"/>
</g>
<!-- Node46 -->
<g id="node10" class="node">
<title>Node46</title>
<g id="a_node10"><a xlink:href="game_8h.html#aaeeee1282b90aa12468a1862c7871ee4" target="_top" xlink:title="Lets the player fire against the enemy&#39;s boats using a graphical interface Shows previously hit cells...">
<polygon fill="#ffffff" stroke="#000000" points="528,-142.5 528,-161.5 614,-161.5 614,-142.5 528,-142.5"/>
<text text-anchor="middle" x="571" y="-149.5" font-family="Helvetica,sans-Serif" font-size="10.00" fill="#000000">game_round_sp</text>
</a>
</g>
</g>
<!-- Node39&#45;&gt;Node46 -->
<g id="edge10" class="edge">
<title>Node39&#45;&gt;Node46</title>
<path fill="none" stroke="#191970" d="M286.9747,-69.3586C352.9676,-88.5602 478.7107,-125.1471 538.2208,-142.4624"/>
<polygon fill="#191970" stroke="#191970" points="287.8806,-65.9772 277.301,-66.5439 285.9249,-72.6984 287.8806,-65.9772"/>
</g>
<!-- Node47 -->
<g id="node11" class="node">
<title>Node47</title>
<g id="a_node11"><a xlink:href="game_8h.html#abdd70639378b19cfc929273ef7b4ff45" target="_top" xlink:title="Uses timer interruptions to wait a predetermined time. ">
<polygon fill="#ffffff" stroke="#000000" points="319,-180.5 319,-199.5 375,-199.5 375,-180.5 319,-180.5"/>
<text text-anchor="middle" x="347" y="-187.5" font-family="Helvetica,sans-Serif" font-size="10.00" fill="#000000">idle_time</text>
</a>
</g>
</g>
<!-- Node39&#45;&gt;Node47 -->
<g id="edge13" class="edge">
<title>Node39&#45;&gt;Node47</title>
<path fill="none" stroke="#191970" d="M258.2109,-74.7907C280.1027,-103.1967 322.2315,-157.8614 339.4187,-180.1628"/>
<polygon fill="#191970" stroke="#191970" points="260.7481,-72.3492 251.8715,-66.565 255.2036,-76.6223 260.7481,-72.3492"/>
</g>
<!-- Node51 -->
<g id="node15" class="node">
<title>Node51</title>
<g id="a_node15"><a xlink:href="menu_8h.html#a4cc4e9de5c448babdb711586dd12bec0" target="_top" xlink:title="graphical interface for the main menu ">
<polygon fill="#ffffff" stroke="#000000" points="771,-19.5 771,-38.5 812,-38.5 812,-19.5 771,-19.5"/>
<text text-anchor="middle" x="791.5" y="-26.5" font-family="Helvetica,sans-Serif" font-size="10.00" fill="#000000">menu</text>
</a>
</g>
</g>
<!-- Node39&#45;&gt;Node51 -->
<g id="edge23" class="edge">
<title>Node39&#45;&gt;Node51</title>
<path fill="none" stroke="#191970" d="M274.0963,-43.4037C313.5687,-26.5435 386.0284,0 451,0 451,0 451,0 571,0 645.133,0 732.0977,-16.3125 770.9468,-24.4688"/>
<polygon fill="#191970" stroke="#191970" points="272.5634,-40.2537 264.7963,-47.4595 275.3617,-46.6701 272.5634,-40.2537"/>
</g>
<!-- Node41 -->
<g id="node5" class="node">
<title>Node41</title>
<g id="a_node5"><a xlink:href="game_8h.html#aff1f849979a9ca10d6ff2bce0dfb7fd5" target="_top" xlink:title="Single Player Iniciates the boards from the respective players Starts the game loop (1 turn per playe...">
<polygon fill="#ffffff" stroke="#000000" points="652.5,-142.5 652.5,-161.5 708.5,-161.5 708.5,-142.5 652.5,-142.5"/>
<text text-anchor="middle" x="680.5" y="-149.5" font-family="Helvetica,sans-Serif" font-size="10.00" fill="#000000">game_sp</text>
</a>
</g>
</g>
<!-- Node40&#45;&gt;Node41 -->
<g id="edge4" class="edge">
<title>Node40&#45;&gt;Node41</title>
<path fill="none" stroke="#191970" d="M592.3378,-91.6151C608.3446,-103.228 630.8701,-119.3571 651,-133 655.6394,-136.1443 660.7542,-139.4825 665.4034,-142.4691"/>
<polygon fill="#191970" stroke="#191970" points="594.3173,-88.727 584.1723,-85.6726 590.1983,-94.3869 594.3173,-88.727"/>
</g>
<!-- Node45 -->
<g id="node9" class="node">
<title>Node45</title>
<g id="a_node9"><a xlink:href="game_8h.html#a03f40ddf75045683b3f488d4839937ab" target="_top" xlink:title="Multiplayer. ">
<polygon fill="#ffffff" stroke="#000000" points="651,-104.5 651,-123.5 710,-123.5 710,-104.5 651,-104.5"/>
<text text-anchor="middle" x="680.5" y="-111.5" font-family="Helvetica,sans-Serif" font-size="10.00" fill="#000000">game_mp</text>
</a>
</g>
</g>
<!-- Node40&#45;&gt;Node45 -->
<g id="edge8" class="edge">
<title>Node40&#45;&gt;Node45</title>
<path fill="none" stroke="#191970" d="M608.3792,-88.9718C622.9676,-94.0344 639.3917,-99.7341 652.8774,-104.4141"/>
<polygon fill="#191970" stroke="#191970" points="609.2263,-85.561 598.6315,-85.589 606.9313,-92.1741 609.2263,-85.561"/>
</g>
<!-- Node42 -->
<g id="node6" class="node">
<title>Node42</title>
<g id="a_node6"><a xlink:href="menu_8h.html#a95c8dcba38d720d3e4bd6fcf9a8ee279" target="_top" xlink:title="selects a menu option ">
<polygon fill="#ffffff" stroke="#000000" points="746,-104.5 746,-123.5 837,-123.5 837,-104.5 746,-104.5"/>
<text text-anchor="middle" x="791.5" y="-111.5" font-family="Helvetica,sans-Serif" font-size="10.00" fill="#000000">select_menu_opt</text>
</a>
</g>
</g>
<!-- Node41&#45;&gt;Node42 -->
<g id="edge5" class="edge">
<title>Node41&#45;&gt;Node42</title>
<path fill="none" stroke="#191970" d="M718.3913,-139.0282C733.1795,-133.9656 749.8285,-128.2659 763.499,-123.5859"/>
<polygon fill="#191970" stroke="#191970" points="716.8373,-135.8607 708.51,-142.411 719.1046,-142.4834 716.8373,-135.8607"/>
</g>
<!-- Node43 -->
<g id="node7" class="node">
<title>Node43</title>
<g id="a_node7"><a xlink:href="menu_8h.html#a6ed6ac9188a15c74b9d07d12b34397c0" target="_top" xlink:title="Subscribes interruptions of the necessary modules Calls main menu and game functions. ">
<polygon fill="#ffffff" stroke="#000000" points="873,-47.5 873,-66.5 965,-66.5 965,-47.5 873,-47.5"/>
<text text-anchor="middle" x="919" y="-54.5" font-family="Helvetica,sans-Serif" font-size="10.00" fill="#000000">game_main_cicle</text>
</a>
</g>
</g>
<!-- Node42&#45;&gt;Node43 -->
<g id="edge6" class="edge">
<title>Node42&#45;&gt;Node43</title>
<path fill="none" stroke="#191970" d="M822.2731,-100.2426C845.5688,-89.8281 876.9716,-75.7892 897.5897,-66.5716"/>
<polygon fill="#191970" stroke="#191970" points="820.5414,-97.1829 812.8406,-104.4595 823.3984,-103.5734 820.5414,-97.1829"/>
</g>
<!-- Node44 -->
<g id="node8" class="node">
<title>Node44</title>
<g id="a_node8"><a xlink:href="proj_8c.html#a2a16f651eccbd248e1ad3b3b924b143b" target="_top" xlink:title="proj_main_loop">
<polygon fill="#ffffff" stroke="#000000" points="1001,-47.5 1001,-66.5 1083,-66.5 1083,-47.5 1001,-47.5"/>
<text text-anchor="middle" x="1042" y="-54.5" font-family="Helvetica,sans-Serif" font-size="10.00" fill="#000000">proj_main_loop</text>
</a>
</g>
</g>
<!-- Node43&#45;&gt;Node44 -->
<g id="edge7" class="edge">
<title>Node43&#45;&gt;Node44</title>
<path fill="none" stroke="#191970" d="M975.1908,-57C983.8339,-57 992.6179,-57 1000.8531,-57"/>
<polygon fill="#191970" stroke="#191970" points="975.1506,-53.5001 965.1506,-57 975.1506,-60.5001 975.1506,-53.5001"/>
</g>
<!-- Node45&#45;&gt;Node42 -->
<g id="edge9" class="edge">
<title>Node45&#45;&gt;Node42</title>
<path fill="none" stroke="#191970" d="M720.3594,-114C728.6038,-114 737.3495,-114 745.7839,-114"/>
<polygon fill="#191970" stroke="#191970" points="720.246,-110.5001 710.246,-114 720.2459,-117.5001 720.246,-110.5001"/>
</g>
<!-- Node46&#45;&gt;Node41 -->
<g id="edge11" class="edge">
<title>Node46&#45;&gt;Node41</title>
<path fill="none" stroke="#191970" d="M624.2954,-152C633.9786,-152 643.7225,-152 652.3144,-152"/>
<polygon fill="#191970" stroke="#191970" points="624.2773,-148.5001 614.2773,-152 624.2773,-155.5001 624.2773,-148.5001"/>
</g>
<!-- Node46&#45;&gt;Node45 -->
<g id="edge12" class="edge">
<title>Node46&#45;&gt;Node45</title>
<path fill="none" stroke="#191970" d="M608.3792,-139.0282C622.9676,-133.9656 639.3917,-128.2659 652.8774,-123.5859"/>
<polygon fill="#191970" stroke="#191970" points="606.9313,-135.8259 598.6315,-142.411 609.2263,-142.439 606.9313,-135.8259"/>
</g>
<!-- Node47&#45;&gt;Node41 -->
<g id="edge14" class="edge">
<title>Node47&#45;&gt;Node41</title>
<path fill="none" stroke="#191970" d="M385.3278,-191.5804C414.376,-192.3952 455.2559,-192.7226 491,-190 546.5933,-185.7655 560.5555,-183.0141 615,-171 627.3715,-168.27 640.8439,-164.5029 652.3356,-161.0425"/>
<polygon fill="#191970" stroke="#191970" points="385.2973,-188.0778 375.1926,-191.2629 385.0781,-195.0744 385.2973,-188.0778"/>
</g>
<!-- Node47&#45;&gt;Node45 -->
<g id="edge15" class="edge">
<title>Node47&#45;&gt;Node45</title>
<path fill="none" stroke="#191970" d="M360.8687,-172.5314C372.6349,-159.1273 390.7902,-141.5207 411,-133 492.2537,-98.7424 599.5091,-104.5538 650.7556,-110.0583"/>
<polygon fill="#191970" stroke="#191970" points="358.1644,-170.3092 354.407,-180.2154 363.5219,-174.8145 358.1644,-170.3092"/>
</g>
<!-- Node47&#45;&gt;Node46 -->
<g id="edge16" class="edge">
<title>Node47&#45;&gt;Node46</title>
<path fill="none" stroke="#191970" d="M385.1639,-186.0385C414.284,-182.7564 455.3296,-177.5714 491,-171 505.1794,-168.3878 520.6227,-164.8793 534.1256,-161.5884"/>
<polygon fill="#191970" stroke="#191970" points="384.5623,-182.5836 375.0071,-187.1606 385.331,-189.5412 384.5623,-182.5836"/>
</g>
<!-- Node48 -->
<g id="node12" class="node">
<title>Node48</title>
<g id="a_node12"><a xlink:href="game_8h.html#afb1a61b5802eed643536ce45225d2000" target="_top" xlink:title="Randomly fires upon player&#39;s boats using a state machine to simulate a strategy In case of a hit the ...">
<polygon fill="#ffffff" stroke="#000000" points="529.5,-256.5 529.5,-275.5 612.5,-275.5 612.5,-256.5 529.5,-256.5"/>
<text text-anchor="middle" x="571" y="-263.5" font-family="Helvetica,sans-Serif" font-size="10.00" fill="#000000">game_round_ai</text>
</a>
</g>
</g>
<!-- Node47&#45;&gt;Node48 -->
<g id="edge17" class="edge">
<title>Node47&#45;&gt;Node48</title>
<path fill="none" stroke="#191970" d="M353.5636,-209.2101C362.5236,-232.0358 380.9912,-269.0332 411,-285 456.3152,-309.111 518.8744,-288.8945 550.6739,-275.5099"/>
<polygon fill="#191970" stroke="#191970" points="356.7542,-207.7457 350.0139,-199.5714 350.1855,-210.1649 356.7542,-207.7457"/>
</g>
<!-- Node49 -->
<g id="node13" class="node">
<title>Node49</title>
<g id="a_node13"><a xlink:href="game_8h.html#a428e51196f5847d0e5e50822aa1c9716" target="_top" xlink:title="displays the end game screen (lost) ">
<polygon fill="#ffffff" stroke="#000000" points="411,-256.5 411,-275.5 491,-275.5 491,-256.5 411,-256.5"/>
<text text-anchor="middle" x="451" y="-263.5" font-family="Helvetica,sans-Serif" font-size="10.00" fill="#000000">game_over_sp</text>
</a>
</g>
</g>
<!-- Node47&#45;&gt;Node49 -->
<g id="edge19" class="edge">
<title>Node47&#45;&gt;Node49</title>
<path fill="none" stroke="#191970" d="M365.8053,-206.4638C378.2728,-217.0781 395.1884,-230.9168 411,-242 418.2948,-247.1133 426.7058,-252.2635 433.9271,-256.4749"/>
<polygon fill="#191970" stroke="#191970" points="367.8151,-203.5757 357.9529,-199.7041 363.2482,-208.8808 367.8151,-203.5757"/>
</g>
<!-- Node50 -->
<g id="node14" class="node">
<title>Node50</title>
<g id="a_node14"><a xlink:href="game_8h.html#a0ecf3df63f0053cd3177ad9dd3716b54" target="_top" xlink:title="displays the end game screen (won) ">
<polygon fill="#ffffff" stroke="#000000" points="420.5,-142.5 420.5,-161.5 481.5,-161.5 481.5,-142.5 420.5,-142.5"/>
<text text-anchor="middle" x="451" y="-149.5" font-family="Helvetica,sans-Serif" font-size="10.00" fill="#000000">winner_sp</text>
</a>
</g>
</g>
<!-- Node47&#45;&gt;Node50 -->
<g id="edge21" class="edge">
<title>Node47&#45;&gt;Node50</title>
<path fill="none" stroke="#191970" d="M382.9019,-176.882C396.6571,-171.8561 412.0796,-166.2209 424.7648,-161.5859"/>
<polygon fill="#191970" stroke="#191970" points="381.435,-173.6916 373.2436,-180.411 383.8374,-180.2664 381.435,-173.6916"/>
</g>
<!-- Node48&#45;&gt;Node41 -->
<g id="edge18" class="edge">
<title>Node48&#45;&gt;Node41</title>
<path fill="none" stroke="#191970" d="M602.0473,-251.355C606.6177,-248.5633 611.0951,-245.4284 615,-242 642.7372,-217.6476 665.5463,-179.5345 675.3408,-161.7502"/>
<polygon fill="#191970" stroke="#191970" points="600.2729,-248.3373 593.2699,-256.2877 603.7023,-254.4397 600.2729,-248.3373"/>
</g>
<!-- Node49&#45;&gt;Node48 -->
<g id="edge20" class="edge">
<title>Node49&#45;&gt;Node48</title>
<path fill="none" stroke="#191970" d="M501.5739,-266C510.8395,-266 520.4127,-266 529.3797,-266"/>
<polygon fill="#191970" stroke="#191970" points="501.2921,-262.5001 491.2921,-266 501.2921,-269.5001 501.2921,-262.5001"/>
</g>
<!-- Node50&#45;&gt;Node46 -->
<g id="edge22" class="edge">
<title>Node50&#45;&gt;Node46</title>
<path fill="none" stroke="#191970" d="M491.8666,-152C503.4419,-152 516.0783,-152 527.7872,-152"/>
<polygon fill="#191970" stroke="#191970" points="491.5916,-148.5001 481.5916,-152 491.5915,-155.5001 491.5916,-148.5001"/>
</g>
<!-- Node51&#45;&gt;Node43 -->
<g id="edge25" class="edge">
<title>Node51&#45;&gt;Node43</title>
<path fill="none" stroke="#191970" d="M822.1557,-35.7322C838.1403,-39.2426 857.9658,-43.5964 875.5076,-47.4487"/>
<polygon fill="#191970" stroke="#191970" points="822.7869,-32.2875 812.2688,-33.561 821.2853,-39.1246 822.7869,-32.2875"/>
</g>
<!-- Node51&#45;&gt;Node51 -->
<g id="edge24" class="edge">
<title>Node51&#45;&gt;Node51</title>
<path fill="none" stroke="#191970" d="M771.1306,-48.4C772.491,-53.3146 779.2808,-57 791.5,-57 811.0508,-57 816.7022,-47.5653 808.4542,-38.7571"/>
<polygon fill="#191970" stroke="#191970" points="774.5065,-49.3518 774.5458,-38.7571 767.9081,-47.0149 774.5065,-49.3518"/>
</g>
</g>
</svg>
