<?xml version="1.0" encoding="UTF-8" standalone="no"?>
<!DOCTYPE svg PUBLIC "-//W3C//DTD SVG 1.1//EN"
 "http://www.w3.org/Graphics/SVG/1.1/DTD/svg11.dtd">
<!-- Generated by graphviz version 2.40.1 (20161225.0304)
 -->
<!-- Title: mouse_command Pages: 1 -->
<svg width="645pt" height="66pt"
 viewBox="0.00 0.00 645.00 66.00" xmlns="http://www.w3.org/2000/svg" xmlns:xlink="http://www.w3.org/1999/xlink">
<g id="graph0" class="graph" transform="scale(1 1) rotate(0) translate(4 62)">
<title>mouse_command</title>
<polygon fill="#ffffff" stroke="transparent" points="-4,4 -4,-62 641,-62 641,4 -4,4"/>
<!-- Node68 -->
<g id="node1" class="node">
<title>Node68</title>
<polygon fill="#bfbfbf" stroke="#000000" points="0,-19.5 0,-38.5 94,-38.5 94,-19.5 0,-19.5"/>
<text text-anchor="middle" x="47" y="-26.5" font-family="Helvetica,sans-Serif" font-size="10.00" fill="#000000">mouse_command</text>
</g>
<!-- Node69 -->
<g id="node2" class="node">
<title>Node69</title>
<g id="a_node2"><a xlink:href="mouse_8h.html#a931e47d5ee56f248d36a9295f8931f4b" target="_top" xlink:title="Subscribe mouse interrupts. ">
<polygon fill="#ffffff" stroke="#000000" points="135,-38.5 135,-57.5 244,-57.5 244,-38.5 135,-38.5"/>
<text text-anchor="middle" x="189.5" y="-45.5" font-family="Helvetica,sans-Serif" font-size="10.00" fill="#000000">mouse_subscribe_int</text>
</a>
</g>
</g>
<!-- Node68&#45;&gt;Node69 -->
<g id="edge1" class="edge">
<title>Node68&#45;&gt;Node69</title>
<path fill="none" stroke="#191970" d="M104.042,-36.6056C114.1953,-37.9594 124.7497,-39.3666 134.8348,-40.7113"/>
<polygon fill="#191970" stroke="#191970" points="104.4296,-33.1264 94.0548,-35.274 103.5044,-40.065 104.4296,-33.1264"/>
</g>
<!-- Node73 -->
<g id="node6" class="node">
<title>Node73</title>
<g id="a_node6"><a xlink:href="mouse_8h.html#a6ede28d071933c1edc8c745753d592ea" target="_top" xlink:title="Unsubscribe mouse interrupts. ">
<polygon fill="#ffffff" stroke="#000000" points="130,-.5 130,-19.5 249,-19.5 249,-.5 130,-.5"/>
<text text-anchor="middle" x="189.5" y="-7.5" font-family="Helvetica,sans-Serif" font-size="10.00" fill="#000000">mouse_unsubscribe_int</text>
</a>
</g>
</g>
<!-- Node68&#45;&gt;Node73 -->
<g id="edge5" class="edge">
<title>Node68&#45;&gt;Node73</title>
<path fill="none" stroke="#191970" d="M104.1701,-21.3773C112.6018,-20.2531 121.3074,-19.0923 129.7889,-17.9615"/>
<polygon fill="#191970" stroke="#191970" points="103.5044,-17.935 94.0548,-22.726 104.4296,-24.8736 103.5044,-17.935"/>
</g>
<!-- Node70 -->
<g id="node3" class="node">
<title>Node70</title>
<g id="a_node3"><a xlink:href="interrupt__cicle_8h.html#a9553b9e9f5fa6db9b6fa41da73c82341" target="_top" xlink:title="Subscribes interrupts of the necessary modules. ">
<polygon fill="#ffffff" stroke="#000000" points="286,-38.5 286,-57.5 390,-57.5 390,-38.5 286,-38.5"/>
<text text-anchor="middle" x="338" y="-45.5" font-family="Helvetica,sans-Serif" font-size="10.00" fill="#000000">enable_components</text>
</a>
</g>
</g>
<!-- Node69&#45;&gt;Node70 -->
<g id="edge2" class="edge">
<title>Node69&#45;&gt;Node70</title>
<path fill="none" stroke="#191970" d="M254.679,-48C265.0956,-48 275.7539,-48 285.8174,-48"/>
<polygon fill="#191970" stroke="#191970" points="254.374,-44.5001 244.374,-48 254.374,-51.5001 254.374,-44.5001"/>
</g>
<!-- Node71 -->
<g id="node4" class="node">
<title>Node71</title>
<g id="a_node4"><a xlink:href="menu_8h.html#a6ed6ac9188a15c74b9d07d12b34397c0" target="_top" xlink:title="Subscribes interruptions of the necessary modules Calls main menu and game functions. ">
<polygon fill="#ffffff" stroke="#000000" points="427,-19.5 427,-38.5 519,-38.5 519,-19.5 427,-19.5"/>
<text text-anchor="middle" x="473" y="-26.5" font-family="Helvetica,sans-Serif" font-size="10.00" fill="#000000">game_main_cicle</text>
</a>
</g>
</g>
<!-- Node70&#45;&gt;Node71 -->
<g id="edge3" class="edge">
<title>Node70&#45;&gt;Node71</title>
<path fill="none" stroke="#191970" d="M400.1745,-39.2495C409.0905,-37.9947 418.1311,-36.7223 426.6691,-35.5207"/>
<polygon fill="#191970" stroke="#191970" points="399.6091,-35.7945 390.1945,-40.6541 400.5847,-42.7262 399.6091,-35.7945"/>
</g>
<!-- Node72 -->
<g id="node5" class="node">
<title>Node72</title>
<g id="a_node5"><a xlink:href="proj_8c.html#a2a16f651eccbd248e1ad3b3b924b143b" target="_top" xlink:title="proj_main_loop">
<polygon fill="#ffffff" stroke="#000000" points="555,-19.5 555,-38.5 637,-38.5 637,-19.5 555,-19.5"/>
<text text-anchor="middle" x="596" y="-26.5" font-family="Helvetica,sans-Serif" font-size="10.00" fill="#000000">proj_main_loop</text>
</a>
</g>
</g>
<!-- Node71&#45;&gt;Node72 -->
<g id="edge4" class="edge">
<title>Node71&#45;&gt;Node72</title>
<path fill="none" stroke="#191970" d="M529.1908,-29C537.8339,-29 546.6179,-29 554.8531,-29"/>
<polygon fill="#191970" stroke="#191970" points="529.1506,-25.5001 519.1506,-29 529.1506,-32.5001 529.1506,-25.5001"/>
</g>
<!-- Node74 -->
<g id="node7" class="node">
<title>Node74</title>
<g id="a_node7"><a xlink:href="interrupt__cicle_8h.html#a3c004d0012483dd8dc40d901b176e8a7" target="_top" xlink:title="Unsubscribes interrupts from the subscribed modules. ">
<polygon fill="#ffffff" stroke="#000000" points="285,-.5 285,-19.5 391,-19.5 391,-.5 285,-.5"/>
<text text-anchor="middle" x="338" y="-7.5" font-family="Helvetica,sans-Serif" font-size="10.00" fill="#000000">disable_components</text>
</a>
</g>
</g>
<!-- Node73&#45;&gt;Node74 -->
<g id="edge6" class="edge">
<title>Node73&#45;&gt;Node74</title>
<path fill="none" stroke="#191970" d="M259.0794,-10C267.6838,-10 276.3721,-10 284.6798,-10"/>
<polygon fill="#191970" stroke="#191970" points="259.045,-6.5001 249.045,-10 259.0449,-13.5001 259.045,-6.5001"/>
</g>
<!-- Node74&#45;&gt;Node71 -->
<g id="edge7" class="edge">
<title>Node74&#45;&gt;Node71</title>
<path fill="none" stroke="#191970" d="M401.2876,-18.9071C409.8113,-20.1068 418.4249,-21.3191 426.582,-22.4671"/>
<polygon fill="#191970" stroke="#191970" points="401.7458,-15.4372 391.3556,-17.5093 400.7702,-22.3689 401.7458,-15.4372"/>
</g>
</g>
</svg>
