<?xml version="1.0" encoding="UTF-8" standalone="no"?>
<!DOCTYPE svg PUBLIC "-//W3C//DTD SVG 1.1//EN"
 "http://www.w3.org/Graphics/SVG/1.1/DTD/svg11.dtd">
<!-- Generated by graphviz version 2.40.1 (20161225.0304)
 -->
<!-- Title: get_cnt_bytes Pages: 1 -->
<!--zoomable 305 -->
<svg id="main" version="1.1" xmlns="http://www.w3.org/2000/svg" xmlns:xlink="http://www.w3.org/1999/xlink" xml:space="preserve" onload="init(evt)">
<style type="text/css"><![CDATA[
.edge:hover path { stroke: red; }
.edge:hover polygon { stroke: red; fill: red; }
]]></style>
<script type="text/javascript"><![CDATA[
var edges = document.getElementsByTagName('g');
if (edges && edges.length) {
  for (var i=0;i<edges.length;i++) {
    if (edges[i].id.substr(0,4)=='edge') {
      edges[i].setAttribute('class','edge');
    }
  }
}
]]></script>
        <defs>
                <circle id="rim" cx="0" cy="0" r="7"/>
                <circle id="rim2" cx="0" cy="0" r="3.5"/>
                <g id="zoomPlus">
                        <use xlink:href="#rim" fill="#404040">
                                <set attributeName="fill" to="#808080" begin="zoomplus.mouseover" end="zoomplus.mouseout"/>
                        </use>
                        <path d="M-4,0h8M0,-4v8" fill="none" stroke="white" stroke-width="1.5" pointer-events="none"/>
                </g>
                <g id="zoomMin">
                        <use xlink:href="#rim" fill="#404040">
                                <set attributeName="fill" to="#808080" begin="zoomminus.mouseover" end="zoomminus.mouseout"/>
                        </use>
                        <path d="M-4,0h8" fill="none" stroke="white" stroke-width="1.5" pointer-events="none"/>
                </g>
                <g id="dirArrow">
                        <path fill="none" stroke="white" stroke-width="1.5" d="M0,-3.0v7 M-2.5,-0.5L0,-3.0L2.5,-0.5"/>
                </g>
               <g id="resetDef">
                       <use xlink:href="#rim2" fill="#404040">
                               <set attributeName="fill" to="#808080" begin="reset.mouseover" end="reset.mouseout"/>
                       </use>
               </g>
        </defs>

<script type="text/javascript">
var viewWidth = 999;
var viewHeight = 305;
var sectionId = 'dynsection-1';
</script>
<script xlink:href="svgpan.js"/>
<svg id="graph" class="graph">
<g id="viewport">
<title>get_cnt_bytes</title>
<polygon fill="#ffffff" stroke="transparent" points="-4,4 -4,-300.8574 995,-300.8574 995,4 -4,4"/>
<!-- Node18 -->
<g id="node1" class="node">
<title>Node18</title>
<polygon fill="#bfbfbf" stroke="#000000" points="0,-47.5 0,-66.5 78,-66.5 78,-47.5 0,-47.5"/>
<text text-anchor="middle" x="39" y="-54.5" font-family="Helvetica,sans-Serif" font-size="10.00" fill="#000000">get_cnt_bytes</text>
</g>
<!-- Node19 -->
<g id="node2" class="node">
<title>Node19</title>
<g id="a_node2"><a xlink:href="interrupt__cicle_8h.html#a0718d5c75848a080a2122df6548d2422" target="_top" xlink:title="Receives and handles interruptions from the necessary modules. ">
<polygon fill="#ffffff" stroke="#000000" points="114,-47.5 114,-66.5 191,-66.5 191,-47.5 114,-47.5"/>
<text text-anchor="middle" x="152.5" y="-54.5" font-family="Helvetica,sans-Serif" font-size="10.00" fill="#000000">interrupt_cicle</text>
</a>
</g>
</g>
<!-- Node18&#45;&gt;Node19 -->
<g id="edge1" class="edge">
<title>Node18&#45;&gt;Node19</title>
<path fill="none" stroke="#191970" d="M88.2887,-57C96.8103,-57 105.5604,-57 113.7522,-57"/>
<polygon fill="#191970" stroke="#191970" points="88.0603,-53.5001 78.0603,-57 88.0602,-60.5001 88.0603,-53.5001"/>
</g>
<!-- Node20 -->
<g id="node3" class="node">
<title>Node20</title>
<g id="a_node3"><a xlink:href="game_8h.html#a382ed7c0cb3201c13d4396ad9afc5a3e" target="_top" xlink:title="Lets the player initialize the board unsign a graphical interface 10 boats must be positioned before ...">
<polygon fill="#ffffff" stroke="#000000" points="435,-66.5 435,-85.5 523,-85.5 523,-66.5 435,-66.5"/>
<text text-anchor="middle" x="479" y="-73.5" font-family="Helvetica,sans-Serif" font-size="10.00" fill="#000000">game_init_board</text>
</a>
</g>
</g>
<!-- Node19&#45;&gt;Node20 -->
<g id="edge2" class="edge">
<title>Node19&#45;&gt;Node20</title>
<path fill="none" stroke="#191970" d="M201.1974,-55.7983C251.0137,-55.0823 330.5878,-55.3595 399,-62 410.6482,-63.1307 423.1527,-64.9998 434.7338,-67.0097"/>
<polygon fill="#191970" stroke="#191970" points="200.9751,-52.3014 191.0336,-55.9643 201.0894,-59.3005 200.9751,-52.3014"/>
</g>
<!-- Node26 -->
<g id="node9" class="node">
<title>Node26</title>
<g id="a_node9"><a xlink:href="game_8h.html#aaeeee1282b90aa12468a1862c7871ee4" target="_top" xlink:title="Lets the player fire against the enemy&#39;s boats using a graphical interface Shows previously hit cells...">
<polygon fill="#ffffff" stroke="#000000" points="436,-142.5 436,-161.5 522,-161.5 522,-142.5 436,-142.5"/>
<text text-anchor="middle" x="479" y="-149.5" font-family="Helvetica,sans-Serif" font-size="10.00" fill="#000000">game_round_sp</text>
</a>
</g>
</g>
<!-- Node19&#45;&gt;Node26 -->
<g id="edge9" class="edge">
<title>Node19&#45;&gt;Node26</title>
<path fill="none" stroke="#191970" d="M194.9747,-69.3586C260.9676,-88.5602 386.7107,-125.1471 446.2208,-142.4624"/>
<polygon fill="#191970" stroke="#191970" points="195.8806,-65.9772 185.301,-66.5439 193.9249,-72.6984 195.8806,-65.9772"/>
</g>
<!-- Node27 -->
<g id="node10" class="node">
<title>Node27</title>
<g id="a_node10"><a xlink:href="game_8h.html#abdd70639378b19cfc929273ef7b4ff45" target="_top" xlink:title="Uses timer interruptions to wait a predetermined time. ">
<polygon fill="#ffffff" stroke="#000000" points="227,-180.5 227,-199.5 283,-199.5 283,-180.5 227,-180.5"/>
<text text-anchor="middle" x="255" y="-187.5" font-family="Helvetica,sans-Serif" font-size="10.00" fill="#000000">idle_time</text>
</a>
</g>
</g>
<!-- Node19&#45;&gt;Node27 -->
<g id="edge12" class="edge">
<title>Node19&#45;&gt;Node27</title>
<path fill="none" stroke="#191970" d="M166.2109,-74.7907C188.1027,-103.1967 230.2315,-157.8614 247.4187,-180.1628"/>
<polygon fill="#191970" stroke="#191970" points="168.7481,-72.3492 159.8715,-66.565 163.2036,-76.6223 168.7481,-72.3492"/>
</g>
<!-- Node31 -->
<g id="node14" class="node">
<title>Node31</title>
<g id="a_node14"><a xlink:href="menu_8h.html#a4cc4e9de5c448babdb711586dd12bec0" target="_top" xlink:title="graphical interface for the main menu ">
<polygon fill="#ffffff" stroke="#000000" points="679,-19.5 679,-38.5 720,-38.5 720,-19.5 679,-19.5"/>
<text text-anchor="middle" x="699.5" y="-26.5" font-family="Helvetica,sans-Serif" font-size="10.00" fill="#000000">menu</text>
</a>
</g>
</g>
<!-- Node19&#45;&gt;Node31 -->
<g id="edge22" class="edge">
<title>Node19&#45;&gt;Node31</title>
<path fill="none" stroke="#191970" d="M182.0963,-43.4037C221.5687,-26.5435 294.0284,0 359,0 359,0 359,0 479,0 553.133,0 640.0977,-16.3125 678.9468,-24.4688"/>
<polygon fill="#191970" stroke="#191970" points="180.5634,-40.2537 172.7963,-47.4595 183.3617,-46.6701 180.5634,-40.2537"/>
</g>
<!-- Node21 -->
<g id="node4" class="node">
<title>Node21</title>
<g id="a_node4"><a xlink:href="game_8h.html#aff1f849979a9ca10d6ff2bce0dfb7fd5" target="_top" xlink:title="Single Player Iniciates the boards from the respective players Starts the game loop (1 turn per playe...">
<polygon fill="#ffffff" stroke="#000000" points="560.5,-142.5 560.5,-161.5 616.5,-161.5 616.5,-142.5 560.5,-142.5"/>
<text text-anchor="middle" x="588.5" y="-149.5" font-family="Helvetica,sans-Serif" font-size="10.00" fill="#000000">game_sp</text>
</a>
</g>
</g>
<!-- Node20&#45;&gt;Node21 -->
<g id="edge3" class="edge">
<title>Node20&#45;&gt;Node21</title>
<path fill="none" stroke="#191970" d="M500.3378,-91.6151C516.3446,-103.228 538.8701,-119.3571 559,-133 563.6394,-136.1443 568.7542,-139.4825 573.4034,-142.4691"/>
<polygon fill="#191970" stroke="#191970" points="502.3173,-88.727 492.1723,-85.6726 498.1983,-94.3869 502.3173,-88.727"/>
</g>
<!-- Node25 -->
<g id="node8" class="node">
<title>Node25</title>
<g id="a_node8"><a xlink:href="game_8h.html#a03f40ddf75045683b3f488d4839937ab" target="_top" xlink:title="Multiplayer. ">
<polygon fill="#ffffff" stroke="#000000" points="559,-104.5 559,-123.5 618,-123.5 618,-104.5 559,-104.5"/>
<text text-anchor="middle" x="588.5" y="-111.5" font-family="Helvetica,sans-Serif" font-size="10.00" fill="#000000">game_mp</text>
</a>
</g>
</g>
<!-- Node20&#45;&gt;Node25 -->
<g id="edge7" class="edge">
<title>Node20&#45;&gt;Node25</title>
<path fill="none" stroke="#191970" d="M516.3792,-88.9718C530.9676,-94.0344 547.3917,-99.7341 560.8774,-104.4141"/>
<polygon fill="#191970" stroke="#191970" points="517.2263,-85.561 506.6315,-85.589 514.9313,-92.1741 517.2263,-85.561"/>
</g>
<!-- Node22 -->
<g id="node5" class="node">
<title>Node22</title>
<g id="a_node5"><a xlink:href="menu_8h.html#a95c8dcba38d720d3e4bd6fcf9a8ee279" target="_top" xlink:title="selects a menu option ">
<polygon fill="#ffffff" stroke="#000000" points="654,-104.5 654,-123.5 745,-123.5 745,-104.5 654,-104.5"/>
<text text-anchor="middle" x="699.5" y="-111.5" font-family="Helvetica,sans-Serif" font-size="10.00" fill="#000000">select_menu_opt</text>
</a>
</g>
</g>
<!-- Node21&#45;&gt;Node22 -->
<g id="edge4" class="edge">
<title>Node21&#45;&gt;Node22</title>
<path fill="none" stroke="#191970" d="M626.3913,-139.0282C641.1795,-133.9656 657.8285,-128.2659 671.499,-123.5859"/>
<polygon fill="#191970" stroke="#191970" points="624.8373,-135.8607 616.51,-142.411 627.1046,-142.4834 624.8373,-135.8607"/>
</g>
<!-- Node23 -->
<g id="node6" class="node">
<title>Node23</title>
<g id="a_node6"><a xlink:href="menu_8h.html#a6ed6ac9188a15c74b9d07d12b34397c0" target="_top" xlink:title="Subscribes interruptions of the necessary modules Calls main menu and game functions. ">
<polygon fill="#ffffff" stroke="#000000" points="781,-47.5 781,-66.5 873,-66.5 873,-47.5 781,-47.5"/>
<text text-anchor="middle" x="827" y="-54.5" font-family="Helvetica,sans-Serif" font-size="10.00" fill="#000000">game_main_cicle</text>
</a>
</g>
</g>
<!-- Node22&#45;&gt;Node23 -->
<g id="edge5" class="edge">
<title>Node22&#45;&gt;Node23</title>
<path fill="none" stroke="#191970" d="M730.2731,-100.2426C753.5688,-89.8281 784.9716,-75.7892 805.5897,-66.5716"/>
<polygon fill="#191970" stroke="#191970" points="728.5414,-97.1829 720.8406,-104.4595 731.3984,-103.5734 728.5414,-97.1829"/>
</g>
<!-- Node24 -->
<g id="node7" class="node">
<title>Node24</title>
<g id="a_node7"><a xlink:href="proj_8c.html#a2a16f651eccbd248e1ad3b3b924b143b" target="_top" xlink:title="proj_main_loop">
<polygon fill="#ffffff" stroke="#000000" points="909,-47.5 909,-66.5 991,-66.5 991,-47.5 909,-47.5"/>
<text text-anchor="middle" x="950" y="-54.5" font-family="Helvetica,sans-Serif" font-size="10.00" fill="#000000">proj_main_loop</text>
</a>
</g>
</g>
<!-- Node23&#45;&gt;Node24 -->
<g id="edge6" class="edge">
<title>Node23&#45;&gt;Node24</title>
<path fill="none" stroke="#191970" d="M883.1908,-57C891.8339,-57 900.6179,-57 908.8531,-57"/>
<polygon fill="#191970" stroke="#191970" points="883.1506,-53.5001 873.1506,-57 883.1506,-60.5001 883.1506,-53.5001"/>
</g>
<!-- Node25&#45;&gt;Node22 -->
<g id="edge8" class="edge">
<title>Node25&#45;&gt;Node22</title>
<path fill="none" stroke="#191970" d="M628.3594,-114C636.6038,-114 645.3495,-114 653.7839,-114"/>
<polygon fill="#191970" stroke="#191970" points="628.246,-110.5001 618.246,-114 628.2459,-117.5001 628.246,-110.5001"/>
</g>
<!-- Node26&#45;&gt;Node21 -->
<g id="edge10" class="edge">
<title>Node26&#45;&gt;Node21</title>
<path fill="none" stroke="#191970" d="M532.2954,-152C541.9786,-152 551.7225,-152 560.3144,-152"/>
<polygon fill="#191970" stroke="#191970" points="532.2773,-148.5001 522.2773,-152 532.2773,-155.5001 532.2773,-148.5001"/>
</g>
<!-- Node26&#45;&gt;Node25 -->
<g id="edge11" class="edge">
<title>Node26&#45;&gt;Node25</title>
<path fill="none" stroke="#191970" d="M516.3792,-139.0282C530.9676,-133.9656 547.3917,-128.2659 560.8774,-123.5859"/>
<polygon fill="#191970" stroke="#191970" points="514.9313,-135.8259 506.6315,-142.411 517.2263,-142.439 514.9313,-135.8259"/>
</g>
<!-- Node27&#45;&gt;Node21 -->
<g id="edge13" class="edge">
<title>Node27&#45;&gt;Node21</title>
<path fill="none" stroke="#191970" d="M293.3278,-191.5804C322.376,-192.3952 363.2559,-192.7226 399,-190 454.5933,-185.7655 468.5555,-183.0141 523,-171 535.3715,-168.27 548.8439,-164.5029 560.3356,-161.0425"/>
<polygon fill="#191970" stroke="#191970" points="293.2973,-188.0778 283.1926,-191.2629 293.0781,-195.0744 293.2973,-188.0778"/>
</g>
<!-- Node27&#45;&gt;Node25 -->
<g id="edge14" class="edge">
<title>Node27&#45;&gt;Node25</title>
<path fill="none" stroke="#191970" d="M268.8687,-172.5314C280.6349,-159.1273 298.7902,-141.5207 319,-133 400.2537,-98.7424 507.5091,-104.5538 558.7556,-110.0583"/>
<polygon fill="#191970" stroke="#191970" points="266.1644,-170.3092 262.407,-180.2154 271.5219,-174.8145 266.1644,-170.3092"/>
</g>
<!-- Node27&#45;&gt;Node26 -->
<g id="edge15" class="edge">
<title>Node27&#45;&gt;Node26</title>
<path fill="none" stroke="#191970" d="M293.1639,-186.0385C322.284,-182.7564 363.3296,-177.5714 399,-171 413.1794,-168.3878 428.6227,-164.8793 442.1256,-161.5884"/>
<polygon fill="#191970" stroke="#191970" points="292.5623,-182.5836 283.0071,-187.1606 293.331,-189.5412 292.5623,-182.5836"/>
</g>
<!-- Node28 -->
<g id="node11" class="node">
<title>Node28</title>
<g id="a_node11"><a xlink:href="game_8h.html#afb1a61b5802eed643536ce45225d2000" target="_top" xlink:title="Randomly fires upon player&#39;s boats using a state machine to simulate a strategy In case of a hit the ...">
<polygon fill="#ffffff" stroke="#000000" points="437.5,-256.5 437.5,-275.5 520.5,-275.5 520.5,-256.5 437.5,-256.5"/>
<text text-anchor="middle" x="479" y="-263.5" font-family="Helvetica,sans-Serif" font-size="10.00" fill="#000000">game_round_ai</text>
</a>
</g>
</g>
<!-- Node27&#45;&gt;Node28 -->
<g id="edge16" class="edge">
<title>Node27&#45;&gt;Node28</title>
<path fill="none" stroke="#191970" d="M261.5636,-209.2101C270.5236,-232.0358 288.9912,-269.0332 319,-285 364.3152,-309.111 426.8744,-288.8945 458.6739,-275.5099"/>
<polygon fill="#191970" stroke="#191970" points="264.7542,-207.7457 258.0139,-199.5714 258.1855,-210.1649 264.7542,-207.7457"/>
</g>
<!-- Node29 -->
<g id="node12" class="node">
<title>Node29</title>
<g id="a_node12"><a xlink:href="game_8h.html#a428e51196f5847d0e5e50822aa1c9716" target="_top" xlink:title="displays the end game screen (lost) ">
<polygon fill="#ffffff" stroke="#000000" points="319,-256.5 319,-275.5 399,-275.5 399,-256.5 319,-256.5"/>
<text text-anchor="middle" x="359" y="-263.5" font-family="Helvetica,sans-Serif" font-size="10.00" fill="#000000">game_over_sp</text>
</a>
</g>
</g>
<!-- Node27&#45;&gt;Node29 -->
<g id="edge18" class="edge">
<title>Node27&#45;&gt;Node29</title>
<path fill="none" stroke="#191970" d="M273.8053,-206.4638C286.2728,-217.0781 303.1884,-230.9168 319,-242 326.2948,-247.1133 334.7058,-252.2635 341.9271,-256.4749"/>
<polygon fill="#191970" stroke="#191970" points="275.8151,-203.5757 265.9529,-199.7041 271.2482,-208.8808 275.8151,-203.5757"/>
</g>
<!-- Node30 -->
<g id="node13" class="node">
<title>Node30</title>
<g id="a_node13"><a xlink:href="game_8h.html#a0ecf3df63f0053cd3177ad9dd3716b54" target="_top" xlink:title="displays the end game screen (won) ">
<polygon fill="#ffffff" stroke="#000000" points="328.5,-142.5 328.5,-161.5 389.5,-161.5 389.5,-142.5 328.5,-142.5"/>
<text text-anchor="middle" x="359" y="-149.5" font-family="Helvetica,sans-Serif" font-size="10.00" fill="#000000">winner_sp</text>
</a>
</g>
</g>
<!-- Node27&#45;&gt;Node30 -->
<g id="edge20" class="edge">
<title>Node27&#45;&gt;Node30</title>
<path fill="none" stroke="#191970" d="M290.9019,-176.882C304.6571,-171.8561 320.0796,-166.2209 332.7648,-161.5859"/>
<polygon fill="#191970" stroke="#191970" points="289.435,-173.6916 281.2436,-180.411 291.8374,-180.2664 289.435,-173.6916"/>
</g>
<!-- Node28&#45;&gt;Node21 -->
<g id="edge17" class="edge">
<title>Node28&#45;&gt;Node21</title>
<path fill="none" stroke="#191970" d="M510.0473,-251.355C514.6177,-248.5633 519.0951,-245.4284 523,-242 550.7372,-217.6476 573.5463,-179.5345 583.3408,-161.7502"/>
<polygon fill="#191970" stroke="#191970" points="508.2729,-248.3373 501.2699,-256.2877 511.7023,-254.4397 508.2729,-248.3373"/>
</g>
<!-- Node29&#45;&gt;Node28 -->
<g id="edge19" class="edge">
<title>Node29&#45;&gt;Node28</title>
<path fill="none" stroke="#191970" d="M409.5739,-266C418.8395,-266 428.4127,-266 437.3797,-266"/>
<polygon fill="#191970" stroke="#191970" points="409.2921,-262.5001 399.2921,-266 409.2921,-269.5001 409.2921,-262.5001"/>
</g>
<!-- Node30&#45;&gt;Node26 -->
<g id="edge21" class="edge">
<title>Node30&#45;&gt;Node26</title>
<path fill="none" stroke="#191970" d="M399.8666,-152C411.4419,-152 424.0783,-152 435.7872,-152"/>
<polygon fill="#191970" stroke="#191970" points="399.5916,-148.5001 389.5916,-152 399.5915,-155.5001 399.5916,-148.5001"/>
</g>
<!-- Node31&#45;&gt;Node23 -->
<g id="edge24" class="edge">
<title>Node31&#45;&gt;Node23</title>
<path fill="none" stroke="#191970" d="M730.1557,-35.7322C746.1403,-39.2426 765.9658,-43.5964 783.5076,-47.4487"/>
<polygon fill="#191970" stroke="#191970" points="730.7869,-32.2875 720.2688,-33.561 729.2853,-39.1246 730.7869,-32.2875"/>
</g>
<!-- Node31&#45;&gt;Node31 -->
<g id="edge23" class="edge">
<title>Node31&#45;&gt;Node31</title>
<path fill="none" stroke="#191970" d="M679.1306,-48.4C680.491,-53.3146 687.2808,-57 699.5,-57 719.0508,-57 724.7022,-47.5653 716.4542,-38.7571"/>
<polygon fill="#191970" stroke="#191970" points="682.5065,-49.3518 682.5458,-38.7571 675.9081,-47.0149 682.5065,-49.3518"/>
</g>
</g>
</svg>
        <g id="navigator" transform="translate(0 0)" fill="#404254">
                <rect fill="#f2f5e9" fill-opacity="0.5" stroke="#606060" stroke-width=".5" x="0" y="0" width="60" height="60"/>
                <use id="zoomplus" xlink:href="#zoomPlus" x="17" y="9" onmousedown="handleZoom(evt,'in')"/>
                <use id="zoomminus" xlink:href="#zoomMin" x="42" y="9" onmousedown="handleZoom(evt,'out')"/>
                <use id="reset" xlink:href="#resetDef" x="30" y="36" onmousedown="handleReset()"/>
                <g id="arrowUp" xlink:href="#dirArrow" transform="translate(30 24)" onmousedown="handlePan(0,-1)">
                  <use xlink:href="#rim" fill="#404040">
                        <set attributeName="fill" to="#808080" begin="arrowUp.mouseover" end="arrowUp.mouseout"/>
                  </use>
                  <path fill="none" stroke="white" stroke-width="1.5" d="M0,-3.0v7 M-2.5,-0.5L0,-3.0L2.5,-0.5"/>
                </g>
                <g id="arrowRight" xlink:href="#dirArrow" transform="rotate(90) translate(36 -43)" onmousedown="handlePan(1,0)">
                  <use xlink:href="#rim" fill="#404040">
                        <set attributeName="fill" to="#808080" begin="arrowRight.mouseover" end="arrowRight.mouseout"/>
                  </use>
                  <path fill="none" stroke="white" stroke-width="1.5" d="M0,-3.0v7 M-2.5,-0.5L0,-3.0L2.5,-0.5"/>
                </g>
                <g id="arrowDown" xlink:href="#dirArrow" transform="rotate(180) translate(-30 -48)" onmousedown="handlePan(0,1)">
                  <use xlink:href="#rim" fill="#404040">
                        <set attributeName="fill" to="#808080" begin="arrowDown.mouseover" end="arrowDown.mouseout"/>
                  </use>
                  <path fill="none" stroke="white" stroke-width="1.5" d="M0,-3.0v7 M-2.5,-0.5L0,-3.0L2.5,-0.5"/>
                </g>
                <g id="arrowLeft" xlink:href="#dirArrow" transform="rotate(270) translate(-36 17)" onmousedown="handlePan(-1,0)">
                  <use xlink:href="#rim" fill="#404040">
                        <set attributeName="fill" to="#808080" begin="arrowLeft.mouseover" end="arrowLeft.mouseout"/>
                  </use>
                  <path fill="none" stroke="white" stroke-width="1.5" d="M0,-3.0v7 M-2.5,-0.5L0,-3.0L2.5,-0.5"/>
                </g>
        </g>
        <svg viewBox="0 0 15 15" width="100%" height="30px" preserveAspectRatio="xMaxYMin meet">
         <g id="arrow_out" transform="scale(0.3 0.3)">
          <a xlink:href="mouse_8c_a2ce59763196c5a8a030a47599b6a160e_icgraph_org.svg" target="_base">
           <rect id="button" ry="5" rx="5" y="6" x="6" height="38" width="38"
                fill="#f2f5e9" fill-opacity="0.5" stroke="#606060" stroke-width="1.0"/>
           <path id="arrow"
             d="M 11.500037,31.436501 C 11.940474,20.09759 22.043105,11.32322 32.158766,21.979434 L 37.068811,17.246167 C 37.068811,17.246167 37.088388,32 37.088388,32 L 22.160133,31.978069 C 22.160133,31.978069 26.997745,27.140456 26.997745,27.140456 C 18.528582,18.264221 13.291696,25.230495 11.500037,31.436501 z"
             style="fill:#404040;"/>
          </a>
         </g>
        </svg>
</svg>
