<?xml version="1.0" encoding="UTF-8" standalone="no"?>
<!DOCTYPE svg PUBLIC "-//W3C//DTD SVG 1.1//EN"
 "http://www.w3.org/Graphics/SVG/1.1/DTD/svg11.dtd">
<!-- Generated by graphviz version 2.40.1 (20161225.0304)
 -->
<!-- Title: empty_packet Pages: 1 -->
<!--zoomable 305 -->
<svg id="main" version="1.1" xmlns="http://www.w3.org/2000/svg" xmlns:xlink="http://www.w3.org/1999/xlink" xml:space="preserve" onload="init(evt)">
<style type="text/css"><![CDATA[
.edge:hover path { stroke: red; }
.edge:hover polygon { stroke: red; fill: red; }
]]></style>
<script type="text/javascript"><![CDATA[
var edges = document.getElementsByTagName('g');
if (edges && edges.length) {
  for (var i=0;i<edges.length;i++) {
    if (edges[i].id.substr(0,4)=='edge') {
      edges[i].setAttribute('class','edge');
    }
  }
}
]]></script>
        <defs>
                <circle id="rim" cx="0" cy="0" r="7"/>
                <circle id="rim2" cx="0" cy="0" r="3.5"/>
                <g id="zoomPlus">
                        <use xlink:href="#rim" fill="#404040">
                                <set attributeName="fill" to="#808080" begin="zoomplus.mouseover" end="zoomplus.mouseout"/>
                        </use>
                        <path d="M-4,0h8M0,-4v8" fill="none" stroke="white" stroke-width="1.5" pointer-events="none"/>
                </g>
                <g id="zoomMin">
                        <use xlink:href="#rim" fill="#404040">
                                <set attributeName="fill" to="#808080" begin="zoomminus.mouseover" end="zoomminus.mouseout"/>
                        </use>
                        <path d="M-4,0h8" fill="none" stroke="white" stroke-width="1.5" pointer-events="none"/>
                </g>
                <g id="dirArrow">
                        <path fill="none" stroke="white" stroke-width="1.5" d="M0,-3.0v7 M-2.5,-0.5L0,-3.0L2.5,-0.5"/>
                </g>
               <g id="resetDef">
                       <use xlink:href="#rim2" fill="#404040">
                               <set attributeName="fill" to="#808080" begin="reset.mouseover" end="reset.mouseout"/>
                       </use>
               </g>
        </defs>

<script type="text/javascript">
var viewWidth = 1104;
var viewHeight = 305;
var sectionId = 'dynsection-0';
</script>
<script xlink:href="svgpan.js"/>
<svg id="graph" class="graph">
<g id="viewport">
<title>empty_packet</title>
<polygon fill="#ffffff" stroke="transparent" points="-4,4 -4,-300.8574 1100,-300.8574 1100,4 -4,4"/>
<!-- Node1 -->
<g id="node1" class="node">
<title>Node1</title>
<polygon fill="#bfbfbf" stroke="#000000" points="0,-47.5 0,-66.5 78,-66.5 78,-47.5 0,-47.5"/>
<text text-anchor="middle" x="39" y="-54.5" font-family="Helvetica,sans-Serif" font-size="10.00" fill="#000000">empty_packet</text>
</g>
<!-- Node2 -->
<g id="node2" class="node">
<title>Node2</title>
<g id="a_node2"><a xlink:href="interrupt__cicle_8h.html#a3cd9db2b8c583d8e97d9865c1a4802a9" target="_top" xlink:title="Initializes the interrupt_data struct tot be used in other files. ">
<polygon fill="#ffffff" stroke="#000000" points="114,-66.5 114,-85.5 183,-85.5 183,-66.5 114,-66.5"/>
<text text-anchor="middle" x="148.5" y="-73.5" font-family="Helvetica,sans-Serif" font-size="10.00" fill="#000000">init_int_data</text>
</a>
</g>
</g>
<!-- Node1&#45;&gt;Node2 -->
<g id="edge1" class="edge">
<title>Node1&#45;&gt;Node2</title>
<path fill="none" stroke="#191970" d="M88.251,-65.5458C96.911,-67.0485 105.7564,-68.5833 113.9087,-69.9979"/>
<polygon fill="#191970" stroke="#191970" points="88.6739,-62.067 78.2227,-63.8058 87.4771,-68.9639 88.6739,-62.067"/>
</g>
<!-- Node16 -->
<g id="node16" class="node">
<title>Node16</title>
<g id="a_node16"><a xlink:href="mouse_8h.html#a210374b50462acdedab00df64d5cea3c" target="_top" xlink:title="Mouse IH. ">
<polygon fill="#ffffff" stroke="#000000" points="119,-28.5 119,-47.5 178,-47.5 178,-28.5 119,-28.5"/>
<text text-anchor="middle" x="148.5" y="-35.5" font-family="Helvetica,sans-Serif" font-size="10.00" fill="#000000">mouse_ih</text>
</a>
</g>
</g>
<!-- Node1&#45;&gt;Node16 -->
<g id="edge26" class="edge">
<title>Node1&#45;&gt;Node16</title>
<path fill="none" stroke="#191970" d="M88.1292,-48.4753C98.6033,-46.6579 109.3547,-44.7923 118.8282,-43.1485"/>
<polygon fill="#191970" stroke="#191970" points="87.4771,-45.0361 78.2227,-50.1942 88.6739,-51.933 87.4771,-45.0361"/>
</g>
<!-- Node3 -->
<g id="node3" class="node">
<title>Node3</title>
<g id="a_node3"><a xlink:href="interrupt__cicle_8h.html#a0718d5c75848a080a2122df6548d2422" target="_top" xlink:title="Receives and handles interruptions from the necessary modules. ">
<polygon fill="#ffffff" stroke="#000000" points="219,-47.5 219,-66.5 296,-66.5 296,-47.5 219,-47.5"/>
<text text-anchor="middle" x="257.5" y="-54.5" font-family="Helvetica,sans-Serif" font-size="10.00" fill="#000000">interrupt_cicle</text>
</a>
</g>
</g>
<!-- Node2&#45;&gt;Node3 -->
<g id="edge2" class="edge">
<title>Node2&#45;&gt;Node3</title>
<path fill="none" stroke="#191970" d="M193.3939,-68.1745C201.8555,-66.6995 210.6362,-65.1689 218.8849,-63.7311"/>
<polygon fill="#191970" stroke="#191970" points="192.5384,-64.7707 183.288,-69.936 193.7405,-71.6667 192.5384,-64.7707"/>
</g>
<!-- Node4 -->
<g id="node4" class="node">
<title>Node4</title>
<g id="a_node4"><a xlink:href="game_8h.html#a382ed7c0cb3201c13d4396ad9afc5a3e" target="_top" xlink:title="Lets the player initialize the board unsign a graphical interface 10 boats must be positioned before ...">
<polygon fill="#ffffff" stroke="#000000" points="540,-66.5 540,-85.5 628,-85.5 628,-66.5 540,-66.5"/>
<text text-anchor="middle" x="584" y="-73.5" font-family="Helvetica,sans-Serif" font-size="10.00" fill="#000000">game_init_board</text>
</a>
</g>
</g>
<!-- Node3&#45;&gt;Node4 -->
<g id="edge3" class="edge">
<title>Node3&#45;&gt;Node4</title>
<path fill="none" stroke="#191970" d="M306.1974,-55.7983C356.0137,-55.0823 435.5878,-55.3595 504,-62 515.6482,-63.1307 528.1527,-64.9998 539.7338,-67.0097"/>
<polygon fill="#191970" stroke="#191970" points="305.9751,-52.3014 296.0336,-55.9643 306.0894,-59.3005 305.9751,-52.3014"/>
</g>
<!-- Node10 -->
<g id="node10" class="node">
<title>Node10</title>
<g id="a_node10"><a xlink:href="game_8h.html#aaeeee1282b90aa12468a1862c7871ee4" target="_top" xlink:title="Lets the player fire against the enemy&#39;s boats using a graphical interface Shows previously hit cells...">
<polygon fill="#ffffff" stroke="#000000" points="541,-142.5 541,-161.5 627,-161.5 627,-142.5 541,-142.5"/>
<text text-anchor="middle" x="584" y="-149.5" font-family="Helvetica,sans-Serif" font-size="10.00" fill="#000000">game_round_sp</text>
</a>
</g>
</g>
<!-- Node3&#45;&gt;Node10 -->
<g id="edge10" class="edge">
<title>Node3&#45;&gt;Node10</title>
<path fill="none" stroke="#191970" d="M299.9747,-69.3586C365.9676,-88.5602 491.7107,-125.1471 551.2208,-142.4624"/>
<polygon fill="#191970" stroke="#191970" points="300.8806,-65.9772 290.301,-66.5439 298.9249,-72.6984 300.8806,-65.9772"/>
</g>
<!-- Node11 -->
<g id="node11" class="node">
<title>Node11</title>
<g id="a_node11"><a xlink:href="game_8h.html#abdd70639378b19cfc929273ef7b4ff45" target="_top" xlink:title="Uses timer interruptions to wait a predetermined time. ">
<polygon fill="#ffffff" stroke="#000000" points="332,-180.5 332,-199.5 388,-199.5 388,-180.5 332,-180.5"/>
<text text-anchor="middle" x="360" y="-187.5" font-family="Helvetica,sans-Serif" font-size="10.00" fill="#000000">idle_time</text>
</a>
</g>
</g>
<!-- Node3&#45;&gt;Node11 -->
<g id="edge13" class="edge">
<title>Node3&#45;&gt;Node11</title>
<path fill="none" stroke="#191970" d="M271.2109,-74.7907C293.1027,-103.1967 335.2315,-157.8614 352.4187,-180.1628"/>
<polygon fill="#191970" stroke="#191970" points="273.7481,-72.3492 264.8715,-66.565 268.2036,-76.6223 273.7481,-72.3492"/>
</g>
<!-- Node15 -->
<g id="node15" class="node">
<title>Node15</title>
<g id="a_node15"><a xlink:href="menu_8h.html#a4cc4e9de5c448babdb711586dd12bec0" target="_top" xlink:title="graphical interface for the main menu ">
<polygon fill="#ffffff" stroke="#000000" points="784,-19.5 784,-38.5 825,-38.5 825,-19.5 784,-19.5"/>
<text text-anchor="middle" x="804.5" y="-26.5" font-family="Helvetica,sans-Serif" font-size="10.00" fill="#000000">menu</text>
</a>
</g>
</g>
<!-- Node3&#45;&gt;Node15 -->
<g id="edge23" class="edge">
<title>Node3&#45;&gt;Node15</title>
<path fill="none" stroke="#191970" d="M287.0963,-43.4037C326.5687,-26.5435 399.0284,0 464,0 464,0 464,0 584,0 658.133,0 745.0977,-16.3125 783.9468,-24.4688"/>
<polygon fill="#191970" stroke="#191970" points="285.5634,-40.2537 277.7963,-47.4595 288.3617,-46.6701 285.5634,-40.2537"/>
</g>
<!-- Node5 -->
<g id="node5" class="node">
<title>Node5</title>
<g id="a_node5"><a xlink:href="game_8h.html#aff1f849979a9ca10d6ff2bce0dfb7fd5" target="_top" xlink:title="Single Player Iniciates the boards from the respective players Starts the game loop (1 turn per playe...">
<polygon fill="#ffffff" stroke="#000000" points="665.5,-142.5 665.5,-161.5 721.5,-161.5 721.5,-142.5 665.5,-142.5"/>
<text text-anchor="middle" x="693.5" y="-149.5" font-family="Helvetica,sans-Serif" font-size="10.00" fill="#000000">game_sp</text>
</a>
</g>
</g>
<!-- Node4&#45;&gt;Node5 -->
<g id="edge4" class="edge">
<title>Node4&#45;&gt;Node5</title>
<path fill="none" stroke="#191970" d="M605.3378,-91.6151C621.3446,-103.228 643.8701,-119.3571 664,-133 668.6394,-136.1443 673.7542,-139.4825 678.4034,-142.4691"/>
<polygon fill="#191970" stroke="#191970" points="607.3173,-88.727 597.1723,-85.6726 603.1983,-94.3869 607.3173,-88.727"/>
</g>
<!-- Node9 -->
<g id="node9" class="node">
<title>Node9</title>
<g id="a_node9"><a xlink:href="game_8h.html#a03f40ddf75045683b3f488d4839937ab" target="_top" xlink:title="Multiplayer. ">
<polygon fill="#ffffff" stroke="#000000" points="664,-104.5 664,-123.5 723,-123.5 723,-104.5 664,-104.5"/>
<text text-anchor="middle" x="693.5" y="-111.5" font-family="Helvetica,sans-Serif" font-size="10.00" fill="#000000">game_mp</text>
</a>
</g>
</g>
<!-- Node4&#45;&gt;Node9 -->
<g id="edge8" class="edge">
<title>Node4&#45;&gt;Node9</title>
<path fill="none" stroke="#191970" d="M621.3792,-88.9718C635.9676,-94.0344 652.3917,-99.7341 665.8774,-104.4141"/>
<polygon fill="#191970" stroke="#191970" points="622.2263,-85.561 611.6315,-85.589 619.9313,-92.1741 622.2263,-85.561"/>
</g>
<!-- Node6 -->
<g id="node6" class="node">
<title>Node6</title>
<g id="a_node6"><a xlink:href="menu_8h.html#a95c8dcba38d720d3e4bd6fcf9a8ee279" target="_top" xlink:title="selects a menu option ">
<polygon fill="#ffffff" stroke="#000000" points="759,-104.5 759,-123.5 850,-123.5 850,-104.5 759,-104.5"/>
<text text-anchor="middle" x="804.5" y="-111.5" font-family="Helvetica,sans-Serif" font-size="10.00" fill="#000000">select_menu_opt</text>
</a>
</g>
</g>
<!-- Node5&#45;&gt;Node6 -->
<g id="edge5" class="edge">
<title>Node5&#45;&gt;Node6</title>
<path fill="none" stroke="#191970" d="M731.3913,-139.0282C746.1795,-133.9656 762.8285,-128.2659 776.499,-123.5859"/>
<polygon fill="#191970" stroke="#191970" points="729.8373,-135.8607 721.51,-142.411 732.1046,-142.4834 729.8373,-135.8607"/>
</g>
<!-- Node7 -->
<g id="node7" class="node">
<title>Node7</title>
<g id="a_node7"><a xlink:href="menu_8h.html#a6ed6ac9188a15c74b9d07d12b34397c0" target="_top" xlink:title="Subscribes interruptions of the necessary modules Calls main menu and game functions. ">
<polygon fill="#ffffff" stroke="#000000" points="886,-47.5 886,-66.5 978,-66.5 978,-47.5 886,-47.5"/>
<text text-anchor="middle" x="932" y="-54.5" font-family="Helvetica,sans-Serif" font-size="10.00" fill="#000000">game_main_cicle</text>
</a>
</g>
</g>
<!-- Node6&#45;&gt;Node7 -->
<g id="edge6" class="edge">
<title>Node6&#45;&gt;Node7</title>
<path fill="none" stroke="#191970" d="M835.2731,-100.2426C858.5688,-89.8281 889.9716,-75.7892 910.5897,-66.5716"/>
<polygon fill="#191970" stroke="#191970" points="833.5414,-97.1829 825.8406,-104.4595 836.3984,-103.5734 833.5414,-97.1829"/>
</g>
<!-- Node8 -->
<g id="node8" class="node">
<title>Node8</title>
<g id="a_node8"><a xlink:href="proj_8c.html#a2a16f651eccbd248e1ad3b3b924b143b" target="_top" xlink:title="proj_main_loop">
<polygon fill="#ffffff" stroke="#000000" points="1014,-47.5 1014,-66.5 1096,-66.5 1096,-47.5 1014,-47.5"/>
<text text-anchor="middle" x="1055" y="-54.5" font-family="Helvetica,sans-Serif" font-size="10.00" fill="#000000">proj_main_loop</text>
</a>
</g>
</g>
<!-- Node7&#45;&gt;Node8 -->
<g id="edge7" class="edge">
<title>Node7&#45;&gt;Node8</title>
<path fill="none" stroke="#191970" d="M988.1908,-57C996.8339,-57 1005.6179,-57 1013.8531,-57"/>
<polygon fill="#191970" stroke="#191970" points="988.1506,-53.5001 978.1506,-57 988.1506,-60.5001 988.1506,-53.5001"/>
</g>
<!-- Node9&#45;&gt;Node6 -->
<g id="edge9" class="edge">
<title>Node9&#45;&gt;Node6</title>
<path fill="none" stroke="#191970" d="M733.3594,-114C741.6038,-114 750.3495,-114 758.7839,-114"/>
<polygon fill="#191970" stroke="#191970" points="733.246,-110.5001 723.246,-114 733.2459,-117.5001 733.246,-110.5001"/>
</g>
<!-- Node10&#45;&gt;Node5 -->
<g id="edge11" class="edge">
<title>Node10&#45;&gt;Node5</title>
<path fill="none" stroke="#191970" d="M637.2954,-152C646.9786,-152 656.7225,-152 665.3144,-152"/>
<polygon fill="#191970" stroke="#191970" points="637.2773,-148.5001 627.2773,-152 637.2773,-155.5001 637.2773,-148.5001"/>
</g>
<!-- Node10&#45;&gt;Node9 -->
<g id="edge12" class="edge">
<title>Node10&#45;&gt;Node9</title>
<path fill="none" stroke="#191970" d="M621.3792,-139.0282C635.9676,-133.9656 652.3917,-128.2659 665.8774,-123.5859"/>
<polygon fill="#191970" stroke="#191970" points="619.9313,-135.8259 611.6315,-142.411 622.2263,-142.439 619.9313,-135.8259"/>
</g>
<!-- Node11&#45;&gt;Node5 -->
<g id="edge14" class="edge">
<title>Node11&#45;&gt;Node5</title>
<path fill="none" stroke="#191970" d="M398.3278,-191.5804C427.376,-192.3952 468.2559,-192.7226 504,-190 559.5933,-185.7655 573.5555,-183.0141 628,-171 640.3715,-168.27 653.8439,-164.5029 665.3356,-161.0425"/>
<polygon fill="#191970" stroke="#191970" points="398.2973,-188.0778 388.1926,-191.2629 398.0781,-195.0744 398.2973,-188.0778"/>
</g>
<!-- Node11&#45;&gt;Node9 -->
<g id="edge15" class="edge">
<title>Node11&#45;&gt;Node9</title>
<path fill="none" stroke="#191970" d="M373.8687,-172.5314C385.6349,-159.1273 403.7902,-141.5207 424,-133 505.2537,-98.7424 612.5091,-104.5538 663.7556,-110.0583"/>
<polygon fill="#191970" stroke="#191970" points="371.1644,-170.3092 367.407,-180.2154 376.5219,-174.8145 371.1644,-170.3092"/>
</g>
<!-- Node11&#45;&gt;Node10 -->
<g id="edge16" class="edge">
<title>Node11&#45;&gt;Node10</title>
<path fill="none" stroke="#191970" d="M398.1639,-186.0385C427.284,-182.7564 468.3296,-177.5714 504,-171 518.1794,-168.3878 533.6227,-164.8793 547.1256,-161.5884"/>
<polygon fill="#191970" stroke="#191970" points="397.5623,-182.5836 388.0071,-187.1606 398.331,-189.5412 397.5623,-182.5836"/>
</g>
<!-- Node12 -->
<g id="node12" class="node">
<title>Node12</title>
<g id="a_node12"><a xlink:href="game_8h.html#afb1a61b5802eed643536ce45225d2000" target="_top" xlink:title="Randomly fires upon player&#39;s boats using a state machine to simulate a strategy In case of a hit the ...">
<polygon fill="#ffffff" stroke="#000000" points="542.5,-256.5 542.5,-275.5 625.5,-275.5 625.5,-256.5 542.5,-256.5"/>
<text text-anchor="middle" x="584" y="-263.5" font-family="Helvetica,sans-Serif" font-size="10.00" fill="#000000">game_round_ai</text>
</a>
</g>
</g>
<!-- Node11&#45;&gt;Node12 -->
<g id="edge17" class="edge">
<title>Node11&#45;&gt;Node12</title>
<path fill="none" stroke="#191970" d="M366.5636,-209.2101C375.5236,-232.0358 393.9912,-269.0332 424,-285 469.3152,-309.111 531.8744,-288.8945 563.6739,-275.5099"/>
<polygon fill="#191970" stroke="#191970" points="369.7542,-207.7457 363.0139,-199.5714 363.1855,-210.1649 369.7542,-207.7457"/>
</g>
<!-- Node13 -->
<g id="node13" class="node">
<title>Node13</title>
<g id="a_node13"><a xlink:href="game_8h.html#a428e51196f5847d0e5e50822aa1c9716" target="_top" xlink:title="displays the end game screen (lost) ">
<polygon fill="#ffffff" stroke="#000000" points="424,-256.5 424,-275.5 504,-275.5 504,-256.5 424,-256.5"/>
<text text-anchor="middle" x="464" y="-263.5" font-family="Helvetica,sans-Serif" font-size="10.00" fill="#000000">game_over_sp</text>
</a>
</g>
</g>
<!-- Node11&#45;&gt;Node13 -->
<g id="edge19" class="edge">
<title>Node11&#45;&gt;Node13</title>
<path fill="none" stroke="#191970" d="M378.8053,-206.4638C391.2728,-217.0781 408.1884,-230.9168 424,-242 431.2948,-247.1133 439.7058,-252.2635 446.9271,-256.4749"/>
<polygon fill="#191970" stroke="#191970" points="380.8151,-203.5757 370.9529,-199.7041 376.2482,-208.8808 380.8151,-203.5757"/>
</g>
<!-- Node14 -->
<g id="node14" class="node">
<title>Node14</title>
<g id="a_node14"><a xlink:href="game_8h.html#a0ecf3df63f0053cd3177ad9dd3716b54" target="_top" xlink:title="displays the end game screen (won) ">
<polygon fill="#ffffff" stroke="#000000" points="433.5,-142.5 433.5,-161.5 494.5,-161.5 494.5,-142.5 433.5,-142.5"/>
<text text-anchor="middle" x="464" y="-149.5" font-family="Helvetica,sans-Serif" font-size="10.00" fill="#000000">winner_sp</text>
</a>
</g>
</g>
<!-- Node11&#45;&gt;Node14 -->
<g id="edge21" class="edge">
<title>Node11&#45;&gt;Node14</title>
<path fill="none" stroke="#191970" d="M395.9019,-176.882C409.6571,-171.8561 425.0796,-166.2209 437.7648,-161.5859"/>
<polygon fill="#191970" stroke="#191970" points="394.435,-173.6916 386.2436,-180.411 396.8374,-180.2664 394.435,-173.6916"/>
</g>
<!-- Node12&#45;&gt;Node5 -->
<g id="edge18" class="edge">
<title>Node12&#45;&gt;Node5</title>
<path fill="none" stroke="#191970" d="M615.0473,-251.355C619.6177,-248.5633 624.0951,-245.4284 628,-242 655.7372,-217.6476 678.5463,-179.5345 688.3408,-161.7502"/>
<polygon fill="#191970" stroke="#191970" points="613.2729,-248.3373 606.2699,-256.2877 616.7023,-254.4397 613.2729,-248.3373"/>
</g>
<!-- Node13&#45;&gt;Node12 -->
<g id="edge20" class="edge">
<title>Node13&#45;&gt;Node12</title>
<path fill="none" stroke="#191970" d="M514.5739,-266C523.8395,-266 533.4127,-266 542.3797,-266"/>
<polygon fill="#191970" stroke="#191970" points="514.2921,-262.5001 504.2921,-266 514.2921,-269.5001 514.2921,-262.5001"/>
</g>
<!-- Node14&#45;&gt;Node10 -->
<g id="edge22" class="edge">
<title>Node14&#45;&gt;Node10</title>
<path fill="none" stroke="#191970" d="M504.8666,-152C516.4419,-152 529.0783,-152 540.7872,-152"/>
<polygon fill="#191970" stroke="#191970" points="504.5916,-148.5001 494.5916,-152 504.5915,-155.5001 504.5916,-148.5001"/>
</g>
<!-- Node15&#45;&gt;Node7 -->
<g id="edge25" class="edge">
<title>Node15&#45;&gt;Node7</title>
<path fill="none" stroke="#191970" d="M835.1557,-35.7322C851.1403,-39.2426 870.9658,-43.5964 888.5076,-47.4487"/>
<polygon fill="#191970" stroke="#191970" points="835.7869,-32.2875 825.2688,-33.561 834.2853,-39.1246 835.7869,-32.2875"/>
</g>
<!-- Node15&#45;&gt;Node15 -->
<g id="edge24" class="edge">
<title>Node15&#45;&gt;Node15</title>
<path fill="none" stroke="#191970" d="M784.1306,-48.4C785.491,-53.3146 792.2808,-57 804.5,-57 824.0508,-57 829.7022,-47.5653 821.4542,-38.7571"/>
<polygon fill="#191970" stroke="#191970" points="787.5065,-49.3518 787.5458,-38.7571 780.9081,-47.0149 787.5065,-49.3518"/>
</g>
<!-- Node16&#45;&gt;Node3 -->
<g id="edge27" class="edge">
<title>Node16&#45;&gt;Node3</title>
<path fill="none" stroke="#191970" d="M188.314,-44.9401C198.2407,-46.6704 208.8698,-48.5232 218.7446,-50.2445"/>
<polygon fill="#191970" stroke="#191970" points="188.7372,-41.4611 178.2847,-43.1918 187.5351,-48.3571 188.7372,-41.4611"/>
</g>
</g>
</svg>
        <g id="navigator" transform="translate(0 0)" fill="#404254">
                <rect fill="#f2f5e9" fill-opacity="0.5" stroke="#606060" stroke-width=".5" x="0" y="0" width="60" height="60"/>
                <use id="zoomplus" xlink:href="#zoomPlus" x="17" y="9" onmousedown="handleZoom(evt,'in')"/>
                <use id="zoomminus" xlink:href="#zoomMin" x="42" y="9" onmousedown="handleZoom(evt,'out')"/>
                <use id="reset" xlink:href="#resetDef" x="30" y="36" onmousedown="handleReset()"/>
                <g id="arrowUp" xlink:href="#dirArrow" transform="translate(30 24)" onmousedown="handlePan(0,-1)">
                  <use xlink:href="#rim" fill="#404040">
                        <set attributeName="fill" to="#808080" begin="arrowUp.mouseover" end="arrowUp.mouseout"/>
                  </use>
                  <path fill="none" stroke="white" stroke-width="1.5" d="M0,-3.0v7 M-2.5,-0.5L0,-3.0L2.5,-0.5"/>
                </g>
                <g id="arrowRight" xlink:href="#dirArrow" transform="rotate(90) translate(36 -43)" onmousedown="handlePan(1,0)">
                  <use xlink:href="#rim" fill="#404040">
                        <set attributeName="fill" to="#808080" begin="arrowRight.mouseover" end="arrowRight.mouseout"/>
                  </use>
                  <path fill="none" stroke="white" stroke-width="1.5" d="M0,-3.0v7 M-2.5,-0.5L0,-3.0L2.5,-0.5"/>
                </g>
                <g id="arrowDown" xlink:href="#dirArrow" transform="rotate(180) translate(-30 -48)" onmousedown="handlePan(0,1)">
                  <use xlink:href="#rim" fill="#404040">
                        <set attributeName="fill" to="#808080" begin="arrowDown.mouseover" end="arrowDown.mouseout"/>
                  </use>
                  <path fill="none" stroke="white" stroke-width="1.5" d="M0,-3.0v7 M-2.5,-0.5L0,-3.0L2.5,-0.5"/>
                </g>
                <g id="arrowLeft" xlink:href="#dirArrow" transform="rotate(270) translate(-36 17)" onmousedown="handlePan(-1,0)">
                  <use xlink:href="#rim" fill="#404040">
                        <set attributeName="fill" to="#808080" begin="arrowLeft.mouseover" end="arrowLeft.mouseout"/>
                  </use>
                  <path fill="none" stroke="white" stroke-width="1.5" d="M0,-3.0v7 M-2.5,-0.5L0,-3.0L2.5,-0.5"/>
                </g>
        </g>
        <svg viewBox="0 0 15 15" width="100%" height="30px" preserveAspectRatio="xMaxYMin meet">
         <g id="arrow_out" transform="scale(0.3 0.3)">
          <a xlink:href="mouse_8h_a4a11876c724ae443363cf5971f1558e7_icgraph_org.svg" target="_base">
           <rect id="button" ry="5" rx="5" y="6" x="6" height="38" width="38"
                fill="#f2f5e9" fill-opacity="0.5" stroke="#606060" stroke-width="1.0"/>
           <path id="arrow"
             d="M 11.500037,31.436501 C 11.940474,20.09759 22.043105,11.32322 32.158766,21.979434 L 37.068811,17.246167 C 37.068811,17.246167 37.088388,32 37.088388,32 L 22.160133,31.978069 C 22.160133,31.978069 26.997745,27.140456 26.997745,27.140456 C 18.528582,18.264221 13.291696,25.230495 11.500037,31.436501 z"
             style="fill:#404040;"/>
          </a>
         </g>
        </svg>
</svg>
