<?xml version="1.0" encoding="UTF-8" standalone="no"?>
<!DOCTYPE svg PUBLIC "-//W3C//DTD SVG 1.1//EN"
 "http://www.w3.org/Graphics/SVG/1.1/DTD/svg11.dtd">
<!-- Generated by graphviz version 2.40.1 (20161225.0304)
 -->
<!-- Title: mouse_ih Pages: 1 -->
<!--zoomable 305 -->
<svg id="main" version="1.1" xmlns="http://www.w3.org/2000/svg" xmlns:xlink="http://www.w3.org/1999/xlink" xml:space="preserve" onload="init(evt)">
<style type="text/css"><![CDATA[
.edge:hover path { stroke: red; }
.edge:hover polygon { stroke: red; fill: red; }
]]></style>
<script type="text/javascript"><![CDATA[
var edges = document.getElementsByTagName('g');
if (edges && edges.length) {
  for (var i=0;i<edges.length;i++) {
    if (edges[i].id.substr(0,4)=='edge') {
      edges[i].setAttribute('class','edge');
    }
  }
}
]]></script>
        <defs>
                <circle id="rim" cx="0" cy="0" r="7"/>
                <circle id="rim2" cx="0" cy="0" r="3.5"/>
                <g id="zoomPlus">
                        <use xlink:href="#rim" fill="#404040">
                                <set attributeName="fill" to="#808080" begin="zoomplus.mouseover" end="zoomplus.mouseout"/>
                        </use>
                        <path d="M-4,0h8M0,-4v8" fill="none" stroke="white" stroke-width="1.5" pointer-events="none"/>
                </g>
                <g id="zoomMin">
                        <use xlink:href="#rim" fill="#404040">
                                <set attributeName="fill" to="#808080" begin="zoomminus.mouseover" end="zoomminus.mouseout"/>
                        </use>
                        <path d="M-4,0h8" fill="none" stroke="white" stroke-width="1.5" pointer-events="none"/>
                </g>
                <g id="dirArrow">
                        <path fill="none" stroke="white" stroke-width="1.5" d="M0,-3.0v7 M-2.5,-0.5L0,-3.0L2.5,-0.5"/>
                </g>
               <g id="resetDef">
                       <use xlink:href="#rim2" fill="#404040">
                               <set attributeName="fill" to="#808080" begin="reset.mouseover" end="reset.mouseout"/>
                       </use>
               </g>
        </defs>

<script type="text/javascript">
var viewWidth = 980;
var viewHeight = 305;
var sectionId = 'dynsection-6';
</script>
<script xlink:href="svgpan.js"/>
<svg id="graph" class="graph">
<g id="viewport">
<title>mouse_ih</title>
<polygon fill="#ffffff" stroke="transparent" points="-4,4 -4,-300.8574 976,-300.8574 976,4 -4,4"/>
<!-- Node77 -->
<g id="node1" class="node">
<title>Node77</title>
<polygon fill="#bfbfbf" stroke="#000000" points="0,-47.5 0,-66.5 59,-66.5 59,-47.5 0,-47.5"/>
<text text-anchor="middle" x="29.5" y="-54.5" font-family="Helvetica,sans-Serif" font-size="10.00" fill="#000000">mouse_ih</text>
</g>
<!-- Node78 -->
<g id="node2" class="node">
<title>Node78</title>
<g id="a_node2"><a xlink:href="interrupt__cicle_8h.html#a0718d5c75848a080a2122df6548d2422" target="_top" xlink:title="Receives and handles interruptions from the necessary modules. ">
<polygon fill="#ffffff" stroke="#000000" points="95,-47.5 95,-66.5 172,-66.5 172,-47.5 95,-47.5"/>
<text text-anchor="middle" x="133.5" y="-54.5" font-family="Helvetica,sans-Serif" font-size="10.00" fill="#000000">interrupt_cicle</text>
</a>
</g>
</g>
<!-- Node77&#45;&gt;Node78 -->
<g id="edge1" class="edge">
<title>Node77&#45;&gt;Node78</title>
<path fill="none" stroke="#191970" d="M69.0741,-57C77.5578,-57 86.5102,-57 94.9543,-57"/>
<polygon fill="#191970" stroke="#191970" points="69.0241,-53.5001 59.024,-57 69.024,-60.5001 69.0241,-53.5001"/>
</g>
<!-- Node79 -->
<g id="node3" class="node">
<title>Node79</title>
<g id="a_node3"><a xlink:href="game_8h.html#a382ed7c0cb3201c13d4396ad9afc5a3e" target="_top" xlink:title="Lets the player initialize the board unsign a graphical interface 10 boats must be positioned before ...">
<polygon fill="#ffffff" stroke="#000000" points="416,-66.5 416,-85.5 504,-85.5 504,-66.5 416,-66.5"/>
<text text-anchor="middle" x="460" y="-73.5" font-family="Helvetica,sans-Serif" font-size="10.00" fill="#000000">game_init_board</text>
</a>
</g>
</g>
<!-- Node78&#45;&gt;Node79 -->
<g id="edge2" class="edge">
<title>Node78&#45;&gt;Node79</title>
<path fill="none" stroke="#191970" d="M182.1974,-55.7983C232.0137,-55.0823 311.5878,-55.3595 380,-62 391.6482,-63.1307 404.1527,-64.9998 415.7338,-67.0097"/>
<polygon fill="#191970" stroke="#191970" points="181.9751,-52.3014 172.0336,-55.9643 182.0894,-59.3005 181.9751,-52.3014"/>
</g>
<!-- Node85 -->
<g id="node9" class="node">
<title>Node85</title>
<g id="a_node9"><a xlink:href="game_8h.html#aaeeee1282b90aa12468a1862c7871ee4" target="_top" xlink:title="Lets the player fire against the enemy&#39;s boats using a graphical interface Shows previously hit cells...">
<polygon fill="#ffffff" stroke="#000000" points="417,-142.5 417,-161.5 503,-161.5 503,-142.5 417,-142.5"/>
<text text-anchor="middle" x="460" y="-149.5" font-family="Helvetica,sans-Serif" font-size="10.00" fill="#000000">game_round_sp</text>
</a>
</g>
</g>
<!-- Node78&#45;&gt;Node85 -->
<g id="edge9" class="edge">
<title>Node78&#45;&gt;Node85</title>
<path fill="none" stroke="#191970" d="M175.9747,-69.3586C241.9676,-88.5602 367.7107,-125.1471 427.2208,-142.4624"/>
<polygon fill="#191970" stroke="#191970" points="176.8806,-65.9772 166.301,-66.5439 174.9249,-72.6984 176.8806,-65.9772"/>
</g>
<!-- Node86 -->
<g id="node10" class="node">
<title>Node86</title>
<g id="a_node10"><a xlink:href="game_8h.html#abdd70639378b19cfc929273ef7b4ff45" target="_top" xlink:title="Uses timer interruptions to wait a predetermined time. ">
<polygon fill="#ffffff" stroke="#000000" points="208,-180.5 208,-199.5 264,-199.5 264,-180.5 208,-180.5"/>
<text text-anchor="middle" x="236" y="-187.5" font-family="Helvetica,sans-Serif" font-size="10.00" fill="#000000">idle_time</text>
</a>
</g>
</g>
<!-- Node78&#45;&gt;Node86 -->
<g id="edge12" class="edge">
<title>Node78&#45;&gt;Node86</title>
<path fill="none" stroke="#191970" d="M147.2109,-74.7907C169.1027,-103.1967 211.2315,-157.8614 228.4187,-180.1628"/>
<polygon fill="#191970" stroke="#191970" points="149.7481,-72.3492 140.8715,-66.565 144.2036,-76.6223 149.7481,-72.3492"/>
</g>
<!-- Node90 -->
<g id="node14" class="node">
<title>Node90</title>
<g id="a_node14"><a xlink:href="menu_8h.html#a4cc4e9de5c448babdb711586dd12bec0" target="_top" xlink:title="graphical interface for the main menu ">
<polygon fill="#ffffff" stroke="#000000" points="660,-19.5 660,-38.5 701,-38.5 701,-19.5 660,-19.5"/>
<text text-anchor="middle" x="680.5" y="-26.5" font-family="Helvetica,sans-Serif" font-size="10.00" fill="#000000">menu</text>
</a>
</g>
</g>
<!-- Node78&#45;&gt;Node90 -->
<g id="edge22" class="edge">
<title>Node78&#45;&gt;Node90</title>
<path fill="none" stroke="#191970" d="M163.0963,-43.4037C202.5687,-26.5435 275.0284,0 340,0 340,0 340,0 460,0 534.133,0 621.0977,-16.3125 659.9468,-24.4688"/>
<polygon fill="#191970" stroke="#191970" points="161.5634,-40.2537 153.7963,-47.4595 164.3617,-46.6701 161.5634,-40.2537"/>
</g>
<!-- Node80 -->
<g id="node4" class="node">
<title>Node80</title>
<g id="a_node4"><a xlink:href="game_8h.html#aff1f849979a9ca10d6ff2bce0dfb7fd5" target="_top" xlink:title="Single Player Iniciates the boards from the respective players Starts the game loop (1 turn per playe...">
<polygon fill="#ffffff" stroke="#000000" points="541.5,-142.5 541.5,-161.5 597.5,-161.5 597.5,-142.5 541.5,-142.5"/>
<text text-anchor="middle" x="569.5" y="-149.5" font-family="Helvetica,sans-Serif" font-size="10.00" fill="#000000">game_sp</text>
</a>
</g>
</g>
<!-- Node79&#45;&gt;Node80 -->
<g id="edge3" class="edge">
<title>Node79&#45;&gt;Node80</title>
<path fill="none" stroke="#191970" d="M481.3378,-91.6151C497.3446,-103.228 519.8701,-119.3571 540,-133 544.6394,-136.1443 549.7542,-139.4825 554.4034,-142.4691"/>
<polygon fill="#191970" stroke="#191970" points="483.3173,-88.727 473.1723,-85.6726 479.1983,-94.3869 483.3173,-88.727"/>
</g>
<!-- Node84 -->
<g id="node8" class="node">
<title>Node84</title>
<g id="a_node8"><a xlink:href="game_8h.html#a03f40ddf75045683b3f488d4839937ab" target="_top" xlink:title="Multiplayer. ">
<polygon fill="#ffffff" stroke="#000000" points="540,-104.5 540,-123.5 599,-123.5 599,-104.5 540,-104.5"/>
<text text-anchor="middle" x="569.5" y="-111.5" font-family="Helvetica,sans-Serif" font-size="10.00" fill="#000000">game_mp</text>
</a>
</g>
</g>
<!-- Node79&#45;&gt;Node84 -->
<g id="edge7" class="edge">
<title>Node79&#45;&gt;Node84</title>
<path fill="none" stroke="#191970" d="M497.3792,-88.9718C511.9676,-94.0344 528.3917,-99.7341 541.8774,-104.4141"/>
<polygon fill="#191970" stroke="#191970" points="498.2263,-85.561 487.6315,-85.589 495.9313,-92.1741 498.2263,-85.561"/>
</g>
<!-- Node81 -->
<g id="node5" class="node">
<title>Node81</title>
<g id="a_node5"><a xlink:href="menu_8h.html#a95c8dcba38d720d3e4bd6fcf9a8ee279" target="_top" xlink:title="selects a menu option ">
<polygon fill="#ffffff" stroke="#000000" points="635,-104.5 635,-123.5 726,-123.5 726,-104.5 635,-104.5"/>
<text text-anchor="middle" x="680.5" y="-111.5" font-family="Helvetica,sans-Serif" font-size="10.00" fill="#000000">select_menu_opt</text>
</a>
</g>
</g>
<!-- Node80&#45;&gt;Node81 -->
<g id="edge4" class="edge">
<title>Node80&#45;&gt;Node81</title>
<path fill="none" stroke="#191970" d="M607.3913,-139.0282C622.1795,-133.9656 638.8285,-128.2659 652.499,-123.5859"/>
<polygon fill="#191970" stroke="#191970" points="605.8373,-135.8607 597.51,-142.411 608.1046,-142.4834 605.8373,-135.8607"/>
</g>
<!-- Node82 -->
<g id="node6" class="node">
<title>Node82</title>
<g id="a_node6"><a xlink:href="menu_8h.html#a6ed6ac9188a15c74b9d07d12b34397c0" target="_top" xlink:title="Subscribes interruptions of the necessary modules Calls main menu and game functions. ">
<polygon fill="#ffffff" stroke="#000000" points="762,-47.5 762,-66.5 854,-66.5 854,-47.5 762,-47.5"/>
<text text-anchor="middle" x="808" y="-54.5" font-family="Helvetica,sans-Serif" font-size="10.00" fill="#000000">game_main_cicle</text>
</a>
</g>
</g>
<!-- Node81&#45;&gt;Node82 -->
<g id="edge5" class="edge">
<title>Node81&#45;&gt;Node82</title>
<path fill="none" stroke="#191970" d="M711.2731,-100.2426C734.5688,-89.8281 765.9716,-75.7892 786.5897,-66.5716"/>
<polygon fill="#191970" stroke="#191970" points="709.5414,-97.1829 701.8406,-104.4595 712.3984,-103.5734 709.5414,-97.1829"/>
</g>
<!-- Node83 -->
<g id="node7" class="node">
<title>Node83</title>
<g id="a_node7"><a xlink:href="proj_8c.html#a2a16f651eccbd248e1ad3b3b924b143b" target="_top" xlink:title="proj_main_loop">
<polygon fill="#ffffff" stroke="#000000" points="890,-47.5 890,-66.5 972,-66.5 972,-47.5 890,-47.5"/>
<text text-anchor="middle" x="931" y="-54.5" font-family="Helvetica,sans-Serif" font-size="10.00" fill="#000000">proj_main_loop</text>
</a>
</g>
</g>
<!-- Node82&#45;&gt;Node83 -->
<g id="edge6" class="edge">
<title>Node82&#45;&gt;Node83</title>
<path fill="none" stroke="#191970" d="M864.1908,-57C872.8339,-57 881.6179,-57 889.8531,-57"/>
<polygon fill="#191970" stroke="#191970" points="864.1506,-53.5001 854.1506,-57 864.1506,-60.5001 864.1506,-53.5001"/>
</g>
<!-- Node84&#45;&gt;Node81 -->
<g id="edge8" class="edge">
<title>Node84&#45;&gt;Node81</title>
<path fill="none" stroke="#191970" d="M609.3594,-114C617.6038,-114 626.3495,-114 634.7839,-114"/>
<polygon fill="#191970" stroke="#191970" points="609.246,-110.5001 599.246,-114 609.2459,-117.5001 609.246,-110.5001"/>
</g>
<!-- Node85&#45;&gt;Node80 -->
<g id="edge10" class="edge">
<title>Node85&#45;&gt;Node80</title>
<path fill="none" stroke="#191970" d="M513.2954,-152C522.9786,-152 532.7225,-152 541.3144,-152"/>
<polygon fill="#191970" stroke="#191970" points="513.2773,-148.5001 503.2773,-152 513.2773,-155.5001 513.2773,-148.5001"/>
</g>
<!-- Node85&#45;&gt;Node84 -->
<g id="edge11" class="edge">
<title>Node85&#45;&gt;Node84</title>
<path fill="none" stroke="#191970" d="M497.3792,-139.0282C511.9676,-133.9656 528.3917,-128.2659 541.8774,-123.5859"/>
<polygon fill="#191970" stroke="#191970" points="495.9313,-135.8259 487.6315,-142.411 498.2263,-142.439 495.9313,-135.8259"/>
</g>
<!-- Node86&#45;&gt;Node80 -->
<g id="edge13" class="edge">
<title>Node86&#45;&gt;Node80</title>
<path fill="none" stroke="#191970" d="M274.3278,-191.5804C303.376,-192.3952 344.2559,-192.7226 380,-190 435.5933,-185.7655 449.5555,-183.0141 504,-171 516.3715,-168.27 529.8439,-164.5029 541.3356,-161.0425"/>
<polygon fill="#191970" stroke="#191970" points="274.2973,-188.0778 264.1926,-191.2629 274.0781,-195.0744 274.2973,-188.0778"/>
</g>
<!-- Node86&#45;&gt;Node84 -->
<g id="edge14" class="edge">
<title>Node86&#45;&gt;Node84</title>
<path fill="none" stroke="#191970" d="M249.8687,-172.5314C261.6349,-159.1273 279.7902,-141.5207 300,-133 381.2537,-98.7424 488.5091,-104.5538 539.7556,-110.0583"/>
<polygon fill="#191970" stroke="#191970" points="247.1644,-170.3092 243.407,-180.2154 252.5219,-174.8145 247.1644,-170.3092"/>
</g>
<!-- Node86&#45;&gt;Node85 -->
<g id="edge15" class="edge">
<title>Node86&#45;&gt;Node85</title>
<path fill="none" stroke="#191970" d="M274.1639,-186.0385C303.284,-182.7564 344.3296,-177.5714 380,-171 394.1794,-168.3878 409.6227,-164.8793 423.1256,-161.5884"/>
<polygon fill="#191970" stroke="#191970" points="273.5623,-182.5836 264.0071,-187.1606 274.331,-189.5412 273.5623,-182.5836"/>
</g>
<!-- Node87 -->
<g id="node11" class="node">
<title>Node87</title>
<g id="a_node11"><a xlink:href="game_8h.html#afb1a61b5802eed643536ce45225d2000" target="_top" xlink:title="Randomly fires upon player&#39;s boats using a state machine to simulate a strategy In case of a hit the ...">
<polygon fill="#ffffff" stroke="#000000" points="418.5,-256.5 418.5,-275.5 501.5,-275.5 501.5,-256.5 418.5,-256.5"/>
<text text-anchor="middle" x="460" y="-263.5" font-family="Helvetica,sans-Serif" font-size="10.00" fill="#000000">game_round_ai</text>
</a>
</g>
</g>
<!-- Node86&#45;&gt;Node87 -->
<g id="edge16" class="edge">
<title>Node86&#45;&gt;Node87</title>
<path fill="none" stroke="#191970" d="M242.5636,-209.2101C251.5236,-232.0358 269.9912,-269.0332 300,-285 345.3152,-309.111 407.8744,-288.8945 439.6739,-275.5099"/>
<polygon fill="#191970" stroke="#191970" points="245.7542,-207.7457 239.0139,-199.5714 239.1855,-210.1649 245.7542,-207.7457"/>
</g>
<!-- Node88 -->
<g id="node12" class="node">
<title>Node88</title>
<g id="a_node12"><a xlink:href="game_8h.html#a428e51196f5847d0e5e50822aa1c9716" target="_top" xlink:title="displays the end game screen (lost) ">
<polygon fill="#ffffff" stroke="#000000" points="300,-256.5 300,-275.5 380,-275.5 380,-256.5 300,-256.5"/>
<text text-anchor="middle" x="340" y="-263.5" font-family="Helvetica,sans-Serif" font-size="10.00" fill="#000000">game_over_sp</text>
</a>
</g>
</g>
<!-- Node86&#45;&gt;Node88 -->
<g id="edge18" class="edge">
<title>Node86&#45;&gt;Node88</title>
<path fill="none" stroke="#191970" d="M254.8053,-206.4638C267.2728,-217.0781 284.1884,-230.9168 300,-242 307.2948,-247.1133 315.7058,-252.2635 322.9271,-256.4749"/>
<polygon fill="#191970" stroke="#191970" points="256.8151,-203.5757 246.9529,-199.7041 252.2482,-208.8808 256.8151,-203.5757"/>
</g>
<!-- Node89 -->
<g id="node13" class="node">
<title>Node89</title>
<g id="a_node13"><a xlink:href="game_8h.html#a0ecf3df63f0053cd3177ad9dd3716b54" target="_top" xlink:title="displays the end game screen (won) ">
<polygon fill="#ffffff" stroke="#000000" points="309.5,-142.5 309.5,-161.5 370.5,-161.5 370.5,-142.5 309.5,-142.5"/>
<text text-anchor="middle" x="340" y="-149.5" font-family="Helvetica,sans-Serif" font-size="10.00" fill="#000000">winner_sp</text>
</a>
</g>
</g>
<!-- Node86&#45;&gt;Node89 -->
<g id="edge20" class="edge">
<title>Node86&#45;&gt;Node89</title>
<path fill="none" stroke="#191970" d="M271.9019,-176.882C285.6571,-171.8561 301.0796,-166.2209 313.7648,-161.5859"/>
<polygon fill="#191970" stroke="#191970" points="270.435,-173.6916 262.2436,-180.411 272.8374,-180.2664 270.435,-173.6916"/>
</g>
<!-- Node87&#45;&gt;Node80 -->
<g id="edge17" class="edge">
<title>Node87&#45;&gt;Node80</title>
<path fill="none" stroke="#191970" d="M491.0473,-251.355C495.6177,-248.5633 500.0951,-245.4284 504,-242 531.7372,-217.6476 554.5463,-179.5345 564.3408,-161.7502"/>
<polygon fill="#191970" stroke="#191970" points="489.2729,-248.3373 482.2699,-256.2877 492.7023,-254.4397 489.2729,-248.3373"/>
</g>
<!-- Node88&#45;&gt;Node87 -->
<g id="edge19" class="edge">
<title>Node88&#45;&gt;Node87</title>
<path fill="none" stroke="#191970" d="M390.5739,-266C399.8395,-266 409.4127,-266 418.3797,-266"/>
<polygon fill="#191970" stroke="#191970" points="390.2921,-262.5001 380.2921,-266 390.2921,-269.5001 390.2921,-262.5001"/>
</g>
<!-- Node89&#45;&gt;Node85 -->
<g id="edge21" class="edge">
<title>Node89&#45;&gt;Node85</title>
<path fill="none" stroke="#191970" d="M380.8666,-152C392.4419,-152 405.0783,-152 416.7872,-152"/>
<polygon fill="#191970" stroke="#191970" points="380.5916,-148.5001 370.5916,-152 380.5915,-155.5001 380.5916,-148.5001"/>
</g>
<!-- Node90&#45;&gt;Node82 -->
<g id="edge24" class="edge">
<title>Node90&#45;&gt;Node82</title>
<path fill="none" stroke="#191970" d="M711.1557,-35.7322C727.1403,-39.2426 746.9658,-43.5964 764.5076,-47.4487"/>
<polygon fill="#191970" stroke="#191970" points="711.7869,-32.2875 701.2688,-33.561 710.2853,-39.1246 711.7869,-32.2875"/>
</g>
<!-- Node90&#45;&gt;Node90 -->
<g id="edge23" class="edge">
<title>Node90&#45;&gt;Node90</title>
<path fill="none" stroke="#191970" d="M660.1306,-48.4C661.491,-53.3146 668.2808,-57 680.5,-57 700.0508,-57 705.7022,-47.5653 697.4542,-38.7571"/>
<polygon fill="#191970" stroke="#191970" points="663.5065,-49.3518 663.5458,-38.7571 656.9081,-47.0149 663.5065,-49.3518"/>
</g>
</g>
</svg>
        <g id="navigator" transform="translate(0 0)" fill="#404254">
                <rect fill="#f2f5e9" fill-opacity="0.5" stroke="#606060" stroke-width=".5" x="0" y="0" width="60" height="60"/>
                <use id="zoomplus" xlink:href="#zoomPlus" x="17" y="9" onmousedown="handleZoom(evt,'in')"/>
                <use id="zoomminus" xlink:href="#zoomMin" x="42" y="9" onmousedown="handleZoom(evt,'out')"/>
                <use id="reset" xlink:href="#resetDef" x="30" y="36" onmousedown="handleReset()"/>
                <g id="arrowUp" xlink:href="#dirArrow" transform="translate(30 24)" onmousedown="handlePan(0,-1)">
                  <use xlink:href="#rim" fill="#404040">
                        <set attributeName="fill" to="#808080" begin="arrowUp.mouseover" end="arrowUp.mouseout"/>
                  </use>
                  <path fill="none" stroke="white" stroke-width="1.5" d="M0,-3.0v7 M-2.5,-0.5L0,-3.0L2.5,-0.5"/>
                </g>
                <g id="arrowRight" xlink:href="#dirArrow" transform="rotate(90) translate(36 -43)" onmousedown="handlePan(1,0)">
                  <use xlink:href="#rim" fill="#404040">
                        <set attributeName="fill" to="#808080" begin="arrowRight.mouseover" end="arrowRight.mouseout"/>
                  </use>
                  <path fill="none" stroke="white" stroke-width="1.5" d="M0,-3.0v7 M-2.5,-0.5L0,-3.0L2.5,-0.5"/>
                </g>
                <g id="arrowDown" xlink:href="#dirArrow" transform="rotate(180) translate(-30 -48)" onmousedown="handlePan(0,1)">
                  <use xlink:href="#rim" fill="#404040">
                        <set attributeName="fill" to="#808080" begin="arrowDown.mouseover" end="arrowDown.mouseout"/>
                  </use>
                  <path fill="none" stroke="white" stroke-width="1.5" d="M0,-3.0v7 M-2.5,-0.5L0,-3.0L2.5,-0.5"/>
                </g>
                <g id="arrowLeft" xlink:href="#dirArrow" transform="rotate(270) translate(-36 17)" onmousedown="handlePan(-1,0)">
                  <use xlink:href="#rim" fill="#404040">
                        <set attributeName="fill" to="#808080" begin="arrowLeft.mouseover" end="arrowLeft.mouseout"/>
                  </use>
                  <path fill="none" stroke="white" stroke-width="1.5" d="M0,-3.0v7 M-2.5,-0.5L0,-3.0L2.5,-0.5"/>
                </g>
        </g>
        <svg viewBox="0 0 15 15" width="100%" height="30px" preserveAspectRatio="xMaxYMin meet">
         <g id="arrow_out" transform="scale(0.3 0.3)">
          <a xlink:href="mouse_8h_a210374b50462acdedab00df64d5cea3c_icgraph_org.svg" target="_base">
           <rect id="button" ry="5" rx="5" y="6" x="6" height="38" width="38"
                fill="#f2f5e9" fill-opacity="0.5" stroke="#606060" stroke-width="1.0"/>
           <path id="arrow"
             d="M 11.500037,31.436501 C 11.940474,20.09759 22.043105,11.32322 32.158766,21.979434 L 37.068811,17.246167 C 37.068811,17.246167 37.088388,32 37.088388,32 L 22.160133,31.978069 C 22.160133,31.978069 26.997745,27.140456 26.997745,27.140456 C 18.528582,18.264221 13.291696,25.230495 11.500037,31.436501 z"
             style="fill:#404040;"/>
          </a>
         </g>
        </svg>
</svg>
