<?xml version="1.0" encoding="UTF-8" standalone="no"?>
<!DOCTYPE svg PUBLIC "-//W3C//DTD SVG 1.1//EN"
 "http://www.w3.org/Graphics/SVG/1.1/DTD/svg11.dtd">
<!-- Generated by graphviz version 2.40.1 (20161225.0304)
 -->
<!-- Title: mouse_unsubscribe_int Pages: 1 -->
<svg width="515pt" height="28pt"
 viewBox="0.00 0.00 515.00 28.00" xmlns="http://www.w3.org/2000/svg" xmlns:xlink="http://www.w3.org/1999/xlink">
<g id="graph0" class="graph" transform="scale(1 1) rotate(0) translate(4 24)">
<title>mouse_unsubscribe_int</title>
<polygon fill="#ffffff" stroke="transparent" points="-4,4 -4,-24 511,-24 511,4 -4,4"/>
<!-- Node99 -->
<g id="node1" class="node">
<title>Node99</title>
<polygon fill="#bfbfbf" stroke="#000000" points="0,-.5 0,-19.5 119,-19.5 119,-.5 0,-.5"/>
<text text-anchor="middle" x="59.5" y="-7.5" font-family="Helvetica,sans-Serif" font-size="10.00" fill="#000000">mouse_unsubscribe_int</text>
</g>
<!-- Node100 -->
<g id="node2" class="node">
<title>Node100</title>
<g id="a_node2"><a xlink:href="interrupt__cicle_8h.html#a3c004d0012483dd8dc40d901b176e8a7" target="_top" xlink:title="Unsubscribes interrupts from the subscribed modules. ">
<polygon fill="#ffffff" stroke="#000000" points="155,-.5 155,-19.5 261,-19.5 261,-.5 155,-.5"/>
<text text-anchor="middle" x="208" y="-7.5" font-family="Helvetica,sans-Serif" font-size="10.00" fill="#000000">disable_components</text>
</a>
</g>
</g>
<!-- Node99&#45;&gt;Node100 -->
<g id="edge1" class="edge">
<title>Node99&#45;&gt;Node100</title>
<path fill="none" stroke="#191970" d="M129.0794,-10C137.6838,-10 146.3721,-10 154.6798,-10"/>
<polygon fill="#191970" stroke="#191970" points="129.045,-6.5001 119.045,-10 129.0449,-13.5001 129.045,-6.5001"/>
</g>
<!-- Node101 -->
<g id="node3" class="node">
<title>Node101</title>
<g id="a_node3"><a xlink:href="menu_8h.html#a6ed6ac9188a15c74b9d07d12b34397c0" target="_top" xlink:title="Subscribes interruptions of the necessary modules Calls main menu and game functions. ">
<polygon fill="#ffffff" stroke="#000000" points="297,-.5 297,-19.5 389,-19.5 389,-.5 297,-.5"/>
<text text-anchor="middle" x="343" y="-7.5" font-family="Helvetica,sans-Serif" font-size="10.00" fill="#000000">game_main_cicle</text>
</a>
</g>
</g>
<!-- Node100&#45;&gt;Node101 -->
<g id="edge2" class="edge">
<title>Node100&#45;&gt;Node101</title>
<path fill="none" stroke="#191970" d="M271.5656,-10C279.9985,-10 288.5136,-10 296.582,-10"/>
<polygon fill="#191970" stroke="#191970" points="271.3556,-6.5001 261.3556,-10 271.3555,-13.5001 271.3556,-6.5001"/>
</g>
<!-- Node102 -->
<g id="node4" class="node">
<title>Node102</title>
<g id="a_node4"><a xlink:href="proj_8c.html#a2a16f651eccbd248e1ad3b3b924b143b" target="_top" xlink:title="proj_main_loop">
<polygon fill="#ffffff" stroke="#000000" points="425,-.5 425,-19.5 507,-19.5 507,-.5 425,-.5"/>
<text text-anchor="middle" x="466" y="-7.5" font-family="Helvetica,sans-Serif" font-size="10.00" fill="#000000">proj_main_loop</text>
</a>
</g>
</g>
<!-- Node101&#45;&gt;Node102 -->
<g id="edge3" class="edge">
<title>Node101&#45;&gt;Node102</title>
<path fill="none" stroke="#191970" d="M399.1908,-10C407.8339,-10 416.6179,-10 424.8531,-10"/>
<polygon fill="#191970" stroke="#191970" points="399.1506,-6.5001 389.1506,-10 399.1506,-13.5001 399.1506,-6.5001"/>
</g>
</g>
</svg>
