<?xml version="1.0" encoding="UTF-8" standalone="no"?>
<!DOCTYPE svg PUBLIC "-//W3C//DTD SVG 1.1//EN"
 "http://www.w3.org/Graphics/SVG/1.1/DTD/svg11.dtd">
<!-- Generated by graphviz version 2.40.1 (20161225.0304)
 -->
<!-- Title: init_packet Pages: 1 -->
<!--zoomable 305 -->
<svg id="main" version="1.1" xmlns="http://www.w3.org/2000/svg" xmlns:xlink="http://www.w3.org/1999/xlink" xml:space="preserve" onload="init(evt)">
<style type="text/css"><![CDATA[
.edge:hover path { stroke: red; }
.edge:hover polygon { stroke: red; fill: red; }
]]></style>
<script type="text/javascript"><![CDATA[
var edges = document.getElementsByTagName('g');
if (edges && edges.length) {
  for (var i=0;i<edges.length;i++) {
    if (edges[i].id.substr(0,4)=='edge') {
      edges[i].setAttribute('class','edge');
    }
  }
}
]]></script>
        <defs>
                <circle id="rim" cx="0" cy="0" r="7"/>
                <circle id="rim2" cx="0" cy="0" r="3.5"/>
                <g id="zoomPlus">
                        <use xlink:href="#rim" fill="#404040">
                                <set attributeName="fill" to="#808080" begin="zoomplus.mouseover" end="zoomplus.mouseout"/>
                        </use>
                        <path d="M-4,0h8M0,-4v8" fill="none" stroke="white" stroke-width="1.5" pointer-events="none"/>
                </g>
                <g id="zoomMin">
                        <use xlink:href="#rim" fill="#404040">
                                <set attributeName="fill" to="#808080" begin="zoomminus.mouseover" end="zoomminus.mouseout"/>
                        </use>
                        <path d="M-4,0h8" fill="none" stroke="white" stroke-width="1.5" pointer-events="none"/>
                </g>
                <g id="dirArrow">
                        <path fill="none" stroke="white" stroke-width="1.5" d="M0,-3.0v7 M-2.5,-0.5L0,-3.0L2.5,-0.5"/>
                </g>
               <g id="resetDef">
                       <use xlink:href="#rim2" fill="#404040">
                               <set attributeName="fill" to="#808080" begin="reset.mouseover" end="reset.mouseout"/>
                       </use>
               </g>
        </defs>

<script type="text/javascript">
var viewWidth = 985;
var viewHeight = 305;
var sectionId = 'dynsection-3';
</script>
<script xlink:href="svgpan.js"/>
<svg id="graph" class="graph">
<g id="viewport">
<title>init_packet</title>
<polygon fill="#ffffff" stroke="transparent" points="-4,4 -4,-300.8574 981,-300.8574 981,4 -4,4"/>
<!-- Node53 -->
<g id="node1" class="node">
<title>Node53</title>
<polygon fill="#bfbfbf" stroke="#000000" points="0,-47.5 0,-66.5 64,-66.5 64,-47.5 0,-47.5"/>
<text text-anchor="middle" x="32" y="-54.5" font-family="Helvetica,sans-Serif" font-size="10.00" fill="#000000">init_packet</text>
</g>
<!-- Node54 -->
<g id="node2" class="node">
<title>Node54</title>
<g id="a_node2"><a xlink:href="interrupt__cicle_8h.html#a0718d5c75848a080a2122df6548d2422" target="_top" xlink:title="Receives and handles interruptions from the necessary modules. ">
<polygon fill="#ffffff" stroke="#000000" points="100,-47.5 100,-66.5 177,-66.5 177,-47.5 100,-47.5"/>
<text text-anchor="middle" x="138.5" y="-54.5" font-family="Helvetica,sans-Serif" font-size="10.00" fill="#000000">interrupt_cicle</text>
</a>
</g>
</g>
<!-- Node53&#45;&gt;Node54 -->
<g id="edge1" class="edge">
<title>Node53&#45;&gt;Node54</title>
<path fill="none" stroke="#191970" d="M74.3246,-57C82.797,-57 91.6549,-57 99.9899,-57"/>
<polygon fill="#191970" stroke="#191970" points="74.2426,-53.5001 64.2425,-57 74.2425,-60.5001 74.2426,-53.5001"/>
</g>
<!-- Node55 -->
<g id="node3" class="node">
<title>Node55</title>
<g id="a_node3"><a xlink:href="game_8h.html#a382ed7c0cb3201c13d4396ad9afc5a3e" target="_top" xlink:title="Lets the player initialize the board unsign a graphical interface 10 boats must be positioned before ...">
<polygon fill="#ffffff" stroke="#000000" points="421,-66.5 421,-85.5 509,-85.5 509,-66.5 421,-66.5"/>
<text text-anchor="middle" x="465" y="-73.5" font-family="Helvetica,sans-Serif" font-size="10.00" fill="#000000">game_init_board</text>
</a>
</g>
</g>
<!-- Node54&#45;&gt;Node55 -->
<g id="edge2" class="edge">
<title>Node54&#45;&gt;Node55</title>
<path fill="none" stroke="#191970" d="M187.1974,-55.7983C237.0137,-55.0823 316.5878,-55.3595 385,-62 396.6482,-63.1307 409.1527,-64.9998 420.7338,-67.0097"/>
<polygon fill="#191970" stroke="#191970" points="186.9751,-52.3014 177.0336,-55.9643 187.0894,-59.3005 186.9751,-52.3014"/>
</g>
<!-- Node61 -->
<g id="node9" class="node">
<title>Node61</title>
<g id="a_node9"><a xlink:href="game_8h.html#aaeeee1282b90aa12468a1862c7871ee4" target="_top" xlink:title="Lets the player fire against the enemy&#39;s boats using a graphical interface Shows previously hit cells...">
<polygon fill="#ffffff" stroke="#000000" points="422,-142.5 422,-161.5 508,-161.5 508,-142.5 422,-142.5"/>
<text text-anchor="middle" x="465" y="-149.5" font-family="Helvetica,sans-Serif" font-size="10.00" fill="#000000">game_round_sp</text>
</a>
</g>
</g>
<!-- Node54&#45;&gt;Node61 -->
<g id="edge9" class="edge">
<title>Node54&#45;&gt;Node61</title>
<path fill="none" stroke="#191970" d="M180.9747,-69.3586C246.9676,-88.5602 372.7107,-125.1471 432.2208,-142.4624"/>
<polygon fill="#191970" stroke="#191970" points="181.8806,-65.9772 171.301,-66.5439 179.9249,-72.6984 181.8806,-65.9772"/>
</g>
<!-- Node62 -->
<g id="node10" class="node">
<title>Node62</title>
<g id="a_node10"><a xlink:href="game_8h.html#abdd70639378b19cfc929273ef7b4ff45" target="_top" xlink:title="Uses timer interruptions to wait a predetermined time. ">
<polygon fill="#ffffff" stroke="#000000" points="213,-180.5 213,-199.5 269,-199.5 269,-180.5 213,-180.5"/>
<text text-anchor="middle" x="241" y="-187.5" font-family="Helvetica,sans-Serif" font-size="10.00" fill="#000000">idle_time</text>
</a>
</g>
</g>
<!-- Node54&#45;&gt;Node62 -->
<g id="edge12" class="edge">
<title>Node54&#45;&gt;Node62</title>
<path fill="none" stroke="#191970" d="M152.2109,-74.7907C174.1027,-103.1967 216.2315,-157.8614 233.4187,-180.1628"/>
<polygon fill="#191970" stroke="#191970" points="154.7481,-72.3492 145.8715,-66.565 149.2036,-76.6223 154.7481,-72.3492"/>
</g>
<!-- Node66 -->
<g id="node14" class="node">
<title>Node66</title>
<g id="a_node14"><a xlink:href="menu_8h.html#a4cc4e9de5c448babdb711586dd12bec0" target="_top" xlink:title="graphical interface for the main menu ">
<polygon fill="#ffffff" stroke="#000000" points="665,-19.5 665,-38.5 706,-38.5 706,-19.5 665,-19.5"/>
<text text-anchor="middle" x="685.5" y="-26.5" font-family="Helvetica,sans-Serif" font-size="10.00" fill="#000000">menu</text>
</a>
</g>
</g>
<!-- Node54&#45;&gt;Node66 -->
<g id="edge22" class="edge">
<title>Node54&#45;&gt;Node66</title>
<path fill="none" stroke="#191970" d="M168.0963,-43.4037C207.5687,-26.5435 280.0284,0 345,0 345,0 345,0 465,0 539.133,0 626.0977,-16.3125 664.9468,-24.4688"/>
<polygon fill="#191970" stroke="#191970" points="166.5634,-40.2537 158.7963,-47.4595 169.3617,-46.6701 166.5634,-40.2537"/>
</g>
<!-- Node56 -->
<g id="node4" class="node">
<title>Node56</title>
<g id="a_node4"><a xlink:href="game_8h.html#aff1f849979a9ca10d6ff2bce0dfb7fd5" target="_top" xlink:title="Single Player Iniciates the boards from the respective players Starts the game loop (1 turn per playe...">
<polygon fill="#ffffff" stroke="#000000" points="546.5,-142.5 546.5,-161.5 602.5,-161.5 602.5,-142.5 546.5,-142.5"/>
<text text-anchor="middle" x="574.5" y="-149.5" font-family="Helvetica,sans-Serif" font-size="10.00" fill="#000000">game_sp</text>
</a>
</g>
</g>
<!-- Node55&#45;&gt;Node56 -->
<g id="edge3" class="edge">
<title>Node55&#45;&gt;Node56</title>
<path fill="none" stroke="#191970" d="M486.3378,-91.6151C502.3446,-103.228 524.8701,-119.3571 545,-133 549.6394,-136.1443 554.7542,-139.4825 559.4034,-142.4691"/>
<polygon fill="#191970" stroke="#191970" points="488.3173,-88.727 478.1723,-85.6726 484.1983,-94.3869 488.3173,-88.727"/>
</g>
<!-- Node60 -->
<g id="node8" class="node">
<title>Node60</title>
<g id="a_node8"><a xlink:href="game_8h.html#a03f40ddf75045683b3f488d4839937ab" target="_top" xlink:title="Multiplayer. ">
<polygon fill="#ffffff" stroke="#000000" points="545,-104.5 545,-123.5 604,-123.5 604,-104.5 545,-104.5"/>
<text text-anchor="middle" x="574.5" y="-111.5" font-family="Helvetica,sans-Serif" font-size="10.00" fill="#000000">game_mp</text>
</a>
</g>
</g>
<!-- Node55&#45;&gt;Node60 -->
<g id="edge7" class="edge">
<title>Node55&#45;&gt;Node60</title>
<path fill="none" stroke="#191970" d="M502.3792,-88.9718C516.9676,-94.0344 533.3917,-99.7341 546.8774,-104.4141"/>
<polygon fill="#191970" stroke="#191970" points="503.2263,-85.561 492.6315,-85.589 500.9313,-92.1741 503.2263,-85.561"/>
</g>
<!-- Node57 -->
<g id="node5" class="node">
<title>Node57</title>
<g id="a_node5"><a xlink:href="menu_8h.html#a95c8dcba38d720d3e4bd6fcf9a8ee279" target="_top" xlink:title="selects a menu option ">
<polygon fill="#ffffff" stroke="#000000" points="640,-104.5 640,-123.5 731,-123.5 731,-104.5 640,-104.5"/>
<text text-anchor="middle" x="685.5" y="-111.5" font-family="Helvetica,sans-Serif" font-size="10.00" fill="#000000">select_menu_opt</text>
</a>
</g>
</g>
<!-- Node56&#45;&gt;Node57 -->
<g id="edge4" class="edge">
<title>Node56&#45;&gt;Node57</title>
<path fill="none" stroke="#191970" d="M612.3913,-139.0282C627.1795,-133.9656 643.8285,-128.2659 657.499,-123.5859"/>
<polygon fill="#191970" stroke="#191970" points="610.8373,-135.8607 602.51,-142.411 613.1046,-142.4834 610.8373,-135.8607"/>
</g>
<!-- Node58 -->
<g id="node6" class="node">
<title>Node58</title>
<g id="a_node6"><a xlink:href="menu_8h.html#a6ed6ac9188a15c74b9d07d12b34397c0" target="_top" xlink:title="Subscribes interruptions of the necessary modules Calls main menu and game functions. ">
<polygon fill="#ffffff" stroke="#000000" points="767,-47.5 767,-66.5 859,-66.5 859,-47.5 767,-47.5"/>
<text text-anchor="middle" x="813" y="-54.5" font-family="Helvetica,sans-Serif" font-size="10.00" fill="#000000">game_main_cicle</text>
</a>
</g>
</g>
<!-- Node57&#45;&gt;Node58 -->
<g id="edge5" class="edge">
<title>Node57&#45;&gt;Node58</title>
<path fill="none" stroke="#191970" d="M716.2731,-100.2426C739.5688,-89.8281 770.9716,-75.7892 791.5897,-66.5716"/>
<polygon fill="#191970" stroke="#191970" points="714.5414,-97.1829 706.8406,-104.4595 717.3984,-103.5734 714.5414,-97.1829"/>
</g>
<!-- Node59 -->
<g id="node7" class="node">
<title>Node59</title>
<g id="a_node7"><a xlink:href="proj_8c.html#a2a16f651eccbd248e1ad3b3b924b143b" target="_top" xlink:title="proj_main_loop">
<polygon fill="#ffffff" stroke="#000000" points="895,-47.5 895,-66.5 977,-66.5 977,-47.5 895,-47.5"/>
<text text-anchor="middle" x="936" y="-54.5" font-family="Helvetica,sans-Serif" font-size="10.00" fill="#000000">proj_main_loop</text>
</a>
</g>
</g>
<!-- Node58&#45;&gt;Node59 -->
<g id="edge6" class="edge">
<title>Node58&#45;&gt;Node59</title>
<path fill="none" stroke="#191970" d="M869.1908,-57C877.8339,-57 886.6179,-57 894.8531,-57"/>
<polygon fill="#191970" stroke="#191970" points="869.1506,-53.5001 859.1506,-57 869.1506,-60.5001 869.1506,-53.5001"/>
</g>
<!-- Node60&#45;&gt;Node57 -->
<g id="edge8" class="edge">
<title>Node60&#45;&gt;Node57</title>
<path fill="none" stroke="#191970" d="M614.3594,-114C622.6038,-114 631.3495,-114 639.7839,-114"/>
<polygon fill="#191970" stroke="#191970" points="614.246,-110.5001 604.246,-114 614.2459,-117.5001 614.246,-110.5001"/>
</g>
<!-- Node61&#45;&gt;Node56 -->
<g id="edge10" class="edge">
<title>Node61&#45;&gt;Node56</title>
<path fill="none" stroke="#191970" d="M518.2954,-152C527.9786,-152 537.7225,-152 546.3144,-152"/>
<polygon fill="#191970" stroke="#191970" points="518.2773,-148.5001 508.2773,-152 518.2773,-155.5001 518.2773,-148.5001"/>
</g>
<!-- Node61&#45;&gt;Node60 -->
<g id="edge11" class="edge">
<title>Node61&#45;&gt;Node60</title>
<path fill="none" stroke="#191970" d="M502.3792,-139.0282C516.9676,-133.9656 533.3917,-128.2659 546.8774,-123.5859"/>
<polygon fill="#191970" stroke="#191970" points="500.9313,-135.8259 492.6315,-142.411 503.2263,-142.439 500.9313,-135.8259"/>
</g>
<!-- Node62&#45;&gt;Node56 -->
<g id="edge13" class="edge">
<title>Node62&#45;&gt;Node56</title>
<path fill="none" stroke="#191970" d="M279.3278,-191.5804C308.376,-192.3952 349.2559,-192.7226 385,-190 440.5933,-185.7655 454.5555,-183.0141 509,-171 521.3715,-168.27 534.8439,-164.5029 546.3356,-161.0425"/>
<polygon fill="#191970" stroke="#191970" points="279.2973,-188.0778 269.1926,-191.2629 279.0781,-195.0744 279.2973,-188.0778"/>
</g>
<!-- Node62&#45;&gt;Node60 -->
<g id="edge14" class="edge">
<title>Node62&#45;&gt;Node60</title>
<path fill="none" stroke="#191970" d="M254.8687,-172.5314C266.6349,-159.1273 284.7902,-141.5207 305,-133 386.2537,-98.7424 493.5091,-104.5538 544.7556,-110.0583"/>
<polygon fill="#191970" stroke="#191970" points="252.1644,-170.3092 248.407,-180.2154 257.5219,-174.8145 252.1644,-170.3092"/>
</g>
<!-- Node62&#45;&gt;Node61 -->
<g id="edge15" class="edge">
<title>Node62&#45;&gt;Node61</title>
<path fill="none" stroke="#191970" d="M279.1639,-186.0385C308.284,-182.7564 349.3296,-177.5714 385,-171 399.1794,-168.3878 414.6227,-164.8793 428.1256,-161.5884"/>
<polygon fill="#191970" stroke="#191970" points="278.5623,-182.5836 269.0071,-187.1606 279.331,-189.5412 278.5623,-182.5836"/>
</g>
<!-- Node63 -->
<g id="node11" class="node">
<title>Node63</title>
<g id="a_node11"><a xlink:href="game_8h.html#afb1a61b5802eed643536ce45225d2000" target="_top" xlink:title="Randomly fires upon player&#39;s boats using a state machine to simulate a strategy In case of a hit the ...">
<polygon fill="#ffffff" stroke="#000000" points="423.5,-256.5 423.5,-275.5 506.5,-275.5 506.5,-256.5 423.5,-256.5"/>
<text text-anchor="middle" x="465" y="-263.5" font-family="Helvetica,sans-Serif" font-size="10.00" fill="#000000">game_round_ai</text>
</a>
</g>
</g>
<!-- Node62&#45;&gt;Node63 -->
<g id="edge16" class="edge">
<title>Node62&#45;&gt;Node63</title>
<path fill="none" stroke="#191970" d="M247.5636,-209.2101C256.5236,-232.0358 274.9912,-269.0332 305,-285 350.3152,-309.111 412.8744,-288.8945 444.6739,-275.5099"/>
<polygon fill="#191970" stroke="#191970" points="250.7542,-207.7457 244.0139,-199.5714 244.1855,-210.1649 250.7542,-207.7457"/>
</g>
<!-- Node64 -->
<g id="node12" class="node">
<title>Node64</title>
<g id="a_node12"><a xlink:href="game_8h.html#a428e51196f5847d0e5e50822aa1c9716" target="_top" xlink:title="displays the end game screen (lost) ">
<polygon fill="#ffffff" stroke="#000000" points="305,-256.5 305,-275.5 385,-275.5 385,-256.5 305,-256.5"/>
<text text-anchor="middle" x="345" y="-263.5" font-family="Helvetica,sans-Serif" font-size="10.00" fill="#000000">game_over_sp</text>
</a>
</g>
</g>
<!-- Node62&#45;&gt;Node64 -->
<g id="edge18" class="edge">
<title>Node62&#45;&gt;Node64</title>
<path fill="none" stroke="#191970" d="M259.8053,-206.4638C272.2728,-217.0781 289.1884,-230.9168 305,-242 312.2948,-247.1133 320.7058,-252.2635 327.9271,-256.4749"/>
<polygon fill="#191970" stroke="#191970" points="261.8151,-203.5757 251.9529,-199.7041 257.2482,-208.8808 261.8151,-203.5757"/>
</g>
<!-- Node65 -->
<g id="node13" class="node">
<title>Node65</title>
<g id="a_node13"><a xlink:href="game_8h.html#a0ecf3df63f0053cd3177ad9dd3716b54" target="_top" xlink:title="displays the end game screen (won) ">
<polygon fill="#ffffff" stroke="#000000" points="314.5,-142.5 314.5,-161.5 375.5,-161.5 375.5,-142.5 314.5,-142.5"/>
<text text-anchor="middle" x="345" y="-149.5" font-family="Helvetica,sans-Serif" font-size="10.00" fill="#000000">winner_sp</text>
</a>
</g>
</g>
<!-- Node62&#45;&gt;Node65 -->
<g id="edge20" class="edge">
<title>Node62&#45;&gt;Node65</title>
<path fill="none" stroke="#191970" d="M276.9019,-176.882C290.6571,-171.8561 306.0796,-166.2209 318.7648,-161.5859"/>
<polygon fill="#191970" stroke="#191970" points="275.435,-173.6916 267.2436,-180.411 277.8374,-180.2664 275.435,-173.6916"/>
</g>
<!-- Node63&#45;&gt;Node56 -->
<g id="edge17" class="edge">
<title>Node63&#45;&gt;Node56</title>
<path fill="none" stroke="#191970" d="M496.0473,-251.355C500.6177,-248.5633 505.0951,-245.4284 509,-242 536.7372,-217.6476 559.5463,-179.5345 569.3408,-161.7502"/>
<polygon fill="#191970" stroke="#191970" points="494.2729,-248.3373 487.2699,-256.2877 497.7023,-254.4397 494.2729,-248.3373"/>
</g>
<!-- Node64&#45;&gt;Node63 -->
<g id="edge19" class="edge">
<title>Node64&#45;&gt;Node63</title>
<path fill="none" stroke="#191970" d="M395.5739,-266C404.8395,-266 414.4127,-266 423.3797,-266"/>
<polygon fill="#191970" stroke="#191970" points="395.2921,-262.5001 385.2921,-266 395.2921,-269.5001 395.2921,-262.5001"/>
</g>
<!-- Node65&#45;&gt;Node61 -->
<g id="edge21" class="edge">
<title>Node65&#45;&gt;Node61</title>
<path fill="none" stroke="#191970" d="M385.8666,-152C397.4419,-152 410.0783,-152 421.7872,-152"/>
<polygon fill="#191970" stroke="#191970" points="385.5916,-148.5001 375.5916,-152 385.5915,-155.5001 385.5916,-148.5001"/>
</g>
<!-- Node66&#45;&gt;Node58 -->
<g id="edge24" class="edge">
<title>Node66&#45;&gt;Node58</title>
<path fill="none" stroke="#191970" d="M716.1557,-35.7322C732.1403,-39.2426 751.9658,-43.5964 769.5076,-47.4487"/>
<polygon fill="#191970" stroke="#191970" points="716.7869,-32.2875 706.2688,-33.561 715.2853,-39.1246 716.7869,-32.2875"/>
</g>
<!-- Node66&#45;&gt;Node66 -->
<g id="edge23" class="edge">
<title>Node66&#45;&gt;Node66</title>
<path fill="none" stroke="#191970" d="M665.1306,-48.4C666.491,-53.3146 673.2808,-57 685.5,-57 705.0508,-57 710.7022,-47.5653 702.4542,-38.7571"/>
<polygon fill="#191970" stroke="#191970" points="668.5065,-49.3518 668.5458,-38.7571 661.9081,-47.0149 668.5065,-49.3518"/>
</g>
</g>
</svg>
        <g id="navigator" transform="translate(0 0)" fill="#404254">
                <rect fill="#f2f5e9" fill-opacity="0.5" stroke="#606060" stroke-width=".5" x="0" y="0" width="60" height="60"/>
                <use id="zoomplus" xlink:href="#zoomPlus" x="17" y="9" onmousedown="handleZoom(evt,'in')"/>
                <use id="zoomminus" xlink:href="#zoomMin" x="42" y="9" onmousedown="handleZoom(evt,'out')"/>
                <use id="reset" xlink:href="#resetDef" x="30" y="36" onmousedown="handleReset()"/>
                <g id="arrowUp" xlink:href="#dirArrow" transform="translate(30 24)" onmousedown="handlePan(0,-1)">
                  <use xlink:href="#rim" fill="#404040">
                        <set attributeName="fill" to="#808080" begin="arrowUp.mouseover" end="arrowUp.mouseout"/>
                  </use>
                  <path fill="none" stroke="white" stroke-width="1.5" d="M0,-3.0v7 M-2.5,-0.5L0,-3.0L2.5,-0.5"/>
                </g>
                <g id="arrowRight" xlink:href="#dirArrow" transform="rotate(90) translate(36 -43)" onmousedown="handlePan(1,0)">
                  <use xlink:href="#rim" fill="#404040">
                        <set attributeName="fill" to="#808080" begin="arrowRight.mouseover" end="arrowRight.mouseout"/>
                  </use>
                  <path fill="none" stroke="white" stroke-width="1.5" d="M0,-3.0v7 M-2.5,-0.5L0,-3.0L2.5,-0.5"/>
                </g>
                <g id="arrowDown" xlink:href="#dirArrow" transform="rotate(180) translate(-30 -48)" onmousedown="handlePan(0,1)">
                  <use xlink:href="#rim" fill="#404040">
                        <set attributeName="fill" to="#808080" begin="arrowDown.mouseover" end="arrowDown.mouseout"/>
                  </use>
                  <path fill="none" stroke="white" stroke-width="1.5" d="M0,-3.0v7 M-2.5,-0.5L0,-3.0L2.5,-0.5"/>
                </g>
                <g id="arrowLeft" xlink:href="#dirArrow" transform="rotate(270) translate(-36 17)" onmousedown="handlePan(-1,0)">
                  <use xlink:href="#rim" fill="#404040">
                        <set attributeName="fill" to="#808080" begin="arrowLeft.mouseover" end="arrowLeft.mouseout"/>
                  </use>
                  <path fill="none" stroke="white" stroke-width="1.5" d="M0,-3.0v7 M-2.5,-0.5L0,-3.0L2.5,-0.5"/>
                </g>
        </g>
        <svg viewBox="0 0 15 15" width="100%" height="30px" preserveAspectRatio="xMaxYMin meet">
         <g id="arrow_out" transform="scale(0.3 0.3)">
          <a xlink:href="mouse_8c_a4f0a0dc9001ebefef3a416dd9b882b97_icgraph_org.svg" target="_base">
           <rect id="button" ry="5" rx="5" y="6" x="6" height="38" width="38"
                fill="#f2f5e9" fill-opacity="0.5" stroke="#606060" stroke-width="1.0"/>
           <path id="arrow"
             d="M 11.500037,31.436501 C 11.940474,20.09759 22.043105,11.32322 32.158766,21.979434 L 37.068811,17.246167 C 37.068811,17.246167 37.088388,32 37.088388,32 L 22.160133,31.978069 C 22.160133,31.978069 26.997745,27.140456 26.997745,27.140456 C 18.528582,18.264221 13.291696,25.230495 11.500037,31.436501 z"
             style="fill:#404040;"/>
          </a>
         </g>
        </svg>
</svg>
