<?xml version="1.0" encoding="UTF-8" standalone="no"?>
<!DOCTYPE svg PUBLIC "-//W3C//DTD SVG 1.1//EN"
 "http://www.w3.org/Graphics/SVG/1.1/DTD/svg11.dtd">
<!-- Generated by graphviz version 2.40.1 (20161225.0304)
 -->
<!-- Title: createPlayer Pages: 1 -->
<svg width="401pt" height="66pt"
 viewBox="0.00 0.00 401.00 66.00" xmlns="http://www.w3.org/2000/svg" xmlns:xlink="http://www.w3.org/1999/xlink">
<g id="graph0" class="graph" transform="scale(1 1) rotate(0) translate(4 62)">
<title>createPlayer</title>
<polygon fill="#ffffff" stroke="transparent" points="-4,4 -4,-62 397,-62 397,4 -4,4"/>
<!-- Node0 -->
<g id="node1" class="node">
<title>Node0</title>
<polygon fill="#bfbfbf" stroke="#000000" points="0,-19.5 0,-38.5 71,-38.5 71,-19.5 0,-19.5"/>
<text text-anchor="middle" x="35.5" y="-26.5" font-family="Helvetica,sans-Serif" font-size="10.00" fill="#000000">createPlayer</text>
</g>
<!-- Node1 -->
<g id="node2" class="node">
<title>Node1</title>
<g id="a_node2"><a xlink:href="board_8c.html#af28e24029a4c5b42c9e7474dcb520e37" target="_top" xlink:title="Create a board object. ">
<polygon fill="#ffffff" stroke="#000000" points="107,-38.5 107,-57.5 180,-57.5 180,-38.5 107,-38.5"/>
<text text-anchor="middle" x="143.5" y="-45.5" font-family="Helvetica,sans-Serif" font-size="10.00" fill="#000000">create_board</text>
</a>
</g>
</g>
<!-- Node0&#45;&gt;Node1 -->
<g id="edge1" class="edge">
<title>Node0&#45;&gt;Node1</title>
<path fill="none" stroke="#191970" d="M71.1626,-35.274C79.3765,-36.719 88.2328,-38.2771 96.836,-39.7906"/>
<polygon fill="#191970" stroke="#191970" points="96.3102,-43.2518 106.7654,-41.5374 97.5231,-36.3576 96.3102,-43.2518"/>
</g>
<!-- Node2 -->
<g id="node3" class="node">
<title>Node2</title>
<g id="a_node3"><a xlink:href="board_8c.html#ae77f988d7fd295ac883560b379f2e26d" target="_top" xlink:title="Creates boat objects and loads them into an array. ">
<polygon fill="#ffffff" stroke="#000000" points="111.5,-.5 111.5,-19.5 175.5,-19.5 175.5,-.5 111.5,-.5"/>
<text text-anchor="middle" x="143.5" y="-7.5" font-family="Helvetica,sans-Serif" font-size="10.00" fill="#000000">load_boats</text>
</a>
</g>
</g>
<!-- Node0&#45;&gt;Node2 -->
<g id="edge2" class="edge">
<title>Node0&#45;&gt;Node2</title>
<path fill="none" stroke="#191970" d="M71.1626,-22.726C80.7388,-21.0413 91.1881,-19.203 101.0914,-17.4608"/>
<polygon fill="#191970" stroke="#191970" points="101.9124,-20.8702 111.1547,-15.6904 100.6995,-13.976 101.9124,-20.8702"/>
</g>
<!-- Node3 -->
<g id="node4" class="node">
<title>Node3</title>
<g id="a_node4"><a xlink:href="boat_8c.html#a5841281c2167da2f3adcd0f7a1a48a1a" target="_top" xlink:title="Creates a boat object. ">
<polygon fill="#ffffff" stroke="#000000" points="216,-.5 216,-19.5 284,-19.5 284,-.5 216,-.5"/>
<text text-anchor="middle" x="250" y="-7.5" font-family="Helvetica,sans-Serif" font-size="10.00" fill="#000000">create_boat</text>
</a>
</g>
</g>
<!-- Node2&#45;&gt;Node3 -->
<g id="edge3" class="edge">
<title>Node2&#45;&gt;Node3</title>
<path fill="none" stroke="#191970" d="M175.7425,-10C185.1028,-10 195.4944,-10 205.4668,-10"/>
<polygon fill="#191970" stroke="#191970" points="205.6465,-13.5001 215.6465,-10 205.6465,-6.5001 205.6465,-13.5001"/>
</g>
<!-- Node4 -->
<g id="node5" class="node">
<title>Node4</title>
<g id="a_node5"><a xlink:href="sprite_8c.html#ab67f095900ba6092fed7f581886f28c6" target="_top" xlink:title="create_sprite">
<polygon fill="#ffffff" stroke="#000000" points="320,-.5 320,-19.5 393,-19.5 393,-.5 320,-.5"/>
<text text-anchor="middle" x="356.5" y="-7.5" font-family="Helvetica,sans-Serif" font-size="10.00" fill="#000000">create_sprite</text>
</a>
</g>
</g>
<!-- Node3&#45;&gt;Node4 -->
<g id="edge4" class="edge">
<title>Node3&#45;&gt;Node4</title>
<path fill="none" stroke="#191970" d="M284.2835,-10C292.3243,-10 301.0288,-10 309.5178,-10"/>
<polygon fill="#191970" stroke="#191970" points="309.7066,-13.5001 319.7066,-10 309.7066,-6.5001 309.7066,-13.5001"/>
</g>
</g>
</svg>
