<?xml version="1.0" encoding="UTF-8" standalone="no"?>
<!DOCTYPE svg PUBLIC "-//W3C//DTD SVG 1.1//EN"
 "http://www.w3.org/Graphics/SVG/1.1/DTD/svg11.dtd">
<!-- Generated by graphviz version 2.40.1 (20161225.0304)
 -->
<!-- Title: player_shot Pages: 1 -->
<svg width="227pt" height="66pt"
 viewBox="0.00 0.00 227.00 66.00" xmlns="http://www.w3.org/2000/svg" xmlns:xlink="http://www.w3.org/1999/xlink">
<g id="graph0" class="graph" transform="scale(1 1) rotate(0) translate(4 62)">
<title>player_shot</title>
<polygon fill="#ffffff" stroke="transparent" points="-4,4 -4,-62 223,-62 223,4 -4,4"/>
<!-- Node21 -->
<g id="node1" class="node">
<title>Node21</title>
<polygon fill="#bfbfbf" stroke="#000000" points="0,-19.5 0,-38.5 67,-38.5 67,-19.5 0,-19.5"/>
<text text-anchor="middle" x="33.5" y="-26.5" font-family="Helvetica,sans-Serif" font-size="10.00" fill="#000000">player_shot</text>
</g>
<!-- Node22 -->
<g id="node2" class="node">
<title>Node22</title>
<g id="a_node2"><a xlink:href="board_8c.html#a94c2c1ad303e2a5b6d5927acad3af174" target="_top" xlink:title="Checks if a sprite has been placed inside the board matrix. ">
<polygon fill="#ffffff" stroke="#000000" points="103,-38.5 103,-57.5 219,-57.5 219,-38.5 103,-38.5"/>
<text text-anchor="middle" x="161" y="-45.5" font-family="Helvetica,sans-Serif" font-size="10.00" fill="#000000">check_matrix_collision</text>
</a>
</g>
</g>
<!-- Node21&#45;&gt;Node22 -->
<g id="edge1" class="edge">
<title>Node21&#45;&gt;Node22</title>
<path fill="none" stroke="#191970" d="M67.3329,-34.0418C75.266,-35.2239 83.9984,-36.5252 92.8445,-37.8435"/>
<polygon fill="#191970" stroke="#191970" points="92.437,-41.3213 102.8437,-39.3336 93.4688,-34.3978 92.437,-41.3213"/>
</g>
<!-- Node23 -->
<g id="node3" class="node">
<title>Node23</title>
<g id="a_node3"><a xlink:href="board_8c.html#afca9c6d37276959ed0f884f28060a992" target="_top" xlink:title="Sets the surrounding cells of a boat to &#45;7. ">
<polygon fill="#ffffff" stroke="#000000" points="110.5,-.5 110.5,-19.5 211.5,-19.5 211.5,-.5 110.5,-.5"/>
<text text-anchor="middle" x="161" y="-7.5" font-family="Helvetica,sans-Serif" font-size="10.00" fill="#000000">set_protected_cells</text>
</a>
</g>
</g>
<!-- Node21&#45;&gt;Node23 -->
<g id="edge2" class="edge">
<title>Node21&#45;&gt;Node23</title>
<path fill="none" stroke="#191970" d="M67.3329,-23.9582C77.4896,-22.4447 88.9565,-20.7359 100.2947,-19.0463"/>
<polygon fill="#191970" stroke="#191970" points="100.8144,-22.5076 110.1893,-17.5718 99.7826,-15.584 100.8144,-22.5076"/>
</g>
</g>
</svg>
