<?xml version="1.0" encoding="UTF-8" standalone="no"?>
<!DOCTYPE svg PUBLIC "-//W3C//DTD SVG 1.1//EN"
 "http://www.w3.org/Graphics/SVG/1.1/DTD/svg11.dtd">
<!-- Generated by graphviz version 2.40.1 (20161225.0304)
 -->
<!-- Title: player_shot Pages: 1 -->
<svg width="665pt" height="66pt"
 viewBox="0.00 0.00 665.00 66.00" xmlns="http://www.w3.org/2000/svg" xmlns:xlink="http://www.w3.org/1999/xlink">
<g id="graph0" class="graph" transform="scale(1 1) rotate(0) translate(4 62)">
<title>player_shot</title>
<polygon fill="#ffffff" stroke="transparent" points="-4,4 -4,-62 661,-62 661,4 -4,4"/>
<!-- Node24 -->
<g id="node1" class="node">
<title>Node24</title>
<polygon fill="#bfbfbf" stroke="#000000" points="0,-19.5 0,-38.5 67,-38.5 67,-19.5 0,-19.5"/>
<text text-anchor="middle" x="33.5" y="-26.5" font-family="Helvetica,sans-Serif" font-size="10.00" fill="#000000">player_shot</text>
</g>
<!-- Node25 -->
<g id="node2" class="node">
<title>Node25</title>
<g id="a_node2"><a xlink:href="game_8h.html#aaeeee1282b90aa12468a1862c7871ee4" target="_top" xlink:title="Lets the player fire against the enemy&#39;s boats using a graphical interface Shows previously hit cells...">
<polygon fill="#ffffff" stroke="#000000" points="103,-19.5 103,-38.5 189,-38.5 189,-19.5 103,-19.5"/>
<text text-anchor="middle" x="146" y="-26.5" font-family="Helvetica,sans-Serif" font-size="10.00" fill="#000000">game_round_sp</text>
</a>
</g>
</g>
<!-- Node24&#45;&gt;Node25 -->
<g id="edge1" class="edge">
<title>Node24&#45;&gt;Node25</title>
<path fill="none" stroke="#191970" d="M77.4828,-29C85.7612,-29 94.4123,-29 102.6705,-29"/>
<polygon fill="#191970" stroke="#191970" points="77.2537,-25.5001 67.2537,-29 77.2537,-32.5001 77.2537,-25.5001"/>
</g>
<!-- Node26 -->
<g id="node3" class="node">
<title>Node26</title>
<g id="a_node3"><a xlink:href="game_8h.html#aff1f849979a9ca10d6ff2bce0dfb7fd5" target="_top" xlink:title="Single Player Iniciates the boards from the respective players Starts the game loop (1 turn per playe...">
<polygon fill="#ffffff" stroke="#000000" points="226.5,-38.5 226.5,-57.5 282.5,-57.5 282.5,-38.5 226.5,-38.5"/>
<text text-anchor="middle" x="254.5" y="-45.5" font-family="Helvetica,sans-Serif" font-size="10.00" fill="#000000">game_sp</text>
</a>
</g>
</g>
<!-- Node25&#45;&gt;Node26 -->
<g id="edge2" class="edge">
<title>Node25&#45;&gt;Node26</title>
<path fill="none" stroke="#191970" d="M199.2983,-38.3333C208.6727,-39.9749 218.0851,-41.6232 226.4152,-43.0819"/>
<polygon fill="#191970" stroke="#191970" points="199.6477,-34.8413 189.1938,-36.5639 198.4402,-41.7364 199.6477,-34.8413"/>
</g>
<!-- Node30 -->
<g id="node7" class="node">
<title>Node30</title>
<g id="a_node7"><a xlink:href="game_8h.html#a03f40ddf75045683b3f488d4839937ab" target="_top" xlink:title="Multiplayer. ">
<polygon fill="#ffffff" stroke="#000000" points="225,-.5 225,-19.5 284,-19.5 284,-.5 225,-.5"/>
<text text-anchor="middle" x="254.5" y="-7.5" font-family="Helvetica,sans-Serif" font-size="10.00" fill="#000000">game_mp</text>
</a>
</g>
</g>
<!-- Node25&#45;&gt;Node30 -->
<g id="edge6" class="edge">
<title>Node25&#45;&gt;Node30</title>
<path fill="none" stroke="#191970" d="M199.1035,-19.7008C207.9402,-18.1533 216.8175,-16.5988 224.797,-15.2014"/>
<polygon fill="#191970" stroke="#191970" points="198.4402,-16.2636 189.1938,-21.4361 199.6477,-23.1587 198.4402,-16.2636"/>
</g>
<!-- Node27 -->
<g id="node4" class="node">
<title>Node27</title>
<g id="a_node4"><a xlink:href="menu_8h.html#a95c8dcba38d720d3e4bd6fcf9a8ee279" target="_top" xlink:title="selects a menu option ">
<polygon fill="#ffffff" stroke="#000000" points="320,-19.5 320,-38.5 411,-38.5 411,-19.5 320,-19.5"/>
<text text-anchor="middle" x="365.5" y="-26.5" font-family="Helvetica,sans-Serif" font-size="10.00" fill="#000000">select_menu_opt</text>
</a>
</g>
</g>
<!-- Node26&#45;&gt;Node27 -->
<g id="edge3" class="edge">
<title>Node26&#45;&gt;Node27</title>
<path fill="none" stroke="#191970" d="M292.4694,-41.5007C301.2612,-39.9958 310.707,-38.379 319.7914,-36.824"/>
<polygon fill="#191970" stroke="#191970" points="291.7761,-38.0684 282.51,-43.2055 292.9572,-44.9681 291.7761,-38.0684"/>
</g>
<!-- Node28 -->
<g id="node5" class="node">
<title>Node28</title>
<g id="a_node5"><a xlink:href="menu_8h.html#a6ed6ac9188a15c74b9d07d12b34397c0" target="_top" xlink:title="Subscribes interruptions of the necessary modules Calls main menu and game functions. ">
<polygon fill="#ffffff" stroke="#000000" points="447,-19.5 447,-38.5 539,-38.5 539,-19.5 447,-19.5"/>
<text text-anchor="middle" x="493" y="-26.5" font-family="Helvetica,sans-Serif" font-size="10.00" fill="#000000">game_main_cicle</text>
</a>
</g>
</g>
<!-- Node27&#45;&gt;Node28 -->
<g id="edge4" class="edge">
<title>Node27&#45;&gt;Node28</title>
<path fill="none" stroke="#191970" d="M421.3846,-29C429.8691,-29 438.5423,-29 446.7907,-29"/>
<polygon fill="#191970" stroke="#191970" points="421.1703,-25.5001 411.1703,-29 421.1703,-32.5001 421.1703,-25.5001"/>
</g>
<!-- Node29 -->
<g id="node6" class="node">
<title>Node29</title>
<g id="a_node6"><a xlink:href="proj_8c.html#a2a16f651eccbd248e1ad3b3b924b143b" target="_top" xlink:title="proj_main_loop">
<polygon fill="#ffffff" stroke="#000000" points="575,-19.5 575,-38.5 657,-38.5 657,-19.5 575,-19.5"/>
<text text-anchor="middle" x="616" y="-26.5" font-family="Helvetica,sans-Serif" font-size="10.00" fill="#000000">proj_main_loop</text>
</a>
</g>
</g>
<!-- Node28&#45;&gt;Node29 -->
<g id="edge5" class="edge">
<title>Node28&#45;&gt;Node29</title>
<path fill="none" stroke="#191970" d="M549.1908,-29C557.8339,-29 566.6179,-29 574.8531,-29"/>
<polygon fill="#191970" stroke="#191970" points="549.1506,-25.5001 539.1506,-29 549.1506,-32.5001 549.1506,-25.5001"/>
</g>
<!-- Node30&#45;&gt;Node27 -->
<g id="edge7" class="edge">
<title>Node30&#45;&gt;Node27</title>
<path fill="none" stroke="#191970" d="M294.3594,-16.8228C302.6038,-18.234 311.3495,-19.731 319.7839,-21.1747"/>
<polygon fill="#191970" stroke="#191970" points="294.6931,-13.3291 284.246,-15.0917 293.5121,-20.2287 294.6931,-13.3291"/>
</g>
</g>
</svg>
