<?xml version="1.0" encoding="UTF-8" standalone="no"?>
<!DOCTYPE svg PUBLIC "-//W3C//DTD SVG 1.1//EN"
 "http://www.w3.org/Graphics/SVG/1.1/DTD/svg11.dtd">
<!-- Generated by graphviz version 2.40.1 (20161225.0304)
 -->
<!-- Title: createPlayer Pages: 1 -->
<svg width="547pt" height="66pt"
 viewBox="0.00 0.00 547.00 66.00" xmlns="http://www.w3.org/2000/svg" xmlns:xlink="http://www.w3.org/1999/xlink">
<g id="graph0" class="graph" transform="scale(1 1) rotate(0) translate(4 62)">
<title>createPlayer</title>
<polygon fill="#ffffff" stroke="transparent" points="-4,4 -4,-62 543,-62 543,4 -4,4"/>
<!-- Node5 -->
<g id="node1" class="node">
<title>Node5</title>
<polygon fill="#bfbfbf" stroke="#000000" points="0,-19.5 0,-38.5 71,-38.5 71,-19.5 0,-19.5"/>
<text text-anchor="middle" x="35.5" y="-26.5" font-family="Helvetica,sans-Serif" font-size="10.00" fill="#000000">createPlayer</text>
</g>
<!-- Node6 -->
<g id="node2" class="node">
<title>Node6</title>
<g id="a_node2"><a xlink:href="game_8h.html#aff1f849979a9ca10d6ff2bce0dfb7fd5" target="_top" xlink:title="Single Player Iniciates the boards from the respective players Starts the game loop (1 turn per playe...">
<polygon fill="#ffffff" stroke="#000000" points="108.5,-38.5 108.5,-57.5 164.5,-57.5 164.5,-38.5 108.5,-38.5"/>
<text text-anchor="middle" x="136.5" y="-45.5" font-family="Helvetica,sans-Serif" font-size="10.00" fill="#000000">game_sp</text>
</a>
</g>
</g>
<!-- Node5&#45;&gt;Node6 -->
<g id="edge1" class="edge">
<title>Node5&#45;&gt;Node6</title>
<path fill="none" stroke="#191970" d="M81.0019,-37.5598C90.2557,-39.3006 99.7356,-41.0839 108.1822,-42.6729"/>
<polygon fill="#191970" stroke="#191970" points="81.5835,-34.1079 71.1088,-35.6987 80.2893,-40.9872 81.5835,-34.1079"/>
</g>
<!-- Node10 -->
<g id="node6" class="node">
<title>Node10</title>
<g id="a_node6"><a xlink:href="game_8h.html#a03f40ddf75045683b3f488d4839937ab" target="_top" xlink:title="Multiplayer. ">
<polygon fill="#ffffff" stroke="#000000" points="107,-.5 107,-19.5 166,-19.5 166,-.5 107,-.5"/>
<text text-anchor="middle" x="136.5" y="-7.5" font-family="Helvetica,sans-Serif" font-size="10.00" fill="#000000">game_mp</text>
</a>
</g>
</g>
<!-- Node5&#45;&gt;Node10 -->
<g id="edge5" class="edge">
<title>Node5&#45;&gt;Node10</title>
<path fill="none" stroke="#191970" d="M81.1951,-20.4039C89.9164,-18.7633 98.8305,-17.0863 106.8844,-15.5712"/>
<polygon fill="#191970" stroke="#191970" points="80.2893,-17.0128 71.1088,-22.3013 81.5835,-23.8921 80.2893,-17.0128"/>
</g>
<!-- Node7 -->
<g id="node3" class="node">
<title>Node7</title>
<g id="a_node3"><a xlink:href="menu_8h.html#a95c8dcba38d720d3e4bd6fcf9a8ee279" target="_top" xlink:title="selects a menu option ">
<polygon fill="#ffffff" stroke="#000000" points="202,-19.5 202,-38.5 293,-38.5 293,-19.5 202,-19.5"/>
<text text-anchor="middle" x="247.5" y="-26.5" font-family="Helvetica,sans-Serif" font-size="10.00" fill="#000000">select_menu_opt</text>
</a>
</g>
</g>
<!-- Node6&#45;&gt;Node7 -->
<g id="edge2" class="edge">
<title>Node6&#45;&gt;Node7</title>
<path fill="none" stroke="#191970" d="M174.4694,-41.5007C183.2612,-39.9958 192.707,-38.379 201.7914,-36.824"/>
<polygon fill="#191970" stroke="#191970" points="173.7761,-38.0684 164.51,-43.2055 174.9572,-44.9681 173.7761,-38.0684"/>
</g>
<!-- Node8 -->
<g id="node4" class="node">
<title>Node8</title>
<g id="a_node4"><a xlink:href="menu_8h.html#a6ed6ac9188a15c74b9d07d12b34397c0" target="_top" xlink:title="Subscribes interruptions of the necessary modules Calls main menu and game functions. ">
<polygon fill="#ffffff" stroke="#000000" points="329,-19.5 329,-38.5 421,-38.5 421,-19.5 329,-19.5"/>
<text text-anchor="middle" x="375" y="-26.5" font-family="Helvetica,sans-Serif" font-size="10.00" fill="#000000">game_main_cicle</text>
</a>
</g>
</g>
<!-- Node7&#45;&gt;Node8 -->
<g id="edge3" class="edge">
<title>Node7&#45;&gt;Node8</title>
<path fill="none" stroke="#191970" d="M303.3846,-29C311.8691,-29 320.5423,-29 328.7907,-29"/>
<polygon fill="#191970" stroke="#191970" points="303.1703,-25.5001 293.1703,-29 303.1703,-32.5001 303.1703,-25.5001"/>
</g>
<!-- Node9 -->
<g id="node5" class="node">
<title>Node9</title>
<g id="a_node5"><a xlink:href="proj_8c.html#a2a16f651eccbd248e1ad3b3b924b143b" target="_top" xlink:title="proj_main_loop">
<polygon fill="#ffffff" stroke="#000000" points="457,-19.5 457,-38.5 539,-38.5 539,-19.5 457,-19.5"/>
<text text-anchor="middle" x="498" y="-26.5" font-family="Helvetica,sans-Serif" font-size="10.00" fill="#000000">proj_main_loop</text>
</a>
</g>
</g>
<!-- Node8&#45;&gt;Node9 -->
<g id="edge4" class="edge">
<title>Node8&#45;&gt;Node9</title>
<path fill="none" stroke="#191970" d="M431.1908,-29C439.8339,-29 448.6179,-29 456.8531,-29"/>
<polygon fill="#191970" stroke="#191970" points="431.1506,-25.5001 421.1506,-29 431.1506,-32.5001 431.1506,-25.5001"/>
</g>
<!-- Node10&#45;&gt;Node7 -->
<g id="edge6" class="edge">
<title>Node10&#45;&gt;Node7</title>
<path fill="none" stroke="#191970" d="M176.3594,-16.8228C184.6038,-18.234 193.3495,-19.731 201.7839,-21.1747"/>
<polygon fill="#191970" stroke="#191970" points="176.6931,-13.3291 166.246,-15.0917 175.5121,-20.2287 176.6931,-13.3291"/>
</g>
</g>
</svg>
