<?xml version="1.0" encoding="UTF-8" standalone="no"?>
<!DOCTYPE svg PUBLIC "-//W3C//DTD SVG 1.1//EN"
 "http://www.w3.org/Graphics/SVG/1.1/DTD/svg11.dtd">
<!-- Generated by graphviz version 2.40.1 (20161225.0304)
 -->
<!-- Title: generate_random_matrix Pages: 1 -->
<svg width="426pt" height="104pt"
 viewBox="0.00 0.00 426.00 104.00" xmlns="http://www.w3.org/2000/svg" xmlns:xlink="http://www.w3.org/1999/xlink">
<g id="graph0" class="graph" transform="scale(1 1) rotate(0) translate(4 100)">
<title>generate_random_matrix</title>
<polygon fill="#ffffff" stroke="transparent" points="-4,4 -4,-100 422,-100 422,4 -4,4"/>
<!-- Node11 -->
<g id="node1" class="node">
<title>Node11</title>
<polygon fill="#bfbfbf" stroke="#000000" points="0,-38.5 0,-57.5 124,-57.5 124,-38.5 0,-38.5"/>
<text text-anchor="middle" x="62" y="-45.5" font-family="Helvetica,sans-Serif" font-size="10.00" fill="#000000">generate_random_matrix</text>
</g>
<!-- Node12 -->
<g id="node2" class="node">
<title>Node12</title>
<g id="a_node2"><a xlink:href="boat_8c.html#a52cf7f134f8345da0318d72d997063d3" target="_top" xlink:title="Rotates a boat. ">
<polygon fill="#ffffff" stroke="#000000" points="185,-76.5 185,-95.5 250,-95.5 250,-76.5 185,-76.5"/>
<text text-anchor="middle" x="217.5" y="-83.5" font-family="Helvetica,sans-Serif" font-size="10.00" fill="#000000">rotate_boat</text>
</a>
</g>
</g>
<!-- Node11&#45;&gt;Node12 -->
<g id="edge1" class="edge">
<title>Node11&#45;&gt;Node12</title>
<path fill="none" stroke="#191970" d="M101.2392,-57.589C123.7325,-63.0858 151.979,-69.9884 174.9972,-75.6135"/>
<polygon fill="#191970" stroke="#191970" points="174.2919,-79.044 184.837,-78.018 175.9537,-72.2441 174.2919,-79.044"/>
</g>
<!-- Node13 -->
<g id="node3" class="node">
<title>Node13</title>
<g id="a_node3"><a xlink:href="board_8c.html#a3477a1d0ce52ed1ee03810f53bea8b68" target="_top" xlink:title="Checks if the boat can be placed in the given postion of the matrix. ">
<polygon fill="#ffffff" stroke="#000000" points="160,-38.5 160,-57.5 275,-57.5 275,-38.5 160,-38.5"/>
<text text-anchor="middle" x="217.5" y="-45.5" font-family="Helvetica,sans-Serif" font-size="10.00" fill="#000000">verify_boat_placement</text>
</a>
</g>
</g>
<!-- Node11&#45;&gt;Node13 -->
<g id="edge2" class="edge">
<title>Node11&#45;&gt;Node13</title>
<path fill="none" stroke="#191970" d="M124.3518,-48C132.7016,-48 141.2982,-48 149.7353,-48"/>
<polygon fill="#191970" stroke="#191970" points="149.9204,-51.5001 159.9203,-48 149.9203,-44.5001 149.9204,-51.5001"/>
</g>
<!-- Node14 -->
<g id="node4" class="node">
<title>Node14</title>
<g id="a_node4"><a xlink:href="board_8c.html#afaf03acbe2607c0c50212676083c1d1c" target="_top" xlink:title="Places a boat on the matrix in a given position. ">
<polygon fill="#ffffff" stroke="#000000" points="173.5,-.5 173.5,-19.5 261.5,-19.5 261.5,-.5 173.5,-.5"/>
<text text-anchor="middle" x="217.5" y="-7.5" font-family="Helvetica,sans-Serif" font-size="10.00" fill="#000000">place_boat_cord</text>
</a>
</g>
</g>
<!-- Node11&#45;&gt;Node14 -->
<g id="edge3" class="edge">
<title>Node11&#45;&gt;Node14</title>
<path fill="none" stroke="#191970" d="M101.2392,-38.411C121.7591,-33.3965 147.067,-27.2119 168.8255,-21.8947"/>
<polygon fill="#191970" stroke="#191970" points="169.6597,-25.294 178.543,-19.5201 167.9979,-18.494 169.6597,-25.294"/>
</g>
<!-- Node15 -->
<g id="node5" class="node">
<title>Node15</title>
<g id="a_node5"><a xlink:href="board_8c.html#a961d159f91ae9361f28e245e283df6ba" target="_top" xlink:title="Increments (with &#45;1) the surrounding cells of a boat Blocked cells range from &#45;1 to &#45;4...">
<polygon fill="#ffffff" stroke="#000000" points="311,-.5 311,-19.5 418,-19.5 418,-.5 311,-.5"/>
<text text-anchor="middle" x="364.5" y="-7.5" font-family="Helvetica,sans-Serif" font-size="10.00" fill="#000000">block_adjacent_cells</text>
</a>
</g>
</g>
<!-- Node14&#45;&gt;Node15 -->
<g id="edge4" class="edge">
<title>Node14&#45;&gt;Node15</title>
<path fill="none" stroke="#191970" d="M261.6048,-10C273.8166,-10 287.3245,-10 300.4261,-10"/>
<polygon fill="#191970" stroke="#191970" points="300.8138,-13.5001 310.8138,-10 300.8137,-6.5001 300.8138,-13.5001"/>
</g>
</g>
</svg>
