<?xml version="1.0" encoding="UTF-8" standalone="no"?>
<!DOCTYPE svg PUBLIC "-//W3C//DTD SVG 1.1//EN"
 "http://www.w3.org/Graphics/SVG/1.1/DTD/svg11.dtd">
<!-- Generated by graphviz version 2.40.1 (20161225.0304)
 -->
<!-- Title: readTime Pages: 1 -->
<svg width="297pt" height="104pt"
 viewBox="0.00 0.00 297.00 104.00" xmlns="http://www.w3.org/2000/svg" xmlns:xlink="http://www.w3.org/1999/xlink">
<g id="graph0" class="graph" transform="scale(1 1) rotate(0) translate(4 100)">
<title>readTime</title>
<polygon fill="#ffffff" stroke="transparent" points="-4,4 -4,-100 293,-100 293,4 -4,4"/>
<!-- Node18 -->
<g id="node1" class="node">
<title>Node18</title>
<polygon fill="#bfbfbf" stroke="#000000" points="0,-38.5 0,-57.5 57,-57.5 57,-38.5 0,-38.5"/>
<text text-anchor="middle" x="28.5" y="-45.5" font-family="Helvetica,sans-Serif" font-size="10.00" fill="#000000">readTime</text>
</g>
<!-- Node19 -->
<g id="node2" class="node">
<title>Node19</title>
<g id="a_node2"><a xlink:href="rtc_8c.html#ab6c5efa2e1a2ccd5b2fab4d38affb268" target="_top" xlink:title="Fetches the current hour from the rtc. ">
<polygon fill="#ffffff" stroke="#000000" points="102,-76.5 102,-95.5 158,-95.5 158,-76.5 102,-76.5"/>
<text text-anchor="middle" x="130" y="-83.5" font-family="Helvetica,sans-Serif" font-size="10.00" fill="#000000">readHour</text>
</a>
</g>
</g>
<!-- Node18&#45;&gt;Node19 -->
<g id="edge1" class="edge">
<title>Node18&#45;&gt;Node19</title>
<path fill="none" stroke="#191970" d="M54.1127,-57.589C66.4942,-62.2244 81.5462,-67.8596 94.97,-72.8853"/>
<polygon fill="#191970" stroke="#191970" points="93.8031,-76.1856 104.3955,-76.4141 96.2575,-69.63 93.8031,-76.1856"/>
</g>
<!-- Node21 -->
<g id="node4" class="node">
<title>Node21</title>
<g id="a_node4"><a xlink:href="rtc_8c.html#ab5851ee3c1998fc093f36bbd05e93e61" target="_top" xlink:title="Fetches the current minute from rtc. ">
<polygon fill="#ffffff" stroke="#000000" points="95,-38.5 95,-57.5 165,-57.5 165,-38.5 95,-38.5"/>
<text text-anchor="middle" x="130" y="-45.5" font-family="Helvetica,sans-Serif" font-size="10.00" fill="#000000">readMinutes</text>
</a>
</g>
</g>
<!-- Node18&#45;&gt;Node21 -->
<g id="edge3" class="edge">
<title>Node18&#45;&gt;Node21</title>
<path fill="none" stroke="#191970" d="M57.0435,-48C65.6555,-48 75.3303,-48 84.7494,-48"/>
<polygon fill="#191970" stroke="#191970" points="84.8074,-51.5001 94.8073,-48 84.8073,-44.5001 84.8074,-51.5001"/>
</g>
<!-- Node22 -->
<g id="node5" class="node">
<title>Node22</title>
<g id="a_node5"><a xlink:href="rtc_8c.html#aee65d558e35348768d14ca3e0f31a2de" target="_top" xlink:title="Fetches the current seconds from the rtc. ">
<polygon fill="#ffffff" stroke="#000000" points="93,-.5 93,-19.5 167,-19.5 167,-.5 93,-.5"/>
<text text-anchor="middle" x="130" y="-7.5" font-family="Helvetica,sans-Serif" font-size="10.00" fill="#000000">readSeconds</text>
</a>
</g>
</g>
<!-- Node18&#45;&gt;Node22 -->
<g id="edge5" class="edge">
<title>Node18&#45;&gt;Node22</title>
<path fill="none" stroke="#191970" d="M54.1127,-38.411C66.4942,-33.7756 81.5462,-28.1404 94.97,-23.1147"/>
<polygon fill="#191970" stroke="#191970" points="96.2575,-26.37 104.3955,-19.5859 93.8031,-19.8144 96.2575,-26.37"/>
</g>
<!-- Node20 -->
<g id="node3" class="node">
<title>Node20</title>
<g id="a_node3"><a xlink:href="rtc_8c.html#abb2803b6a02dd054ddac85f257c8eea0" target="_top" xlink:title="converts a binary number into decimal ">
<polygon fill="#ffffff" stroke="#000000" points="203,-38.5 203,-57.5 289,-57.5 289,-38.5 203,-38.5"/>
<text text-anchor="middle" x="246" y="-45.5" font-family="Helvetica,sans-Serif" font-size="10.00" fill="#000000">BCDToDecimal</text>
</a>
</g>
</g>
<!-- Node19&#45;&gt;Node20 -->
<g id="edge2" class="edge">
<title>Node19&#45;&gt;Node20</title>
<path fill="none" stroke="#191970" d="M158.0804,-76.8013C172.8506,-71.9627 191.1857,-65.9564 207.2842,-60.6828"/>
<polygon fill="#191970" stroke="#191970" points="208.5533,-63.9501 216.9668,-57.5109 206.3741,-57.2979 208.5533,-63.9501"/>
</g>
<!-- Node21&#45;&gt;Node20 -->
<g id="edge4" class="edge">
<title>Node21&#45;&gt;Node20</title>
<path fill="none" stroke="#191970" d="M165.1186,-48C173.8354,-48 183.3733,-48 192.7449,-48"/>
<polygon fill="#191970" stroke="#191970" points="192.8021,-51.5001 202.802,-48 192.802,-44.5001 192.8021,-51.5001"/>
</g>
<!-- Node22&#45;&gt;Node20 -->
<g id="edge6" class="edge">
<title>Node22&#45;&gt;Node20</title>
<path fill="none" stroke="#191970" d="M159.2717,-19.589C173.6967,-24.3144 191.2934,-30.0789 206.8573,-35.1774"/>
<polygon fill="#191970" stroke="#191970" points="206.145,-38.627 216.7377,-38.4141 208.3242,-31.9748 206.145,-38.627"/>
</g>
</g>
</svg>
