<?xml version="1.0" encoding="UTF-8" standalone="no"?>
<!DOCTYPE svg PUBLIC "-//W3C//DTD SVG 1.1//EN"
 "http://www.w3.org/Graphics/SVG/1.1/DTD/svg11.dtd">
<!-- Generated by graphviz version 2.40.1 (20161225.0304)
 -->
<!-- Title: BCDToDecimal Pages: 1 -->
<svg width="297pt" height="104pt"
 viewBox="0.00 0.00 297.00 104.00" xmlns="http://www.w3.org/2000/svg" xmlns:xlink="http://www.w3.org/1999/xlink">
<g id="graph0" class="graph" transform="scale(1 1) rotate(0) translate(4 100)">
<title>BCDToDecimal</title>
<polygon fill="#ffffff" stroke="transparent" points="-4,4 -4,-100 293,-100 293,4 -4,4"/>
<!-- Node1 -->
<g id="node1" class="node">
<title>Node1</title>
<polygon fill="#bfbfbf" stroke="#000000" points="0,-38.5 0,-57.5 86,-57.5 86,-38.5 0,-38.5"/>
<text text-anchor="middle" x="43" y="-45.5" font-family="Helvetica,sans-Serif" font-size="10.00" fill="#000000">BCDToDecimal</text>
</g>
<!-- Node2 -->
<g id="node2" class="node">
<title>Node2</title>
<g id="a_node2"><a xlink:href="rtc_8h.html#ab6c5efa2e1a2ccd5b2fab4d38affb268" target="_top" xlink:title="Fetches the current hour from the rtc. ">
<polygon fill="#ffffff" stroke="#000000" points="131,-76.5 131,-95.5 187,-95.5 187,-76.5 131,-76.5"/>
<text text-anchor="middle" x="159" y="-83.5" font-family="Helvetica,sans-Serif" font-size="10.00" fill="#000000">readHour</text>
</a>
</g>
</g>
<!-- Node1&#45;&gt;Node2 -->
<g id="edge1" class="edge">
<title>Node1&#45;&gt;Node2</title>
<path fill="none" stroke="#191970" d="M81.9323,-60.7537C97.9852,-66.0124 116.2308,-71.9894 130.9381,-76.8073"/>
<polygon fill="#191970" stroke="#191970" points="82.8644,-57.3761 72.2717,-57.589 80.6852,-64.0282 82.8644,-57.3761"/>
</g>
<!-- Node4 -->
<g id="node4" class="node">
<title>Node4</title>
<g id="a_node4"><a xlink:href="rtc_8h.html#ab5851ee3c1998fc093f36bbd05e93e61" target="_top" xlink:title="Fetches the current minute from rtc. ">
<polygon fill="#ffffff" stroke="#000000" points="124,-38.5 124,-57.5 194,-57.5 194,-38.5 124,-38.5"/>
<text text-anchor="middle" x="159" y="-45.5" font-family="Helvetica,sans-Serif" font-size="10.00" fill="#000000">readMinutes</text>
</a>
</g>
</g>
<!-- Node1&#45;&gt;Node4 -->
<g id="edge3" class="edge">
<title>Node1&#45;&gt;Node4</title>
<path fill="none" stroke="#191970" d="M96.2072,-48C105.5377,-48 115.0348,-48 123.7237,-48"/>
<polygon fill="#191970" stroke="#191970" points="96.1942,-44.5001 86.1941,-48 96.1941,-51.5001 96.1942,-44.5001"/>
</g>
<!-- Node5 -->
<g id="node5" class="node">
<title>Node5</title>
<g id="a_node5"><a xlink:href="rtc_8h.html#aee65d558e35348768d14ca3e0f31a2de" target="_top" xlink:title="Fetches the current seconds from the rtc. ">
<polygon fill="#ffffff" stroke="#000000" points="122,-.5 122,-19.5 196,-19.5 196,-.5 122,-.5"/>
<text text-anchor="middle" x="159" y="-7.5" font-family="Helvetica,sans-Serif" font-size="10.00" fill="#000000">readSeconds</text>
</a>
</g>
</g>
<!-- Node1&#45;&gt;Node5 -->
<g id="edge5" class="edge">
<title>Node1&#45;&gt;Node5</title>
<path fill="none" stroke="#191970" d="M82.1528,-35.1741C97.7176,-30.0753 115.3141,-24.3109 129.7377,-19.5859"/>
<polygon fill="#191970" stroke="#191970" points="80.6852,-31.9718 72.2717,-38.411 82.8644,-38.6239 80.6852,-31.9718"/>
</g>
<!-- Node3 -->
<g id="node3" class="node">
<title>Node3</title>
<g id="a_node3"><a xlink:href="rtc_8h.html#ae35b2a86937363ab4c837c3e43ecd10a" target="_top" xlink:title="Debug function. ">
<polygon fill="#ffffff" stroke="#000000" points="232,-38.5 232,-57.5 289,-57.5 289,-38.5 232,-38.5"/>
<text text-anchor="middle" x="260.5" y="-45.5" font-family="Helvetica,sans-Serif" font-size="10.00" fill="#000000">readTime</text>
</a>
</g>
</g>
<!-- Node2&#45;&gt;Node3 -->
<g id="edge2" class="edge">
<title>Node2&#45;&gt;Node3</title>
<path fill="none" stroke="#191970" d="M194.0389,-72.882C207.4634,-67.8561 222.5152,-62.2209 234.8955,-57.5859"/>
<polygon fill="#191970" stroke="#191970" points="192.7507,-69.6269 184.6127,-76.411 195.2051,-76.1826 192.7507,-69.6269"/>
</g>
<!-- Node4&#45;&gt;Node3 -->
<g id="edge4" class="edge">
<title>Node4&#45;&gt;Node3</title>
<path fill="none" stroke="#191970" d="M204.4995,-48C213.7564,-48 223.2488,-48 231.727,-48"/>
<polygon fill="#191970" stroke="#191970" points="204.215,-44.5001 194.2149,-48 204.2149,-51.5001 204.215,-44.5001"/>
</g>
<!-- Node5&#45;&gt;Node3 -->
<g id="edge6" class="edge">
<title>Node5&#45;&gt;Node3</title>
<path fill="none" stroke="#191970" d="M194.0389,-23.118C207.4634,-28.1439 222.5152,-33.7791 234.8955,-38.4141"/>
<polygon fill="#191970" stroke="#191970" points="195.2051,-19.8174 184.6127,-19.589 192.7507,-26.3731 195.2051,-19.8174"/>
</g>
</g>
</svg>
