<?xml version="1.0" encoding="UTF-8" standalone="no"?>
<!DOCTYPE svg PUBLIC "-//W3C//DTD SVG 1.1//EN"
 "http://www.w3.org/Graphics/SVG/1.1/DTD/svg11.dtd">
<!-- Generated by graphviz version 2.40.1 (20161225.0304)
 -->
<!-- Title: draw_sprite Pages: 1 -->
<svg width="412pt" height="47pt"
 viewBox="0.00 0.00 412.00 47.00" xmlns="http://www.w3.org/2000/svg" xmlns:xlink="http://www.w3.org/1999/xlink">
<g id="graph0" class="graph" transform="scale(1 1) rotate(0) translate(4 43)">
<title>draw_sprite</title>
<polygon fill="#ffffff" stroke="transparent" points="-4,4 -4,-43 408,-43 408,4 -4,4"/>
<!-- Node26 -->
<g id="node1" class="node">
<title>Node26</title>
<polygon fill="#bfbfbf" stroke="#000000" points="0,-19.5 0,-38.5 67,-38.5 67,-19.5 0,-19.5"/>
<text text-anchor="middle" x="33.5" y="-26.5" font-family="Helvetica,sans-Serif" font-size="10.00" fill="#000000">draw_sprite</text>
</g>
<!-- Node27 -->
<g id="node2" class="node">
<title>Node27</title>
<g id="a_node2"><a xlink:href="graphic_8c.html#a461a83bf6ebfd3b6dc95ca3962858d3d" target="_top" xlink:title="Copies the xmp into the video mem. ">
<polygon fill="#ffffff" stroke="#000000" points="103,-19.5 103,-38.5 165,-38.5 165,-19.5 103,-19.5"/>
<text text-anchor="middle" x="134" y="-26.5" font-family="Helvetica,sans-Serif" font-size="10.00" fill="#000000">draw_xpm</text>
</a>
</g>
</g>
<!-- Node26&#45;&gt;Node27 -->
<g id="edge1" class="edge">
<title>Node26&#45;&gt;Node27</title>
<path fill="none" stroke="#191970" d="M67.2446,-29C75.4338,-29 84.2809,-29 92.7726,-29"/>
<polygon fill="#191970" stroke="#191970" points="92.8862,-32.5001 102.8862,-29 92.8862,-25.5001 92.8862,-32.5001"/>
</g>
<!-- Node28 -->
<g id="node3" class="node">
<title>Node28</title>
<g id="a_node3"><a xlink:href="graphic_8c.html#a89e5e15fb2c065221f58c6d883da6049" target="_top" xlink:title="get_bytes_per_pixel">
<polygon fill="#ffffff" stroke="#000000" points="300,-19.5 300,-38.5 404,-38.5 404,-19.5 300,-19.5"/>
<text text-anchor="middle" x="352" y="-26.5" font-family="Helvetica,sans-Serif" font-size="10.00" fill="#000000">get_bytes_per_pixel</text>
</a>
</g>
</g>
<!-- Node27&#45;&gt;Node28 -->
<g id="edge2" class="edge">
<title>Node27&#45;&gt;Node28</title>
<path fill="none" stroke="#191970" d="M165.2341,-29C197.5774,-29 248.9817,-29 289.6808,-29"/>
<polygon fill="#191970" stroke="#191970" points="289.7793,-32.5001 299.7792,-29 289.7792,-25.5001 289.7793,-32.5001"/>
</g>
<!-- Node29 -->
<g id="node4" class="node">
<title>Node29</title>
<g id="a_node4"><a xlink:href="graphic_8c.html#a90228825151958bdc7dfaffdbbd88494" target="_top" xlink:title="Calculates the color and sets the pixel in the video mem. ">
<polygon fill="#ffffff" stroke="#000000" points="201,-.5 201,-19.5 264,-19.5 264,-.5 201,-.5"/>
<text text-anchor="middle" x="232.5" y="-7.5" font-family="Helvetica,sans-Serif" font-size="10.00" fill="#000000">draw_pixel</text>
</a>
</g>
</g>
<!-- Node27&#45;&gt;Node29 -->
<g id="edge3" class="edge">
<title>Node27&#45;&gt;Node29</title>
<path fill="none" stroke="#191970" d="M165.166,-22.9883C173.3491,-21.4098 182.3057,-19.6822 190.939,-18.0168"/>
<polygon fill="#191970" stroke="#191970" points="191.7036,-21.434 200.8597,-16.1032 190.3778,-14.5607 191.7036,-21.434"/>
</g>
<!-- Node29&#45;&gt;Node28 -->
<g id="edge4" class="edge">
<title>Node29&#45;&gt;Node28</title>
<path fill="none" stroke="#191970" d="M264.2101,-15.0418C272.1477,-16.3038 280.9393,-17.7016 289.8028,-19.1109"/>
<polygon fill="#191970" stroke="#191970" points="289.3732,-22.5865 299.7988,-20.7002 290.4724,-15.6733 289.3732,-22.5865"/>
</g>
</g>
</svg>
