<?xml version="1.0" encoding="UTF-8" standalone="no"?>
<!DOCTYPE svg PUBLIC "-//W3C//DTD SVG 1.1//EN"
 "http://www.w3.org/Graphics/SVG/1.1/DTD/svg11.dtd">
<!-- Generated by graphviz version 2.40.1 (20161225.0304)
 -->
<!-- Title: draw_sprite Pages: 1 -->
<svg width="818pt" height="208pt"
 viewBox="0.00 0.00 818.00 208.00" xmlns="http://www.w3.org/2000/svg" xmlns:xlink="http://www.w3.org/1999/xlink">
<g id="graph0" class="graph" transform="scale(1 1) rotate(0) translate(4 204)">
<title>draw_sprite</title>
<polygon fill="#ffffff" stroke="transparent" points="-4,4 -4,-204 814,-204 814,4 -4,4"/>
<!-- Node30 -->
<g id="node1" class="node">
<title>Node30</title>
<polygon fill="#bfbfbf" stroke="#000000" points="0,-85.5 0,-104.5 67,-104.5 67,-85.5 0,-85.5"/>
<text text-anchor="middle" x="33.5" y="-92.5" font-family="Helvetica,sans-Serif" font-size="10.00" fill="#000000">draw_sprite</text>
</g>
<!-- Node31 -->
<g id="node2" class="node">
<title>Node31</title>
<g id="a_node2"><a xlink:href="board_8h.html#a381a21388b9cb70e9bfaf870ac1f7130" target="_top" xlink:title="Iterates over a boat array and shows the boats. ">
<polygon fill="#ffffff" stroke="#000000" points="127,-66.5 127,-85.5 194,-85.5 194,-66.5 127,-66.5"/>
<text text-anchor="middle" x="160.5" y="-73.5" font-family="Helvetica,sans-Serif" font-size="10.00" fill="#000000">draw_boats</text>
</a>
</g>
</g>
<!-- Node30&#45;&gt;Node31 -->
<g id="edge1" class="edge">
<title>Node30&#45;&gt;Node31</title>
<path fill="none" stroke="#191970" d="M77.4706,-88.4217C93.5822,-86.0113 111.552,-83.3229 126.6423,-81.0653"/>
<polygon fill="#191970" stroke="#191970" points="76.5723,-85.0171 67.2002,-89.9582 77.6081,-91.94 76.5723,-85.0171"/>
</g>
<!-- Node32 -->
<g id="node3" class="node">
<title>Node32</title>
<g id="a_node3"><a xlink:href="game_8h.html#a382ed7c0cb3201c13d4396ad9afc5a3e" target="_top" xlink:title="Lets the player initialize the board unsign a graphical interface 10 boats must be positioned before ...">
<polygon fill="#ffffff" stroke="#000000" points="254,-44.5 254,-63.5 342,-63.5 342,-44.5 254,-44.5"/>
<text text-anchor="middle" x="298" y="-51.5" font-family="Helvetica,sans-Serif" font-size="10.00" fill="#000000">game_init_board</text>
</a>
</g>
</g>
<!-- Node30&#45;&gt;Node32 -->
<g id="edge18" class="edge">
<title>Node30&#45;&gt;Node32</title>
<path fill="none" stroke="#191970" d="M54.8729,-79.7586C68.0617,-71.287 85.7138,-61.5591 103,-57 153.4176,-43.7028 213.7426,-45.3182 253.8102,-48.7164"/>
<polygon fill="#191970" stroke="#191970" points="52.8846,-76.8777 46.5147,-85.3438 56.7738,-82.6978 52.8846,-76.8777"/>
</g>
<!-- Node39 -->
<g id="node10" class="node">
<title>Node39</title>
<g id="a_node10"><a xlink:href="board_8h.html#a63852514f51073a5cc620ff3985a6d77" target="_top" xlink:title="Iterates over the boats array and draws the ones wich have 0 hitpoints. ">
<polygon fill="#ffffff" stroke="#000000" points="103,-180.5 103,-199.5 218,-199.5 218,-180.5 103,-180.5"/>
<text text-anchor="middle" x="160.5" y="-187.5" font-family="Helvetica,sans-Serif" font-size="10.00" fill="#000000">draw_destroyed_boats</text>
</a>
</g>
</g>
<!-- Node30&#45;&gt;Node39 -->
<g id="edge11" class="edge">
<title>Node30&#45;&gt;Node39</title>
<path fill="none" stroke="#191970" d="M47.447,-112.8675C60.4458,-128.5577 81.075,-151.137 103,-166 111.5957,-171.827 121.8305,-176.6588 131.2664,-180.4223"/>
<polygon fill="#191970" stroke="#191970" points="50.0582,-110.5303 41.0506,-104.9522 44.6137,-114.93 50.0582,-110.5303"/>
</g>
<!-- Node40 -->
<g id="node11" class="node">
<title>Node40</title>
<g id="a_node11"><a xlink:href="game_8h.html#aaeeee1282b90aa12468a1862c7871ee4" target="_top" xlink:title="Lets the player fire against the enemy&#39;s boats using a graphical interface Shows previously hit cells...">
<polygon fill="#ffffff" stroke="#000000" points="255,-120.5 255,-139.5 341,-139.5 341,-120.5 255,-120.5"/>
<text text-anchor="middle" x="298" y="-127.5" font-family="Helvetica,sans-Serif" font-size="10.00" fill="#000000">game_round_sp</text>
</a>
</g>
</g>
<!-- Node30&#45;&gt;Node40 -->
<g id="edge19" class="edge">
<title>Node30&#45;&gt;Node40</title>
<path fill="none" stroke="#191970" d="M54.8478,-110.3382C68.0277,-118.844 85.6793,-128.574 103,-133 153.8464,-145.9928 214.6065,-142.1524 254.6355,-137.0996"/>
<polygon fill="#191970" stroke="#191970" points="56.7488,-107.3987 46.4968,-104.7253 52.844,-113.2085 56.7488,-107.3987"/>
</g>
<!-- Node41 -->
<g id="node12" class="node">
<title>Node41</title>
<g id="a_node12"><a xlink:href="board_8h.html#a97ebf6f6f65c53b49910187180bd5e67" target="_top" xlink:title="Converts the states of the matrix into objects and shows them. ">
<polygon fill="#ffffff" stroke="#000000" points="123.5,-104.5 123.5,-123.5 197.5,-123.5 197.5,-104.5 123.5,-104.5"/>
<text text-anchor="middle" x="160.5" y="-111.5" font-family="Helvetica,sans-Serif" font-size="10.00" fill="#000000">draw_objects</text>
</a>
</g>
</g>
<!-- Node30&#45;&gt;Node41 -->
<g id="edge15" class="edge">
<title>Node30&#45;&gt;Node41</title>
<path fill="none" stroke="#191970" d="M77.224,-101.5414C92.1431,-103.7734 108.6801,-106.2474 123.06,-108.3987"/>
<polygon fill="#191970" stroke="#191970" points="77.6081,-98.06 67.2002,-100.0418 76.5723,-104.9829 77.6081,-98.06"/>
</g>
<!-- Node42 -->
<g id="node13" class="node">
<title>Node42</title>
<g id="a_node13"><a xlink:href="menu_8h.html#a4cc4e9de5c448babdb711586dd12bec0" target="_top" xlink:title="graphical interface for the main menu ">
<polygon fill="#ffffff" stroke="#000000" points="498,-.5 498,-19.5 539,-19.5 539,-.5 498,-.5"/>
<text text-anchor="middle" x="518.5" y="-7.5" font-family="Helvetica,sans-Serif" font-size="10.00" fill="#000000">menu</text>
</a>
</g>
</g>
<!-- Node30&#45;&gt;Node42 -->
<g id="edge20" class="edge">
<title>Node30&#45;&gt;Node42</title>
<path fill="none" stroke="#191970" d="M49.5694,-78.3601C62.6721,-65.9648 82.3343,-49.8776 103,-42 245.6443,12.3747 435.4127,-1.1451 497.7206,-7.5783"/>
<polygon fill="#191970" stroke="#191970" points="46.9884,-75.9892 42.3084,-85.4944 51.8944,-80.9823 46.9884,-75.9892"/>
</g>
<!-- Node31&#45;&gt;Node32 -->
<g id="edge2" class="edge">
<title>Node31&#45;&gt;Node32</title>
<path fill="none" stroke="#191970" d="M204.2032,-69.0075C220.0373,-66.474 237.9246,-63.6121 253.801,-61.0718"/>
<polygon fill="#191970" stroke="#191970" points="203.4577,-65.5822 194.1363,-70.6182 204.5637,-72.4942 203.4577,-65.5822"/>
</g>
<!-- Node38 -->
<g id="node9" class="node">
<title>Node38</title>
<g id="a_node9"><a xlink:href="game_8h.html#afb1a61b5802eed643536ce45225d2000" target="_top" xlink:title="Randomly fires upon player&#39;s boats using a state machine to simulate a strategy In case of a hit the ...">
<polygon fill="#ffffff" stroke="#000000" points="256.5,-82.5 256.5,-101.5 339.5,-101.5 339.5,-82.5 256.5,-82.5"/>
<text text-anchor="middle" x="298" y="-89.5" font-family="Helvetica,sans-Serif" font-size="10.00" fill="#000000">game_round_ai</text>
</a>
</g>
</g>
<!-- Node31&#45;&gt;Node38 -->
<g id="edge9" class="edge">
<title>Node31&#45;&gt;Node38</title>
<path fill="none" stroke="#191970" d="M204.1912,-81.0841C220.8823,-83.0263 239.8563,-85.2342 256.3519,-87.1537"/>
<polygon fill="#191970" stroke="#191970" points="204.4738,-77.5934 194.1363,-79.914 203.6647,-84.5465 204.4738,-77.5934"/>
</g>
<!-- Node33 -->
<g id="node4" class="node">
<title>Node33</title>
<g id="a_node4"><a xlink:href="game_8h.html#aff1f849979a9ca10d6ff2bce0dfb7fd5" target="_top" xlink:title="Single Player Iniciates the boards from the respective players Starts the game loop (1 turn per playe...">
<polygon fill="#ffffff" stroke="#000000" points="379.5,-61.5 379.5,-80.5 435.5,-80.5 435.5,-61.5 379.5,-61.5"/>
<text text-anchor="middle" x="407.5" y="-68.5" font-family="Helvetica,sans-Serif" font-size="10.00" fill="#000000">game_sp</text>
</a>
</g>
</g>
<!-- Node32&#45;&gt;Node33 -->
<g id="edge3" class="edge">
<title>Node32&#45;&gt;Node33</title>
<path fill="none" stroke="#191970" d="M352.3605,-62.4395C361.7574,-63.8984 371.1696,-65.3597 379.4898,-66.6514"/>
<polygon fill="#191970" stroke="#191970" points="352.6408,-58.9412 342.2222,-60.8655 351.5669,-65.8583 352.6408,-58.9412"/>
</g>
<!-- Node37 -->
<g id="node8" class="node">
<title>Node37</title>
<g id="a_node8"><a xlink:href="game_8h.html#a03f40ddf75045683b3f488d4839937ab" target="_top" xlink:title="Multiplayer. ">
<polygon fill="#ffffff" stroke="#000000" points="378,-99.5 378,-118.5 437,-118.5 437,-99.5 378,-99.5"/>
<text text-anchor="middle" x="407.5" y="-106.5" font-family="Helvetica,sans-Serif" font-size="10.00" fill="#000000">game_mp</text>
</a>
</g>
</g>
<!-- Node32&#45;&gt;Node37 -->
<g id="edge7" class="edge">
<title>Node32&#45;&gt;Node37</title>
<path fill="none" stroke="#191970" d="M330.8051,-67.7565C334.6038,-69.4701 338.4032,-71.2399 342,-73 359.0166,-81.3271 377.928,-91.8653 391.0381,-99.3842"/>
<polygon fill="#191970" stroke="#191970" points="332.042,-64.4769 321.4795,-63.65 329.2209,-70.8833 332.042,-64.4769"/>
</g>
<!-- Node34 -->
<g id="node5" class="node">
<title>Node34</title>
<g id="a_node5"><a xlink:href="menu_8h.html#a95c8dcba38d720d3e4bd6fcf9a8ee279" target="_top" xlink:title="selects a menu option ">
<polygon fill="#ffffff" stroke="#000000" points="473,-61.5 473,-80.5 564,-80.5 564,-61.5 473,-61.5"/>
<text text-anchor="middle" x="518.5" y="-68.5" font-family="Helvetica,sans-Serif" font-size="10.00" fill="#000000">select_menu_opt</text>
</a>
</g>
</g>
<!-- Node33&#45;&gt;Node34 -->
<g id="edge4" class="edge">
<title>Node33&#45;&gt;Node34</title>
<path fill="none" stroke="#191970" d="M445.7564,-71C454.4665,-71 463.8057,-71 472.7914,-71"/>
<polygon fill="#191970" stroke="#191970" points="445.51,-67.5001 435.51,-71 445.51,-74.5001 445.51,-67.5001"/>
</g>
<!-- Node35 -->
<g id="node6" class="node">
<title>Node35</title>
<g id="a_node6"><a xlink:href="menu_8h.html#a6ed6ac9188a15c74b9d07d12b34397c0" target="_top" xlink:title="Subscribes interruptions of the necessary modules Calls main menu and game functions. ">
<polygon fill="#ffffff" stroke="#000000" points="600,-28.5 600,-47.5 692,-47.5 692,-28.5 600,-28.5"/>
<text text-anchor="middle" x="646" y="-35.5" font-family="Helvetica,sans-Serif" font-size="10.00" fill="#000000">game_main_cicle</text>
</a>
</g>
</g>
<!-- Node34&#45;&gt;Node35 -->
<g id="edge5" class="edge">
<title>Node34&#45;&gt;Node35</title>
<path fill="none" stroke="#191970" d="M565.1784,-58.9185C579.6869,-55.1634 595.4689,-51.0786 609.2046,-47.5235"/>
<polygon fill="#191970" stroke="#191970" points="564.1823,-55.5609 555.3783,-61.455 565.9363,-62.3376 564.1823,-55.5609"/>
</g>
<!-- Node36 -->
<g id="node7" class="node">
<title>Node36</title>
<g id="a_node7"><a xlink:href="proj_8c.html#a2a16f651eccbd248e1ad3b3b924b143b" target="_top" xlink:title="proj_main_loop">
<polygon fill="#ffffff" stroke="#000000" points="728,-28.5 728,-47.5 810,-47.5 810,-28.5 728,-28.5"/>
<text text-anchor="middle" x="769" y="-35.5" font-family="Helvetica,sans-Serif" font-size="10.00" fill="#000000">proj_main_loop</text>
</a>
</g>
</g>
<!-- Node35&#45;&gt;Node36 -->
<g id="edge6" class="edge">
<title>Node35&#45;&gt;Node36</title>
<path fill="none" stroke="#191970" d="M702.1908,-38C710.8339,-38 719.6179,-38 727.8531,-38"/>
<polygon fill="#191970" stroke="#191970" points="702.1506,-34.5001 692.1506,-38 702.1506,-41.5001 702.1506,-34.5001"/>
</g>
<!-- Node37&#45;&gt;Node34 -->
<g id="edge8" class="edge">
<title>Node37&#45;&gt;Node34</title>
<path fill="none" stroke="#191970" d="M445.3913,-96.0282C460.1795,-90.9656 476.8285,-85.2659 490.499,-80.5859"/>
<polygon fill="#191970" stroke="#191970" points="443.8373,-92.8607 435.51,-99.411 446.1046,-99.4834 443.8373,-92.8607"/>
</g>
<!-- Node38&#45;&gt;Node33 -->
<g id="edge10" class="edge">
<title>Node38&#45;&gt;Node33</title>
<path fill="none" stroke="#191970" d="M349.8333,-82.0594C360.0553,-80.099 370.4133,-78.1125 379.4765,-76.3744"/>
<polygon fill="#191970" stroke="#191970" points="348.8714,-78.68 339.7096,-84.0009 350.1899,-85.5547 348.8714,-78.68"/>
</g>
<!-- Node39&#45;&gt;Node40 -->
<g id="edge12" class="edge">
<title>Node39&#45;&gt;Node40</title>
<path fill="none" stroke="#191970" d="M193.0376,-176.6018C201.2058,-173.1881 209.9394,-169.4951 218,-166 238.1216,-157.2753 260.9189,-146.9753 277.0151,-139.6327"/>
<polygon fill="#191970" stroke="#191970" points="191.6711,-173.3794 183.7827,-180.4521 194.36,-179.8424 191.6711,-173.3794"/>
</g>
<!-- Node40&#45;&gt;Node33 -->
<g id="edge13" class="edge">
<title>Node40&#45;&gt;Node33</title>
<path fill="none" stroke="#191970" d="M331.4614,-116.1397C335.0524,-114.478 338.6245,-112.7485 342,-111 351.7608,-105.944 376.1494,-90.7887 392.2547,-80.6531"/>
<polygon fill="#191970" stroke="#191970" points="329.7398,-113.0752 322.0337,-120.3462 332.592,-119.4678 329.7398,-113.0752"/>
</g>
<!-- Node40&#45;&gt;Node37 -->
<g id="edge14" class="edge">
<title>Node40&#45;&gt;Node37</title>
<path fill="none" stroke="#191970" d="M351.1154,-119.8135C360.2481,-118.062 369.4416,-116.2989 377.6781,-114.7193"/>
<polygon fill="#191970" stroke="#191970" points="350.4391,-116.3793 341.2773,-121.7002 351.7576,-123.254 350.4391,-116.3793"/>
</g>
<!-- Node41&#45;&gt;Node38 -->
<g id="edge17" class="edge">
<title>Node41&#45;&gt;Node38</title>
<path fill="none" stroke="#191970" d="M207.8065,-106.431C223.6002,-103.904 241.0718,-101.1085 256.3986,-98.6562"/>
<polygon fill="#191970" stroke="#191970" points="207.0309,-103.0105 197.7095,-108.0465 208.1369,-109.9225 207.0309,-103.0105"/>
</g>
<!-- Node41&#45;&gt;Node40 -->
<g id="edge16" class="edge">
<title>Node41&#45;&gt;Node40</title>
<path fill="none" stroke="#191970" d="M207.9728,-119.5241C223.2158,-121.2978 240.0067,-123.2517 254.917,-124.9867"/>
<polygon fill="#191970" stroke="#191970" points="208.047,-116.0092 197.7095,-118.3298 207.2379,-122.9623 208.047,-116.0092"/>
</g>
<!-- Node42&#45;&gt;Node35 -->
<g id="edge22" class="edge">
<title>Node42&#45;&gt;Node35</title>
<path fill="none" stroke="#191970" d="M549.1557,-16.7322C565.1403,-20.2426 584.9658,-24.5964 602.5076,-28.4487"/>
<polygon fill="#191970" stroke="#191970" points="549.7869,-13.2875 539.2688,-14.561 548.2853,-20.1246 549.7869,-13.2875"/>
</g>
<!-- Node42&#45;&gt;Node42 -->
<g id="edge21" class="edge">
<title>Node42&#45;&gt;Node42</title>
<path fill="none" stroke="#191970" d="M498.1306,-29.4C499.491,-34.3146 506.2808,-38 518.5,-38 538.0508,-38 543.7022,-28.5653 535.4542,-19.7571"/>
<polygon fill="#191970" stroke="#191970" points="501.5065,-30.3518 501.5458,-19.7571 494.9081,-28.0149 501.5065,-30.3518"/>
</g>
</g>
</svg>
