<?xml version="1.0" encoding="UTF-8" standalone="no"?>
<!DOCTYPE svg PUBLIC "-//W3C//DTD SVG 1.1//EN"
 "http://www.w3.org/Graphics/SVG/1.1/DTD/svg11.dtd">
<!-- Generated by graphviz version 2.40.1 (20161225.0304)
 -->
<!-- Title: create_sprite Pages: 1 -->
<!--zoomable 243 -->
<svg id="main" version="1.1" xmlns="http://www.w3.org/2000/svg" xmlns:xlink="http://www.w3.org/1999/xlink" xml:space="preserve" onload="init(evt)">
<style type="text/css"><![CDATA[
.edge:hover path { stroke: red; }
.edge:hover polygon { stroke: red; fill: red; }
]]></style>
<script type="text/javascript"><![CDATA[
var edges = document.getElementsByTagName('g');
if (edges && edges.length) {
  for (var i=0;i<edges.length;i++) {
    if (edges[i].id.substr(0,4)=='edge') {
      edges[i].setAttribute('class','edge');
    }
  }
}
]]></script>
        <defs>
                <circle id="rim" cx="0" cy="0" r="7"/>
                <circle id="rim2" cx="0" cy="0" r="3.5"/>
                <g id="zoomPlus">
                        <use xlink:href="#rim" fill="#404040">
                                <set attributeName="fill" to="#808080" begin="zoomplus.mouseover" end="zoomplus.mouseout"/>
                        </use>
                        <path d="M-4,0h8M0,-4v8" fill="none" stroke="white" stroke-width="1.5" pointer-events="none"/>
                </g>
                <g id="zoomMin">
                        <use xlink:href="#rim" fill="#404040">
                                <set attributeName="fill" to="#808080" begin="zoomminus.mouseover" end="zoomminus.mouseout"/>
                        </use>
                        <path d="M-4,0h8" fill="none" stroke="white" stroke-width="1.5" pointer-events="none"/>
                </g>
                <g id="dirArrow">
                        <path fill="none" stroke="white" stroke-width="1.5" d="M0,-3.0v7 M-2.5,-0.5L0,-3.0L2.5,-0.5"/>
                </g>
               <g id="resetDef">
                       <use xlink:href="#rim2" fill="#404040">
                               <set attributeName="fill" to="#808080" begin="reset.mouseover" end="reset.mouseout"/>
                       </use>
               </g>
        </defs>

<script type="text/javascript">
var viewWidth = 877;
var viewHeight = 243;
var sectionId = 'dynsection-1';
</script>
<script xlink:href="svgpan.js"/>
<svg id="graph" class="graph">
<g id="viewport">
<title>create_sprite</title>
<polygon fill="#ffffff" stroke="transparent" points="-4,4 -4,-239.3828 873,-239.3828 873,4 -4,4"/>
<!-- Node12 -->
<g id="node1" class="node">
<title>Node12</title>
<polygon fill="#bfbfbf" stroke="#000000" points="0,-113.5 0,-132.5 73,-132.5 73,-113.5 0,-113.5"/>
<text text-anchor="middle" x="36.5" y="-120.5" font-family="Helvetica,sans-Serif" font-size="10.00" fill="#000000">create_sprite</text>
</g>
<!-- Node13 -->
<g id="node2" class="node">
<title>Node13</title>
<g id="a_node2"><a xlink:href="board_8h.html#a8b6a92e6e1f0f8e6dedc26bceb048312" target="_top" xlink:title="Loads the objects used for representing water, fire and protected cells. ">
<polygon fill="#ffffff" stroke="#000000" points="321.5,-94.5 321.5,-113.5 392.5,-113.5 392.5,-94.5 321.5,-94.5"/>
<text text-anchor="middle" x="357" y="-101.5" font-family="Helvetica,sans-Serif" font-size="10.00" fill="#000000">load_objects</text>
</a>
</g>
</g>
<!-- Node12&#45;&gt;Node13 -->
<g id="edge1" class="edge">
<title>Node12&#45;&gt;Node13</title>
<path fill="none" stroke="#191970" d="M83.5755,-120.2093C148.2122,-116.3774 263.0252,-109.571 321.153,-106.1251"/>
<polygon fill="#191970" stroke="#191970" points="83.0407,-116.7347 73.2654,-120.8205 83.4551,-123.7224 83.0407,-116.7347"/>
</g>
<!-- Node14 -->
<g id="node3" class="node">
<title>Node14</title>
<g id="a_node3"><a xlink:href="game_8h.html#aff1f849979a9ca10d6ff2bce0dfb7fd5" target="_top" xlink:title="Single Player Iniciates the boards from the respective players Starts the game loop (1 turn per playe...">
<polygon fill="#ffffff" stroke="#000000" points="438.5,-94.5 438.5,-113.5 494.5,-113.5 494.5,-94.5 438.5,-94.5"/>
<text text-anchor="middle" x="466.5" y="-101.5" font-family="Helvetica,sans-Serif" font-size="10.00" fill="#000000">game_sp</text>
</a>
</g>
</g>
<!-- Node12&#45;&gt;Node14 -->
<g id="edge16" class="edge">
<title>Node12&#45;&gt;Node14</title>
<path fill="none" stroke="#191970" d="M82.4393,-111.0084C151.6879,-94.5587 286.8608,-68.7798 401,-85 414.1292,-86.8658 428.3075,-90.7357 440.1039,-94.4991"/>
<polygon fill="#191970" stroke="#191970" points="81.2035,-107.7064 72.3077,-113.461 82.8505,-114.5099 81.2035,-107.7064"/>
</g>
<!-- Node18 -->
<g id="node7" class="node">
<title>Node18</title>
<g id="a_node7"><a xlink:href="game_8h.html#a03f40ddf75045683b3f488d4839937ab" target="_top" xlink:title="Multiplayer. ">
<polygon fill="#ffffff" stroke="#000000" points="437,-132.5 437,-151.5 496,-151.5 496,-132.5 437,-132.5"/>
<text text-anchor="middle" x="466.5" y="-139.5" font-family="Helvetica,sans-Serif" font-size="10.00" fill="#000000">game_mp</text>
</a>
</g>
</g>
<!-- Node12&#45;&gt;Node18 -->
<g id="edge17" class="edge">
<title>Node12&#45;&gt;Node18</title>
<path fill="none" stroke="#191970" d="M47.3447,-141.037C59.6484,-159.5561 81.609,-187.2743 109,-199 228.3056,-250.073 279.453,-244.4817 401,-199 426.4131,-189.4907 448.4712,-165.1739 459.3285,-151.5739"/>
<polygon fill="#191970" stroke="#191970" points="50.2743,-139.1213 41.9558,-132.5598 44.3668,-142.8766 50.2743,-139.1213"/>
</g>
<!-- Node19 -->
<g id="node8" class="node">
<title>Node19</title>
<g id="a_node8"><a xlink:href="boat_8h.html#a5841281c2167da2f3adcd0f7a1a48a1a" target="_top" xlink:title="Creates a boat object. ">
<polygon fill="#ffffff" stroke="#000000" points="109,-170.5 109,-189.5 177,-189.5 177,-170.5 109,-170.5"/>
<text text-anchor="middle" x="143" y="-177.5" font-family="Helvetica,sans-Serif" font-size="10.00" fill="#000000">create_boat</text>
</a>
</g>
</g>
<!-- Node12&#45;&gt;Node19 -->
<g id="edge8" class="edge">
<title>Node12&#45;&gt;Node19</title>
<path fill="none" stroke="#191970" d="M63.5034,-137.4525C82.8497,-147.8069 108.3594,-161.46 125.2005,-170.4735"/>
<polygon fill="#191970" stroke="#191970" points="65.0345,-134.3023 54.5663,-132.6693 61.7313,-140.4739 65.0345,-134.3023"/>
</g>
<!-- Node21 -->
<g id="node10" class="node">
<title>Node21</title>
<g id="a_node10"><a xlink:href="game_8h.html#a382ed7c0cb3201c13d4396ad9afc5a3e" target="_top" xlink:title="Lets the player initialize the board unsign a graphical interface 10 boats must be positioned before ...">
<polygon fill="#ffffff" stroke="#000000" points="313,-132.5 313,-151.5 401,-151.5 401,-132.5 313,-132.5"/>
<text text-anchor="middle" x="357" y="-139.5" font-family="Helvetica,sans-Serif" font-size="10.00" fill="#000000">game_init_board</text>
</a>
</g>
</g>
<!-- Node12&#45;&gt;Node21 -->
<g id="edge18" class="edge">
<title>Node12&#45;&gt;Node21</title>
<path fill="none" stroke="#191970" d="M83.2489,-126.3101C91.8135,-126.892 100.6745,-127.4779 109,-128 180.2305,-132.4666 263.0118,-137.0092 312.6389,-139.6628"/>
<polygon fill="#191970" stroke="#191970" points="83.2212,-122.8 73.0049,-125.6067 82.7416,-129.7836 83.2212,-122.8"/>
</g>
<!-- Node23 -->
<g id="node12" class="node">
<title>Node23</title>
<g id="a_node12"><a xlink:href="menu_8h.html#a4cc4e9de5c448babdb711586dd12bec0" target="_top" xlink:title="graphical interface for the main menu ">
<polygon fill="#ffffff" stroke="#000000" points="224.5,-.5 224.5,-19.5 265.5,-19.5 265.5,-.5 224.5,-.5"/>
<text text-anchor="middle" x="245" y="-7.5" font-family="Helvetica,sans-Serif" font-size="10.00" fill="#000000">menu</text>
</a>
</g>
</g>
<!-- Node12&#45;&gt;Node23 -->
<g id="edge19" class="edge">
<title>Node12&#45;&gt;Node23</title>
<path fill="none" stroke="#191970" d="M50.4306,-105.169C63.841,-89.1294 85.5023,-65.9972 109,-52 146.3651,-29.7423 196.6344,-18.2373 224.4038,-13.2204"/>
<polygon fill="#191970" stroke="#191970" points="47.4574,-103.2782 43.87,-113.2472 52.8912,-107.6912 47.4574,-103.2782"/>
</g>
<!-- Node13&#45;&gt;Node14 -->
<g id="edge2" class="edge">
<title>Node13&#45;&gt;Node14</title>
<path fill="none" stroke="#191970" d="M402.5607,-104C414.7156,-104 427.4926,-104 438.4021,-104"/>
<polygon fill="#191970" stroke="#191970" points="402.5515,-100.5001 392.5515,-104 402.5515,-107.5001 402.5515,-100.5001"/>
</g>
<!-- Node13&#45;&gt;Node18 -->
<g id="edge6" class="edge">
<title>Node13&#45;&gt;Node18</title>
<path fill="none" stroke="#191970" d="M394.3792,-116.9718C408.9676,-122.0344 425.3917,-127.7341 438.8774,-132.4141"/>
<polygon fill="#191970" stroke="#191970" points="395.2263,-113.561 384.6315,-113.589 392.9313,-120.1741 395.2263,-113.561"/>
</g>
<!-- Node15 -->
<g id="node4" class="node">
<title>Node15</title>
<g id="a_node4"><a xlink:href="menu_8h.html#a95c8dcba38d720d3e4bd6fcf9a8ee279" target="_top" xlink:title="selects a menu option ">
<polygon fill="#ffffff" stroke="#000000" points="532,-94.5 532,-113.5 623,-113.5 623,-94.5 532,-94.5"/>
<text text-anchor="middle" x="577.5" y="-101.5" font-family="Helvetica,sans-Serif" font-size="10.00" fill="#000000">select_menu_opt</text>
</a>
</g>
</g>
<!-- Node14&#45;&gt;Node15 -->
<g id="edge3" class="edge">
<title>Node14&#45;&gt;Node15</title>
<path fill="none" stroke="#191970" d="M504.7564,-104C513.4665,-104 522.8057,-104 531.7914,-104"/>
<polygon fill="#191970" stroke="#191970" points="504.51,-100.5001 494.51,-104 504.51,-107.5001 504.51,-100.5001"/>
</g>
<!-- Node16 -->
<g id="node5" class="node">
<title>Node16</title>
<g id="a_node5"><a xlink:href="menu_8h.html#a6ed6ac9188a15c74b9d07d12b34397c0" target="_top" xlink:title="Subscribes interruptions of the necessary modules Calls main menu and game functions. ">
<polygon fill="#ffffff" stroke="#000000" points="659,-47.5 659,-66.5 751,-66.5 751,-47.5 659,-47.5"/>
<text text-anchor="middle" x="705" y="-54.5" font-family="Helvetica,sans-Serif" font-size="10.00" fill="#000000">game_main_cicle</text>
</a>
</g>
</g>
<!-- Node15&#45;&gt;Node16 -->
<g id="edge4" class="edge">
<title>Node15&#45;&gt;Node16</title>
<path fill="none" stroke="#191970" d="M612.7971,-90.9885C633.6972,-83.2842 659.7304,-73.6876 678.7992,-66.6583"/>
<polygon fill="#191970" stroke="#191970" points="611.4737,-87.746 603.3015,-94.4888 613.8949,-94.314 611.4737,-87.746"/>
</g>
<!-- Node17 -->
<g id="node6" class="node">
<title>Node17</title>
<g id="a_node6"><a xlink:href="proj_8c.html#a2a16f651eccbd248e1ad3b3b924b143b" target="_top" xlink:title="proj_main_loop">
<polygon fill="#ffffff" stroke="#000000" points="787,-47.5 787,-66.5 869,-66.5 869,-47.5 787,-47.5"/>
<text text-anchor="middle" x="828" y="-54.5" font-family="Helvetica,sans-Serif" font-size="10.00" fill="#000000">proj_main_loop</text>
</a>
</g>
</g>
<!-- Node16&#45;&gt;Node17 -->
<g id="edge5" class="edge">
<title>Node16&#45;&gt;Node17</title>
<path fill="none" stroke="#191970" d="M761.1908,-57C769.8339,-57 778.6179,-57 786.8531,-57"/>
<polygon fill="#191970" stroke="#191970" points="761.1506,-53.5001 751.1506,-57 761.1506,-60.5001 761.1506,-53.5001"/>
</g>
<!-- Node18&#45;&gt;Node15 -->
<g id="edge7" class="edge">
<title>Node18&#45;&gt;Node15</title>
<path fill="none" stroke="#191970" d="M504.3913,-129.0282C519.1795,-123.9656 535.8285,-118.2659 549.499,-113.5859"/>
<polygon fill="#191970" stroke="#191970" points="502.8373,-125.8607 494.51,-132.411 505.1046,-132.4834 502.8373,-125.8607"/>
</g>
<!-- Node20 -->
<g id="node9" class="node">
<title>Node20</title>
<g id="a_node9"><a xlink:href="board_8h.html#ae77f988d7fd295ac883560b379f2e26d" target="_top" xlink:title="Creates boat objects and loads them into an array. ">
<polygon fill="#ffffff" stroke="#000000" points="213,-170.5 213,-189.5 277,-189.5 277,-170.5 213,-170.5"/>
<text text-anchor="middle" x="245" y="-177.5" font-family="Helvetica,sans-Serif" font-size="10.00" fill="#000000">load_boats</text>
</a>
</g>
</g>
<!-- Node19&#45;&gt;Node20 -->
<g id="edge9" class="edge">
<title>Node19&#45;&gt;Node20</title>
<path fill="none" stroke="#191970" d="M187.4387,-180C195.9471,-180 204.7033,-180 212.7386,-180"/>
<polygon fill="#191970" stroke="#191970" points="187.2483,-176.5001 177.2483,-180 187.2482,-183.5001 187.2483,-176.5001"/>
</g>
<!-- Node20&#45;&gt;Node21 -->
<g id="edge10" class="edge">
<title>Node20&#45;&gt;Node21</title>
<path fill="none" stroke="#191970" d="M282.8027,-167.1741C297.8308,-162.0753 314.8205,-156.3109 328.7467,-151.5859"/>
<polygon fill="#191970" stroke="#191970" points="281.6076,-163.8835 273.2623,-170.411 283.8567,-170.5124 281.6076,-163.8835"/>
</g>
<!-- Node22 -->
<g id="node11" class="node">
<title>Node22</title>
<g id="a_node11"><a xlink:href="player_8h.html#ae5667617b46fe0f16724a0deb73f98e3" target="_top" xlink:title="Create a Player object. ">
<polygon fill="#ffffff" stroke="#000000" points="321.5,-170.5 321.5,-189.5 392.5,-189.5 392.5,-170.5 321.5,-170.5"/>
<text text-anchor="middle" x="357" y="-177.5" font-family="Helvetica,sans-Serif" font-size="10.00" fill="#000000">createPlayer</text>
</a>
</g>
</g>
<!-- Node20&#45;&gt;Node22 -->
<g id="edge13" class="edge">
<title>Node20&#45;&gt;Node22</title>
<path fill="none" stroke="#191970" d="M287.1589,-180C298.4238,-180 310.4858,-180 321.3617,-180"/>
<polygon fill="#191970" stroke="#191970" points="287.0947,-176.5001 277.0947,-180 287.0947,-183.5001 287.0947,-176.5001"/>
</g>
<!-- Node21&#45;&gt;Node14 -->
<g id="edge11" class="edge">
<title>Node21&#45;&gt;Node14</title>
<path fill="none" stroke="#191970" d="M394.3792,-129.0282C408.9676,-123.9656 425.3917,-118.2659 438.8774,-113.5859"/>
<polygon fill="#191970" stroke="#191970" points="392.9313,-125.8259 384.6315,-132.411 395.2263,-132.439 392.9313,-125.8259"/>
</g>
<!-- Node21&#45;&gt;Node18 -->
<g id="edge12" class="edge">
<title>Node21&#45;&gt;Node18</title>
<path fill="none" stroke="#191970" d="M411.451,-142C420.2143,-142 428.9877,-142 436.8734,-142"/>
<polygon fill="#191970" stroke="#191970" points="411.2222,-138.5001 401.2222,-142 411.2222,-145.5001 411.2222,-138.5001"/>
</g>
<!-- Node22&#45;&gt;Node14 -->
<g id="edge14" class="edge">
<title>Node22&#45;&gt;Node14</title>
<path fill="none" stroke="#191970" d="M393.0108,-165.9248C395.791,-164.3978 398.4894,-162.7548 401,-161 420.0683,-147.6721 419.0916,-137.85 437,-123 441.0329,-119.6559 445.6853,-116.4143 450.086,-113.5839"/>
<polygon fill="#191970" stroke="#191970" points="391.3853,-162.8241 383.9814,-170.4025 394.4953,-169.0954 391.3853,-162.8241"/>
</g>
<!-- Node22&#45;&gt;Node18 -->
<g id="edge15" class="edge">
<title>Node22&#45;&gt;Node18</title>
<path fill="none" stroke="#191970" d="M394.3792,-167.0282C408.9676,-161.9656 425.3917,-156.2659 438.8774,-151.5859"/>
<polygon fill="#191970" stroke="#191970" points="392.9313,-163.8259 384.6315,-170.411 395.2263,-170.439 392.9313,-163.8259"/>
</g>
<!-- Node23&#45;&gt;Node16 -->
<g id="edge21" class="edge">
<title>Node23&#45;&gt;Node16</title>
<path fill="none" stroke="#191970" d="M275.9339,-13.1606C355.1018,-21.2495 565.3834,-42.7348 658.9674,-52.2967"/>
<polygon fill="#191970" stroke="#191970" points="275.9629,-9.6455 265.6589,-12.1108 275.2513,-16.6092 275.9629,-9.6455"/>
</g>
<!-- Node23&#45;&gt;Node23 -->
<g id="edge20" class="edge">
<title>Node23&#45;&gt;Node23</title>
<path fill="none" stroke="#191970" d="M226.112,-29.4C227.3734,-34.3146 233.6694,-38 245,-38 263.1289,-38 268.3693,-28.5653 260.7212,-19.7571"/>
<polygon fill="#191970" stroke="#191970" points="229.4839,-30.3499 229.2788,-19.7571 222.8334,-28.1658 229.4839,-30.3499"/>
</g>
</g>
</svg>
        <g id="navigator" transform="translate(0 0)" fill="#404254">
                <rect fill="#f2f5e9" fill-opacity="0.5" stroke="#606060" stroke-width=".5" x="0" y="0" width="60" height="60"/>
                <use id="zoomplus" xlink:href="#zoomPlus" x="17" y="9" onmousedown="handleZoom(evt,'in')"/>
                <use id="zoomminus" xlink:href="#zoomMin" x="42" y="9" onmousedown="handleZoom(evt,'out')"/>
                <use id="reset" xlink:href="#resetDef" x="30" y="36" onmousedown="handleReset()"/>
                <g id="arrowUp" xlink:href="#dirArrow" transform="translate(30 24)" onmousedown="handlePan(0,-1)">
                  <use xlink:href="#rim" fill="#404040">
                        <set attributeName="fill" to="#808080" begin="arrowUp.mouseover" end="arrowUp.mouseout"/>
                  </use>
                  <path fill="none" stroke="white" stroke-width="1.5" d="M0,-3.0v7 M-2.5,-0.5L0,-3.0L2.5,-0.5"/>
                </g>
                <g id="arrowRight" xlink:href="#dirArrow" transform="rotate(90) translate(36 -43)" onmousedown="handlePan(1,0)">
                  <use xlink:href="#rim" fill="#404040">
                        <set attributeName="fill" to="#808080" begin="arrowRight.mouseover" end="arrowRight.mouseout"/>
                  </use>
                  <path fill="none" stroke="white" stroke-width="1.5" d="M0,-3.0v7 M-2.5,-0.5L0,-3.0L2.5,-0.5"/>
                </g>
                <g id="arrowDown" xlink:href="#dirArrow" transform="rotate(180) translate(-30 -48)" onmousedown="handlePan(0,1)">
                  <use xlink:href="#rim" fill="#404040">
                        <set attributeName="fill" to="#808080" begin="arrowDown.mouseover" end="arrowDown.mouseout"/>
                  </use>
                  <path fill="none" stroke="white" stroke-width="1.5" d="M0,-3.0v7 M-2.5,-0.5L0,-3.0L2.5,-0.5"/>
                </g>
                <g id="arrowLeft" xlink:href="#dirArrow" transform="rotate(270) translate(-36 17)" onmousedown="handlePan(-1,0)">
                  <use xlink:href="#rim" fill="#404040">
                        <set attributeName="fill" to="#808080" begin="arrowLeft.mouseover" end="arrowLeft.mouseout"/>
                  </use>
                  <path fill="none" stroke="white" stroke-width="1.5" d="M0,-3.0v7 M-2.5,-0.5L0,-3.0L2.5,-0.5"/>
                </g>
        </g>
        <svg viewBox="0 0 15 15" width="100%" height="30px" preserveAspectRatio="xMaxYMin meet">
         <g id="arrow_out" transform="scale(0.3 0.3)">
          <a xlink:href="sprite_8h_ab67f095900ba6092fed7f581886f28c6_icgraph_org.svg" target="_base">
           <rect id="button" ry="5" rx="5" y="6" x="6" height="38" width="38"
                fill="#f2f5e9" fill-opacity="0.5" stroke="#606060" stroke-width="1.0"/>
           <path id="arrow"
             d="M 11.500037,31.436501 C 11.940474,20.09759 22.043105,11.32322 32.158766,21.979434 L 37.068811,17.246167 C 37.068811,17.246167 37.088388,32 37.088388,32 L 22.160133,31.978069 C 22.160133,31.978069 26.997745,27.140456 26.997745,27.140456 C 18.528582,18.264221 13.291696,25.230495 11.500037,31.436501 z"
             style="fill:#404040;"/>
          </a>
         </g>
        </svg>
</svg>
