<?xml version="1.0" encoding="UTF-8" standalone="no"?>
<!DOCTYPE svg PUBLIC "-//W3C//DTD SVG 1.1//EN"
 "http://www.w3.org/Graphics/SVG/1.1/DTD/svg11.dtd">
<!-- Generated by graphviz version 2.40.1 (20161225.0304)
 -->
<!-- Title: game_round_ai_sm Pages: 1 -->
<svg width="285pt" height="66pt"
 viewBox="0.00 0.00 285.00 66.00" xmlns="http://www.w3.org/2000/svg" xmlns:xlink="http://www.w3.org/1999/xlink">
<g id="graph0" class="graph" transform="scale(1 1) rotate(0) translate(4 62)">
<title>game_round_ai_sm</title>
<polygon fill="#ffffff" stroke="transparent" points="-4,4 -4,-62 281,-62 281,4 -4,4"/>
<!-- Node0 -->
<g id="node1" class="node">
<title>Node0</title>
<polygon fill="#bfbfbf" stroke="#000000" points="0,-19.5 0,-38.5 101,-38.5 101,-19.5 0,-19.5"/>
<text text-anchor="middle" x="50.5" y="-26.5" font-family="Helvetica,sans-Serif" font-size="10.00" fill="#000000">game_round_ai_sm</text>
</g>
<!-- Node1 -->
<g id="node2" class="node">
<title>Node1</title>
<g id="a_node2"><a xlink:href="board_8c.html#a8067154f2f1e58f15220943de5571515" target="_top" xlink:title="Receives a position and acerts what cell type has been hit. ">
<polygon fill="#ffffff" stroke="#000000" points="137,-38.5 137,-57.5 277,-57.5 277,-38.5 137,-38.5"/>
<text text-anchor="middle" x="207" y="-45.5" font-family="Helvetica,sans-Serif" font-size="10.00" fill="#000000">check_matrix_collision_cord</text>
</a>
</g>
</g>
<!-- Node0&#45;&gt;Node1 -->
<g id="edge1" class="edge">
<title>Node0&#45;&gt;Node1</title>
<path fill="none" stroke="#191970" d="M101.3111,-35.1688C109.4581,-36.1579 118.0595,-37.2021 126.6943,-38.2504"/>
<polygon fill="#191970" stroke="#191970" points="126.4719,-41.749 136.8209,-39.4799 127.3156,-34.8001 126.4719,-41.749"/>
</g>
<!-- Node2 -->
<g id="node3" class="node">
<title>Node2</title>
<g id="a_node3"><a xlink:href="board_8c.html#afca9c6d37276959ed0f884f28060a992" target="_top" xlink:title="Sets the surrounding cells of a boat to &#45;7. ">
<polygon fill="#ffffff" stroke="#000000" points="156.5,-.5 156.5,-19.5 257.5,-19.5 257.5,-.5 156.5,-.5"/>
<text text-anchor="middle" x="207" y="-7.5" font-family="Helvetica,sans-Serif" font-size="10.00" fill="#000000">set_protected_cells</text>
</a>
</g>
</g>
<!-- Node0&#45;&gt;Node2 -->
<g id="edge2" class="edge">
<title>Node0&#45;&gt;Node2</title>
<path fill="none" stroke="#191970" d="M101.3111,-22.8312C115.6695,-21.0881 131.4392,-19.1735 146.3157,-17.3674"/>
<polygon fill="#191970" stroke="#191970" points="146.9386,-20.8176 156.4439,-16.1378 146.0949,-13.8686 146.9386,-20.8176"/>
</g>
</g>
</svg>
