<?xml version="1.0" encoding="UTF-8" standalone="no"?>
<!DOCTYPE svg PUBLIC "-//W3C//DTD SVG 1.1//EN"
 "http://www.w3.org/Graphics/SVG/1.1/DTD/svg11.dtd">
<!-- Generated by graphviz version 2.40.1 (20161225.0304)
 -->
<!-- Title: select_boat_sm Pages: 1 -->
<svg width="686pt" height="66pt"
 viewBox="0.00 0.00 686.00 66.00" xmlns="http://www.w3.org/2000/svg" xmlns:xlink="http://www.w3.org/1999/xlink">
<g id="graph0" class="graph" transform="scale(1 1) rotate(0) translate(4 62)">
<title>select_boat_sm</title>
<polygon fill="#ffffff" stroke="transparent" points="-4,4 -4,-62 682,-62 682,4 -4,4"/>
<!-- Node19 -->
<g id="node1" class="node">
<title>Node19</title>
<polygon fill="#bfbfbf" stroke="#000000" points="0,-19.5 0,-38.5 86,-38.5 86,-19.5 0,-19.5"/>
<text text-anchor="middle" x="43" y="-26.5" font-family="Helvetica,sans-Serif" font-size="10.00" fill="#000000">select_boat_sm</text>
</g>
<!-- Node20 -->
<g id="node2" class="node">
<title>Node20</title>
<g id="a_node2"><a xlink:href="game_8h.html#a382ed7c0cb3201c13d4396ad9afc5a3e" target="_top" xlink:title="Lets the player initialize the board unsign a graphical interface 10 boats must be positioned before ...">
<polygon fill="#ffffff" stroke="#000000" points="122,-19.5 122,-38.5 210,-38.5 210,-19.5 122,-19.5"/>
<text text-anchor="middle" x="166" y="-26.5" font-family="Helvetica,sans-Serif" font-size="10.00" fill="#000000">game_init_board</text>
</a>
</g>
</g>
<!-- Node19&#45;&gt;Node20 -->
<g id="edge1" class="edge">
<title>Node19&#45;&gt;Node20</title>
<path fill="none" stroke="#191970" d="M96.0283,-29C104.6795,-29 113.5586,-29 121.9633,-29"/>
<polygon fill="#191970" stroke="#191970" points="96.0195,-25.5001 86.0194,-29 96.0194,-32.5001 96.0195,-25.5001"/>
</g>
<!-- Node21 -->
<g id="node3" class="node">
<title>Node21</title>
<g id="a_node3"><a xlink:href="game_8h.html#aff1f849979a9ca10d6ff2bce0dfb7fd5" target="_top" xlink:title="Single Player Iniciates the boards from the respective players Starts the game loop (1 turn per playe...">
<polygon fill="#ffffff" stroke="#000000" points="247.5,-38.5 247.5,-57.5 303.5,-57.5 303.5,-38.5 247.5,-38.5"/>
<text text-anchor="middle" x="275.5" y="-45.5" font-family="Helvetica,sans-Serif" font-size="10.00" fill="#000000">game_sp</text>
</a>
</g>
</g>
<!-- Node20&#45;&gt;Node21 -->
<g id="edge2" class="edge">
<title>Node20&#45;&gt;Node21</title>
<path fill="none" stroke="#191970" d="M220.3605,-38.4324C229.7574,-40.0629 239.1696,-41.6961 247.4898,-43.1398"/>
<polygon fill="#191970" stroke="#191970" points="220.6734,-34.9345 210.2222,-36.6733 219.4766,-41.8314 220.6734,-34.9345"/>
</g>
<!-- Node25 -->
<g id="node7" class="node">
<title>Node25</title>
<g id="a_node7"><a xlink:href="game_8h.html#a03f40ddf75045683b3f488d4839937ab" target="_top" xlink:title="Multiplayer. ">
<polygon fill="#ffffff" stroke="#000000" points="246,-.5 246,-19.5 305,-19.5 305,-.5 246,-.5"/>
<text text-anchor="middle" x="275.5" y="-7.5" font-family="Helvetica,sans-Serif" font-size="10.00" fill="#000000">game_mp</text>
</a>
</g>
</g>
<!-- Node20&#45;&gt;Node25 -->
<g id="edge6" class="edge">
<title>Node20&#45;&gt;Node25</title>
<path fill="none" stroke="#191970" d="M220.1653,-19.6015C229.0234,-18.0644 237.902,-16.5238 245.8734,-15.1407"/>
<polygon fill="#191970" stroke="#191970" points="219.4766,-16.1686 210.2222,-21.3267 220.6734,-23.0655 219.4766,-16.1686"/>
</g>
<!-- Node22 -->
<g id="node4" class="node">
<title>Node22</title>
<g id="a_node4"><a xlink:href="menu_8h.html#a95c8dcba38d720d3e4bd6fcf9a8ee279" target="_top" xlink:title="selects a menu option ">
<polygon fill="#ffffff" stroke="#000000" points="341,-19.5 341,-38.5 432,-38.5 432,-19.5 341,-19.5"/>
<text text-anchor="middle" x="386.5" y="-26.5" font-family="Helvetica,sans-Serif" font-size="10.00" fill="#000000">select_menu_opt</text>
</a>
</g>
</g>
<!-- Node21&#45;&gt;Node22 -->
<g id="edge3" class="edge">
<title>Node21&#45;&gt;Node22</title>
<path fill="none" stroke="#191970" d="M313.4694,-41.5007C322.2612,-39.9958 331.707,-38.379 340.7914,-36.824"/>
<polygon fill="#191970" stroke="#191970" points="312.7761,-38.0684 303.51,-43.2055 313.9572,-44.9681 312.7761,-38.0684"/>
</g>
<!-- Node23 -->
<g id="node5" class="node">
<title>Node23</title>
<g id="a_node5"><a xlink:href="menu_8h.html#a6ed6ac9188a15c74b9d07d12b34397c0" target="_top" xlink:title="Subscribes interruptions of the necessary modules Calls main menu and game functions. ">
<polygon fill="#ffffff" stroke="#000000" points="468,-19.5 468,-38.5 560,-38.5 560,-19.5 468,-19.5"/>
<text text-anchor="middle" x="514" y="-26.5" font-family="Helvetica,sans-Serif" font-size="10.00" fill="#000000">game_main_cicle</text>
</a>
</g>
</g>
<!-- Node22&#45;&gt;Node23 -->
<g id="edge4" class="edge">
<title>Node22&#45;&gt;Node23</title>
<path fill="none" stroke="#191970" d="M442.3846,-29C450.8691,-29 459.5423,-29 467.7907,-29"/>
<polygon fill="#191970" stroke="#191970" points="442.1703,-25.5001 432.1703,-29 442.1703,-32.5001 442.1703,-25.5001"/>
</g>
<!-- Node24 -->
<g id="node6" class="node">
<title>Node24</title>
<g id="a_node6"><a xlink:href="proj_8c.html#a2a16f651eccbd248e1ad3b3b924b143b" target="_top" xlink:title="proj_main_loop">
<polygon fill="#ffffff" stroke="#000000" points="596,-19.5 596,-38.5 678,-38.5 678,-19.5 596,-19.5"/>
<text text-anchor="middle" x="637" y="-26.5" font-family="Helvetica,sans-Serif" font-size="10.00" fill="#000000">proj_main_loop</text>
</a>
</g>
</g>
<!-- Node23&#45;&gt;Node24 -->
<g id="edge5" class="edge">
<title>Node23&#45;&gt;Node24</title>
<path fill="none" stroke="#191970" d="M570.1908,-29C578.8339,-29 587.6179,-29 595.8531,-29"/>
<polygon fill="#191970" stroke="#191970" points="570.1506,-25.5001 560.1506,-29 570.1506,-32.5001 570.1506,-25.5001"/>
</g>
<!-- Node25&#45;&gt;Node22 -->
<g id="edge7" class="edge">
<title>Node25&#45;&gt;Node22</title>
<path fill="none" stroke="#191970" d="M315.3594,-16.8228C323.6038,-18.234 332.3495,-19.731 340.7839,-21.1747"/>
<polygon fill="#191970" stroke="#191970" points="315.6931,-13.3291 305.246,-15.0917 314.5121,-20.2287 315.6931,-13.3291"/>
</g>
</g>
</svg>
