<?xml version="1.0" encoding="UTF-8" standalone="no"?>
<!DOCTYPE svg PUBLIC "-//W3C//DTD SVG 1.1//EN"
 "http://www.w3.org/Graphics/SVG/1.1/DTD/svg11.dtd">
<!-- Generated by graphviz version 2.40.1 (20161225.0304)
 -->
<!-- Title: game_round_ai_sm Pages: 1 -->
<svg width="693pt" height="28pt"
 viewBox="0.00 0.00 693.00 28.00" xmlns="http://www.w3.org/2000/svg" xmlns:xlink="http://www.w3.org/1999/xlink">
<g id="graph0" class="graph" transform="scale(1 1) rotate(0) translate(4 24)">
<title>game_round_ai_sm</title>
<polygon fill="#ffffff" stroke="transparent" points="-4,4 -4,-24 689,-24 689,4 -4,4"/>
<!-- Node3 -->
<g id="node1" class="node">
<title>Node3</title>
<polygon fill="#bfbfbf" stroke="#000000" points="0,-.5 0,-19.5 101,-19.5 101,-.5 0,-.5"/>
<text text-anchor="middle" x="50.5" y="-7.5" font-family="Helvetica,sans-Serif" font-size="10.00" fill="#000000">game_round_ai_sm</text>
</g>
<!-- Node4 -->
<g id="node2" class="node">
<title>Node4</title>
<g id="a_node2"><a xlink:href="game_8h.html#afb1a61b5802eed643536ce45225d2000" target="_top" xlink:title="Randomly fires upon player&#39;s boats using a state machine to simulate a strategy In case of a hit the ...">
<polygon fill="#ffffff" stroke="#000000" points="137,-.5 137,-19.5 220,-19.5 220,-.5 137,-.5"/>
<text text-anchor="middle" x="178.5" y="-7.5" font-family="Helvetica,sans-Serif" font-size="10.00" fill="#000000">game_round_ai</text>
</a>
</g>
</g>
<!-- Node3&#45;&gt;Node4 -->
<g id="edge1" class="edge">
<title>Node3&#45;&gt;Node4</title>
<path fill="none" stroke="#191970" d="M111.2268,-10C119.9273,-10 128.7087,-10 136.9255,-10"/>
<polygon fill="#191970" stroke="#191970" points="111.089,-6.5001 101.089,-10 111.089,-13.5001 111.089,-6.5001"/>
</g>
<!-- Node5 -->
<g id="node3" class="node">
<title>Node5</title>
<g id="a_node3"><a xlink:href="game_8h.html#aff1f849979a9ca10d6ff2bce0dfb7fd5" target="_top" xlink:title="Single Player Iniciates the boards from the respective players Starts the game loop (1 turn per playe...">
<polygon fill="#ffffff" stroke="#000000" points="256,-.5 256,-19.5 312,-19.5 312,-.5 256,-.5"/>
<text text-anchor="middle" x="284" y="-7.5" font-family="Helvetica,sans-Serif" font-size="10.00" fill="#000000">game_sp</text>
</a>
</g>
</g>
<!-- Node4&#45;&gt;Node5 -->
<g id="edge2" class="edge">
<title>Node4&#45;&gt;Node5</title>
<path fill="none" stroke="#191970" d="M230.4351,-10C239.2184,-10 248.0319,-10 255.9011,-10"/>
<polygon fill="#191970" stroke="#191970" points="230.1964,-6.5001 220.1964,-10 230.1964,-13.5001 230.1964,-6.5001"/>
</g>
<!-- Node6 -->
<g id="node4" class="node">
<title>Node6</title>
<g id="a_node4"><a xlink:href="menu_8h.html#a95c8dcba38d720d3e4bd6fcf9a8ee279" target="_top" xlink:title="selects a menu option ">
<polygon fill="#ffffff" stroke="#000000" points="348,-.5 348,-19.5 439,-19.5 439,-.5 348,-.5"/>
<text text-anchor="middle" x="393.5" y="-7.5" font-family="Helvetica,sans-Serif" font-size="10.00" fill="#000000">select_menu_opt</text>
</a>
</g>
</g>
<!-- Node5&#45;&gt;Node6 -->
<g id="edge3" class="edge">
<title>Node5&#45;&gt;Node6</title>
<path fill="none" stroke="#191970" d="M322.3311,-10C330.6145,-10 339.4504,-10 347.9788,-10"/>
<polygon fill="#191970" stroke="#191970" points="322.199,-6.5001 312.199,-10 322.1989,-13.5001 322.199,-6.5001"/>
</g>
<!-- Node7 -->
<g id="node5" class="node">
<title>Node7</title>
<g id="a_node5"><a xlink:href="menu_8h.html#a6ed6ac9188a15c74b9d07d12b34397c0" target="_top" xlink:title="Subscribes interruptions of the necessary modules Calls main menu and game functions. ">
<polygon fill="#ffffff" stroke="#000000" points="475,-.5 475,-19.5 567,-19.5 567,-.5 475,-.5"/>
<text text-anchor="middle" x="521" y="-7.5" font-family="Helvetica,sans-Serif" font-size="10.00" fill="#000000">game_main_cicle</text>
</a>
</g>
</g>
<!-- Node6&#45;&gt;Node7 -->
<g id="edge4" class="edge">
<title>Node6&#45;&gt;Node7</title>
<path fill="none" stroke="#191970" d="M449.3846,-10C457.8691,-10 466.5423,-10 474.7907,-10"/>
<polygon fill="#191970" stroke="#191970" points="449.1703,-6.5001 439.1703,-10 449.1703,-13.5001 449.1703,-6.5001"/>
</g>
<!-- Node8 -->
<g id="node6" class="node">
<title>Node8</title>
<g id="a_node6"><a xlink:href="proj_8c.html#a2a16f651eccbd248e1ad3b3b924b143b" target="_top" xlink:title="proj_main_loop">
<polygon fill="#ffffff" stroke="#000000" points="603,-.5 603,-19.5 685,-19.5 685,-.5 603,-.5"/>
<text text-anchor="middle" x="644" y="-7.5" font-family="Helvetica,sans-Serif" font-size="10.00" fill="#000000">proj_main_loop</text>
</a>
</g>
</g>
<!-- Node7&#45;&gt;Node8 -->
<g id="edge5" class="edge">
<title>Node7&#45;&gt;Node8</title>
<path fill="none" stroke="#191970" d="M577.1908,-10C585.8339,-10 594.6179,-10 602.8531,-10"/>
<polygon fill="#191970" stroke="#191970" points="577.1506,-6.5001 567.1506,-10 577.1506,-13.5001 577.1506,-6.5001"/>
</g>
</g>
</svg>
