<?xml version="1.0" encoding="UTF-8" standalone="no"?>
<!DOCTYPE svg PUBLIC "-//W3C//DTD SVG 1.1//EN"
 "http://www.w3.org/Graphics/SVG/1.1/DTD/svg11.dtd">
<!-- Generated by graphviz version 2.40.1 (20161225.0304)
 -->
<!-- Title: select_boat_sm Pages: 1 -->
<svg width="412pt" height="208pt"
 viewBox="0.00 0.00 412.00 208.00" xmlns="http://www.w3.org/2000/svg" xmlns:xlink="http://www.w3.org/1999/xlink">
<g id="graph0" class="graph" transform="scale(1 1) rotate(0) translate(4 204)">
<title>select_boat_sm</title>
<polygon fill="#ffffff" stroke="transparent" points="-4,4 -4,-204 408,-204 408,4 -4,4"/>
<!-- Node9 -->
<g id="node1" class="node">
<title>Node9</title>
<polygon fill="#bfbfbf" stroke="#000000" points="0,-104.5 0,-123.5 86,-123.5 86,-104.5 0,-104.5"/>
<text text-anchor="middle" x="43" y="-111.5" font-family="Helvetica,sans-Serif" font-size="10.00" fill="#000000">select_boat_sm</text>
</g>
<!-- Node10 -->
<g id="node2" class="node">
<title>Node10</title>
<g id="a_node2"><a xlink:href="interrupt__cicle_8c.html#ae96d62d9643ecb59a9a8a7828dfc1860" target="_top" xlink:title="get_int_data">
<polygon fill="#ffffff" stroke="#000000" points="145,-180.5 145,-199.5 215,-199.5 215,-180.5 145,-180.5"/>
<text text-anchor="middle" x="180" y="-187.5" font-family="Helvetica,sans-Serif" font-size="10.00" fill="#000000">get_int_data</text>
</a>
</g>
</g>
<!-- Node9&#45;&gt;Node10 -->
<g id="edge1" class="edge">
<title>Node9&#45;&gt;Node10</title>
<path fill="none" stroke="#191970" d="M54.0512,-123.6895C68.7027,-136.1161 95.7736,-157.6516 122,-171 126.2612,-173.1688 130.8224,-175.1634 135.4452,-176.9778"/>
<polygon fill="#191970" stroke="#191970" points="134.3508,-180.3042 144.9447,-180.447 136.7521,-173.7289 134.3508,-180.3042"/>
</g>
<!-- Node11 -->
<g id="node3" class="node">
<title>Node11</title>
<g id="a_node3"><a xlink:href="board_8c.html#a1e9f126ea93fb3c584c5088151988bef" target="_top" xlink:title="Acerts wich boat has been selected. ">
<polygon fill="#ffffff" stroke="#000000" points="122,-142.5 122,-161.5 238,-161.5 238,-142.5 122,-142.5"/>
<text text-anchor="middle" x="180" y="-149.5" font-family="Helvetica,sans-Serif" font-size="10.00" fill="#000000">check_board_selection</text>
</a>
</g>
</g>
<!-- Node9&#45;&gt;Node11 -->
<g id="edge2" class="edge">
<title>Node9&#45;&gt;Node11</title>
<path fill="none" stroke="#191970" d="M77.5709,-123.589C95.1752,-128.4719 116.7793,-134.4643 135.601,-139.685"/>
<polygon fill="#191970" stroke="#191970" points="134.8685,-143.1138 145.4402,-142.4141 136.7395,-136.3685 134.8685,-143.1138"/>
</g>
<!-- Node13 -->
<g id="node5" class="node">
<title>Node13</title>
<g id="a_node5"><a xlink:href="boat_8c.html#a52cf7f134f8345da0318d72d997063d3" target="_top" xlink:title="Rotates a boat. ">
<polygon fill="#ffffff" stroke="#000000" points="147.5,-104.5 147.5,-123.5 212.5,-123.5 212.5,-104.5 147.5,-104.5"/>
<text text-anchor="middle" x="180" y="-111.5" font-family="Helvetica,sans-Serif" font-size="10.00" fill="#000000">rotate_boat</text>
</a>
</g>
</g>
<!-- Node9&#45;&gt;Node13 -->
<g id="edge4" class="edge">
<title>Node9&#45;&gt;Node13</title>
<path fill="none" stroke="#191970" d="M86.3477,-114C102.5528,-114 120.9388,-114 137.103,-114"/>
<polygon fill="#191970" stroke="#191970" points="137.3592,-117.5001 147.3591,-114 137.3591,-110.5001 137.3592,-117.5001"/>
</g>
<!-- Node14 -->
<g id="node6" class="node">
<title>Node14</title>
<g id="a_node6"><a xlink:href="board_8c.html#ad6e9584e2541e9dac82e24ae2e1f1272" target="_top" xlink:title="Places a boat on the matrix using the sprite If the boat was previously placed on the matrix...">
<polygon fill="#ffffff" stroke="#000000" points="148,-66.5 148,-85.5 212,-85.5 212,-66.5 148,-66.5"/>
<text text-anchor="middle" x="180" y="-73.5" font-family="Helvetica,sans-Serif" font-size="10.00" fill="#000000">place_boat</text>
</a>
</g>
</g>
<!-- Node9&#45;&gt;Node14 -->
<g id="edge5" class="edge">
<title>Node9&#45;&gt;Node14</title>
<path fill="none" stroke="#191970" d="M77.5709,-104.411C95.9313,-99.3183 118.6425,-93.0189 138.0104,-87.6468"/>
<polygon fill="#191970" stroke="#191970" points="139.0923,-90.9789 147.793,-84.9333 137.2213,-84.2335 139.0923,-90.9789"/>
</g>
<!-- Node17 -->
<g id="node9" class="node">
<title>Node17</title>
<g id="a_node9"><a xlink:href="board_8c.html#a5cc3d6d9b6f9475ba1cdc66468431694" target="_top" xlink:title="Removes a boat from the board matrix. ">
<polygon fill="#ffffff" stroke="#000000" points="274,-.5 274,-19.5 404,-19.5 404,-.5 274,-.5"/>
<text text-anchor="middle" x="339" y="-7.5" font-family="Helvetica,sans-Serif" font-size="10.00" fill="#000000">remove_boat_from_matrix</text>
</a>
</g>
</g>
<!-- Node9&#45;&gt;Node17 -->
<g id="edge10" class="edge">
<title>Node9&#45;&gt;Node17</title>
<path fill="none" stroke="#191970" d="M53.3571,-104.329C67.6668,-91.513 94.8106,-69.1146 122,-57 166.8208,-37.0295 220.7216,-25.2986 263.5904,-18.5508"/>
<polygon fill="#191970" stroke="#191970" points="264.3148,-21.9811 273.6776,-17.0223 263.2661,-15.0601 264.3148,-21.9811"/>
</g>
<!-- Node12 -->
<g id="node4" class="node">
<title>Node12</title>
<g id="a_node4"><a xlink:href="sprite_8c.html#a999c54879ed9502affbd8d65ecfd1b83" target="_top" xlink:title="Checks sprite collision between two sprites. ">
<polygon fill="#ffffff" stroke="#000000" points="282.5,-152.5 282.5,-171.5 395.5,-171.5 395.5,-152.5 282.5,-152.5"/>
<text text-anchor="middle" x="339" y="-159.5" font-family="Helvetica,sans-Serif" font-size="10.00" fill="#000000">check_sprite_collision</text>
</a>
</g>
</g>
<!-- Node11&#45;&gt;Node12 -->
<g id="edge3" class="edge">
<title>Node11&#45;&gt;Node12</title>
<path fill="none" stroke="#191970" d="M238.3029,-155.6668C249.2958,-156.3582 260.872,-157.0863 272.1038,-157.7927"/>
<polygon fill="#191970" stroke="#191970" points="272.0953,-161.299 282.2953,-158.4337 272.5347,-154.3128 272.0953,-161.299"/>
</g>
<!-- Node15 -->
<g id="node7" class="node">
<title>Node15</title>
<g id="a_node7"><a xlink:href="board_8c.html#a94c2c1ad303e2a5b6d5927acad3af174" target="_top" xlink:title="Checks if a sprite has been placed inside the board matrix. ">
<polygon fill="#ffffff" stroke="#000000" points="281,-114.5 281,-133.5 397,-133.5 397,-114.5 281,-114.5"/>
<text text-anchor="middle" x="339" y="-121.5" font-family="Helvetica,sans-Serif" font-size="10.00" fill="#000000">check_matrix_collision</text>
</a>
</g>
</g>
<!-- Node14&#45;&gt;Node15 -->
<g id="edge6" class="edge">
<title>Node14&#45;&gt;Node15</title>
<path fill="none" stroke="#191970" d="M210.4455,-85.5182C228.8288,-91.2342 252.7367,-98.6127 274,-105 281.2028,-107.1637 288.8645,-109.4324 296.306,-111.6185"/>
<polygon fill="#191970" stroke="#191970" points="295.3241,-114.9779 305.9047,-114.4291 297.2912,-108.26 295.3241,-114.9779"/>
</g>
<!-- Node16 -->
<g id="node8" class="node">
<title>Node16</title>
<g id="a_node8"><a xlink:href="board_8c.html#a3477a1d0ce52ed1ee03810f53bea8b68" target="_top" xlink:title="Checks if the boat can be placed in the given postion of the matrix. ">
<polygon fill="#ffffff" stroke="#000000" points="281.5,-76.5 281.5,-95.5 396.5,-95.5 396.5,-76.5 281.5,-76.5"/>
<text text-anchor="middle" x="339" y="-83.5" font-family="Helvetica,sans-Serif" font-size="10.00" fill="#000000">verify_boat_placement</text>
</a>
</g>
</g>
<!-- Node14&#45;&gt;Node16 -->
<g id="edge7" class="edge">
<title>Node14&#45;&gt;Node16</title>
<path fill="none" stroke="#191970" d="M212.176,-78.0236C229.2541,-79.0977 250.9131,-80.4599 271.4778,-81.7533"/>
<polygon fill="#191970" stroke="#191970" points="271.2604,-85.2465 281.4604,-82.3812 271.6998,-78.2603 271.2604,-85.2465"/>
</g>
<!-- Node14&#45;&gt;Node17 -->
<g id="edge8" class="edge">
<title>Node14&#45;&gt;Node17</title>
<path fill="none" stroke="#191970" d="M196.9025,-66.3885C215.4021,-56.1466 246.1457,-39.9326 274,-29 279.8893,-26.6885 286.1748,-24.5092 292.4297,-22.5088"/>
<polygon fill="#191970" stroke="#191970" points="293.6391,-25.7988 302.1723,-19.519 291.5855,-19.1068 293.6391,-25.7988"/>
</g>
<!-- Node18 -->
<g id="node10" class="node">
<title>Node18</title>
<g id="a_node10"><a xlink:href="board_8c.html#a961d159f91ae9361f28e245e283df6ba" target="_top" xlink:title="Increments (with &#45;1) the surrounding cells of a boat Blocked cells range from &#45;1 to &#45;4...">
<polygon fill="#ffffff" stroke="#000000" points="285.5,-38.5 285.5,-57.5 392.5,-57.5 392.5,-38.5 285.5,-38.5"/>
<text text-anchor="middle" x="339" y="-45.5" font-family="Helvetica,sans-Serif" font-size="10.00" fill="#000000">block_adjacent_cells</text>
</a>
</g>
</g>
<!-- Node14&#45;&gt;Node18 -->
<g id="edge9" class="edge">
<title>Node14&#45;&gt;Node18</title>
<path fill="none" stroke="#191970" d="M212.176,-70.3338C230.2718,-67.1471 253.5107,-63.0547 275.1412,-59.2456"/>
<polygon fill="#191970" stroke="#191970" points="276.0289,-62.6432 285.2703,-57.4618 274.8148,-55.7493 276.0289,-62.6432"/>
</g>
</g>
</svg>
