<?xml version="1.0" encoding="UTF-8" standalone="no"?>
<!DOCTYPE svg PUBLIC "-//W3C//DTD SVG 1.1//EN"
 "http://www.w3.org/Graphics/SVG/1.1/DTD/svg11.dtd">
<!-- Generated by graphviz version 2.40.1 (20161225.0304)
 -->
<!-- Title: interrupt_data Pages: 1 -->
<svg width="195pt" height="226pt"
 viewBox="0.00 0.00 194.50 226.00" xmlns="http://www.w3.org/2000/svg" xmlns:xlink="http://www.w3.org/1999/xlink">
<g id="graph0" class="graph" transform="scale(1 1) rotate(0) translate(4 222)">
<title>interrupt_data</title>
<polygon fill="#ffffff" stroke="transparent" points="-4,4 -4,-222 190.5,-222 190.5,4 -4,4"/>
<!-- Node1 -->
<g id="node1" class="node">
<title>Node1</title>
<polygon fill="#bfbfbf" stroke="#000000" points="40.5,-.5 40.5,-57.5 116.5,-57.5 116.5,-.5 40.5,-.5"/>
<text text-anchor="middle" x="78.5" y="-45.5" font-family="Helvetica,sans-Serif" font-size="10.00" fill="#000000">interrupt_data</text>
<polyline fill="none" stroke="#000000" points="40.5,-38.5 116.5,-38.5 "/>
<text text-anchor="middle" x="78.5" y="-26.5" font-family="Helvetica,sans-Serif" font-size="10.00" fill="#000000"> </text>
<polyline fill="none" stroke="#000000" points="40.5,-19.5 116.5,-19.5 "/>
<text text-anchor="middle" x="78.5" y="-7.5" font-family="Helvetica,sans-Serif" font-size="10.00" fill="#000000"> </text>
</g>
<!-- Node2 -->
<g id="node2" class="node">
<title>Node2</title>
<polygon fill="#ffffff" stroke="#bfbfbf" points="0,-160.5 0,-217.5 29,-217.5 29,-160.5 0,-160.5"/>
<text text-anchor="middle" x="14.5" y="-205.5" font-family="Helvetica,sans-Serif" font-size="10.00" fill="#000000">int</text>
<polyline fill="none" stroke="#bfbfbf" points="0,-198.5 29,-198.5 "/>
<text text-anchor="middle" x="14.5" y="-186.5" font-family="Helvetica,sans-Serif" font-size="10.00" fill="#000000"> </text>
<polyline fill="none" stroke="#bfbfbf" points="0,-179.5 29,-179.5 "/>
<text text-anchor="middle" x="14.5" y="-167.5" font-family="Helvetica,sans-Serif" font-size="10.00" fill="#000000"> </text>
</g>
<!-- Node2&#45;&gt;Node1 -->
<g id="edge1" class="edge">
<title>Node2&#45;&gt;Node1</title>
<path fill="none" stroke="#404040" d="M14.7152,-160.164C15.9497,-136.4259 20.2049,-102.4923 33.5,-76 34.9694,-73.072 36.6834,-70.2042 38.5676,-67.4206"/>
<polygon fill="none" stroke="#404040" points="38.688,-67.2641 39.175,-60.0695 46.0036,-57.7519 45.5165,-64.9465 38.688,-67.2641"/>
<text text-anchor="middle" x="54" y="-112" font-family="Helvetica,sans-Serif" font-size="10.00" fill="#000000"> +delta_x</text>
<text text-anchor="middle" x="54" y="-101" font-family="Helvetica,sans-Serif" font-size="10.00" fill="#000000">+delta_y</text>
</g>
<!-- Node3 -->
<g id="node3" class="node">
<title>Node3</title>
<polygon fill="#ffffff" stroke="#bfbfbf" points="55.5,-160.5 55.5,-217.5 101.5,-217.5 101.5,-160.5 55.5,-160.5"/>
<text text-anchor="middle" x="78.5" y="-205.5" font-family="Helvetica,sans-Serif" font-size="10.00" fill="#000000">uint8_t</text>
<polyline fill="none" stroke="#bfbfbf" points="55.5,-198.5 101.5,-198.5 "/>
<text text-anchor="middle" x="78.5" y="-186.5" font-family="Helvetica,sans-Serif" font-size="10.00" fill="#000000"> </text>
<polyline fill="none" stroke="#bfbfbf" points="55.5,-179.5 101.5,-179.5 "/>
<text text-anchor="middle" x="78.5" y="-167.5" font-family="Helvetica,sans-Serif" font-size="10.00" fill="#000000"> </text>
</g>
<!-- Node3&#45;&gt;Node1 -->
<g id="edge2" class="edge">
<title>Node3&#45;&gt;Node1</title>
<path fill="none" stroke="#404040" d="M78.5,-160.3952C78.5,-135.218 78.5,-98.2632 78.5,-69.9524"/>
<polygon fill="none" stroke="#404040" points="78.5001,-69.6264 74.5,-63.6265 78.5,-57.6264 82.5,-63.6264 78.5001,-69.6264"/>
<text text-anchor="middle" x="104.5" y="-106.5" font-family="Helvetica,sans-Serif" font-size="10.00" fill="#000000"> +scancode</text>
</g>
<!-- Node4 -->
<g id="node4" class="node">
<title>Node4</title>
<polygon fill="#ffffff" stroke="#bfbfbf" points="136,-160.5 136,-217.5 171,-217.5 171,-160.5 136,-160.5"/>
<text text-anchor="middle" x="153.5" y="-205.5" font-family="Helvetica,sans-Serif" font-size="10.00" fill="#000000">bool</text>
<polyline fill="none" stroke="#bfbfbf" points="136,-198.5 171,-198.5 "/>
<text text-anchor="middle" x="153.5" y="-186.5" font-family="Helvetica,sans-Serif" font-size="10.00" fill="#000000"> </text>
<polyline fill="none" stroke="#bfbfbf" points="136,-179.5 171,-179.5 "/>
<text text-anchor="middle" x="153.5" y="-167.5" font-family="Helvetica,sans-Serif" font-size="10.00" fill="#000000"> </text>
</g>
<!-- Node4&#45;&gt;Node1 -->
<g id="edge3" class="edge">
<title>Node4&#45;&gt;Node1</title>
<path fill="none" stroke="#404040" d="M152.9538,-160.3137C151.3633,-136.3554 146.3652,-102.0346 131.5,-76 129.5486,-72.5824 127.257,-69.2849 124.7406,-66.1307"/>
<polygon fill="none" stroke="#404040" points="124.6604,-66.0416 117.6734,-64.2576 116.6329,-57.1219 123.6199,-58.9059 124.6604,-66.0416"/>
<text text-anchor="middle" x="168.5" y="-134" font-family="Helvetica,sans-Serif" font-size="10.00" fill="#000000"> +timer</text>
<text text-anchor="middle" x="168.5" y="-123" font-family="Helvetica,sans-Serif" font-size="10.00" fill="#000000">+mouse</text>
<text text-anchor="middle" x="168.5" y="-112" font-family="Helvetica,sans-Serif" font-size="10.00" fill="#000000">+rb</text>
<text text-anchor="middle" x="168.5" y="-101" font-family="Helvetica,sans-Serif" font-size="10.00" fill="#000000">+mb</text>
<text text-anchor="middle" x="168.5" y="-90" font-family="Helvetica,sans-Serif" font-size="10.00" fill="#000000">+kbd</text>
<text text-anchor="middle" x="168.5" y="-79" font-family="Helvetica,sans-Serif" font-size="10.00" fill="#000000">+lb</text>
</g>
</g>
</svg>
