<?xml version="1.0" encoding="UTF-8" standalone="no"?>
<!DOCTYPE svg PUBLIC "-//W3C//DTD SVG 1.1//EN"
 "http://www.w3.org/Graphics/SVG/1.1/DTD/svg11.dtd">
<!-- Generated by graphviz version 2.40.1 (20161225.0304)
 -->
<!-- Title: Boat Pages: 1 -->
<svg width="243pt" height="339pt"
 viewBox="0.00 0.00 242.78 339.00" xmlns="http://www.w3.org/2000/svg" xmlns:xlink="http://www.w3.org/1999/xlink">
<g id="graph0" class="graph" transform="scale(1 1) rotate(0) translate(4 335)">
<title>Boat</title>
<polygon fill="#ffffff" stroke="transparent" points="-4,4 -4,-335 238.7803,-335 238.7803,4 -4,4"/>
<!-- Node1 -->
<g id="node1" class="node">
<title>Node1</title>
<polygon fill="#bfbfbf" stroke="#000000" points="121.7803,-.5 121.7803,-57.5 158.7803,-57.5 158.7803,-.5 121.7803,-.5"/>
<text text-anchor="middle" x="140.2803" y="-45.5" font-family="Helvetica,sans-Serif" font-size="10.00" fill="#000000">Boat</text>
<polyline fill="none" stroke="#000000" points="121.7803,-38.5 158.7803,-38.5 "/>
<text text-anchor="middle" x="140.2803" y="-26.5" font-family="Helvetica,sans-Serif" font-size="10.00" fill="#000000"> </text>
<polyline fill="none" stroke="#000000" points="121.7803,-19.5 158.7803,-19.5 "/>
<text text-anchor="middle" x="140.2803" y="-7.5" font-family="Helvetica,sans-Serif" font-size="10.00" fill="#000000"> </text>
</g>
<!-- Node2 -->
<g id="node2" class="node">
<title>Node2</title>
<g id="a_node2"><a xlink:href="struct_sprite.html" target="_top" xlink:title="{Sprite\n||}">
<polygon fill="#ffffff" stroke="#000000" points="80.2803,-109.5 80.2803,-166.5 122.2803,-166.5 122.2803,-109.5 80.2803,-109.5"/>
<text text-anchor="middle" x="101.2803" y="-154.5" font-family="Helvetica,sans-Serif" font-size="10.00" fill="#000000">Sprite</text>
<polyline fill="none" stroke="#000000" points="80.2803,-147.5 122.2803,-147.5 "/>
<text text-anchor="middle" x="101.2803" y="-135.5" font-family="Helvetica,sans-Serif" font-size="10.00" fill="#000000"> </text>
<polyline fill="none" stroke="#000000" points="80.2803,-128.5 122.2803,-128.5 "/>
<text text-anchor="middle" x="101.2803" y="-116.5" font-family="Helvetica,sans-Serif" font-size="10.00" fill="#000000"> </text>
</a>
</g>
</g>
<!-- Node2&#45;&gt;Node1 -->
<g id="edge1" class="edge">
<title>Node2&#45;&gt;Node1</title>
<path fill="none" stroke="#404040" d="M111.5271,-109.3615C115.9258,-97.0677 121.1423,-82.4882 125.9165,-69.1449"/>
<polygon fill="none" stroke="#404040" points="125.9239,-69.1242 124.179,-62.1274 129.9666,-57.8256 131.7114,-64.8225 125.9239,-69.1242"/>
<text text-anchor="middle" x="132.2803" y="-79" font-family="Helvetica,sans-Serif" font-size="10.00" fill="#000000"> +sp</text>
</g>
<!-- Node3 -->
<g id="node3" class="node">
<title>Node3</title>
<polygon fill="#ffffff" stroke="#bfbfbf" points="16.7803,-273.5 16.7803,-330.5 45.7803,-330.5 45.7803,-273.5 16.7803,-273.5"/>
<text text-anchor="middle" x="31.2803" y="-318.5" font-family="Helvetica,sans-Serif" font-size="10.00" fill="#000000">int</text>
<polyline fill="none" stroke="#bfbfbf" points="16.7803,-311.5 45.7803,-311.5 "/>
<text text-anchor="middle" x="31.2803" y="-299.5" font-family="Helvetica,sans-Serif" font-size="10.00" fill="#000000"> </text>
<polyline fill="none" stroke="#bfbfbf" points="16.7803,-292.5 45.7803,-292.5 "/>
<text text-anchor="middle" x="31.2803" y="-280.5" font-family="Helvetica,sans-Serif" font-size="10.00" fill="#000000"> </text>
</g>
<!-- Node3&#45;&gt;Node1 -->
<g id="edge4" class="edge">
<title>Node3&#45;&gt;Node1</title>
<path fill="none" stroke="#404040" d="M19.7637,-273.4552C5.4608,-233.1219 -13.6341,-158.4207 16.2803,-105 36.231,-69.3724 80.4591,-48.429 110.3304,-37.8349"/>
<polygon fill="none" stroke="#404040" points="110.3718,-37.8213 114.8028,-32.1321 121.7585,-34.0341 117.3275,-39.7233 110.3718,-37.8213"/>
<text text-anchor="middle" x="43.7803" y="-163" font-family="Helvetica,sans-Serif" font-size="10.00" fill="#000000"> +id</text>
<text text-anchor="middle" x="43.7803" y="-152" font-family="Helvetica,sans-Serif" font-size="10.00" fill="#000000">+matrix_pos</text>
<text text-anchor="middle" x="43.7803" y="-141" font-family="Helvetica,sans-Serif" font-size="10.00" fill="#000000">+hit_points</text>
<text text-anchor="middle" x="43.7803" y="-130" font-family="Helvetica,sans-Serif" font-size="10.00" fill="#000000">+yi</text>
<text text-anchor="middle" x="43.7803" y="-119" font-family="Helvetica,sans-Serif" font-size="10.00" fill="#000000">+xi</text>
<text text-anchor="middle" x="43.7803" y="-108" font-family="Helvetica,sans-Serif" font-size="10.00" fill="#000000">+size</text>
</g>
<!-- Node3&#45;&gt;Node2 -->
<g id="edge2" class="edge">
<title>Node3&#45;&gt;Node2</title>
<path fill="none" stroke="#404040" d="M36.8344,-273.1353C42.0149,-249.6827 50.9637,-216.1584 64.2803,-189 66.8538,-183.7515 69.9651,-178.472 73.2775,-173.403"/>
<polygon fill="none" stroke="#404040" points="73.4016,-173.2245 73.5422,-166.0148 80.2514,-163.3715 80.1108,-170.5813 73.4016,-173.2245"/>
<text text-anchor="middle" x="83.2803" y="-247" font-family="Helvetica,sans-Serif" font-size="10.00" fill="#000000"> +height</text>
<text text-anchor="middle" x="83.2803" y="-236" font-family="Helvetica,sans-Serif" font-size="10.00" fill="#000000">+width</text>
<text text-anchor="middle" x="83.2803" y="-225" font-family="Helvetica,sans-Serif" font-size="10.00" fill="#000000">+x</text>
<text text-anchor="middle" x="83.2803" y="-214" font-family="Helvetica,sans-Serif" font-size="10.00" fill="#000000">+y</text>
<text text-anchor="middle" x="83.2803" y="-203" font-family="Helvetica,sans-Serif" font-size="10.00" fill="#000000">+yspeed</text>
<text text-anchor="middle" x="83.2803" y="-192" font-family="Helvetica,sans-Serif" font-size="10.00" fill="#000000">+xspeed</text>
</g>
<!-- Node4 -->
<g id="node4" class="node">
<title>Node4</title>
<polygon fill="#ffffff" stroke="#bfbfbf" points="110.2803,-273.5 110.2803,-330.5 156.2803,-330.5 156.2803,-273.5 110.2803,-273.5"/>
<text text-anchor="middle" x="133.2803" y="-318.5" font-family="Helvetica,sans-Serif" font-size="10.00" fill="#000000">uint8_t</text>
<polyline fill="none" stroke="#bfbfbf" points="110.2803,-311.5 156.2803,-311.5 "/>
<text text-anchor="middle" x="133.2803" y="-299.5" font-family="Helvetica,sans-Serif" font-size="10.00" fill="#000000"> </text>
<polyline fill="none" stroke="#bfbfbf" points="110.2803,-292.5 156.2803,-292.5 "/>
<text text-anchor="middle" x="133.2803" y="-280.5" font-family="Helvetica,sans-Serif" font-size="10.00" fill="#000000"> </text>
</g>
<!-- Node4&#45;&gt;Node1 -->
<g id="edge5" class="edge">
<title>Node4&#45;&gt;Node1</title>
<path fill="none" stroke="#404040" d="M141.0868,-273.3515C142.4153,-267.3341 143.5882,-260.9939 144.2803,-255 151.7271,-190.504 147.8779,-114.9793 144.223,-69.6187"/>
<polygon fill="none" stroke="#404040" points="144.2229,-69.6157 139.7292,-63.9759 143.2069,-57.6588 147.7005,-63.2986 144.2229,-69.6157"/>
<text text-anchor="middle" x="159.7803" y="-141" font-family="Helvetica,sans-Serif" font-size="10.00" fill="#000000"> +rev</text>
<text text-anchor="middle" x="159.7803" y="-130" font-family="Helvetica,sans-Serif" font-size="10.00" fill="#000000">+def</text>
</g>
<!-- Node4&#45;&gt;Node2 -->
<g id="edge3" class="edge">
<title>Node4&#45;&gt;Node2</title>
<path fill="none" stroke="#404040" d="M121.8341,-273.4732C119.7361,-267.4469 117.7489,-261.0724 116.2803,-255 110.2564,-230.0916 106.5376,-201.5784 104.3096,-178.9362"/>
<polygon fill="none" stroke="#404040" points="104.2826,-178.6393 99.7539,-173.0276 103.192,-166.6889 107.7208,-172.3006 104.2826,-178.6393"/>
<text text-anchor="middle" x="130.2803" y="-219.5" font-family="Helvetica,sans-Serif" font-size="10.00" fill="#000000"> +map</text>
</g>
<!-- Node5 -->
<g id="node5" class="node">
<title>Node5</title>
<polygon fill="#ffffff" stroke="#bfbfbf" points="199.7803,-109.5 199.7803,-166.5 234.7803,-166.5 234.7803,-109.5 199.7803,-109.5"/>
<text text-anchor="middle" x="217.2803" y="-154.5" font-family="Helvetica,sans-Serif" font-size="10.00" fill="#000000">bool</text>
<polyline fill="none" stroke="#bfbfbf" points="199.7803,-147.5 234.7803,-147.5 "/>
<text text-anchor="middle" x="217.2803" y="-135.5" font-family="Helvetica,sans-Serif" font-size="10.00" fill="#000000"> </text>
<polyline fill="none" stroke="#bfbfbf" points="199.7803,-128.5 234.7803,-128.5 "/>
<text text-anchor="middle" x="217.2803" y="-116.5" font-family="Helvetica,sans-Serif" font-size="10.00" fill="#000000"> </text>
</g>
<!-- Node5&#45;&gt;Node1 -->
<g id="edge6" class="edge">
<title>Node5&#45;&gt;Node1</title>
<path fill="none" stroke="#404040" d="M199.615,-112.9932C189.6353,-98.8661 176.9829,-80.9555 165.9276,-65.3059"/>
<polygon fill="none" stroke="#404040" points="165.8613,-65.212 159.1324,-62.6193 158.9375,-55.4108 165.6664,-58.0035 165.8613,-65.212"/>
<text text-anchor="middle" x="190.2803" y="-79" font-family="Helvetica,sans-Serif" font-size="10.00" fill="#000000"> +up</text>
</g>
</g>
</svg>
