<?xml version="1.0" encoding="UTF-8" standalone="no"?>
<!DOCTYPE svg PUBLIC "-//W3C//DTD SVG 1.1//EN"
 "http://www.w3.org/Graphics/SVG/1.1/DTD/svg11.dtd">
<!-- Generated by graphviz version 2.40.1 (20161225.0304)
 -->
<!-- Title: Board Pages: 1 -->
<svg width="81pt" height="182pt"
 viewBox="0.00 0.00 81.00 182.00" xmlns="http://www.w3.org/2000/svg" xmlns:xlink="http://www.w3.org/1999/xlink">
<g id="graph0" class="graph" transform="scale(1 1) rotate(0) translate(4 178)">
<title>Board</title>
<polygon fill="#ffffff" stroke="transparent" points="-4,4 -4,-178 77,-178 77,4 -4,4"/>
<!-- Node1 -->
<g id="node1" class="node">
<title>Node1</title>
<polygon fill="#bfbfbf" stroke="#000000" points="0,-.5 0,-57.5 42,-57.5 42,-.5 0,-.5"/>
<text text-anchor="middle" x="21" y="-45.5" font-family="Helvetica,sans-Serif" font-size="10.00" fill="#000000">Board</text>
<polyline fill="none" stroke="#000000" points="0,-38.5 42,-38.5 "/>
<text text-anchor="middle" x="21" y="-26.5" font-family="Helvetica,sans-Serif" font-size="10.00" fill="#000000"> </text>
<polyline fill="none" stroke="#000000" points="0,-19.5 42,-19.5 "/>
<text text-anchor="middle" x="21" y="-7.5" font-family="Helvetica,sans-Serif" font-size="10.00" fill="#000000"> </text>
</g>
<!-- Node2 -->
<g id="node2" class="node">
<title>Node2</title>
<polygon fill="#ffffff" stroke="#bfbfbf" points="6.5,-116.5 6.5,-173.5 35.5,-173.5 35.5,-116.5 6.5,-116.5"/>
<text text-anchor="middle" x="21" y="-161.5" font-family="Helvetica,sans-Serif" font-size="10.00" fill="#000000">int</text>
<polyline fill="none" stroke="#bfbfbf" points="6.5,-154.5 35.5,-154.5 "/>
<text text-anchor="middle" x="21" y="-142.5" font-family="Helvetica,sans-Serif" font-size="10.00" fill="#000000"> </text>
<polyline fill="none" stroke="#bfbfbf" points="6.5,-135.5 35.5,-135.5 "/>
<text text-anchor="middle" x="21" y="-123.5" font-family="Helvetica,sans-Serif" font-size="10.00" fill="#000000"> </text>
</g>
<!-- Node2&#45;&gt;Node1 -->
<g id="edge1" class="edge">
<title>Node2&#45;&gt;Node1</title>
<path fill="none" stroke="#404040" d="M21,-116.3258C21,-102.3834 21,-85.3727 21,-70.0815"/>
<polygon fill="none" stroke="#404040" points="21.0001,-69.7463 17,-63.7464 21,-57.7463 25,-63.7463 21.0001,-69.7463"/>
<text text-anchor="middle" x="47" y="-90" font-family="Helvetica,sans-Serif" font-size="10.00" fill="#000000"> +id</text>
<text text-anchor="middle" x="47" y="-79" font-family="Helvetica,sans-Serif" font-size="10.00" fill="#000000">+board_mat</text>
</g>
</g>
</svg>
