<?xml version="1.0" encoding="UTF-8" standalone="no"?>
<!DOCTYPE svg PUBLIC "-//W3C//DTD SVG 1.1//EN"
 "http://www.w3.org/Graphics/SVG/1.1/DTD/svg11.dtd">
<!-- Generated by graphviz version 2.40.1 (20161225.0304)
 -->
<!-- Title: Sprite Pages: 1 -->
<svg width="107pt" height="226pt"
 viewBox="0.00 0.00 106.50 226.00" xmlns="http://www.w3.org/2000/svg" xmlns:xlink="http://www.w3.org/1999/xlink">
<g id="graph0" class="graph" transform="scale(1 1) rotate(0) translate(4 222)">
<title>Sprite</title>
<polygon fill="#ffffff" stroke="transparent" points="-4,4 -4,-222 102.5,-222 102.5,4 -4,4"/>
<!-- Node1 -->
<g id="node1" class="node">
<title>Node1</title>
<polygon fill="#bfbfbf" stroke="#000000" points="23.5,-.5 23.5,-57.5 65.5,-57.5 65.5,-.5 23.5,-.5"/>
<text text-anchor="middle" x="44.5" y="-45.5" font-family="Helvetica,sans-Serif" font-size="10.00" fill="#000000">Sprite</text>
<polyline fill="none" stroke="#000000" points="23.5,-38.5 65.5,-38.5 "/>
<text text-anchor="middle" x="44.5" y="-26.5" font-family="Helvetica,sans-Serif" font-size="10.00" fill="#000000"> </text>
<polyline fill="none" stroke="#000000" points="23.5,-19.5 65.5,-19.5 "/>
<text text-anchor="middle" x="44.5" y="-7.5" font-family="Helvetica,sans-Serif" font-size="10.00" fill="#000000"> </text>
</g>
<!-- Node2 -->
<g id="node2" class="node">
<title>Node2</title>
<polygon fill="#ffffff" stroke="#bfbfbf" points="0,-160.5 0,-217.5 29,-217.5 29,-160.5 0,-160.5"/>
<text text-anchor="middle" x="14.5" y="-205.5" font-family="Helvetica,sans-Serif" font-size="10.00" fill="#000000">int</text>
<polyline fill="none" stroke="#bfbfbf" points="0,-198.5 29,-198.5 "/>
<text text-anchor="middle" x="14.5" y="-186.5" font-family="Helvetica,sans-Serif" font-size="10.00" fill="#000000"> </text>
<polyline fill="none" stroke="#bfbfbf" points="0,-179.5 29,-179.5 "/>
<text text-anchor="middle" x="14.5" y="-167.5" font-family="Helvetica,sans-Serif" font-size="10.00" fill="#000000"> </text>
</g>
<!-- Node2&#45;&gt;Node1 -->
<g id="edge1" class="edge">
<title>Node2&#45;&gt;Node1</title>
<path fill="none" stroke="#404040" d="M10.5421,-160.0582C8.3634,-136.8558 7.5066,-103.7098 15.5,-76 16.2059,-73.553 17.0775,-71.1077 18.0729,-68.6903"/>
<polygon fill="none" stroke="#404040" points="18.19,-68.4514 17.2414,-61.303 23.4751,-57.6779 24.4237,-64.8264 18.19,-68.4514"/>
<text text-anchor="middle" x="34.5" y="-134" font-family="Helvetica,sans-Serif" font-size="10.00" fill="#000000"> +height</text>
<text text-anchor="middle" x="34.5" y="-123" font-family="Helvetica,sans-Serif" font-size="10.00" fill="#000000">+width</text>
<text text-anchor="middle" x="34.5" y="-112" font-family="Helvetica,sans-Serif" font-size="10.00" fill="#000000">+x</text>
<text text-anchor="middle" x="34.5" y="-101" font-family="Helvetica,sans-Serif" font-size="10.00" fill="#000000">+y</text>
<text text-anchor="middle" x="34.5" y="-90" font-family="Helvetica,sans-Serif" font-size="10.00" fill="#000000">+yspeed</text>
<text text-anchor="middle" x="34.5" y="-79" font-family="Helvetica,sans-Serif" font-size="10.00" fill="#000000">+xspeed</text>
</g>
<!-- Node3 -->
<g id="node3" class="node">
<title>Node3</title>
<polygon fill="#ffffff" stroke="#bfbfbf" points="52.5,-160.5 52.5,-217.5 98.5,-217.5 98.5,-160.5 52.5,-160.5"/>
<text text-anchor="middle" x="75.5" y="-205.5" font-family="Helvetica,sans-Serif" font-size="10.00" fill="#000000">uint8_t</text>
<polyline fill="none" stroke="#bfbfbf" points="52.5,-198.5 98.5,-198.5 "/>
<text text-anchor="middle" x="75.5" y="-186.5" font-family="Helvetica,sans-Serif" font-size="10.00" fill="#000000"> </text>
<polyline fill="none" stroke="#bfbfbf" points="52.5,-179.5 98.5,-179.5 "/>
<text text-anchor="middle" x="75.5" y="-167.5" font-family="Helvetica,sans-Serif" font-size="10.00" fill="#000000"> </text>
</g>
<!-- Node3&#45;&gt;Node1 -->
<g id="edge2" class="edge">
<title>Node3&#45;&gt;Node1</title>
<path fill="none" stroke="#404040" d="M69.9578,-160.3952C65.0578,-135.1046 57.8552,-97.93 52.3605,-69.5704"/>
<polygon fill="none" stroke="#404040" points="52.329,-69.4073 47.2607,-64.2778 50.0464,-57.6264 55.1147,-62.756 52.329,-69.4073"/>
<text text-anchor="middle" x="79.5" y="-106.5" font-family="Helvetica,sans-Serif" font-size="10.00" fill="#000000"> +map</text>
</g>
</g>
</svg>
