<?xml version="1.0" encoding="UTF-8" standalone="no"?>
<!DOCTYPE svg PUBLIC "-//W3C//DTD SVG 1.1//EN"
 "http://www.w3.org/Graphics/SVG/1.1/DTD/svg11.dtd">
<!-- Generated by graphviz version 2.40.1 (20161225.0304)
 -->
<!-- Title: Player Pages: 1 -->
<!--zoomable 491 -->
<svg id="main" version="1.1" xmlns="http://www.w3.org/2000/svg" xmlns:xlink="http://www.w3.org/1999/xlink" xml:space="preserve" onload="init(evt)">
<style type="text/css"><![CDATA[
.edge:hover path { stroke: red; }
.edge:hover polygon { stroke: red; fill: red; }
]]></style>
<script type="text/javascript"><![CDATA[
var edges = document.getElementsByTagName('g');
if (edges && edges.length) {
  for (var i=0;i<edges.length;i++) {
    if (edges[i].id.substr(0,4)=='edge') {
      edges[i].setAttribute('class','edge');
    }
  }
}
]]></script>
        <defs>
                <circle id="rim" cx="0" cy="0" r="7"/>
                <circle id="rim2" cx="0" cy="0" r="3.5"/>
                <g id="zoomPlus">
                        <use xlink:href="#rim" fill="#404040">
                                <set attributeName="fill" to="#808080" begin="zoomplus.mouseover" end="zoomplus.mouseout"/>
                        </use>
                        <path d="M-4,0h8M0,-4v8" fill="none" stroke="white" stroke-width="1.5" pointer-events="none"/>
                </g>
                <g id="zoomMin">
                        <use xlink:href="#rim" fill="#404040">
                                <set attributeName="fill" to="#808080" begin="zoomminus.mouseover" end="zoomminus.mouseout"/>
                        </use>
                        <path d="M-4,0h8" fill="none" stroke="white" stroke-width="1.5" pointer-events="none"/>
                </g>
                <g id="dirArrow">
                        <path fill="none" stroke="white" stroke-width="1.5" d="M0,-3.0v7 M-2.5,-0.5L0,-3.0L2.5,-0.5"/>
                </g>
               <g id="resetDef">
                       <use xlink:href="#rim2" fill="#404040">
                               <set attributeName="fill" to="#808080" begin="reset.mouseover" end="reset.mouseout"/>
                       </use>
               </g>
        </defs>

<script type="text/javascript">
var viewWidth = 395;
var viewHeight = 491;
var sectionId = 'dynsection-0';
</script>
<script xlink:href="svgpan.js"/>
<svg id="graph" class="graph">
<g id="viewport">
<title>Player</title>
<polygon fill="#ffffff" stroke="transparent" points="-4,4 -4,-487 390.6567,-487 390.6567,4 -4,4"/>
<!-- Node1 -->
<g id="node1" class="node">
<title>Node1</title>
<polygon fill="#bfbfbf" stroke="#000000" points="101.1567,-.5 101.1567,-57.5 145.1567,-57.5 145.1567,-.5 101.1567,-.5"/>
<text text-anchor="middle" x="123.1567" y="-45.5" font-family="Helvetica,sans-Serif" font-size="10.00" fill="#000000">Player</text>
<polyline fill="none" stroke="#000000" points="101.1567,-38.5 145.1567,-38.5 "/>
<text text-anchor="middle" x="123.1567" y="-26.5" font-family="Helvetica,sans-Serif" font-size="10.00" fill="#000000"> </text>
<polyline fill="none" stroke="#000000" points="101.1567,-19.5 145.1567,-19.5 "/>
<text text-anchor="middle" x="123.1567" y="-7.5" font-family="Helvetica,sans-Serif" font-size="10.00" fill="#000000"> </text>
</g>
<!-- Node2 -->
<g id="node2" class="node">
<title>Node2</title>
<g id="a_node2"><a xlink:href="struct_board.html" target="_top" xlink:title="{Board\n||}">
<polygon fill="#ffffff" stroke="#000000" points="102.1567,-181.5 102.1567,-238.5 144.1567,-238.5 144.1567,-181.5 102.1567,-181.5"/>
<text text-anchor="middle" x="123.1567" y="-226.5" font-family="Helvetica,sans-Serif" font-size="10.00" fill="#000000">Board</text>
<polyline fill="none" stroke="#000000" points="102.1567,-219.5 144.1567,-219.5 "/>
<text text-anchor="middle" x="123.1567" y="-207.5" font-family="Helvetica,sans-Serif" font-size="10.00" fill="#000000"> </text>
<polyline fill="none" stroke="#000000" points="102.1567,-200.5 144.1567,-200.5 "/>
<text text-anchor="middle" x="123.1567" y="-188.5" font-family="Helvetica,sans-Serif" font-size="10.00" fill="#000000"> </text>
</a>
</g>
</g>
<!-- Node2&#45;&gt;Node1 -->
<g id="edge1" class="edge">
<title>Node2&#45;&gt;Node1</title>
<path fill="none" stroke="#404040" d="M123.1567,-181.32C123.1567,-151.2675 123.1567,-103.7933 123.1567,-69.8346"/>
<polygon fill="none" stroke="#404040" points="123.1568,-69.5458 119.1567,-63.5458 123.1567,-57.5458 127.1567,-63.5458 123.1568,-69.5458"/>
<text text-anchor="middle" x="140.1567" y="-131.5" font-family="Helvetica,sans-Serif" font-size="10.00" fill="#000000"> +board</text>
</g>
<!-- Node3 -->
<g id="node3" class="node">
<title>Node3</title>
<polygon fill="#ffffff" stroke="#bfbfbf" points="111.6567,-425.5 111.6567,-482.5 140.6567,-482.5 140.6567,-425.5 111.6567,-425.5"/>
<text text-anchor="middle" x="126.1567" y="-470.5" font-family="Helvetica,sans-Serif" font-size="10.00" fill="#000000">int</text>
<polyline fill="none" stroke="#bfbfbf" points="111.6567,-463.5 140.6567,-463.5 "/>
<text text-anchor="middle" x="126.1567" y="-451.5" font-family="Helvetica,sans-Serif" font-size="10.00" fill="#000000"> </text>
<polyline fill="none" stroke="#bfbfbf" points="111.6567,-444.5 140.6567,-444.5 "/>
<text text-anchor="middle" x="126.1567" y="-432.5" font-family="Helvetica,sans-Serif" font-size="10.00" fill="#000000"> </text>
</g>
<!-- Node3&#45;&gt;Node1 -->
<g id="edge3" class="edge">
<title>Node3&#45;&gt;Node1</title>
<path fill="none" stroke="#404040" d="M111.262,-440.7086C101.9894,-431.8484 90.3165,-419.5598 82.1567,-407 24.7979,-318.7118 -21.7137,-281.0219 11.1567,-181 27.1321,-132.388 65.2704,-86.5422 92.602,-58.1649"/>
<polygon fill="none" stroke="#404040" points="92.6334,-58.1331 93.9942,-51.0515 101.0544,-49.584 99.6936,-56.6656 92.6334,-58.1331"/>
<text text-anchor="middle" x="52.1567" y="-207.5" font-family="Helvetica,sans-Serif" font-size="10.00" fill="#000000"> +destroyed_boats</text>
</g>
<!-- Node3&#45;&gt;Node2 -->
<g id="edge2" class="edge">
<title>Node3&#45;&gt;Node2</title>
<path fill="none" stroke="#404040" d="M111.51,-438.3822C104.4883,-429.8162 96.8218,-418.5983 93.1567,-407 76.494,-354.2711 92.3352,-290.586 106.5863,-250.1837"/>
<polygon fill="none" stroke="#404040" points="106.6753,-249.9418 104.9961,-242.9289 110.8236,-238.6816 112.5029,-245.6945 106.6753,-249.9418"/>
<text text-anchor="middle" x="119.1567" y="-377" font-family="Helvetica,sans-Serif" font-size="10.00" fill="#000000"> +id</text>
<text text-anchor="middle" x="119.1567" y="-366" font-family="Helvetica,sans-Serif" font-size="10.00" fill="#000000">+board_mat</text>
</g>
<!-- Node4 -->
<g id="node4" class="node">
<title>Node4</title>
<g id="a_node4"><a xlink:href="struct_boat.html" target="_top" xlink:title="{Boat\n||}">
<polygon fill="#ffffff" stroke="#000000" points="234.6567,-105.5 234.6567,-162.5 271.6567,-162.5 271.6567,-105.5 234.6567,-105.5"/>
<text text-anchor="middle" x="253.1567" y="-150.5" font-family="Helvetica,sans-Serif" font-size="10.00" fill="#000000">Boat</text>
<polyline fill="none" stroke="#000000" points="234.6567,-143.5 271.6567,-143.5 "/>
<text text-anchor="middle" x="253.1567" y="-131.5" font-family="Helvetica,sans-Serif" font-size="10.00" fill="#000000"> </text>
<polyline fill="none" stroke="#000000" points="234.6567,-124.5 271.6567,-124.5 "/>
<text text-anchor="middle" x="253.1567" y="-112.5" font-family="Helvetica,sans-Serif" font-size="10.00" fill="#000000"> </text>
</a>
</g>
</g>
<!-- Node3&#45;&gt;Node4 -->
<g id="edge8" class="edge">
<title>Node3&#45;&gt;Node4</title>
<path fill="none" stroke="#404040" d="M138.989,-425.2805C141.3022,-419.324 143.501,-413.0256 145.1567,-407 163.0269,-341.9647 143.2384,-319.6739 168.1567,-257 182.0022,-222.176 207.2657,-187.5101 226.6649,-163.8999"/>
<polygon fill="none" stroke="#404040" points="226.851,-163.6784 227.6474,-156.5114 234.5694,-154.49 233.773,-161.657 226.851,-163.6784"/>
<text text-anchor="middle" x="195.6567" y="-315" font-family="Helvetica,sans-Serif" font-size="10.00" fill="#000000"> +id</text>
<text text-anchor="middle" x="195.6567" y="-304" font-family="Helvetica,sans-Serif" font-size="10.00" fill="#000000">+matrix_pos</text>
<text text-anchor="middle" x="195.6567" y="-293" font-family="Helvetica,sans-Serif" font-size="10.00" fill="#000000">+hit_points</text>
<text text-anchor="middle" x="195.6567" y="-282" font-family="Helvetica,sans-Serif" font-size="10.00" fill="#000000">+yi</text>
<text text-anchor="middle" x="195.6567" y="-271" font-family="Helvetica,sans-Serif" font-size="10.00" fill="#000000">+xi</text>
<text text-anchor="middle" x="195.6567" y="-260" font-family="Helvetica,sans-Serif" font-size="10.00" fill="#000000">+size</text>
</g>
<!-- Node5 -->
<g id="node5" class="node">
<title>Node5</title>
<g id="a_node5"><a xlink:href="struct_sprite.html" target="_top" xlink:title="{Sprite\n||}">
<polygon fill="#ffffff" stroke="#000000" points="232.1567,-261.5 232.1567,-318.5 274.1567,-318.5 274.1567,-261.5 232.1567,-261.5"/>
<text text-anchor="middle" x="253.1567" y="-306.5" font-family="Helvetica,sans-Serif" font-size="10.00" fill="#000000">Sprite</text>
<polyline fill="none" stroke="#000000" points="232.1567,-299.5 274.1567,-299.5 "/>
<text text-anchor="middle" x="253.1567" y="-287.5" font-family="Helvetica,sans-Serif" font-size="10.00" fill="#000000"> </text>
<polyline fill="none" stroke="#000000" points="232.1567,-280.5 274.1567,-280.5 "/>
<text text-anchor="middle" x="253.1567" y="-268.5" font-family="Helvetica,sans-Serif" font-size="10.00" fill="#000000"> </text>
</a>
</g>
</g>
<!-- Node3&#45;&gt;Node5 -->
<g id="edge6" class="edge">
<title>Node3&#45;&gt;Node5</title>
<path fill="none" stroke="#404040" d="M140.9832,-440.7698C150.6857,-431.7414 163.3366,-419.2419 173.1567,-407 194.9126,-379.8787 195.423,-369.6264 215.1567,-341 218.2363,-336.5326 221.5337,-331.9011 224.852,-327.3332"/>
<polygon fill="none" stroke="#404040" points="224.9594,-327.1872 225.2947,-319.9839 232.0728,-317.5228 231.7376,-324.7262 224.9594,-327.1872"/>
<text text-anchor="middle" x="234.1567" y="-399" font-family="Helvetica,sans-Serif" font-size="10.00" fill="#000000"> +height</text>
<text text-anchor="middle" x="234.1567" y="-388" font-family="Helvetica,sans-Serif" font-size="10.00" fill="#000000">+width</text>
<text text-anchor="middle" x="234.1567" y="-377" font-family="Helvetica,sans-Serif" font-size="10.00" fill="#000000">+x</text>
<text text-anchor="middle" x="234.1567" y="-366" font-family="Helvetica,sans-Serif" font-size="10.00" fill="#000000">+y</text>
<text text-anchor="middle" x="234.1567" y="-355" font-family="Helvetica,sans-Serif" font-size="10.00" fill="#000000">+yspeed</text>
<text text-anchor="middle" x="234.1567" y="-344" font-family="Helvetica,sans-Serif" font-size="10.00" fill="#000000">+xspeed</text>
</g>
<!-- Node4&#45;&gt;Node1 -->
<g id="edge4" class="edge">
<title>Node4&#45;&gt;Node1</title>
<path fill="none" stroke="#404040" d="M234.5308,-118.9561C213.7056,-102.1357 179.6286,-74.6119 154.6443,-54.4324"/>
<polygon fill="none" stroke="#404040" points="154.5631,-54.3668 147.3821,-53.7085 145.2278,-46.8267 152.4088,-47.4849 154.5631,-54.3668"/>
<text text-anchor="middle" x="209.1567" y="-79" font-family="Helvetica,sans-Serif" font-size="10.00" fill="#000000"> +boats</text>
</g>
<!-- Node5&#45;&gt;Node4 -->
<g id="edge5" class="edge">
<title>Node5&#45;&gt;Node4</title>
<path fill="none" stroke="#404040" d="M253.1567,-261.3872C253.1567,-237.164 253.1567,-202.1455 253.1567,-174.9522"/>
<polygon fill="none" stroke="#404040" points="253.1568,-174.6951 249.1567,-168.6952 253.1567,-162.6951 257.1567,-168.6951 253.1568,-174.6951"/>
<text text-anchor="middle" x="263.1567" y="-207.5" font-family="Helvetica,sans-Serif" font-size="10.00" fill="#000000"> +sp</text>
</g>
<!-- Node6 -->
<g id="node6" class="node">
<title>Node6</title>
<polygon fill="#ffffff" stroke="#bfbfbf" points="263.1567,-425.5 263.1567,-482.5 309.1567,-482.5 309.1567,-425.5 263.1567,-425.5"/>
<text text-anchor="middle" x="286.1567" y="-470.5" font-family="Helvetica,sans-Serif" font-size="10.00" fill="#000000">uint8_t</text>
<polyline fill="none" stroke="#bfbfbf" points="263.1567,-463.5 309.1567,-463.5 "/>
<text text-anchor="middle" x="286.1567" y="-451.5" font-family="Helvetica,sans-Serif" font-size="10.00" fill="#000000"> </text>
<polyline fill="none" stroke="#bfbfbf" points="263.1567,-444.5 309.1567,-444.5 "/>
<text text-anchor="middle" x="286.1567" y="-432.5" font-family="Helvetica,sans-Serif" font-size="10.00" fill="#000000"> </text>
</g>
<!-- Node6&#45;&gt;Node4 -->
<g id="edge9" class="edge">
<title>Node6&#45;&gt;Node4</title>
<path fill="none" stroke="#404040" d="M293.2546,-425.3199C294.4623,-419.3047 295.5282,-412.9735 296.1567,-407 306.7031,-306.7545 306.4783,-277.4398 277.1567,-181 276.4279,-178.6031 275.581,-176.182 274.6496,-173.7693"/>
<polygon fill="none" stroke="#404040" points="274.6017,-173.6595 268.5351,-169.7612 269.8002,-162.6619 275.8668,-166.5602 274.6017,-173.6595"/>
<text text-anchor="middle" x="313.6567" y="-293" font-family="Helvetica,sans-Serif" font-size="10.00" fill="#000000"> +rev</text>
<text text-anchor="middle" x="313.6567" y="-282" font-family="Helvetica,sans-Serif" font-size="10.00" fill="#000000">+def</text>
</g>
<!-- Node6&#45;&gt;Node5 -->
<g id="edge7" class="edge">
<title>Node6&#45;&gt;Node5</title>
<path fill="none" stroke="#404040" d="M273.9152,-425.2656C271.7302,-419.3102 269.6712,-413.016 268.1567,-407 261.9003,-382.149 258.1763,-353.6371 256.0038,-330.9811"/>
<polygon fill="none" stroke="#404040" points="255.9772,-330.6784 251.4657,-325.0528 254.9233,-318.7247 259.4348,-324.3503 255.9772,-330.6784"/>
<text text-anchor="middle" x="282.1567" y="-371.5" font-family="Helvetica,sans-Serif" font-size="10.00" fill="#000000"> +map</text>
</g>
<!-- Node7 -->
<g id="node7" class="node">
<title>Node7</title>
<polygon fill="#ffffff" stroke="#bfbfbf" points="351.6567,-261.5 351.6567,-318.5 386.6567,-318.5 386.6567,-261.5 351.6567,-261.5"/>
<text text-anchor="middle" x="369.1567" y="-306.5" font-family="Helvetica,sans-Serif" font-size="10.00" fill="#000000">bool</text>
<polyline fill="none" stroke="#bfbfbf" points="351.6567,-299.5 386.6567,-299.5 "/>
<text text-anchor="middle" x="369.1567" y="-287.5" font-family="Helvetica,sans-Serif" font-size="10.00" fill="#000000"> </text>
<polyline fill="none" stroke="#bfbfbf" points="351.6567,-280.5 386.6567,-280.5 "/>
<text text-anchor="middle" x="369.1567" y="-268.5" font-family="Helvetica,sans-Serif" font-size="10.00" fill="#000000"> </text>
</g>
<!-- Node7&#45;&gt;Node4 -->
<g id="edge10" class="edge">
<title>Node7&#45;&gt;Node4</title>
<path fill="none" stroke="#404040" d="M362.3057,-261.1342C355.6087,-237.6112 343.5455,-204.55 324.1567,-181 312.8876,-167.3124 296.5934,-156.1338 282.4563,-148.1177"/>
<polygon fill="none" stroke="#404040" points="282.3019,-148.0352 275.1248,-148.7352 271.7182,-142.3794 278.8953,-141.6795 282.3019,-148.0352"/>
<text text-anchor="middle" x="364.1567" y="-207.5" font-family="Helvetica,sans-Serif" font-size="10.00" fill="#000000"> +up</text>
</g>
</g>
</svg>
        <g id="navigator" transform="translate(0 0)" fill="#404254">
                <rect fill="#f2f5e9" fill-opacity="0.5" stroke="#606060" stroke-width=".5" x="0" y="0" width="60" height="60"/>
                <use id="zoomplus" xlink:href="#zoomPlus" x="17" y="9" onmousedown="handleZoom(evt,'in')"/>
                <use id="zoomminus" xlink:href="#zoomMin" x="42" y="9" onmousedown="handleZoom(evt,'out')"/>
                <use id="reset" xlink:href="#resetDef" x="30" y="36" onmousedown="handleReset()"/>
                <g id="arrowUp" xlink:href="#dirArrow" transform="translate(30 24)" onmousedown="handlePan(0,-1)">
                  <use xlink:href="#rim" fill="#404040">
                        <set attributeName="fill" to="#808080" begin="arrowUp.mouseover" end="arrowUp.mouseout"/>
                  </use>
                  <path fill="none" stroke="white" stroke-width="1.5" d="M0,-3.0v7 M-2.5,-0.5L0,-3.0L2.5,-0.5"/>
                </g>
                <g id="arrowRight" xlink:href="#dirArrow" transform="rotate(90) translate(36 -43)" onmousedown="handlePan(1,0)">
                  <use xlink:href="#rim" fill="#404040">
                        <set attributeName="fill" to="#808080" begin="arrowRight.mouseover" end="arrowRight.mouseout"/>
                  </use>
                  <path fill="none" stroke="white" stroke-width="1.5" d="M0,-3.0v7 M-2.5,-0.5L0,-3.0L2.5,-0.5"/>
                </g>
                <g id="arrowDown" xlink:href="#dirArrow" transform="rotate(180) translate(-30 -48)" onmousedown="handlePan(0,1)">
                  <use xlink:href="#rim" fill="#404040">
                        <set attributeName="fill" to="#808080" begin="arrowDown.mouseover" end="arrowDown.mouseout"/>
                  </use>
                  <path fill="none" stroke="white" stroke-width="1.5" d="M0,-3.0v7 M-2.5,-0.5L0,-3.0L2.5,-0.5"/>
                </g>
                <g id="arrowLeft" xlink:href="#dirArrow" transform="rotate(270) translate(-36 17)" onmousedown="handlePan(-1,0)">
                  <use xlink:href="#rim" fill="#404040">
                        <set attributeName="fill" to="#808080" begin="arrowLeft.mouseover" end="arrowLeft.mouseout"/>
                  </use>
                  <path fill="none" stroke="white" stroke-width="1.5" d="M0,-3.0v7 M-2.5,-0.5L0,-3.0L2.5,-0.5"/>
                </g>
        </g>
        <svg viewBox="0 0 15 15" width="100%" height="30px" preserveAspectRatio="xMaxYMin meet">
         <g id="arrow_out" transform="scale(0.3 0.3)">
          <a xlink:href="struct_player__coll__graph_org.svg" target="_base">
           <rect id="button" ry="5" rx="5" y="6" x="6" height="38" width="38"
                fill="#f2f5e9" fill-opacity="0.5" stroke="#606060" stroke-width="1.0"/>
           <path id="arrow"
             d="M 11.500037,31.436501 C 11.940474,20.09759 22.043105,11.32322 32.158766,21.979434 L 37.068811,17.246167 C 37.068811,17.246167 37.088388,32 37.088388,32 L 22.160133,31.978069 C 22.160133,31.978069 26.997745,27.140456 26.997745,27.140456 C 18.528582,18.264221 13.291696,25.230495 11.500037,31.436501 z"
             style="fill:#404040;"/>
          </a>
         </g>
        </svg>
</svg>
