<?xml version="1.0" encoding="UTF-8" standalone="no"?>
<!DOCTYPE svg PUBLIC "-//W3C//DTD SVG 1.1//EN"
 "http://www.w3.org/Graphics/SVG/1.1/DTD/svg11.dtd">
<!-- Generated by graphviz version 2.40.1 (20161225.0304)
 -->
<!-- Title: timer_subscribe_interrupt Pages: 1 -->
<svg width="520pt" height="28pt"
 viewBox="0.00 0.00 520.00 28.00" xmlns="http://www.w3.org/2000/svg" xmlns:xlink="http://www.w3.org/1999/xlink">
<g id="graph0" class="graph" transform="scale(1 1) rotate(0) translate(4 24)">
<title>timer_subscribe_interrupt</title>
<polygon fill="#ffffff" stroke="transparent" points="-4,4 -4,-24 516,-24 516,4 -4,4"/>
<!-- Node28 -->
<g id="node1" class="node">
<title>Node28</title>
<polygon fill="#bfbfbf" stroke="#000000" points="0,-.5 0,-19.5 126,-19.5 126,-.5 0,-.5"/>
<text text-anchor="middle" x="63" y="-7.5" font-family="Helvetica,sans-Serif" font-size="10.00" fill="#000000">timer_subscribe_interrupt</text>
</g>
<!-- Node29 -->
<g id="node2" class="node">
<title>Node29</title>
<g id="a_node2"><a xlink:href="interrupt__cicle_8h.html#a9553b9e9f5fa6db9b6fa41da73c82341" target="_top" xlink:title="Subscribes interrupts of the necessary modules. ">
<polygon fill="#ffffff" stroke="#000000" points="162,-.5 162,-19.5 266,-19.5 266,-.5 162,-.5"/>
<text text-anchor="middle" x="214" y="-7.5" font-family="Helvetica,sans-Serif" font-size="10.00" fill="#000000">enable_components</text>
</a>
</g>
</g>
<!-- Node28&#45;&gt;Node29 -->
<g id="edge1" class="edge">
<title>Node28&#45;&gt;Node29</title>
<path fill="none" stroke="#191970" d="M136.1897,-10C144.7695,-10 153.389,-10 161.6047,-10"/>
<polygon fill="#191970" stroke="#191970" points="136.1627,-6.5001 126.1627,-10 136.1626,-13.5001 136.1627,-6.5001"/>
</g>
<!-- Node30 -->
<g id="node3" class="node">
<title>Node30</title>
<g id="a_node3"><a xlink:href="menu_8h.html#a6ed6ac9188a15c74b9d07d12b34397c0" target="_top" xlink:title="Subscribes interruptions of the necessary modules Calls main menu and game functions. ">
<polygon fill="#ffffff" stroke="#000000" points="302,-.5 302,-19.5 394,-19.5 394,-.5 302,-.5"/>
<text text-anchor="middle" x="348" y="-7.5" font-family="Helvetica,sans-Serif" font-size="10.00" fill="#000000">game_main_cicle</text>
</a>
</g>
</g>
<!-- Node29&#45;&gt;Node30 -->
<g id="edge2" class="edge">
<title>Node29&#45;&gt;Node30</title>
<path fill="none" stroke="#191970" d="M276.2298,-10C284.8516,-10 293.5793,-10 301.8379,-10"/>
<polygon fill="#191970" stroke="#191970" points="276.1916,-6.5001 266.1916,-10 276.1916,-13.5001 276.1916,-6.5001"/>
</g>
<!-- Node31 -->
<g id="node4" class="node">
<title>Node31</title>
<g id="a_node4"><a xlink:href="proj_8c.html#a2a16f651eccbd248e1ad3b3b924b143b" target="_top" xlink:title="proj_main_loop">
<polygon fill="#ffffff" stroke="#000000" points="430,-.5 430,-19.5 512,-19.5 512,-.5 430,-.5"/>
<text text-anchor="middle" x="471" y="-7.5" font-family="Helvetica,sans-Serif" font-size="10.00" fill="#000000">proj_main_loop</text>
</a>
</g>
</g>
<!-- Node30&#45;&gt;Node31 -->
<g id="edge3" class="edge">
<title>Node30&#45;&gt;Node31</title>
<path fill="none" stroke="#191970" d="M404.1908,-10C412.8339,-10 421.6179,-10 429.8531,-10"/>
<polygon fill="#191970" stroke="#191970" points="404.1506,-6.5001 394.1506,-10 404.1506,-13.5001 404.1506,-6.5001"/>
</g>
</g>
</svg>
