<?xml version="1.0" encoding="UTF-8" standalone="no"?>
<!DOCTYPE svg PUBLIC "-//W3C//DTD SVG 1.1//EN"
 "http://www.w3.org/Graphics/SVG/1.1/DTD/svg11.dtd">
<!-- Generated by graphviz version 2.40.1 (20161225.0304)
 -->
<!-- Title: timer_unsubscribe_interrupt Pages: 1 -->
<svg width="533pt" height="28pt"
 viewBox="0.00 0.00 533.00 28.00" xmlns="http://www.w3.org/2000/svg" xmlns:xlink="http://www.w3.org/1999/xlink">
<g id="graph0" class="graph" transform="scale(1 1) rotate(0) translate(4 24)">
<title>timer_unsubscribe_interrupt</title>
<polygon fill="#ffffff" stroke="transparent" points="-4,4 -4,-24 529,-24 529,4 -4,4"/>
<!-- Node33 -->
<g id="node1" class="node">
<title>Node33</title>
<polygon fill="#bfbfbf" stroke="#000000" points="0,-.5 0,-19.5 137,-19.5 137,-.5 0,-.5"/>
<text text-anchor="middle" x="68.5" y="-7.5" font-family="Helvetica,sans-Serif" font-size="10.00" fill="#000000">timer_unsubscribe_interrupt</text>
</g>
<!-- Node34 -->
<g id="node2" class="node">
<title>Node34</title>
<g id="a_node2"><a xlink:href="interrupt__cicle_8h.html#a3c004d0012483dd8dc40d901b176e8a7" target="_top" xlink:title="Unsubscribes interrupts from the subscribed modules. ">
<polygon fill="#ffffff" stroke="#000000" points="173,-.5 173,-19.5 279,-19.5 279,-.5 173,-.5"/>
<text text-anchor="middle" x="226" y="-7.5" font-family="Helvetica,sans-Serif" font-size="10.00" fill="#000000">disable_components</text>
</a>
</g>
</g>
<!-- Node33&#45;&gt;Node34 -->
<g id="edge1" class="edge">
<title>Node33&#45;&gt;Node34</title>
<path fill="none" stroke="#191970" d="M147.2455,-10C155.8891,-10 164.5328,-10 172.76,-10"/>
<polygon fill="#191970" stroke="#191970" points="147.1237,-6.5001 137.1236,-10 147.1236,-13.5001 147.1237,-6.5001"/>
</g>
<!-- Node35 -->
<g id="node3" class="node">
<title>Node35</title>
<g id="a_node3"><a xlink:href="menu_8h.html#a6ed6ac9188a15c74b9d07d12b34397c0" target="_top" xlink:title="Subscribes interruptions of the necessary modules Calls main menu and game functions. ">
<polygon fill="#ffffff" stroke="#000000" points="315,-.5 315,-19.5 407,-19.5 407,-.5 315,-.5"/>
<text text-anchor="middle" x="361" y="-7.5" font-family="Helvetica,sans-Serif" font-size="10.00" fill="#000000">game_main_cicle</text>
</a>
</g>
</g>
<!-- Node34&#45;&gt;Node35 -->
<g id="edge2" class="edge">
<title>Node34&#45;&gt;Node35</title>
<path fill="none" stroke="#191970" d="M289.5656,-10C297.9985,-10 306.5136,-10 314.582,-10"/>
<polygon fill="#191970" stroke="#191970" points="289.3556,-6.5001 279.3556,-10 289.3555,-13.5001 289.3556,-6.5001"/>
</g>
<!-- Node36 -->
<g id="node4" class="node">
<title>Node36</title>
<g id="a_node4"><a xlink:href="proj_8c.html#a2a16f651eccbd248e1ad3b3b924b143b" target="_top" xlink:title="proj_main_loop">
<polygon fill="#ffffff" stroke="#000000" points="443,-.5 443,-19.5 525,-19.5 525,-.5 443,-.5"/>
<text text-anchor="middle" x="484" y="-7.5" font-family="Helvetica,sans-Serif" font-size="10.00" fill="#000000">proj_main_loop</text>
</a>
</g>
</g>
<!-- Node35&#45;&gt;Node36 -->
<g id="edge3" class="edge">
<title>Node35&#45;&gt;Node36</title>
<path fill="none" stroke="#191970" d="M417.1908,-10C425.8339,-10 434.6179,-10 442.8531,-10"/>
<polygon fill="#191970" stroke="#191970" points="417.1506,-6.5001 407.1506,-10 417.1506,-13.5001 417.1506,-6.5001"/>
</g>
</g>
</svg>
