<?xml version="1.0" encoding="UTF-8" standalone="no"?>
<!DOCTYPE svg PUBLIC "-//W3C//DTD SVG 1.1//EN"
 "http://www.w3.org/Graphics/SVG/1.1/DTD/svg11.dtd">
<!-- Generated by graphviz version 2.40.1 (20161225.0304)
 -->
<!-- Title: timer_interrupt_handler Pages: 1 -->
<svg width="1037pt" height="305pt"
 viewBox="0.00 0.00 1037.00 304.86" xmlns="http://www.w3.org/2000/svg" xmlns:xlink="http://www.w3.org/1999/xlink">
<g id="graph0" class="graph" transform="scale(1 1) rotate(0) translate(4 300.8574)">
<title>timer_interrupt_handler</title>
<polygon fill="#ffffff" stroke="transparent" points="-4,4 -4,-300.8574 1033,-300.8574 1033,4 -4,4"/>
<!-- Node13 -->
<g id="node1" class="node">
<title>Node13</title>
<polygon fill="#bfbfbf" stroke="#000000" points="0,-47.5 0,-66.5 116,-66.5 116,-47.5 0,-47.5"/>
<text text-anchor="middle" x="58" y="-54.5" font-family="Helvetica,sans-Serif" font-size="10.00" fill="#000000">timer_interrupt_handler</text>
</g>
<!-- Node14 -->
<g id="node2" class="node">
<title>Node14</title>
<g id="a_node2"><a xlink:href="interrupt__cicle_8h.html#a0718d5c75848a080a2122df6548d2422" target="_top" xlink:title="Receives and handles interruptions from the necessary modules. ">
<polygon fill="#ffffff" stroke="#000000" points="152,-47.5 152,-66.5 229,-66.5 229,-47.5 152,-47.5"/>
<text text-anchor="middle" x="190.5" y="-54.5" font-family="Helvetica,sans-Serif" font-size="10.00" fill="#000000">interrupt_cicle</text>
</a>
</g>
</g>
<!-- Node13&#45;&gt;Node14 -->
<g id="edge1" class="edge">
<title>Node13&#45;&gt;Node14</title>
<path fill="none" stroke="#191970" d="M126.3754,-57C135.1263,-57 143.8277,-57 151.8681,-57"/>
<polygon fill="#191970" stroke="#191970" points="126.1165,-53.5001 116.1164,-57 126.1164,-60.5001 126.1165,-53.5001"/>
</g>
<!-- Node15 -->
<g id="node3" class="node">
<title>Node15</title>
<g id="a_node3"><a xlink:href="game_8h.html#a382ed7c0cb3201c13d4396ad9afc5a3e" target="_top" xlink:title="Lets the player initialize the board unsign a graphical interface 10 boats must be positioned before ...">
<polygon fill="#ffffff" stroke="#000000" points="473,-66.5 473,-85.5 561,-85.5 561,-66.5 473,-66.5"/>
<text text-anchor="middle" x="517" y="-73.5" font-family="Helvetica,sans-Serif" font-size="10.00" fill="#000000">game_init_board</text>
</a>
</g>
</g>
<!-- Node14&#45;&gt;Node15 -->
<g id="edge2" class="edge">
<title>Node14&#45;&gt;Node15</title>
<path fill="none" stroke="#191970" d="M239.1974,-55.7983C289.0137,-55.0823 368.5878,-55.3595 437,-62 448.6482,-63.1307 461.1527,-64.9998 472.7338,-67.0097"/>
<polygon fill="#191970" stroke="#191970" points="238.9751,-52.3014 229.0336,-55.9643 239.0894,-59.3005 238.9751,-52.3014"/>
</g>
<!-- Node21 -->
<g id="node9" class="node">
<title>Node21</title>
<g id="a_node9"><a xlink:href="game_8h.html#aaeeee1282b90aa12468a1862c7871ee4" target="_top" xlink:title="Lets the player fire against the enemy&#39;s boats using a graphical interface Shows previously hit cells...">
<polygon fill="#ffffff" stroke="#000000" points="474,-142.5 474,-161.5 560,-161.5 560,-142.5 474,-142.5"/>
<text text-anchor="middle" x="517" y="-149.5" font-family="Helvetica,sans-Serif" font-size="10.00" fill="#000000">game_round_sp</text>
</a>
</g>
</g>
<!-- Node14&#45;&gt;Node21 -->
<g id="edge9" class="edge">
<title>Node14&#45;&gt;Node21</title>
<path fill="none" stroke="#191970" d="M232.9747,-69.3586C298.9676,-88.5602 424.7107,-125.1471 484.2208,-142.4624"/>
<polygon fill="#191970" stroke="#191970" points="233.8806,-65.9772 223.301,-66.5439 231.9249,-72.6984 233.8806,-65.9772"/>
</g>
<!-- Node22 -->
<g id="node10" class="node">
<title>Node22</title>
<g id="a_node10"><a xlink:href="game_8h.html#abdd70639378b19cfc929273ef7b4ff45" target="_top" xlink:title="Uses timer interruptions to wait a predetermined time. ">
<polygon fill="#ffffff" stroke="#000000" points="265,-180.5 265,-199.5 321,-199.5 321,-180.5 265,-180.5"/>
<text text-anchor="middle" x="293" y="-187.5" font-family="Helvetica,sans-Serif" font-size="10.00" fill="#000000">idle_time</text>
</a>
</g>
</g>
<!-- Node14&#45;&gt;Node22 -->
<g id="edge12" class="edge">
<title>Node14&#45;&gt;Node22</title>
<path fill="none" stroke="#191970" d="M204.2109,-74.7907C226.1027,-103.1967 268.2315,-157.8614 285.4187,-180.1628"/>
<polygon fill="#191970" stroke="#191970" points="206.7481,-72.3492 197.8715,-66.565 201.2036,-76.6223 206.7481,-72.3492"/>
</g>
<!-- Node26 -->
<g id="node14" class="node">
<title>Node26</title>
<g id="a_node14"><a xlink:href="menu_8h.html#a4cc4e9de5c448babdb711586dd12bec0" target="_top" xlink:title="graphical interface for the main menu ">
<polygon fill="#ffffff" stroke="#000000" points="717,-19.5 717,-38.5 758,-38.5 758,-19.5 717,-19.5"/>
<text text-anchor="middle" x="737.5" y="-26.5" font-family="Helvetica,sans-Serif" font-size="10.00" fill="#000000">menu</text>
</a>
</g>
</g>
<!-- Node14&#45;&gt;Node26 -->
<g id="edge22" class="edge">
<title>Node14&#45;&gt;Node26</title>
<path fill="none" stroke="#191970" d="M220.0963,-43.4037C259.5687,-26.5435 332.0284,0 397,0 397,0 397,0 517,0 591.133,0 678.0977,-16.3125 716.9468,-24.4688"/>
<polygon fill="#191970" stroke="#191970" points="218.5634,-40.2537 210.7963,-47.4595 221.3617,-46.6701 218.5634,-40.2537"/>
</g>
<!-- Node16 -->
<g id="node4" class="node">
<title>Node16</title>
<g id="a_node4"><a xlink:href="game_8h.html#aff1f849979a9ca10d6ff2bce0dfb7fd5" target="_top" xlink:title="Single Player Iniciates the boards from the respective players Starts the game loop (1 turn per playe...">
<polygon fill="#ffffff" stroke="#000000" points="598.5,-142.5 598.5,-161.5 654.5,-161.5 654.5,-142.5 598.5,-142.5"/>
<text text-anchor="middle" x="626.5" y="-149.5" font-family="Helvetica,sans-Serif" font-size="10.00" fill="#000000">game_sp</text>
</a>
</g>
</g>
<!-- Node15&#45;&gt;Node16 -->
<g id="edge3" class="edge">
<title>Node15&#45;&gt;Node16</title>
<path fill="none" stroke="#191970" d="M538.3378,-91.6151C554.3446,-103.228 576.8701,-119.3571 597,-133 601.6394,-136.1443 606.7542,-139.4825 611.4034,-142.4691"/>
<polygon fill="#191970" stroke="#191970" points="540.3173,-88.727 530.1723,-85.6726 536.1983,-94.3869 540.3173,-88.727"/>
</g>
<!-- Node20 -->
<g id="node8" class="node">
<title>Node20</title>
<g id="a_node8"><a xlink:href="game_8h.html#a03f40ddf75045683b3f488d4839937ab" target="_top" xlink:title="Multiplayer. ">
<polygon fill="#ffffff" stroke="#000000" points="597,-104.5 597,-123.5 656,-123.5 656,-104.5 597,-104.5"/>
<text text-anchor="middle" x="626.5" y="-111.5" font-family="Helvetica,sans-Serif" font-size="10.00" fill="#000000">game_mp</text>
</a>
</g>
</g>
<!-- Node15&#45;&gt;Node20 -->
<g id="edge7" class="edge">
<title>Node15&#45;&gt;Node20</title>
<path fill="none" stroke="#191970" d="M554.3792,-88.9718C568.9676,-94.0344 585.3917,-99.7341 598.8774,-104.4141"/>
<polygon fill="#191970" stroke="#191970" points="555.2263,-85.561 544.6315,-85.589 552.9313,-92.1741 555.2263,-85.561"/>
</g>
<!-- Node17 -->
<g id="node5" class="node">
<title>Node17</title>
<g id="a_node5"><a xlink:href="menu_8h.html#a95c8dcba38d720d3e4bd6fcf9a8ee279" target="_top" xlink:title="selects a menu option ">
<polygon fill="#ffffff" stroke="#000000" points="692,-104.5 692,-123.5 783,-123.5 783,-104.5 692,-104.5"/>
<text text-anchor="middle" x="737.5" y="-111.5" font-family="Helvetica,sans-Serif" font-size="10.00" fill="#000000">select_menu_opt</text>
</a>
</g>
</g>
<!-- Node16&#45;&gt;Node17 -->
<g id="edge4" class="edge">
<title>Node16&#45;&gt;Node17</title>
<path fill="none" stroke="#191970" d="M664.3913,-139.0282C679.1795,-133.9656 695.8285,-128.2659 709.499,-123.5859"/>
<polygon fill="#191970" stroke="#191970" points="662.8373,-135.8607 654.51,-142.411 665.1046,-142.4834 662.8373,-135.8607"/>
</g>
<!-- Node18 -->
<g id="node6" class="node">
<title>Node18</title>
<g id="a_node6"><a xlink:href="menu_8h.html#a6ed6ac9188a15c74b9d07d12b34397c0" target="_top" xlink:title="Subscribes interruptions of the necessary modules Calls main menu and game functions. ">
<polygon fill="#ffffff" stroke="#000000" points="819,-47.5 819,-66.5 911,-66.5 911,-47.5 819,-47.5"/>
<text text-anchor="middle" x="865" y="-54.5" font-family="Helvetica,sans-Serif" font-size="10.00" fill="#000000">game_main_cicle</text>
</a>
</g>
</g>
<!-- Node17&#45;&gt;Node18 -->
<g id="edge5" class="edge">
<title>Node17&#45;&gt;Node18</title>
<path fill="none" stroke="#191970" d="M768.2731,-100.2426C791.5688,-89.8281 822.9716,-75.7892 843.5897,-66.5716"/>
<polygon fill="#191970" stroke="#191970" points="766.5414,-97.1829 758.8406,-104.4595 769.3984,-103.5734 766.5414,-97.1829"/>
</g>
<!-- Node19 -->
<g id="node7" class="node">
<title>Node19</title>
<g id="a_node7"><a xlink:href="proj_8c.html#a2a16f651eccbd248e1ad3b3b924b143b" target="_top" xlink:title="proj_main_loop">
<polygon fill="#ffffff" stroke="#000000" points="947,-47.5 947,-66.5 1029,-66.5 1029,-47.5 947,-47.5"/>
<text text-anchor="middle" x="988" y="-54.5" font-family="Helvetica,sans-Serif" font-size="10.00" fill="#000000">proj_main_loop</text>
</a>
</g>
</g>
<!-- Node18&#45;&gt;Node19 -->
<g id="edge6" class="edge">
<title>Node18&#45;&gt;Node19</title>
<path fill="none" stroke="#191970" d="M921.1908,-57C929.8339,-57 938.6179,-57 946.8531,-57"/>
<polygon fill="#191970" stroke="#191970" points="921.1506,-53.5001 911.1506,-57 921.1506,-60.5001 921.1506,-53.5001"/>
</g>
<!-- Node20&#45;&gt;Node17 -->
<g id="edge8" class="edge">
<title>Node20&#45;&gt;Node17</title>
<path fill="none" stroke="#191970" d="M666.3594,-114C674.6038,-114 683.3495,-114 691.7839,-114"/>
<polygon fill="#191970" stroke="#191970" points="666.246,-110.5001 656.246,-114 666.2459,-117.5001 666.246,-110.5001"/>
</g>
<!-- Node21&#45;&gt;Node16 -->
<g id="edge10" class="edge">
<title>Node21&#45;&gt;Node16</title>
<path fill="none" stroke="#191970" d="M570.2954,-152C579.9786,-152 589.7225,-152 598.3144,-152"/>
<polygon fill="#191970" stroke="#191970" points="570.2773,-148.5001 560.2773,-152 570.2773,-155.5001 570.2773,-148.5001"/>
</g>
<!-- Node21&#45;&gt;Node20 -->
<g id="edge11" class="edge">
<title>Node21&#45;&gt;Node20</title>
<path fill="none" stroke="#191970" d="M554.3792,-139.0282C568.9676,-133.9656 585.3917,-128.2659 598.8774,-123.5859"/>
<polygon fill="#191970" stroke="#191970" points="552.9313,-135.8259 544.6315,-142.411 555.2263,-142.439 552.9313,-135.8259"/>
</g>
<!-- Node22&#45;&gt;Node16 -->
<g id="edge13" class="edge">
<title>Node22&#45;&gt;Node16</title>
<path fill="none" stroke="#191970" d="M331.3278,-191.5804C360.376,-192.3952 401.2559,-192.7226 437,-190 492.5933,-185.7655 506.5555,-183.0141 561,-171 573.3715,-168.27 586.8439,-164.5029 598.3356,-161.0425"/>
<polygon fill="#191970" stroke="#191970" points="331.2973,-188.0778 321.1926,-191.2629 331.0781,-195.0744 331.2973,-188.0778"/>
</g>
<!-- Node22&#45;&gt;Node20 -->
<g id="edge14" class="edge">
<title>Node22&#45;&gt;Node20</title>
<path fill="none" stroke="#191970" d="M306.8687,-172.5314C318.6349,-159.1273 336.7902,-141.5207 357,-133 438.2537,-98.7424 545.5091,-104.5538 596.7556,-110.0583"/>
<polygon fill="#191970" stroke="#191970" points="304.1644,-170.3092 300.407,-180.2154 309.5219,-174.8145 304.1644,-170.3092"/>
</g>
<!-- Node22&#45;&gt;Node21 -->
<g id="edge15" class="edge">
<title>Node22&#45;&gt;Node21</title>
<path fill="none" stroke="#191970" d="M331.1639,-186.0385C360.284,-182.7564 401.3296,-177.5714 437,-171 451.1794,-168.3878 466.6227,-164.8793 480.1256,-161.5884"/>
<polygon fill="#191970" stroke="#191970" points="330.5623,-182.5836 321.0071,-187.1606 331.331,-189.5412 330.5623,-182.5836"/>
</g>
<!-- Node23 -->
<g id="node11" class="node">
<title>Node23</title>
<g id="a_node11"><a xlink:href="game_8h.html#afb1a61b5802eed643536ce45225d2000" target="_top" xlink:title="Randomly fires upon player&#39;s boats using a state machine to simulate a strategy In case of a hit the ...">
<polygon fill="#ffffff" stroke="#000000" points="475.5,-256.5 475.5,-275.5 558.5,-275.5 558.5,-256.5 475.5,-256.5"/>
<text text-anchor="middle" x="517" y="-263.5" font-family="Helvetica,sans-Serif" font-size="10.00" fill="#000000">game_round_ai</text>
</a>
</g>
</g>
<!-- Node22&#45;&gt;Node23 -->
<g id="edge16" class="edge">
<title>Node22&#45;&gt;Node23</title>
<path fill="none" stroke="#191970" d="M299.5636,-209.2101C308.5236,-232.0358 326.9912,-269.0332 357,-285 402.3152,-309.111 464.8744,-288.8945 496.6739,-275.5099"/>
<polygon fill="#191970" stroke="#191970" points="302.7542,-207.7457 296.0139,-199.5714 296.1855,-210.1649 302.7542,-207.7457"/>
</g>
<!-- Node24 -->
<g id="node12" class="node">
<title>Node24</title>
<g id="a_node12"><a xlink:href="game_8h.html#a428e51196f5847d0e5e50822aa1c9716" target="_top" xlink:title="displays the end game screen (lost) ">
<polygon fill="#ffffff" stroke="#000000" points="357,-256.5 357,-275.5 437,-275.5 437,-256.5 357,-256.5"/>
<text text-anchor="middle" x="397" y="-263.5" font-family="Helvetica,sans-Serif" font-size="10.00" fill="#000000">game_over_sp</text>
</a>
</g>
</g>
<!-- Node22&#45;&gt;Node24 -->
<g id="edge18" class="edge">
<title>Node22&#45;&gt;Node24</title>
<path fill="none" stroke="#191970" d="M311.8053,-206.4638C324.2728,-217.0781 341.1884,-230.9168 357,-242 364.2948,-247.1133 372.7058,-252.2635 379.9271,-256.4749"/>
<polygon fill="#191970" stroke="#191970" points="313.8151,-203.5757 303.9529,-199.7041 309.2482,-208.8808 313.8151,-203.5757"/>
</g>
<!-- Node25 -->
<g id="node13" class="node">
<title>Node25</title>
<g id="a_node13"><a xlink:href="game_8h.html#a0ecf3df63f0053cd3177ad9dd3716b54" target="_top" xlink:title="displays the end game screen (won) ">
<polygon fill="#ffffff" stroke="#000000" points="366.5,-142.5 366.5,-161.5 427.5,-161.5 427.5,-142.5 366.5,-142.5"/>
<text text-anchor="middle" x="397" y="-149.5" font-family="Helvetica,sans-Serif" font-size="10.00" fill="#000000">winner_sp</text>
</a>
</g>
</g>
<!-- Node22&#45;&gt;Node25 -->
<g id="edge20" class="edge">
<title>Node22&#45;&gt;Node25</title>
<path fill="none" stroke="#191970" d="M328.9019,-176.882C342.6571,-171.8561 358.0796,-166.2209 370.7648,-161.5859"/>
<polygon fill="#191970" stroke="#191970" points="327.435,-173.6916 319.2436,-180.411 329.8374,-180.2664 327.435,-173.6916"/>
</g>
<!-- Node23&#45;&gt;Node16 -->
<g id="edge17" class="edge">
<title>Node23&#45;&gt;Node16</title>
<path fill="none" stroke="#191970" d="M548.0473,-251.355C552.6177,-248.5633 557.0951,-245.4284 561,-242 588.7372,-217.6476 611.5463,-179.5345 621.3408,-161.7502"/>
<polygon fill="#191970" stroke="#191970" points="546.2729,-248.3373 539.2699,-256.2877 549.7023,-254.4397 546.2729,-248.3373"/>
</g>
<!-- Node24&#45;&gt;Node23 -->
<g id="edge19" class="edge">
<title>Node24&#45;&gt;Node23</title>
<path fill="none" stroke="#191970" d="M447.5739,-266C456.8395,-266 466.4127,-266 475.3797,-266"/>
<polygon fill="#191970" stroke="#191970" points="447.2921,-262.5001 437.2921,-266 447.2921,-269.5001 447.2921,-262.5001"/>
</g>
<!-- Node25&#45;&gt;Node21 -->
<g id="edge21" class="edge">
<title>Node25&#45;&gt;Node21</title>
<path fill="none" stroke="#191970" d="M437.8666,-152C449.4419,-152 462.0783,-152 473.7872,-152"/>
<polygon fill="#191970" stroke="#191970" points="437.5916,-148.5001 427.5916,-152 437.5915,-155.5001 437.5916,-148.5001"/>
</g>
<!-- Node26&#45;&gt;Node18 -->
<g id="edge24" class="edge">
<title>Node26&#45;&gt;Node18</title>
<path fill="none" stroke="#191970" d="M768.1557,-35.7322C784.1403,-39.2426 803.9658,-43.5964 821.5076,-47.4487"/>
<polygon fill="#191970" stroke="#191970" points="768.7869,-32.2875 758.2688,-33.561 767.2853,-39.1246 768.7869,-32.2875"/>
</g>
<!-- Node26&#45;&gt;Node26 -->
<g id="edge23" class="edge">
<title>Node26&#45;&gt;Node26</title>
<path fill="none" stroke="#191970" d="M717.1306,-48.4C718.491,-53.3146 725.2808,-57 737.5,-57 757.0508,-57 762.7022,-47.5653 754.4542,-38.7571"/>
<polygon fill="#191970" stroke="#191970" points="720.5065,-49.3518 720.5458,-38.7571 713.9081,-47.0149 720.5065,-49.3518"/>
</g>
</g>
</svg>
