<?xml version="1.0" encoding="UTF-8" standalone="no"?>
<!DOCTYPE svg PUBLIC "-//W3C//DTD SVG 1.1//EN"
 "http://www.w3.org/Graphics/SVG/1.1/DTD/svg11.dtd">
<!-- Generated by graphviz version 2.40.1 (20161225.0304)
 -->
<!-- Title: get_timer_counter Pages: 1 -->
<svg width="901pt" height="179pt"
 viewBox="0.00 0.00 901.00 179.41" xmlns="http://www.w3.org/2000/svg" xmlns:xlink="http://www.w3.org/1999/xlink">
<g id="graph0" class="graph" transform="scale(1 1) rotate(0) translate(4 175.4113)">
<title>get_timer_counter</title>
<polygon fill="#ffffff" stroke="transparent" points="-4,4 -4,-175.4113 897,-175.4113 897,4 -4,4"/>
<!-- Node1 -->
<g id="node1" class="node">
<title>Node1</title>
<polygon fill="#bfbfbf" stroke="#000000" points="0,-95.5 0,-114.5 95,-114.5 95,-95.5 0,-95.5"/>
<text text-anchor="middle" x="47.5" y="-102.5" font-family="Helvetica,sans-Serif" font-size="10.00" fill="#000000">get_timer_counter</text>
</g>
<!-- Node2 -->
<g id="node2" class="node">
<title>Node2</title>
<g id="a_node2"><a xlink:href="game_8h.html#abdd70639378b19cfc929273ef7b4ff45" target="_top" xlink:title="Uses timer interruptions to wait a predetermined time. ">
<polygon fill="#ffffff" stroke="#000000" points="131,-95.5 131,-114.5 187,-114.5 187,-95.5 131,-95.5"/>
<text text-anchor="middle" x="159" y="-102.5" font-family="Helvetica,sans-Serif" font-size="10.00" fill="#000000">idle_time</text>
</a>
</g>
</g>
<!-- Node1&#45;&gt;Node2 -->
<g id="edge1" class="edge">
<title>Node1&#45;&gt;Node2</title>
<path fill="none" stroke="#191970" d="M105.1817,-105C114.1213,-105 122.9946,-105 130.8807,-105"/>
<polygon fill="#191970" stroke="#191970" points="105.1095,-101.5001 95.1095,-105 105.1094,-108.5001 105.1095,-101.5001"/>
</g>
<!-- Node3 -->
<g id="node3" class="node">
<title>Node3</title>
<g id="a_node3"><a xlink:href="game_8h.html#aff1f849979a9ca10d6ff2bce0dfb7fd5" target="_top" xlink:title="Single Player Iniciates the boards from the respective players Starts the game loop (1 turn per playe...">
<polygon fill="#ffffff" stroke="#000000" points="462.5,-76.5 462.5,-95.5 518.5,-95.5 518.5,-76.5 462.5,-76.5"/>
<text text-anchor="middle" x="490.5" y="-83.5" font-family="Helvetica,sans-Serif" font-size="10.00" fill="#000000">game_sp</text>
</a>
</g>
</g>
<!-- Node2&#45;&gt;Node3 -->
<g id="edge2" class="edge">
<title>Node2&#45;&gt;Node3</title>
<path fill="none" stroke="#191970" d="M197.4567,-102.7958C264.8874,-98.931 402.9219,-91.0196 462.308,-87.6158"/>
<polygon fill="#191970" stroke="#191970" points="197.0468,-99.3135 187.2635,-103.3801 197.4474,-106.302 197.0468,-99.3135"/>
</g>
<!-- Node7 -->
<g id="node7" class="node">
<title>Node7</title>
<g id="a_node7"><a xlink:href="game_8h.html#a03f40ddf75045683b3f488d4839937ab" target="_top" xlink:title="Multiplayer. ">
<polygon fill="#ffffff" stroke="#000000" points="461,-114.5 461,-133.5 520,-133.5 520,-114.5 461,-114.5"/>
<text text-anchor="middle" x="490.5" y="-121.5" font-family="Helvetica,sans-Serif" font-size="10.00" fill="#000000">game_mp</text>
</a>
</g>
</g>
<!-- Node2&#45;&gt;Node7 -->
<g id="edge6" class="edge">
<title>Node2&#45;&gt;Node7</title>
<path fill="none" stroke="#191970" d="M173.2487,-122.3021C185.0479,-135.1707 203.0626,-151.7126 223,-159 309.8809,-190.7561 421.9201,-152.6819 468.5887,-133.6226"/>
<polygon fill="#191970" stroke="#191970" points="175.6524,-119.7339 166.4348,-114.5102 170.383,-124.3419 175.6524,-119.7339"/>
</g>
<!-- Node8 -->
<g id="node8" class="node">
<title>Node8</title>
<g id="a_node8"><a xlink:href="game_8h.html#aaeeee1282b90aa12468a1862c7871ee4" target="_top" xlink:title="Lets the player fire against the enemy&#39;s boats using a graphical interface Shows previously hit cells...">
<polygon fill="#ffffff" stroke="#000000" points="339,-114.5 339,-133.5 425,-133.5 425,-114.5 339,-114.5"/>
<text text-anchor="middle" x="382" y="-121.5" font-family="Helvetica,sans-Serif" font-size="10.00" fill="#000000">game_round_sp</text>
</a>
</g>
</g>
<!-- Node2&#45;&gt;Node8 -->
<g id="edge8" class="edge">
<title>Node2&#45;&gt;Node8</title>
<path fill="none" stroke="#191970" d="M179.1783,-120.8147C191.1748,-129.1957 207.1121,-138.6387 223,-143 268.0388,-155.3634 322.4398,-143.3172 354.5185,-133.5746"/>
<polygon fill="#191970" stroke="#191970" points="180.9763,-117.7936 170.8387,-114.7145 176.8435,-123.4434 180.9763,-117.7936"/>
</g>
<!-- Node9 -->
<g id="node9" class="node">
<title>Node9</title>
<g id="a_node9"><a xlink:href="game_8h.html#afb1a61b5802eed643536ce45225d2000" target="_top" xlink:title="Randomly fires upon player&#39;s boats using a state machine to simulate a strategy In case of a hit the ...">
<polygon fill="#ffffff" stroke="#000000" points="340.5,-38.5 340.5,-57.5 423.5,-57.5 423.5,-38.5 340.5,-38.5"/>
<text text-anchor="middle" x="382" y="-45.5" font-family="Helvetica,sans-Serif" font-size="10.00" fill="#000000">game_round_ai</text>
</a>
</g>
</g>
<!-- Node2&#45;&gt;Node9 -->
<g id="edge11" class="edge">
<title>Node2&#45;&gt;Node9</title>
<path fill="none" stroke="#191970" d="M182.8726,-90.3239C194.5743,-83.7556 209.11,-76.4944 223,-72 261.6463,-59.4951 307.7247,-53.452 340.3031,-50.5649"/>
<polygon fill="#191970" stroke="#191970" points="181.0557,-87.3316 174.1621,-95.377 184.5683,-93.3865 181.0557,-87.3316"/>
</g>
<!-- Node10 -->
<g id="node10" class="node">
<title>Node10</title>
<g id="a_node10"><a xlink:href="game_8h.html#a428e51196f5847d0e5e50822aa1c9716" target="_top" xlink:title="displays the end game screen (lost) ">
<polygon fill="#ffffff" stroke="#000000" points="223,-.5 223,-19.5 303,-19.5 303,-.5 223,-.5"/>
<text text-anchor="middle" x="263" y="-7.5" font-family="Helvetica,sans-Serif" font-size="10.00" fill="#000000">game_over_sp</text>
</a>
</g>
</g>
<!-- Node2&#45;&gt;Node10 -->
<g id="edge13" class="edge">
<title>Node2&#45;&gt;Node10</title>
<path fill="none" stroke="#191970" d="M172.4302,-87.348C184.5804,-72.098 203.5086,-50.048 223,-34 229.5022,-28.6465 237.3229,-23.6818 244.3177,-19.6735"/>
<polygon fill="#191970" stroke="#191970" points="169.5036,-85.4089 166.1065,-95.4444 175.0203,-89.7178 169.5036,-85.4089"/>
</g>
<!-- Node11 -->
<g id="node11" class="node">
<title>Node11</title>
<g id="a_node11"><a xlink:href="game_8h.html#a0ecf3df63f0053cd3177ad9dd3716b54" target="_top" xlink:title="displays the end game screen (won) ">
<polygon fill="#ffffff" stroke="#000000" points="232.5,-114.5 232.5,-133.5 293.5,-133.5 293.5,-114.5 232.5,-114.5"/>
<text text-anchor="middle" x="263" y="-121.5" font-family="Helvetica,sans-Serif" font-size="10.00" fill="#000000">winner_sp</text>
</a>
</g>
</g>
<!-- Node2&#45;&gt;Node11 -->
<g id="edge15" class="edge">
<title>Node2&#45;&gt;Node11</title>
<path fill="none" stroke="#191970" d="M197.0164,-111.9453C208.6174,-114.0647 221.2216,-116.3674 232.2757,-118.3869"/>
<polygon fill="#191970" stroke="#191970" points="197.6101,-108.4959 187.1439,-110.1417 196.352,-115.3819 197.6101,-108.4959"/>
</g>
<!-- Node4 -->
<g id="node4" class="node">
<title>Node4</title>
<g id="a_node4"><a xlink:href="menu_8h.html#a95c8dcba38d720d3e4bd6fcf9a8ee279" target="_top" xlink:title="selects a menu option ">
<polygon fill="#ffffff" stroke="#000000" points="556,-95.5 556,-114.5 647,-114.5 647,-95.5 556,-95.5"/>
<text text-anchor="middle" x="601.5" y="-102.5" font-family="Helvetica,sans-Serif" font-size="10.00" fill="#000000">select_menu_opt</text>
</a>
</g>
</g>
<!-- Node3&#45;&gt;Node4 -->
<g id="edge3" class="edge">
<title>Node3&#45;&gt;Node4</title>
<path fill="none" stroke="#191970" d="M528.4694,-92.4993C537.2612,-94.0042 546.707,-95.621 555.7914,-97.176"/>
<polygon fill="#191970" stroke="#191970" points="528.9572,-89.0319 518.51,-90.7945 527.7761,-95.9316 528.9572,-89.0319"/>
</g>
<!-- Node5 -->
<g id="node5" class="node">
<title>Node5</title>
<g id="a_node5"><a xlink:href="menu_8h.html#a6ed6ac9188a15c74b9d07d12b34397c0" target="_top" xlink:title="Subscribes interruptions of the necessary modules Calls main menu and game functions. ">
<polygon fill="#ffffff" stroke="#000000" points="683,-95.5 683,-114.5 775,-114.5 775,-95.5 683,-95.5"/>
<text text-anchor="middle" x="729" y="-102.5" font-family="Helvetica,sans-Serif" font-size="10.00" fill="#000000">game_main_cicle</text>
</a>
</g>
</g>
<!-- Node4&#45;&gt;Node5 -->
<g id="edge4" class="edge">
<title>Node4&#45;&gt;Node5</title>
<path fill="none" stroke="#191970" d="M657.3846,-105C665.8691,-105 674.5423,-105 682.7907,-105"/>
<polygon fill="#191970" stroke="#191970" points="657.1703,-101.5001 647.1703,-105 657.1703,-108.5001 657.1703,-101.5001"/>
</g>
<!-- Node6 -->
<g id="node6" class="node">
<title>Node6</title>
<g id="a_node6"><a xlink:href="proj_8c.html#a2a16f651eccbd248e1ad3b3b924b143b" target="_top" xlink:title="proj_main_loop">
<polygon fill="#ffffff" stroke="#000000" points="811,-95.5 811,-114.5 893,-114.5 893,-95.5 811,-95.5"/>
<text text-anchor="middle" x="852" y="-102.5" font-family="Helvetica,sans-Serif" font-size="10.00" fill="#000000">proj_main_loop</text>
</a>
</g>
</g>
<!-- Node5&#45;&gt;Node6 -->
<g id="edge5" class="edge">
<title>Node5&#45;&gt;Node6</title>
<path fill="none" stroke="#191970" d="M785.1908,-105C793.8339,-105 802.6179,-105 810.8531,-105"/>
<polygon fill="#191970" stroke="#191970" points="785.1506,-101.5001 775.1506,-105 785.1506,-108.5001 785.1506,-101.5001"/>
</g>
<!-- Node7&#45;&gt;Node4 -->
<g id="edge7" class="edge">
<title>Node7&#45;&gt;Node4</title>
<path fill="none" stroke="#191970" d="M530.3594,-117.1772C538.6038,-115.766 547.3495,-114.269 555.7839,-112.8253"/>
<polygon fill="#191970" stroke="#191970" points="529.5121,-113.7713 520.246,-118.9083 530.6931,-120.6709 529.5121,-113.7713"/>
</g>
<!-- Node8&#45;&gt;Node3 -->
<g id="edge9" class="edge">
<title>Node8&#45;&gt;Node3</title>
<path fill="none" stroke="#191970" d="M419.0379,-111.0282C433.4931,-105.9656 449.7671,-100.2659 463.1296,-95.5859"/>
<polygon fill="#191970" stroke="#191970" points="417.6601,-107.8022 409.3791,-114.411 419.974,-114.4088 417.6601,-107.8022"/>
</g>
<!-- Node8&#45;&gt;Node7 -->
<g id="edge10" class="edge">
<title>Node8&#45;&gt;Node7</title>
<path fill="none" stroke="#191970" d="M435.3886,-124C444.131,-124 452.9033,-124 460.797,-124"/>
<polygon fill="#191970" stroke="#191970" points="435.1939,-120.5001 425.1938,-124 435.1938,-127.5001 435.1939,-120.5001"/>
</g>
<!-- Node9&#45;&gt;Node3 -->
<g id="edge12" class="edge">
<title>Node9&#45;&gt;Node3</title>
<path fill="none" stroke="#191970" d="M419.0379,-60.9718C433.4931,-66.0344 449.7671,-71.7341 463.1296,-76.4141"/>
<polygon fill="#191970" stroke="#191970" points="419.974,-57.5912 409.3791,-57.589 417.6601,-64.1978 419.974,-57.5912"/>
</g>
<!-- Node10&#45;&gt;Node9 -->
<g id="edge14" class="edge">
<title>Node10&#45;&gt;Node9</title>
<path fill="none" stroke="#191970" d="M302.7098,-22.6804C318.7886,-27.8148 337.0433,-33.6441 351.9809,-38.4141"/>
<polygon fill="#191970" stroke="#191970" points="303.6195,-19.2969 293.0287,-19.589 301.4901,-25.9652 303.6195,-19.2969"/>
</g>
<!-- Node11&#45;&gt;Node8 -->
<g id="edge16" class="edge">
<title>Node11&#45;&gt;Node8</title>
<path fill="none" stroke="#191970" d="M303.7237,-124C315.0676,-124 327.426,-124 338.9016,-124"/>
<polygon fill="#191970" stroke="#191970" points="303.6455,-120.5001 293.6455,-124 303.6454,-127.5001 303.6455,-120.5001"/>
</g>
</g>
</svg>
